solid Visualization Toolkit generated SLA File
 facet normal -0.93260961603515602 0.1055924417203624 0.34509352403412419
  outer loop
   vertex -0.013802999630570412 -0.026908000931143761 0.003992999903857708
   vertex -0.01182200014591217 -0.023895999416708946 0.0084250001236796379
   vertex -0.013660999946296215 -0.025862999260425568 0.0040569999255239964
  endloop
 endfacet
 facet normal -0.97876726474783082 0.12295532112762983 0.16400192213645232
  outer loop
   vertex -0.013802999630570412 -0.026908000931143761 0.003992999903857708
   vertex -0.013660999946296215 -0.025862999260425568 0.0040569999255239964
   vertex -0.013904999941587448 -0.02604999952018261 0.0027409999165683985
  endloop
 endfacet
 facet normal -0.92367710666971659 0.048158222491400456 0.38013338214464876
  outer loop
   vertex -0.012682000175118446 -0.027713999152183533 0.0068190000019967556
   vertex -0.01182200014591217 -0.023895999416708946 0.0084250001236796379
   vertex -0.013802999630570412 -0.026908000931143761 0.003992999903857708
  endloop
 endfacet
 facet normal -0.39731591697511337 -0.9141063467326872 -0.08092990165102891
  outer loop
   vertex -0.010397999547421932 -0.028566999360918999 0.0060149999335408211
   vertex -0.013802999630570412 -0.026908000931143761 0.003992999903857708
   vertex -0.011745000258088112 -0.027668999508023262 0.0024850000627338886
  endloop
 endfacet
 facet normal -0.38159091181770904 -0.91771784814139046 -0.11037358026658865
  outer loop
   vertex -0.013802999630570412 -0.026908000931143761 0.003992999903857708
   vertex -0.010397999547421932 -0.028566999360918999 0.0060149999335408211
   vertex -0.012682000175118446 -0.027713999152183533 0.0068190000019967556
  endloop
 endfacet
 facet normal -0.55259200541174847 -0.74192121189340443 -0.37973015537042115
  outer loop
   vertex -0.013802999630570412 -0.026908000931143761 0.003992999903857708
   vertex -0.01169699989259243 -0.02626500092446804 -0.0003279999946244061
   vertex -0.011745000258088112 -0.027668999508023262 0.0024850000627338886
  endloop
 endfacet
 facet normal -0.62739151574548413 -0.66523467484018894 -0.40477489220658452
  outer loop
   vertex -0.013802999630570412 -0.026908000931143761 0.003992999903857708
   vertex -0.013904999941587448 -0.02604999952018261 0.0027409999165683985
   vertex -0.01169699989259243 -0.02626500092446804 -0.0003279999946244061
  endloop
 endfacet
 facet normal -0.87651160962800834 0.45205226215478922 0.16545739774351478
  outer loop
   vertex -0.01182200014591217 -0.023895999416708946 0.0084250001236796379
   vertex -0.012024000287055969 -0.022476999089121819 0.0034779999405145645
   vertex -0.013660999946296215 -0.025862999260425568 0.0040569999255239964
  endloop
 endfacet
 facet normal -0.94868934635348567 0.085653737268920324 0.30438784700980226
  outer loop
   vertex -0.01182200014591217 -0.023895999416708946 0.0084250001236796379
   vertex -0.012682000175118446 -0.027713999152183533 0.0068190000019967556
   vertex -0.011909999884665012 -0.027009999379515648 0.0090269995853304863
  endloop
 endfacet
 facet normal -0.91824139467940302 0.36915332926061151 0.1433825672563829
  outer loop
   vertex -0.012024000287055969 -0.022476999089121819 0.0034779999405145645
   vertex -0.01182200014591217 -0.023895999416708946 0.0084250001236796379
   vertex -0.010435000061988831 -0.020082000643014908 0.0074880002066493034
  endloop
 endfacet
 facet normal -0.050109683444132268 0.19093248404796667 0.98032331715633592
  outer loop
   vertex -0.0092679997906088829 -0.022701999172568321 0.0083229998126626015
   vertex -0.01182200014591217 -0.023895999416708946 0.0084250001236796379
   vertex -0.011909999884665012 -0.027009999379515648 0.0090269995853304863
  endloop
 endfacet
 facet normal -0.086625073180281315 0.26727963700280466 0.95971750652999965
  outer loop
   vertex -0.010435000061988831 -0.020082000643014908 0.0074880002066493034
   vertex -0.01182200014591217 -0.023895999416708946 0.0084250001236796379
   vertex -0.0092679997906088829 -0.022701999172568321 0.0083229998126626015
  endloop
 endfacet
 facet normal -0.76137812784868719 0.44819679409471352 0.46842606694850919
  outer loop
   vertex -0.013423999771475792 -0.022140000015497208 0.0008800000068731606
   vertex -0.013660999946296215 -0.025862999260425568 0.0040569999255239964
   vertex -0.012024000287055969 -0.022476999089121819 0.0034779999405145645
  endloop
 endfacet
 facet normal -0.96950482727150222 0.19184794284343648 0.1524951039345081
  outer loop
   vertex -0.013660999946296215 -0.025862999260425568 0.0040569999255239964
   vertex -0.013423999771475792 -0.022140000015497208 0.0008800000068731606
   vertex -0.013904999941587448 -0.02604999952018261 0.0027409999165683985
  endloop
 endfacet
 facet normal -0.93220027460723565 -0.05555150034483762 -0.35765441257117442
  outer loop
   vertex -0.013904999941587448 -0.02604999952018261 0.0027409999165683985
   vertex -0.013423999771475792 -0.022140000015497208 0.0008800000068731606
   vertex -0.012616000138223171 -0.024167999625205994 -0.00091100001009181142
  endloop
 endfacet
 facet normal -0.73553477089286823 -0.46049667775454284 -0.49692193610727714
  outer loop
   vertex -0.012616000138223171 -0.024167999625205994 -0.00091100001009181142
   vertex -0.01169699989259243 -0.02626500092446804 -0.0003279999946244061
   vertex -0.013904999941587448 -0.02604999952018261 0.0027409999165683985
  endloop
 endfacet
 facet normal -0.21108799947858969 -0.90750299239135601 0.36315310170348436
  outer loop
   vertex -0.010397999547421932 -0.028566999360918999 0.0060149999335408211
   vertex -0.011909999884665012 -0.027009999379515648 0.0090269995853304863
   vertex -0.012682000175118446 -0.027713999152183533 0.0068190000019967556
  endloop
 endfacet
 facet normal -0.10395754754410841 -0.90384417879443879 0.41504039414016175
  outer loop
   vertex -0.011909999884665012 -0.027009999379515648 0.0090269995853304863
   vertex -0.010397999547421932 -0.028566999360918999 0.0060149999335408211
   vertex -0.0090810004621744156 -0.027998000383377075 0.0075840000063180923
  endloop
 endfacet
 facet normal 0.085862066342477311 -0.95723529337506696 -0.27627576564105233
  outer loop
   vertex -0.0052470001392066479 -0.027214000001549721 0.0029279999434947968
   vertex -0.010397999547421932 -0.028566999360918999 0.0060149999335408211
   vertex -0.011745000258088112 -0.027668999508023262 0.0024850000627338886
  endloop
 endfacet
 facet normal 0.10957268022671036 -0.96458575717741257 -0.23993362581850175
  outer loop
   vertex -0.010397999547421932 -0.028566999360918999 0.0060149999335408211
   vertex -0.0052470001392066479 -0.027214000001549721 0.0029279999434947968
   vertex -0.0042440001852810383 -0.027458999305963516 0.004370999988168478
  endloop
 endfacet
 facet normal 0.21756058827620581 -0.96179629375073117 0.1661784575577363
  outer loop
   vertex -0.0042440001852810383 -0.027458999305963516 0.004370999988168478
   vertex -0.0090810004621744156 -0.027998000383377075 0.0075840000063180923
   vertex -0.010397999547421932 -0.028566999360918999 0.0060149999335408211
  endloop
 endfacet
 facet normal 0.092654053584055998 -0.89152718849260837 -0.44338978171909643
  outer loop
   vertex -0.01169699989259243 -0.02626500092446804 -0.0003279999946244061
   vertex -0.0052470001392066479 -0.027214000001549721 0.0029279999434947968
   vertex -0.011745000258088112 -0.027668999508023262 0.0024850000627338886
  endloop
 endfacet
 facet normal 0.033887458893483602 -0.9394707061207479 -0.34094931070574924
  outer loop
   vertex -0.0034050000831484795 -0.024908000603318214 -0.0032430000137537718
   vertex -0.0052470001392066479 -0.027214000001549721 0.0029279999434947968
   vertex -0.01169699989259243 -0.02626500092446804 -0.0003279999946244061
  endloop
 endfacet
 facet normal -0.78290003505029959 -0.45966262340460728 -0.41925864065399293
  outer loop
   vertex -0.012616000138223171 -0.024167999625205994 -0.00091100001009181142
   vertex -0.011494000442326069 -0.024013999849557877 -0.0031749999616295099
   vertex -0.01169699989259243 -0.02626500092446804 -0.0003279999946244061
  endloop
 endfacet
 facet normal -0.033105078492273635 -0.78285130316409457 -0.62132752306034167
  outer loop
   vertex -0.011494000442326069 -0.024013999849557877 -0.0031749999616295099
   vertex -0.0035570000763982534 -0.022498000413179398 -0.0055080000311136246
   vertex -0.01169699989259243 -0.02626500092446804 -0.0003279999946244061
  endloop
 endfacet
 facet normal -0.14033851026519251 -0.68275374243636855 -0.71704423135932094
  outer loop
   vertex -0.01169699989259243 -0.02626500092446804 -0.0003279999946244061
   vertex -0.0035570000763982534 -0.022498000413179398 -0.0055080000311136246
   vertex -0.0034050000831484795 -0.024908000603318214 -0.0032430000137537718
  endloop
 endfacet
 facet normal -0.62718858275687872 0.65410576014530464 0.42282400145231952
  outer loop
   vertex -0.013423999771475792 -0.022140000015497208 0.0008800000068731606
   vertex -0.012024000287055969 -0.022476999089121819 0.0034779999405145645
   vertex -0.011637000367045403 -0.019666999578475952 -0.000295000005280599
  endloop
 endfacet
 facet normal -0.85176749989273248 0.52332498719349674 0.024961648691750774
  outer loop
   vertex -0.0073230001144111156 -0.014969999901950359 0.0065049999393522739
   vertex -0.012024000287055969 -0.022476999089121819 0.0034779999405145645
   vertex -0.010435000061988831 -0.020082000643014908 0.0074880002066493034
  endloop
 endfacet
 facet normal -0.84145737481576377 0.53943351175863696 -0.030999560640559413
  outer loop
   vertex -0.0068780002184212208 -0.014403999783098698 0.0042750001884996891
   vertex -0.012024000287055969 -0.022476999089121819 0.0034779999405145645
   vertex -0.0073230001144111156 -0.014969999901950359 0.0065049999393522739
  endloop
 endfacet
 facet normal -0.82291668509744775 0.54152726985920263 -0.17191958988744233
  outer loop
   vertex -0.012024000287055969 -0.022476999089121819 0.0034779999405145645
   vertex -0.0068780002184212208 -0.014403999783098698 0.0042750001884996891
   vertex -0.0086399996653199196 -0.017906999215483665 0.0016749999485909939
  endloop
 endfacet
 facet normal -0.64728412625391918 0.64164349905122964 0.41148132402940851
  outer loop
   vertex -0.011637000367045403 -0.019666999578475952 -0.000295000005280599
   vertex -0.012024000287055969 -0.022476999089121819 0.0034779999405145645
   vertex -0.0086399996653199196 -0.017906999215483665 0.0016749999485909939
  endloop
 endfacet
 facet normal 0.42060328686902387 -0.11079728690678579 0.90045368358903877
  outer loop
   vertex -0.0092679997906088829 -0.022701999172568321 0.0083229998126626015
   vertex -0.011909999884665012 -0.027009999379515648 0.0090269995853304863
   vertex -0.0090810004621744156 -0.027998000383377075 0.0075840000063180923
  endloop
 endfacet
 facet normal -0.11513236060905847 0.25471582911708507 0.96013769113486103
  outer loop
   vertex -0.0073230001144111156 -0.014969999901950359 0.0065049999393522739
   vertex -0.010435000061988831 -0.020082000643014908 0.0074880002066493034
   vertex -0.0092679997906088829 -0.022701999172568321 0.0083229998126626015
  endloop
 endfacet
 facet normal -0.13295053115291752 0.25842254625558286 0.95683956014210569
  outer loop
   vertex -0.0046879998408257961 -0.014503000304102898 0.0067449999041855335
   vertex -0.0073230001144111156 -0.014969999901950359 0.0065049999393522739
   vertex -0.0092679997906088829 -0.022701999172568321 0.0083229998126626015
  endloop
 endfacet
 facet normal 0.48211558554016715 -0.1043577105672048 0.86987012273352238
  outer loop
   vertex -0.0092679997906088829 -0.022701999172568321 0.0083229998126626015
   vertex -0.0090810004621744156 -0.027998000383377075 0.0075840000063180923
   vertex -0.0016199999954551458 -0.024553999304771423 0.0038620000705122948
  endloop
 endfacet
 facet normal 0.066471612048493556 0.15264497470253258 0.98604312100928815
  outer loop
   vertex -0.0029480000957846642 -0.016417000442743301 0.0069240001030266285
   vertex -0.0046879998408257961 -0.014503000304102898 0.0067449999041855335
   vertex -0.0092679997906088829 -0.022701999172568321 0.0083229998126626015
  endloop
 endfacet
 facet normal 0.44130733114546206 -0.25206131987053304 0.86122757184288656
  outer loop
   vertex -0.0016199999954551458 -0.024553999304771423 0.0038620000705122948
   vertex -0.0029480000957846642 -0.016417000442743301 0.0069240001030266285
   vertex -0.0092679997906088829 -0.022701999172568321 0.0083229998126626015
  endloop
 endfacet
 facet normal -0.79455845613269183 0.33287417651973233 -0.50781063635408763
  outer loop
   vertex -0.013423999771475792 -0.022140000015497208 0.0008800000068731606
   vertex -0.011637000367045403 -0.019666999578475952 -0.000295000005280599
   vertex -0.011125000193715096 -0.021379999816417694 -0.0022189998999238014
  endloop
 endfacet
 facet normal -0.81090167106198152 0.17112422773107686 -0.55960251835774344
  outer loop
   vertex -0.012616000138223171 -0.024167999625205994 -0.00091100001009181142
   vertex -0.013423999771475792 -0.022140000015497208 0.0008800000068731606
   vertex -0.011125000193715096 -0.021379999816417694 -0.0022189998999238014
  endloop
 endfacet
 facet normal -0.86956426563094069 0.2715233707234409 -0.41247187430018045
  outer loop
   vertex -0.011494000442326069 -0.024013999849557877 -0.0031749999616295099
   vertex -0.012616000138223171 -0.024167999625205994 -0.00091100001009181142
   vertex -0.011125000193715096 -0.021379999816417694 -0.0022189998999238014
  endloop
 endfacet
 facet normal 0.5439367925337707 -0.35837787701148016 0.75874769389884678
  outer loop
   vertex -0.0042440001852810383 -0.027458999305963516 0.004370999988168478
   vertex -0.0016199999954551458 -0.024553999304771423 0.0038620000705122948
   vertex -0.0090810004621744156 -0.027998000383377075 0.0075840000063180923
  endloop
 endfacet
 facet normal -0.19483178782110799 -0.98034589772938252 -0.031024107716451844
  outer loop
   vertex -0.0022140000946819782 -0.027799999341368675 0.0023980000987648964
   vertex -0.0042440001852810383 -0.027458999305963516 0.004370999988168478
   vertex -0.0052470001392066479 -0.027214000001549721 0.0029279999434947968
  endloop
 endfacet
 facet normal -0.2409234982644079 -0.8833688441977211 -0.40201412050427071
  outer loop
   vertex -0.0052470001392066479 -0.027214000001549721 0.0029279999434947968
   vertex -0.0034050000831484795 -0.024908000603318214 -0.0032430000137537718
   vertex -0.0022140000946819782 -0.027799999341368675 0.0023980000987648964
  endloop
 endfacet
 facet normal 0.59598356578485367 -0.41822689045454708 0.68548512559725983
  outer loop
   vertex -0.0042440001852810383 -0.027458999305963516 0.004370999988168478
   vertex -0.0022140000946819782 -0.027799999341368675 0.0023980000987648964
   vertex -0.0016199999954551458 -0.024553999304771423 0.0038620000705122948
  endloop
 endfacet
 facet normal -0.7811970231570281 -0.45299299039622626 -0.42956787782896672
  outer loop
   vertex -0.0034050000831484795 -0.024908000603318214 -0.0032430000137537718
   vertex -0.0035570000763982534 -0.022498000413179398 -0.0055080000311136246
   vertex 0.00071599998045712709 -0.029113000258803368 -0.0063029997982084751
  endloop
 endfacet
 facet normal -0.77924202331098658 -0.56236217221769191 -0.27664174732819852
  outer loop
   vertex -0.0034050000831484795 -0.024908000603318214 -0.0032430000137537718
   vertex 0.00071599998045712709 -0.029113000258803368 -0.0063029997982084751
   vertex 0.00070199999026954174 -0.029952999204397202 -0.0045560002326965332
  endloop
 endfacet
 facet normal -0.78544029776339663 -0.60221341251995164 -0.14290746807085145
  outer loop
   vertex -0.0034050000831484795 -0.024908000603318214 -0.0032430000137537718
   vertex 0.00070199999026954174 -0.029952999204397202 -0.0045560002326965332
   vertex -0.0022140000946819782 -0.027799999341368675 0.0023980000987648964
  endloop
 endfacet
 facet normal -0.87127821301049679 0.27065401553396612 -0.40941504541061385
  outer loop
   vertex -0.011494000442326069 -0.024013999849557877 -0.0031749999616295099
   vertex -0.011125000193715096 -0.021379999816417694 -0.0022189998999238014
   vertex -0.010002999566495419 -0.021570999175310135 -0.0047329999506473541
  endloop
 endfacet
 facet normal -0.17042021725543011 -0.45379480122282623 -0.87465834926201191
  outer loop
   vertex -0.011494000442326069 -0.024013999849557877 -0.0031749999616295099
   vertex -0.010002999566495419 -0.021570999175310135 -0.0047329999506473541
   vertex -0.0035570000763982534 -0.022498000413179398 -0.0055080000311136246
  endloop
 endfacet
 facet normal -0.10054771098675445 -0.42254032807845954 -0.90074959281848788
  outer loop
   vertex -0.0027540000155568123 -0.020648999139666557 -0.0064650001004338264
   vertex -0.0035570000763982534 -0.022498000413179398 -0.0055080000311136246
   vertex -0.0056150001473724842 -0.019155999645590782 -0.0068459999747574329
  endloop
 endfacet
 facet normal -0.17051071752638999 -0.45493360848350806 -0.87404891572543586
  outer loop
   vertex -0.010002999566495419 -0.021570999175310135 -0.0047329999506473541
   vertex -0.0056150001473724842 -0.019155999645590782 -0.0068459999747574329
   vertex -0.0035570000763982534 -0.022498000413179398 -0.0055080000311136246
  endloop
 endfacet
 facet normal -0.56765791627619211 -0.17035313068418911 -0.80544664687058398
  outer loop
   vertex 0.00013800000306218863 -0.027014000341296196 -0.0071569997817277908
   vertex -0.0035570000763982534 -0.022498000413179398 -0.0055080000311136246
   vertex -0.0027540000155568123 -0.020648999139666557 -0.0064650001004338264
  endloop
 endfacet
 facet normal -0.74336791469484553 -0.41736481930898989 -0.52269565810843588
  outer loop
   vertex -0.0035570000763982534 -0.022498000413179398 -0.0055080000311136246
   vertex 0.00013800000306218863 -0.027014000341296196 -0.0071569997817277908
   vertex 0.00071599998045712709 -0.029113000258803368 -0.0063029997982084751
  endloop
 endfacet
 facet normal -0.6079012957533072 0.75290713107028129 0.25216436426459715
  outer loop
   vertex -0.011637000367045403 -0.019666999578475952 -0.000295000005280599
   vertex -0.0086399996653199196 -0.017906999215483665 0.0016749999485909939
   vertex -0.0063930000178515911 -0.015370000153779984 -0.00048300001071766019
  endloop
 endfacet
 facet normal -0.59181082105052829 0.7051512682943355 -0.3905401911588483
  outer loop
   vertex -0.011637000367045403 -0.019666999578475952 -0.000295000005280599
   vertex -0.0063930000178515911 -0.015370000153779984 -0.00048300001071766019
   vertex -0.0063900002278387547 -0.015809999778866768 -0.0012819999828934669
  endloop
 endfacet
 facet normal -0.55123895450845017 0.54490252159991259 -0.63183609978101718
  outer loop
   vertex -0.0038379998877644539 -0.01638299971818924 -0.0042670001275837421
   vertex -0.011125000193715096 -0.021379999816417694 -0.0022189998999238014
   vertex -0.011637000367045403 -0.019666999578475952 -0.000295000005280599
  endloop
 endfacet
 facet normal -0.5491690235530623 0.59758004462966308 -0.58421868664925991
  outer loop
   vertex -0.0038379998877644539 -0.01638299971818924 -0.0042670001275837421
   vertex -0.011637000367045403 -0.019666999578475952 -0.000295000005280599
   vertex -0.0063900002278387547 -0.015809999778866768 -0.0012819999828934669
  endloop
 endfacet
 facet normal -0.96939007620917084 -0.10751760570277712 -0.220732518245772
  outer loop
   vertex -0.0073230001144111156 -0.014969999901950359 0.0065049999393522739
   vertex -0.0071029998362064362 -0.013523000292479992 0.0048340000212192535
   vertex -0.0068780002184212208 -0.014403999783098698 0.0042750001884996891
  endloop
 endfacet
 facet normal -0.47801036275337017 0.69416773154069444 0.53817957373727754
  outer loop
   vertex -0.00483699981123209 -0.012741000391542912 0.0058380002155900002
   vertex -0.0071029998362064362 -0.013523000292479992 0.0048340000212192535
   vertex -0.0073230001144111156 -0.014969999901950359 0.0065049999393522739
  endloop
 endfacet
 facet normal -0.15864932504294502 0.44124339934908091 0.88325231626884826
  outer loop
   vertex -0.0046879998408257961 -0.014503000304102898 0.0067449999041855335
   vertex -0.00483699981123209 -0.012741000391542912 0.0058380002155900002
   vertex -0.0073230001144111156 -0.014969999901950359 0.0065049999393522739
  endloop
 endfacet
 facet normal -0.81059342367231269 0.55227653069175553 -0.19475352409206054
  outer loop
   vertex -0.0068780002184212208 -0.014403999783098698 0.0042750001884996891
   vertex -0.0063930000178515911 -0.015370000153779984 -0.00048300001071766019
   vertex -0.0086399996653199196 -0.017906999215483665 0.0016749999485909939
  endloop
 endfacet
 facet normal -0.98811972875497045 0.095801312668672034 -0.12017283443508746
  outer loop
   vertex -0.0063930000178515911 -0.015370000153779984 -0.00048300001071766019
   vertex -0.0068780002184212208 -0.014403999783098698 0.0042750001884996891
   vertex -0.0061470000073313713 -0.012992000207304955 -0.00060999998822808266
  endloop
 endfacet
 facet normal -0.97402892744386982 -0.13205627282494845 -0.18392604304482676
  outer loop
   vertex -0.0061470000073313713 -0.012992000207304955 -0.00060999998822808266
   vertex -0.0068780002184212208 -0.014403999783098698 0.0042750001884996891
   vertex -0.0071029998362064362 -0.013523000292479992 0.0048340000212192535
  endloop
 endfacet
 facet normal -0.41911909538450526 0.38727233669211331 0.82119383894248998
  outer loop
   vertex -0.00483699981123209 -0.012741000391542912 0.0058380002155900002
   vertex -0.0046879998408257961 -0.014503000304102898 0.0067449999041855335
   vertex -0.0028949999250471592 -0.0097890002653002739 0.0054370001889765263
  endloop
 endfacet
 facet normal -0.08796325490453899 0.29725939208685637 0.95073619874429505
  outer loop
   vertex 0.00047699999413453043 -0.013368000276386738 0.0068680001422762871
   vertex -0.0028949999250471592 -0.0097890002653002739 0.0054370001889765263
   vertex -0.0046879998408257961 -0.014503000304102898 0.0067449999041855335
  endloop
 endfacet
 facet normal -0.036886906570167667 0.059757085954012544 0.9975311758546539
  outer loop
   vertex -0.0046879998408257961 -0.014503000304102898 0.0067449999041855335
   vertex -0.0029480000957846642 -0.016417000442743301 0.0069240001030266285
   vertex 0.00047699999413453043 -0.013368000276386738 0.0068680001422762871
  endloop
 endfacet
 facet normal 0.46090106543246262 -0.24567978055231945 0.8527670568865714
  outer loop
   vertex -0.0016199999954551458 -0.024553999304771423 0.0038620000705122948
   vertex 0.0014779999619349837 -0.025645999237895012 0.0018729999428614974
   vertex -0.0029480000957846642 -0.016417000442743301 0.0069240001030266285
  endloop
 endfacet
 facet normal 0.37161008616875463 -0.43734950904774533 0.81892084525511188
  outer loop
   vertex -0.0016199999954551458 -0.024553999304771423 0.0038620000705122948
   vertex -0.0022140000946819782 -0.027799999341368675 0.0023980000987648964
   vertex 0.0014779999619349837 -0.025645999237895012 0.0018729999428614974
  endloop
 endfacet
 facet normal 0.20949694941402977 -0.21782411098022503 0.95323852464212233
  outer loop
   vertex 0.00047699999413453043 -0.013368000276386738 0.0068680001422762871
   vertex -0.0029480000957846642 -0.016417000442743301 0.0069240001030266285
   vertex 0.003186000045388937 -0.014688000082969666 0.0059710000641644001
  endloop
 endfacet
 facet normal 0.25791643938388642 -0.44126117649040569 0.85951595937355407
  outer loop
   vertex -0.0029480000957846642 -0.016417000442743301 0.0069240001030266285
   vertex 0.0030670000705868006 -0.016721000894904137 0.00496299983933568
   vertex 0.003186000045388937 -0.014688000082969666 0.0059710000641644001
  endloop
 endfacet
 facet normal 0.27304923366671047 -0.35778388835349462 0.8929920521643383
  outer loop
   vertex 0.0014779999619349837 -0.025645999237895012 0.0018729999428614974
   vertex 0.0030670000705868006 -0.016721000894904137 0.00496299983933568
   vertex -0.0029480000957846642 -0.016417000442743301 0.0069240001030266285
  endloop
 endfacet
 facet normal -0.59531366860867563 0.7363123429596109 -0.32162986424305817
  outer loop
   vertex -0.010002999566495419 -0.021570999175310135 -0.0047329999506473541
   vertex -0.011125000193715096 -0.021379999816417694 -0.0022189998999238014
   vertex -0.0038379998877644539 -0.01638299971818924 -0.0042670001275837421
  endloop
 endfacet
 facet normal 0.41326137378254435 -0.52740802946655463 0.7423313326228187
  outer loop
   vertex 0.0013770000077784061 -0.028922999277710915 -0.00039900001138448715
   vertex 0.0014779999619349837 -0.025645999237895012 0.0018729999428614974
   vertex -0.0022140000946819782 -0.027799999341368675 0.0023980000987648964
  endloop
 endfacet
 facet normal 0.23128213918905657 -0.76319345355925161 0.60336085764361314
  outer loop
   vertex 0.00048600000445730984 -0.029865000396966934 -0.0012489999644458294
   vertex 0.0013770000077784061 -0.028922999277710915 -0.00039900001138448715
   vertex -0.0022140000946819782 -0.027799999341368675 0.0023980000987648964
  endloop
 endfacet
 facet normal -0.62428398569737142 -0.78094155091417528 -0.019994980809367197
  outer loop
   vertex -0.0022140000946819782 -0.027799999341368675 0.0023980000987648964
   vertex 0.00070199999026954174 -0.029952999204397202 -0.0045560002326965332
   vertex 0.00048600000445730984 -0.029865000396966934 -0.0012489999644458294
  endloop
 endfacet
 facet normal 0.49974001460395873 -0.78218332940949731 -0.37208756630329543
  outer loop
   vertex 0.00071599998045712709 -0.029113000258803368 -0.0063029997982084751
   vertex 0.0026549999602138996 -0.02919900044798851 -0.0035180000122636557
   vertex 0.00070199999026954174 -0.029952999204397202 -0.0045560002326965332
  endloop
 endfacet
 facet normal 0.48797384105135583 -0.79322956899977115 -0.36423671055238693
  outer loop
   vertex 0.00071599998045712709 -0.029113000258803368 -0.0063029997982084751
   vertex 0.0026390000712126493 -0.028099000453948975 -0.0059349997900426388
   vertex 0.0026549999602138996 -0.02919900044798851 -0.0035180000122636557
  endloop
 endfacet
 facet normal 0.32072818087151234 -0.27984408643557745 -0.90488713179152214
  outer loop
   vertex 0.0026390000712126493 -0.028099000453948975 -0.0059349997900426388
   vertex 0.00071599998045712709 -0.029113000258803368 -0.0063029997982084751
   vertex 0.00013800000306218863 -0.027014000341296196 -0.0071569997817277908
  endloop
 endfacet
 facet normal 0.33788687124555122 -0.94000833109249027 0.047082902593230044
  outer loop
   vertex 0.00070199999026954174 -0.029952999204397202 -0.0045560002326965332
   vertex 0.0026549999602138996 -0.02919900044798851 -0.0035180000122636557
   vertex 0.00048600000445730984 -0.029865000396966934 -0.0012489999644458294
  endloop
 endfacet
 facet normal -0.57935903745477457 0.72237319516527998 -0.37751830767021272
  outer loop
   vertex -0.0038379998877644539 -0.01638299971818924 -0.0042670001275837421
   vertex -0.0056150001473724842 -0.019155999645590782 -0.0068459999747574329
   vertex -0.010002999566495419 -0.021570999175310135 -0.0047329999506473541
  endloop
 endfacet
 facet normal -0.076912106630527513 -0.38236579947161081 -0.92080449784310359
  outer loop
   vertex -0.0056150001473724842 -0.019155999645590782 -0.0068459999747574329
   vertex -0.0017010000301524997 -0.018797000870108604 -0.0073219998739659786
   vertex -0.0027540000155568123 -0.020648999139666557 -0.0064650001004338264
  endloop
 endfacet
 facet normal -0.39459948677249579 -0.19149725590849914 -0.89867683068965221
  outer loop
   vertex -0.00022499999613501132 -0.021340999752283096 -0.0074280002154409885
   vertex -0.0027540000155568123 -0.020648999139666557 -0.0064650001004338264
   vertex -0.0017010000301524997 -0.018797000870108604 -0.0073219998739659786
  endloop
 endfacet
 facet normal -0.37122796125955898 -0.067991436924532467 -0.92604911602139584
  outer loop
   vertex -0.0027540000155568123 -0.020648999139666557 -0.0064650001004338264
   vertex -0.00022499999613501132 -0.021340999752283096 -0.0074280002154409885
   vertex 0.00013800000306218863 -0.027014000341296196 -0.0071569997817277908
  endloop
 endfacet
 facet normal -0.84727788732016918 0.53099416087710849 0.012860123354239784
  outer loop
   vertex -0.0056150001473724842 -0.019155999645590782 -0.0068459999747574329
   vertex -0.0038379998877644539 -0.01638299971818924 -0.0042670001275837421
   vertex -0.0043730000033974648 -0.017152000218629837 -0.0077630002051591873
  endloop
 endfacet
 facet normal -0.078023687634768676 -0.3744362082111013 -0.92396419310943256
  outer loop
   vertex -0.0043730000033974648 -0.017152000218629837 -0.0077630002051591873
   vertex -0.0017010000301524997 -0.018797000870108604 -0.0073219998739659786
   vertex -0.0056150001473724842 -0.019155999645590782 -0.0068459999747574329
  endloop
 endfacet
 facet normal 0.42112390181039489 -0.049298166409025769 -0.90566238196841153
  outer loop
   vertex 0.0026390000712126493 -0.028099000453948975 -0.0059349997900426388
   vertex 0.00013800000306218863 -0.027014000341296196 -0.0071569997817277908
   vertex 0.002701000077649951 -0.020423000678420067 -0.0063240001909434795
  endloop
 endfacet
 facet normal 0.56673495503816418 -0.11731548431627134 -0.81550509984765174
  outer loop
   vertex 0.00013800000306218863 -0.027014000341296196 -0.0071569997817277908
   vertex 0.0016809999942779541 -0.021415999159216881 -0.0068899998441338539
   vertex 0.002701000077649951 -0.020423000678420067 -0.0063240001909434795
  endloop
 endfacet
 facet normal 0.27049591533634104 -0.028660702884760376 -0.96229440604032745
  outer loop
   vertex 0.00013800000306218863 -0.027014000341296196 -0.0071569997817277908
   vertex -0.00022499999613501132 -0.021340999752283096 -0.0074280002154409885
   vertex 0.0016809999942779541 -0.021415999159216881 -0.0068899998441338539
  endloop
 endfacet
 facet normal -0.82144556841325156 0.054660488908250114 -0.56766135070703994
  outer loop
   vertex -0.0049510002136230469 -0.014096000231802464 -0.0024470000062137842
   vertex -0.0063930000178515911 -0.015370000153779984 -0.00048300001071766019
   vertex -0.0061470000073313713 -0.012992000207304955 -0.00060999998822808266
  endloop
 endfacet
 facet normal -0.82034751928033933 0.49962491850620294 -0.27821734025445538
  outer loop
   vertex -0.0063900002278387547 -0.015809999778866768 -0.0012819999828934669
   vertex -0.0063930000178515911 -0.015370000153779984 -0.00048300001071766019
   vertex -0.0049510002136230469 -0.014096000231802464 -0.0024470000062137842
  endloop
 endfacet
 facet normal -0.75769714731951088 0.022996237524379421 -0.65220104722669514
  outer loop
   vertex -0.0038379998877644539 -0.01638299971818924 -0.0042670001275837421
   vertex -0.0063900002278387547 -0.015809999778866768 -0.0012819999828934669
   vertex -0.0038000000640749931 -0.015527999959886074 -0.004280999768525362
  endloop
 endfacet
 facet normal -0.75048983886055864 0.2024820219985439 -0.62909938208079164
  outer loop
   vertex -0.0038000000640749931 -0.015527999959886074 -0.004280999768525362
   vertex -0.0063900002278387547 -0.015809999778866768 -0.0012819999828934669
   vertex -0.0049510002136230469 -0.014096000231802464 -0.0024470000062137842
  endloop
 endfacet
 facet normal -0.93809383824656245 0.33946182895941696 0.068888441144794699
  outer loop
   vertex -0.0043730000033974648 -0.017152000218629837 -0.0077630002051591873
   vertex -0.0038379998877644539 -0.01638299971818924 -0.0042670001275837421
   vertex -0.003355999942868948 -0.014774000272154808 -0.0056320000439882278
  endloop
 endfacet
 facet normal -0.95538214079130068 0.037664336907919017 -0.29296136738880418
  outer loop
   vertex -0.0038000000640749931 -0.015527999959886074 -0.004280999768525362
   vertex -0.003355999942868948 -0.014774000272154808 -0.0056320000439882278
   vertex -0.0038379998877644539 -0.01638299971818924 -0.0042670001275837421
  endloop
 endfacet
 facet normal -0.86225314022519906 -0.46662382258816559 -0.19693077556591179
  outer loop
   vertex -0.0073750000447034836 -0.012288999743759632 0.0031010000966489315
   vertex -0.0061470000073313713 -0.012992000207304955 -0.00060999998822808266
   vertex -0.0071029998362064362 -0.013523000292479992 0.0048340000212192535
  endloop
 endfacet
 facet normal -0.48060892579689612 0.67694504824965263 0.55745893310146988
  outer loop
   vertex -0.0071029998362064362 -0.013523000292479992 0.0048340000212192535
   vertex -0.00483699981123209 -0.012741000391542912 0.0058380002155900002
   vertex -0.0073750000447034836 -0.012288999743759632 0.0031010000966489315
  endloop
 endfacet
 facet normal -0.60128929158502942 0.48211962122731927 0.63719059837131908
  outer loop
   vertex -0.00483699981123209 -0.012741000391542912 0.0058380002155900002
   vertex -0.0028949999250471592 -0.0097890002653002739 0.0054370001889765263
   vertex -0.0073750000447034836 -0.012288999743759632 0.0031010000966489315
  endloop
 endfacet
 facet normal -0.85888737899629186 -0.47381404890558554 -0.19445492346704821
  outer loop
   vertex -0.0073750000447034836 -0.012288999743759632 0.0031010000966489315
   vertex -0.0068939998745918274 -0.011254999786615372 -0.0015429999912157655
   vertex -0.0061470000073313713 -0.012992000207304955 -0.00060999998822808266
  endloop
 endfacet
 facet normal -0.83461858045134873 -0.49198490415789786 -0.24771491526777203
  outer loop
   vertex -0.0068939998745918274 -0.011254999786615372 -0.0015429999912157655
   vertex -0.0049510002136230469 -0.014096000231802464 -0.0024470000062137842
   vertex -0.0061470000073313713 -0.012992000207304955 -0.00060999998822808266
  endloop
 endfacet
 facet normal -0.26716848714559838 0.80303092266995513 0.53269347350251306
  outer loop
   vertex 0.0024520000442862511 -0.0086880000308156013 0.0064590000547468662
   vertex -0.00016799999866634607 -0.0070250001735985279 0.002638000063598156
   vertex -0.0028949999250471592 -0.0097890002653002739 0.0054370001889765263
  endloop
 endfacet
 facet normal -0.56374845499787629 0.7923446910090115 0.23318998717213751
  outer loop
   vertex -0.0028949999250471592 -0.0097890002653002739 0.0054370001889765263
   vertex -0.00016799999866634607 -0.0070250001735985279 0.002638000063598156
   vertex -0.0073750000447034836 -0.012288999743759632 0.0031010000966489315
  endloop
 endfacet
 facet normal -0.25020336515957364 0.39429006807184264 0.88427010482246138
  outer loop
   vertex -0.0028949999250471592 -0.0097890002653002739 0.0054370001889765263
   vertex 0.0023930000606924295 -0.010394000448286533 0.0072030001319944859
   vertex 0.0024520000442862511 -0.0086880000308156013 0.0064590000547468662
  endloop
 endfacet
 facet normal -0.3061380382631631 0.090480341378930559 0.94767758723752382
  outer loop
   vertex 0.0023930000606924295 -0.010394000448286533 0.0072030001319944859
   vertex -0.0028949999250471592 -0.0097890002653002739 0.0054370001889765263
   vertex 0.00047699999413453043 -0.013368000276386738 0.0068680001422762871
  endloop
 endfacet
 facet normal 0.14470446502721696 -0.20232819783864212 0.96856797291700392
  outer loop
   vertex 0.00047699999413453043 -0.013368000276386738 0.0068680001422762871
   vertex 0.0040489998646080494 -0.0099659999832510948 0.007044999860227108
   vertex 0.0023930000606924295 -0.010394000448286533 0.0072030001319944859
  endloop
 endfacet
 facet normal 0.10515946596596831 -0.16146742088257487 0.98125927191098761
  outer loop
   vertex 0.00047699999413453043 -0.013368000276386738 0.0068680001422762871
   vertex 0.0050269998610019684 -0.012240000069141388 0.0065660001710057259
   vertex 0.0040489998646080494 -0.0099659999832510948 0.007044999860227108
  endloop
 endfacet
 facet normal 0.14489792496851395 -0.33523593019320891 0.93092505737428333
  outer loop
   vertex 0.003186000045388937 -0.014688000082969666 0.0059710000641644001
   vertex 0.0050269998610019684 -0.012240000069141388 0.0065660001710057259
   vertex 0.00047699999413453043 -0.013368000276386738 0.0068680001422762871
  endloop
 endfacet
 facet normal 0.73875151998857636 -0.39924202163089717 0.5430027623121656
  outer loop
   vertex 0.0014779999619349837 -0.025645999237895012 0.0018729999428614974
   vertex 0.0013770000077784061 -0.028922999277710915 -0.00039900001138448715
   vertex 0.0044060000218451023 -0.019733000546693802 0.0022370000369846821
  endloop
 endfacet
 facet normal 0.6251141508031115 -0.35241679895409489 0.69644432532734013
  outer loop
   vertex 0.0014779999619349837 -0.025645999237895012 0.0018729999428614974
   vertex 0.0044060000218451023 -0.019733000546693802 0.0022370000369846821
   vertex 0.0030670000705868006 -0.016721000894904137 0.00496299983933568
  endloop
 endfacet
 facet normal 0.67763639894166228 -0.35813025375498536 0.64230182326906582
  outer loop
   vertex 0.0030670000705868006 -0.016721000894904137 0.00496299983933568
   vertex 0.0048469998873770237 -0.014446999877691269 0.0043529998511075974
   vertex 0.003186000045388937 -0.014688000082969666 0.0059710000641644001
  endloop
 endfacet
 facet normal 0.60709372692562436 -0.58679546064507782 0.5358248725972754
  outer loop
   vertex 0.0050269998610019684 -0.012240000069141388 0.0065660001710057259
   vertex 0.003186000045388937 -0.014688000082969666 0.0059710000641644001
   vertex 0.0048469998873770237 -0.014446999877691269 0.0043529998511075974
  endloop
 endfacet
 facet normal 0.87737187554011586 -0.042503894860300373 0.47792469169621699
  outer loop
   vertex 0.0030670000705868006 -0.016721000894904137 0.00496299983933568
   vertex 0.0044060000218451023 -0.019733000546693802 0.0022370000369846821
   vertex 0.0051290001720190048 -0.016008000820875168 0.0012410000199452043
  endloop
 endfacet
 facet normal 0.78366384461371019 -0.52388107744478529 0.33379573894906056
  outer loop
   vertex 0.0048469998873770237 -0.014446999877691269 0.0043529998511075974
   vertex 0.0030670000705868006 -0.016721000894904137 0.00496299983933568
   vertex 0.0051290001720190048 -0.016008000820875168 0.0012410000199452043
  endloop
 endfacet
 facet normal 0.84352922100533745 -0.38533803048257464 0.37412973094093854
  outer loop
   vertex 0.0044060000218451023 -0.019733000546693802 0.0022370000369846821
   vertex 0.0013770000077784061 -0.028922999277710915 -0.00039900001138448715
   vertex 0.0055780000984668732 -0.019517999142408371 -0.00018400000408291817
  endloop
 endfacet
 facet normal 0.78517111736537804 -0.36220104581037887 0.50231137640817136
  outer loop
   vertex 0.0055780000984668732 -0.019517999142408371 -0.00018400000408291817
   vertex 0.0013770000077784061 -0.028922999277710915 -0.00039900001138448715
   vertex 0.0044350000098347664 -0.026331000030040741 -0.0033100000582635403
  endloop
 endfacet
 facet normal 0.77916945383078107 -0.51001228390251219 0.36439323880333674
  outer loop
   vertex 0.0013770000077784061 -0.028922999277710915 -0.00039900001138448715
   vertex 0.0026549999602138996 -0.02919900044798851 -0.0035180000122636557
   vertex 0.0044350000098347664 -0.026331000030040741 -0.0033100000582635403
  endloop
 endfacet
 facet normal 0.54785146290764553 -0.78329043790496622 0.29379391497544505
  outer loop
   vertex 0.00048600000445730984 -0.029865000396966934 -0.0012489999644458294
   vertex 0.0026549999602138996 -0.02919900044798851 -0.0035180000122636557
   vertex 0.0013770000077784061 -0.028922999277710915 -0.00039900001138448715
  endloop
 endfacet
 facet normal 0.83370177890954411 -0.50050956703729343 -0.23330563033755286
  outer loop
   vertex 0.0026390000712126493 -0.028099000453948975 -0.0059349997900426388
   vertex 0.0044350000098347664 -0.026331000030040741 -0.0033100000582635403
   vertex 0.0026549999602138996 -0.02919900044798851 -0.0035180000122636557
  endloop
 endfacet
 facet normal 0.83551166733133198 -0.034539361539365272 -0.54838607409166651
  outer loop
   vertex 0.002701000077649951 -0.020423000678420067 -0.0063240001909434795
   vertex 0.0044350000098347664 -0.026331000030040741 -0.0033100000582635403
   vertex 0.0026390000712126493 -0.028099000453948975 -0.0059349997900426388
  endloop
 endfacet
 facet normal -0.016662285152832128 -0.28406725044675618 -0.95865956703988808
  outer loop
   vertex 0.0012649999698624015 -0.015035999938845634 -0.0084880003705620766
   vertex -0.0017010000301524997 -0.018797000870108604 -0.0073219998739659786
   vertex -0.0043730000033974648 -0.017152000218629837 -0.0077630002051591873
  endloop
 endfacet
 facet normal -0.017166038192301208 -0.28370086055718624 -0.95875917145646772
  outer loop
   vertex 0.0020949998870491982 -0.019074000418186188 -0.0073079997673630714
   vertex -0.0017010000301524997 -0.018797000870108604 -0.0073219998739659786
   vertex 0.0012649999698624015 -0.015035999938845634 -0.0084880003705620766
  endloop
 endfacet
 facet normal 0.007018560510399399 0.045694360734462577 -0.99893081102017811
  outer loop
   vertex -0.00022499999613501132 -0.021340999752283096 -0.0074280002154409885
   vertex -0.0017010000301524997 -0.018797000870108604 -0.0073219998739659786
   vertex 0.0020949998870491982 -0.019074000418186188 -0.0073079997673630714
  endloop
 endfacet
 facet normal 0.25757758922091606 -0.21371883216494286 -0.94232587055073158
  outer loop
   vertex -0.00022499999613501132 -0.021340999752283096 -0.0074280002154409885
   vertex 0.0020949998870491982 -0.019074000418186188 -0.0073079997673630714
   vertex 0.0016809999942779541 -0.021415999159216881 -0.0068899998441338539
  endloop
 endfacet
 facet normal -0.5412471533131652 0.43342102687945977 -0.72055376793765324
  outer loop
   vertex -0.0016629999736323953 -0.013426999561488628 -0.0075579998083412647
   vertex -0.0043730000033974648 -0.017152000218629837 -0.0077630002051591873
   vertex -0.0026829999405890703 -0.014073999598622322 -0.0071809999644756317
  endloop
 endfacet
 facet normal -0.94906374863216947 0.28446025616648929 0.13550041953421882
  outer loop
   vertex -0.0032500000670552254 -0.0139340003952384 -0.0066530001349747181
   vertex -0.0043730000033974648 -0.017152000218629837 -0.0077630002051591873
   vertex -0.003355999942868948 -0.014774000272154808 -0.0056320000439882278
  endloop
 endfacet
 facet normal -0.55256811152122576 0.43752663212904735 -0.70939335231427103
  outer loop
   vertex -0.0032500000670552254 -0.0139340003952384 -0.0066530001349747181
   vertex -0.0026829999405890703 -0.014073999598622322 -0.0071809999644756317
   vertex -0.0043730000033974648 -0.017152000218629837 -0.0077630002051591873
  endloop
 endfacet
 facet normal -0.19719513298720548 0.1963228882147762 -0.96050580585916645
  outer loop
   vertex -0.0016629999736323953 -0.013426999561488628 -0.0075579998083412647
   vertex 0.0012649999698624015 -0.015035999938845634 -0.0084880003705620766
   vertex -0.0043730000033974648 -0.017152000218629837 -0.0077630002051591873
  endloop
 endfacet
 facet normal 0.85024055518057196 0.28772157527716369 -0.44080300979718845
  outer loop
   vertex 0.002701000077649951 -0.020423000678420067 -0.0063240001909434795
   vertex 0.0051290001720190048 -0.016008000820875168 0.0012410000199452043
   vertex 0.0055780000984668732 -0.019517999142408371 -0.00018400000408291817
  endloop
 endfacet
 facet normal 0.91667867108661127 0.13830880041338853 -0.37492784599585821
  outer loop
   vertex 0.0051290001720190048 -0.016008000820875168 0.0012410000199452043
   vertex 0.002701000077649951 -0.020423000678420067 -0.0063240001909434795
   vertex 0.0020949998870491982 -0.019074000418186188 -0.0073079997673630714
  endloop
 endfacet
 facet normal 0.90197323940738472 0.045684714585214163 -0.42936835263700585
  outer loop
   vertex 0.002701000077649951 -0.020423000678420067 -0.0063240001909434795
   vertex 0.0055780000984668732 -0.019517999142408371 -0.00018400000408291817
   vertex 0.0044350000098347664 -0.026331000030040741 -0.0033100000582635403
  endloop
 endfacet
 facet normal 0.64083578585162437 -0.2432374736056285 -0.72812432111960246
  outer loop
   vertex 0.0016809999942779541 -0.021415999159216881 -0.0068899998441338539
   vertex 0.0020949998870491982 -0.019074000418186188 -0.0073079997673630714
   vertex 0.002701000077649951 -0.020423000678420067 -0.0063240001909434795
  endloop
 endfacet
 facet normal -0.83106474998588853 -0.4777882135346837 -0.28469247327287706
  outer loop
   vertex -0.0049510002136230469 -0.014096000231802464 -0.0024470000062137842
   vertex -0.0068939998745918274 -0.011254999786615372 -0.0015429999912157655
   vertex -0.0054239998571574688 -0.012075000442564487 -0.0044579999521374702
  endloop
 endfacet
 facet normal -0.87837498455096941 -0.42438537675034788 -0.21989642679122745
  outer loop
   vertex -0.0049510002136230469 -0.014096000231802464 -0.0024470000062137842
   vertex -0.0054239998571574688 -0.012075000442564487 -0.0044579999521374702
   vertex -0.0038000000640749931 -0.015527999959886074 -0.004280999768525362
  endloop
 endfacet
 facet normal -0.88677914769644273 -0.21288412946970109 -0.41024759673969824
  outer loop
   vertex -0.0038000000640749931 -0.015527999959886074 -0.004280999768525362
   vertex -0.0033360000234097242 -0.013120999559760094 -0.0065330001525580883
   vertex -0.003355999942868948 -0.014774000272154808 -0.0056320000439882278
  endloop
 endfacet
 facet normal -0.74103845862780693 -0.37700375596462266 -0.55563492584888075
  outer loop
   vertex -0.0038000000640749931 -0.015527999959886074 -0.004280999768525362
   vertex -0.0054239998571574688 -0.012075000442564487 -0.0044579999521374702
   vertex -0.0033360000234097242 -0.013120999559760094 -0.0065330001525580883
  endloop
 endfacet
 facet normal -0.98272411074041577 -0.079268312447846698 -0.16724191104842623
  outer loop
   vertex -0.0033360000234097242 -0.013120999559760094 -0.0065330001525580883
   vertex -0.0032500000670552254 -0.0139340003952384 -0.0066530001349747181
   vertex -0.003355999942868948 -0.014774000272154808 -0.0056320000439882278
  endloop
 endfacet
 facet normal -0.57774010478851745 0.80357747802740342 0.14310698140227474
  outer loop
   vertex -0.0073750000447034836 -0.012288999743759632 0.0031010000966489315
   vertex -0.00016799999866634607 -0.0070250001735985279 0.002638000063598156
   vertex 0.00016199999663513154 -0.006194000132381916 -0.00069600000279024243
  endloop
 endfacet
 facet normal -0.58807356852979054 0.80026059556991469 0.11727087095576327
  outer loop
   vertex -0.0073750000447034836 -0.012288999743759632 0.0031010000966489315
   vertex 0.00016199999663513154 -0.006194000132381916 -0.00069600000279024243
   vertex -0.0068939998745918274 -0.011254999786615372 -0.0015429999912157655
  endloop
 endfacet
 facet normal -0.5204560933538831 0.78272858575124715 -0.34126443696738551
  outer loop
   vertex -0.0068939998745918274 -0.011254999786615372 -0.0015429999912157655
   vertex 0.00016199999663513154 -0.006194000132381916 -0.00069600000279024243
   vertex -0.0012509999796748161 -0.0092249996960163116 -0.0054930001497268677
  endloop
 endfacet
 facet normal -0.57335028617441075 0.6664237575544385 -0.47660132680338241
  outer loop
   vertex -0.0054239998571574688 -0.012075000442564487 -0.0044579999521374702
   vertex -0.0068939998745918274 -0.011254999786615372 -0.0015429999912157655
   vertex -0.0012509999796748161 -0.0092249996960163116 -0.0054930001497268677
  endloop
 endfacet
 facet normal -0.058544852064489256 0.90003707267429978 0.43186313585281194
  outer loop
   vertex 0.0024520000442862511 -0.0086880000308156013 0.0064590000547468662
   vertex 0.0040489998646080494 -0.0072429999709129333 0.0036639999598264694
   vertex -0.00016799999866634607 -0.0070250001735985279 0.002638000063598156
  endloop
 endfacet
 facet normal 0.36583982029554113 0.72483008038885777 0.58376586098332961
  outer loop
   vertex 0.0040489998646080494 -0.0072429999709129333 0.0036639999598264694
   vertex 0.0024520000442862511 -0.0086880000308156013 0.0064590000547468662
   vertex 0.0040489998646080494 -0.0099659999832510948 0.007044999860227108
  endloop
 endfacet
 facet normal -0.015997990815458444 0.40016109619497725 0.91630516826104536
  outer loop
   vertex 0.0040489998646080494 -0.0099659999832510948 0.007044999860227108
   vertex 0.0024520000442862511 -0.0086880000308156013 0.0064590000547468662
   vertex 0.0023930000606924295 -0.010394000448286533 0.0072030001319944859
  endloop
 endfacet
 facet normal -0.14628771966423595 0.96317603121298645 0.22559218951957963
  outer loop
   vertex 0.003329999977722764 -0.0058960001915693283 8.6000000010244548e-05
   vertex 0.00016199999663513154 -0.006194000132381916 -0.00069600000279024243
   vertex -0.00016799999866634607 -0.0070250001735985279 0.002638000063598156
  endloop
 endfacet
 facet normal -0.039120517791143908 0.93254305557141359 0.35893318959561826
  outer loop
   vertex 0.0040489998646080494 -0.0072429999709129333 0.0036639999598264694
   vertex 0.003329999977722764 -0.0058960001915693283 8.6000000010244548e-05
   vertex -0.00016799999866634607 -0.0070250001735985279 0.002638000063598156
  endloop
 endfacet
 facet normal 0.78585315638180431 0.21591275075381838 0.57949676501829994
  outer loop
   vertex 0.0066729998216032982 -0.010579000227153301 0.0037150001153349876
   vertex 0.0040489998646080494 -0.0099659999832510948 0.007044999860227108
   vertex 0.0050269998610019684 -0.012240000069141388 0.0065660001710057259
  endloop
 endfacet
 facet normal 0.69918220362063799 0.55681198834113399 0.44844693752971682
  outer loop
   vertex 0.0040489998646080494 -0.0099659999832510948 0.007044999860227108
   vertex 0.0066729998216032982 -0.010579000227153301 0.0037150001153349876
   vertex 0.0040489998646080494 -0.0072429999709129333 0.0036639999598264694
  endloop
 endfacet
 facet normal 0.83789815946519208 -0.41904406303870145 0.34975526814740099
  outer loop
   vertex 0.0066419998183846474 -0.011714999563992023 0.0033259999472647905
   vertex 0.0050269998610019684 -0.012240000069141388 0.0065660001710057259
   vertex 0.0048469998873770237 -0.014446999877691269 0.0043529998511075974
  endloop
 endfacet
 facet normal 0.89290505455296265 -0.16748023503805359 0.41793651961197315
  outer loop
   vertex 0.0066729998216032982 -0.010579000227153301 0.0037150001153349876
   vertex 0.0050269998610019684 -0.012240000069141388 0.0065660001710057259
   vertex 0.0066419998183846474 -0.011714999563992023 0.0033259999472647905
  endloop
 endfacet
 facet normal 0.90054404888559436 -0.05964066688024728 0.43065462597169418
  outer loop
   vertex 0.0055780000984668732 -0.019517999142408371 -0.00018400000408291817
   vertex 0.0051290001720190048 -0.016008000820875168 0.0012410000199452043
   vertex 0.0044060000218451023 -0.019733000546693802 0.0022370000369846821
  endloop
 endfacet
 facet normal 0.84524639037681126 -0.44302084810306153 0.29881611017650211
  outer loop
   vertex 0.0048469998873770237 -0.014446999877691269 0.0043529998511075974
   vertex 0.0051290001720190048 -0.016008000820875168 0.0012410000199452043
   vertex 0.0066419998183846474 -0.011714999563992023 0.0033259999472647905
  endloop
 endfacet
 facet normal 0.93735824222389275 -0.34673159803444437 0.033715347535130086
  outer loop
   vertex 0.0051290001720190048 -0.016008000820875168 0.0012410000199452043
   vertex 0.0068100001662969589 -0.011927000246942043 -0.0035250000655651093
   vertex 0.0066419998183846474 -0.011714999563992023 0.0033259999472647905
  endloop
 endfacet
 facet normal 0.77626665371351089 -0.62840901088050893 -0.050121825351923145
  outer loop
   vertex 0.005528000183403492 -0.014983999542891979 -0.0054179998114705086
   vertex 0.0051290001720190048 -0.016008000820875168 0.0012410000199452043
   vertex 0.0020949998870491982 -0.019074000418186188 -0.0073079997673630714
  endloop
 endfacet
 facet normal 0.92303237650686398 -0.3847030006124893 -0.0038513945316041619
  outer loop
   vertex 0.0051290001720190048 -0.016008000820875168 0.0012410000199452043
   vertex 0.005528000183403492 -0.014983999542891979 -0.0054179998114705086
   vertex 0.0068100001662969589 -0.011927000246942043 -0.0035250000655651093
  endloop
 endfacet
 facet normal -0.28228068340948725 0.040318847883266534 -0.95848422328134264
  outer loop
   vertex 0.0012649999698624015 -0.015035999938845634 -0.0084880003705620766
   vertex -0.0016629999736323953 -0.013426999561488628 -0.0075579998083412647
   vertex 0.00093199999537318945 -0.013539999723434448 -0.008326999843120575
  endloop
 endfacet
 facet normal 0.49369683215774801 0.2009513563916395 -0.84609809731600549
  outer loop
   vertex 0.00093199999537318945 -0.013539999723434448 -0.008326999843120575
   vertex 0.0046509997919201851 -0.011556999757885933 -0.0056859999895095825
   vertex 0.0012649999698624015 -0.015035999938845634 -0.0084880003705620766
  endloop
 endfacet
 facet normal 0.58155464335634721 0.085559592835881979 -0.80899552091740912
  outer loop
   vertex 0.0046509997919201851 -0.011556999757885933 -0.0056859999895095825
   vertex 0.005528000183403492 -0.014983999542891979 -0.0054179998114705086
   vertex 0.0012649999698624015 -0.015035999938845634 -0.0084880003705620766
  endloop
 endfacet
 facet normal 0.58138098562088547 -0.11583928806550181 -0.80534303802725304
  outer loop
   vertex 0.0012649999698624015 -0.015035999938845634 -0.0084880003705620766
   vertex 0.005528000183403492 -0.014983999542891979 -0.0054179998114705086
   vertex 0.0020949998870491982 -0.019074000418186188 -0.0073079997673630714
  endloop
 endfacet
 facet normal -0.46127591735828649 0.22749255939638521 -0.85759644558763959
  outer loop
   vertex -0.0024790000170469284 -0.013306000269949436 -0.0070870001800358295
   vertex -0.0016629999736323953 -0.013426999561488628 -0.0075579998083412647
   vertex -0.0026829999405890703 -0.014073999598622322 -0.0071809999644756317
  endloop
 endfacet
 facet normal -0.23618830764741383 0.44712824204073681 -0.86272325719213727
  outer loop
   vertex -0.0012509999796748161 -0.0092249996960163116 -0.0054930001497268677
   vertex 0.00093199999537318945 -0.013539999723434448 -0.008326999843120575
   vertex -0.0016629999736323953 -0.013426999561488628 -0.0075579998083412647
  endloop
 endfacet
 facet normal -0.40072283205324732 0.43543919359452637 -0.80611036499537292
  outer loop
   vertex -0.0012509999796748161 -0.0092249996960163116 -0.0054930001497268677
   vertex -0.0016629999736323953 -0.013426999561488628 -0.0075579998083412647
   vertex -0.0024790000170469284 -0.013306000269949436 -0.0070870001800358295
  endloop
 endfacet
 facet normal -0.62413085708152771 0.25613056641256809 -0.73814484092747989
  outer loop
   vertex -0.0032500000670552254 -0.0139340003952384 -0.0066530001349747181
   vertex -0.0024790000170469284 -0.013306000269949436 -0.0070870001800358295
   vertex -0.0026829999405890703 -0.014073999598622322 -0.0071809999644756317
  endloop
 endfacet
 facet normal -0.53114600354993124 0.068465610142919325 -0.84450955183508392
  outer loop
   vertex -0.0033360000234097242 -0.013120999559760094 -0.0065330001525580883
   vertex -0.0024790000170469284 -0.013306000269949436 -0.0070870001800358295
   vertex -0.0032500000670552254 -0.0139340003952384 -0.0066530001349747181
  endloop
 endfacet
 facet normal -0.49772972217038153 0.46226823516494048 -0.73387546792741754
  outer loop
   vertex -0.0054239998571574688 -0.012075000442564487 -0.0044579999521374702
   vertex -0.0012509999796748161 -0.0092249996960163116 -0.0054930001497268677
   vertex -0.0033360000234097242 -0.013120999559760094 -0.0065330001525580883
  endloop
 endfacet
 facet normal -0.41986194663317966 0.43702961925318295 -0.79543765165147595
  outer loop
   vertex -0.0033360000234097242 -0.013120999559760094 -0.0065330001525580883
   vertex -0.0012509999796748161 -0.0092249996960163116 -0.0054930001497268677
   vertex -0.0024790000170469284 -0.013306000269949436 -0.0070870001800358295
  endloop
 endfacet
 facet normal -0.047105633756099489 0.9819181591488394 -0.1833515421320224
  outer loop
   vertex 0.0040359999984502792 -0.0064380001276731491 -0.0029980000108480453
   vertex 0.00016199999663513154 -0.006194000132381916 -0.00069600000279024243
   vertex 0.003329999977722764 -0.0058960001915693283 8.6000000010244548e-05
  endloop
 endfacet
 facet normal -0.22661117216808188 0.85215115222299309 -0.4716839942309185
  outer loop
   vertex 0.0040359999984502792 -0.0064380001276731491 -0.0029980000108480453
   vertex -0.0012509999796748161 -0.0092249996960163116 -0.0054930001497268677
   vertex 0.00016199999663513154 -0.006194000132381916 -0.00069600000279024243
  endloop
 endfacet
 facet normal 0.080763263372134478 0.57539620555295679 -0.81387744895945047
  outer loop
   vertex 0.00093199999537318945 -0.013539999723434448 -0.008326999843120575
   vertex -0.0012509999796748161 -0.0092249996960163116 -0.0054930001497268677
   vertex 0.0040359999984502792 -0.0064380001276731491 -0.0029980000108480453
  endloop
 endfacet
 facet normal 0.63053956998922522 0.75963950510619793 0.15927232326996862
  outer loop
   vertex 0.0050300001166760921 -0.0067110001109540462 -0.0027570000384002924
   vertex 0.003329999977722764 -0.0058960001915693283 8.6000000010244548e-05
   vertex 0.0040489998646080494 -0.0072429999709129333 0.0036639999598264694
  endloop
 endfacet
 facet normal 0.77345846089392167 0.6109601537136492 0.16878892098061393
  outer loop
   vertex 0.0040489998646080494 -0.0072429999709129333 0.0036639999598264694
   vertex 0.0066729998216032982 -0.010579000227153301 0.0037150001153349876
   vertex 0.0050300001166760921 -0.0067110001109540462 -0.0027570000384002924
  endloop
 endfacet
 facet normal 0.28635550620851835 0.95269165658029398 -0.10187802288206528
  outer loop
   vertex 0.003329999977722764 -0.0058960001915693283 8.6000000010244548e-05
   vertex 0.0050300001166760921 -0.0067110001109540462 -0.0027570000384002924
   vertex 0.0040359999984502792 -0.0064380001276731491 -0.0029980000108480453
  endloop
 endfacet
 facet normal 0.94355720258162179 0.32836919242038382 -0.043283702770551956
  outer loop
   vertex 0.0066729998216032982 -0.010579000227153301 0.0037150001153349876
   vertex 0.0068100001662969589 -0.011927000246942043 -0.0035250000655651093
   vertex 0.0050300001166760921 -0.0067110001109540462 -0.0027570000384002924
  endloop
 endfacet
 facet normal 0.99902232816887082 -0.036032749528923373 0.025613058806688595
  outer loop
   vertex 0.0068100001662969589 -0.011927000246942043 -0.0035250000655651093
   vertex 0.0066729998216032982 -0.010579000227153301 0.0037150001153349876
   vertex 0.0066419998183846474 -0.011714999563992023 0.0033259999472647905
  endloop
 endfacet
 facet normal 0.69525884077535627 0.33118787661939419 -0.63791044410955122
  outer loop
   vertex 0.0050300001166760921 -0.0067110001109540462 -0.0027570000384002924
   vertex 0.0068100001662969589 -0.011927000246942043 -0.0035250000655651093
   vertex 0.0046509997919201851 -0.011556999757885933 -0.0056859999895095825
  endloop
 endfacet
 facet normal 0.71248417102874639 0.12838364897149585 -0.68984342042976954
  outer loop
   vertex 0.0046509997919201851 -0.011556999757885933 -0.0056859999895095825
   vertex 0.0068100001662969589 -0.011927000246942043 -0.0035250000655651093
   vertex 0.005528000183403492 -0.014983999542891979 -0.0054179998114705086
  endloop
 endfacet
 facet normal 0.33136494804070399 0.46893120893149426 -0.81871899483279886
  outer loop
   vertex 0.0050300001166760921 -0.0067110001109540462 -0.0027570000384002924
   vertex 0.0046509997919201851 -0.011556999757885933 -0.0056859999895095825
   vertex 0.00093199999537318945 -0.013539999723434448 -0.008326999843120575
  endloop
 endfacet
 facet normal 0.32792386784748961 0.47110727204227243 -0.81885522232249974
  outer loop
   vertex 0.00093199999537318945 -0.013539999723434448 -0.008326999843120575
   vertex 0.0040359999984502792 -0.0064380001276731491 -0.0029980000108480453
   vertex 0.0050300001166760921 -0.0067110001109540462 -0.0027570000384002924
  endloop
 endfacet
endsolid
