solid Visualization Toolkit generated SLA File
 facet normal -0.68381694419804362 -0.093203686071830036 -0.72367635012502196
  outer loop
   vertex 0.019024999812245369 -0.13516800105571747 -0.024390999227762222
   vertex 0.018743999302387238 -0.13855700194835663 -0.023688999935984612
   vertex 0.017906000837683678 -0.13629099726676941 -0.0231890007853508
  endloop
 endfacet
 facet normal -0.76357321979834636 0.074298329632350307 -0.64143253442636416
  outer loop
   vertex 0.017906000837683678 -0.13629099726676941 -0.0231890007853508
   vertex 0.018913999199867249 -0.13444399833679199 -0.024174999445676804
   vertex 0.019024999812245369 -0.13516800105571747 -0.024390999227762222
  endloop
 endfacet
 facet normal -0.22849869330985167 -0.17926605650065447 -0.95689708335974899
  outer loop
   vertex 0.024450000375509262 -0.13671299815177917 -0.025397000834345818
   vertex 0.018743999302387238 -0.13855700194835663 -0.023688999935984612
   vertex 0.019024999812245369 -0.13516800105571747 -0.024390999227762222
  endloop
 endfacet
 facet normal -0.20971799712443823 -0.10329787437502334 -0.9722900343167753
  outer loop
   vertex 0.024450000375509262 -0.13671299815177917 -0.025397000834345818
   vertex 0.019024999812245369 -0.13516800105571747 -0.024390999227762222
   vertex 0.021550999954342842 -0.13431000709533691 -0.025026999413967133
  endloop
 endfacet
 facet normal -0.3098214108728552 0.22789225260576684 -0.9230795277585907
  outer loop
   vertex 0.018913999199867249 -0.13444399833679199 -0.024174999445676804
   vertex 0.021550999954342842 -0.13431000709533691 -0.025026999413967133
   vertex 0.019024999812245369 -0.13516800105571747 -0.024390999227762222
  endloop
 endfacet
 facet normal -0.92466271740979489 -0.28664156438434535 -0.25067004727256281
  outer loop
   vertex 0.017361000180244446 -0.13615599274635315 -0.021332999691367149
   vertex 0.017906000837683678 -0.13629099726676941 -0.0231890007853508
   vertex 0.018743999302387238 -0.13855700194835663 -0.023688999935984612
  endloop
 endfacet
 facet normal -0.23613612347029664 -0.1574665131671851 -0.95887644064466904
  outer loop
   vertex 0.02080100029706955 -0.14105099439620972 -0.023786000907421112
   vertex 0.018743999302387238 -0.13855700194835663 -0.023688999935984612
   vertex 0.024450000375509262 -0.13671299815177917 -0.025397000834345818
  endloop
 endfacet
 facet normal -0.71981380655901273 -0.57878382908001746 -0.38324582591660056
  outer loop
   vertex 0.018743999302387238 -0.13855700194835663 -0.023688999935984612
   vertex 0.02080100029706955 -0.14105099439620972 -0.023786000907421112
   vertex 0.019680000841617584 -0.14080899953842163 -0.022045999765396118
  endloop
 endfacet
 facet normal -0.89691838926023293 -0.434129248942553 -0.084078524127175217
  outer loop
   vertex 0.019680000841617584 -0.14080899953842163 -0.022045999765396118
   vertex 0.017361000180244446 -0.13615599274635315 -0.021332999691367149
   vertex 0.018743999302387238 -0.13855700194835663 -0.023688999935984612
  endloop
 endfacet
 facet normal -0.83743586814122806 -0.50492109195833523 -0.20917900861738067
  outer loop
   vertex 0.017906000837683678 -0.13629099726676941 -0.0231890007853508
   vertex 0.017361000180244446 -0.13615599274635315 -0.021332999691367149
   vertex 0.012101000174880028 -0.12817400693893433 -0.019541999325156212
  endloop
 endfacet
 facet normal -0.55550193006295889 -0.13485336986041091 -0.82050726647216154
  outer loop
   vertex 0.018913999199867249 -0.13444399833679199 -0.024174999445676804
   vertex 0.017906000837683678 -0.13629099726676941 -0.0231890007853508
   vertex 0.015406999737024307 -0.13227599859237671 -0.022157000377774239
  endloop
 endfacet
 facet normal -0.82168013961548259 -0.40954358456223461 -0.39637835524331655
  outer loop
   vertex 0.012101000174880028 -0.12817400693893433 -0.019541999325156212
   vertex 0.015406999737024307 -0.13227599859237671 -0.022157000377774239
   vertex 0.017906000837683678 -0.13629099726676941 -0.0231890007853508
  endloop
 endfacet
 facet normal -0.61574474712540994 -0.33005871787589897 -0.71548560372769388
  outer loop
   vertex 0.015406999737024307 -0.13227599859237671 -0.022157000377774239
   vertex 0.014782000333070755 -0.12672899663448334 -0.024178000167012215
   vertex 0.018913999199867249 -0.13444399833679199 -0.024174999445676804
  endloop
 endfacet
 facet normal 0.065589796573738937 0.034740694938301515 -0.99724172731621064
  outer loop
   vertex 0.016705000773072243 -0.12622599303722382 -0.024033999070525169
   vertex 0.018913999199867249 -0.13444399833679199 -0.024174999445676804
   vertex 0.014782000333070755 -0.12672899663448334 -0.024178000167012215
  endloop
 endfacet
 facet normal 0.30749530637276395 0.098892483395190536 -0.94639680540809723
  outer loop
   vertex 0.018913999199867249 -0.13444399833679199 -0.024174999445676804
   vertex 0.016705000773072243 -0.12622599303722382 -0.024033999070525169
   vertex 0.020694000646471977 -0.13351899385452271 -0.023499999195337296
  endloop
 endfacet
 facet normal -0.36676540389762707 0.89388493411352776 -0.25778452837333898
  outer loop
   vertex 0.018913999199867249 -0.13444399833679199 -0.024174999445676804
   vertex 0.020694000646471977 -0.13351899385452271 -0.023499999195337296
   vertex 0.020570000633597374 -0.1338919997215271 -0.024616999551653862
  endloop
 endfacet
 facet normal -0.31063277744788748 0.18540590209405092 -0.93227245429847505
  outer loop
   vertex 0.018913999199867249 -0.13444399833679199 -0.024174999445676804
   vertex 0.020570000633597374 -0.1338919997215271 -0.024616999551653862
   vertex 0.021550999954342842 -0.13431000709533691 -0.025026999413967133
  endloop
 endfacet
 facet normal -0.20028336663203625 -0.18856939155514996 -0.96141986541732005
  outer loop
   vertex 0.024450000375509262 -0.13671299815177917 -0.025397000834345818
   vertex 0.021621000021696091 -0.14135600626468658 -0.023896999657154083
   vertex 0.02080100029706955 -0.14105099439620972 -0.023786000907421112
  endloop
 endfacet
 facet normal -0.12198162442989671 -0.23705069768979259 -0.96380882441811355
  outer loop
   vertex 0.024450000375509262 -0.13671299815177917 -0.025397000834345818
   vertex 0.024091999977827072 -0.14031000435352325 -0.024467000737786293
   vertex 0.021621000021696091 -0.14135600626468658 -0.023896999657154083
  endloop
 endfacet
 facet normal -0.20053049866219336 -0.22647720782242339 -0.95315035196093334
  outer loop
   vertex 0.024450000375509262 -0.13671299815177917 -0.025397000834345818
   vertex 0.024654999375343323 -0.13859899342060089 -0.024992000311613083
   vertex 0.024091999977827072 -0.14031000435352325 -0.024467000737786293
  endloop
 endfacet
 facet normal 0.21969992531234128 0.40192174327772384 -0.88892679962882604
  outer loop
   vertex 0.024896999821066856 -0.13511499762535095 -0.024563999846577644
   vertex 0.024450000375509262 -0.13671299815177917 -0.025397000834345818
   vertex 0.021550999954342842 -0.13431000709533691 -0.025026999413967133
  endloop
 endfacet
 facet normal 0.66225763601815835 0.19225476120842988 -0.72419122497330102
  outer loop
   vertex 0.024896999821066856 -0.13511499762535095 -0.024563999846577644
   vertex 0.025831000879406929 -0.13730399310588837 -0.02429099939763546
   vertex 0.024450000375509262 -0.13671299815177917 -0.025397000834345818
  endloop
 endfacet
 facet normal 0.59327094286235382 -0.106851709177787 -0.79787987855378284
  outer loop
   vertex 0.024654999375343323 -0.13859899342060089 -0.024992000311613083
   vertex 0.024450000375509262 -0.13671299815177917 -0.025397000834345818
   vertex 0.025831000879406929 -0.13730399310588837 -0.02429099939763546
  endloop
 endfacet
 facet normal 0.076291181278867318 0.78368733094950538 -0.61645261210275959
  outer loop
   vertex 0.021550999954342842 -0.13431000709533691 -0.025026999413967133
   vertex 0.020570000633597374 -0.1338919997215271 -0.024616999551653862
   vertex 0.022622000426054001 -0.13360799849033356 -0.024002000689506531
  endloop
 endfacet
 facet normal 0.25564563162763515 0.65209768990725425 -0.71373238251275239
  outer loop
   vertex 0.021550999954342842 -0.13431000709533691 -0.025026999413967133
   vertex 0.022622000426054001 -0.13360799849033356 -0.024002000689506531
   vertex 0.024896999821066856 -0.13511499762535095 -0.024563999846577644
  endloop
 endfacet
 facet normal -0.81851542690275969 -0.56395502208748816 0.10948620453963093
  outer loop
   vertex 0.017875999212265015 -0.13606399297714233 -0.017008999362587929
   vertex 0.012101000174880028 -0.12817400693893433 -0.019541999325156212
   vertex 0.017361000180244446 -0.13615599274635315 -0.021332999691367149
  endloop
 endfacet
 facet normal -0.94290401744378538 -0.31111040358335845 0.11892153156838094
  outer loop
   vertex 0.018679000437259674 -0.13873699307441711 -0.017635000869631767
   vertex 0.017875999212265015 -0.13606399297714233 -0.017008999362587929
   vertex 0.017361000180244446 -0.13615599274635315 -0.021332999691367149
  endloop
 endfacet
 facet normal -0.89320806232494343 -0.44896043088388454 0.024776781434984581
  outer loop
   vertex 0.019680000841617584 -0.14080899953842163 -0.022045999765396118
   vertex 0.019617000594735146 -0.14054900407791138 -0.019605999812483788
   vertex 0.017361000180244446 -0.13615599274635315 -0.021332999691367149
  endloop
 endfacet
 facet normal -0.88915868038161194 -0.45759232893595181 -0.002470141899253759
  outer loop
   vertex 0.017361000180244446 -0.13615599274635315 -0.021332999691367149
   vertex 0.019617000594735146 -0.14054900407791138 -0.019605999812483788
   vertex 0.018679000437259674 -0.13873699307441711 -0.017635000869631767
  endloop
 endfacet
 facet normal -0.3678654331286445 -0.88404351914293389 -0.28834368273026534
  outer loop
   vertex 0.021315999329090118 -0.14176400005817413 -0.022257000207901001
   vertex 0.02080100029706955 -0.14105099439620972 -0.023786000907421112
   vertex 0.021621000021696091 -0.14135600626468658 -0.023896999657154083
  endloop
 endfacet
 facet normal -0.51288102262960533 -0.8311441274347916 -0.21483132000960492
  outer loop
   vertex 0.021315999329090118 -0.14176400005817413 -0.022257000207901001
   vertex 0.019680000841617584 -0.14080899953842163 -0.022045999765396118
   vertex 0.02080100029706955 -0.14105099439620972 -0.023786000907421112
  endloop
 endfacet
 facet normal -0.49488113146523999 -0.8653230502211372 0.079427227546169862
  outer loop
   vertex 0.019617000594735146 -0.14054900407791138 -0.019605999812483788
   vertex 0.019680000841617584 -0.14080899953842163 -0.022045999765396118
   vertex 0.021315999329090118 -0.14176400005817413 -0.022257000207901001
  endloop
 endfacet
 facet normal -0.82652657507538418 -0.49331363036932818 -0.27110050310906669
  outer loop
   vertex 0.0092989997938275337 -0.12301500141620636 -0.020386999472975731
   vertex 0.015406999737024307 -0.13227599859237671 -0.022157000377774239
   vertex 0.012101000174880028 -0.12817400693893433 -0.019541999325156212
  endloop
 endfacet
 facet normal -0.86767579009133167 -0.43055355555785335 0.24852033938065141
  outer loop
   vertex 0.011665999889373779 -0.12600499391555786 -0.017302999272942543
   vertex 0.0092989997938275337 -0.12301500141620636 -0.020386999472975731
   vertex 0.012101000174880028 -0.12817400693893433 -0.019541999325156212
  endloop
 endfacet
 facet normal -0.81076764198676854 -0.49122880416488762 0.31835529313323729
  outer loop
   vertex 0.012101000174880028 -0.12817400693893433 -0.019541999325156212
   vertex 0.017875999212265015 -0.13606399297714233 -0.017008999362587929
   vertex 0.011665999889373779 -0.12600499391555786 -0.017302999272942543
  endloop
 endfacet
 facet normal -0.67551000203974065 -0.31841817629230551 -0.66505345811517436
  outer loop
   vertex 0.014782000333070755 -0.12672899663448334 -0.024178000167012215
   vertex 0.015406999737024307 -0.13227599859237671 -0.022157000377774239
   vertex 0.0092989997938275337 -0.12301500141620636 -0.020386999472975731
  endloop
 endfacet
 facet normal -0.67808578110900974 -0.33146741748369773 -0.65599468336601052
  outer loop
   vertex 0.014782000333070755 -0.12672899663448334 -0.024178000167012215
   vertex 0.0092989997938275337 -0.12301500141620636 -0.020386999472975731
   vertex 0.012388999573886395 -0.12122999876737595 -0.024483000859618187
  endloop
 endfacet
 facet normal -0.20161271787941629 -0.1414918710264482 -0.96919160253414804
  outer loop
   vertex 0.012388999573886395 -0.12122999876737595 -0.024483000859618187
   vertex 0.012138999998569489 -0.11507199704647064 -0.025329999625682831
   vertex 0.014782000333070755 -0.12672899663448334 -0.024178000167012215
  endloop
 endfacet
 facet normal 0.09438781689089068 -0.076690520768735573 -0.99257720306623587
  outer loop
   vertex 0.014782000333070755 -0.12672899663448334 -0.024178000167012215
   vertex 0.012138999998569489 -0.11507199704647064 -0.025329999625682831
   vertex 0.016705000773072243 -0.12622599303722382 -0.024033999070525169
  endloop
 endfacet
 facet normal 0.68322762575723817 0.19802174631882866 -0.70284237165026464
  outer loop
   vertex 0.012138999998569489 -0.11507199704647064 -0.025329999625682831
   vertex 0.014007000252604485 -0.11758799850940704 -0.024222999811172485
   vertex 0.016705000773072243 -0.12622599303722382 -0.024033999070525169
  endloop
 endfacet
 facet normal 0.56135842883691733 0.24926045282918055 -0.78914253530597334
  outer loop
   vertex 0.016705000773072243 -0.12622599303722382 -0.024033999070525169
   vertex 0.015407999977469444 -0.12053799629211426 -0.023159999400377274
   vertex 0.020694000646471977 -0.13351899385452271 -0.023499999195337296
  endloop
 endfacet
 facet normal 0.86978702291991428 0.26252888563368793 -0.41779075979256203
  outer loop
   vertex 0.016705000773072243 -0.12622599303722382 -0.024033999070525169
   vertex 0.014007000252604485 -0.11758799850940704 -0.024222999811172485
   vertex 0.015407999977469444 -0.12053799629211426 -0.023159999400377274
  endloop
 endfacet
 facet normal -0.037620123603994617 0.94908766613250584 -0.31275761908412908
  outer loop
   vertex 0.022622000426054001 -0.13360799849033356 -0.024002000689506531
   vertex 0.020570000633597374 -0.1338919997215271 -0.024616999551653862
   vertex 0.020694000646471977 -0.13351899385452271 -0.023499999195337296
  endloop
 endfacet
 facet normal 0.86292655521990713 0.36066355851115905 -0.35394852430596752
  outer loop
   vertex 0.015407999977469444 -0.12053799629211426 -0.023159999400377274
   vertex 0.021325999870896339 -0.13324500620365143 -0.021679999306797981
   vertex 0.020694000646471977 -0.13351899385452271 -0.023499999195337296
  endloop
 endfacet
 facet normal 0.0063157290233238957 0.98851259679016867 -0.15100648182796989
  outer loop
   vertex 0.021325999870896339 -0.13324500620365143 -0.021679999306797981
   vertex 0.022622000426054001 -0.13360799849033356 -0.024002000689506531
   vertex 0.020694000646471977 -0.13351899385452271 -0.023499999195337296
  endloop
 endfacet
 facet normal 0.14192697072661556 -0.96645981756838106 -0.21403774434911638
  outer loop
   vertex 0.021315999329090118 -0.14176400005817413 -0.022257000207901001
   vertex 0.021621000021696091 -0.14135600626468658 -0.023896999657154083
   vertex 0.024026999250054359 -0.14117099344730377 -0.02313699945807457
  endloop
 endfacet
 facet normal 0.22789334591421195 -0.82240883428861278 -0.52125649364978677
  outer loop
   vertex 0.021621000021696091 -0.14135600626468658 -0.023896999657154083
   vertex 0.024091999977827072 -0.14031000435352325 -0.024467000737786293
   vertex 0.024026999250054359 -0.14117099344730377 -0.02313699945807457
  endloop
 endfacet
 facet normal 0.63989108541173756 -0.40998485032299675 -0.64996293841742903
  outer loop
   vertex 0.024654999375343323 -0.13859899342060089 -0.024992000311613083
   vertex 0.025753999128937721 -0.13830099999904633 -0.024097999557852745
   vertex 0.024091999977827072 -0.14031000435352325 -0.024467000737786293
  endloop
 endfacet
 facet normal 0.56015549463072967 -0.70761499175536224 -0.43070505601636616
  outer loop
   vertex 0.024862000718712807 -0.14027200639247894 -0.023528000339865685
   vertex 0.024026999250054359 -0.14117099344730377 -0.02313699945807457
   vertex 0.024091999977827072 -0.14031000435352325 -0.024467000737786293
  endloop
 endfacet
 facet normal 0.69126764814950747 -0.47125488320857228 -0.54778451390480509
  outer loop
   vertex 0.024862000718712807 -0.14027200639247894 -0.023528000339865685
   vertex 0.024091999977827072 -0.14031000435352325 -0.024467000737786293
   vertex 0.025753999128937721 -0.13830099999904633 -0.024097999557852745
  endloop
 endfacet
 facet normal 0.65012564522584015 -0.19249917982698198 -0.73503789778869522
  outer loop
   vertex 0.025831000879406929 -0.13730399310588837 -0.02429099939763546
   vertex 0.025753999128937721 -0.13830099999904633 -0.024097999557852745
   vertex 0.024654999375343323 -0.13859899342060089 -0.024992000311613083
  endloop
 endfacet
 facet normal 0.92066526616862143 0.38936080855812233 -0.027814176774199586
  outer loop
   vertex 0.025149999186396599 -0.13552899658679962 -0.021984999999403954
   vertex 0.025831000879406929 -0.13730399310588837 -0.02429099939763546
   vertex 0.024896999821066856 -0.13511499762535095 -0.024563999846577644
  endloop
 endfacet
 facet normal 0.56372028151815035 0.82239536427801385 0.076715767734738191
  outer loop
   vertex 0.025149999186396599 -0.13552899658679962 -0.021984999999403954
   vertex 0.024896999821066856 -0.13511499762535095 -0.024563999846577644
   vertex 0.022622000426054001 -0.13360799849033356 -0.024002000689506531
  endloop
 endfacet
 facet normal 0.92128400292978307 0.38798173205378855 -0.026569936737177526
  outer loop
   vertex 0.025831000879406929 -0.13730399310588837 -0.02429099939763546
   vertex 0.025149999186396599 -0.13552899658679962 -0.021984999999403954
   vertex 0.026019999757409096 -0.13759499788284302 -0.021987000480294228
  endloop
 endfacet
 facet normal 0.99113814367866448 -0.094600191630191316 -0.093252259429689788
  outer loop
   vertex 0.026019999757409096 -0.13759499788284302 -0.021987000480294228
   vertex 0.025753999128937721 -0.13830099999904633 -0.024097999557852745
   vertex 0.025831000879406929 -0.13730399310588837 -0.02429099939763546
  endloop
 endfacet
 facet normal 0.6339778672032671 0.77099729143198403 -0.060292955649403256
  outer loop
   vertex 0.023182999342679977 -0.1339150071144104 -0.022028999403119087
   vertex 0.025149999186396599 -0.13552899658679962 -0.021984999999403954
   vertex 0.022622000426054001 -0.13360799849033356 -0.024002000689506531
  endloop
 endfacet
 facet normal 0.34683391971765248 0.93674101323421632 0.047143464639574174
  outer loop
   vertex 0.022622000426054001 -0.13360799849033356 -0.024002000689506531
   vertex 0.021325999870896339 -0.13324500620365143 -0.021679999306797981
   vertex 0.023182999342679977 -0.1339150071144104 -0.022028999403119087
  endloop
 endfacet
 facet normal -0.62640030478485964 -0.36660701384897787 0.68791129919646643
  outer loop
   vertex 0.011665999889373779 -0.12600499391555786 -0.017302999272942543
   vertex 0.017875999212265015 -0.13606399297714233 -0.017008999362587929
   vertex 0.0076569998636841774 -0.11350700259208679 -0.014293000102043152
  endloop
 endfacet
 facet normal -0.79340838007835268 -0.35426888097811782 0.49497141573221826
  outer loop
   vertex 0.018679000437259674 -0.13873699307441711 -0.017635000869631767
   vertex 0.02029000036418438 -0.13896100223064423 -0.015212999656796455
   vertex 0.017875999212265015 -0.13606399297714233 -0.017008999362587929
  endloop
 endfacet
 facet normal -0.57477529014573459 -0.34948259716979191 0.73992923993672766
  outer loop
   vertex 0.0076569998636841774 -0.11350700259208679 -0.014293000102043152
   vertex 0.017875999212265015 -0.13606399297714233 -0.017008999362587929
   vertex 0.018720999360084534 -0.13469499349594116 -0.015706000849604607
  endloop
 endfacet
 facet normal -0.81240260945296372 -0.27327129927174076 0.51509688132267906
  outer loop
   vertex 0.02029000036418438 -0.13896100223064423 -0.015212999656796455
   vertex 0.018679000437259674 -0.13873699307441711 -0.017635000869631767
   vertex 0.02042900025844574 -0.14101600646972656 -0.016084000468254089
  endloop
 endfacet
 facet normal -0.82449550561381357 -0.55371080966101804 0.11666833540923456
  outer loop
   vertex 0.018679000437259674 -0.13873699307441711 -0.017635000869631767
   vertex 0.019617000594735146 -0.14054900407791138 -0.019605999812483788
   vertex 0.02042900025844574 -0.14101600646972656 -0.016084000468254089
  endloop
 endfacet
 facet normal -0.64125511890473474 -0.76593066798215026 0.046282656826197241
  outer loop
   vertex 0.02042900025844574 -0.14101600646972656 -0.016084000468254089
   vertex 0.019617000594735146 -0.14054900407791138 -0.019605999812483788
   vertex 0.021733000874519348 -0.14217300713062286 -0.017163999378681183
  endloop
 endfacet
 facet normal -0.49403064180261419 -0.86574100162148693 0.080163851401499772
  outer loop
   vertex 0.021424999460577965 -0.14157600700855255 -0.019555000588297844
   vertex 0.019617000594735146 -0.14054900407791138 -0.019605999812483788
   vertex 0.021315999329090118 -0.14176400005817413 -0.022257000207901001
  endloop
 endfacet
 facet normal -0.48487250346962596 -0.86117531704513284 -0.15256385119454829
  outer loop
   vertex 0.021733000874519348 -0.14217300713062286 -0.017163999378681183
   vertex 0.019617000594735146 -0.14054900407791138 -0.019605999812483788
   vertex 0.021424999460577965 -0.14157600700855255 -0.019555000588297844
  endloop
 endfacet
 facet normal 0.22319548694490252 -0.97427886549582288 0.031055866685701344
  outer loop
   vertex 0.024026999250054359 -0.14117099344730377 -0.02313699945807457
   vertex 0.023845000192523003 -0.14112700521945953 -0.020448999479413033
   vertex 0.021315999329090118 -0.14176400005817413 -0.022257000207901001
  endloop
 endfacet
 facet normal 0.20340710726095407 -0.97726705956303217 0.059788318330218998
  outer loop
   vertex 0.021315999329090118 -0.14176400005817413 -0.022257000207901001
   vertex 0.023845000192523003 -0.14112700521945953 -0.020448999479413033
   vertex 0.021424999460577965 -0.14157600700855255 -0.019555000588297844
  endloop
 endfacet
 facet normal -0.85897567472316316 -0.46964791873917444 0.20394024286012846
  outer loop
   vertex 0.011665999889373779 -0.12600499391555786 -0.017302999272942543
   vertex 0.0047459998168051243 -0.11291900277137756 -0.016313999891281128
   vertex 0.0092989997938275337 -0.12301500141620636 -0.020386999472975731
  endloop
 endfacet
 facet normal -0.64982361087163487 -0.38241608522150405 -0.65687686252265687
  outer loop
   vertex 0.009170999750494957 -0.11249300092458725 -0.026386000216007233
   vertex 0.012388999573886395 -0.12122999876737595 -0.024483000859618187
   vertex 0.0092989997938275337 -0.12301500141620636 -0.020386999472975731
  endloop
 endfacet
 facet normal -0.58035317901417294 -0.40866671208291938 -0.70440166527591319
  outer loop
   vertex 0.0039269998669624329 -0.11146999895572662 -0.022659000009298325
   vertex 0.009170999750494957 -0.11249300092458725 -0.026386000216007233
   vertex 0.0092989997938275337 -0.12301500141620636 -0.020386999472975731
  endloop
 endfacet
 facet normal -0.90806684215852496 -0.4182631055490873 0.02169296449722001
  outer loop
   vertex 0.0039269998669624329 -0.11146999895572662 -0.022659000009298325
   vertex 0.0092989997938275337 -0.12301500141620636 -0.020386999472975731
   vertex 0.0047459998168051243 -0.11291900277137756 -0.016313999891281128
  endloop
 endfacet
 facet normal -0.57986908147890848 -0.3618088342118137 0.72996316059859856
  outer loop
   vertex 0.0076569998636841774 -0.11350700259208679 -0.014293000102043152
   vertex 0.0047459998168051243 -0.11291900277137756 -0.016313999891281128
   vertex 0.011665999889373779 -0.12600499391555786 -0.017302999272942543
  endloop
 endfacet
 facet normal 0.23608098056572738 -0.12299720704621898 -0.96391776499551785
  outer loop
   vertex 0.012138999998569489 -0.11507199704647064 -0.025329999625682831
   vertex 0.012388999573886395 -0.12122999876737595 -0.024483000859618187
   vertex 0.009170999750494957 -0.11249300092458725 -0.026386000216007233
  endloop
 endfacet
 facet normal 0.12381312253598489 -0.25064736922315917 -0.96012822424371969
  outer loop
   vertex 0.009170999750494957 -0.11249300092458725 -0.026386000216007233
   vertex 0.010243000462651253 -0.11238099634647369 -0.026277000084519386
   vertex 0.012138999998569489 -0.11507199704647064 -0.025329999625682831
  endloop
 endfacet
 facet normal 0.52468491181260857 0.071142387321113373 -0.8483186335584334
  outer loop
   vertex 0.012138999998569489 -0.11507199704647064 -0.025329999625682831
   vertex 0.010243000462651253 -0.11238099634647369 -0.026277000084519386
   vertex 0.012527000159025192 -0.10983700305223465 -0.024651000276207924
  endloop
 endfacet
 facet normal 0.57100881351421351 0.063836005396714204 -0.8184582453027649
  outer loop
   vertex 0.012527000159025192 -0.10983700305223465 -0.024651000276207924
   vertex 0.014007000252604485 -0.11758799850940704 -0.024222999811172485
   vertex 0.012138999998569489 -0.11507199704647064 -0.025329999625682831
  endloop
 endfacet
 facet normal 0.72823033448896457 0.10162581276525594 -0.67775568910182649
  outer loop
   vertex 0.014007000252604485 -0.11758799850940704 -0.024222999811172485
   vertex 0.012527000159025192 -0.10983700305223465 -0.024651000276207924
   vertex 0.015407999977469444 -0.12053799629211426 -0.023159999400377274
  endloop
 endfacet
 facet normal 0.95239528718682576 0.27480386907992832 0.13200776675266218
  outer loop
   vertex 0.015407999977469444 -0.12053799629211426 -0.023159999400377274
   vertex 0.012527000159025192 -0.10983700305223465 -0.024651000276207924
   vertex 0.012036999687552452 -0.11229400336742401 -0.016000999137759209
  endloop
 endfacet
 facet normal 0.90993343595876086 0.4121756301334174 -0.04617783070266198
  outer loop
   vertex 0.015407999977469444 -0.12053799629211426 -0.023159999400377274
   vertex 0.012036999687552452 -0.11229400336742401 -0.016000999137759209
   vertex 0.01667499914765358 -0.12300299853086472 -0.02019600011408329
  endloop
 endfacet
 facet normal 0.90756127326784841 0.4179776733148034 -0.040338565601484612
  outer loop
   vertex 0.01667499914765358 -0.12300299853086472 -0.02019600011408329
   vertex 0.021325999870896339 -0.13324500620365143 -0.021679999306797981
   vertex 0.015407999977469444 -0.12053799629211426 -0.023159999400377274
  endloop
 endfacet
 facet normal 0.91195416194846546 0.40287528059810385 0.077660252303678512
  outer loop
   vertex 0.021250000223517418 -0.13347199559211731 -0.019610000774264336
   vertex 0.021325999870896339 -0.13324500620365143 -0.021679999306797981
   vertex 0.01667499914765358 -0.12300299853086472 -0.02019600011408329
  endloop
 endfacet
 facet normal 0.35615537244556378 0.92735212792152988 0.11476663939304109
  outer loop
   vertex 0.021250000223517418 -0.13347199559211731 -0.019610000774264336
   vertex 0.023182999342679977 -0.1339150071144104 -0.022028999403119087
   vertex 0.021325999870896339 -0.13324500620365143 -0.021679999306797981
  endloop
 endfacet
 facet normal 0.74447517824986409 -0.66483129792668594 0.061286656516334415
  outer loop
   vertex 0.023845000192523003 -0.14112700521945953 -0.020448999479413033
   vertex 0.024026999250054359 -0.14117099344730377 -0.02313699945807457
   vertex 0.024862000718712807 -0.14027200639247894 -0.023528000339865685
  endloop
 endfacet
 facet normal 0.90211025170203496 -0.42674470245180152 -0.063922239505625172
  outer loop
   vertex 0.025852000340819359 -0.1384429931640625 -0.021766999736428261
   vertex 0.024862000718712807 -0.14027200639247894 -0.023528000339865685
   vertex 0.025753999128937721 -0.13830099999904633 -0.024097999557852745
  endloop
 endfacet
 facet normal 0.97677170720595696 -0.20744415161693389 -0.053702476310600961
  outer loop
   vertex 0.025753999128937721 -0.13830099999904633 -0.024097999557852745
   vertex 0.026019999757409096 -0.13759499788284302 -0.021987000480294228
   vertex 0.025852000340819359 -0.1384429931640625 -0.021766999736428261
  endloop
 endfacet
 facet normal 0.82202802283419252 -0.55735061831921628 0.11674852433540882
  outer loop
   vertex 0.023845000192523003 -0.14112700521945953 -0.020448999479413033
   vertex 0.024862000718712807 -0.14027200639247894 -0.023528000339865685
   vertex 0.025852000340819359 -0.1384429931640625 -0.021766999736428261
  endloop
 endfacet
 facet normal 0.58341032535827408 0.72119566200102103 0.37350931631789558
  outer loop
   vertex 0.023182999342679977 -0.1339150071144104 -0.022028999403119087
   vertex 0.025102000683546066 -0.13678699731826782 -0.019480999559164047
   vertex 0.025149999186396599 -0.13552899658679962 -0.021984999999403954
  endloop
 endfacet
 facet normal 0.90155067059458183 0.37944490794092234 0.20791332373892005
  outer loop
   vertex 0.026019999757409096 -0.13759499788284302 -0.021987000480294228
   vertex 0.025149999186396599 -0.13552899658679962 -0.021984999999403954
   vertex 0.025102000683546066 -0.13678699731826782 -0.019480999559164047
  endloop
 endfacet
 facet normal 0.92874564134714788 0.2711635868437019 0.2527881382674691
  outer loop
   vertex 0.025383999571204185 -0.13773700594902039 -0.019497999921441078
   vertex 0.026019999757409096 -0.13759499788284302 -0.021987000480294228
   vertex 0.025102000683546066 -0.13678699731826782 -0.019480999559164047
  endloop
 endfacet
 facet normal 0.96253899957612798 -0.1287895168183221 0.2386041379622113
  outer loop
   vertex 0.025383999571204185 -0.13773700594902039 -0.019497999921441078
   vertex 0.025852000340819359 -0.1384429931640625 -0.021766999736428261
   vertex 0.026019999757409096 -0.13759499788284302 -0.021987000480294228
  endloop
 endfacet
 facet normal 0.60387259216643041 0.71537402728659039 0.35153647536772131
  outer loop
   vertex 0.025102000683546066 -0.13678699731826782 -0.019480999559164047
   vertex 0.023182999342679977 -0.1339150071144104 -0.022028999403119087
   vertex 0.021250000223517418 -0.13347199559211731 -0.019610000774264336
  endloop
 endfacet
 facet normal -0.57251396498128182 -0.42550688050398633 0.70083639641872053
  outer loop
   vertex 0.0029070000164210796 -0.10632699728012085 -0.01381400041282177
   vertex 0.0047459998168051243 -0.11291900277137756 -0.016313999891281128
   vertex 0.0076569998636841774 -0.11350700259208679 -0.014293000102043152
  endloop
 endfacet
 facet normal -0.13357929677092559 -0.3200383354442079 0.93794031543605483
  outer loop
   vertex 0.010925999842584133 -0.11319799721240997 -0.01372199971228838
   vertex 0.0092799998819828033 -0.11077599972486496 -0.013129999861121178
   vertex 0.0076569998636841774 -0.11350700259208679 -0.014293000102043152
  endloop
 endfacet
 facet normal -0.43720164307123416 -0.34465358211080621 0.83070369665362798
  outer loop
   vertex 0.0076799998059868813 -0.10874699801206589 -0.012306000106036663
   vertex 0.0029070000164210796 -0.10632699728012085 -0.01381400041282177
   vertex 0.0076569998636841774 -0.11350700259208679 -0.014293000102043152
  endloop
 endfacet
 facet normal -0.013172391973129395 -0.38513306275682813 0.92276704105708673
  outer loop
   vertex 0.0076569998636841774 -0.11350700259208679 -0.014293000102043152
   vertex 0.0092799998819828033 -0.11077599972486496 -0.013129999861121178
   vertex 0.0076799998059868813 -0.10874699801206589 -0.012306000106036663
  endloop
 endfacet
 facet normal 0.16140018122541183 0.018477495532968454 0.98671605016804786
  outer loop
   vertex 0.018720999360084534 -0.13469499349594116 -0.015706000849604607
   vertex 0.017625000327825546 -0.12864600121974945 -0.015639999881386757
   vertex 0.0076569998636841774 -0.11350700259208679 -0.014293000102043152
  endloop
 endfacet
 facet normal -0.1519263881997685 -0.18639783208567615 0.97065659260231341
  outer loop
   vertex 0.0076569998636841774 -0.11350700259208679 -0.014293000102043152
   vertex 0.017625000327825546 -0.12864600121974945 -0.015639999881386757
   vertex 0.010925999842584133 -0.11319799721240997 -0.01372199971228838
  endloop
 endfacet
 facet normal -0.15426531082190398 -0.26987625695644379 0.9504572687965519
  outer loop
   vertex 0.022187000140547752 -0.13619600236415863 -0.014120000414550304
   vertex 0.021436000242829323 -0.13645699620246887 -0.014316000044345856
   vertex 0.02029000036418438 -0.13896100223064423 -0.015212999656796455
  endloop
 endfacet
 facet normal -0.25420416473727564 -0.06991200285221745 0.96462041989967007
  outer loop
   vertex 0.02029000036418438 -0.13896100223064423 -0.015212999656796455
   vertex 0.021608000621199608 -0.14098000526428223 -0.015011999756097794
   vertex 0.024475999176502228 -0.13983200490474701 -0.014173000119626522
  endloop
 endfacet
 facet normal -0.62706853930336304 -0.33955531074489642 0.70106150797264821
  outer loop
   vertex 0.02042900025844574 -0.14101600646972656 -0.016084000468254089
   vertex 0.021608000621199608 -0.14098000526428223 -0.015011999756097794
   vertex 0.02029000036418438 -0.13896100223064423 -0.015212999656796455
  endloop
 endfacet
 facet normal -0.24265722158412684 -0.20807726835944607 0.9475343387999946
  outer loop
   vertex 0.022187000140547752 -0.13619600236415863 -0.014120000414550304
   vertex 0.02029000036418438 -0.13896100223064423 -0.015212999656796455
   vertex 0.024170000106096268 -0.13736100494861603 -0.013868000358343124
  endloop
 endfacet
 facet normal -0.26240368851576273 -0.16315939142928745 0.95106430762685401
  outer loop
   vertex 0.024170000106096268 -0.13736100494861603 -0.013868000358343124
   vertex 0.02029000036418438 -0.13896100223064423 -0.015212999656796455
   vertex 0.024631999433040619 -0.13813899457454681 -0.013873999938368797
  endloop
 endfacet
 facet normal -0.26667977899841844 -0.14373631241592533 0.95300669880459199
  outer loop
   vertex 0.02029000036418438 -0.13896100223064423 -0.015212999656796455
   vertex 0.024475999176502228 -0.13983200490474701 -0.014173000119626522
   vertex 0.024631999433040619 -0.13813899457454681 -0.013873999938368797
  endloop
 endfacet
 facet normal -0.49610168081031492 -0.082575752030261712 0.86432885377836211
  outer loop
   vertex 0.021436000242829323 -0.13645699620246887 -0.014316000044345856
   vertex 0.018720999360084534 -0.13469499349594116 -0.015706000849604607
   vertex 0.02029000036418438 -0.13896100223064423 -0.015212999656796455
  endloop
 endfacet
 facet normal 0.11261173977606019 0.0095626265917814982 0.99359305162489686
  outer loop
   vertex 0.018720999360084534 -0.13469499349594116 -0.015706000849604607
   vertex 0.020313000306487083 -0.13390900194644928 -0.015893999487161636
   vertex 0.017625000327825546 -0.12864600121974945 -0.015639999881386757
  endloop
 endfacet
 facet normal -0.20859679458298322 0.60609446011581991 0.76755252765307058
  outer loop
   vertex 0.020313000306487083 -0.13390900194644928 -0.015893999487161636
   vertex 0.018720999360084534 -0.13469499349594116 -0.015706000849604607
   vertex 0.02207300066947937 -0.13457599282264709 -0.014888999983668327
  endloop
 endfacet
 facet normal -0.32016989473344099 0.23137918582136199 0.91867018612504292
  outer loop
   vertex 0.018720999360084534 -0.13469499349594116 -0.015706000849604607
   vertex 0.021436000242829323 -0.13645699620246887 -0.014316000044345856
   vertex 0.022187000140547752 -0.13619600236415863 -0.014120000414550304
  endloop
 endfacet
 facet normal -0.23012682196753817 0.40405445917951938 0.88531442992208542
  outer loop
   vertex 0.018720999360084534 -0.13469499349594116 -0.015706000849604607
   vertex 0.022187000140547752 -0.13619600236415863 -0.014120000414550304
   vertex 0.02207300066947937 -0.13457599282264709 -0.014888999983668327
  endloop
 endfacet
 facet normal -0.60768430586467648 -0.78665981794337636 0.10902346187431439
  outer loop
   vertex 0.021733000874519348 -0.14217300713062286 -0.017163999378681183
   vertex 0.021762000396847725 -0.14200900495052338 -0.015819000080227852
   vertex 0.02042900025844574 -0.14101600646972656 -0.016084000468254089
  endloop
 endfacet
 facet normal -0.54487053886537251 -0.56643438938933444 0.61827839877654656
  outer loop
   vertex 0.02042900025844574 -0.14101600646972656 -0.016084000468254089
   vertex 0.021762000396847725 -0.14200900495052338 -0.015819000080227852
   vertex 0.021608000621199608 -0.14098000526428223 -0.015011999756097794
  endloop
 endfacet
 facet normal 0.089871657624689946 -0.988861916502767 0.11863892803909318
  outer loop
   vertex 0.021733000874519348 -0.14217300713062286 -0.017163999378681183
   vertex 0.023739999160170555 -0.14179900288581848 -0.015567000024020672
   vertex 0.021762000396847725 -0.14200900495052338 -0.015819000080227852
  endloop
 endfacet
 facet normal 0.37962800863650065 -0.88490819683288124 -0.2698519190901994
  outer loop
   vertex 0.021733000874519348 -0.14217300713062286 -0.017163999378681183
   vertex 0.021424999460577965 -0.14157600700855255 -0.019555000588297844
   vertex 0.023739999160170555 -0.14179900288581848 -0.015567000024020672
  endloop
 endfacet
 facet normal 0.22731476053434771 -0.95600770991241135 -0.18541105207413827
  outer loop
   vertex 0.023739999160170555 -0.14179900288581848 -0.015567000024020672
   vertex 0.021424999460577965 -0.14157600700855255 -0.019555000588297844
   vertex 0.023708000779151917 -0.14101299643516541 -0.019658999517560005
  endloop
 endfacet
 facet normal 0.243247737606195 -0.95316542499013912 0.17973928550218257
  outer loop
   vertex 0.021424999460577965 -0.14157600700855255 -0.019555000588297844
   vertex 0.023845000192523003 -0.14112700521945953 -0.020448999479413033
   vertex 0.023708000779151917 -0.14101299643516541 -0.019658999517560005
  endloop
 endfacet
 facet normal 0.80807984585214221 -0.58816101145992339 0.032765642463072508
  outer loop
   vertex 0.025852000340819359 -0.1384429931640625 -0.021766999736428261
   vertex 0.024450000375509262 -0.14024999737739563 -0.019626999273896217
   vertex 0.023845000192523003 -0.14112700521945953 -0.020448999479413033
  endloop
 endfacet
 facet normal 0.6948322545356741 -0.68490795829890871 0.21933815608710808
  outer loop
   vertex 0.024450000375509262 -0.14024999737739563 -0.019626999273896217
   vertex 0.023708000779151917 -0.14101299643516541 -0.019658999517560005
   vertex 0.023845000192523003 -0.14112700521945953 -0.020448999479413033
  endloop
 endfacet
 facet normal -0.89415884185119565 -0.44755502961697696 0.013208368706059039
  outer loop
   vertex 0.0039269998669624329 -0.11146999895572662 -0.022659000009298325
   vertex 0.0047459998168051243 -0.11291900277137756 -0.016313999891281128
   vertex 0.0020220000296831131 -0.10764200240373611 -0.021911999210715294
  endloop
 endfacet
 facet normal -0.90551750212231119 -0.42215723406504091 0.04267696189660504
  outer loop
   vertex 0.0020220000296831131 -0.10764200240373611 -0.021911999210715294
   vertex 0.0047459998168051243 -0.11291900277137756 -0.016313999891281128
   vertex 0.0024349999148398638 -0.10790999978780746 -0.015799999237060547
  endloop
 endfacet
 facet normal -0.76369207505489822 -0.40401438690034636 0.50353429841062558
  outer loop
   vertex 0.0029070000164210796 -0.10632699728012085 -0.01381400041282177
   vertex 0.0024349999148398638 -0.10790999978780746 -0.015799999237060547
   vertex 0.0047459998168051243 -0.11291900277137756 -0.016313999891281128
  endloop
 endfacet
 facet normal -0.52510567813785758 -0.6374218040530828 -0.56387717679038396
  outer loop
   vertex 0.0039269998669624329 -0.11146999895572662 -0.022659000009298325
   vertex 0.0034980000928044319 -0.10886699706315994 -0.025202000513672829
   vertex 0.009170999750494957 -0.11249300092458725 -0.026386000216007233
  endloop
 endfacet
 facet normal 0.13278522861571121 -0.38007114811256765 -0.91537642827083332
  outer loop
   vertex 0.009170999750494957 -0.11249300092458725 -0.026386000216007233
   vertex 0.0075079998932778835 -0.10758999735116959 -0.028663000091910362
   vertex 0.010243000462651253 -0.11238099634647369 -0.026277000084519386
  endloop
 endfacet
 facet normal -0.47031388869050123 -0.49790231172234817 -0.72862756884869539
  outer loop
   vertex 0.0034980000928044319 -0.10886699706315994 -0.025202000513672829
   vertex 0.0075079998932778835 -0.10758999735116959 -0.028663000091910362
   vertex 0.009170999750494957 -0.11249300092458725 -0.026386000216007233
  endloop
 endfacet
 facet normal -0.88519456209441116 -0.39146384547000396 -0.25136953858477057
  outer loop
   vertex 0.0039269998669624329 -0.11146999895572662 -0.022659000009298325
   vertex 0.0020220000296831131 -0.10764200240373611 -0.021911999210715294
   vertex 0.0034980000928044319 -0.10886699706315994 -0.025202000513672829
  endloop
 endfacet
 facet normal 0.19899578563566975 -0.34349579861157276 -0.91782967572172158
  outer loop
   vertex 0.0099590001627802849 -0.10713200271129608 -0.028302999213337898
   vertex 0.010243000462651253 -0.11238099634647369 -0.026277000084519386
   vertex 0.0075079998932778835 -0.10758999735116959 -0.028663000091910362
  endloop
 endfacet
 facet normal 0.72790748418676054 -0.2439366474317797 -0.64081635942338788
  outer loop
   vertex 0.012527000159025192 -0.10983700305223465 -0.024651000276207924
   vertex 0.010243000462651253 -0.11238099634647369 -0.026277000084519386
   vertex 0.010824000462889671 -0.10726899653673172 -0.027563000097870827
  endloop
 endfacet
 facet normal 0.60405748453136388 -0.25831246853212436 -0.75391592633561033
  outer loop
   vertex 0.010824000462889671 -0.10726899653673172 -0.027563000097870827
   vertex 0.010243000462651253 -0.11238099634647369 -0.026277000084519386
   vertex 0.0099590001627802849 -0.10713200271129608 -0.028302999213337898
  endloop
 endfacet
 facet normal 0.89752970090401618 0.11140624738716173 -0.42664866581094318
  outer loop
   vertex 0.010824000462889671 -0.10726899653673172 -0.027563000097870827
   vertex 0.011648000217974186 -0.10184399783611298 -0.024413000792264938
   vertex 0.012527000159025192 -0.10983700305223465 -0.024651000276207924
  endloop
 endfacet
 facet normal 0.98666373483258452 0.13309890067567873 0.093698223062878574
  outer loop
   vertex 0.012527000159025192 -0.10983700305223465 -0.024651000276207924
   vertex 0.010762999765574932 -0.10456400364637375 -0.013566000387072563
   vertex 0.012036999687552452 -0.11229400336742401 -0.016000999137759209
  endloop
 endfacet
 facet normal 0.98862910890511135 0.10553093308964592 0.10712472724219137
  outer loop
   vertex 0.012527000159025192 -0.10983700305223465 -0.024651000276207924
   vertex 0.011648000217974186 -0.10184399783611298 -0.024413000792264938
   vertex 0.010762999765574932 -0.10456400364637375 -0.013566000387072563
  endloop
 endfacet
 facet normal 0.81069817964709812 0.28829104930925492 0.50956523861528269
  outer loop
   vertex 0.012036999687552452 -0.11229400336742401 -0.016000999137759209
   vertex 0.010925999842584133 -0.11319799721240997 -0.01372199971228838
   vertex 0.017625000327825546 -0.12864600121974945 -0.015639999881386757
  endloop
 endfacet
 facet normal 0.84548837201960791 0.20449453441010312 0.49328632474053852
  outer loop
   vertex 0.010463000275194645 -0.11157800257205963 -0.01360000018030405
   vertex 0.010925999842584133 -0.11319799721240997 -0.01372199971228838
   vertex 0.012036999687552452 -0.11229400336742401 -0.016000999137759209
  endloop
 endfacet
 facet normal 0.92494231597543553 0.32059075204262316 0.20421381398608415
  outer loop
   vertex 0.017625000327825546 -0.12864600121974945 -0.015639999881386757
   vertex 0.01667499914765358 -0.12300299853086472 -0.02019600011408329
   vertex 0.012036999687552452 -0.11229400336742401 -0.016000999137759209
  endloop
 endfacet
 facet normal 0.83043858208913857 -0.038213317965288408 0.55579807817935545
  outer loop
   vertex 0.010463000275194645 -0.11157800257205963 -0.01360000018030405
   vertex 0.012036999687552452 -0.11229400336742401 -0.016000999137759209
   vertex 0.010762999765574932 -0.10456400364637375 -0.013566000387072563
  endloop
 endfacet
 facet normal 0.79777255116776646 0.45434443513686212 0.39639638099185398
  outer loop
   vertex 0.017625000327825546 -0.12864600121974945 -0.015639999881386757
   vertex 0.021190999075770378 -0.13343299925327301 -0.017330000177025795
   vertex 0.01667499914765358 -0.12300299853086472 -0.02019600011408329
  endloop
 endfacet
 facet normal 0.9158478123391085 0.40117234341021718 0.016838512892292812
  outer loop
   vertex 0.021250000223517418 -0.13347199559211731 -0.019610000774264336
   vertex 0.01667499914765358 -0.12300299853086472 -0.02019600011408329
   vertex 0.021190999075770378 -0.13343299925327301 -0.017330000177025795
  endloop
 endfacet
 facet normal 0.63925829719955762 0.73387182738706158 -0.22974109434121054
  outer loop
   vertex 0.02448900043964386 -0.13542500138282776 -0.016836000606417656
   vertex 0.025102000683546066 -0.13678699731826782 -0.019480999559164047
   vertex 0.021250000223517418 -0.13347199559211731 -0.019610000774264336
  endloop
 endfacet
 facet normal 0.55203373475200868 0.83173193205960072 -0.058997871895117536
  outer loop
   vertex 0.02448900043964386 -0.13542500138282776 -0.016836000606417656
   vertex 0.021250000223517418 -0.13347199559211731 -0.019610000774264336
   vertex 0.022644000127911568 -0.13421300053596497 -0.017013000324368477
  endloop
 endfacet
 facet normal 0.4734533246882181 0.88081441568405727 -0.0028132658646980034
  outer loop
   vertex 0.021250000223517418 -0.13347199559211731 -0.019610000774264336
   vertex 0.021190999075770378 -0.13343299925327301 -0.017330000177025795
   vertex 0.022644000127911568 -0.13421300053596497 -0.017013000324368477
  endloop
 endfacet
 facet normal 0.89160947222846654 -0.34635518246400243 0.29166871037669245
  outer loop
   vertex 0.025852000340819359 -0.1384429931640625 -0.021766999736428261
   vertex 0.025383999571204185 -0.13773700594902039 -0.019497999921441078
   vertex 0.024450000375509262 -0.14024999737739563 -0.019626999273896217
  endloop
 endfacet
 facet normal 0.84314609854198797 0.53192350576475589 -0.078498665774368745
  outer loop
   vertex 0.025894999504089355 -0.13769200444221497 -0.017095999792218208
   vertex 0.025102000683546066 -0.13678699731826782 -0.019480999559164047
   vertex 0.02448900043964386 -0.13542500138282776 -0.016836000606417656
  endloop
 endfacet
 facet normal 0.93735273977018518 0.28190511286736303 -0.20469330371208241
  outer loop
   vertex 0.025102000683546066 -0.13678699731826782 -0.019480999559164047
   vertex 0.025894999504089355 -0.13769200444221497 -0.017095999792218208
   vertex 0.025383999571204185 -0.13773700594902039 -0.019497999921441078
  endloop
 endfacet
 facet normal 0.87824339093215742 -0.30762015710289226 -0.36613984381377757
  outer loop
   vertex 0.025560999289155006 -0.13987399637699127 -0.017278000712394714
   vertex 0.024450000375509262 -0.14024999737739563 -0.019626999273896217
   vertex 0.025383999571204185 -0.13773700594902039 -0.019497999921441078
  endloop
 endfacet
 facet normal 0.97011752799462503 -0.13148814206264639 -0.2039187347315371
  outer loop
   vertex 0.025894999504089355 -0.13769200444221497 -0.017095999792218208
   vertex 0.025560999289155006 -0.13987399637699127 -0.017278000712394714
   vertex 0.025383999571204185 -0.13773700594902039 -0.019497999921441078
  endloop
 endfacet
 facet normal -0.97404451195681208 0.0065662859557187817 0.22626129279124127
  outer loop
   vertex 0.0017320000333711505 -0.10558000206947327 -0.018893999978899956
   vertex 0.0024349999148398638 -0.10790999978780746 -0.015799999237060547
   vertex 0.0029070000164210796 -0.10632699728012085 -0.01381400041282177
  endloop
 endfacet
 facet normal -0.42760257548596076 -0.31548732385750672 0.84712678267364561
  outer loop
   vertex 0.0076799998059868813 -0.10874699801206589 -0.012306000106036663
   vertex 0.0041390000842511654 -0.10395299643278122 -0.012307999655604362
   vertex 0.0029070000164210796 -0.10632699728012085 -0.01381400041282177
  endloop
 endfacet
 facet normal -0.9659724851818523 -0.165018577131784 0.19916331758885061
  outer loop
   vertex 0.0029070000164210796 -0.10632699728012085 -0.01381400041282177
   vertex 0.0023060000967234373 -0.10411600023508072 -0.014897000044584274
   vertex 0.0017320000333711505 -0.10558000206947327 -0.018893999978899956
  endloop
 endfacet
 facet normal -0.8164737757564553 0.059379884901182747 0.5743209928002978
  outer loop
   vertex 0.0023060000967234373 -0.10411600023508072 -0.014897000044584274
   vertex 0.0029070000164210796 -0.10632699728012085 -0.01381400041282177
   vertex 0.0041390000842511654 -0.10395299643278122 -0.012307999655604362
  endloop
 endfacet
 facet normal 0.39422655279506791 0.043539297511496454 0.91798134765556261
  outer loop
   vertex 0.0092799998819828033 -0.11077599972486496 -0.013129999861121178
   vertex 0.010925999842584133 -0.11319799721240997 -0.01372199971228838
   vertex 0.010463000275194645 -0.11157800257205963 -0.01360000018030405
  endloop
 endfacet
 facet normal 0.24893624595774225 -0.18942765831112404 0.94981467019373333
  outer loop
   vertex 0.0076799998059868813 -0.10874699801206589 -0.012306000106036663
   vertex 0.0092799998819828033 -0.11077599972486496 -0.013129999861121178
   vertex 0.010463000275194645 -0.11157800257205963 -0.01360000018030405
  endloop
 endfacet
 facet normal -0.073733421875714952 -0.054046467398805254 0.9958124129876107
  outer loop
   vertex 0.0041390000842511654 -0.10395299643278122 -0.012307999655604362
   vertex 0.0076799998059868813 -0.10874699801206589 -0.012306000106036663
   vertex 0.0048989998176693916 -0.10334999859333038 -0.012218999676406384
  endloop
 endfacet
 facet normal 0.33428345485277366 -0.099752021274271685 0.93717880154396938
  outer loop
   vertex 0.0076799998059868813 -0.10874699801206589 -0.012306000106036663
   vertex 0.010463000275194645 -0.11157800257205963 -0.01360000018030405
   vertex 0.0090079996734857559 -0.10520800203084946 -0.012403000146150589
  endloop
 endfacet
 facet normal 0.048819444270227767 0.009055727027234747 0.9987665671562872
  outer loop
   vertex 0.0076799998059868813 -0.10874699801206589 -0.012306000106036663
   vertex 0.0090079996734857559 -0.10520800203084946 -0.012403000146150589
   vertex 0.0048989998176693916 -0.10334999859333038 -0.012218999676406384
  endloop
 endfacet
 facet normal 0.74230644946779023 0.35159348899462539 0.57040613038002064
  outer loop
   vertex 0.021190999075770378 -0.13343299925327301 -0.017330000177025795
   vertex 0.017625000327825546 -0.12864600121974945 -0.015639999881386757
   vertex 0.020313000306487083 -0.13390900194644928 -0.015893999487161636
  endloop
 endfacet
 facet normal 0.14130746257105323 0.43308493488187877 0.89020763881247922
  outer loop
   vertex 0.024176999926567078 -0.13590799272060394 -0.014576000161468983
   vertex 0.022187000140547752 -0.13619600236415863 -0.014120000414550304
   vertex 0.024170000106096268 -0.13736100494861603 -0.013868000358343124
  endloop
 endfacet
 facet normal 0.14142204102094674 0.43262132266231967 0.89041484572718954
  outer loop
   vertex 0.022187000140547752 -0.13619600236415863 -0.014120000414550304
   vertex 0.024176999926567078 -0.13590799272060394 -0.014576000161468983
   vertex 0.02207300066947937 -0.13457599282264709 -0.014888999983668327
  endloop
 endfacet
 facet normal 0.015896396308744676 -0.61556025558278338 0.78792948690301845
  outer loop
   vertex 0.021762000396847725 -0.14200900495052338 -0.015819000080227852
   vertex 0.024475999176502228 -0.13983200490474701 -0.014173000119626522
   vertex 0.021608000621199608 -0.14098000526428223 -0.015011999756097794
  endloop
 endfacet
 facet normal -0.044697442998391068 -0.56644849196437086 0.82288410152383895
  outer loop
   vertex 0.021762000396847725 -0.14200900495052338 -0.015819000080227852
   vertex 0.023739999160170555 -0.14179900288581848 -0.015567000024020672
   vertex 0.024475999176502228 -0.13983200490474701 -0.014173000119626522
  endloop
 endfacet
 facet normal 0.71735495541301952 -0.18473985937190376 0.6717686002662181
  outer loop
   vertex 0.024475999176502228 -0.13983200490474701 -0.014173000119626522
   vertex 0.025054000318050385 -0.14021299779415131 -0.014894999563694
   vertex 0.024631999433040619 -0.13813899457454681 -0.013873999938368797
  endloop
 endfacet
 facet normal 0.41510815959569697 -0.62430762514084892 0.66175917449482091
  outer loop
   vertex 0.024475999176502228 -0.13983200490474701 -0.014173000119626522
   vertex 0.023739999160170555 -0.14179900288581848 -0.015567000024020672
   vertex 0.025054000318050385 -0.14021299779415131 -0.014894999563694
  endloop
 endfacet
 facet normal 0.59713925826545511 0.34903412246092996 0.72221872559226163
  outer loop
   vertex 0.024170000106096268 -0.13736100494861603 -0.013868000358343124
   vertex 0.024631999433040619 -0.13813899457454681 -0.013873999938368797
   vertex 0.024176999926567078 -0.13590799272060394 -0.014576000161468983
  endloop
 endfacet
 facet normal 0.62437225889759229 -0.2390456742944724 0.74365075668637548
  outer loop
   vertex 0.025054000318050385 -0.14021299779415131 -0.014894999563694
   vertex 0.025471000000834465 -0.13809099793434143 -0.014562999829649925
   vertex 0.024631999433040619 -0.13813899457454681 -0.013873999938368797
  endloop
 endfacet
 facet normal 0.58254726105658539 0.34968077418770305 0.73373158906984448
  outer loop
   vertex 0.024631999433040619 -0.13813899457454681 -0.013873999938368797
   vertex 0.025471000000834465 -0.13809099793434143 -0.014562999829649925
   vertex 0.024176999926567078 -0.13590799272060394 -0.014576000161468983
  endloop
 endfacet
 facet normal 0.33387684674378354 0.81466411480102896 0.47418206552323738
  outer loop
   vertex 0.020313000306487083 -0.13390900194644928 -0.015893999487161636
   vertex 0.022644000127911568 -0.13421300053596497 -0.017013000324368477
   vertex 0.021190999075770378 -0.13343299925327301 -0.017330000177025795
  endloop
 endfacet
 facet normal 0.23097121879019031 0.94684591142159991 0.22390872273043266
  outer loop
   vertex 0.022644000127911568 -0.13421300053596497 -0.017013000324368477
   vertex 0.020313000306487083 -0.13390900194644928 -0.015893999487161636
   vertex 0.02207300066947937 -0.13457599282264709 -0.014888999983668327
  endloop
 endfacet
 facet normal 0.49198135026820683 0.83501757303899693 0.24637370741281506
  outer loop
   vertex 0.02448900043964386 -0.13542500138282776 -0.016836000606417656
   vertex 0.02207300066947937 -0.13457599282264709 -0.014888999983668327
   vertex 0.024176999926567078 -0.13590799272060394 -0.014576000161468983
  endloop
 endfacet
 facet normal 0.50904172433611561 0.8152339488233884 0.276170475559461
  outer loop
   vertex 0.02448900043964386 -0.13542500138282776 -0.016836000606417656
   vertex 0.022644000127911568 -0.13421300053596497 -0.017013000324368477
   vertex 0.02207300066947937 -0.13457599282264709 -0.014888999983668327
  endloop
 endfacet
 facet normal 0.7129587110142781 -0.68756363355174999 -0.13764492800671496
  outer loop
   vertex 0.024450000375509262 -0.14024999737739563 -0.019626999273896217
   vertex 0.023739999160170555 -0.14179900288581848 -0.015567000024020672
   vertex 0.023708000779151917 -0.14101299643516541 -0.019658999517560005
  endloop
 endfacet
 facet normal 0.63118535663158559 -0.75500726376043903 -0.17767689000776948
  outer loop
   vertex 0.024450000375509262 -0.14024999737739563 -0.019626999273896217
   vertex 0.025560999289155006 -0.13987399637699127 -0.017278000712394714
   vertex 0.023739999160170555 -0.14179900288581848 -0.015567000024020672
  endloop
 endfacet
 facet normal 0.75405829086642329 -0.65333093594713365 0.067489125865215868
  outer loop
   vertex 0.023739999160170555 -0.14179900288581848 -0.015567000024020672
   vertex 0.025560999289155006 -0.13987399637699127 -0.017278000712394714
   vertex 0.025054000318050385 -0.14021299779415131 -0.014894999563694
  endloop
 endfacet
 facet normal -0.97404787435723073 -0.21925278073892143 0.056204595883350375
  outer loop
   vertex 0.0020220000296831131 -0.10764200240373611 -0.021911999210715294
   vertex 0.0024349999148398638 -0.10790999978780746 -0.015799999237060547
   vertex 0.0017320000333711505 -0.10558000206947327 -0.018893999978899956
  endloop
 endfacet
 facet normal -0.99360184019162046 -0.11124955751294602 -0.019465844985488444
  outer loop
   vertex 0.0020220000296831131 -0.10764200240373611 -0.021911999210715294
   vertex 0.0017320000333711505 -0.10558000206947327 -0.018893999978899956
   vertex 0.0017729999963194132 -0.10551399737596512 -0.0213639996945858
  endloop
 endfacet
 facet normal -0.92562871617979225 -0.010895884248748633 -0.37827603610298577
  outer loop
   vertex 0.0017729999963194132 -0.10551399737596512 -0.0213639996945858
   vertex 0.0039389999583363533 -0.10360900312662125 -0.026719000190496445
   vertex 0.0020220000296831131 -0.10764200240373611 -0.021911999210715294
  endloop
 endfacet
 facet normal -0.91690941343858745 -0.037725359253215476 -0.39730834979511981
  outer loop
   vertex 0.0034980000928044319 -0.10886699706315994 -0.025202000513672829
   vertex 0.0020220000296831131 -0.10764200240373611 -0.021911999210715294
   vertex 0.0039389999583363533 -0.10360900312662125 -0.026719000190496445
  endloop
 endfacet
 facet normal -0.88975189364480123 -0.056067389804445526 -0.45298787572738264
  outer loop
   vertex 0.0043390002101659775 -0.10519800335168839 -0.02730800025165081
   vertex 0.0034980000928044319 -0.10886699706315994 -0.025202000513672829
   vertex 0.0039389999583363533 -0.10360900312662125 -0.026719000190496445
  endloop
 endfacet
 facet normal -0.56231893571582114 -0.31092680076194118 -0.76623882641339081
  outer loop
   vertex 0.0043390002101659775 -0.10519800335168839 -0.02730800025165081
   vertex 0.0075079998932778835 -0.10758999735116959 -0.028663000091910362
   vertex 0.0034980000928044319 -0.10886699706315994 -0.025202000513672829
  endloop
 endfacet
 facet normal 0.15135119393534605 -0.033432093701873229 -0.98791452626482534
  outer loop
   vertex 0.0099590001627802849 -0.10713200271129608 -0.028302999213337898
   vertex 0.0075079998932778835 -0.10758999735116959 -0.028663000091910362
   vertex 0.0081599997356534004 -0.10505200177431107 -0.028649000450968742
  endloop
 endfacet
 facet normal -0.53231170214745771 -0.24645028182489653 -0.80988055313441454
  outer loop
   vertex 0.0075079998932778835 -0.10758999735116959 -0.028663000091910362
   vertex 0.0043390002101659775 -0.10519800335168839 -0.02730800025165081
   vertex 0.0067520001903176308 -0.1052670031785965 -0.028873000293970108
  endloop
 endfacet
 facet normal 0.16241298450570299 -0.036284073112169052 -0.98605551998979302
  outer loop
   vertex 0.0081599997356534004 -0.10505200177431107 -0.028649000450968742
   vertex 0.0075079998932778835 -0.10758999735116959 -0.028663000091910362
   vertex 0.0067520001903176308 -0.1052670031785965 -0.028873000293970108
  endloop
 endfacet
 facet normal 0.6462210986335406 -0.037093448849126839 -0.76224823235828953
  outer loop
   vertex 0.0099590001627802849 -0.10713200271129608 -0.028302999213337898
   vertex 0.010583999566733837 -0.10598400235176086 -0.027829000726342201
   vertex 0.010824000462889671 -0.10726899653673172 -0.027563000097870827
  endloop
 endfacet
 facet normal 0.37446056208515388 0.17231536369034037 -0.91109094105864985
  outer loop
   vertex 0.010583999566733837 -0.10598400235176086 -0.027829000726342201
   vertex 0.0099590001627802849 -0.10713200271129608 -0.028302999213337898
   vertex 0.0081599997356534004 -0.10505200177431107 -0.028649000450968742
  endloop
 endfacet
 facet normal 0.9149979265204804 0.089456725339387394 -0.39341617754583369
  outer loop
   vertex 0.011648000217974186 -0.10184399783611298 -0.024413000792264938
   vertex 0.010824000462889671 -0.10726899653673172 -0.027563000097870827
   vertex 0.010583999566733837 -0.10598400235176086 -0.027829000726342201
  endloop
 endfacet
 facet normal 0.7217055114009836 0.65954079856529602 0.21011208875573115
  outer loop
   vertex 0.0084530003368854523 -0.10138799995183945 -0.014870000071823597
   vertex 0.011648000217974186 -0.10184399783611298 -0.024413000792264938
   vertex 0.01013800036162138 -0.1005299985408783 -0.023351000621914864
  endloop
 endfacet
 facet normal 0.60052245445105867 0.78268098910514083 0.16365589202187145
  outer loop
   vertex 0.011648000217974186 -0.10184399783611298 -0.024413000792264938
   vertex 0.0084530003368854523 -0.10138799995183945 -0.014870000071823597
   vertex 0.0097580002620816231 -0.10259900242090225 -0.013867000117897987
  endloop
 endfacet
 facet normal 0.8624174263339569 0.46991174337638414 0.18819972420936598
  outer loop
   vertex 0.010762999765574932 -0.10456400364637375 -0.013566000387072563
   vertex 0.011648000217974186 -0.10184399783611298 -0.024413000792264938
   vertex 0.0097580002620816231 -0.10259900242090225 -0.013867000117897987
  endloop
 endfacet
 facet normal 0.84731031756233777 0.19110424881845664 -0.49552436048689236
  outer loop
   vertex 0.011648000217974186 -0.10184399783611298 -0.024413000792264938
   vertex 0.010583999566733837 -0.10598400235176086 -0.027829000726342201
   vertex 0.010418999940156937 -0.10239499807357788 -0.026727000251412392
  endloop
 endfacet
 facet normal 0.39900957039020807 0.82141645086404069 -0.40751242556141137
  outer loop
   vertex 0.0079690003767609596 -0.10106399655342102 -0.026443000882863998
   vertex 0.011648000217974186 -0.10184399783611298 -0.024413000792264938
   vertex 0.010418999940156937 -0.10239499807357788 -0.026727000251412392
  endloop
 endfacet
 facet normal 0.40581696604217166 0.80940945281989718 -0.42446310529670478
  outer loop
   vertex 0.011648000217974186 -0.10184399783611298 -0.024413000792264938
   vertex 0.0079690003767609596 -0.10106399655342102 -0.026443000882863998
   vertex 0.01013800036162138 -0.1005299985408783 -0.023351000621914864
  endloop
 endfacet
 facet normal 0.55928401377854231 -0.027937547049550832 0.82850521144807376
  outer loop
   vertex 0.010463000275194645 -0.11157800257205963 -0.01360000018030405
   vertex 0.010762999765574932 -0.10456400364637375 -0.013566000387072563
   vertex 0.0090079996734857559 -0.10520800203084946 -0.012403000146150589
  endloop
 endfacet
 facet normal 0.42665171189014361 0.34619821465967432 0.83553283173533277
  outer loop
   vertex 0.0097580002620816231 -0.10259900242090225 -0.013867000117897987
   vertex 0.0090079996734857559 -0.10520800203084946 -0.012403000146150589
   vertex 0.010762999765574932 -0.10456400364637375 -0.013566000387072563
  endloop
 endfacet
 facet normal 0.83984546736599885 0.4954329082333927 0.22182385891555825
  outer loop
   vertex 0.025894999504089355 -0.13769200444221497 -0.017095999792218208
   vertex 0.02448900043964386 -0.13542500138282776 -0.016836000606417656
   vertex 0.024176999926567078 -0.13590799272060394 -0.014576000161468983
  endloop
 endfacet
 facet normal 0.8387872921794276 0.49850405831835343 0.21892825838259267
  outer loop
   vertex 0.025894999504089355 -0.13769200444221497 -0.017095999792218208
   vertex 0.024176999926567078 -0.13590799272060394 -0.014576000161468983
   vertex 0.025471000000834465 -0.13809099793434143 -0.014562999829649925
  endloop
 endfacet
 facet normal 0.97721274555471804 -0.16111033231514962 0.13819808517744292
  outer loop
   vertex 0.025894999504089355 -0.13769200444221497 -0.017095999792218208
   vertex 0.025471000000834465 -0.13809099793434143 -0.014562999829649925
   vertex 0.025560999289155006 -0.13987399637699127 -0.017278000712394714
  endloop
 endfacet
 facet normal 0.96082191457764909 -0.21598921496424978 0.17369486891231939
  outer loop
   vertex 0.025560999289155006 -0.13987399637699127 -0.017278000712394714
   vertex 0.025471000000834465 -0.13809099793434143 -0.014562999829649925
   vertex 0.025054000318050385 -0.14021299779415131 -0.014894999563694
  endloop
 endfacet
 facet normal -0.69534043721071226 0.70131782702075462 -0.15701904942554762
  outer loop
   vertex 0.0017320000333711505 -0.10558000206947327 -0.018893999978899956
   vertex 0.0023060000967234373 -0.10411600023508072 -0.014897000044584274
   vertex 0.0035910001024603844 -0.10251999646425247 -0.013458999805152416
  endloop
 endfacet
 facet normal -0.52708596378952366 0.84969735321746798 0.013956887593532237
  outer loop
   vertex 0.0017320000333711505 -0.10558000206947327 -0.018893999978899956
   vertex 0.0071069998666644096 -0.1022460013628006 -0.018880000337958336
   vertex 0.0017729999963194132 -0.10551399737596512 -0.0213639996945858
  endloop
 endfacet
 facet normal -0.50454446973605549 0.8146162930434967 -0.28606847635982957
  outer loop
   vertex 0.0071069998666644096 -0.1022460013628006 -0.018880000337958336
   vertex 0.0017320000333711505 -0.10558000206947327 -0.018893999978899956
   vertex 0.0035910001024603844 -0.10251999646425247 -0.013458999805152416
  endloop
 endfacet
 facet normal -0.81190664957903858 0.14394206765039499 0.56576344308365267
  outer loop
   vertex 0.0023060000967234373 -0.10411600023508072 -0.014897000044584274
   vertex 0.0041390000842511654 -0.10395299643278122 -0.012307999655604362
   vertex 0.0035910001024603844 -0.10251999646425247 -0.013458999805152416
  endloop
 endfacet
 facet normal -0.44739423348183938 0.44979038226513512 0.77299871401508879
  outer loop
   vertex 0.0048989998176693916 -0.10334999859333038 -0.012218999676406384
   vertex 0.0035910001024603844 -0.10251999646425247 -0.013458999805152416
   vertex 0.0041390000842511654 -0.10395299643278122 -0.012307999655604362
  endloop
 endfacet
 facet normal -0.34100636166926712 0.57438510313280378 0.7441749892331827
  outer loop
   vertex 0.0052020000293850899 -0.10178899765014648 -0.013284999877214432
   vertex 0.0035910001024603844 -0.10251999646425247 -0.013458999805152416
   vertex 0.0048989998176693916 -0.10334999859333038 -0.012218999676406384
  endloop
 endfacet
 facet normal 0.14394496997840078 0.22285365783945688 0.96416600894529125
  outer loop
   vertex 0.0079709999263286591 -0.10256099700927734 -0.012860000133514404
   vertex 0.0048989998176693916 -0.10334999859333038 -0.012218999676406384
   vertex 0.0090079996734857559 -0.10520800203084946 -0.012403000146150589
  endloop
 endfacet
 facet normal 0.028992724760854707 0.55986283717403473 0.82807791026109467
  outer loop
   vertex 0.0079709999263286591 -0.10256099700927734 -0.012860000133514404
   vertex 0.0052020000293850899 -0.10178899765014648 -0.013284999877214432
   vertex 0.0048989998176693916 -0.10334999859333038 -0.012218999676406384
  endloop
 endfacet
 facet normal 0.46942596290626698 0.32560376765281623 0.82074444977703942
  outer loop
   vertex 0.0090079996734857559 -0.10520800203084946 -0.012403000146150589
   vertex 0.0097580002620816231 -0.10259900242090225 -0.013867000117897987
   vertex 0.0079709999263286591 -0.10256099700927734 -0.012860000133514404
  endloop
 endfacet
 facet normal -0.58768088692503873 0.76973635198646506 0.24927319064345566
  outer loop
   vertex 0.0071069998666644096 -0.1022460013628006 -0.018880000337958336
   vertex 0.0041840001940727234 -0.10245300084352493 -0.02513200044631958
   vertex 0.0017729999963194132 -0.10551399737596512 -0.0213639996945858
  endloop
 endfacet
 facet normal -0.87217243745406259 0.44958573158093901 -0.19284166900405952
  outer loop
   vertex 0.0039389999583363533 -0.10360900312662125 -0.026719000190496445
   vertex 0.0017729999963194132 -0.10551399737596512 -0.0213639996945858
   vertex 0.0041840001940727234 -0.10245300084352493 -0.02513200044631958
  endloop
 endfacet
 facet normal -0.65911438208988771 0.65265120906775931 -0.37365041231699103
  outer loop
   vertex 0.0041840001940727234 -0.10245300084352493 -0.02513200044631958
   vertex 0.0058439997956156731 -0.10153800249099731 -0.026461999863386154
   vertex 0.0039389999583363533 -0.10360900312662125 -0.026719000190496445
  endloop
 endfacet
 facet normal -0.59787485638985893 0.61391303257666741 -0.51541870797374545
  outer loop
   vertex 0.0039389999583363533 -0.10360900312662125 -0.026719000190496445
   vertex 0.0058439997956156731 -0.10153800249099731 -0.026461999863386154
   vertex 0.0060740001499652863 -0.10256999731063843 -0.02795800007879734
  endloop
 endfacet
 facet normal -0.55346501911862611 0.16339978972003122 -0.81668658696679264
  outer loop
   vertex 0.0043390002101659775 -0.10519800335168839 -0.02730800025165081
   vertex 0.0039389999583363533 -0.10360900312662125 -0.026719000190496445
   vertex 0.0060740001499652863 -0.10256999731063843 -0.02795800007879734
  endloop
 endfacet
 facet normal -0.53520766303990208 0.14762796311815926 -0.83172035079643802
  outer loop
   vertex 0.0060740001499652863 -0.10256999731063843 -0.02795800007879734
   vertex 0.0067520001903176308 -0.1052670031785965 -0.028873000293970108
   vertex 0.0043390002101659775 -0.10519800335168839 -0.02730800025165081
  endloop
 endfacet
 facet normal 0.10525084722340149 0.29889432291938517 -0.94846425493284581
  outer loop
   vertex 0.0067520001903176308 -0.1052670031785965 -0.028873000293970108
   vertex 0.0086000002920627594 -0.10266199707984924 -0.02784699946641922
   vertex 0.0081599997356534004 -0.10505200177431107 -0.028649000450968742
  endloop
 endfacet
 facet normal 0.40378150431412008 0.2854455501775548 -0.86918429268921971
  outer loop
   vertex 0.0081599997356534004 -0.10505200177431107 -0.028649000450968742
   vertex 0.010418999940156937 -0.10239499807357788 -0.026727000251412392
   vertex 0.010583999566733837 -0.10598400235176086 -0.027829000726342201
  endloop
 endfacet
 facet normal 0.49361767349274754 0.19363294877707829 -0.84784896860437386
  outer loop
   vertex 0.010418999940156937 -0.10239499807357788 -0.026727000251412392
   vertex 0.0081599997356534004 -0.10505200177431107 -0.028649000450968742
   vertex 0.0086000002920627594 -0.10266199707984924 -0.02784699946641922
  endloop
 endfacet
 facet normal 0.053493675428533172 0.33285250504011799 -0.94146037440652008
  outer loop
   vertex 0.0067520001903176308 -0.1052670031785965 -0.028873000293970108
   vertex 0.0060740001499652863 -0.10256999731063843 -0.02795800007879734
   vertex 0.0086000002920627594 -0.10266199707984924 -0.02784699946641922
  endloop
 endfacet
 facet normal 0.35854788388095615 0.79356449197412893 0.49162873394700091
  outer loop
   vertex 0.0084530003368854523 -0.10138799995183945 -0.014870000071823597
   vertex 0.0071629998274147511 -0.10141599923372269 -0.013883999548852444
   vertex 0.0097580002620816231 -0.10259900242090225 -0.013867000117897987
  endloop
 endfacet
 facet normal 0.32398820977680276 0.93265127966086303 0.15872375522453172
  outer loop
   vertex 0.0076879998669028282 -0.10098099708557129 -0.015699999406933784
   vertex 0.0084530003368854523 -0.10138799995183945 -0.014870000071823597
   vertex 0.01013800036162138 -0.1005299985408783 -0.023351000621914864
  endloop
 endfacet
 facet normal 0.19465860722270087 0.93965186101149001 0.28135814673074877
  outer loop
   vertex 0.0076879998669028282 -0.10098099708557129 -0.015699999406933784
   vertex 0.0071629998274147511 -0.10141599923372269 -0.013883999548852444
   vertex 0.0084530003368854523 -0.10138799995183945 -0.014870000071823597
  endloop
 endfacet
 facet normal -0.32195903739637199 0.93618737298542165 0.14105169584750332
  outer loop
   vertex 0.0058439997956156731 -0.10153800249099731 -0.026461999863386154
   vertex 0.0071069998666644096 -0.1022460013628006 -0.018880000337958336
   vertex 0.01013800036162138 -0.1005299985408783 -0.023351000621914864
  endloop
 endfacet
 facet normal -0.66261369564260075 0.72960477533784607 -0.16917435429481026
  outer loop
   vertex 0.0076879998669028282 -0.10098099708557129 -0.015699999406933784
   vertex 0.01013800036162138 -0.1005299985408783 -0.023351000621914864
   vertex 0.0071069998666644096 -0.1022460013628006 -0.018880000337958336
  endloop
 endfacet
 facet normal -0.21754764921064912 0.97591957734239643 -0.015937342399489608
  outer loop
   vertex 0.01013800036162138 -0.1005299985408783 -0.023351000621914864
   vertex 0.0079690003767609596 -0.10106399655342102 -0.026443000882863998
   vertex 0.0058439997956156731 -0.10153800249099731 -0.026461999863386154
  endloop
 endfacet
 facet normal 0.33752231526982823 0.74857977271582055 0.57070746497275215
  outer loop
   vertex 0.0071629998274147511 -0.10141599923372269 -0.013883999548852444
   vertex 0.0079709999263286591 -0.10256099700927734 -0.012860000133514404
   vertex 0.0097580002620816231 -0.10259900242090225 -0.013867000117897987
  endloop
 endfacet
 facet normal 0.30103782817773511 0.69373554117268277 -0.65429903325610794
  outer loop
   vertex 0.0079690003767609596 -0.10106399655342102 -0.026443000882863998
   vertex 0.010418999940156937 -0.10239499807357788 -0.026727000251412392
   vertex 0.0086000002920627594 -0.10266199707984924 -0.02784699946641922
  endloop
 endfacet
 facet normal -0.17287140864128753 0.79812755543701652 -0.57715498899906326
  outer loop
   vertex 0.0060740001499652863 -0.10256999731063843 -0.02795800007879734
   vertex 0.0058439997956156731 -0.10153800249099731 -0.026461999863386154
   vertex 0.0079690003767609596 -0.10106399655342102 -0.026443000882863998
  endloop
 endfacet
 facet normal 0.056922513767972624 0.67155425420469805 -0.73876566723549542
  outer loop
   vertex 0.0060740001499652863 -0.10256999731063843 -0.02795800007879734
   vertex 0.0079690003767609596 -0.10106399655342102 -0.026443000882863998
   vertex 0.0086000002920627594 -0.10266199707984924 -0.02784699946641922
  endloop
 endfacet
 facet normal -0.38600203645861741 0.8994556195531852 -0.20489513489586766
  outer loop
   vertex 0.0071069998666644096 -0.1022460013628006 -0.018880000337958336
   vertex 0.0035910001024603844 -0.10251999646425247 -0.013458999805152416
   vertex 0.0052020000293850899 -0.10178899765014648 -0.013284999877214432
  endloop
 endfacet
 facet normal -0.38314099963483617 0.91160167240765699 0.14894752519723578
  outer loop
   vertex 0.0058439997956156731 -0.10153800249099731 -0.026461999863386154
   vertex 0.0041840001940727234 -0.10245300084352493 -0.02513200044631958
   vertex 0.0071069998666644096 -0.1022460013628006 -0.018880000337958336
  endloop
 endfacet
 facet normal -0.50217768383273687 0.83111918924159434 -0.23886914228251185
  outer loop
   vertex 0.0071069998666644096 -0.1022460013628006 -0.018880000337958336
   vertex 0.0052020000293850899 -0.10178899765014648 -0.013284999877214432
   vertex 0.0076879998669028282 -0.10098099708557129 -0.015699999406933784
  endloop
 endfacet
 facet normal 0.084981720285522117 0.69686374253610261 0.71215098929643406
  outer loop
   vertex 0.0052020000293850899 -0.10178899765014648 -0.013284999877214432
   vertex 0.0079709999263286591 -0.10256099700927734 -0.012860000133514404
   vertex 0.0071629998274147511 -0.10141599923372269 -0.013883999548852444
  endloop
 endfacet
 facet normal -0.12483981182794518 0.97245327016660488 0.19684933000912019
  outer loop
   vertex 0.0071629998274147511 -0.10141599923372269 -0.013883999548852444
   vertex 0.0076879998669028282 -0.10098099708557129 -0.015699999406933784
   vertex 0.0052020000293850899 -0.10178899765014648 -0.013284999877214432
  endloop
 endfacet
endsolid
