solid Visualization Toolkit generated SLA File
 facet normal 0.15047607505886387 -0.95755200499988147 -0.24586807144398881
  outer loop
   vertex 0.061751000583171844 -0.1617719978094101 0.026194000616669655
   vertex 0.062624998390674591 -0.1625870019197464 0.029903000220656395
   vertex 0.060662999749183655 -0.16241799294948578 0.028044000267982483
  endloop
 endfacet
 facet normal -0.26392697018557809 -0.85174199395308214 -0.45263465415883558
  outer loop
   vertex 0.060458999127149582 -0.16112400591373444 0.025728000327944756
   vertex 0.061751000583171844 -0.1617719978094101 0.026194000616669655
   vertex 0.060662999749183655 -0.16241799294948578 0.028044000267982483
  endloop
 endfacet
 facet normal -0.40772216431505892 -0.90724644439413094 -0.10327887422145621
  outer loop
   vertex 0.063335999846458435 -0.16271300613880157 0.028202999383211136
   vertex 0.062624998390674591 -0.1625870019197464 0.029903000220656395
   vertex 0.061751000583171844 -0.1617719978094101 0.026194000616669655
  endloop
 endfacet
 facet normal 0.036777909158163133 -0.53408305877128659 -0.84463167814820939
  outer loop
   vertex 0.062155000865459442 -0.16090600192546844 0.02566399984061718
   vertex 0.061751000583171844 -0.1617719978094101 0.026194000616669655
   vertex 0.060458999127149582 -0.16112400591373444 0.025728000327944756
  endloop
 endfacet
 facet normal 0.15319007372233162 -0.84296269360361553 -0.51570020215769119
  outer loop
   vertex 0.063335999846458435 -0.16271300613880157 0.028202999383211136
   vertex 0.061751000583171844 -0.1617719978094101 0.026194000616669655
   vertex 0.064162999391555786 -0.16199499368667603 0.027274999767541885
  endloop
 endfacet
 facet normal 0.28292798723522056 -0.5932439966173424 -0.75366658046944701
  outer loop
   vertex 0.064162999391555786 -0.16199499368667603 0.027274999767541885
   vertex 0.061751000583171844 -0.1617719978094101 0.026194000616669655
   vertex 0.062155000865459442 -0.16090600192546844 0.02566399984061718
  endloop
 endfacet
 facet normal -0.02146933903682333 -0.99745269271754422 -0.068023475887683801
  outer loop
   vertex 0.060662999749183655 -0.16241799294948578 0.028044000267982483
   vertex 0.062624998390674591 -0.1625870019197464 0.029903000220656395
   vertex 0.058974001556634903 -0.16244499385356903 0.02897300012409687
  endloop
 endfacet
 facet normal 0.062473916940475216 -0.99305093821765567 0.099733864896276364
  outer loop
   vertex 0.063335999846458435 -0.16271300613880157 0.028202999383211136
   vertex 0.064185000956058502 -0.16252200305461884 0.029572999104857445
   vertex 0.062624998390674591 -0.1625870019197464 0.029903000220656395
  endloop
 endfacet
 facet normal -0.054731982793660497 -0.85652648207594562 0.51319274698896467
  outer loop
   vertex 0.059537000954151154 -0.16230100393295288 0.030051000416278839
   vertex 0.062624998390674591 -0.1625870019197464 0.029903000220656395
   vertex 0.060316998511552811 -0.16181999444961548 0.030936999246478081
  endloop
 endfacet
 facet normal -0.082531970702399718 -0.98125081736689934 0.17417033969298626
  outer loop
   vertex 0.059537000954151154 -0.16230100393295288 0.030051000416278839
   vertex 0.058974001556634903 -0.16244499385356903 0.02897300012409687
   vertex 0.062624998390674591 -0.1625870019197464 0.029903000220656395
  endloop
 endfacet
 facet normal 0.082877232071606341 -0.97639357642360125 0.19946665967744601
  outer loop
   vertex 0.063433997333049774 -0.1623309999704361 0.030820000916719437
   vertex 0.062624998390674591 -0.1625870019197464 0.029903000220656395
   vertex 0.064185000956058502 -0.16252200305461884 0.029572999104857445
  endloop
 endfacet
 facet normal -0.1368600990500092 -0.91698161903405595 0.37471859260210583
  outer loop
   vertex 0.062624998390674591 -0.1625870019197464 0.029903000220656395
   vertex 0.062424000352621078 -0.16193300485610962 0.031429998576641083
   vertex 0.060316998511552811 -0.16181999444961548 0.030936999246478081
  endloop
 endfacet
 facet normal -0.13489179864317855 -0.91713966925811918 0.37504537023127732
  outer loop
   vertex 0.062624998390674591 -0.1625870019197464 0.029903000220656395
   vertex 0.063433997333049774 -0.1623309999704361 0.030820000916719437
   vertex 0.062424000352621078 -0.16193300485610962 0.031429998576641083
  endloop
 endfacet
 facet normal -0.18411374286576887 -0.91409153175172053 -0.36130153787072483
  outer loop
   vertex 0.060662999749183655 -0.16241799294948578 0.028044000267982483
   vertex 0.058974001556634903 -0.16244499385356903 0.02897300012409687
   vertex 0.056046999990940094 -0.16127599775791168 0.027506999671459198
  endloop
 endfacet
 facet normal -0.10313693305449849 -0.73303335618044829 -0.67232794956549291
  outer loop
   vertex 0.057140998542308807 -0.16039900481700897 0.026382999494671822
   vertex 0.060662999749183655 -0.16241799294948578 0.028044000267982483
   vertex 0.056046999990940094 -0.16127599775791168 0.027506999671459198
  endloop
 endfacet
 facet normal -0.10435168118593187 -0.73406823123781606 -0.67101010314380061
  outer loop
   vertex 0.060662999749183655 -0.16241799294948578 0.028044000267982483
   vertex 0.057140998542308807 -0.16039900481700897 0.026382999494671822
   vertex 0.057785999029874802 -0.1602959930896759 0.026170000433921814
  endloop
 endfacet
 facet normal -0.33130022609301402 -0.83580725505366382 -0.43779720486816431
  outer loop
   vertex 0.060458999127149582 -0.16112400591373444 0.025728000327944756
   vertex 0.060662999749183655 -0.16241799294948578 0.028044000267982483
   vertex 0.057785999029874802 -0.1602959930896759 0.026170000433921814
  endloop
 endfacet
 facet normal 0.027252257853359985 -0.47088106219760778 -0.88177567425368841
  outer loop
   vertex 0.05940999835729599 -0.15978400409221649 0.024979999288916588
   vertex 0.062155000865459442 -0.16090600192546844 0.02566399984061718
   vertex 0.060458999127149582 -0.16112400591373444 0.025728000327944756
  endloop
 endfacet
 facet normal -0.22477348573684203 -0.62731463993282299 -0.74562270796674535
  outer loop
   vertex 0.060458999127149582 -0.16112400591373444 0.025728000327944756
   vertex 0.057512000203132629 -0.15932400524616241 0.025102000683546066
   vertex 0.058122999966144562 -0.1594109982252121 0.024991000071167946
  endloop
 endfacet
 facet normal -0.33855122580999186 -0.75130130721578703 -0.5665063223640151
  outer loop
   vertex 0.060458999127149582 -0.16112400591373444 0.025728000327944756
   vertex 0.057812999933958054 -0.1596670001745224 0.025376999750733376
   vertex 0.057512000203132629 -0.15932400524616241 0.025102000683546066
  endloop
 endfacet
 facet normal -0.17514094546524495 -0.58085172847383459 -0.79494460105751952
  outer loop
   vertex 0.058122999966144562 -0.1594109982252121 0.024991000071167946
   vertex 0.05940999835729599 -0.15978400409221649 0.024979999288916588
   vertex 0.060458999127149582 -0.16112400591373444 0.025728000327944756
  endloop
 endfacet
 facet normal -0.3260170747090102 -0.73522661479721019 -0.59426819862080316
  outer loop
   vertex 0.057785999029874802 -0.1602959930896759 0.026170000433921814
   vertex 0.057812999933958054 -0.1596670001745224 0.025376999750733376
   vertex 0.060458999127149582 -0.16112400591373444 0.025728000327944756
  endloop
 endfacet
 facet normal 0.37315758671402544 -0.86462027860590085 -0.33643006598878611
  outer loop
   vertex 0.064162999391555786 -0.16199499368667603 0.027274999767541885
   vertex 0.064730003476142883 -0.16233199834823608 0.028769999742507935
   vertex 0.063335999846458435 -0.16271300613880157 0.028202999383211136
  endloop
 endfacet
 facet normal 0.27797484509963294 -0.95981862839116172 -0.038447185659600584
  outer loop
   vertex 0.063335999846458435 -0.16271300613880157 0.028202999383211136
   vertex 0.064730003476142883 -0.16233199834823608 0.028769999742507935
   vertex 0.064185000956058502 -0.16252200305461884 0.029572999104857445
  endloop
 endfacet
 facet normal 0.41820732493817941 0.61643394392661099 -0.66716701517920984
  outer loop
   vertex 0.05940999835729599 -0.15978400409221649 0.024979999288916588
   vertex 0.062668003141880035 -0.16059599816799164 0.02627200074493885
   vertex 0.062155000865459442 -0.16090600192546844 0.02566399984061718
  endloop
 endfacet
 facet normal 0.68209378128406362 0.2316183404980541 -0.69361445910428898
  outer loop
   vertex 0.064162999391555786 -0.16199499368667603 0.027274999767541885
   vertex 0.062155000865459442 -0.16090600192546844 0.02566399984061718
   vertex 0.062668003141880035 -0.16059599816799164 0.02627200074493885
  endloop
 endfacet
 facet normal 0.78597290527505848 0.59619579862475314 -0.16369838690615338
  outer loop
   vertex 0.064459003508090973 -0.16185200214385986 0.029216999188065529
   vertex 0.064730003476142883 -0.16233199834823608 0.028769999742507935
   vertex 0.064162999391555786 -0.16199499368667603 0.027274999767541885
  endloop
 endfacet
 facet normal 0.71408359522203546 0.6932509191299967 -0.097405247087552257
  outer loop
   vertex 0.062668003141880035 -0.16059599816799164 0.02627200074493885
   vertex 0.06308399885892868 -0.16072100400924683 0.028432000428438187
   vertex 0.064162999391555786 -0.16199499368667603 0.027274999767541885
  endloop
 endfacet
 facet normal 0.67914395353954116 0.71716580446543721 -0.15632242090027787
  outer loop
   vertex 0.064162999391555786 -0.16199499368667603 0.027274999767541885
   vertex 0.06308399885892868 -0.16072100400924683 0.028432000428438187
   vertex 0.064459003508090973 -0.16185200214385986 0.029216999188065529
  endloop
 endfacet
 facet normal -0.31941298367923754 -0.94090820398482178 -0.11254820092379975
  outer loop
   vertex 0.056046999990940094 -0.16127599775791168 0.027506999671459198
   vertex 0.058974001556634903 -0.16244499385356903 0.02897300012409687
   vertex 0.056644998490810394 -0.16171799600124359 0.02950499951839447
  endloop
 endfacet
 facet normal -0.2363365451856958 -0.93925509910086258 0.24888731631547312
  outer loop
   vertex 0.059537000954151154 -0.16230100393295288 0.030051000416278839
   vertex 0.056644998490810394 -0.16171799600124359 0.02950499951839447
   vertex 0.058974001556634903 -0.16244499385356903 0.02897300012409687
  endloop
 endfacet
 facet normal 0.19822464790164376 -0.94394384562468658 0.26396402268405345
  outer loop
   vertex 0.064194001257419586 -0.1622689962387085 0.030471000820398331
   vertex 0.063433997333049774 -0.1623309999704361 0.030820000916719437
   vertex 0.064185000956058502 -0.16252200305461884 0.029572999104857445
  endloop
 endfacet
 facet normal 0.93731893325339721 -0.3377535384865018 0.085765754264511898
  outer loop
   vertex 0.064459003508090973 -0.16185200214385986 0.029216999188065529
   vertex 0.064194001257419586 -0.1622689962387085 0.030471000820398331
   vertex 0.064185000956058502 -0.16252200305461884 0.029572999104857445
  endloop
 endfacet
 facet normal 0.83156916222432908 -0.045970989157670727 0.55351548902753633
  outer loop
   vertex 0.064459003508090973 -0.16185200214385986 0.029216999188065529
   vertex 0.064185000956058502 -0.16252200305461884 0.029572999104857445
   vertex 0.064730003476142883 -0.16233199834823608 0.028769999742507935
  endloop
 endfacet
 facet normal -0.28762907853069153 -0.71248582213046019 0.64002614512742184
  outer loop
   vertex 0.058060001581907272 -0.16051000356674194 0.031380999833345413
   vertex 0.059537000954151154 -0.16230100393295288 0.030051000416278839
   vertex 0.060316998511552811 -0.16181999444961548 0.030936999246478081
  endloop
 endfacet
 facet normal -0.10832122792696246 -0.6623888621973375 0.74128773550984339
  outer loop
   vertex 0.059537000954151154 -0.16230100393295288 0.030051000416278839
   vertex 0.057264000177383423 -0.1605830043554306 0.031254000961780548
   vertex 0.056682001799345016 -0.16043299436569214 0.031302999705076218
  endloop
 endfacet
 facet normal -0.25025421323556946 -0.8945512999626124 0.37033876450224135
  outer loop
   vertex 0.059537000954151154 -0.16230100393295288 0.030051000416278839
   vertex 0.055130999535322189 -0.1607310026884079 0.030866000801324844
   vertex 0.056644998490810394 -0.16171799600124359 0.02950499951839447
  endloop
 endfacet
 facet normal -0.089693452795683914 -0.64546084389147507 0.7585086575171659
  outer loop
   vertex 0.056682001799345016 -0.16043299436569214 0.031302999705076218
   vertex 0.055130999535322189 -0.1607310026884079 0.030866000801324844
   vertex 0.059537000954151154 -0.16230100393295288 0.030051000416278839
  endloop
 endfacet
 facet normal -0.065829854016811171 -0.62932261581596372 0.77435100280343061
  outer loop
   vertex 0.057264000177383423 -0.1605830043554306 0.031254000961780548
   vertex 0.059537000954151154 -0.16230100393295288 0.030051000416278839
   vertex 0.058060001581907272 -0.16051000356674194 0.031380999833345413
  endloop
 endfacet
 facet normal -0.18153337816958709 -0.78169422919158016 0.5966571583907454
  outer loop
   vertex 0.060316998511552811 -0.16181999444961548 0.030936999246478081
   vertex 0.062424000352621078 -0.16193300485610962 0.031429998576641083
   vertex 0.061524998396635056 -0.16112199425697327 0.032219000160694122
  endloop
 endfacet
 facet normal -0.15980075008221536 -0.79592331343648581 0.58392619345380203
  outer loop
   vertex 0.060316998511552811 -0.16181999444961548 0.030936999246478081
   vertex 0.061524998396635056 -0.16112199425697327 0.032219000160694122
   vertex 0.058681998401880264 -0.16058200597763062 0.032177001237869263
  endloop
 endfacet
 facet normal -0.44333008773897747 -0.85501777596774375 0.26907812264196351
  outer loop
   vertex 0.060316998511552811 -0.16181999444961548 0.030936999246478081
   vertex 0.058681998401880264 -0.16058200597763062 0.032177001237869263
   vertex 0.058060001581907272 -0.16051000356674194 0.031380999833345413
  endloop
 endfacet
 facet normal 0.0041761095708043984 -0.83431772589919873 0.55126807667344779
  outer loop
   vertex 0.063433997333049774 -0.1623309999704361 0.030820000916719437
   vertex 0.062891997396945953 -0.16181899607181549 0.031599000096321106
   vertex 0.062424000352621078 -0.16193300485610962 0.031429998576641083
  endloop
 endfacet
 facet normal 0.84886080459898561 0.11286203794801958 0.51642762784903617
  outer loop
   vertex 0.063270002603530884 -0.16142700612545013 0.03089199960231781
   vertex 0.062891997396945953 -0.16181899607181549 0.031599000096321106
   vertex 0.063433997333049774 -0.1623309999704361 0.030820000916719437
  endloop
 endfacet
 facet normal 0.41708855308859283 0.0032783446047019603 0.90885994044138441
  outer loop
   vertex 0.064194001257419586 -0.1622689962387085 0.030471000820398331
   vertex 0.063270002603530884 -0.16142700612545013 0.03089199960231781
   vertex 0.063433997333049774 -0.1623309999704361 0.030820000916719437
  endloop
 endfacet
 facet normal -0.066211620658308698 -0.7325233465973513 0.67751425666152365
  outer loop
   vertex 0.062424000352621078 -0.16193300485610962 0.031429998576641083
   vertex 0.062891997396945953 -0.16181899607181549 0.031599000096321106
   vertex 0.061524998396635056 -0.16112199425697327 0.032219000160694122
  endloop
 endfacet
 facet normal 0.095677266482229004 -0.70222013290351759 -0.70550176868910441
  outer loop
   vertex 0.055399000644683838 -0.16044400632381439 0.026590999215841293
   vertex 0.056046999990940094 -0.16127599775791168 0.027506999671459198
   vertex 0.052889000624418259 -0.16014300286769867 0.025950999930500984
  endloop
 endfacet
 facet normal -0.26561009900940502 -0.95171500253388652 -0.15391500659824744
  outer loop
   vertex 0.052889000624418259 -0.16014300286769867 0.025950999930500984
   vertex 0.056046999990940094 -0.16127599775791168 0.027506999671459198
   vertex 0.048893000930547714 -0.1598220020532608 0.030861999839544296
  endloop
 endfacet
 facet normal -0.057824755828763293 -0.75901653195860819 -0.64849842083606557
  outer loop
   vertex 0.056046999990940094 -0.16127599775791168 0.027506999671459198
   vertex 0.055399000644683838 -0.16044400632381439 0.026590999215841293
   vertex 0.057140998542308807 -0.16039900481700897 0.026382999494671822
  endloop
 endfacet
 facet normal -0.25758292627882245 -0.95683844686314012 -0.13457794282189112
  outer loop
   vertex 0.056046999990940094 -0.16127599775791168 0.027506999671459198
   vertex 0.056644998490810394 -0.16171799600124359 0.02950499951839447
   vertex 0.048893000930547714 -0.1598220020532608 0.030861999839544296
  endloop
 endfacet
 facet normal -0.099164114341284193 -0.39090551121238887 -0.91507341767242334
  outer loop
   vertex 0.055916998535394669 -0.15983100235462189 0.026272999122738838
   vertex 0.057140998542308807 -0.16039900481700897 0.026382999494671822
   vertex 0.055399000644683838 -0.16044400632381439 0.026590999215841293
  endloop
 endfacet
 facet normal 0.20283236623139317 0.25393900767235456 -0.94571349339604627
  outer loop
   vertex 0.055916998535394669 -0.15983100235462189 0.026272999122738838
   vertex 0.056926999241113663 -0.15987800061702728 0.026476999744772911
   vertex 0.057140998542308807 -0.16039900481700897 0.026382999494671822
  endloop
 endfacet
 facet normal -0.31905137207916401 0.039792812054221027 -0.94690166019667554
  outer loop
   vertex 0.057785999029874802 -0.1602959930896759 0.026170000433921814
   vertex 0.057140998542308807 -0.16039900481700897 0.026382999494671822
   vertex 0.056926999241113663 -0.15987800061702728 0.026476999744772911
  endloop
 endfacet
 facet normal -0.064753642208836962 0.50084800846690769 -0.86310963280189523
  outer loop
   vertex 0.056926999241113663 -0.15987800061702728 0.026476999744772911
   vertex 0.05772700160741806 -0.15966600179672241 0.02653999999165535
   vertex 0.057785999029874802 -0.1602959930896759 0.026170000433921814
  endloop
 endfacet
 facet normal -0.99603073663403785 -0.050045192144756952 -0.073608765941634902
  outer loop
   vertex 0.05772700160741806 -0.15966600179672241 0.02653999999165535
   vertex 0.057812999933958054 -0.1596670001745224 0.025376999750733376
   vertex 0.057785999029874802 -0.1602959930896759 0.026170000433921814
  endloop
 endfacet
 facet normal 0.18444730911709054 0.65793985300122193 -0.73013309745018073
  outer loop
   vertex 0.058122999966144562 -0.1594109982252121 0.024991000071167946
   vertex 0.058208998292684555 -0.15898899734020233 0.025392999872565269
   vertex 0.05940999835729599 -0.15978400409221649 0.024979999288916588
  endloop
 endfacet
 facet normal 0.3799643381067575 0.80796269387268893 -0.45035917563327271
  outer loop
   vertex 0.062668003141880035 -0.16059599816799164 0.02627200074493885
   vertex 0.05940999835729599 -0.15978400409221649 0.024979999288916588
   vertex 0.058208998292684555 -0.15898899734020233 0.025392999872565269
  endloop
 endfacet
 facet normal -0.032232026028488896 0.69281731149963044 -0.72039244123222357
  outer loop
   vertex 0.057512000203132629 -0.15932400524616241 0.025102000683546066
   vertex 0.058208998292684555 -0.15898899734020233 0.025392999872565269
   vertex 0.058122999966144562 -0.1594109982252121 0.024991000071167946
  endloop
 endfacet
 facet normal -0.47510548145377718 0.25763760113311457 0.84136653604416001
  outer loop
   vertex 0.057812999933958054 -0.1596670001745224 0.025376999750733376
   vertex 0.058208998292684555 -0.15898899734020233 0.025392999872565269
   vertex 0.057512000203132629 -0.15932400524616241 0.025102000683546066
  endloop
 endfacet
 facet normal -0.85826177176731455 0.49839195233479056 0.12244261092751185
  outer loop
   vertex 0.058208998292684555 -0.15898899734020233 0.025392999872565269
   vertex 0.057812999933958054 -0.1596670001745224 0.025376999750733376
   vertex 0.058168999850749969 -0.15949100255966187 0.027155999094247818
  endloop
 endfacet
 facet normal -0.33681749512838011 0.94121876479636246 -0.025714038396440889
  outer loop
   vertex 0.058168999850749969 -0.15949100255966187 0.027155999094247818
   vertex 0.057812999933958054 -0.1596670001745224 0.025376999750733376
   vertex 0.05772700160741806 -0.15966600179672241 0.02653999999165535
  endloop
 endfacet
 facet normal 0.30579829199038855 0.9520887634023395 -0.0037935759864540894
  outer loop
   vertex 0.06308399885892868 -0.16072100400924683 0.028432000428438187
   vertex 0.062668003141880035 -0.16059599816799164 0.02627200074493885
   vertex 0.059866998344659805 -0.15968500077724457 0.029121000319719315
  endloop
 endfacet
 facet normal 0.33415870375553686 0.94212206162345358 0.027276028061156806
  outer loop
   vertex 0.059866998344659805 -0.15968500077724457 0.029121000319719315
   vertex 0.062668003141880035 -0.16059599816799164 0.02627200074493885
   vertex 0.058208998292684555 -0.15898899734020233 0.025392999872565269
  endloop
 endfacet
 facet normal 0.71297326922287607 0.60627674224615347 0.35227493408563088
  outer loop
   vertex 0.064194001257419586 -0.1622689962387085 0.030471000820398331
   vertex 0.064459003508090973 -0.16185200214385986 0.029216999188065529
   vertex 0.063270002603530884 -0.16142700612545013 0.03089199960231781
  endloop
 endfacet
 facet normal 0.55671033366485356 0.80868775666818205 0.18999399097274186
  outer loop
   vertex 0.063270002603530884 -0.16142700612545013 0.03089199960231781
   vertex 0.064459003508090973 -0.16185200214385986 0.029216999188065529
   vertex 0.06308399885892868 -0.16072100400924683 0.028432000428438187
  endloop
 endfacet
 facet normal 0.53873705309273723 0.78534948079368883 0.30494029028981462
  outer loop
   vertex 0.06308399885892868 -0.16072100400924683 0.028432000428438187
   vertex 0.061524998396635056 -0.16112199425697327 0.032219000160694122
   vertex 0.062891997396945953 -0.16181899607181549 0.031599000096321106
  endloop
 endfacet
 facet normal 0.34349602672664498 0.90859750873522183 0.2376153335606869
  outer loop
   vertex 0.06308399885892868 -0.16072100400924683 0.028432000428438187
   vertex 0.059866998344659805 -0.15968500077724457 0.029121000319719315
   vertex 0.061524998396635056 -0.16112199425697327 0.032219000160694122
  endloop
 endfacet
 facet normal -0.38517516472698116 0.87890549014261665 0.28136316723179988
  outer loop
   vertex 0.062891997396945953 -0.16181899607181549 0.031599000096321106
   vertex 0.063270002603530884 -0.16142700612545013 0.03089199960231781
   vertex 0.06308399885892868 -0.16072100400924683 0.028432000428438187
  endloop
 endfacet
 facet normal -0.16270339512468299 -0.92014811987704748 0.35616715556271605
  outer loop
   vertex 0.048893000930547714 -0.1598220020532608 0.030861999839544296
   vertex 0.056644998490810394 -0.16171799600124359 0.02950499951839447
   vertex 0.050914999097585678 -0.15999799966812134 0.031330998986959457
  endloop
 endfacet
 facet normal -0.09112690543333303 -0.85160177859256214 0.51620761114509861
  outer loop
   vertex 0.050914999097585678 -0.15999799966812134 0.031330998986959457
   vertex 0.056644998490810394 -0.16171799600124359 0.02950499951839447
   vertex 0.055130999535322189 -0.1607310026884079 0.030866000801324844
  endloop
 endfacet
 facet normal -0.43073477577627173 -0.86470678028637915 0.2583597047988106
  outer loop
   vertex 0.058681998401880264 -0.16058200597763062 0.032177001237869263
   vertex 0.057659998536109924 -0.16012699902057648 0.031996000558137894
   vertex 0.058060001581907272 -0.16051000356674194 0.031380999833345413
  endloop
 endfacet
 facet normal -0.0058959451478724353 -0.85054917228152138 0.52586247571207456
  outer loop
   vertex 0.057659998536109924 -0.16012699902057648 0.031996000558137894
   vertex 0.057264000177383423 -0.1605830043554306 0.031254000961780548
   vertex 0.058060001581907272 -0.16051000356674194 0.031380999833345413
  endloop
 endfacet
 facet normal 0.039178901543200965 -0.16964400227349777 0.98472632043959185
  outer loop
   vertex 0.057264000177383423 -0.1605830043554306 0.031254000961780548
   vertex 0.05764399841427803 -0.15993799269199371 0.031350001692771912
   vertex 0.056682001799345016 -0.16043299436569214 0.031302999705076218
  endloop
 endfacet
 facet normal -0.86052670766159267 0.4827703610044986 0.16256249240426265
  outer loop
   vertex 0.05764399841427803 -0.15993799269199371 0.031350001692771912
   vertex 0.057264000177383423 -0.1605830043554306 0.031254000961780548
   vertex 0.057659998536109924 -0.16012699902057648 0.031996000558137894
  endloop
 endfacet
 facet normal -0.32741148185705615 0.56433888502180818 0.75784123957495797
  outer loop
   vertex 0.05764399841427803 -0.15993799269199371 0.031350001692771912
   vertex 0.056908998638391495 -0.15988500416278839 0.030992999672889709
   vertex 0.056682001799345016 -0.16043299436569214 0.031302999705076218
  endloop
 endfacet
 facet normal 0.18825056570075085 0.42334375782807959 0.88619511803064421
  outer loop
   vertex 0.056288000196218491 -0.16003799438476562 0.031198000535368919
   vertex 0.056682001799345016 -0.16043299436569214 0.031302999705076218
   vertex 0.056908998638391495 -0.15988500416278839 0.030992999672889709
  endloop
 endfacet
 facet normal -0.21889276492563911 -0.24554869464565074 0.94434728570638982
  outer loop
   vertex 0.055644001811742783 -0.16022300720214844 0.031116999685764313
   vertex 0.055130999535322189 -0.1607310026884079 0.030866000801324844
   vertex 0.056682001799345016 -0.16043299436569214 0.031302999705076218
  endloop
 endfacet
 facet normal -0.15432249020261338 0.10715470432119045 0.98219266865493482
  outer loop
   vertex 0.055644001811742783 -0.16022300720214844 0.031116999685764313
   vertex 0.056682001799345016 -0.16043299436569214 0.031302999705076218
   vertex 0.056288000196218491 -0.16003799438476562 0.031198000535368919
  endloop
 endfacet
 facet normal 0.025387739172403331 -0.4272966124408567 0.90375498211422434
  outer loop
   vertex 0.055130999535322189 -0.1607310026884079 0.030866000801324844
   vertex 0.053752001374959946 -0.15965600311756134 0.031413000077009201
   vertex 0.050914999097585678 -0.15999799966812134 0.031330998986959457
  endloop
 endfacet
 facet normal 0.0057490706032381307 -0.4476277373374718 0.89420151920768642
  outer loop
   vertex 0.055130999535322189 -0.1607310026884079 0.030866000801324844
   vertex 0.055644001811742783 -0.16022300720214844 0.031116999685764313
   vertex 0.053752001374959946 -0.15965600311756134 0.031413000077009201
  endloop
 endfacet
 facet normal -0.14063225191388529 -0.68480584554744994 0.71502693909087911
  outer loop
   vertex 0.058681998401880264 -0.16058200597763062 0.032177001237869263
   vertex 0.061524998396635056 -0.16112199425697327 0.032219000160694122
   vertex 0.059431999921798706 -0.16033299267292023 0.032563000917434692
  endloop
 endfacet
 facet normal 0.26642262724821902 0.30863400835415394 0.91310680239356701
  outer loop
   vertex 0.059523999691009521 -0.15979999303817749 0.032356001436710358
   vertex 0.059431999921798706 -0.16033299267292023 0.032563000917434692
   vertex 0.061524998396635056 -0.16112199425697327 0.032219000160694122
  endloop
 endfacet
 facet normal 0.55328060685805547 0.82832227180250395 0.088106663259485588
  outer loop
   vertex 0.061524998396635056 -0.16112199425697327 0.032219000160694122
   vertex 0.059866998344659805 -0.15968500077724457 0.029121000319719315
   vertex 0.059523999691009521 -0.15979999303817749 0.032356001436710358
  endloop
 endfacet
 facet normal -0.32173426099865032 -0.37718277625778357 0.86845853015220198
  outer loop
   vertex 0.059431999921798706 -0.16033299267292023 0.032563000917434692
   vertex 0.057659998536109924 -0.16012699902057648 0.031996000558137894
   vertex 0.058681998401880264 -0.16058200597763062 0.032177001237869263
  endloop
 endfacet
 facet normal 0.089551527938103823 -0.71889913964953067 -0.68932180500482898
  outer loop
   vertex 0.052889000624418259 -0.16014300286769867 0.025950999930500984
   vertex 0.053566001355648041 -0.15991100668907166 0.025797000154852867
   vertex 0.055399000644683838 -0.16044400632381439 0.026590999215841293
  endloop
 endfacet
 facet normal 0.13061133849208581 -0.54127027793607774 -0.83064262139641432
  outer loop
   vertex 0.055399000644683838 -0.16044400632381439 0.026590999215841293
   vertex 0.053355000913143158 -0.15891000628471375 0.025270000100135803
   vertex 0.055916998535394669 -0.15983100235462189 0.026272999122738838
  endloop
 endfacet
 facet normal 0.26129256644195503 -0.40597340732040216 -0.87573499831332502
  outer loop
   vertex 0.053355000913143158 -0.15891000628471375 0.025270000100135803
   vertex 0.055399000644683838 -0.16044400632381439 0.026590999215841293
   vertex 0.053566001355648041 -0.15991100668907166 0.025797000154852867
  endloop
 endfacet
 facet normal 0.16494360903455987 -0.83245977637207202 -0.52896533587865102
  outer loop
   vertex 0.052889000624418259 -0.16014300286769867 0.025950999930500984
   vertex 0.05097699910402298 -0.15955600142478943 0.024430999532341957
   vertex 0.053566001355648041 -0.15991100668907166 0.025797000154852867
  endloop
 endfacet
 facet normal 0.030878595663708652 -0.91874298109663999 -0.39364685571651176
  outer loop
   vertex 0.05097699910402298 -0.15955600142478943 0.024430999532341957
   vertex 0.052889000624418259 -0.16014300286769867 0.025950999930500984
   vertex 0.050276998430490494 -0.15998099744319916 0.025367999449372292
  endloop
 endfacet
 facet normal -0.064696294434219648 -0.99782571273256682 0.012579208887123015
  outer loop
   vertex 0.048893000930547714 -0.1598220020532608 0.030861999839544296
   vertex 0.050276998430490494 -0.15998099744319916 0.025367999449372292
   vertex 0.052889000624418259 -0.16014300286769867 0.025950999930500984
  endloop
 endfacet
 facet normal 0.065313299413743156 -0.98213448066999498 0.17648239231937571
  outer loop
   vertex 0.049300998449325562 -0.15964500606060028 0.031695999205112457
   vertex 0.047088000923395157 -0.16008399426937103 0.030071999877691269
   vertex 0.048893000930547714 -0.1598220020532608 0.030861999839544296
  endloop
 endfacet
 facet normal -0.14614126161819779 -0.9507710692989747 0.27327112075139931
  outer loop
   vertex 0.048893000930547714 -0.1598220020532608 0.030861999839544296
   vertex 0.050914999097585678 -0.15999799966812134 0.031330998986959457
   vertex 0.049300998449325562 -0.15964500606060028 0.031695999205112457
  endloop
 endfacet
 facet normal 0.12414584018255796 -0.99123939563240504 0.045080715518625067
  outer loop
   vertex 0.048893000930547714 -0.1598220020532608 0.030861999839544296
   vertex 0.047088000923395157 -0.16008399426937103 0.030071999877691269
   vertex 0.048466000705957413 -0.16017000377178192 0.024385999888181686
  endloop
 endfacet
 facet normal 0.077689184958160198 -0.99580263443412254 0.048389087556991735
  outer loop
   vertex 0.050276998430490494 -0.15998099744319916 0.025367999449372292
   vertex 0.048893000930547714 -0.1598220020532608 0.030861999839544296
   vertex 0.048466000705957413 -0.16017000377178192 0.024385999888181686
  endloop
 endfacet
 facet normal 0.14942818726452697 0.82128294138351876 -0.55060471033516711
  outer loop
   vertex 0.055916998535394669 -0.15983100235462189 0.026272999122738838
   vertex 0.0570949986577034 -0.15962900221347809 0.026893999427556992
   vertex 0.056926999241113663 -0.15987800061702728 0.026476999744772911
  endloop
 endfacet
 facet normal 0.18154132210104024 0.78047586291236226 -0.59824758735912187
  outer loop
   vertex 0.0570949986577034 -0.15962900221347809 0.026893999427556992
   vertex 0.055916998535394669 -0.15983100235462189 0.026272999122738838
   vertex 0.056024998426437378 -0.15925900638103485 0.027052000164985657
  endloop
 endfacet
 facet normal 0.49677557081616802 0.66526091668024168 -0.55735262175577405
  outer loop
   vertex 0.055916998535394669 -0.15983100235462189 0.026272999122738838
   vertex 0.055073998868465424 -0.15882700681686401 0.026720000430941582
   vertex 0.056024998426437378 -0.15925900638103485 0.027052000164985657
  endloop
 endfacet
 facet normal 0.46770953822573152 0.65630127442117703 -0.59204427625458211
  outer loop
   vertex 0.055916998535394669 -0.15983100235462189 0.026272999122738838
   vertex 0.053355000913143158 -0.15891000628471375 0.025270000100135803
   vertex 0.055073998868465424 -0.15882700681686401 0.026720000430941582
  endloop
 endfacet
 facet normal -0.19690022036011492 0.87465819361068842 -0.44294847056043157
  outer loop
   vertex 0.056926999241113663 -0.15987800061702728 0.026476999744772911
   vertex 0.0570949986577034 -0.15962900221347809 0.026893999427556992
   vertex 0.05772700160741806 -0.15966600179672241 0.02653999999165535
  endloop
 endfacet
 facet normal -0.06971102710000103 0.97162744272917279 -0.22600992287116706
  outer loop
   vertex 0.0570949986577034 -0.15962900221347809 0.026893999427556992
   vertex 0.058168999850749969 -0.15949100255966187 0.027155999094247818
   vertex 0.05772700160741806 -0.15966600179672241 0.02653999999165535
  endloop
 endfacet
 facet normal -0.19799460818971912 0.94390375868319654 0.26427983175326403
  outer loop
   vertex 0.058168999850749969 -0.15949100255966187 0.027155999094247818
   vertex 0.059866998344659805 -0.15968500077724457 0.029121000319719315
   vertex 0.058208998292684555 -0.15898899734020233 0.025392999872565269
  endloop
 endfacet
 facet normal -0.11129916524102422 0.99158994640293796 -0.066044485078389753
  outer loop
   vertex 0.058168999850749969 -0.15949100255966187 0.027155999094247818
   vertex 0.0570949986577034 -0.15962900221347809 0.026893999427556992
   vertex 0.057565998286008835 -0.15943999588489532 0.028937999159097672
  endloop
 endfacet
 facet normal 0.10531226183709992 0.99441333456860326 0.0071726939782263618
  outer loop
   vertex 0.057565998286008835 -0.15943999588489532 0.028937999159097672
   vertex 0.059866998344659805 -0.15968500077724457 0.029121000319719315
   vertex 0.058168999850749969 -0.15949100255966187 0.027155999094247818
  endloop
 endfacet
 facet normal 0.25849670041608946 0.96404125986036104 0.061675806933045252
  outer loop
   vertex 0.059866998344659805 -0.15968500077724457 0.029121000319719315
   vertex 0.05809900164604187 -0.15941399335861206 0.032294999808073044
   vertex 0.059523999691009521 -0.15979999303817749 0.032356001436710358
  endloop
 endfacet
 facet normal 0.095957974126202661 0.98850015006322789 0.11687395144586708
  outer loop
   vertex 0.057565998286008835 -0.15943999588489532 0.028937999159097672
   vertex 0.058037001639604568 -0.15973199903964996 0.031021000817418098
   vertex 0.059866998344659805 -0.15968500077724457 0.029121000319719315
  endloop
 endfacet
 facet normal -0.25513613546990471 0.94096599557322269 -0.22246021566198362
  outer loop
   vertex 0.058037001639604568 -0.15973199903964996 0.031021000817418098
   vertex 0.05809900164604187 -0.15941399335861206 0.032294999808073044
   vertex 0.059866998344659805 -0.15968500077724457 0.029121000319719315
  endloop
 endfacet
 facet normal 0.050127572334743832 -0.60615187888317656 0.79376767773588497
  outer loop
   vertex 0.050914999097585678 -0.15999799966812134 0.031330998986959457
   vertex 0.053752001374959946 -0.15965600311756134 0.031413000077009201
   vertex 0.051681999117136002 -0.15859100222587585 0.032356999814510345
  endloop
 endfacet
 facet normal 0.32400908237153697 -0.6663440629727535 0.67156809355546199
  outer loop
   vertex 0.050914999097585678 -0.15999799966812134 0.031330998986959457
   vertex 0.051681999117136002 -0.15859100222587585 0.032356999814510345
   vertex 0.049995999783277512 -0.15904900431632996 0.032715998589992523
  endloop
 endfacet
 facet normal -0.063182073703849623 -0.842333968766944 0.53523967586849397
  outer loop
   vertex 0.049300998449325562 -0.15964500606060028 0.031695999205112457
   vertex 0.050914999097585678 -0.15999799966812134 0.031330998986959457
   vertex 0.049995999783277512 -0.15904900431632996 0.032715998589992523
  endloop
 endfacet
 facet normal -0.24626915382481498 -0.85327343982082704 0.45964762674329446
  outer loop
   vertex 0.059431999921798706 -0.16033299267292023 0.032563000917434692
   vertex 0.05804000049829483 -0.1598999947309494 0.032620999962091446
   vertex 0.057659998536109924 -0.16012699902057648 0.031996000558137894
  endloop
 endfacet
 facet normal -0.86906733001962766 0.46857393530824099 0.15862043702595144
  outer loop
   vertex 0.05809900164604187 -0.15941399335861206 0.032294999808073044
   vertex 0.05764399841427803 -0.15993799269199371 0.031350001692771912
   vertex 0.057659998536109924 -0.16012699902057648 0.031996000558137894
  endloop
 endfacet
 facet normal -0.30967486819252227 -0.81768664008218295 0.4852731546676104
  outer loop
   vertex 0.057208999991416931 -0.15970100462436676 0.032425999641418457
   vertex 0.057659998536109924 -0.16012699902057648 0.031996000558137894
   vertex 0.05804000049829483 -0.1598999947309494 0.032620999962091446
  endloop
 endfacet
 facet normal -0.28497887221824814 0.51458954847142013 -0.80869316739613628
  outer loop
   vertex 0.05809900164604187 -0.15941399335861206 0.032294999808073044
   vertex 0.057659998536109924 -0.16012699902057648 0.031996000558137894
   vertex 0.057208999991416931 -0.15970100462436676 0.032425999641418457
  endloop
 endfacet
 facet normal -0.13267867813520473 0.9036143469245258 0.40728059173063641
  outer loop
   vertex 0.056908998638391495 -0.15988500416278839 0.030992999672889709
   vertex 0.05764399841427803 -0.15993799269199371 0.031350001692771912
   vertex 0.058037001639604568 -0.15973199903964996 0.031021000817418098
  endloop
 endfacet
 facet normal -0.56716174830437727 0.80515147386435115 -0.17337432161189617
  outer loop
   vertex 0.05809900164604187 -0.15941399335861206 0.032294999808073044
   vertex 0.058037001639604568 -0.15973199903964996 0.031021000817418098
   vertex 0.05764399841427803 -0.15993799269199371 0.031350001692771912
  endloop
 endfacet
 facet normal 0.22762573580310561 0.93409498937659108 0.2750510411208088
  outer loop
   vertex 0.055729001760482788 -0.1595579981803894 0.030858999118208885
   vertex 0.056908998638391495 -0.15988500416278839 0.030992999672889709
   vertex 0.057565998286008835 -0.15943999588489532 0.028937999159097672
  endloop
 endfacet
 facet normal -0.13659470740469568 0.97632041517155443 0.16775080574551338
  outer loop
   vertex 0.056908998638391495 -0.15988500416278839 0.030992999672889709
   vertex 0.058037001639604568 -0.15973199903964996 0.031021000817418098
   vertex 0.057565998286008835 -0.15943999588489532 0.028937999159097672
  endloop
 endfacet
 facet normal -0.005441804405387946 0.36229750636274843 0.93204662096278623
  outer loop
   vertex 0.056908998638391495 -0.15988500416278839 0.030992999672889709
   vertex 0.055729001760482788 -0.1595579981803894 0.030858999118208885
   vertex 0.055644001811742783 -0.16022300720214844 0.031116999685764313
  endloop
 endfacet
 facet normal -0.26505880515612457 0.96037027260804841 -0.086213509961898985
  outer loop
   vertex 0.056288000196218491 -0.16003799438476562 0.031198000535368919
   vertex 0.056908998638391495 -0.15988500416278839 0.030992999672889709
   vertex 0.055644001811742783 -0.16022300720214844 0.031116999685764313
  endloop
 endfacet
 facet normal 0.22447033083620563 0.25852980552423854 0.9395612860425252
  outer loop
   vertex 0.055644001811742783 -0.16022300720214844 0.031116999685764313
   vertex 0.054790999740362167 -0.15903900563716888 0.030995000153779984
   vertex 0.053752001374959946 -0.15965600311756134 0.031413000077009201
  endloop
 endfacet
 facet normal 0.30263600864046342 0.31086848507834797 0.90098403496358481
  outer loop
   vertex 0.055729001760482788 -0.1595579981803894 0.030858999118208885
   vertex 0.054790999740362167 -0.15903900563716888 0.030995000153779984
   vertex 0.055644001811742783 -0.16022300720214844 0.031116999685764313
  endloop
 endfacet
 facet normal 0.43262714703922012 -0.12349064478443562 0.89307547961828493
  outer loop
   vertex 0.054790999740362167 -0.15903900563716888 0.030995000153779984
   vertex 0.051534000784158707 -0.15737399458885193 0.032802999019622803
   vertex 0.053752001374959946 -0.15965600311756134 0.031413000077009201
  endloop
 endfacet
 facet normal 0.26141031161259576 -0.30394399784290005 0.9161237335414254
  outer loop
   vertex 0.053752001374959946 -0.15965600311756134 0.031413000077009201
   vertex 0.051534000784158707 -0.15737399458885193 0.032802999019622803
   vertex 0.051681999117136002 -0.15859100222587585 0.032356999814510345
  endloop
 endfacet
 facet normal 0.30414023362553838 0.29880168036724419 0.90455307975812782
  outer loop
   vertex 0.059431999921798706 -0.16033299267292023 0.032563000917434692
   vertex 0.059523999691009521 -0.15979999303817749 0.032356001436710358
   vertex 0.058809999376535416 -0.15982399880886078 0.032604001462459564
  endloop
 endfacet
 facet normal 0.026754388842456133 -0.047737046899922683 0.99850156586303918
  outer loop
   vertex 0.059431999921798706 -0.16033299267292023 0.032563000917434692
   vertex 0.058809999376535416 -0.15982399880886078 0.032604001462459564
   vertex 0.05804000049829483 -0.1598999947309494 0.032620999962091446
  endloop
 endfacet
 facet normal 0.18400385117820955 0.77486163016987208 0.60475783322093124
  outer loop
   vertex 0.059523999691009521 -0.15979999303817749 0.032356001436710358
   vertex 0.05809900164604187 -0.15941399335861206 0.032294999808073044
   vertex 0.058809999376535416 -0.15982399880886078 0.032604001462459564
  endloop
 endfacet
 facet normal 0.31949118415034627 -0.57325942467978752 -0.75451906222838983
  outer loop
   vertex 0.053566001355648041 -0.15991100668907166 0.025797000154852867
   vertex 0.05097699910402298 -0.15955600142478943 0.024430999532341957
   vertex 0.0516199991106987 -0.15827499330043793 0.023730000481009483
  endloop
 endfacet
 facet normal 0.57714917202368343 -0.28186108507009955 -0.76645493145747512
  outer loop
   vertex 0.053566001355648041 -0.15991100668907166 0.025797000154852867
   vertex 0.0516199991106987 -0.15827499330043793 0.023730000481009483
   vertex 0.053355000913143158 -0.15891000628471375 0.025270000100135803
  endloop
 endfacet
 facet normal 0.75310202852195862 0.31585352100648378 -0.57712553911945175
  outer loop
   vertex 0.053506001830101013 -0.15799100697040558 0.025970000773668289
   vertex 0.053355000913143158 -0.15891000628471375 0.025270000100135803
   vertex 0.052896000444889069 -0.1581919938325882 0.025064000859856606
  endloop
 endfacet
 facet normal 0.69228198598682344 0.24814067668160344 -0.67762220776339344
  outer loop
   vertex 0.052896000444889069 -0.1581919938325882 0.025064000859856606
   vertex 0.053355000913143158 -0.15891000628471375 0.025270000100135803
   vertex 0.0516199991106987 -0.15827499330043793 0.023730000481009483
  endloop
 endfacet
 facet normal 0.56715871772092663 0.43805713048217793 -0.69745031317426076
  outer loop
   vertex 0.055073998868465424 -0.15882700681686401 0.026720000430941582
   vertex 0.053355000913143158 -0.15891000628471375 0.025270000100135803
   vertex 0.053506001830101013 -0.15799100697040558 0.025970000773668289
  endloop
 endfacet
 facet normal 0.2341621678161806 -0.93921929783771663 -0.25106809779988648
  outer loop
   vertex 0.05097699910402298 -0.15955600142478943 0.024430999532341957
   vertex 0.050276998430490494 -0.15998099744319916 0.025367999449372292
   vertex 0.048466000705957413 -0.16017000377178192 0.024385999888181686
  endloop
 endfacet
 facet normal 0.23719866931154232 -0.95840372181290656 -0.15874223537547424
  outer loop
   vertex 0.05097699910402298 -0.15955600142478943 0.024430999532341957
   vertex 0.048466000705957413 -0.16017000377178192 0.024385999888181686
   vertex 0.04884599894285202 -0.15990999341011047 0.023383999243378639
  endloop
 endfacet
 facet normal 0.42932562990724604 -0.74481517234054273 -0.51081294282356793
  outer loop
   vertex 0.05097699910402298 -0.15955600142478943 0.024430999532341957
   vertex 0.049134001135826111 -0.15942500531673431 0.022691000252962112
   vertex 0.049561001360416412 -0.1589210033416748 0.022314999252557755
  endloop
 endfacet
 facet normal 0.3512341469101416 -0.82938189169895182 -0.43446547822142717
  outer loop
   vertex 0.05097699910402298 -0.15955600142478943 0.024430999532341957
   vertex 0.04884599894285202 -0.15990999341011047 0.023383999243378639
   vertex 0.049134001135826111 -0.15942500531673431 0.022691000252962112
  endloop
 endfacet
 facet normal 0.573435214471258 -0.59563897237328756 -0.56248223918128859
  outer loop
   vertex 0.0516199991106987 -0.15827499330043793 0.023730000481009483
   vertex 0.05097699910402298 -0.15955600142478943 0.024430999532341957
   vertex 0.049561001360416412 -0.1589210033416748 0.022314999252557755
  endloop
 endfacet
 facet normal -0.025430885224005245 -0.95577063864307765 0.29301152943958886
  outer loop
   vertex 0.047088000923395157 -0.16008399426937103 0.030071999877691269
   vertex 0.049300998449325562 -0.15964500606060028 0.031695999205112457
   vertex 0.046943001449108124 -0.15952800214290619 0.031872998923063278
  endloop
 endfacet
 facet normal -0.0047228478722244763 -0.86199476458219848 0.5068951770739748
  outer loop
   vertex 0.046943001449108124 -0.15952800214290619 0.031872998923063278
   vertex 0.049300998449325562 -0.15964500606060028 0.031695999205112457
   vertex 0.049995999783277512 -0.15904900431632996 0.032715998589992523
  endloop
 endfacet
 facet normal -0.10757639408189712 -0.95236766931879158 0.28534740558243904
  outer loop
   vertex 0.046943001449108124 -0.15952800214290619 0.031872998923063278
   vertex 0.04593300074338913 -0.15989300608634949 0.030274000018835068
   vertex 0.047088000923395157 -0.16008399426937103 0.030071999877691269
  endloop
 endfacet
 facet normal -0.16543339986024858 -0.98612789431148007 -0.013548663088486382
  outer loop
   vertex 0.046038001775741577 -0.15986500680446625 0.026954000815749168
   vertex 0.047088000923395157 -0.16008399426937103 0.030071999877691269
   vertex 0.04593300074338913 -0.15989300608634949 0.030274000018835068
  endloop
 endfacet
 facet normal -0.10204840630313455 -0.99414733315212711 -0.035457055116071313
  outer loop
   vertex 0.047704998403787613 -0.15994399785995483 0.02437100000679493
   vertex 0.047088000923395157 -0.16008399426937103 0.030071999877691269
   vertex 0.046038001775741577 -0.15986500680446625 0.026954000815749168
  endloop
 endfacet
 facet normal -0.28329533967387627 -0.95750146494349864 -0.054172826676452721
  outer loop
   vertex 0.047704998403787613 -0.15994399785995483 0.02437100000679493
   vertex 0.048466000705957413 -0.16017000377178192 0.024385999888181686
   vertex 0.047088000923395157 -0.16008399426937103 0.030071999877691269
  endloop
 endfacet
 facet normal -0.26224780661846048 -0.9052260504822508 -0.33435293546208344
  outer loop
   vertex 0.04884599894285202 -0.15990999341011047 0.023383999243378639
   vertex 0.048466000705957413 -0.16017000377178192 0.024385999888181686
   vertex 0.047704998403787613 -0.15994399785995483 0.02437100000679493
  endloop
 endfacet
 facet normal 0.48841459378065294 0.87236670410249983 0.020676512167699789
  outer loop
   vertex 0.053913000971078873 -0.157927006483078 0.03024899959564209
   vertex 0.055723000317811966 -0.15892399847507477 0.029557999223470688
   vertex 0.0570949986577034 -0.15962900221347809 0.026893999427556992
  endloop
 endfacet
 facet normal 0.29466941030953581 0.93547267087984487 -0.19509182623769747
  outer loop
   vertex 0.056024998426437378 -0.15925900638103485 0.027052000164985657
   vertex 0.053913000971078873 -0.157927006483078 0.03024899959564209
   vertex 0.0570949986577034 -0.15962900221347809 0.026893999427556992
  endloop
 endfacet
 facet normal 0.22280760476761793 0.9646782161009011 -0.14054433691223614
  outer loop
   vertex 0.055723000317811966 -0.15892399847507477 0.029557999223470688
   vertex 0.057565998286008835 -0.15943999588489532 0.028937999159097672
   vertex 0.0570949986577034 -0.15962900221347809 0.026893999427556992
  endloop
 endfacet
 facet normal 0.43649339521550273 0.8956994673228954 -0.084829123364116216
  outer loop
   vertex 0.056024998426437378 -0.15925900638103485 0.027052000164985657
   vertex 0.055073998868465424 -0.15882700681686401 0.026720000430941582
   vertex 0.053913000971078873 -0.157927006483078 0.03024899959564209
  endloop
 endfacet
 facet normal 0.58529216223026137 0.81069815241073684 -0.014198257274865685
  outer loop
   vertex 0.053913000971078873 -0.157927006483078 0.03024899959564209
   vertex 0.055073998868465424 -0.15882700681686401 0.026720000430941582
   vertex 0.050207998603582382 -0.15531599521636963 0.026603000238537788
  endloop
 endfacet
 facet normal 0.55988093823290497 0.76537684635596781 -0.31738244763319123
  outer loop
   vertex 0.050207998603582382 -0.15531599521636963 0.026603000238537788
   vertex 0.055073998868465424 -0.15882700681686401 0.026720000430941582
   vertex 0.053506001830101013 -0.15799100697040558 0.025970000773668289
  endloop
 endfacet
 facet normal 0.37039392533423743 0.83567541371583753 0.40553044643572589
  outer loop
   vertex 0.057565998286008835 -0.15943999588489532 0.028937999159097672
   vertex 0.055723000317811966 -0.15892399847507477 0.029557999223470688
   vertex 0.055729001760482788 -0.1595579981803894 0.030858999118208885
  endloop
 endfacet
 facet normal -0.051542513619066262 0.5425245998122864 0.83845717117116192
  outer loop
   vertex 0.058809999376535416 -0.15982399880886078 0.032604001462459564
   vertex 0.05809900164604187 -0.15941399335861206 0.032294999808073044
   vertex 0.057208999991416931 -0.15970100462436676 0.032425999641418457
  endloop
 endfacet
 facet normal 0.27611109740570933 -0.30093731176147009 0.91279756588150185
  outer loop
   vertex 0.051534000784158707 -0.15737399458885193 0.032802999019622803
   vertex 0.049995999783277512 -0.15904900431632996 0.032715998589992523
   vertex 0.051681999117136002 -0.15859100222587585 0.032356999814510345
  endloop
 endfacet
 facet normal 0.17245196472738869 -0.67638382061980407 0.71607628578624216
  outer loop
   vertex 0.047919001430273056 -0.15886500477790833 0.033390000462532043
   vertex 0.049995999783277512 -0.15904900431632996 0.032715998589992523
   vertex 0.049125999212265015 -0.15790300071239471 0.034008000046014786
  endloop
 endfacet
 facet normal 0.040733074198298018 -0.92490217668132302 0.37801690469674332
  outer loop
   vertex 0.049995999783277512 -0.15904900431632996 0.032715998589992523
   vertex 0.047919001430273056 -0.15886500477790833 0.033390000462532043
   vertex 0.046943001449108124 -0.15952800214290619 0.031872998923063278
  endloop
 endfacet
 facet normal 0.47505975063285238 -0.4746864418263661 0.74093927907411949
  outer loop
   vertex 0.049125999212265015 -0.15790300071239471 0.034008000046014786
   vertex 0.049995999783277512 -0.15904900431632996 0.032715998589992523
   vertex 0.051534000784158707 -0.15737399458885193 0.032802999019622803
  endloop
 endfacet
 facet normal -0.042060495763691814 0.60415361349836505 0.79575707724969724
  outer loop
   vertex 0.058809999376535416 -0.15982399880886078 0.032604001462459564
   vertex 0.057208999991416931 -0.15970100462436676 0.032425999641418457
   vertex 0.05804000049829483 -0.1598999947309494 0.032620999962091446
  endloop
 endfacet
 facet normal 0.48937013991865147 0.78483197513938374 0.38020473031619867
  outer loop
   vertex 0.055723000317811966 -0.15892399847507477 0.029557999223470688
   vertex 0.054790999740362167 -0.15903900563716888 0.030995000153779984
   vertex 0.055729001760482788 -0.1595579981803894 0.030858999118208885
  endloop
 endfacet
 facet normal 0.55550665214829598 0.71891302338538576 0.41782343666419164
  outer loop
   vertex 0.054790999740362167 -0.15903900563716888 0.030995000153779984
   vertex 0.055723000317811966 -0.15892399847507477 0.029557999223470688
   vertex 0.053913000971078873 -0.157927006483078 0.03024899959564209
  endloop
 endfacet
 facet normal 0.69318831773864831 0.68908323938320581 0.21131551138477769
  outer loop
   vertex 0.054790999740362167 -0.15903900563716888 0.030995000153779984
   vertex 0.053913000971078873 -0.157927006483078 0.03024899959564209
   vertex 0.050661001354455948 -0.15548300743103027 0.032947000116109848
  endloop
 endfacet
 facet normal 0.46696907942500759 -0.045484134116606963 0.88310309273868115
  outer loop
   vertex 0.054790999740362167 -0.15903900563716888 0.030995000153779984
   vertex 0.050354000180959702 -0.15581999719142914 0.033507000654935837
   vertex 0.051534000784158707 -0.15737399458885193 0.032802999019622803
  endloop
 endfacet
 facet normal 0.6597833639101327 0.42676162200596451 0.61851469723060581
  outer loop
   vertex 0.054790999740362167 -0.15903900563716888 0.030995000153779984
   vertex 0.050661001354455948 -0.15548300743103027 0.032947000116109848
   vertex 0.050354000180959702 -0.15581999719142914 0.033507000654935837
  endloop
 endfacet
 facet normal 0.45655831241739298 -0.055587523871858315 0.88795525481432769
  outer loop
   vertex 0.050354000180959702 -0.15581999719142914 0.033507000654935837
   vertex 0.049125999212265015 -0.15790300071239471 0.034008000046014786
   vertex 0.051534000784158707 -0.15737399458885193 0.032802999019622803
  endloop
 endfacet
 facet normal 0.60184978381524679 -0.38151865210565233 -0.70158417585990829
  outer loop
   vertex 0.0516199991106987 -0.15827499330043793 0.023730000481009483
   vertex 0.049561001360416412 -0.1589210033416748 0.022314999252557755
   vertex 0.050526000559329987 -0.15765799582004547 0.022455999627709389
  endloop
 endfacet
 facet normal 0.72222704627404122 0.011734532806485651 -0.69155650121308765
  outer loop
   vertex 0.052896000444889069 -0.1581919938325882 0.025064000859856606
   vertex 0.0516199991106987 -0.15827499330043793 0.023730000481009483
   vertex 0.05153999850153923 -0.15706400573253632 0.023667000234127045
  endloop
 endfacet
 facet normal 0.76255291298399974 0.016731668763903463 -0.64670944492870341
  outer loop
   vertex 0.05153999850153923 -0.15706400573253632 0.023667000234127045
   vertex 0.0516199991106987 -0.15827499330043793 0.023730000481009483
   vertex 0.050526000559329987 -0.15765799582004547 0.022455999627709389
  endloop
 endfacet
 facet normal 0.7839349381424654 0.22648176867642109 -0.57805883888819565
  outer loop
   vertex 0.053506001830101013 -0.15799100697040558 0.025970000773668289
   vertex 0.052896000444889069 -0.1581919938325882 0.025064000859856606
   vertex 0.05153999850153923 -0.15706400573253632 0.023667000234127045
  endloop
 endfacet
 facet normal 0.59518711615784914 0.77976221305719273 -0.19422458095681913
  outer loop
   vertex 0.050207998603582382 -0.15531599521636963 0.026603000238537788
   vertex 0.053506001830101013 -0.15799100697040558 0.025970000773668289
   vertex 0.05153999850153923 -0.15706400573253632 0.023667000234127045
  endloop
 endfacet
 facet normal -0.30780995186815352 -0.71467854776441586 -0.62808248415018753
  outer loop
   vertex 0.04884599894285202 -0.15990999341011047 0.023383999243378639
   vertex 0.048340000212192535 -0.15964899957180023 0.02333500050008297
   vertex 0.049134001135826111 -0.15942500531673431 0.022691000252962112
  endloop
 endfacet
 facet normal -0.37208734412405065 -0.80735670112725666 -0.45795869408454726
  outer loop
   vertex 0.048340000212192535 -0.15964899957180023 0.02333500050008297
   vertex 0.04884599894285202 -0.15990999341011047 0.023383999243378639
   vertex 0.047704998403787613 -0.15994399785995483 0.02437100000679493
  endloop
 endfacet
 facet normal -0.53849585786347731 -0.16084372166806823 -0.82713451642634439
  outer loop
   vertex 0.048836998641490936 -0.15772099792957306 0.022553000599145889
   vertex 0.049561001360416412 -0.1589210033416748 0.022314999252557755
   vertex 0.049134001135826111 -0.15942500531673431 0.022691000252962112
  endloop
 endfacet
 facet normal -0.62043466060011387 -0.050789329906058507 -0.78261182964079634
  outer loop
   vertex 0.049134001135826111 -0.15942500531673431 0.022691000252962112
   vertex 0.048340000212192535 -0.15964899957180023 0.02333500050008297
   vertex 0.047995001077651978 -0.1593330055475235 0.023587999865412712
  endloop
 endfacet
 facet normal -0.61814305109880263 -0.16989529058398467 -0.7674859989704349
  outer loop
   vertex 0.049134001135826111 -0.15942500531673431 0.022691000252962112
   vertex 0.047995001077651978 -0.1593330055475235 0.023587999865412712
   vertex 0.048836998641490936 -0.15772099792957306 0.022553000599145889
  endloop
 endfacet
 facet normal 0.27404546894640675 -0.10263249921702716 -0.95622468649079073
  outer loop
   vertex 0.049805000424385071 -0.15740300714969635 0.022221999242901802
   vertex 0.050526000559329987 -0.15765799582004547 0.022455999627709389
   vertex 0.049561001360416412 -0.1589210033416748 0.022314999252557755
  endloop
 endfacet
 facet normal -0.32169037900857489 -0.0062994139326931287 -0.94682396327798124
  outer loop
   vertex 0.049805000424385071 -0.15740300714969635 0.022221999242901802
   vertex 0.049561001360416412 -0.1589210033416748 0.022314999252557755
   vertex 0.048836998641490936 -0.15772099792957306 0.022553000599145889
  endloop
 endfacet
 facet normal -0.56070893887442974 0.81055271586385225 0.16914425994412094
  outer loop
   vertex 0.046943001449108124 -0.15952800214290619 0.031872998923063278
   vertex 0.047463998198509216 -0.15842700004577637 0.028324000537395477
   vertex 0.04593300074338913 -0.15989300608634949 0.030274000018835068
  endloop
 endfacet
 facet normal -0.8454392822413852 0.53403141988945102 0.0065469545613401287
  outer loop
   vertex 0.04812299832701683 -0.15761600434780121 0.028291000053286552
   vertex 0.046943001449108124 -0.15952800214290619 0.031872998923063278
   vertex 0.048987001180648804 -0.15626600384712219 0.02974499948322773
  endloop
 endfacet
 facet normal -0.84946393183907187 0.35284743552524139 0.39231328775325119
  outer loop
   vertex 0.048188000917434692 -0.1576170027256012 0.032850001007318497
   vertex 0.046943001449108124 -0.15952800214290619 0.031872998923063278
   vertex 0.047919001430273056 -0.15886500477790833 0.033390000462532043
  endloop
 endfacet
 facet normal -0.84192109106306345 0.53930026312636548 0.018002850191392628
  outer loop
   vertex 0.046943001449108124 -0.15952800214290619 0.031872998923063278
   vertex 0.048188000917434692 -0.1576170027256012 0.032850001007318497
   vertex 0.048987001180648804 -0.15626600384712219 0.02974499948322773
  endloop
 endfacet
 facet normal -0.77180867931631558 0.63050633518222488 0.082298990437821198
  outer loop
   vertex 0.04812299832701683 -0.15761600434780121 0.028291000053286552
   vertex 0.047463998198509216 -0.15842700004577637 0.028324000537395477
   vertex 0.046943001449108124 -0.15952800214290619 0.031872998923063278
  endloop
 endfacet
 facet normal -0.70221046106721408 0.71178496704944216 -0.016205833832148575
  outer loop
   vertex 0.04593300074338913 -0.15989300608634949 0.030274000018835068
   vertex 0.047463998198509216 -0.15842700004577637 0.028324000537395477
   vertex 0.046038001775741577 -0.15986500680446625 0.026954000815749168
  endloop
 endfacet
 facet normal -0.81157896796222251 -0.27522753558956264 -0.51535364791050975
  outer loop
   vertex 0.047704998403787613 -0.15994399785995483 0.02437100000679493
   vertex 0.046038001775741577 -0.15986500680446625 0.026954000815749168
   vertex 0.047995001077651978 -0.1593330055475235 0.023587999865412712
  endloop
 endfacet
 facet normal -0.71160926514384004 0.62828864835358134 -0.3144290509979536
  outer loop
   vertex 0.046038001775741577 -0.15986500680446625 0.026954000815749168
   vertex 0.048280000686645508 -0.15823100507259369 0.025144999846816063
   vertex 0.047995001077651978 -0.1593330055475235 0.023587999865412712
  endloop
 endfacet
 facet normal -0.76589455615079904 0.62796950815169184 0.13805732755016215
  outer loop
   vertex 0.04812299832701683 -0.15761600434780121 0.028291000053286552
   vertex 0.046038001775741577 -0.15986500680446625 0.026954000815749168
   vertex 0.047463998198509216 -0.15842700004577637 0.028324000537395477
  endloop
 endfacet
 facet normal -0.66810596913261011 0.72325928848401533 -0.17472954996500048
  outer loop
   vertex 0.04812299832701683 -0.15761600434780121 0.028291000053286552
   vertex 0.048280000686645508 -0.15823100507259369 0.025144999846816063
   vertex 0.046038001775741577 -0.15986500680446625 0.026954000815749168
  endloop
 endfacet
 facet normal -0.74421238640057852 -0.36426031510838092 -0.55987708183591411
  outer loop
   vertex 0.048340000212192535 -0.15964899957180023 0.02333500050008297
   vertex 0.047704998403787613 -0.15994399785995483 0.02437100000679493
   vertex 0.047995001077651978 -0.1593330055475235 0.023587999865412712
  endloop
 endfacet
 facet normal 0.73407702271412234 0.57096797918299025 0.36759555420443069
  outer loop
   vertex 0.05087599903345108 -0.15528300404548645 0.032207001000642776
   vertex 0.050661001354455948 -0.15548300743103027 0.032947000116109848
   vertex 0.053913000971078873 -0.157927006483078 0.03024899959564209
  endloop
 endfacet
 facet normal 0.62507524976840922 0.77654821717635869 -0.079080961850370932
  outer loop
   vertex 0.050207998603582382 -0.15531599521636963 0.026603000238537788
   vertex 0.05087599903345108 -0.15528300404548645 0.032207001000642776
   vertex 0.053913000971078873 -0.157927006483078 0.03024899959564209
  endloop
 endfacet
 facet normal 0.21054547429394269 0.97709718959874736 -0.030849397604623265
  outer loop
   vertex 0.05087599903345108 -0.15528300404548645 0.032207001000642776
   vertex 0.050207998603582382 -0.15531599521636963 0.026603000238537788
   vertex 0.048719000071287155 -0.15491299331188202 0.029205000028014183
  endloop
 endfacet
 facet normal 0.092932383545464764 0.99061299498867472 -0.10024702613108465
  outer loop
   vertex 0.049047999083995819 -0.15538699924945831 0.024825999513268471
   vertex 0.048719000071287155 -0.15491299331188202 0.029205000028014183
   vertex 0.050207998603582382 -0.15531599521636963 0.026603000238537788
  endloop
 endfacet
 facet normal 0.31640879366800378 0.91692241658506024 -0.24318461557707932
  outer loop
   vertex 0.050379998981952667 -0.1561100035905838 0.023832999169826508
   vertex 0.049047999083995819 -0.15538699924945831 0.024825999513268471
   vertex 0.050207998603582382 -0.15531599521636963 0.026603000238537788
  endloop
 endfacet
 facet normal 0.60861415470333091 0.77195931530230577 -0.18348740069210481
  outer loop
   vertex 0.05153999850153923 -0.15706400573253632 0.023667000234127045
   vertex 0.050379998981952667 -0.1561100035905838 0.023832999169826508
   vertex 0.050207998603582382 -0.15531599521636963 0.026603000238537788
  endloop
 endfacet
 facet normal -0.24298116191566035 -0.2898296674342945 0.92572075639959706
  outer loop
   vertex 0.049125999212265015 -0.15790300071239471 0.034008000046014786
   vertex 0.048266999423503876 -0.15753099322319031 0.033899001777172089
   vertex 0.047919001430273056 -0.15886500477790833 0.033390000462532043
  endloop
 endfacet
 facet normal -0.97104783730263955 0.23269029062221278 0.054049295277706605
  outer loop
   vertex 0.048188000917434692 -0.1576170027256012 0.032850001007318497
   vertex 0.047919001430273056 -0.15886500477790833 0.033390000462532043
   vertex 0.048266999423503876 -0.15753099322319031 0.033899001777172089
  endloop
 endfacet
 facet normal -0.092440067334568471 0.077409974963736208 0.99270465382574602
  outer loop
   vertex 0.048266999423503876 -0.15753099322319031 0.033899001777172089
   vertex 0.049125999212265015 -0.15790300071239471 0.034008000046014786
   vertex 0.048399001359939575 -0.15645000338554382 0.033826999366283417
  endloop
 endfacet
 facet normal 0.13837142887209919 0.19030639860485046 0.97192428836918421
  outer loop
   vertex 0.048399001359939575 -0.15645000338554382 0.033826999366283417
   vertex 0.049125999212265015 -0.15790300071239471 0.034008000046014786
   vertex 0.048702001571655273 -0.15593999624252319 0.033684000372886658
  endloop
 endfacet
 facet normal 0.091727441689628403 0.18141900772966638 0.97911859346835972
  outer loop
   vertex 0.049125999212265015 -0.15790300071239471 0.034008000046014786
   vertex 0.050354000180959702 -0.15581999719142914 0.033507000654935837
   vertex 0.048702001571655273 -0.15593999624252319 0.033684000372886658
  endloop
 endfacet
 facet normal 0.24063607976452348 0.76770774591758728 0.59390158610134991
  outer loop
   vertex 0.050096999853849411 -0.15530699491500854 0.032947998493909836
   vertex 0.050354000180959702 -0.15581999719142914 0.033507000654935837
   vertex 0.050661001354455948 -0.15548300743103027 0.032947000116109848
  endloop
 endfacet
 facet normal 0.21724241577844167 0.92457180608432266 0.31300592355532225
  outer loop
   vertex 0.049300998449325562 -0.15489600598812103 0.032157000154256821
   vertex 0.050661001354455948 -0.15548300743103027 0.032947000116109848
   vertex 0.05087599903345108 -0.15528300404548645 0.032207001000642776
  endloop
 endfacet
 facet normal 0.29266500305981824 0.93670403348464371 0.19217895211910199
  outer loop
   vertex 0.049300998449325562 -0.15489600598812103 0.032157000154256821
   vertex 0.050096999853849411 -0.15530699491500854 0.032947998493909836
   vertex 0.050661001354455948 -0.15548300743103027 0.032947000116109848
  endloop
 endfacet
 facet normal 0.14451681562879709 0.76124238855546555 0.63215893244253207
  outer loop
   vertex 0.050354000180959702 -0.15581999719142914 0.033507000654935837
   vertex 0.050096999853849411 -0.15530699491500854 0.032947998493909836
   vertex 0.049139000475406647 -0.15549300611019135 0.033390998840332031
  endloop
 endfacet
 facet normal 0.055036569880991058 0.50919487451073242 0.85888972269304409
  outer loop
   vertex 0.048702001571655273 -0.15593999624252319 0.033684000372886658
   vertex 0.050354000180959702 -0.15581999719142914 0.033507000654935837
   vertex 0.049139000475406647 -0.15549300611019135 0.033390998840332031
  endloop
 endfacet
 facet normal 0.7019249510990988 0.19712841399355677 -0.68442804692744186
  outer loop
   vertex 0.051050998270511627 -0.15684700012207031 0.023228000849485397
   vertex 0.05153999850153923 -0.15706400573253632 0.023667000234127045
   vertex 0.050526000559329987 -0.15765799582004547 0.022455999627709389
  endloop
 endfacet
 facet normal 0.34747808449107931 0.51867505972068917 -0.78117550091010268
  outer loop
   vertex 0.050526000559329987 -0.15765799582004547 0.022455999627709389
   vertex 0.049922998994588852 -0.1563819944858551 0.023034999147057533
   vertex 0.051050998270511627 -0.15684700012207031 0.023228000849485397
  endloop
 endfacet
 facet normal 0.42580027436452672 0.53299696135632535 -0.73116917709653051
  outer loop
   vertex 0.049922998994588852 -0.1563819944858551 0.023034999147057533
   vertex 0.050526000559329987 -0.15765799582004547 0.022455999627709389
   vertex 0.049805000424385071 -0.15740300714969635 0.022221999242901802
  endloop
 endfacet
 facet normal 0.58640661769334557 0.76121313940687252 -0.27691485175010705
  outer loop
   vertex 0.051050998270511627 -0.15684700012207031 0.023228000849485397
   vertex 0.050379998981952667 -0.1561100035905838 0.023832999169826508
   vertex 0.05153999850153923 -0.15706400573253632 0.023667000234127045
  endloop
 endfacet
 facet normal -0.37598397203086392 0.20356315851582099 -0.90399009578145118
  outer loop
   vertex 0.049805000424385071 -0.15740300714969635 0.022221999242901802
   vertex 0.048836998641490936 -0.15772099792957306 0.022553000599145889
   vertex 0.048799000680446625 -0.15705400705337524 0.022718999534845352
  endloop
 endfacet
 facet normal -0.91454638286847378 0.31395044748480117 -0.255029469093836
  outer loop
   vertex 0.048489999026060104 -0.15760999917984009 0.023933999240398407
   vertex 0.048836998641490936 -0.15772099792957306 0.022553000599145889
   vertex 0.047995001077651978 -0.1593330055475235 0.023587999865412712
  endloop
 endfacet
 facet normal -0.96973322858062905 0.0055071903658990501 -0.24410476488766708
  outer loop
   vertex 0.048489999026060104 -0.15760999917984009 0.023933999240398407
   vertex 0.048799000680446625 -0.15705400705337524 0.022718999534845352
   vertex 0.048836998641490936 -0.15772099792957306 0.022553000599145889
  endloop
 endfacet
 facet normal -0.95965715365485216 0.280255216956662 -0.022697154174959717
  outer loop
   vertex 0.047995001077651978 -0.1593330055475235 0.023587999865412712
   vertex 0.048280000686645508 -0.15823100507259369 0.025144999846816063
   vertex 0.048489999026060104 -0.15760999917984009 0.023933999240398407
  endloop
 endfacet
 facet normal -0.15980487072931876 0.62614460581189524 -0.76315485709248543
  outer loop
   vertex 0.048799000680446625 -0.15705400705337524 0.022718999534845352
   vertex 0.049922998994588852 -0.1563819944858551 0.023034999147057533
   vertex 0.049805000424385071 -0.15740300714969635 0.022221999242901802
  endloop
 endfacet
 facet normal -0.83047667127912261 0.55656724020134096 -0.023268124028613342
  outer loop
   vertex 0.048478998243808746 -0.15708300471305847 0.028333999216556549
   vertex 0.04812299832701683 -0.15761600434780121 0.028291000053286552
   vertex 0.048987001180648804 -0.15626600384712219 0.02974499948322773
  endloop
 endfacet
 facet normal -0.88507723420840723 0.44649540179797748 -0.13145396783383481
  outer loop
   vertex 0.048902999609708786 -0.1563660055398941 0.027285000309348106
   vertex 0.048280000686645508 -0.15823100507259369 0.025144999846816063
   vertex 0.04812299832701683 -0.15761600434780121 0.028291000053286552
  endloop
 endfacet
 facet normal -0.74975016097910108 0.63021505706399183 0.20175152530189633
  outer loop
   vertex 0.048902999609708786 -0.1563660055398941 0.027285000309348106
   vertex 0.04812299832701683 -0.15761600434780121 0.028291000053286552
   vertex 0.048820998519659042 -0.15665499866008759 0.027883000671863556
  endloop
 endfacet
 facet normal -0.82421925061467205 0.55819731988241061 -0.095280527875752113
  outer loop
   vertex 0.048478998243808746 -0.15708300471305847 0.028333999216556549
   vertex 0.048820998519659042 -0.15665499866008759 0.027883000671863556
   vertex 0.04812299832701683 -0.15761600434780121 0.028291000053286552
  endloop
 endfacet
 facet normal -0.95461615048071435 -0.25227515864771366 -0.15832008580926452
  outer loop
   vertex 0.048987001180648804 -0.15626600384712219 0.02974499948322773
   vertex 0.048367999494075775 -0.1554969996213913 0.032251998782157898
   vertex 0.048719000071287155 -0.15491299331188202 0.029205000028014183
  endloop
 endfacet
 facet normal -0.84159161390890047 0.54002747042873367 -0.0096895087881332265
  outer loop
   vertex 0.048478998243808746 -0.15708300471305847 0.028333999216556549
   vertex 0.048987001180648804 -0.15626600384712219 0.02974499948322773
   vertex 0.048790998756885529 -0.15659099817276001 0.028656000271439552
  endloop
 endfacet
 facet normal -0.9697742355757909 0.013618141817196521 -0.24362364053358418
  outer loop
   vertex 0.048367999494075775 -0.1554969996213913 0.032251998782157898
   vertex 0.048987001180648804 -0.15626600384712219 0.02974499948322773
   vertex 0.048188000917434692 -0.1576170027256012 0.032850001007318497
  endloop
 endfacet
 facet normal -0.97066589844193751 -0.10617098218133782 0.21572073647323828
  outer loop
   vertex 0.048987001180648804 -0.15626600384712219 0.02974499948322773
   vertex 0.048719000071287155 -0.15491299331188202 0.029205000028014183
   vertex 0.048620998859405518 -0.15593099594116211 0.028263000771403313
  endloop
 endfacet
 facet normal -0.96951507467821507 -0.12381552893561144 0.2114479481245676
  outer loop
   vertex 0.048620998859405518 -0.15593099594116211 0.028263000771403313
   vertex 0.048790998756885529 -0.15659099817276001 0.028656000271439552
   vertex 0.048987001180648804 -0.15626600384712219 0.02974499948322773
  endloop
 endfacet
 facet normal -0.99004859635411335 0.12517947721203199 0.064295220212486751
  outer loop
   vertex 0.048399001359939575 -0.15645000338554382 0.033826999366283417
   vertex 0.048188000917434692 -0.1576170027256012 0.032850001007318497
   vertex 0.048266999423503876 -0.15753099322319031 0.033899001777172089
  endloop
 endfacet
 facet normal -0.99051733878854331 0.10803946956594507 0.08486975064869301
  outer loop
   vertex 0.048188000917434692 -0.1576170027256012 0.032850001007318497
   vertex 0.048399001359939575 -0.15645000338554382 0.033826999366283417
   vertex 0.048367999494075775 -0.1554969996213913 0.032251998782157898
  endloop
 endfacet
 facet normal -0.9480443443905765 0.31813572294368359 -0.0012581161081937592
  outer loop
   vertex 0.048489999026060104 -0.15760999917984009 0.023933999240398407
   vertex 0.048280000686645508 -0.15823100507259369 0.025144999846816063
   vertex 0.048902999609708786 -0.1563660055398941 0.027285000309348106
  endloop
 endfacet
 facet normal 0.23986413973665222 0.96936583837442103 -0.052868382432713905
  outer loop
   vertex 0.05087599903345108 -0.15528300404548645 0.032207001000642776
   vertex 0.048719000071287155 -0.15491299331188202 0.029205000028014183
   vertex 0.049300998449325562 -0.15489600598812103 0.032157000154256821
  endloop
 endfacet
 facet normal -0.53160152754297563 0.84107451834056091 0.099967347229824768
  outer loop
   vertex 0.048367999494075775 -0.1554969996213913 0.032251998782157898
   vertex 0.049300998449325562 -0.15489600598812103 0.032157000154256821
   vertex 0.048719000071287155 -0.15491299331188202 0.029205000028014183
  endloop
 endfacet
 facet normal -0.2898480709109485 0.94894104401479351 -0.12449494276200829
  outer loop
   vertex 0.048719000071287155 -0.15491299331188202 0.029205000028014183
   vertex 0.049047999083995819 -0.15538699924945831 0.024825999513268471
   vertex 0.048383999615907669 -0.15529200434684753 0.02709599956870079
  endloop
 endfacet
 facet normal -0.98412411843200231 -0.059866213680977269 0.16708008852025966
  outer loop
   vertex 0.048383999615907669 -0.15529200434684753 0.02709599956870079
   vertex 0.048620998859405518 -0.15593099594116211 0.028263000771403313
   vertex 0.048719000071287155 -0.15491299331188202 0.029205000028014183
  endloop
 endfacet
 facet normal 0.34622621672182763 0.91602754245263884 -0.20253628890317188
  outer loop
   vertex 0.049047999083995819 -0.15538699924945831 0.024825999513268471
   vertex 0.050379998981952667 -0.1561100035905838 0.023832999169826508
   vertex 0.049775000661611557 -0.15590499341487885 0.023725999519228935
  endloop
 endfacet
 facet normal -0.12050181342812993 0.86505112965338316 -0.48699677211038866
  outer loop
   vertex 0.049047999083995819 -0.15538699924945831 0.024825999513268471
   vertex 0.049775000661611557 -0.15590499341487885 0.023725999519228935
   vertex 0.048409998416900635 -0.1560090035200119 0.023879000917077065
  endloop
 endfacet
 facet normal -0.41514714951548104 0.86320528988703071 -0.28727943149522212
  outer loop
   vertex 0.048250999301671982 -0.1555429995059967 0.025508999824523926
   vertex 0.049047999083995819 -0.15538699924945831 0.024825999513268471
   vertex 0.048409998416900635 -0.1560090035200119 0.023879000917077065
  endloop
 endfacet
 facet normal -0.29296038939236319 0.94787074297083529 -0.1253605395130053
  outer loop
   vertex 0.049047999083995819 -0.15538699924945831 0.024825999513268471
   vertex 0.048250999301671982 -0.1555429995059967 0.025508999824523926
   vertex 0.048383999615907669 -0.15529200434684753 0.02709599956870079
  endloop
 endfacet
 facet normal 0.35430779990648187 0.7645696872943768 -0.53842286002361306
  outer loop
   vertex 0.049775000661611557 -0.15590499341487885 0.023725999519228935
   vertex 0.050379998981952667 -0.1561100035905838 0.023832999169826508
   vertex 0.051050998270511627 -0.15684700012207031 0.023228000849485397
  endloop
 endfacet
 facet normal -0.68359598386572762 0.21015499814309715 -0.69895021825457837
  outer loop
   vertex 0.048399001359939575 -0.15645000338554382 0.033826999366283417
   vertex 0.048702001571655273 -0.15593999624252319 0.033684000372886658
   vertex 0.049139000475406647 -0.15549300611019135 0.033390998840332031
  endloop
 endfacet
 facet normal -0.44354082213659096 0.762913656550672 0.47035549507460894
  outer loop
   vertex 0.048399001359939575 -0.15645000338554382 0.033826999366283417
   vertex 0.049300998449325562 -0.15489600598812103 0.032157000154256821
   vertex 0.048367999494075775 -0.1554969996213913 0.032251998782157898
  endloop
 endfacet
 facet normal -0.71897535793128919 0.65797194753090282 0.22393604209676807
  outer loop
   vertex 0.049139000475406647 -0.15549300611019135 0.033390998840332031
   vertex 0.049300998449325562 -0.15489600598812103 0.032157000154256821
   vertex 0.048399001359939575 -0.15645000338554382 0.033826999366283417
  endloop
 endfacet
 facet normal 0.028262928943169369 0.89836750736806725 0.43833437984356077
  outer loop
   vertex 0.049300998449325562 -0.15489600598812103 0.032157000154256821
   vertex 0.049139000475406647 -0.15549300611019135 0.033390998840332031
   vertex 0.050096999853849411 -0.15530699491500854 0.032947998493909836
  endloop
 endfacet
 facet normal 0.40458586061045293 0.79082033578967614 -0.45925317407243132
  outer loop
   vertex 0.049775000661611557 -0.15590499341487885 0.023725999519228935
   vertex 0.051050998270511627 -0.15684700012207031 0.023228000849485397
   vertex 0.049922998994588852 -0.1563819944858551 0.023034999147057533
  endloop
 endfacet
 facet normal -0.12643020091086238 0.80349293305244496 -0.58173405507363785
  outer loop
   vertex 0.048409998416900635 -0.1560090035200119 0.023879000917077065
   vertex 0.049775000661611557 -0.15590499341487885 0.023725999519228935
   vertex 0.049922998994588852 -0.1563819944858551 0.023034999147057533
  endloop
 endfacet
 facet normal -0.21668825751050819 0.68807669603843247 -0.69252917586618268
  outer loop
   vertex 0.049922998994588852 -0.1563819944858551 0.023034999147057533
   vertex 0.048799000680446625 -0.15705400705337524 0.022718999534845352
   vertex 0.048409998416900635 -0.1560090035200119 0.023879000917077065
  endloop
 endfacet
 facet normal -0.96097677811023285 -0.057316027525224439 -0.2706261349567044
  outer loop
   vertex 0.048799000680446625 -0.15705400705337524 0.022718999534845352
   vertex 0.048489999026060104 -0.15760999917984009 0.023933999240398407
   vertex 0.048409998416900635 -0.1560090035200119 0.023879000917077065
  endloop
 endfacet
 facet normal -0.99524118169975384 -0.052550380165588606 -0.082057588273905885
  outer loop
   vertex 0.048409998416900635 -0.1560090035200119 0.023879000917077065
   vertex 0.048489999026060104 -0.15760999917984009 0.023933999240398407
   vertex 0.048250999301671982 -0.1555429995059967 0.025508999824523926
  endloop
 endfacet
 facet normal -0.93696964714458353 -0.27377133456766622 0.21711088572154494
  outer loop
   vertex 0.048902999609708786 -0.1563660055398941 0.027285000309348106
   vertex 0.048250999301671982 -0.1555429995059967 0.025508999824523926
   vertex 0.048489999026060104 -0.15760999917984009 0.023933999240398407
  endloop
 endfacet
 facet normal -0.81770180919934377 0.57020303729339239 -0.078944584953688279
  outer loop
   vertex 0.048478998243808746 -0.15708300471305847 0.028333999216556549
   vertex 0.048790998756885529 -0.15659099817276001 0.028656000271439552
   vertex 0.048820998519659042 -0.15665499866008759 0.027883000671863556
  endloop
 endfacet
 facet normal -0.8944715875414051 -0.44295940513537574 -0.060889608992605537
  outer loop
   vertex 0.048383999615907669 -0.15529200434684753 0.02709599956870079
   vertex 0.048902999609708786 -0.1563660055398941 0.027285000309348106
   vertex 0.048620998859405518 -0.15593099594116211 0.028263000771403313
  endloop
 endfacet
 facet normal -0.96531703934814383 -0.1572892757061462 -0.20838209446104078
  outer loop
   vertex 0.048820998519659042 -0.15665499866008759 0.027883000671863556
   vertex 0.048620998859405518 -0.15593099594116211 0.028263000771403313
   vertex 0.048902999609708786 -0.1563660055398941 0.027285000309348106
  endloop
 endfacet
 facet normal -0.9009148068086642 -0.41064198676062458 0.14044810280738759
  outer loop
   vertex 0.048383999615907669 -0.15529200434684753 0.02709599956870079
   vertex 0.048250999301671982 -0.1555429995059967 0.025508999824523926
   vertex 0.048902999609708786 -0.1563660055398941 0.027285000309348106
  endloop
 endfacet
 facet normal -0.96591000512697489 -0.25837731960165616 -0.016094182522601516
  outer loop
   vertex 0.048620998859405518 -0.15593099594116211 0.028263000771403313
   vertex 0.048820998519659042 -0.15665499866008759 0.027883000671863556
   vertex 0.048790998756885529 -0.15659099817276001 0.028656000271439552
  endloop
 endfacet
endsolid
