solid Visualization Toolkit generated SLA File
 facet normal 0.77570743281211141 -0.4076430895890874 0.48177286161666161
  outer loop
   vertex -0.0040000001899898052 -0.42544099688529968 0.029999999329447746
   vertex -0.0040000001899898052 -0.43182298541069031 0.024599999189376831
   vertex -0.0003499999875202775 -0.42443299293518066 0.024976000189781189
  endloop
 endfacet
 facet normal 0.75208467199026985 -0.48177265286851834 0.4497374312922135
  outer loop
   vertex -0.0040000001899898052 -0.42544099688529968 0.029999999329447746
   vertex -0.0003499999875202775 -0.42443299293518066 0.024976000189781189
   vertex 0.0026759998872876167 -0.4170440137386322 0.027830999344587326
  endloop
 endfacet
 facet normal 0.78275627358290856 -0.62232838290294845 0
  outer loop
   vertex -0.0040000001899898052 -0.42544099688529968 0.029999999329447746
   vertex 0.0026759998872876167 -0.4170440137386322 0.027830999344587326
   vertex 0.0026759998872876167 -0.4170440137386322 0.032168999314308167
  endloop
 endfacet
 facet normal 0.7923340437107389 -0.59407444622939554 -0.13886077745074618
  outer loop
   vertex -0.0040000001899898052 -0.42544099688529968 0.029999999329447746
   vertex 0.0026759998872876167 -0.4170440137386322 0.032168999314308167
   vertex 0.001475999946705997 -0.41989898681640625 0.037535998970270157
  endloop
 endfacet
 facet normal 0.55979419900475769 -0.80727774589568091 0.18690397465599876
  outer loop
   vertex -0.0040000001899898052 -0.42544099688529968 0.029999999329447746
   vertex 0.001475999946705997 -0.41989898681640625 0.037535998970270157
   vertex -0.0040000001899898052 -0.42275300621986389 0.041609998792409897
  endloop
 endfacet
 facet normal 0.39640062514446078 -0.89441867269674213 0.20707916919979885
  outer loop
   vertex -0.0040000001899898052 -0.42544099688529968 0.029999999329447746
   vertex -0.0040000001899898052 -0.42275300621986389 0.041609998792409897
   vertex -0.0080469995737075806 -0.42594501376152039 0.035569999366998672
  endloop
 endfacet
 facet normal 0.7763482020391641 -0.33527942017833839 0.53373324760167817
  outer loop
   vertex -0.0040000001899898052 -0.42544099688529968 0.029999999329447746
   vertex -0.0080469995737075806 -0.42594501376152039 0.035569999366998672
   vertex -0.0060549997724592686 -0.4291360080242157 0.030667999759316444
  endloop
 endfacet
 facet normal 0.87393471798607958 -0.48604331977570847 0
  outer loop
   vertex -0.0040000001899898052 -0.42544099688529968 0.029999999329447746
   vertex -0.0060549997724592686 -0.4291360080242157 0.030667999759316444
   vertex -0.0060549997724592686 -0.4291360080242157 0.029332000762224197
  endloop
 endfacet
 facet normal 0.83357710207029034 -0.50434070371840456 0.2253656350842361
  outer loop
   vertex -0.0040000001899898052 -0.42544099688529968 0.029999999329447746
   vertex -0.0060549997724592686 -0.4291360080242157 0.029332000762224197
   vertex -0.0062219998799264431 -0.43048000335693359 0.026941999793052673
  endloop
 endfacet
 facet normal 0.38268814112292371 -0.59676228253178099 0.70528332235445634
  outer loop
   vertex -0.0040000001899898052 -0.42544099688529968 0.029999999329447746
   vertex -0.0062219998799264431 -0.43048000335693359 0.026941999793052673
   vertex -0.0040000001899898052 -0.43182298541069031 0.024599999189376831
  endloop
 endfacet
 facet normal -0.26155389438516674 -0.053424042241041247 -0.96370920512495906
  outer loop
   vertex -0.0040000001899898052 -0.43182298541069031 0.024599999189376831
   vertex -0.0040000001899898052 -0.42208200693130493 0.024059999734163284
   vertex 0.0017130000051110983 -0.41536301374435425 0.022136999294161797
  endloop
 endfacet
 facet normal 0.75707222795616058 -0.34572058824889573 -0.55436352379853848
  outer loop
   vertex -0.0040000001899898052 -0.43182298541069031 0.024599999189376831
   vertex 0.0017130000051110983 -0.41536301374435425 0.022136999294161797
   vertex -0.0003499999875202775 -0.42443299293518066 0.024976000189781189
  endloop
 endfacet
 facet normal -0.73558549488343061 -0.037496443940425485 -0.67639337401317057
  outer loop
   vertex -0.0062219998799264431 -0.43048000335693359 0.026941999793052673
   vertex -0.0040000001899898052 -0.42208200693130493 0.024059999734163284
   vertex -0.0040000001899898052 -0.43182298541069031 0.024599999189376831
  endloop
 endfacet
 facet normal 0.67201717644786352 -0.35609102846916779 -0.64930123517733374
  outer loop
   vertex -0.0003499999875202775 -0.42443299293518066 0.024976000189781189
   vertex 0.0017130000051110983 -0.41536301374435425 0.022136999294161797
   vertex 0.008839000016450882 -0.40864500403404236 0.025828000158071518
  endloop
 endfacet
 facet normal 0.78053593266614818 -0.47614848855466735 0.40502626416578486
  outer loop
   vertex -0.0003499999875202775 -0.42443299293518066 0.024976000189781189
   vertex 0.008839000016450882 -0.40864500403404236 0.025828000158071518
   vertex 0.0026759998872876167 -0.4170440137386322 0.027830999344587326
  endloop
 endfacet
 facet normal 0.80623438383115664 -0.59159624603980987 0
  outer loop
   vertex 0.0026759998872876167 -0.4170440137386322 0.027830999344587326
   vertex 0.008839000016450882 -0.40864500403404236 0.025828000158071518
   vertex 0.008839000016450882 -0.40864500403404236 0.034171000123023987
  endloop
 endfacet
 facet normal 0.80623438383115653 -0.59159624603980976 0
  outer loop
   vertex 0.0026759998872876167 -0.4170440137386322 0.027830999344587326
   vertex 0.008839000016450882 -0.40864500403404236 0.034171000123023987
   vertex 0.0026759998872876167 -0.4170440137386322 0.032168999314308167
  endloop
 endfacet
 facet normal 0.7020667543842013 -0.60477569540605802 0.37596360280558061
  outer loop
   vertex 0.0026759998872876167 -0.4170440137386322 0.032168999314308167
   vertex 0.008839000016450882 -0.40864500403404236 0.034171000123023987
   vertex 0.0040939999744296074 -0.40982100367546082 0.041140001267194748
  endloop
 endfacet
 facet normal 0.95931448304624367 -0.27382063111896981 0.068833019629587724
  outer loop
   vertex 0.0026759998872876167 -0.4170440137386322 0.032168999314308167
   vertex 0.0040939999744296074 -0.40982100367546082 0.041140001267194748
   vertex 0.001475999946705997 -0.41989898681640625 0.037535998970270157
  endloop
 endfacet
 facet normal 0.36013447850796487 -0.39567582404213442 0.844833592879908
  outer loop
   vertex 0.001475999946705997 -0.41989898681640625 0.037535998970270157
   vertex 0.0040939999744296074 -0.40982100367546082 0.041140001267194748
   vertex -0.0040000001899898052 -0.41099599003791809 0.044039998203516006
  endloop
 endfacet
 facet normal 0.64051656048928318 -0.15543729265950496 0.75204905677067491
  outer loop
   vertex 0.001475999946705997 -0.41989898681640625 0.037535998970270157
   vertex -0.0040000001899898052 -0.41099599003791809 0.044039998203516006
   vertex -0.0040000001899898052 -0.42275300621986389 0.041609998792409897
  endloop
 endfacet
 facet normal -0.50964598657365079 -0.17414776103282628 0.84257553115232564
  outer loop
   vertex -0.0040000001899898052 -0.42275300621986389 0.041609998792409897
   vertex -0.0040000001899898052 -0.41099599003791809 0.044039998203516006
   vertex -0.010665000416338444 -0.41502898931503296 0.039175000041723251
  endloop
 endfacet
 facet normal -0.66759824918689836 -0.37292066876638369 0.64439332126382332
  outer loop
   vertex -0.0040000001899898052 -0.42275300621986389 0.041609998792409897
   vertex -0.010665000416338444 -0.41502898931503296 0.039175000041723251
   vertex -0.0080469995737075806 -0.42594501376152039 0.035569999366998672
  endloop
 endfacet
 facet normal -0.84594093466714382 -0.33886832835312181 0.41176715640473288
  outer loop
   vertex -0.0080469995737075806 -0.42594501376152039 0.035569999366998672
   vertex -0.010665000416338444 -0.41502898931503296 0.039175000041723251
   vertex -0.012217000126838684 -0.41905900835990906 0.032669998705387115
  endloop
 endfacet
 facet normal -0.85382877703425863 -0.52049016889051558 -0.00814884019386331
  outer loop
   vertex -0.0080469995737075806 -0.42594501376152039 0.035569999366998672
   vertex -0.012217000126838684 -0.41905900835990906 0.032669998705387115
   vertex -0.0060549997724592686 -0.4291360080242157 0.030667999759316444
  endloop
 endfacet
 facet normal -0.8531373790839476 -0.52168631610362637 -0
  outer loop
   vertex -0.0060549997724592686 -0.4291360080242157 0.030667999759316444
   vertex -0.012217000126838684 -0.41905900835990906 0.032669998705387115
   vertex -0.012217000126838684 -0.41905900835990906 0.027329999953508377
  endloop
 endfacet
 facet normal -0.8531373790839476 -0.52168631610362637 0
  outer loop
   vertex -0.0060549997724592686 -0.4291360080242157 0.030667999759316444
   vertex -0.012217000126838684 -0.41905900835990906 0.027329999953508377
   vertex -0.0060549997724592686 -0.4291360080242157 0.029332000762224197
  endloop
 endfacet
 facet normal -0.65425207940385999 -0.51085884073751442 -0.55765353171664567
  outer loop
   vertex -0.0060549997724592686 -0.4291360080242157 0.029332000762224197
   vertex -0.012217000126838684 -0.41905900835990906 0.027329999953508377
   vertex -0.0082849999889731407 -0.42057099938392639 0.024102000519633293
  endloop
 endfacet
 facet normal -0.97488772060470119 -0.15798063219090905 0.15695875912713741
  outer loop
   vertex -0.0060549997724592686 -0.4291360080242157 0.029332000762224197
   vertex -0.0082849999889731407 -0.42057099938392639 0.024102000519633293
   vertex -0.0062219998799264431 -0.43048000335693359 0.026941999793052673
  endloop
 endfacet
 facet normal -0.11349894868390019 -0.29549951662803864 -0.94857684154750732
  outer loop
   vertex -0.0062219998799264431 -0.43048000335693359 0.026941999793052673
   vertex -0.0082849999889731407 -0.42057099938392639 0.024102000519633293
   vertex -0.0040000001899898052 -0.42208200693130493 0.024059999734163284
  endloop
 endfacet
 facet normal 0.67649526890272871 -0.24611475653446324 -0.6941049472293126
  outer loop
   vertex -0.0040000001899898052 -0.42208200693130493 0.024059999734163284
   vertex -0.0040000001899898052 -0.41065999865531921 0.020010000094771385
   vertex 0.0012369999894872308 -0.40411099791526794 0.022792000323534012
  endloop
 endfacet
 facet normal -0.35972010912535779 0.039050174091918778 -0.93224274038161947
  outer loop
   vertex -0.0040000001899898052 -0.42208200693130493 0.024059999734163284
   vertex 0.0012369999894872308 -0.40411099791526794 0.022792000323534012
   vertex 0.0017130000051110983 -0.41536301374435425 0.022136999294161797
  endloop
 endfacet
 facet normal -0.1260695412270188 -0.33152570961114897 -0.93498512001081235
  outer loop
   vertex -0.0082849999889731407 -0.42057099938392639 0.024102000519633293
   vertex -0.0040000001899898052 -0.41065999865531921 0.020010000094771385
   vertex -0.0040000001899898052 -0.42208200693130493 0.024059999734163284
  endloop
 endfacet
 facet normal 0.86900689640207773 0.065313265610130983 -0.4904703776386185
  outer loop
   vertex 0.0017130000051110983 -0.41536301374435425 0.022136999294161797
   vertex 0.0012369999894872308 -0.40411099791526794 0.022792000323534012
   vertex 0.0034469999372959137 -0.3975600004196167 0.027580000460147858
  endloop
 endfacet
 facet normal 0.23660684826764961 0.26292504872038336 -0.93535427411662242
  outer loop
   vertex 0.0017130000051110983 -0.41536301374435425 0.022136999294161797
   vertex 0.0034469999372959137 -0.3975600004196167 0.027580000460147858
   vertex 0.008839000016450882 -0.40864500403404236 0.025828000158071518
  endloop
 endfacet
 facet normal 0.89925756639009946 0.43741951178491773 -0
  outer loop
   vertex 0.008839000016450882 -0.40864500403404236 0.025828000158071518
   vertex 0.0034469999372959137 -0.3975600004196167 0.027580000460147858
   vertex 0.0034469999372959137 -0.3975600004196167 0.032419998198747635
  endloop
 endfacet
 facet normal 0.89925756639009957 0.43741951178491778 0
  outer loop
   vertex 0.008839000016450882 -0.40864500403404236 0.025828000158071518
   vertex 0.0034469999372959137 -0.3975600004196167 0.032419998198747635
   vertex 0.008839000016450882 -0.40864500403404236 0.034171000123023987
  endloop
 endfacet
 facet normal 0.72459370618292207 0.43667989476854757 0.53317410895975403
  outer loop
   vertex 0.008839000016450882 -0.40864500403404236 0.034171000123023987
   vertex 0.0034469999372959137 -0.3975600004196167 0.032419998198747635
   vertex -0.00026999998954124749 -0.39470601081848145 0.035133998841047287
  endloop
 endfacet
 facet normal 0.71230303639656412 0.42699908174695789 0.55704233997739316
  outer loop
   vertex 0.008839000016450882 -0.40864500403404236 0.034171000123023987
   vertex -0.00026999998954124749 -0.39470601081848145 0.035133998841047287
   vertex 0.0040939999744296074 -0.40982100367546082 0.041140001267194748
  endloop
 endfacet
 facet normal 0.25779343717746078 0.42015391869382906 0.87006507133343192
  outer loop
   vertex 0.0040939999744296074 -0.40982100367546082 0.041140001267194748
   vertex -0.00026999998954124749 -0.39470601081848145 0.035133998841047287
   vertex -0.0040000001899898052 -0.39184999465942383 0.034860000014305115
  endloop
 endfacet
 facet normal 0.25191507364453081 0.41840179204728511 0.87262748987313643
  outer loop
   vertex 0.0040939999744296074 -0.40982100367546082 0.041140001267194748
   vertex -0.0040000001899898052 -0.39184999465942383 0.034860000014305115
   vertex -0.0040000001899898052 -0.41099599003791809 0.044039998203516006
  endloop
 endfacet
 facet normal -0.28859030897203897 0.41395007787336674 0.86334290209398079
  outer loop
   vertex -0.0040000001899898052 -0.41099599003791809 0.044039998203516006
   vertex -0.0040000001899898052 -0.39184999465942383 0.034860000014305115
   vertex -0.0097129996865987778 -0.40209600329399109 0.037863001227378845
  endloop
 endfacet
 facet normal -0.63291945481853162 0.12411481331310811 0.7642044731800941
  outer loop
   vertex -0.0040000001899898052 -0.41099599003791809 0.044039998203516006
   vertex -0.0097129996865987778 -0.40209600329399109 0.037863001227378845
   vertex -0.010665000416338444 -0.41502898931503296 0.039175000041723251
  endloop
 endfacet
 facet normal -0.50695675246962835 0.12385335543673899 0.85302707897962349
  outer loop
   vertex -0.010665000416338444 -0.41502898931503296 0.039175000041723251
   vertex -0.0097129996865987778 -0.40209600329399109 0.037863001227378845
   vertex -0.017866000533103943 -0.41233998537063599 0.034504998475313187
  endloop
 endfacet
 facet normal -0.57500029416731546 -0.62697849461858668 0.5256164276288473
  outer loop
   vertex -0.010665000416338444 -0.41502898931503296 0.039175000041723251
   vertex -0.017866000533103943 -0.41233998537063599 0.034504998475313187
   vertex -0.012217000126838684 -0.41905900835990906 0.032669998705387115
  endloop
 endfacet
 facet normal -0.76542308541715187 -0.64352738893576811 -0
  outer loop
   vertex -0.012217000126838684 -0.41905900835990906 0.032669998705387115
   vertex -0.017866000533103943 -0.41233998537063599 0.034504998475313187
   vertex -0.017866000533103943 -0.41233998537063599 0.025495000183582306
  endloop
 endfacet
 facet normal -0.76542308541715198 -0.64352738893576811 0
  outer loop
   vertex -0.012217000126838684 -0.41905900835990906 0.032669998705387115
   vertex -0.017866000533103943 -0.41233998537063599 0.025495000183582306
   vertex -0.012217000126838684 -0.41905900835990906 0.027329999953508377
  endloop
 endfacet
 facet normal -0.47144184754258212 -0.57822029383608164 -0.6658857831353302
  outer loop
   vertex -0.012217000126838684 -0.41905900835990906 0.027329999953508377
   vertex -0.017866000533103943 -0.41233998537063599 0.025495000183582306
   vertex -0.011220999993383884 -0.41150000691413879 0.020060999318957329
  endloop
 endfacet
 facet normal -0.66048656487706492 -0.47340451361999253 -0.58279126975368556
  outer loop
   vertex -0.012217000126838684 -0.41905900835990906 0.027329999953508377
   vertex -0.011220999993383884 -0.41150000691413879 0.020060999318957329
   vertex -0.0082849999889731407 -0.42057099938392639 0.024102000519633293
  endloop
 endfacet
 facet normal 0.039574711906908297 -0.39589822496171889 -0.91744124479426226
  outer loop
   vertex -0.0082849999889731407 -0.42057099938392639 0.024102000519633293
   vertex -0.011220999993383884 -0.41150000691413879 0.020060999318957329
   vertex -0.0040000001899898052 -0.41065999865531921 0.020010000094771385
  endloop
 endfacet
 facet normal 0.28785505564102076 0.12715245457071611 -0.94919530142039088
  outer loop
   vertex -0.0040000001899898052 -0.41065999865531921 0.020010000094771385
   vertex -0.0040000001899898052 -0.39252001047134399 0.022439999505877495
   vertex 0.00012599999899975955 -0.38781899213790894 0.024320999160408974
  endloop
 endfacet
 facet normal 0.35409756995077685 0.1112922450063441 -0.92856283963790121
  outer loop
   vertex -0.0040000001899898052 -0.41065999865531921 0.020010000094771385
   vertex 0.00012599999899975955 -0.38781899213790894 0.024320999160408974
   vertex 0.0012369999894872308 -0.40411099791526794 0.022792000323534012
  endloop
 endfacet
 facet normal -0.022439637218235806 0.13273873902170702 -0.99089701273363484
  outer loop
   vertex -0.011220999993383884 -0.41150000691413879 0.020060999318957329
   vertex -0.0040000001899898052 -0.39252001047134399 0.022439999505877495
   vertex -0.0040000001899898052 -0.41065999865531921 0.020010000094771385
  endloop
 endfacet
 facet normal 0.80335102790873214 0.10971418116817658 -0.58531181810089927
  outer loop
   vertex 0.0012369999894872308 -0.40411099791526794 0.022792000323534012
   vertex 0.00012599999899975955 -0.38781899213790894 0.024320999160408974
   vertex 0.0021619999315589666 -0.38311600685119629 0.027997000142931938
  endloop
 endfacet
 facet normal 0.85121612403533753 0.090651595950438535 -0.51692687909790058
  outer loop
   vertex 0.0012369999894872308 -0.40411099791526794 0.022792000323534012
   vertex 0.0021619999315589666 -0.38311600685119629 0.027997000142931938
   vertex 0.0034469999372959137 -0.3975600004196167 0.027580000460147858
  endloop
 endfacet
 facet normal 0.99606601201470435 0.088614331285197842 -0
  outer loop
   vertex 0.0034469999372959137 -0.3975600004196167 0.027580000460147858
   vertex 0.0021619999315589666 -0.38311600685119629 0.027997000142931938
   vertex 0.0021619999315589666 -0.38311600685119629 0.032001998275518417
  endloop
 endfacet
 facet normal 0.99606601201470446 0.088614331285197842 0
  outer loop
   vertex 0.0034469999372959137 -0.3975600004196167 0.027580000460147858
   vertex 0.0021619999315589666 -0.38311600685119629 0.032001998275518417
   vertex 0.0034469999372959137 -0.3975600004196167 0.032419998198747635
  endloop
 endfacet
 facet normal 0.90007420341660305 0.092397662216487444 0.42582754767733788
  outer loop
   vertex 0.0034469999372959137 -0.3975600004196167 0.032419998198747635
   vertex 0.0021619999315589666 -0.38311600685119629 0.032001998275518417
   vertex -0.00050899997586384416 -0.37001499533653259 0.034804999828338623
  endloop
 endfacet
 facet normal 0.59783094322213559 0.016465862226369862 0.801453079541949
  outer loop
   vertex 0.0034469999372959137 -0.3975600004196167 0.032419998198747635
   vertex -0.00050899997586384416 -0.37001499533653259 0.034804999828338623
   vertex -0.00026999998954124749 -0.39470601081848145 0.035133998841047287
  endloop
 endfacet
 facet normal 0.22296255849553501 0.01514585172823193 0.97470934164219003
  outer loop
   vertex -0.00026999998954124749 -0.39470601081848145 0.035133998841047287
   vertex -0.00050899997586384416 -0.37001499533653259 0.034804999828338623
   vertex -0.0040000001899898052 -0.35691499710083008 0.035399999469518661
  endloop
 endfacet
 facet normal -0.084974916702758974 -0.015399516198849815 0.99626408066947814
  outer loop
   vertex -0.00026999998954124749 -0.39470601081848145 0.035133998841047287
   vertex -0.0040000001899898052 -0.35691499710083008 0.035399999469518661
   vertex -0.0040000001899898052 -0.39184999465942383 0.034860000014305115
  endloop
 endfacet
 facet normal 0.4841562559493745 -0.013523204818991632 0.87487704436481095
  outer loop
   vertex -0.0040000001899898052 -0.39184999465942383 0.034860000014305115
   vertex -0.0040000001899898052 -0.35691499710083008 0.035399999469518661
   vertex -0.010110000148415565 -0.38093400001525879 0.038410000503063202
  endloop
 endfacet
 facet normal 0.4841449166684359 -0.01353155049499215 0.87488319037761542
  outer loop
   vertex -0.0040000001899898052 -0.39184999465942383 0.034860000014305115
   vertex -0.010110000148415565 -0.38093400001525879 0.038410000503063202
   vertex -0.0097129996865987778 -0.40209600329399109 0.037863001227378845
  endloop
 endfacet
 facet normal -0.31994345903751253 -0.030478996210127767 0.94694625708597358
  outer loop
   vertex -0.0097129996865987778 -0.40209600329399109 0.037863001227378845
   vertex -0.010110000148415565 -0.38093400001525879 0.038410000503063202
   vertex -0.018636999651789665 -0.40494999289512634 0.034756001085042953
  endloop
 endfacet
 facet normal -0.309650564087039 -0.064527270857068275 0.94865839978166921
  outer loop
   vertex -0.0097129996865987778 -0.40209600329399109 0.037863001227378845
   vertex -0.018636999651789665 -0.40494999289512634 0.034756001085042953
   vertex -0.017866000533103943 -0.41233998537063599 0.034504998475313187
  endloop
 endfacet
 facet normal -0.9946016387902552 -0.10376695098025492 -0
  outer loop
   vertex -0.017866000533103943 -0.41233998537063599 0.034504998475313187
   vertex -0.018636999651789665 -0.40494999289512634 0.034756001085042953
   vertex -0.018636999651789665 -0.40494999289512634 0.025243999436497688
  endloop
 endfacet
 facet normal -0.9946016387902552 -0.10376695098025493 0
  outer loop
   vertex -0.017866000533103943 -0.41233998537063599 0.034504998475313187
   vertex -0.018636999651789665 -0.40494999289512634 0.025243999436497688
   vertex -0.017866000533103943 -0.41233998537063599 0.025495000183582306
  endloop
 endfacet
 facet normal -0.44977631620284519 -0.077147356684757515 -0.88980309661157786
  outer loop
   vertex -0.017866000533103943 -0.41233998537063599 0.025495000183582306
   vertex -0.018636999651789665 -0.40494999289512634 0.025243999436497688
   vertex -0.010745000094175339 -0.39873600006103516 0.020716000348329544
  endloop
 endfacet
 facet normal -0.63655031691564412 0.063182329246635832 -0.76864275662076131
  outer loop
   vertex -0.017866000533103943 -0.41233998537063599 0.025495000183582306
   vertex -0.010745000094175339 -0.39873600006103516 0.020716000348329544
   vertex -0.011220999993383884 -0.41150000691413879 0.020060999318957329
  endloop
 endfacet
 facet normal 0.21067988082253314 0.042260818874706035 -0.97664118846413728
  outer loop
   vertex -0.011220999993383884 -0.41150000691413879 0.020060999318957329
   vertex -0.010745000094175339 -0.39873600006103516 0.020716000348329544
   vertex -0.0040000001899898052 -0.39252001047134399 0.022439999505877495
  endloop
 endfacet
 facet normal -0.50327811462482608 0.1593090566193861 -0.84931252423281833
  outer loop
   vertex -0.0040000001899898052 -0.39252001047134399 0.022439999505877495
   vertex -0.0040000001899898052 -0.38244399428367615 0.024329999461770058
   vertex -0.00082600000314414501 -0.36548098921775818 0.025630999356508255
  endloop
 endfacet
 facet normal 0.34703380278525492 0.06963790613611924 -0.93526365360436292
  outer loop
   vertex -0.0040000001899898052 -0.39252001047134399 0.022439999505877495
   vertex -0.00082600000314414501 -0.36548098921775818 0.025630999356508255
   vertex 0.00012599999899975955 -0.38781899213790894 0.024320999160408974
  endloop
 endfacet
 facet normal 0.081048268851704935 0.18375240999198875 -0.97962555598467205
  outer loop
   vertex -0.010745000094175339 -0.39873600006103516 0.020716000348329544
   vertex -0.0040000001899898052 -0.38244399428367615 0.024329999461770058
   vertex -0.0040000001899898052 -0.39252001047134399 0.022439999505877495
  endloop
 endfacet
 facet normal 0.59147854232809116 0.072303358762913189 -0.80307244895902008
  outer loop
   vertex 0.00012599999899975955 -0.38781899213790894 0.024320999160408974
   vertex -0.00082600000314414501 -0.36548098921775818 0.025630999356508255
   vertex 0.00087899999925866723 -0.3485180139541626 0.028413999825716019
  endloop
 endfacet
 facet normal 0.85281585454950226 0.0379025016191777 -0.52083444452149119
  outer loop
   vertex 0.00012599999899975955 -0.38781899213790894 0.024320999160408974
   vertex 0.00087899999925866723 -0.3485180139541626 0.028413999825716019
   vertex 0.0021619999315589666 -0.38311600685119629 0.027997000142931938
  endloop
 endfacet
 facet normal 0.99931313114171694 0.037057602833126986 -0
  outer loop
   vertex 0.0021619999315589666 -0.38311600685119629 0.027997000142931938
   vertex 0.00087899999925866723 -0.3485180139541626 0.028413999825716019
   vertex 0.00087899999925866723 -0.3485180139541626 0.031585998833179474
  endloop
 endfacet
 facet normal 0.99931313114171694 0.037057602833126986 0
  outer loop
   vertex 0.0021619999315589666 -0.38311600685119629 0.027997000142931938
   vertex 0.00087899999925866723 -0.3485180139541626 0.031585998833179474
   vertex 0.0021619999315589666 -0.38311600685119629 0.032001998275518417
  endloop
 endfacet
 facet normal 0.99830905154249283 0.037553871036327936 0.044370535026245737
  outer loop
   vertex 0.0021619999315589666 -0.38311600685119629 0.032001998275518417
   vertex 0.00087899999925866723 -0.3485180139541626 0.031585998833179474
   vertex -0.00098500004969537258 -0.30199599266052246 0.034150000661611557
  endloop
 endfacet
 facet normal 0.75045218363014732 0.011615189359543681 0.66082267474783696
  outer loop
   vertex 0.0021619999315589666 -0.38311600685119629 0.032001998275518417
   vertex -0.00098500004969537258 -0.30199599266052246 0.034150000661611557
   vertex -0.00050899997586384416 -0.37001499533653259 0.034804999828338623
  endloop
 endfacet
 facet normal 0.46893519357843327 0.011786092804886539 0.88315393462292402
  outer loop
   vertex -0.00050899997586384416 -0.37001499533653259 0.034804999828338623
   vertex -0.00098500004969537258 -0.30199599266052246 0.034150000661611557
   vertex -0.0040000001899898052 -0.25547099113464355 0.035130001604557037
  endloop
 endfacet
 facet normal 0.17755808830675085 0.0026192453867192821 0.98410683608562366
  outer loop
   vertex -0.00050899997586384416 -0.37001499533653259 0.034804999828338623
   vertex -0.0040000001899898052 -0.25547099113464355 0.035130001604557037
   vertex -0.0040000001899898052 -0.35691499710083008 0.035399999469518661
  endloop
 endfacet
 facet normal 0.13266547077950239 0.0026380106808067722 0.99115736074676919
  outer loop
   vertex -0.0040000001899898052 -0.35691499710083008 0.035399999469518661
   vertex -0.0040000001899898052 -0.25547099113464355 0.035130001604557037
   vertex -0.0082849999889731407 -0.32853201031684875 0.035898000001907349
  endloop
 endfacet
 facet normal 0.33221344237789563 0.033615797510463827 0.94260501105243655
  outer loop
   vertex -0.0040000001899898052 -0.35691499710083008 0.035399999469518661
   vertex -0.0082849999889731407 -0.32853201031684875 0.035898000001907349
   vertex -0.010110000148415565 -0.38093400001525879 0.038410000503063202
  endloop
 endfacet
 facet normal -0.94768091534558907 0.048132309361054455 0.31556958580528349
  outer loop
   vertex -0.010110000148415565 -0.38093400001525879 0.038410000503063202
   vertex -0.0082849999889731407 -0.32853201031684875 0.035898000001907349
   vertex -0.012986999936401844 -0.40159198641777039 0.032921001315116882
  endloop
 endfacet
 facet normal -0.44606710516231884 0.28734245510457018 -0.8476192843409045
  outer loop
   vertex -0.010110000148415565 -0.38093400001525879 0.038410000503063202
   vertex -0.012986999936401844 -0.40159198641777039 0.032921001315116882
   vertex -0.018636999651789665 -0.40494999289512634 0.034756001085042953
  endloop
 endfacet
 facet normal -0.51091207757506285 0.85963297341826816 0
  outer loop
   vertex -0.018636999651789665 -0.40494999289512634 0.034756001085042953
   vertex -0.012986999936401844 -0.40159198641777039 0.032921001315116882
   vertex -0.012986999936401844 -0.40159198641777039 0.027078999206423759
  endloop
 endfacet
 facet normal -0.51091207757506285 0.85963297341826816 0
  outer loop
   vertex -0.018636999651789665 -0.40494999289512634 0.034756001085042953
   vertex -0.012986999936401844 -0.40159198641777039 0.027078999206423759
   vertex -0.018636999651789665 -0.40494999289512634 0.025243999436497688
  endloop
 endfacet
 facet normal -0.51617983852889682 0.48139113579515219 0.7083932161406794
  outer loop
   vertex -0.018636999651789665 -0.40494999289512634 0.025243999436497688
   vertex -0.012986999936401844 -0.40159198641777039 0.027078999206423759
   vertex -0.0084429997950792313 -0.39201799035072327 0.0238840002566576
  endloop
 endfacet
 facet normal -0.69057988270691073 0.48825409374953482 -0.5335797649249171
  outer loop
   vertex -0.018636999651789665 -0.40494999289512634 0.025243999436497688
   vertex -0.0084429997950792313 -0.39201799035072327 0.0238840002566576
   vertex -0.010745000094175339 -0.39873600006103516 0.020716000348329544
  endloop
 endfacet
 facet normal -0.87387042787176883 0.41716620656329906 -0.24964541131933188
  outer loop
   vertex -0.010745000094175339 -0.39873600006103516 0.020716000348329544
   vertex -0.0084429997950792313 -0.39201799035072327 0.0238840002566576
   vertex -0.0040000001899898052 -0.38244399428367615 0.024329999461770058
  endloop
 endfacet
 facet normal 0.57840058043888165 -0.044388564064469234 -0.81454430446002091
  outer loop
   vertex -0.0040000001899898052 -0.38244399428367615 0.024329999461770058
   vertex -0.0040000001899898052 -0.32298898696899414 0.021090000867843628
   vertex 0.00083999999333173037 -0.30115500092506409 0.023336999118328094
  endloop
 endfacet
 facet normal 0.57122912114883106 -0.044023441703961101 -0.81960919207392502
  outer loop
   vertex -0.0040000001899898052 -0.38244399428367615 0.024329999461770058
   vertex 0.00083999999333173037 -0.30115500092506409 0.023336999118328094
   vertex -0.00082600000314414501 -0.36548098921775818 0.025630999356508255
  endloop
 endfacet
 facet normal 0.21252006551892999 -0.053171228354114565 -0.97570899464294392
  outer loop
   vertex -0.0084429997950792313 -0.39201799035072327 0.0238840002566576
   vertex -0.0040000001899898052 -0.32298898696899414 0.021090000867843628
   vertex -0.0040000001899898052 -0.38244399428367615 0.024329999461770058
  endloop
 endfacet
 facet normal 0.94338175368964616 -0.036191775662117918 -0.32972870997210796
  outer loop
   vertex -0.00082600000314414501 -0.36548098921775818 0.025630999356508255
   vertex 0.00083999999333173037 -0.30115500092506409 0.023336999118328094
   vertex 0.0031900000758469105 -0.27932101488113403 0.027664000168442726
  endloop
 endfacet
 facet normal 0.93304792816224169 -0.035042050469494955 -0.35804136416207777
  outer loop
   vertex -0.00082600000314414501 -0.36548098921775818 0.025630999356508255
   vertex 0.0031900000758469105 -0.27932101488113403 0.027664000168442726
   vertex 0.00087899999925866723 -0.3485180139541626 0.028413999825716019
  endloop
 endfacet
 facet normal 0.99944277283002103 -0.033378793235211535 0
  outer loop
   vertex 0.00087899999925866723 -0.3485180139541626 0.028413999825716019
   vertex 0.0031900000758469105 -0.27932101488113403 0.027664000168442726
   vertex 0.0031900000758469105 -0.27932101488113403 0.032336000353097916
  endloop
 endfacet
 facet normal 0.99944277283002103 -0.033378793235211535 0
  outer loop
   vertex 0.00087899999925866723 -0.3485180139541626 0.028413999825716019
   vertex 0.0031900000758469105 -0.27932101488113403 0.032336000353097916
   vertex 0.00087899999925866723 -0.3485180139541626 0.031585998833179474
  endloop
 endfacet
 facet normal 0.20176161086868566 -0.017352389596350822 0.97928093362169044
  outer loop
   vertex 0.00087899999925866723 -0.3485180139541626 0.031585998833179474
   vertex 0.0031900000758469105 -0.27932101488113403 0.032336000353097916
   vertex -0.00090500002261251211 -0.2183540016412735 0.03426000103354454
  endloop
 endfacet
 facet normal 0.79518769339632289 -0.0015580094529979048 0.6063613649281917
  outer loop
   vertex 0.00087899999925866723 -0.3485180139541626 0.031585998833179474
   vertex -0.00090500002261251211 -0.2183540016412735 0.03426000103354454
   vertex -0.00098500004969537258 -0.30199599266052246 0.034150000661611557
  endloop
 endfacet
 facet normal -0.39852422363041501 -0.00082501276648262278 0.91715743606739064
  outer loop
   vertex -0.00098500004969537258 -0.30199599266052246 0.034150000661611557
   vertex -0.00090500002261251211 -0.2183540016412735 0.03426000103354454
   vertex -0.0040000001899898052 -0.15738700330257416 0.032970000058412552
  endloop
 endfacet
 facet normal 0.5535688729154784 0.018335516704318825 0.83260153240687251
  outer loop
   vertex -0.00098500004969537258 -0.30199599266052246 0.034150000661611557
   vertex -0.0040000001899898052 -0.15738700330257416 0.032970000058412552
   vertex -0.0040000001899898052 -0.25547099113464355 0.035130001604557037
  endloop
 endfacet
 facet normal -0.64095978287394173 0.016899395938009112 0.76738840697206245
  outer loop
   vertex -0.0040000001899898052 -0.25547099113464355 0.035130001604557037
   vertex -0.0040000001899898052 -0.15738700330257416 0.032970000058412552
   vertex -0.0064599998295307159 -0.26958000659942627 0.033385999500751495
  endloop
 endfacet
 facet normal -0.75617757187566559 0.051206951088472952 0.65235981478969496
  outer loop
   vertex -0.0040000001899898052 -0.25547099113464355 0.035130001604557037
   vertex -0.0064599998295307159 -0.26958000659942627 0.033385999500751495
   vertex -0.0082849999889731407 -0.32853201031684875 0.035898000001907349
  endloop
 endfacet
 facet normal -0.99221561231289013 0.025522627137069487 -0.12188836772464583
  outer loop
   vertex -0.0082849999889731407 -0.32853201031684875 0.035898000001907349
   vertex -0.0064599998295307159 -0.26958000659942627 0.033385999500751495
   vertex -0.0091350004076957703 -0.38177299499511719 0.031668998301029205
  endloop
 endfacet
 facet normal -0.62278354417113158 0.071826997133426204 -0.77909019990784056
  outer loop
   vertex -0.0082849999889731407 -0.32853201031684875 0.035898000001907349
   vertex -0.0091350004076957703 -0.38177299499511719 0.031668998301029205
   vertex -0.012986999936401844 -0.40159198641777039 0.032921001315116882
  endloop
 endfacet
 facet normal -0.98163109957581984 0.19078884753980493 0
  outer loop
   vertex -0.012986999936401844 -0.40159198641777039 0.032921001315116882
   vertex -0.0091350004076957703 -0.38177299499511719 0.031668998301029205
   vertex -0.0091350004076957703 -0.38177299499511719 0.028331000357866287
  endloop
 endfacet
 facet normal -0.98163109957581984 0.19078884753980493 0
  outer loop
   vertex -0.012986999936401844 -0.40159198641777039 0.032921001315116882
   vertex -0.0091350004076957703 -0.38177299499511719 0.028331000357866287
   vertex -0.012986999936401844 -0.40159198641777039 0.027078999206423759
  endloop
 endfacet
 facet normal -0.77586325842790349 0.11156899991386421 0.62095777833912058
  outer loop
   vertex -0.012986999936401844 -0.40159198641777039 0.027078999206423759
   vertex -0.0091350004076957703 -0.38177299499511719 0.028331000357866287
   vertex -0.0082059996202588081 -0.35238200426101685 0.02421100065112114
  endloop
 endfacet
 facet normal -0.5894229744102516 0.010188501272561596 -0.80776033059267704
  outer loop
   vertex -0.012986999936401844 -0.40159198641777039 0.027078999206423759
   vertex -0.0082059996202588081 -0.35238200426101685 0.02421100065112114
   vertex -0.0084429997950792313 -0.39201799035072327 0.0238840002566576
  endloop
 endfacet
 facet normal -0.64070833507603209 0.01016479753172656 -0.7677170743543732
  outer loop
   vertex -0.0084429997950792313 -0.39201799035072327 0.0238840002566576
   vertex -0.0082059996202588081 -0.35238200426101685 0.02421100065112114
   vertex -0.0040000001899898052 -0.32298898696899414 0.021090000867843628
  endloop
 endfacet
 facet normal 0.45083616092879697 -0.014276084925113992 -0.89249254865135697
  outer loop
   vertex -0.0040000001899898052 -0.32298898696899414 0.021090000867843628
   vertex -0.0040000001899898052 -0.25547099113464355 0.020010000094771385
   vertex 0.0015549999661743641 -0.22658400237560272 0.022353999316692352
  endloop
 endfacet
 facet normal 0.48010353131341293 -0.016164818410657058 -0.87706288136378285
  outer loop
   vertex -0.0040000001899898052 -0.32298898696899414 0.021090000867843628
   vertex 0.0015549999661743641 -0.22658400237560272 0.022353999316692352
   vertex 0.00083999999333173037 -0.30115500092506409 0.023336999118328094
  endloop
 endfacet
 facet normal -0.53314101464310615 -0.013531093119065592 -0.84591818045501443
  outer loop
   vertex -0.0082059996202588081 -0.35238200426101685 0.02421100065112114
   vertex -0.0040000001899898052 -0.25547099113464355 0.020010000094771385
   vertex -0.0040000001899898052 -0.32298898696899414 0.021090000867843628
  endloop
 endfacet
 facet normal 0.89398641882790641 -0.014475422871494295 -0.44786018474960076
  outer loop
   vertex 0.00083999999333173037 -0.30115500092506409 0.023336999118328094
   vertex 0.0015549999661743641 -0.22658400237560272 0.022353999316692352
   vertex 0.0044740000739693642 -0.19769600033760071 0.027247000485658646
  endloop
 endfacet
 facet normal 0.91109057671307292 -0.016436057852623389 -0.41187840077734766
  outer loop
   vertex 0.00083999999333173037 -0.30115500092506409 0.023336999118328094
   vertex 0.0044740000739693642 -0.19769600033760071 0.027247000485658646
   vertex 0.0031900000758469105 -0.27932101488113403 0.027664000168442726
  endloop
 endfacet
 facet normal 0.99987629908346498 -0.015728526032435068 0
  outer loop
   vertex 0.0031900000758469105 -0.27932101488113403 0.027664000168442726
   vertex 0.0044740000739693642 -0.19769600033760071 0.027247000485658646
   vertex 0.0044740000739693642 -0.19769600033760071 0.032752998173236847
  endloop
 endfacet
 facet normal 0.9998762990834652 -0.015728526032435072 0
  outer loop
   vertex 0.0031900000758469105 -0.27932101488113403 0.027664000168442726
   vertex 0.0044740000739693642 -0.19769600033760071 0.032752998173236847
   vertex 0.0031900000758469105 -0.27932101488113403 0.032336000353097916
  endloop
 endfacet
 facet normal 0.54693939869018704 -0.012879971381105996 0.83707311538338081
  outer loop
   vertex 0.0031900000758469105 -0.27932101488113403 0.032336000353097916
   vertex 0.0044740000739693642 -0.19769600033760071 0.032752998173236847
   vertex 0.00036400000681169331 -0.16074599325656891 0.036006998270750046
  endloop
 endfacet
 facet normal 0.013809733194199177 -0.030612694117064479 0.99943591801975973
  outer loop
   vertex 0.0031900000758469105 -0.27932101488113403 0.032336000353097916
   vertex 0.00036400000681169331 -0.16074599325656891 0.036006998270750046
   vertex -0.00090500002261251211 -0.2183540016412735 0.03426000103354454
  endloop
 endfacet
 facet normal -0.22346808225201112 -0.024626667528047892 0.97440009414052875
  outer loop
   vertex -0.00090500002261251211 -0.2183540016412735 0.03426000103354454
   vertex 0.00036400000681169331 -0.16074599325656891 0.036006998270750046
   vertex -0.0040000001899898052 -0.12379699945449829 0.035939998924732208
  endloop
 endfacet
 facet normal -0.90673170512205137 -0.037142146580789098 0.4200691322554283
  outer loop
   vertex -0.00090500002261251211 -0.2183540016412735 0.03426000103354454
   vertex -0.0040000001899898052 -0.12379699945449829 0.035939998924732208
   vertex -0.0040000001899898052 -0.15738700330257416 0.032970000058412552
  endloop
 endfacet
 facet normal 0.91521628424156198 -0.035491170525759272 0.40139697292553161
  outer loop
   vertex -0.0040000001899898052 -0.15738700330257416 0.032970000058412552
   vertex -0.0040000001899898052 -0.12379699945449829 0.035939998924732208
   vertex -0.0067770001478493214 -0.21936200559139252 0.033822000026702881
  endloop
 endfacet
 facet normal 0.40177877556862618 -0.0054142085659943402 0.91572075538789632
  outer loop
   vertex -0.0040000001899898052 -0.15738700330257416 0.032970000058412552
   vertex -0.0067770001478493214 -0.21936200559139252 0.033822000026702881
   vertex -0.0064599998295307159 -0.26958000659942627 0.033385999500751495
  endloop
 endfacet
 facet normal -0.85362059809694546 -0.0099101416565783602 0.52080098271504782
  outer loop
   vertex -0.0064599998295307159 -0.26958000659942627 0.033385999500751495
   vertex -0.0067770001478493214 -0.21936200559139252 0.033822000026702881
   vertex -0.0073379999957978725 -0.31492799520492554 0.031083999201655388
  endloop
 endfacet
 facet normal -0.99178367362248498 0.025565240633290336 -0.12534577458873611
  outer loop
   vertex -0.0064599998295307159 -0.26958000659942627 0.033385999500751495
   vertex -0.0073379999957978725 -0.31492799520492554 0.031083999201655388
   vertex -0.0091350004076957703 -0.38177299499511719 0.031668998301029205
  endloop
 endfacet
 facet normal -0.99963884537210534 0.026873385032853209 0
  outer loop
   vertex -0.0091350004076957703 -0.38177299499511719 0.031668998301029205
   vertex -0.0073379999957978725 -0.31492799520492554 0.031083999201655388
   vertex -0.0073379999957978725 -0.31492799520492554 0.028915999457240105
  endloop
 endfacet
 facet normal -0.99963884537210534 0.026873385032853209 0
  outer loop
   vertex -0.0091350004076957703 -0.38177299499511719 0.031668998301029205
   vertex -0.0073379999957978725 -0.31492799520492554 0.028915999457240105
   vertex -0.0091350004076957703 -0.38177299499511719 0.028331000357866287
  endloop
 endfacet
 facet normal -0.95544495865574097 0.0231100494660085 0.2942632437002759
  outer loop
   vertex -0.0091350004076957703 -0.38177299499511719 0.028331000357866287
   vertex -0.0073379999957978725 -0.31492799520492554 0.028915999457240105
   vertex -0.0079669998958706856 -0.28519999980926514 0.024538999423384666
  endloop
 endfacet
 facet normal -0.98180246269048221 0.0044196696612249795 -0.18985360353438088
  outer loop
   vertex -0.0091350004076957703 -0.38177299499511719 0.028331000357866287
   vertex -0.0079669998958706856 -0.28519999980926514 0.024538999423384666
   vertex -0.0082059996202588081 -0.35238200426101685 0.02421100065112114
  endloop
 endfacet
 facet normal -0.77094937089629001 0.0058520004027582308 -0.6368695483424377
  outer loop
   vertex -0.0082059996202588081 -0.35238200426101685 0.02421100065112114
   vertex -0.0079669998958706856 -0.28519999980926514 0.024538999423384666
   vertex -0.0040000001899898052 -0.25547099113464355 0.020010000094771385
  endloop
 endfacet
 facet normal 0.46913469414666054 0 -0.88312662667814479
  outer loop
   vertex -0.0040000001899898052 -0.25547099113464355 0.020010000094771385
   vertex -0.0040000001899898052 -0.20542100071907043 0.020010000094771385
   vertex 0.0012369999894872308 -0.17636600136756897 0.022792000323534012
  endloop
 endfacet
 facet normal 0.34252416663502067 0.010362888388880278 -0.93945186455465834
  outer loop
   vertex -0.0040000001899898052 -0.25547099113464355 0.020010000094771385
   vertex 0.0012369999894872308 -0.17636600136756897 0.022792000323534012
   vertex 0.0015549999661743641 -0.22658400237560272 0.022353999316692352
  endloop
 endfacet
 facet normal -0.75223703437916567 -0 -0.65889258920436955
  outer loop
   vertex -0.0079669998958706856 -0.28519999980926514 0.024538999423384666
   vertex -0.0040000001899898052 -0.20542100071907043 0.020010000094771385
   vertex -0.0040000001899898052 -0.25547099113464355 0.020010000094771385
  endloop
 endfacet
 facet normal 0.8842832908010313 0.009671494448762941 -0.46685064400215437
  outer loop
   vertex 0.0015549999661743641 -0.22658400237560272 0.022353999316692352
   vertex 0.0012369999894872308 -0.17636600136756897 0.022792000323534012
   vertex 0.0034469999372959137 -0.14731000363826752 0.027580000460147858
  endloop
 endfacet
 facet normal 0.80136635009377388 0.020285014331848105 -0.59782981786704137
  outer loop
   vertex 0.0015549999661743641 -0.22658400237560272 0.022353999316692352
   vertex 0.0034469999372959137 -0.14731000363826752 0.027580000460147858
   vertex 0.0044740000739693642 -0.19769600033760071 0.027247000485658646
  endloop
 endfacet
 facet normal 0.99979233849193172 0.020378417328993138 -0
  outer loop
   vertex 0.0044740000739693642 -0.19769600033760071 0.027247000485658646
   vertex 0.0034469999372959137 -0.14731000363826752 0.027580000460147858
   vertex 0.0034469999372959137 -0.14731000363826752 0.032419998198747635
  endloop
 endfacet
 facet normal 0.99979233849193183 0.020378417328993138 0
  outer loop
   vertex 0.0044740000739693642 -0.19769600033760071 0.027247000485658646
   vertex 0.0034469999372959137 -0.14731000363826752 0.032419998198747635
   vertex 0.0044740000739693642 -0.19769600033760071 0.032752998173236847
  endloop
 endfacet
 facet normal 0.96877208257764247 0.021378755351709647 0.24702955458363512
  outer loop
   vertex 0.0044740000739693642 -0.19769600033760071 0.032752998173236847
   vertex 0.0034469999372959137 -0.14731000363826752 0.032419998198747635
   vertex 0.0015549999661743641 -0.12194900214672089 0.037645000964403152
  endloop
 endfacet
 facet normal 0.30699772947427634 -0.049550849878525899 0.95041943760318515
  outer loop
   vertex 0.0044740000739693642 -0.19769600033760071 0.032752998173236847
   vertex 0.0015549999661743641 -0.12194900214672089 0.037645000964403152
   vertex 0.00036400000681169331 -0.16074599325656891 0.036006998270750046
  endloop
 endfacet
 facet normal 0.34798169248546601 -0.050206785220686091 0.93615598081342977
  outer loop
   vertex 0.00036400000681169331 -0.16074599325656891 0.036006998270750046
   vertex 0.0015549999661743641 -0.12194900214672089 0.037645000964403152
   vertex -0.0040000001899898052 -0.096588000655174255 0.04106999933719635
  endloop
 endfacet
 facet normal -0.84555672561527195 -0.098916334659120281 0.52464214709112378
  outer loop
   vertex 0.00036400000681169331 -0.16074599325656891 0.036006998270750046
   vertex -0.0040000001899898052 -0.096588000655174255 0.04106999933719635
   vertex -0.0040000001899898052 -0.12379699945449829 0.035939998924732208
  endloop
 endfacet
 facet normal 0.81047698548857849 -0.10852937394347216 0.57562872668481757
  outer loop
   vertex -0.0040000001899898052 -0.12379699945449829 0.035939998924732208
   vertex -0.0040000001899898052 -0.096588000655174255 0.04106999933719635
   vertex -0.0084429997950792313 -0.15604299306869507 0.036116000264883041
  endloop
 endfacet
 facet normal 0.24612076300981264 -0.028623756367406897 0.96881641738096447
  outer loop
   vertex -0.0040000001899898052 -0.12379699945449829 0.035939998924732208
   vertex -0.0084429997950792313 -0.15604299306869507 0.036116000264883041
   vertex -0.0067770001478493214 -0.21936200559139252 0.033822000026702881
  endloop
 endfacet
 facet normal -0.94048940271698334 -0.036983814582697193 0.33780450091134739
  outer loop
   vertex -0.0067770001478493214 -0.21936200559139252 0.033822000026702881
   vertex -0.0084429997950792313 -0.15604299306869507 0.036116000264883041
   vertex -0.0078520001843571663 -0.21549899876117706 0.031252000480890274
  endloop
 endfacet
 facet normal -0.92540786372776163 -0.0054241841673346117 0.37893385171681271
  outer loop
   vertex -0.0067770001478493214 -0.21936200559139252 0.033822000026702881
   vertex -0.0078520001843571663 -0.21549899876117706 0.031252000480890274
   vertex -0.0073379999957978725 -0.31492799520492554 0.031083999201655388
  endloop
 endfacet
 facet normal -0.99998663829914325 -0.0051694509552183141 -0
  outer loop
   vertex -0.0073379999957978725 -0.31492799520492554 0.031083999201655388
   vertex -0.0078520001843571663 -0.21549899876117706 0.031252000480890274
   vertex -0.0078520001843571663 -0.21549899876117706 0.028748000040650368
  endloop
 endfacet
 facet normal -0.99998663829914325 -0.0051694509552183141 0
  outer loop
   vertex -0.0073379999957978725 -0.31492799520492554 0.031083999201655388
   vertex -0.0078520001843571663 -0.21549899876117706 0.028748000040650368
   vertex -0.0073379999957978725 -0.31492799520492554 0.028915999457240105
  endloop
 endfacet
 facet normal -0.99841635544257956 -0.0050666664826809031 0.056027761650005052
  outer loop
   vertex -0.0073379999957978725 -0.31492799520492554 0.028915999457240105
   vertex -0.0078520001843571663 -0.21549899876117706 0.028748000040650368
   vertex -0.0081259999424219131 -0.21046000719070435 0.024320999160408974
  endloop
 endfacet
 facet normal -0.9914155510189222 -0.0017277814260123153 0.13073721723056145
  outer loop
   vertex -0.0073379999957978725 -0.31492799520492554 0.028915999457240105
   vertex -0.0081259999424219131 -0.21046000719070435 0.024320999160408974
   vertex -0.0079669998958706856 -0.28519999980926514 0.024538999423384666
  endloop
 endfacet
 facet normal -0.72035415339339826 -0.00355553612291209 -0.693597326877605
  outer loop
   vertex -0.0079669998958706856 -0.28519999980926514 0.024538999423384666
   vertex -0.0081259999424219131 -0.21046000719070435 0.024320999160408974
   vertex -0.0040000001899898052 -0.20542100071907043 0.020010000094771385
  endloop
 endfacet
 facet normal 0.29125364612014887 0.030338388899157763 -0.95616468026209922
  outer loop
   vertex -0.0040000001899898052 -0.20542100071907043 0.020010000094771385
   vertex -0.0040000001899898052 -0.15436400473117828 0.021630000323057175
   vertex 0.00044299999717622995 -0.12597900629043579 0.0238840002566576
  endloop
 endfacet
 facet normal 0.35341553588525326 0.025835070680416548 -0.93510962358318039
  outer loop
   vertex -0.0040000001899898052 -0.20542100071907043 0.020010000094771385
   vertex 0.00044299999717622995 -0.12597900629043579 0.0238840002566576
   vertex 0.0012369999894872308 -0.17636600136756897 0.022792000323534012
  endloop
 endfacet
 facet normal -0.73471274962693145 0.021513609893100753 -0.67803712296968033
  outer loop
   vertex -0.0081259999424219131 -0.21046000719070435 0.024320999160408974
   vertex -0.0040000001899898052 -0.15436400473117828 0.021630000323057175
   vertex -0.0040000001899898052 -0.20542100071907043 0.020010000094771385
  endloop
 endfacet
 facet normal 0.81515070090113995 0.025386742497306738 -0.57869236052133566
  outer loop
   vertex 0.0012369999894872308 -0.17636600136756897 0.022792000323534012
   vertex 0.00044299999717622995 -0.12597900629043579 0.0238840002566576
   vertex 0.0024200000334531069 -0.097594998776912689 0.027914000675082207
  endloop
 endfacet
 facet normal 0.85280015309090285 0.021122603708789506 -0.52181005595972763
  outer loop
   vertex 0.0012369999894872308 -0.17636600136756897 0.022792000323534012
   vertex 0.0024200000334531069 -0.097594998776912689 0.027914000675082207
   vertex 0.0034469999372959137 -0.14731000363826752 0.027580000460147858
  endloop
 endfacet
 facet normal 0.99978669704793255 0.020653338858057639 -0
  outer loop
   vertex 0.0034469999372959137 -0.14731000363826752 0.027580000460147858
   vertex 0.0024200000334531069 -0.097594998776912689 0.027914000675082207
   vertex 0.0024200000334531069 -0.097594998776912689 0.032085999846458435
  endloop
 endfacet
 facet normal 0.99978669704793244 0.020653338858057639 0
  outer loop
   vertex 0.0034469999372959137 -0.14731000363826752 0.027580000460147858
   vertex 0.0024200000334531069 -0.097594998776912689 0.032085999846458435
   vertex 0.0034469999372959137 -0.14731000363826752 0.032419998198747635
  endloop
 endfacet
 facet normal 0.9889229052133186 0.019440315359428695 -0.14715149229000604
  outer loop
   vertex 0.0034469999372959137 -0.14731000363826752 0.032419998198747635
   vertex 0.0024200000334531069 -0.097594998776912689 0.032085999846458435
   vertex 0.0035379999317228794 -0.09171699732542038 0.040376000106334686
  endloop
 endfacet
 facet normal 0.63256375984068558 -0.11073773359934116 0.76655087508494613
  outer loop
   vertex 0.0034469999372959137 -0.14731000363826752 0.032419998198747635
   vertex 0.0035379999317228794 -0.09171699732542038 0.040376000106334686
   vertex 0.0015549999661743641 -0.12194900214672089 0.037645000964403152
  endloop
 endfacet
 facet normal 0.70592084956254786 -0.10951703563225301 0.69977265812491862
  outer loop
   vertex 0.0015549999661743641 -0.12194900214672089 0.037645000964403152
   vertex 0.0035379999317228794 -0.09171699732542038 0.040376000106334686
   vertex -0.0040000001899898052 -0.085840001702308655 0.048900000751018524
  endloop
 endfacet
 facet normal -0.909646594237557 -0.24458768831647276 0.33573789824209216
  outer loop
   vertex 0.0015549999661743641 -0.12194900214672089 0.037645000964403152
   vertex -0.0040000001899898052 -0.085840001702308655 0.048900000751018524
   vertex -0.0040000001899898052 -0.096588000655174255 0.04106999933719635
  endloop
 endfacet
 facet normal 0.84418244085964955 -0.31564285804752407 0.43327311560704418
  outer loop
   vertex -0.0040000001899898052 -0.096588000655174255 0.04106999933719635
   vertex -0.0040000001899898052 -0.085840001702308655 0.048900000751018524
   vertex -0.010745000094175339 -0.117078997194767 0.039283998310565948
  endloop
 endfacet
 facet normal -0.015026860595893986 -0.081911140859806664 0.99652634609611623
  outer loop
   vertex -0.0040000001899898052 -0.096588000655174255 0.04106999933719635
   vertex -0.010745000094175339 -0.117078997194767 0.039283998310565948
   vertex -0.0084429997950792313 -0.15604299306869507 0.036116000264883041
  endloop
 endfacet
 facet normal -0.9813977904006157 -0.04276381201396523 -0.18716205111833809
  outer loop
   vertex -0.0084429997950792313 -0.15604299306869507 0.036116000264883041
   vertex -0.010745000094175339 -0.117078997194767 0.039283998310565948
   vertex -0.0078520001843571663 -0.14831799268722534 0.031252000480890274
  endloop
 endfacet
 facet normal -0.99269902638500207 -0 -0.12061775580016793
  outer loop
   vertex -0.0084429997950792313 -0.15604299306869507 0.036116000264883041
   vertex -0.0078520001843571663 -0.14831799268722534 0.031252000480890274
   vertex -0.0078520001843571663 -0.21549899876117706 0.031252000480890274
  endloop
 endfacet
 facet normal -1 -0 -0
  outer loop
   vertex -0.0078520001843571663 -0.21549899876117706 0.031252000480890274
   vertex -0.0078520001843571663 -0.14831799268722534 0.031252000480890274
   vertex -0.0078520001843571663 -0.14831799268722534 0.028748000040650368
  endloop
 endfacet
 facet normal -1 0 0
  outer loop
   vertex -0.0078520001843571663 -0.21549899876117706 0.031252000480890274
   vertex -0.0078520001843571663 -0.14831799268722534 0.028748000040650368
   vertex -0.0078520001843571663 -0.21549899876117706 0.028748000040650368
  endloop
 endfacet
 facet normal -0.99856914009012998 -0 -0.053475905412235888
  outer loop
   vertex -0.0078520001843571663 -0.21549899876117706 0.028748000040650368
   vertex -0.0078520001843571663 -0.14831799268722534 0.028748000040650368
   vertex -0.0076500000432133675 -0.15133999288082123 0.024976000189781189
  endloop
 endfacet
 facet normal -0.99752071383177499 0.0072559307670141977 0.069998406733657773
  outer loop
   vertex -0.0078520001843571663 -0.21549899876117706 0.028748000040650368
   vertex -0.0076500000432133675 -0.15133999288082123 0.024976000189781189
   vertex -0.0081259999424219131 -0.21046000719070435 0.024320999160408974
  endloop
 endfacet
 facet normal -0.66952597505386269 0.013618735553973202 -0.74266378582107084
  outer loop
   vertex -0.0081259999424219131 -0.21046000719070435 0.024320999160408974
   vertex -0.0076500000432133675 -0.15133999288082123 0.024976000189781189
   vertex -0.0040000001899898052 -0.15436400473117828 0.021630000323057175
  endloop
 endfacet
 facet normal -0.34458842161731207 0.07447301731766999 -0.93579516422072406
  outer loop
   vertex -0.0040000001899898052 -0.15436400473117828 0.021630000323057175
   vertex -0.0040000001899898052 -0.12043700367212296 0.024329999461770058
   vertex 0.00012599999899975955 -0.10145899653434753 0.024320999160408974
  endloop
 endfacet
 facet normal 0.34150081853313496 0.021161444136680196 -0.9396432217726306
  outer loop
   vertex -0.0040000001899898052 -0.15436400473117828 0.021630000323057175
   vertex 0.00012599999899975955 -0.10145899653434753 0.024320999160408974
   vertex 0.00044299999717622995 -0.12597900629043579 0.0238840002566576
  endloop
 endfacet
 facet normal -0.64680545013025947 0.060502783616776502 -0.76025135505069241
  outer loop
   vertex -0.0076500000432133675 -0.15133999288082123 0.024976000189781189
   vertex -0.0040000001899898052 -0.12043700367212296 0.024329999461770058
   vertex -0.0040000001899898052 -0.15436400473117828 0.021630000323057175
  endloop
 endfacet
 facet normal 0.55936298636099602 0.02199953588751179 -0.82863084054966363
  outer loop
   vertex 0.00044299999717622995 -0.12597900629043579 0.0238840002566576
   vertex 0.00012599999899975955 -0.10145899653434753 0.024320999160408974
   vertex 0.0039599998854100704 -0.082479998469352722 0.027412999421358109
  endloop
 endfacet
 facet normal 0.97914494636145222 -0.093787147967208842 0.18021971282577781
  outer loop
   vertex 0.00044299999717622995 -0.12597900629043579 0.0238840002566576
   vertex 0.0039599998854100704 -0.082479998469352722 0.027412999421358109
   vertex 0.0024200000334531069 -0.097594998776912689 0.027914000675082207
  endloop
 endfacet
 facet normal 0.99484973203901217 -0.10136079450115654 0
  outer loop
   vertex 0.0024200000334531069 -0.097594998776912689 0.027914000675082207
   vertex 0.0039599998854100704 -0.082479998469352722 0.027412999421358109
   vertex 0.0039599998854100704 -0.082479998469352722 0.032586999237537384
  endloop
 endfacet
 facet normal 0.99484973203901228 -0.10136079450115655 0
  outer loop
   vertex 0.0024200000334531069 -0.097594998776912689 0.027914000675082207
   vertex 0.0039599998854100704 -0.082479998469352722 0.032586999237537384
   vertex 0.0024200000334531069 -0.097594998776912689 0.032085999846458435
  endloop
 endfacet
 facet normal 0.99204769634916656 -0.10345146505389417 0.071687952589779946
  outer loop
   vertex 0.0024200000334531069 -0.097594998776912689 0.032085999846458435
   vertex 0.0039599998854100704 -0.082479998469352722 0.032586999237537384
   vertex 0.0038560000248253345 -0.077776998281478882 0.04081299901008606
  endloop
 endfacet
 facet normal 0.99253666045163635 -0.018864975411095018 -0.12047858881250204
  outer loop
   vertex 0.0024200000334531069 -0.097594998776912689 0.032085999846458435
   vertex 0.0038560000248253345 -0.077776998281478882 0.04081299901008606
   vertex 0.0035379999317228794 -0.09171699732542038 0.040376000106334686
  endloop
 endfacet
 facet normal 0.68020138306664601 -0.038464424205737896 0.73201541414422611
  outer loop
   vertex 0.0035379999317228794 -0.09171699732542038 0.040376000106334686
   vertex 0.0038560000248253345 -0.077776998281478882 0.04081299901008606
   vertex -0.0040000001899898052 -0.073074996471405029 0.048360001295804977
  endloop
 endfacet
 facet normal 0.75817270748493359 0.027559256641928594 0.65147112982718558
  outer loop
   vertex 0.0035379999317228794 -0.09171699732542038 0.040376000106334686
   vertex -0.0040000001899898052 -0.073074996471405029 0.048360001295804977
   vertex -0.0040000001899898052 -0.085840001702308655 0.048900000751018524
  endloop
 endfacet
 facet normal -0.7903378563809953 0.02589474171877643 0.61212379068486733
  outer loop
   vertex -0.0040000001899898052 -0.085840001702308655 0.048900000751018524
   vertex -0.0040000001899898052 -0.073074996471405029 0.048360001295804977
   vertex -0.011220999993383884 -0.094405002892017365 0.039939001202583313
  endloop
 endfacet
 facet normal -0.76172819093522326 -0.034680628107818426 0.64696786409264495
  outer loop
   vertex -0.0040000001899898052 -0.085840001702308655 0.048900000751018524
   vertex -0.011220999993383884 -0.094405002892017365 0.039939001202583313
   vertex -0.010745000094175339 -0.117078997194767 0.039283998310565948
  endloop
 endfacet
 facet normal -0.99305785137037572 -0.017487241738678019 -0.1163198186382098
  outer loop
   vertex -0.010745000094175339 -0.117078997194767 0.039283998310565948
   vertex -0.011220999993383884 -0.094405002892017365 0.039939001202583313
   vertex -0.0099060004577040672 -0.11573400348424911 0.031918998807668686
  endloop
 endfacet
 facet normal -0.99050050670113876 -0.059904597845576245 -0.12377473644386004
  outer loop
   vertex -0.010745000094175339 -0.117078997194767 0.039283998310565948
   vertex -0.0099060004577040672 -0.11573400348424911 0.031918998807668686
   vertex -0.0078520001843571663 -0.14831799268722534 0.031252000480890274
  endloop
 endfacet
 facet normal -0.99801906359139281 -0.062912230195402152 -0
  outer loop
   vertex -0.0078520001843571663 -0.14831799268722534 0.031252000480890274
   vertex -0.0099060004577040672 -0.11573400348424911 0.031918998807668686
   vertex -0.0099060004577040672 -0.11573400348424911 0.028080999851226807
  endloop
 endfacet
 facet normal -0.99801906359139292 -0.062912230195402166 0
  outer loop
   vertex -0.0078520001843571663 -0.14831799268722534 0.031252000480890274
   vertex -0.0099060004577040672 -0.11573400348424911 0.028080999851226807
   vertex -0.0078520001843571663 -0.14831799268722534 0.028748000040650368
  endloop
 endfacet
 facet normal -0.78982146706374345 -0.062278281400316 -0.61016675247927021
  outer loop
   vertex -0.0078520001843571663 -0.14831799268722534 0.028748000040650368
   vertex -0.0099060004577040672 -0.11573400348424911 0.028080999851226807
   vertex -0.0074909999966621399 -0.11808600276708603 0.025195000693202019
  endloop
 endfacet
 facet normal -0.99832695955205464 0.0051526600833452559 -0.057591075051744982
  outer loop
   vertex -0.0078520001843571663 -0.14831799268722534 0.028748000040650368
   vertex -0.0074909999966621399 -0.11808600276708603 0.025195000693202019
   vertex -0.0076500000432133675 -0.15133999288082123 0.024976000189781189
  endloop
 endfacet
 facet normal -0.23572181420419541 0.0075269941901223575 -0.971791423437532
  outer loop
   vertex -0.0076500000432133675 -0.15133999288082123 0.024976000189781189
   vertex -0.0074909999966621399 -0.11808600276708603 0.025195000693202019
   vertex -0.0040000001899898052 -0.12043700367212296 0.024329999461770058
  endloop
 endfacet
 facet normal -0.58609290116997959 0.047716417508128633 -0.80883759476074457
  outer loop
   vertex -0.0040000001899898052 -0.12043700367212296 0.024329999461770058
   vertex -0.0040000001899898052 -0.083823002874851227 0.026489999145269394
   vertex 0.0011579999700188637 -0.081304997205734253 0.022901000455021858
  endloop
 endfacet
 facet normal 0.38668118932081286 -0.084503706243163598 -0.91833369831266176
  outer loop
   vertex -0.0040000001899898052 -0.12043700367212296 0.024329999461770058
   vertex 0.0011579999700188637 -0.081304997205734253 0.022901000455021858
   vertex 0.00012599999899975955 -0.10145899653434753 0.024320999160408974
  endloop
 endfacet
 facet normal -0.20335062794640177 0.05766094892522184 -0.9774066385506327
  outer loop
   vertex -0.0074909999966621399 -0.11808600276708603 0.025195000693202019
   vertex -0.0040000001899898052 -0.083823002874851227 0.026489999145269394
   vertex -0.0040000001899898052 -0.12043700367212296 0.024329999461770058
  endloop
 endfacet
 facet normal 0.34103834041560882 -0.083435164859325159 -0.93633937417555213
  outer loop
   vertex 0.00012599999899975955 -0.10145899653434753 0.024320999160408974
   vertex 0.0011579999700188637 -0.081304997205734253 0.022901000455021858
   vertex 0.009352000430226326 -0.078786000609397888 0.025660999119281769
  endloop
 endfacet
 facet normal 0.4398130935084687 -0.23027063616384857 0.86806674679958074
  outer loop
   vertex 0.00012599999899975955 -0.10145899653434753 0.024320999160408974
   vertex 0.009352000430226326 -0.078786000609397888 0.025660999119281769
   vertex 0.0039599998854100704 -0.082479998469352722 0.027412999421358109
  endloop
 endfacet
 facet normal 0.56517719041828685 -0.82496954091099117 0
  outer loop
   vertex 0.0039599998854100704 -0.082479998469352722 0.027412999421358109
   vertex 0.009352000430226326 -0.078786000609397888 0.025660999119281769
   vertex 0.009352000430226326 -0.078786000609397888 0.034338999539613724
  endloop
 endfacet
 facet normal 0.56517719041828685 -0.82496954091099106 0
  outer loop
   vertex 0.0039599998854100704 -0.082479998469352722 0.027412999421358109
   vertex 0.009352000430226326 -0.078786000609397888 0.034338999539613724
   vertex 0.0039599998854100704 -0.082479998469352722 0.032586999237537384
  endloop
 endfacet
 facet normal 0.13401332132896446 -0.5775465332744647 0.80528282709184074
  outer loop
   vertex 0.0039599998854100704 -0.082479998469352722 0.032586999237537384
   vertex 0.009352000430226326 -0.078786000609397888 0.034338999539613724
   vertex 0.003140999935567379 -0.072571001946926117 0.039829999208450317
  endloop
 endfacet
 facet normal 0.99041930978438719 0.12490614168211464 -0.058890122909580789
  outer loop
   vertex 0.0039599998854100704 -0.082479998469352722 0.032586999237537384
   vertex 0.003140999935567379 -0.072571001946926117 0.039829999208450317
   vertex 0.0038560000248253345 -0.077776998281478882 0.04081299901008606
  endloop
 endfacet
 facet normal 0.24150978220613922 0.21197559857045872 0.94696323619739264
  outer loop
   vertex 0.0038560000248253345 -0.077776998281478882 0.04081299901008606
   vertex 0.003140999935567379 -0.072571001946926117 0.039829999208450317
   vertex -0.0040000001899898052 -0.066356003284454346 0.040259998291730881
  endloop
 endfacet
 facet normal 0.73186953264652999 0.52448652928395867 0.43506421110385202
  outer loop
   vertex 0.0038560000248253345 -0.077776998281478882 0.04081299901008606
   vertex -0.0040000001899898052 -0.066356003284454346 0.040259998291730881
   vertex -0.0040000001899898052 -0.073074996471405029 0.048360001295804977
  endloop
 endfacet
 facet normal -0.20304615611761292 0.75363558992120749 0.62514450816589251
  outer loop
   vertex -0.0040000001899898052 -0.073074996471405029 0.048360001295804977
   vertex -0.0040000001899898052 -0.066356003284454346 0.040259998291730881
   vertex -0.01193500030785799 -0.069043003022670746 0.040922001004219055
  endloop
 endfacet
 facet normal -0.69582714212336361 -0.04736548429776552 0.71664572780535751
  outer loop
   vertex -0.0040000001899898052 -0.073074996471405029 0.048360001295804977
   vertex -0.01193500030785799 -0.069043003022670746 0.040922001004219055
   vertex -0.011220999993383884 -0.094405002892017365 0.039939001202583313
  endloop
 endfacet
 facet normal -0.57291792915359863 -0.047842008213000581 0.81821524594968231
  outer loop
   vertex -0.011220999993383884 -0.094405002892017365 0.039939001202583313
   vertex -0.01193500030785799 -0.069043003022670746 0.040922001004219055
   vertex -0.019920999184250832 -0.071731001138687134 0.035172998905181885
  endloop
 endfacet
 facet normal -0.85319059138942743 -0.22884590619555592 0.46871672253301783
  outer loop
   vertex -0.011220999993383884 -0.094405002892017365 0.039939001202583313
   vertex -0.019920999184250832 -0.071731001138687134 0.035172998905181885
   vertex -0.0099060004577040672 -0.11573400348424911 0.031918998807668686
  endloop
 endfacet
 facet normal -0.97506425101284033 -0.22192274871398104 -0
  outer loop
   vertex -0.0099060004577040672 -0.11573400348424911 0.031918998807668686
   vertex -0.019920999184250832 -0.071731001138687134 0.035172998905181885
   vertex -0.019920999184250832 -0.071731001138687134 0.024826999753713608
  endloop
 endfacet
 facet normal -0.97506425101284022 -0.22192274871398104 0
  outer loop
   vertex -0.0099060004577040672 -0.11573400348424911 0.031918998807668686
   vertex -0.019920999184250832 -0.071731001138687134 0.024826999753713608
   vertex -0.0099060004577040672 -0.11573400348424911 0.028080999851226807
  endloop
 endfacet
 facet normal -0.36964625098470905 -0.15191801238698893 -0.91666927877252224
  outer loop
   vertex -0.0099060004577040672 -0.11573400348424911 0.028080999851226807
   vertex -0.019920999184250832 -0.071731001138687134 0.024826999753713608
   vertex -0.0099520003423094749 -0.077776998281478882 0.02180900052189827
  endloop
 endfacet
 facet normal -0.80122827547194986 -0.09849483698462734 -0.59019659239241373
  outer loop
   vertex -0.0099060004577040672 -0.11573400348424911 0.028080999851226807
   vertex -0.0099520003423094749 -0.077776998281478882 0.02180900052189827
   vertex -0.0074909999966621399 -0.11808600276708603 0.025195000693202019
  endloop
 endfacet
 facet normal 0.59842891707866475 -0.030714075423165101 -0.80058695765978893
  outer loop
   vertex -0.0074909999966621399 -0.11808600276708603 0.025195000693202019
   vertex -0.0099520003423094749 -0.077776998281478882 0.02180900052189827
   vertex -0.0040000001899898052 -0.083823002874851227 0.026489999145269394
  endloop
 endfacet
 facet normal -0.21779527360126011 -0.039194043561251182 -0.97520718093452896
  outer loop
   vertex -0.0040000001899898052 -0.083823002874851227 0.026489999145269394
   vertex -0.0040000001899898052 -0.070386998355388641 0.025949999690055847
   vertex -0.0004290000069886446 -0.06870800256729126 0.025085000321269035
  endloop
 endfacet
 facet normal -0.59110806959906614 0.064919769263462629 -0.80397554292008422
  outer loop
   vertex -0.0040000001899898052 -0.083823002874851227 0.026489999145269394
   vertex -0.0004290000069886446 -0.06870800256729126 0.025085000321269035
   vertex 0.0011579999700188637 -0.081304997205734253 0.022901000455021858
  endloop
 endfacet
 facet normal 0.59744694576304069 -0.032203086284434621 -0.8012615729162178
  outer loop
   vertex -0.0099520003423094749 -0.077776998281478882 0.02180900052189827
   vertex -0.0040000001899898052 -0.070386998355388641 0.025949999690055847
   vertex -0.0040000001899898052 -0.083823002874851227 0.026489999145269394
  endloop
 endfacet
 facet normal 0.42919931748509521 0.20651698623882422 -0.87928304900365362
  outer loop
   vertex 0.0011579999700188637 -0.081304997205734253 0.022901000455021858
   vertex -0.0004290000069886446 -0.06870800256729126 0.025085000321269035
   vertex 0.0037040000315755606 -0.067028000950813293 0.027496999129652977
  endloop
 endfacet
 facet normal 0.23569705534349117 0.25945949089973636 -0.93655094398780936
  outer loop
   vertex 0.0011579999700188637 -0.081304997205734253 0.022901000455021858
   vertex 0.0037040000315755606 -0.067028000950813293 0.027496999129652977
   vertex 0.009352000430226326 -0.078786000609397888 0.025660999119281769
  endloop
 endfacet
 facet normal 0.90139858867934075 0.43299028202361856 -0
  outer loop
   vertex 0.009352000430226326 -0.078786000609397888 0.025660999119281769
   vertex 0.0037040000315755606 -0.067028000950813293 0.027496999129652977
   vertex 0.0037040000315755606 -0.067028000950813293 0.032503001391887665
  endloop
 endfacet
 facet normal 0.90139858867934075 0.4329902820236185 0
  outer loop
   vertex 0.009352000430226326 -0.078786000609397888 0.025660999119281769
   vertex 0.0037040000315755606 -0.067028000950813293 0.032503001391887665
   vertex 0.009352000430226326 -0.078786000609397888 0.034338999539613724
  endloop
 endfacet
 facet normal 0.69828897248906996 0.42532851181130543 0.57575009156798163
  outer loop
   vertex 0.009352000430226326 -0.078786000609397888 0.034338999539613724
   vertex 0.0037040000315755606 -0.067028000950813293 0.032503001391887665
   vertex -0.00019099999917671084 -0.064341001212596893 0.035241998732089996
  endloop
 endfacet
 facet normal 0.79726271173772012 0.50614486652043966 0.32892178791868287
  outer loop
   vertex 0.009352000430226326 -0.078786000609397888 0.034338999539613724
   vertex -0.00019099999917671084 -0.064341001212596893 0.035241998732089996
   vertex 0.003140999935567379 -0.072571001946926117 0.039829999208450317
  endloop
 endfacet
 facet normal 0.31547600768647976 0.55629371821364615 0.76877317048023774
  outer loop
   vertex 0.003140999935567379 -0.072571001946926117 0.039829999208450317
   vertex -0.00019099999917671084 -0.064341001212596893 0.035241998732089996
   vertex -0.0040000001899898052 -0.061652999371290207 0.034860000014305115
  endloop
 endfacet
 facet normal 0.57117805283168277 0.61898243395200447 0.53908846994000892
  outer loop
   vertex 0.003140999935567379 -0.072571001946926117 0.039829999208450317
   vertex -0.0040000001899898052 -0.061652999371290207 0.034860000014305115
   vertex -0.0040000001899898052 -0.066356003284454346 0.040259998291730881
  endloop
 endfacet
 facet normal 0.43724994535487971 0.6781894717188689 0.59065347348241026
  outer loop
   vertex -0.0040000001899898052 -0.066356003284454346 0.040259998291730881
   vertex -0.0040000001899898052 -0.061652999371290207 0.034860000014305115
   vertex -0.0070949997752904892 -0.05913500115275383 0.03426000103354454
  endloop
 endfacet
 facet normal -0.13653808685639712 0.59782459092766849 0.78991335557753484
  outer loop
   vertex -0.0040000001899898052 -0.066356003284454346 0.040259998291730881
   vertex -0.0070949997752904892 -0.05913500115275383 0.03426000103354454
   vertex -0.01193500030785799 -0.069043003022670746 0.040922001004219055
  endloop
 endfacet
 facet normal -0.17843209477657637 0.60756713594566403 0.77396651275906381
  outer loop
   vertex -0.01193500030785799 -0.069043003022670746 0.040922001004219055
   vertex -0.0070949997752904892 -0.05913500115275383 0.03426000103354454
   vertex -0.0093930000439286232 -0.05661499872803688 0.031752001494169235
  endloop
 endfacet
 facet normal -0.6018746514463178 0.55019107567765368 0.57882353458635405
  outer loop
   vertex -0.01193500030785799 -0.069043003022670746 0.040922001004219055
   vertex -0.0093930000439286232 -0.05661499872803688 0.031752001494169235
   vertex -0.019920999184250832 -0.071731001138687134 0.035172998905181885
  endloop
 endfacet
 facet normal -0.8205864766298856 0.57152238308936809 0
  outer loop
   vertex -0.019920999184250832 -0.071731001138687134 0.035172998905181885
   vertex -0.0093930000439286232 -0.05661499872803688 0.031752001494169235
   vertex -0.0093930000439286232 -0.05661499872803688 0.028248000890016556
  endloop
 endfacet
 facet normal -0.8205864766298856 0.57152238308936809 0
  outer loop
   vertex -0.019920999184250832 -0.071731001138687134 0.035172998905181885
   vertex -0.0093930000439286232 -0.05661499872803688 0.028248000890016556
   vertex -0.019920999184250832 -0.071731001138687134 0.024826999753713608
  endloop
 endfacet
 facet normal -0.081253496387897417 0.27350085023376791 -0.9584336984091012
  outer loop
   vertex -0.019920999184250832 -0.071731001138687134 0.024826999753713608
   vertex -0.0093930000439286232 -0.05661499872803688 0.028248000890016556
   vertex -0.0068569998256862164 -0.06350100040435791 0.026068000122904778
  endloop
 endfacet
 facet normal -0.10194585871805834 0.30462327223579178 -0.94700142761381123
  outer loop
   vertex -0.019920999184250832 -0.071731001138687134 0.024826999753713608
   vertex -0.0068569998256862164 -0.06350100040435791 0.026068000122904778
   vertex -0.0099520003423094749 -0.077776998281478882 0.02180900052189827
  endloop
 endfacet
 facet normal 0.39993097549180323 0.18132705523991755 -0.89842958203756551
  outer loop
   vertex -0.0099520003423094749 -0.077776998281478882 0.02180900052189827
   vertex -0.0068569998256862164 -0.06350100040435791 0.026068000122904778
   vertex -0.0040000001899898052 -0.070386998355388641 0.025949999690055847
  endloop
 endfacet
 facet normal -0.44028977009769743 0.58595916748622456 -0.68029168184402145
  outer loop
   vertex -0.0040000001899898052 -0.070386998355388641 0.025949999690055847
   vertex -0.0040000001899898052 -0.065684996545314789 0.029999999329447746
   vertex -0.0004290000069886446 -0.06870800256729126 0.025085000321269035
  endloop
 endfacet
 facet normal 0.83896106266255199 0.35515056333364559 -0.41232561489666836
  outer loop
   vertex -0.0068569998256862164 -0.06350100040435791 0.026068000122904778
   vertex -0.0040000001899898052 -0.065684996545314789 0.029999999329447746
   vertex -0.0040000001899898052 -0.070386998355388641 0.025949999690055847
  endloop
 endfacet
 facet normal -0.028116690174620654 0.84220098136996668 -0.53843008711724993
  outer loop
   vertex -0.0004290000069886446 -0.06870800256729126 0.025085000321269035
   vertex -0.0040000001899898052 -0.065684996545314789 0.029999999329447746
   vertex 0.0037040000315755606 -0.067028000950813293 0.027496999129652977
  endloop
 endfacet
 facet normal 0.17173564951432729 0.98514306914574201 0
  outer loop
   vertex 0.0037040000315755606 -0.067028000950813293 0.027496999129652977
   vertex -0.0040000001899898052 -0.065684996545314789 0.029999999329447746
   vertex 0.0037040000315755606 -0.067028000950813293 0.032503001391887665
  endloop
 endfacet
 facet normal 0.28863383517088559 0.85586637147502298 -0.42916577609674789
  outer loop
   vertex 0.0037040000315755606 -0.067028000950813293 0.032503001391887665
   vertex -0.0040000001899898052 -0.065684996545314789 0.029999999329447746
   vertex -0.00019099999917671084 -0.064341001212596893 0.035241998732089996
  endloop
 endfacet
 facet normal 0.51898522075215714 0.65785959142742856 -0.54577934974472198
  outer loop
   vertex -0.00019099999917671084 -0.064341001212596893 0.035241998732089996
   vertex -0.0040000001899898052 -0.065684996545314789 0.029999999329447746
   vertex -0.0040000001899898052 -0.061652999371290207 0.034860000014305115
  endloop
 endfacet
 facet normal 0.59995956228944813 0.61572058979384248 -0.51081961485574989
  outer loop
   vertex -0.0040000001899898052 -0.061652999371290207 0.034860000014305115
   vertex -0.0040000001899898052 -0.065684996545314789 0.029999999329447746
   vertex -0.0070949997752904892 -0.05913500115275383 0.03426000103354454
  endloop
 endfacet
 facet normal 0.81955372338095789 0.52957360371518003 -0.2188229712359418
  outer loop
   vertex -0.0070949997752904892 -0.05913500115275383 0.03426000103354454
   vertex -0.0040000001899898052 -0.065684996545314789 0.029999999329447746
   vertex -0.0093930000439286232 -0.05661499872803688 0.031752001494169235
  endloop
 endfacet
 facet normal 0.85953471493813205 0.51107736578352225 0
  outer loop
   vertex -0.0093930000439286232 -0.05661499872803688 0.031752001494169235
   vertex -0.0040000001899898052 -0.065684996545314789 0.029999999329447746
   vertex -0.0093930000439286232 -0.05661499872803688 0.028248000890016556
  endloop
 endfacet
 facet normal 0.82873403402798507 0.42169149395563815 -0.3679350279181971
  outer loop
   vertex -0.0093930000439286232 -0.05661499872803688 0.028248000890016556
   vertex -0.0040000001899898052 -0.065684996545314789 0.029999999329447746
   vertex -0.0068569998256862164 -0.06350100040435791 0.026068000122904778
  endloop
 endfacet
endsolid
