solid Visualization Toolkit generated SLA File
 facet normal 0.85127430511252666 0.081502829509836977 -0.51835253084852906
  outer loop
   vertex 0.011837000027298927 -0.027605999261140823 -0.013919999822974205
   vertex 0.011978000402450562 -0.024048000574111938 -0.013128999620676041
   vertex 0.013152999803423882 -0.02742299996316433 -0.011730000376701355
  endloop
 endfacet
 facet normal 0.81924415354065927 -0.33674698293756883 -0.46415567040799288
  outer loop
   vertex 0.011281999759376049 -0.030205000191926956 -0.013013999909162521
   vertex 0.011837000027298927 -0.027605999261140823 -0.013919999822974205
   vertex 0.013152999803423882 -0.02742299996316433 -0.011730000376701355
  endloop
 endfacet
 facet normal 0.71887330662575388 0.12359056888396108 -0.6840661812309492
  outer loop
   vertex 0.011837000027298927 -0.027605999261140823 -0.013919999822974205
   vertex 0.0099489996209740639 -0.027267999947071075 -0.015843000262975693
   vertex 0.011978000402450562 -0.024048000574111938 -0.013128999620676041
  endloop
 endfacet
 facet normal 0.62873773418458612 -0.37225771776282696 -0.68272472723524813
  outer loop
   vertex 0.011281999759376049 -0.030205000191926956 -0.013013999909162521
   vertex 0.0099489996209740639 -0.027267999947071075 -0.015843000262975693
   vertex 0.011837000027298927 -0.027605999261140823 -0.013919999822974205
  endloop
 endfacet
 facet normal 0.83759835270629002 -0.071286744902115382 -0.54161536125277154
  outer loop
   vertex 0.0099489996209740639 -0.027267999947071075 -0.015843000262975693
   vertex 0.010017000138759613 -0.02456199936568737 -0.016093999147415161
   vertex 0.011978000402450562 -0.024048000574111938 -0.013128999620676041
  endloop
 endfacet
 facet normal 0.73410773423851383 0.39310521887902355 -0.55367329845430568
  outer loop
   vertex 0.011978000402450562 -0.024048000574111938 -0.013128999620676041
   vertex 0.010017000138759613 -0.02456199936568737 -0.016093999147415161
   vertex 0.0098500000312924385 -0.02302899956703186 -0.01522700022906065
  endloop
 endfacet
 facet normal 0.92574173604764021 0.36431573029144743 0.10137202178959732
  outer loop
   vertex 0.011978000402450562 -0.024048000574111938 -0.013128999620676041
   vertex 0.012284000404179096 -0.025570999830961227 -0.010449999943375587
   vertex 0.013152999803423882 -0.02742299996316433 -0.011730000376701355
  endloop
 endfacet
 facet normal -0.32080342337357559 0.80718212498013009 0.49552212933869677
  outer loop
   vertex 0.011978000402450562 -0.024048000574111938 -0.013128999620676041
   vertex 0.0096190003678202629 -0.02644599974155426 -0.010750000365078449
   vertex 0.012284000404179096 -0.025570999830961227 -0.010449999943375587
  endloop
 endfacet
 facet normal 0.14225900161366375 0.62307611965445986 0.7691154175910303
  outer loop
   vertex 0.011978000402450562 -0.024048000574111938 -0.013128999620676041
   vertex 0.007890000008046627 -0.023343000560998917 -0.012943999841809273
   vertex 0.0096190003678202629 -0.02644599974155426 -0.010750000365078449
  endloop
 endfacet
 facet normal 0.17543843252092539 0.94371040509065207 0.28041402910382024
  outer loop
   vertex 0.0098500000312924385 -0.02302899956703186 -0.01522700022906065
   vertex 0.007890000008046627 -0.023343000560998917 -0.012943999841809273
   vertex 0.011978000402450562 -0.024048000574111938 -0.013128999620676041
  endloop
 endfacet
 facet normal 0.76188918483801193 -0.23357157313178015 -0.60412679981243611
  outer loop
   vertex 0.011997000314295292 -0.031454998999834061 -0.011629000306129456
   vertex 0.011281999759376049 -0.030205000191926956 -0.013013999909162521
   vertex 0.013152999803423882 -0.02742299996316433 -0.011730000376701355
  endloop
 endfacet
 facet normal 0.80793665711996576 -0.027717954057696628 0.58861708529796386
  outer loop
   vertex 0.011636000126600266 -0.028957000002264977 -0.0097200004383921623
   vertex 0.013152999803423882 -0.02742299996316433 -0.011730000376701355
   vertex 0.012284000404179096 -0.025570999830961227 -0.010449999943375587
  endloop
 endfacet
 facet normal 0.85340791655655135 -0.23299754627619806 0.46626931208034406
  outer loop
   vertex 0.013152999803423882 -0.02742299996316433 -0.011730000376701355
   vertex 0.011636000126600266 -0.028957000002264977 -0.0097200004383921623
   vertex 0.011997000314295292 -0.031454998999834061 -0.011629000306129456
  endloop
 endfacet
 facet normal 0.76592886076770406 -0.22796564145064718 -0.60115276474543633
  outer loop
   vertex 0.011997000314295292 -0.031454998999834061 -0.011629000306129456
   vertex 0.010572999715805054 -0.032806001603603363 -0.01293100044131279
   vertex 0.011281999759376049 -0.030205000191926956 -0.013013999909162521
  endloop
 endfacet
 facet normal 0.57115640552721858 -0.42005764724996658 -0.7052176496742335
  outer loop
   vertex 0.0099489996209740639 -0.027267999947071075 -0.015843000262975693
   vertex 0.011281999759376049 -0.030205000191926956 -0.013013999909162521
   vertex 0.0086390003561973572 -0.032783001661300659 -0.013619000092148781
  endloop
 endfacet
 facet normal 0.33146343506736503 -0.12021395694500543 -0.93577806972004152
  outer loop
   vertex 0.010572999715805054 -0.032806001603603363 -0.01293100044131279
   vertex 0.0086390003561973572 -0.032783001661300659 -0.013619000092148781
   vertex 0.011281999759376049 -0.030205000191926956 -0.013013999909162521
  endloop
 endfacet
 facet normal 0.3982022342655982 -0.094637826890487178 -0.91240268650817336
  outer loop
   vertex 0.0070879999548196793 -0.024188999086618423 -0.017410999163985252
   vertex 0.010017000138759613 -0.02456199936568737 -0.016093999147415161
   vertex 0.0099489996209740639 -0.027267999947071075 -0.015843000262975693
  endloop
 endfacet
 facet normal 0.1918419736817685 -0.29794899407471176 -0.93510590526621695
  outer loop
   vertex 0.0070879999548196793 -0.024188999086618423 -0.017410999163985252
   vertex 0.0099489996209740639 -0.027267999947071075 -0.015843000262975693
   vertex 0.0036170000676065683 -0.027264999225735664 -0.017142999917268753
  endloop
 endfacet
 facet normal 0.10951311346532897 -0.39401409414278205 -0.91255672239920127
  outer loop
   vertex 0.0099489996209740639 -0.027267999947071075 -0.015843000262975693
   vertex 0.0086390003561973572 -0.032783001661300659 -0.013619000092148781
   vertex 0.0066249999217689037 -0.032062001526355743 -0.014171999879181385
  endloop
 endfacet
 facet normal 0.084489182227065487 -0.37969229754699829 -0.92124662130728252
  outer loop
   vertex 0.0060339998453855515 -0.029231000691652298 -0.015393000096082687
   vertex 0.0099489996209740639 -0.027267999947071075 -0.015843000262975693
   vertex 0.0066249999217689037 -0.032062001526355743 -0.014171999879181385
  endloop
 endfacet
 facet normal 0.17029360662763313 -0.53005971190011769 -0.83068453059035419
  outer loop
   vertex 0.0036170000676065683 -0.027264999225735664 -0.017142999917268753
   vertex 0.0099489996209740639 -0.027267999947071075 -0.015843000262975693
   vertex 0.0060339998453855515 -0.029231000691652298 -0.015393000096082687
  endloop
 endfacet
 facet normal 0.40957477705239981 0.48249464123771407 -0.77423990027598466
  outer loop
   vertex 0.010017000138759613 -0.02456199936568737 -0.016093999147415161
   vertex 0.0070879999548196793 -0.024188999086618423 -0.017410999163985252
   vertex 0.0098500000312924385 -0.02302899956703186 -0.01522700022906065
  endloop
 endfacet
 facet normal 0.40004149868510824 0.49712714188137991 -0.76995545594185044
  outer loop
   vertex 0.0084969997406005859 -0.022631000727415085 -0.015673000365495682
   vertex 0.0098500000312924385 -0.02302899956703186 -0.01522700022906065
   vertex 0.0070879999548196793 -0.024188999086618423 -0.017410999163985252
  endloop
 endfacet
 facet normal 0.18243717031385423 0.94069964673125761 0.28600848506217619
  outer loop
   vertex 0.0098500000312924385 -0.02302899956703186 -0.01522700022906065
   vertex 0.0084969997406005859 -0.022631000727415085 -0.015673000365495682
   vertex 0.007890000008046627 -0.023343000560998917 -0.012943999841809273
  endloop
 endfacet
 facet normal -0.18634965395522346 0.24100806634372079 0.95246465468700148
  outer loop
   vertex 0.012284000404179096 -0.025570999830961227 -0.010449999943375587
   vertex 0.0096190003678202629 -0.02644599974155426 -0.010750000365078449
   vertex 0.011636000126600266 -0.028957000002264977 -0.0097200004383921623
  endloop
 endfacet
 facet normal -0.20323183110490256 0.15771747749795501 0.96634466942050767
  outer loop
   vertex 0.0066709998063743114 -0.029147999361157417 -0.01092899963259697
   vertex 0.0096190003678202629 -0.02644599974155426 -0.010750000365078449
   vertex 0.0058909999206662178 -0.025422999635338783 -0.011700999923050404
  endloop
 endfacet
 facet normal -0.2390923257660236 0.19788463233859371 0.95061902571114842
  outer loop
   vertex 0.0066709998063743114 -0.029147999361157417 -0.01092899963259697
   vertex 0.011636000126600266 -0.028957000002264977 -0.0097200004383921623
   vertex 0.0096190003678202629 -0.02644599974155426 -0.010750000365078449
  endloop
 endfacet
 facet normal -0.059874253792254931 0.55383072889679474 0.83047371870665831
  outer loop
   vertex 0.007890000008046627 -0.023343000560998917 -0.012943999841809273
   vertex 0.0058909999206662178 -0.025422999635338783 -0.011700999923050404
   vertex 0.0096190003678202629 -0.02644599974155426 -0.010750000365078449
  endloop
 endfacet
 facet normal 0.28883935443498082 0.90871954358651652 0.30133140963646132
  outer loop
   vertex 0.007890000008046627 -0.023343000560998917 -0.012943999841809273
   vertex 0.0084969997406005859 -0.022631000727415085 -0.015673000365495682
   vertex 0.0065399999730288982 -0.022766999900341034 -0.013387000188231468
  endloop
 endfacet
 facet normal -0.04351946549949709 0.54297951657019627 0.83861749368101912
  outer loop
   vertex 0.0065399999730288982 -0.022766999900341034 -0.013387000188231468
   vertex 0.0058909999206662178 -0.025422999635338783 -0.011700999923050404
   vertex 0.007890000008046627 -0.023343000560998917 -0.012943999841809273
  endloop
 endfacet
 facet normal 0.58071293825084225 -0.43968705352874182 0.68516259260651902
  outer loop
   vertex 0.010123999789357185 -0.031796999275684357 -0.010261000134050846
   vertex 0.011997000314295292 -0.031454998999834061 -0.011629000306129456
   vertex 0.011636000126600266 -0.028957000002264977 -0.0097200004383921623
  endloop
 endfacet
 facet normal 0.57160565280859099 -0.795668093565017 0.20044765541127157
  outer loop
   vertex 0.010572999715805054 -0.032806001603603363 -0.01293100044131279
   vertex 0.011997000314295292 -0.031454998999834061 -0.011629000306129456
   vertex 0.0090140001848340034 -0.033567998558282852 -0.011509999632835388
  endloop
 endfacet
 facet normal 0.50670265570773931 -0.68591740575304749 0.5222736171622433
  outer loop
   vertex 0.010123999789357185 -0.031796999275684357 -0.010261000134050846
   vertex 0.0090140001848340034 -0.033567998558282852 -0.011509999632835388
   vertex 0.011997000314295292 -0.031454998999834061 -0.011629000306129456
  endloop
 endfacet
 facet normal -0.23397092205130554 -0.060284271928210419 0.97037282226603383
  outer loop
   vertex 0.010123999789357185 -0.031796999275684357 -0.010261000134050846
   vertex 0.011636000126600266 -0.028957000002264977 -0.0097200004383921623
   vertex 0.0066709998063743114 -0.029147999361157417 -0.01092899963259697
  endloop
 endfacet
 facet normal 0.11880842316278611 -0.92345599265052802 -0.36484734920703488
  outer loop
   vertex 0.0090140001848340034 -0.033567998558282852 -0.011509999632835388
   vertex 0.0086390003561973572 -0.032783001661300659 -0.013619000092148781
   vertex 0.010572999715805054 -0.032806001603603363 -0.01293100044131279
  endloop
 endfacet
 facet normal 0.015077782152709867 -0.93619920912812216 -0.35114626769087837
  outer loop
   vertex 0.008066999725997448 -0.033574998378753662 -0.01153200026601553
   vertex 0.0086390003561973572 -0.032783001661300659 -0.013619000092148781
   vertex 0.0090140001848340034 -0.033567998558282852 -0.011509999632835388
  endloop
 endfacet
 facet normal -0.21085952990153028 -0.89335287035811639 -0.39681092181619698
  outer loop
   vertex 0.0086390003561973572 -0.032783001661300659 -0.013619000092148781
   vertex 0.008066999725997448 -0.033574998378753662 -0.01153200026601553
   vertex 0.0066249999217689037 -0.032062001526355743 -0.014171999879181385
  endloop
 endfacet
 facet normal 0.20499619781190356 -0.31214320154197206 -0.92765466668032814
  outer loop
   vertex 0.0070879999548196793 -0.024188999086618423 -0.017410999163985252
   vertex 0.0036170000676065683 -0.027264999225735664 -0.017142999917268753
   vertex 0.0039429999887943268 -0.024186000227928162 -0.018107000738382339
  endloop
 endfacet
 facet normal 0.16178657746285968 0.66600611317881564 -0.72819019532076956
  outer loop
   vertex 0.0084969997406005859 -0.022631000727415085 -0.015673000365495682
   vertex 0.0070879999548196793 -0.024188999086618423 -0.017410999163985252
   vertex 0.0039429999887943268 -0.024186000227928162 -0.018107000738382339
  endloop
 endfacet
 facet normal -0.077360860092201639 -0.71426810448342193 -0.69558347611444471
  outer loop
   vertex 0.0060339998453855515 -0.029231000691652298 -0.015393000096082687
   vertex 0.0043839998543262482 -0.029844999313354492 -0.014578999951481819
   vertex 0.0036170000676065683 -0.027264999225735664 -0.017142999917268753
  endloop
 endfacet
 facet normal 0.72677174967576019 -0.27413429187225696 -0.62980410755482574
  outer loop
   vertex 0.000901999999769032 -0.025326000526547432 -0.021120000630617142
   vertex 0.0039429999887943268 -0.024186000227928162 -0.018107000738382339
   vertex 0.0036170000676065683 -0.027264999225735664 -0.017142999917268753
  endloop
 endfacet
 facet normal -0.37074014364179941 -0.70779756650383174 -0.60131052771734494
  outer loop
   vertex 0.0036170000676065683 -0.027264999225735664 -0.017142999917268753
   vertex 0.0043839998543262482 -0.029844999313354492 -0.014578999951481819
   vertex 0.0025110000278800726 -0.027977000921964645 -0.015623000450432301
  endloop
 endfacet
 facet normal 0.31294889390903036 -0.75191853686034593 -0.58024262487937828
  outer loop
   vertex -0.0010779999429360032 -0.027651000767946243 -0.019175000488758087
   vertex 0.000901999999769032 -0.025326000526547432 -0.021120000630617142
   vertex 0.0036170000676065683 -0.027264999225735664 -0.017142999917268753
  endloop
 endfacet
 facet normal 0.20264969599455709 -0.93514280430456487 -0.29058739867844879
  outer loop
   vertex -0.0010779999429360032 -0.027651000767946243 -0.019175000488758087
   vertex 0.0036170000676065683 -0.027264999225735664 -0.017142999917268753
   vertex 0.0025110000278800726 -0.027977000921964645 -0.015623000450432301
  endloop
 endfacet
 facet normal -0.59726457955624834 -0.79183378130994919 -0.12757070503797188
  outer loop
   vertex 0.0053179999813437462 -0.031500998884439468 -0.011535000056028366
   vertex 0.0066249999217689037 -0.032062001526355743 -0.014171999879181385
   vertex 0.008066999725997448 -0.033574998378753662 -0.01153200026601553
  endloop
 endfacet
 facet normal -0.67460271878359146 -0.71534869120979683 -0.18217415237683224
  outer loop
   vertex 0.0043839998543262482 -0.029844999313354492 -0.014578999951481819
   vertex 0.0066249999217689037 -0.032062001526355743 -0.014171999879181385
   vertex 0.0053179999813437462 -0.031500998884439468 -0.011535000056028366
  endloop
 endfacet
 facet normal -0.26668609680750094 -0.4280933755049115 -0.86348977273526006
  outer loop
   vertex 0.0066249999217689037 -0.032062001526355743 -0.014171999879181385
   vertex 0.0043839998543262482 -0.029844999313354492 -0.014578999951481819
   vertex 0.0060339998453855515 -0.029231000691652298 -0.015393000096082687
  endloop
 endfacet
 facet normal 0.34689207759020363 0.87064881268775951 0.34876429213803817
  outer loop
   vertex 0.0041620000265538692 -0.02131200022995472 -0.014654000289738178
   vertex 0.0065399999730288982 -0.022766999900341034 -0.013387000188231468
   vertex 0.0084969997406005859 -0.022631000727415085 -0.015673000365495682
  endloop
 endfacet
 facet normal 0.20920137798530342 0.92731800510223783 -0.31034835405114747
  outer loop
   vertex 0.0043029999360442162 -0.021890999749302864 -0.01628899946808815
   vertex 0.0041620000265538692 -0.02131200022995472 -0.014654000289738178
   vertex 0.0084969997406005859 -0.022631000727415085 -0.015673000365495682
  endloop
 endfacet
 facet normal 0.21794421636164732 0.58477833489282449 -0.781367146477559
  outer loop
   vertex 0.0043029999360442162 -0.021890999749302864 -0.01628899946808815
   vertex 0.0084969997406005859 -0.022631000727415085 -0.015673000365495682
   vertex 0.0039429999887943268 -0.024186000227928162 -0.018107000738382339
  endloop
 endfacet
 facet normal 0.12558913811677302 0.22647621450541136 0.96588606608149452
  outer loop
   vertex 0.0048879999667406082 -0.028300000354647636 -0.010896000079810619
   vertex 0.0066709998063743114 -0.029147999361157417 -0.01092899963259697
   vertex 0.0058909999206662178 -0.025422999635338783 -0.011700999923050404
  endloop
 endfacet
 facet normal -0.39988161909559256 -0.30312474303713111 0.86499137618138178
  outer loop
   vertex 0.010123999789357185 -0.031796999275684357 -0.010261000134050846
   vertex 0.0066709998063743114 -0.029147999361157417 -0.01092899963259697
   vertex 0.0090420003980398178 -0.031902000308036804 -0.010797999799251556
  endloop
 endfacet
 facet normal -0.31111166771157633 -0.22391129839439261 0.92361965151519976
  outer loop
   vertex 0.0090420003980398178 -0.031902000308036804 -0.010797999799251556
   vertex 0.0066709998063743114 -0.029147999361157417 -0.01092899963259697
   vertex 0.008066999725997448 -0.033574998378753662 -0.01153200026601553
  endloop
 endfacet
 facet normal -0.079644624603658593 -0.20541892104762149 0.9754280089516465
  outer loop
   vertex 0.0048879999667406082 -0.028300000354647636 -0.010896000079810619
   vertex 0.0053179999813437462 -0.031500998884439468 -0.011535000056028366
   vertex 0.0066709998063743114 -0.029147999361157417 -0.01092899963259697
  endloop
 endfacet
 facet normal -0.13294980257815062 -0.17480834673904808 0.97558515358977826
  outer loop
   vertex 0.0053179999813437462 -0.031500998884439468 -0.011535000056028366
   vertex 0.008066999725997448 -0.033574998378753662 -0.01153200026601553
   vertex 0.0066709998063743114 -0.029147999361157417 -0.01092899963259697
  endloop
 endfacet
 facet normal 0.37793649409078117 0.4285924899495786 0.82065369309666136
  outer loop
   vertex 0.003312000073492527 -0.023886000737547874 -0.011315999552607536
   vertex 0.0058909999206662178 -0.025422999635338783 -0.011700999923050404
   vertex 0.0065399999730288982 -0.022766999900341034 -0.013387000188231468
  endloop
 endfacet
 facet normal 0.31833121318393781 0.30971509547916215 0.89595859186972249
  outer loop
   vertex 0.0058909999206662178 -0.025422999635338783 -0.011700999923050404
   vertex 0.003312000073492527 -0.023886000737547874 -0.011315999552607536
   vertex 0.0026499999221414328 -0.026596000418066978 -0.010143999941647053
  endloop
 endfacet
 facet normal 0.39529457471677765 0.11710862166256845 0.91105859851700832
  outer loop
   vertex 0.0048879999667406082 -0.028300000354647636 -0.010896000079810619
   vertex 0.0058909999206662178 -0.025422999635338783 -0.011700999923050404
   vertex 0.0026499999221414328 -0.026596000418066978 -0.010143999941647053
  endloop
 endfacet
 facet normal 0.41306170968764849 0.35813087995865422 0.83733045854665822
  outer loop
   vertex 0.0024530000519007444 -0.020300000905990601 -0.012426000088453293
   vertex 0.003312000073492527 -0.023886000737547874 -0.011315999552607536
   vertex 0.0065399999730288982 -0.022766999900341034 -0.013387000188231468
  endloop
 endfacet
 facet normal 0.51833161530416938 0.85513051316051036 0.0091728969258736467
  outer loop
   vertex 0.0065399999730288982 -0.022766999900341034 -0.013387000188231468
   vertex 0.0041620000265538692 -0.02131200022995472 -0.014654000289738178
   vertex 0.0024530000519007444 -0.020300000905990601 -0.012426000088453293
  endloop
 endfacet
 facet normal -0.38728931986201248 -0.35680588816029113 0.85011560442975387
  outer loop
   vertex 0.010123999789357185 -0.031796999275684357 -0.010261000134050846
   vertex 0.0090420003980398178 -0.031902000308036804 -0.010797999799251556
   vertex 0.0090140001848340034 -0.033567998558282852 -0.011509999632835388
  endloop
 endfacet
 facet normal -0.01845937856598678 -0.39265745929231244 0.9194995220254677
  outer loop
   vertex 0.0090140001848340034 -0.033567998558282852 -0.011509999632835388
   vertex 0.0090420003980398178 -0.031902000308036804 -0.010797999799251556
   vertex 0.008066999725997448 -0.033574998378753662 -0.01153200026601553
  endloop
 endfacet
 facet normal 0.39269428121431887 0.53242247522334607 -0.74987832971663804
  outer loop
   vertex 0.0043029999360442162 -0.021890999749302864 -0.01628899946808815
   vertex 0.0039429999887943268 -0.024186000227928162 -0.018107000738382339
   vertex 0.0030000000260770321 -0.021805999800562859 -0.01691100001335144
  endloop
 endfacet
 facet normal 0.48262835003824289 0.53837449221400036 -0.69081313093533514
  outer loop
   vertex 0.0039429999887943268 -0.024186000227928162 -0.018107000738382339
   vertex 0.000901999999769032 -0.025326000526547432 -0.021120000630617142
   vertex 0.0030000000260770321 -0.021805999800562859 -0.01691100001335144
  endloop
 endfacet
 facet normal -0.59753918566833664 -0.75305961992392256 -0.27540539288630245
  outer loop
   vertex 0.0025110000278800726 -0.027977000921964645 -0.015623000450432301
   vertex 0.0043839998543262482 -0.029844999313354492 -0.014578999951481819
   vertex 0.00101500004529953 -0.027758000418543816 -0.012976000085473061
  endloop
 endfacet
 facet normal -0.5908190313056324 -0.77087395647683865 -0.23808867144998558
  outer loop
   vertex 0.0043839998543262482 -0.029844999313354492 -0.014578999951481819
   vertex 0.0053179999813437462 -0.031500998884439468 -0.011535000056028366
   vertex 0.00101500004529953 -0.027758000418543816 -0.012976000085473061
  endloop
 endfacet
 facet normal 0.51753927961358592 0.40327063271209385 -0.75466939175312908
  outer loop
   vertex -0.0019880000036209822 -0.023669999092817307 -0.022216999903321266
   vertex 0.000901999999769032 -0.025326000526547432 -0.021120000630617142
   vertex -0.0015180000336840749 -0.025396000593900681 -0.02281700074672699
  endloop
 endfacet
 facet normal 0.38593549676310768 -0.76275690688219433 -0.51889853858121537
  outer loop
   vertex 0.000901999999769032 -0.025326000526547432 -0.021120000630617142
   vertex -0.0010779999429360032 -0.027651000767946243 -0.019175000488758087
   vertex -0.0015180000336840749 -0.025396000593900681 -0.02281700074672699
  endloop
 endfacet
 facet normal 0.53860145493707801 0.48228846246839102 -0.69087358591101034
  outer loop
   vertex -0.00088100001448765397 -0.017294000834226608 -0.016902999952435493
   vertex 0.000901999999769032 -0.025326000526547432 -0.021120000630617142
   vertex -0.0019880000036209822 -0.023669999092817307 -0.022216999903321266
  endloop
 endfacet
 facet normal 0.55632571840126888 0.47972710125645268 -0.67850099732085378
  outer loop
   vertex 0.000901999999769032 -0.025326000526547432 -0.021120000630617142
   vertex -0.00088100001448765397 -0.017294000834226608 -0.016902999952435493
   vertex 0.0030000000260770321 -0.021805999800562859 -0.01691100001335144
  endloop
 endfacet
 facet normal -0.11006657205748296 -0.99372277514215435 0.020009894534713024
  outer loop
   vertex -0.0010779999429360032 -0.027651000767946243 -0.019175000488758087
   vertex 0.0025110000278800726 -0.027977000921964645 -0.015623000450432301
   vertex 0.00101500004529953 -0.027758000418543816 -0.012976000085473061
  endloop
 endfacet
 facet normal 0.15982723188696468 -0.87379514889552556 -0.45927910219603579
  outer loop
   vertex -0.0065139997750520706 -0.026668999344110489 -0.022934999316930771
   vertex -0.0040779998525977135 -0.026030000299215317 -0.023303000256419182
   vertex -0.0010779999429360032 -0.027651000767946243 -0.019175000488758087
  endloop
 endfacet
 facet normal 0.0075904559965857075 -0.99964467642694455 0.025552022797287098
  outer loop
   vertex -0.0010779999429360032 -0.027651000767946243 -0.019175000488758087
   vertex -0.00089600001228973269 -0.027339000254869461 -0.0070230001583695412
   vertex -0.011246999725699425 -0.027510000392794609 -0.010638000443577766
  endloop
 endfacet
 facet normal 0.11594924193284809 -0.98610290210390217 0.11898251870531061
  outer loop
   vertex -0.0082550002261996269 -0.028630999848246574 -0.020302999764680862
   vertex -0.0010779999429360032 -0.027651000767946243 -0.019175000488758087
   vertex -0.0094839995726943016 -0.028542999178171158 -0.018376000225543976
  endloop
 endfacet
 facet normal 0.19388535163656367 -0.84365887649580718 -0.50064775094930603
  outer loop
   vertex -0.0010779999429360032 -0.027651000767946243 -0.019175000488758087
   vertex -0.0082550002261996269 -0.028630999848246574 -0.020302999764680862
   vertex -0.0065139997750520706 -0.026668999344110489 -0.022934999316930771
  endloop
 endfacet
 facet normal 0.11903396977767243 -0.98024149972629149 0.15797948048186281
  outer loop
   vertex -0.011246999725699425 -0.027510000392794609 -0.010638000443577766
   vertex -0.0094839995726943016 -0.028542999178171158 -0.018376000225543976
   vertex -0.0010779999429360032 -0.027651000767946243 -0.019175000488758087
  endloop
 endfacet
 facet normal 0.29726125749424015 -0.79529806798617386 -0.52833391699795518
  outer loop
   vertex -0.0040779998525977135 -0.026030000299215317 -0.023303000256419182
   vertex -0.0015180000336840749 -0.025396000593900681 -0.02281700074672699
   vertex -0.0010779999429360032 -0.027651000767946243 -0.019175000488758087
  endloop
 endfacet
 facet normal -0.1318561578354146 -0.9908896667531949 0.027415724732798411
  outer loop
   vertex -0.00089600001228973269 -0.027339000254869461 -0.0070230001583695412
   vertex -0.0010779999429360032 -0.027651000767946243 -0.019175000488758087
   vertex 0.00101500004529953 -0.027758000418543816 -0.012976000085473061
  endloop
 endfacet
 facet normal 0.28456306934795772 -0.15076453303814269 0.94672800483616204
  outer loop
   vertex 0.0053179999813437462 -0.031500998884439468 -0.011535000056028366
   vertex 0.0048879999667406082 -0.028300000354647636 -0.010896000079810619
   vertex 0.0021039999555796385 -0.028192000463604927 -0.010041999630630016
  endloop
 endfacet
 facet normal -0.67650074233141233 -0.722172485284999 0.14426935614445713
  outer loop
   vertex 0.0021039999555796385 -0.028192000463604927 -0.010041999630630016
   vertex 0.00101500004529953 -0.027758000418543816 -0.012976000085473061
   vertex 0.0053179999813437462 -0.031500998884439468 -0.011535000056028366
  endloop
 endfacet
 facet normal 0.61615984870533114 0.75765958621841045 -0.21517200620612917
  outer loop
   vertex 0.0018269999418407679 -0.019355999305844307 -0.014453000389039516
   vertex 0.0041620000265538692 -0.02131200022995472 -0.014654000289738178
   vertex 0.0043029999360442162 -0.021890999749302864 -0.01628899946808815
  endloop
 endfacet
 facet normal 0.6423715258460706 0.75127134967692843 0.15149317455515027
  outer loop
   vertex 0.0018269999418407679 -0.019355999305844307 -0.014453000389039516
   vertex 0.0024530000519007444 -0.020300000905990601 -0.012426000088453293
   vertex 0.0041620000265538692 -0.02131200022995472 -0.014654000289738178
  endloop
 endfacet
 facet normal 0.32729456295981546 0.74274192151061791 -0.58413415161900828
  outer loop
   vertex 0.0018269999418407679 -0.019355999305844307 -0.014453000389039516
   vertex 0.0043029999360442162 -0.021890999749302864 -0.01628899946808815
   vertex 0.0030000000260770321 -0.021805999800562859 -0.01691100001335144
  endloop
 endfacet
 facet normal 0.29167316873366717 -0.038701940052230224 0.95573475529409058
  outer loop
   vertex 0.0026499999221414328 -0.026596000418066978 -0.010143999941647053
   vertex 0.0021039999555796385 -0.028192000463604927 -0.010041999630630016
   vertex 0.0048879999667406082 -0.028300000354647636 -0.010896000079810619
  endloop
 endfacet
 facet normal 0.71661483313087926 0.12193559829681441 0.68672766858835677
  outer loop
   vertex 0.0026499999221414328 -0.026596000418066978 -0.010143999941647053
   vertex 0.003312000073492527 -0.023886000737547874 -0.011315999552607536
   vertex 0.0018629999831318855 -0.022640999406576157 -0.01002500019967556
  endloop
 endfacet
 facet normal 0.77253784020247629 0.34920925571710126 0.53031894287947268
  outer loop
   vertex 0.0018629999831318855 -0.022640999406576157 -0.01002500019967556
   vertex 0.003312000073492527 -0.023886000737547874 -0.011315999552607536
   vertex 0.0024530000519007444 -0.020300000905990601 -0.012426000088453293
  endloop
 endfacet
 facet normal 0.5946301678115552 0.094300497633538649 0.79844998570634884
  outer loop
   vertex 0.0018629999831318855 -0.022640999406576157 -0.01002500019967556
   vertex 0.0008609999786131084 -0.027947999536991119 -0.00865199975669384
   vertex 0.0026499999221414328 -0.026596000418066978 -0.010143999941647053
  endloop
 endfacet
 facet normal 0.71247106154153561 -0.20076915591205149 0.67236651649248536
  outer loop
   vertex 0.0021039999555796385 -0.028192000463604927 -0.010041999630630016
   vertex 0.0026499999221414328 -0.026596000418066978 -0.010143999941647053
   vertex 0.0008609999786131084 -0.027947999536991119 -0.00865199975669384
  endloop
 endfacet
 facet normal 0.98397182524517768 0.11544196551209804 0.13591394233991172
  outer loop
   vertex 0.0018579999450594187 -0.020304000005125999 -0.0081150000914931297
   vertex 0.0024530000519007444 -0.020300000905990601 -0.012426000088453293
   vertex 0.0016039999900385737 -0.017381999641656876 -0.0087580000981688499
  endloop
 endfacet
 facet normal 0.98473268264597458 -0.10888964911067578 0.13581085393081202
  outer loop
   vertex 0.0018629999831318855 -0.022640999406576157 -0.01002500019967556
   vertex 0.0024530000519007444 -0.020300000905990601 -0.012426000088453293
   vertex 0.0018579999450594187 -0.020304000005125999 -0.0081150000914931297
  endloop
 endfacet
 facet normal 0.9625471644716187 0.14075830256287164 -0.23171114869005702
  outer loop
   vertex 0.0018269999418407679 -0.019355999305844307 -0.014453000389039516
   vertex 0.0017130000051110983 -0.012776999734342098 -0.010929999873042107
   vertex 0.0024530000519007444 -0.020300000905990601 -0.012426000088453293
  endloop
 endfacet
 facet normal 0.98200286268959802 0.06105393410549103 0.17872547328144608
  outer loop
   vertex 0.0016039999900385737 -0.017381999641656876 -0.0087580000981688499
   vertex 0.0024530000519007444 -0.020300000905990601 -0.012426000088453293
   vertex 0.0017130000051110983 -0.012776999734342098 -0.010929999873042107
  endloop
 endfacet
 facet normal 0.72815700312394205 0.62681656111628903 -0.27728753580337689
  outer loop
   vertex 0.0018269999418407679 -0.019355999305844307 -0.014453000389039516
   vertex 0.0030000000260770321 -0.021805999800562859 -0.01691100001335144
   vertex -0.00088100001448765397 -0.017294000834226608 -0.016902999952435493
  endloop
 endfacet
 facet normal -0.29023868655457374 -0.95552278575783267 -0.052323137565199698
  outer loop
   vertex 0.00101500004529953 -0.027758000418543816 -0.012976000085473061
   vertex 0.0008609999786131084 -0.027947999536991119 -0.00865199975669384
   vertex 0.00020599999697878957 -0.027816999703645706 -0.0074109998531639576
  endloop
 endfacet
 facet normal -0.41768530456888986 -0.90586617451158402 -0.070323966205995597
  outer loop
   vertex 0.00101500004529953 -0.027758000418543816 -0.012976000085473061
   vertex 0.00020599999697878957 -0.027816999703645706 -0.0074109998531639576
   vertex -0.00089600001228973269 -0.027339000254869461 -0.0070230001583695412
  endloop
 endfacet
 facet normal -0.24732832728299367 -0.96757145187055804 -0.051324302708335275
  outer loop
   vertex 0.00101500004529953 -0.027758000418543816 -0.012976000085473061
   vertex 0.0021039999555796385 -0.028192000463604927 -0.010041999630630016
   vertex 0.0008609999786131084 -0.027947999536991119 -0.00865199975669384
  endloop
 endfacet
 facet normal 0.090660957030950631 0.3489349333559621 -0.93275130831004582
  outer loop
   vertex -0.0015180000336840749 -0.025396000593900681 -0.02281700074672699
   vertex -0.0040779998525977135 -0.026030000299215317 -0.023303000256419182
   vertex -0.0019880000036209822 -0.023669999092817307 -0.022216999903321266
  endloop
 endfacet
 facet normal 0.388399961562721 0.0785349329376617 -0.91813818903613509
  outer loop
   vertex -0.0055470000952482224 -0.023300999775528908 -0.023691000416874886
   vertex -0.0019880000036209822 -0.023669999092817307 -0.022216999903321266
   vertex -0.0040779998525977135 -0.026030000299215317 -0.023303000256419182
  endloop
 endfacet
 facet normal 0.36636580272908481 0.55735966916783342 -0.74506798198271573
  outer loop
   vertex -0.0019880000036209822 -0.023669999092817307 -0.022216999903321266
   vertex -0.0055470000952482224 -0.023300999775528908 -0.023691000416874886
   vertex -0.00088100001448765397 -0.017294000834226608 -0.016902999952435493
  endloop
 endfacet
 facet normal 0.22884788589110597 0.61836590060470165 -0.75183259978036854
  outer loop
   vertex -0.0022829999215900898 -0.014538000337779522 -0.015062999911606312
   vertex -0.00088100001448765397 -0.017294000834226608 -0.016902999952435493
   vertex -0.0082510001957416534 -0.018952000886201859 -0.020509999245405197
  endloop
 endfacet
 facet normal 0.20639244568606091 0.6580089257734596 -0.72417291579165255
  outer loop
   vertex -0.00088100001448765397 -0.017294000834226608 -0.016902999952435493
   vertex -0.0055470000952482224 -0.023300999775528908 -0.023691000416874886
   vertex -0.0082510001957416534 -0.018952000886201859 -0.020509999245405197
  endloop
 endfacet
 facet normal -0.074995581542316961 0.52702453270538518 -0.84653458563475137
  outer loop
   vertex -0.00088100001448765397 -0.017294000834226608 -0.016902999952435493
   vertex -0.0022829999215900898 -0.014538000337779522 -0.015062999911606312
   vertex 0.00028899998869746923 -0.011602000333368778 -0.01346299983561039
  endloop
 endfacet
 facet normal 0.74290191352421109 0.22772299518728195 -0.62947516578892837
  outer loop
   vertex 0.0018269999418407679 -0.019355999305844307 -0.014453000389039516
   vertex -0.00088100001448765397 -0.017294000834226608 -0.016902999952435493
   vertex 0.00028899998869746923 -0.011602000333368778 -0.01346299983561039
  endloop
 endfacet
 facet normal -0.73433689939577773 -0.21297770677475955 -0.64450742013010209
  outer loop
   vertex -0.0082550002261996269 -0.028630999848246574 -0.020302999764680862
   vertex -0.0091380001977086067 -0.026921000331640244 -0.019861999899148941
   vertex -0.0065139997750520706 -0.026668999344110489 -0.022934999316930771
  endloop
 endfacet
 facet normal -0.76138097062115229 0.074032734385430371 -0.64406379483356169
  outer loop
   vertex -0.0091380001977086067 -0.026921000331640244 -0.019861999899148941
   vertex -0.0055470000952482224 -0.023300999775528908 -0.023691000416874886
   vertex -0.0065139997750520706 -0.026668999344110489 -0.022934999316930771
  endloop
 endfacet
 facet normal -0.097371969612849371 -0.19127770213985457 -0.97669418970208455
  outer loop
   vertex -0.0065139997750520706 -0.026668999344110489 -0.022934999316930771
   vertex -0.0055470000952482224 -0.023300999775528908 -0.023691000416874886
   vertex -0.0040779998525977135 -0.026030000299215317 -0.023303000256419182
  endloop
 endfacet
 facet normal -0.36101539969576057 0.038160780723002455 0.93177874841462294
  outer loop
   vertex 0.00080699997488409281 -0.019773999229073524 -0.0066729998216032982
   vertex -0.011885000392794609 -0.023716999217867851 -0.011428999714553356
   vertex -0.00089600001228973269 -0.027339000254869461 -0.0070230001583695412
  endloop
 endfacet
 facet normal 0.31790938251009715 -0.036124397142759147 0.94743266380419922
  outer loop
   vertex 0.00020599999697878957 -0.027816999703645706 -0.0074109998531639576
   vertex 0.00064400001429021358 -0.025299999862909317 -0.0074620000086724758
   vertex -0.00089600001228973269 -0.027339000254869461 -0.0070230001583695412
  endloop
 endfacet
 facet normal 0.43811662918889704 -0.13971063427048871 0.88799479609955834
  outer loop
   vertex -0.00089600001228973269 -0.027339000254869461 -0.0070230001583695412
   vertex 0.00064400001429021358 -0.025299999862909317 -0.0074620000086724758
   vertex 0.00080699997488409281 -0.019773999229073524 -0.0066729998216032982
  endloop
 endfacet
 facet normal -0.3285405477538349 0.13954199382144342 0.93412479917939562
  outer loop
   vertex -0.00089600001228973269 -0.027339000254869461 -0.0070230001583695412
   vertex -0.011885000392794609 -0.023716999217867851 -0.011428999714553356
   vertex -0.011246999725699425 -0.027510000392794609 -0.010638000443577766
  endloop
 endfacet
 facet normal -0.98153912985053071 -0.13734025862052218 0.13311119387305881
  outer loop
   vertex -0.011885000392794609 -0.023716999217867851 -0.011428999714553356
   vertex -0.011575000360608101 -0.027396000921726227 -0.012938999570906162
   vertex -0.011246999725699425 -0.027510000392794609 -0.010638000443577766
  endloop
 endfacet
 facet normal -0.44296483324881158 -0.89634320547730073 0.018735380955024094
  outer loop
   vertex -0.0094839995726943016 -0.028542999178171158 -0.018376000225543976
   vertex -0.011246999725699425 -0.027510000392794609 -0.010638000443577766
   vertex -0.011575000360608101 -0.027396000921726227 -0.012938999570906162
  endloop
 endfacet
 facet normal -0.8129590838095575 -0.28948529206552193 -0.50526804146835225
  outer loop
   vertex -0.0082550002261996269 -0.028630999848246574 -0.020302999764680862
   vertex -0.0094839995726943016 -0.028542999178171158 -0.018376000225543976
   vertex -0.0091380001977086067 -0.026921000331640244 -0.019861999899148941
  endloop
 endfacet
 facet normal -0.92538695696138962 0.074551578250146786 -0.37161948558458474
  outer loop
   vertex -0.0094839995726943016 -0.028542999178171158 -0.018376000225543976
   vertex -0.011575000360608101 -0.027396000921726227 -0.012938999570906162
   vertex -0.011885000392794609 -0.023716999217867851 -0.011428999714553356
  endloop
 endfacet
 facet normal -0.95561823330708184 -0.060335715187403431 -0.28836330148594902
  outer loop
   vertex -0.0094839995726943016 -0.028542999178171158 -0.018376000225543976
   vertex -0.011885000392794609 -0.023716999217867851 -0.011428999714553356
   vertex -0.0091380001977086067 -0.026921000331640244 -0.019861999899148941
  endloop
 endfacet
 facet normal 0.89014127851623204 0.22700578029144752 -0.39511628667489629
  outer loop
   vertex 0.00028899998869746923 -0.011602000333368778 -0.01346299983561039
   vertex 0.0017130000051110983 -0.012776999734342098 -0.010929999873042107
   vertex 0.0018269999418407679 -0.019355999305844307 -0.014453000389039516
  endloop
 endfacet
 facet normal 0.97501318703145767 -0.13932531259082151 0.17302526516734384
  outer loop
   vertex 0.0018579999450594187 -0.020304000005125999 -0.0081150000914931297
   vertex 0.0008609999786131084 -0.027947999536991119 -0.00865199975669384
   vertex 0.0018629999831318855 -0.022640999406576157 -0.01002500019967556
  endloop
 endfacet
 facet normal 0.8692072802109243 -0.14165791554585377 0.47372116164631206
  outer loop
   vertex 0.00020599999697878957 -0.027816999703645706 -0.0074109998531639576
   vertex 0.0008609999786131084 -0.027947999536991119 -0.00865199975669384
   vertex 0.00064400001429021358 -0.025299999862909317 -0.0074620000086724758
  endloop
 endfacet
 facet normal 0.86303379975386485 -0.14652609701206348 0.48342813672439167
  outer loop
   vertex 0.0018579999450594187 -0.020304000005125999 -0.0081150000914931297
   vertex 0.00064400001429021358 -0.025299999862909317 -0.0074620000086724758
   vertex 0.0008609999786131084 -0.027947999536991119 -0.00865199975669384
  endloop
 endfacet
 facet normal 0.78342977229809274 -0.11043138209030347 0.61159030545503579
  outer loop
   vertex 0.0018579999450594187 -0.020304000005125999 -0.0081150000914931297
   vertex 0.00080699997488409281 -0.019773999229073524 -0.0066729998216032982
   vertex 0.00064400001429021358 -0.025299999862909317 -0.0074620000086724758
  endloop
 endfacet
 facet normal 0.82533162860354792 0.18884195346288554 0.53213383602148123
  outer loop
   vertex 0.0016039999900385737 -0.017381999641656876 -0.0087580000981688499
   vertex 0.00080699997488409281 -0.019773999229073524 -0.0066729998216032982
   vertex 0.0018579999450594187 -0.020304000005125999 -0.0081150000914931297
  endloop
 endfacet
 facet normal 0.95039449857220848 -0.048913030882113628 0.30717716792366856
  outer loop
   vertex 0.0013119999784976244 -0.015350000001490116 -0.0075309998355805874
   vertex 0.00080699997488409281 -0.019773999229073524 -0.0066729998216032982
   vertex 0.0016039999900385737 -0.017381999641656876 -0.0087580000981688499
  endloop
 endfacet
 facet normal 0.98691578274976732 0.049079930459223729 0.15358514962564573
  outer loop
   vertex 0.0017130000051110983 -0.012776999734342098 -0.010929999873042107
   vertex 0.0013119999784976244 -0.015350000001490116 -0.0075309998355805874
   vertex 0.0016039999900385737 -0.017381999641656876 -0.0087580000981688499
  endloop
 endfacet
 facet normal 0.96378874673453818 0.14523660131209867 0.22364610729270185
  outer loop
   vertex 0.00083199999062344432 -0.0092789996415376663 -0.0094050001353025436
   vertex 0.0013119999784976244 -0.015350000001490116 -0.0075309998355805874
   vertex 0.0017130000051110983 -0.012776999734342098 -0.010929999873042107
  endloop
 endfacet
 facet normal 0.8743440921649247 0.36141351155213791 -0.32388683542843527
  outer loop
   vertex 0.00028899998869746923 -0.011602000333368778 -0.01346299983561039
   vertex 0.00083199999062344432 -0.0092789996415376663 -0.0094050001353025436
   vertex 0.0017130000051110983 -0.012776999734342098 -0.010929999873042107
  endloop
 endfacet
 facet normal -0.77856377864909976 0.12097975525460347 -0.61579407385437845
  outer loop
   vertex -0.0077949999831616879 -0.022396000102162361 -0.020671000704169273
   vertex -0.0055470000952482224 -0.023300999775528908 -0.023691000416874886
   vertex -0.0091380001977086067 -0.026921000331640244 -0.019861999899148941
  endloop
 endfacet
 facet normal -0.81094600294622288 -0.080277911939508062 -0.57958781660778336
  outer loop
   vertex -0.0055470000952482224 -0.023300999775528908 -0.023691000416874886
   vertex -0.0077949999831616879 -0.022396000102162361 -0.020671000704169273
   vertex -0.0082510001957416534 -0.018952000886201859 -0.020509999245405197
  endloop
 endfacet
 facet normal -0.41328263098486756 0.6874665329003421 -0.59714925526890572
  outer loop
   vertex 0.00028899998869746923 -0.011602000333368778 -0.01346299983561039
   vertex -0.0022829999215900898 -0.014538000337779522 -0.015062999911606312
   vertex -0.002125999890267849 -0.012807999737560749 -0.013179999776184559
  endloop
 endfacet
 facet normal -0.13310467411270416 0.73534249747687475 -0.66449571641495431
  outer loop
   vertex -0.0022829999215900898 -0.014538000337779522 -0.015062999911606312
   vertex -0.01028900034725666 -0.015154000371694565 -0.014140999875962734
   vertex -0.002125999890267849 -0.012807999737560749 -0.013179999776184559
  endloop
 endfacet
 facet normal -0.12605625847429267 0.83376708901078878 -0.53753349754404867
  outer loop
   vertex -0.0082510001957416534 -0.018952000886201859 -0.020509999245405197
   vertex -0.01028900034725666 -0.015154000371694565 -0.014140999875962734
   vertex -0.0022829999215900898 -0.014538000337779522 -0.015062999911606312
  endloop
 endfacet
 facet normal -0.90444891652603954 -0.10037074841306277 -0.41460568044573981
  outer loop
   vertex -0.0082510001957416534 -0.018952000886201859 -0.020509999245405197
   vertex -0.0077949999831616879 -0.022396000102162361 -0.020671000704169273
   vertex -0.011885000392794609 -0.023716999217867851 -0.011428999714553356
  endloop
 endfacet
 facet normal -0.96065452017940822 -0.061153129021057302 -0.27093022657098448
  outer loop
   vertex -0.0082510001957416534 -0.018952000886201859 -0.020509999245405197
   vertex -0.010649999603629112 -0.016770999878644943 -0.012496000155806541
   vertex -0.01028900034725666 -0.015154000371694565 -0.014140999875962734
  endloop
 endfacet
 facet normal -0.94179604166509689 0.11916201486720111 -0.31435748776948808
  outer loop
   vertex -0.011885000392794609 -0.023716999217867851 -0.011428999714553356
   vertex -0.010649999603629112 -0.016770999878644943 -0.012496000155806541
   vertex -0.0082510001957416534 -0.018952000886201859 -0.020509999245405197
  endloop
 endfacet
 facet normal -0.44669116080801519 0.80093005346914592 -0.3987205240590192
  outer loop
   vertex 0.00028899998869746923 -0.011602000333368778 -0.01346299983561039
   vertex -0.002125999890267849 -0.012807999737560749 -0.013179999776184559
   vertex 0.00083199999062344432 -0.0092789996415376663 -0.0094050001353025436
  endloop
 endfacet
 facet normal -0.90591247591495971 0.20236618059149475 -0.37198187447030007
  outer loop
   vertex -0.0077949999831616879 -0.022396000102162361 -0.020671000704169273
   vertex -0.0091380001977086067 -0.026921000331640244 -0.019861999899148941
   vertex -0.011885000392794609 -0.023716999217867851 -0.011428999714553356
  endloop
 endfacet
 facet normal -0.40118135564172475 0.21832576645042007 0.8895995613697798
  outer loop
   vertex 0.0013119999784976244 -0.015350000001490116 -0.0075309998355805874
   vertex -0.011885000392794609 -0.023716999217867851 -0.011428999714553356
   vertex 0.00080699997488409281 -0.019773999229073524 -0.0066729998216032982
  endloop
 endfacet
 facet normal -0.95634717761005072 0.12982057274578593 -0.26181423714008778
  outer loop
   vertex -0.011227999813854694 -0.015131999738514423 -0.0095720002427697182
   vertex -0.010649999603629112 -0.016770999878644943 -0.012496000155806541
   vertex -0.011885000392794609 -0.023716999217867851 -0.011428999714553356
  endloop
 endfacet
 facet normal -0.15559131618172653 -0.20479611829998914 0.96635909074116688
  outer loop
   vertex -0.0099029997363686562 -0.013983000069856644 -0.0090469997376203537
   vertex -0.011885000392794609 -0.023716999217867851 -0.011428999714553356
   vertex 0.0013119999784976244 -0.015350000001490116 -0.0075309998355805874
  endloop
 endfacet
 facet normal -0.21409417790596408 -0.19083604625475073 0.95799023295471242
  outer loop
   vertex -0.011885000392794609 -0.023716999217867851 -0.011428999714553356
   vertex -0.0099029997363686562 -0.013983000069856644 -0.0090469997376203537
   vertex -0.011227999813854694 -0.015131999738514423 -0.0095720002427697182
  endloop
 endfacet
 facet normal -0.11554786883637469 0.14224933536519857 0.98306348553668255
  outer loop
   vertex -0.0099029997363686562 -0.013983000069856644 -0.0090469997376203537
   vertex 0.0013119999784976244 -0.015350000001490116 -0.0075309998355805874
   vertex -0.0017040000529959798 -0.010812999680638313 -0.0085420003160834312
  endloop
 endfacet
 facet normal 0.13824748743864693 0.30207956416441673 0.94320494545519495
  outer loop
   vertex 0.0013119999784976244 -0.015350000001490116 -0.0075309998355805874
   vertex 0.00083199999062344432 -0.0092789996415376663 -0.0094050001353025436
   vertex -0.0017040000529959798 -0.010812999680638313 -0.0085420003160834312
  endloop
 endfacet
 facet normal -0.56500760133132899 0.77535953324153351 -0.28210637116039977
  outer loop
   vertex 0.00083199999062344432 -0.0092789996415376663 -0.0094050001353025436
   vertex -0.002125999890267849 -0.012807999737560749 -0.013179999776184559
   vertex -0.0017040000529959798 -0.010812999680638313 -0.0085420003160834312
  endloop
 endfacet
 facet normal -0.2163114436932114 0.90386310323177665 -0.36910818189736888
  outer loop
   vertex -0.01028900034725666 -0.015154000371694565 -0.014140999875962734
   vertex -0.0017040000529959798 -0.010812999680638313 -0.0085420003160834312
   vertex -0.002125999890267849 -0.012807999737560749 -0.013179999776184559
  endloop
 endfacet
 facet normal -0.21665667510379663 0.90396439599625733 -0.36865736925238501
  outer loop
   vertex -0.010058999992907047 -0.014240000396966934 -0.012035000137984753
   vertex -0.0017040000529959798 -0.010812999680638313 -0.0085420003160834312
   vertex -0.01028900034725666 -0.015154000371694565 -0.014140999875962734
  endloop
 endfacet
 facet normal -0.97410530561968389 0.22594144136280137 0.0083257815538360577
  outer loop
   vertex -0.01028900034725666 -0.015154000371694565 -0.014140999875962734
   vertex -0.010649999603629112 -0.016770999878644943 -0.012496000155806541
   vertex -0.010058999992907047 -0.014240000396966934 -0.012035000137984753
  endloop
 endfacet
 facet normal -0.90388048376462793 0.27130315592220766 -0.3307486487592543
  outer loop
   vertex -0.011227999813854694 -0.015131999738514423 -0.0095720002427697182
   vertex -0.010058999992907047 -0.014240000396966934 -0.012035000137984753
   vertex -0.010649999603629112 -0.016770999878644943 -0.012496000155806541
  endloop
 endfacet
 facet normal -0.64762740701901123 0.76129881081339068 -0.031668001704389999
  outer loop
   vertex -0.0099029997363686562 -0.013983000069856644 -0.0090469997376203537
   vertex -0.010058999992907047 -0.014240000396966934 -0.012035000137984753
   vertex -0.011227999813854694 -0.015131999738514423 -0.0095720002427697182
  endloop
 endfacet
 facet normal -0.35663267066032117 0.93221422962219891 -0.061561094106399102
  outer loop
   vertex -0.0017040000529959798 -0.010812999680638313 -0.0085420003160834312
   vertex -0.010058999992907047 -0.014240000396966934 -0.012035000137984753
   vertex -0.0099029997363686562 -0.013983000069856644 -0.0090469997376203537
  endloop
 endfacet
endsolid
