solid Visualization Toolkit generated SLA File
 facet normal 0.1232031641409365 -0.93029378506171623 0.34550608362401808
  outer loop
   vertex 0.046059001237154007 -0.16184699535369873 0.017248999327421188
   vertex 0.046946998685598373 -0.16228500008583069 0.015752999112010002
   vertex 0.047812998294830322 -0.16185499727725983 0.016602000221610069
  endloop
 endfacet
 facet normal 0.095641468210010697 -0.93857047340380917 0.33156926276900717
  outer loop
   vertex 0.045818999409675598 -0.16208800673484802 0.016635999083518982
   vertex 0.046946998685598373 -0.16228500008583069 0.015752999112010002
   vertex 0.046059001237154007 -0.16184699535369873 0.017248999327421188
  endloop
 endfacet
 facet normal 0.4117748268486992 -0.80140349982172354 0.43381323452289522
  outer loop
   vertex 0.047143999487161636 -0.16117799282073975 0.017455000430345535
   vertex 0.044895000755786896 -0.16197900474071503 0.018109999597072601
   vertex 0.046059001237154007 -0.16184699535369873 0.017248999327421188
  endloop
 endfacet
 facet normal 0.28961630861511856 -0.92395039016552238 0.24987610989674705
  outer loop
   vertex 0.044895000755786896 -0.16197900474071503 0.018109999597072601
   vertex 0.045818999409675598 -0.16208800673484802 0.016635999083518982
   vertex 0.046059001237154007 -0.16184699535369873 0.017248999327421188
  endloop
 endfacet
 facet normal 0.26174149661888657 -0.64544833229744902 0.71755685439005268
  outer loop
   vertex 0.047143999487161636 -0.16117799282073975 0.017455000430345535
   vertex 0.046059001237154007 -0.16184699535369873 0.017248999327421188
   vertex 0.047812998294830322 -0.16185499727725983 0.016602000221610069
  endloop
 endfacet
 facet normal -0.024159398323259463 -0.88169336381089769 0.4712039215504068
  outer loop
   vertex 0.049857001751661301 -0.16255499422550201 0.015397000126540661
   vertex 0.047812998294830322 -0.16185499727725983 0.016602000221610069
   vertex 0.046946998685598373 -0.16228500008583069 0.015752999112010002
  endloop
 endfacet
 facet normal -0.023962011298661767 -0.88108292022439882 0.47235443228932278
  outer loop
   vertex 0.050163000822067261 -0.16345700621604919 0.013729999773204327
   vertex 0.049857001751661301 -0.16255499422550201 0.015397000126540661
   vertex 0.046946998685598373 -0.16228500008583069 0.015752999112010002
  endloop
 endfacet
 facet normal -0.11568995132973627 -0.92814053730454538 0.35379510761647492
  outer loop
   vertex 0.050163000822067261 -0.16345700621604919 0.013729999773204327
   vertex 0.046946998685598373 -0.16228500008583069 0.015752999112010002
   vertex 0.042394001036882401 -0.16178800165653229 0.015568000264465809
  endloop
 endfacet
 facet normal -0.111339393794317 -0.99065505379182506 0.078778828286731314
  outer loop
   vertex 0.046946998685598373 -0.16228500008583069 0.015752999112010002
   vertex 0.045818999409675598 -0.16208800673484802 0.016635999083518982
   vertex 0.042394001036882401 -0.16178800165653229 0.015568000264465809
  endloop
 endfacet
 facet normal 0.52403633419490792 -0.41749433619132975 0.74235059082062005
  outer loop
   vertex 0.047793999314308167 -0.16090799868106842 0.017147999256849289
   vertex 0.047143999487161636 -0.16117799282073975 0.017455000430345535
   vertex 0.047812998294830322 -0.16185499727725983 0.016602000221610069
  endloop
 endfacet
 facet normal 0.33469584740344915 -0.44892560654268471 0.82851945633229995
  outer loop
   vertex 0.048847001045942307 -0.16137200593948364 0.016445999965071678
   vertex 0.047812998294830322 -0.16185499727725983 0.016602000221610069
   vertex 0.049857001751661301 -0.16255499422550201 0.015397000126540661
  endloop
 endfacet
 facet normal 0.3403314271757869 -0.46453458759639621 0.8175464125070443
  outer loop
   vertex 0.048847001045942307 -0.16137200593948364 0.016445999965071678
   vertex 0.047793999314308167 -0.16090799868106842 0.017147999256849289
   vertex 0.047812998294830322 -0.16185499727725983 0.016602000221610069
  endloop
 endfacet
 facet normal -0.099410104799902005 -0.97493828502850244 -0.1990300767455887
  outer loop
   vertex 0.042511999607086182 -0.16173100471496582 0.016538999974727631
   vertex 0.045818999409675598 -0.16208800673484802 0.016635999083518982
   vertex 0.044100001454353333 -0.1621129959821701 0.017617000266909599
  endloop
 endfacet
 facet normal -0.10912708352723201 -0.99145593557414113 0.071459131366433559
  outer loop
   vertex 0.042394001036882401 -0.16178800165653229 0.015568000264465809
   vertex 0.045818999409675598 -0.16208800673484802 0.016635999083518982
   vertex 0.042511999607086182 -0.16173100471496582 0.016538999974727631
  endloop
 endfacet
 facet normal 0.087278616129061445 -0.98795598022320064 0.12777098382579213
  outer loop
   vertex 0.045818999409675598 -0.16208800673484802 0.016635999083518982
   vertex 0.044895000755786896 -0.16197900474071503 0.018109999597072601
   vertex 0.044100001454353333 -0.1621129959821701 0.017617000266909599
  endloop
 endfacet
 facet normal 0.41513284083378088 -0.6249313324704332 0.66115471272464166
  outer loop
   vertex 0.044895000755786896 -0.16197900474071503 0.018109999597072601
   vertex 0.047143999487161636 -0.16117799282073975 0.017455000430345535
   vertex 0.044394001364707947 -0.16078199446201324 0.019556000828742981
  endloop
 endfacet
 facet normal 0.52025149696505701 -0.39748201071661465 0.75587461332041983
  outer loop
   vertex 0.044394001364707947 -0.16078199446201324 0.019556000828742981
   vertex 0.047143999487161636 -0.16117799282073975 0.017455000430345535
   vertex 0.045373000204563141 -0.1597059965133667 0.019447999075055122
  endloop
 endfacet
 facet normal 0.52146336496474821 -0.39596871928315791 0.75583379942213325
  outer loop
   vertex 0.047143999487161636 -0.16117799282073975 0.017455000430345535
   vertex 0.047793999314308167 -0.16090799868106842 0.017147999256849289
   vertex 0.045373000204563141 -0.1597059965133667 0.019447999075055122
  endloop
 endfacet
 facet normal -0.034818120487215498 -0.94877978022187048 0.31401373716427911
  outer loop
   vertex 0.0441569983959198 -0.16180199384689331 0.018563000485301018
   vertex 0.044100001454353333 -0.1621129959821701 0.017617000266909599
   vertex 0.044895000755786896 -0.16197900474071503 0.018109999597072601
  endloop
 endfacet
 facet normal 0.20825257784889292 -0.74712748801646867 0.63121421123853994
  outer loop
   vertex 0.044130999594926834 -0.16126599907875061 0.019206000491976738
   vertex 0.0441569983959198 -0.16180199384689331 0.018563000485301018
   vertex 0.044895000755786896 -0.16197900474071503 0.018109999597072601
  endloop
 endfacet
 facet normal 0.33618140011807596 -0.66496259221904352 0.66693839083080253
  outer loop
   vertex 0.044895000755786896 -0.16197900474071503 0.018109999597072601
   vertex 0.044394001364707947 -0.16078199446201324 0.019556000828742981
   vertex 0.044130999594926834 -0.16126599907875061 0.019206000491976738
  endloop
 endfacet
 facet normal -0.2112981411788076 -0.87535378116498974 0.43486647759345148
  outer loop
   vertex 0.050163000822067261 -0.16345700621604919 0.013729999773204327
   vertex 0.053033001720905304 -0.16442599892616272 0.013174000196158886
   vertex 0.049857001751661301 -0.16255499422550201 0.015397000126540661
  endloop
 endfacet
 facet normal 0.014931673539130439 -0.31846873044866619 0.94781575891717251
  outer loop
   vertex 0.051288001239299774 -0.16235099732875824 0.015443000011146069
   vertex 0.050415001809597015 -0.16200800240039825 0.015572000294923782
   vertex 0.049857001751661301 -0.16255499422550201 0.015397000126540661
  endloop
 endfacet
 facet normal 0.24808859472015451 -0.51548869050632307 0.82019720746284863
  outer loop
   vertex 0.050415001809597015 -0.16200800240039825 0.015572000294923782
   vertex 0.048847001045942307 -0.16137200593948364 0.016445999965071678
   vertex 0.049857001751661301 -0.16255499422550201 0.015397000126540661
  endloop
 endfacet
 facet normal 0.077870064473054307 -0.70516166269139535 0.70475760551360433
  outer loop
   vertex 0.053033001720905304 -0.16442599892616272 0.013174000196158886
   vertex 0.051288001239299774 -0.16235099732875824 0.015443000011146069
   vertex 0.049857001751661301 -0.16255499422550201 0.015397000126540661
  endloop
 endfacet
 facet normal -0.2928050802574047 -0.94621464908681829 0.13763365441985484
  outer loop
   vertex 0.052710000425577164 -0.16441099345684052 0.012590000405907631
   vertex 0.053033001720905304 -0.16442599892616272 0.013174000196158886
   vertex 0.050163000822067261 -0.16345700621604919 0.013729999773204327
  endloop
 endfacet
 facet normal -0.22655407819578399 -0.97104001105719306 -0.07585872777014481
  outer loop
   vertex 0.050037998706102371 -0.16328300535678864 0.011876000091433525
   vertex 0.050163000822067261 -0.16345700621604919 0.013729999773204327
   vertex 0.042394001036882401 -0.16178800165653229 0.015568000264465809
  endloop
 endfacet
 facet normal -0.3741582838839303 -0.92531567956560279 -0.061615515506071215
  outer loop
   vertex 0.050037998706102371 -0.16328300535678864 0.011876000091433525
   vertex 0.052710000425577164 -0.16441099345684052 0.012590000405907631
   vertex 0.050163000822067261 -0.16345700621604919 0.013729999773204327
  endloop
 endfacet
 facet normal -0.27898949179414773 -0.93986010031829315 -0.19704785027533578
  outer loop
   vertex 0.045754000544548035 -0.16199100017547607 0.011779000051319599
   vertex 0.050037998706102371 -0.16328300535678864 0.011876000091433525
   vertex 0.042394001036882401 -0.16178800165653229 0.015568000264465809
  endloop
 endfacet
 facet normal -0.16216313269681137 -0.98254394121685251 -0.091162064325083822
  outer loop
   vertex 0.042394001036882401 -0.16178800165653229 0.015568000264465809
   vertex 0.041618999093770981 -0.16135400533676147 0.012268999591469765
   vertex 0.045754000544548035 -0.16199100017547607 0.011779000051319599
  endloop
 endfacet
 facet normal -0.23894178999450716 -0.9684151515380971 -0.071266508723699912
  outer loop
   vertex 0.041618999093770981 -0.16135400533676147 0.012268999591469765
   vertex 0.042394001036882401 -0.16178800165653229 0.015568000264465809
   vertex 0.041855998337268829 -0.16157099604606628 0.014422999694943428
  endloop
 endfacet
 facet normal -0.57629400615405291 -0.80875063228601551 0.11750588601377768
  outer loop
   vertex 0.042511999607086182 -0.16173100471496582 0.016538999974727631
   vertex 0.041855998337268829 -0.16157099604606628 0.014422999694943428
   vertex 0.042394001036882401 -0.16178800165653229 0.015568000264465809
  endloop
 endfacet
 facet normal 0.61984912341432929 0.32845486207610541 0.71267416662950134
  outer loop
   vertex 0.047793999314308167 -0.16090799868106842 0.017147999256849289
   vertex 0.048847001045942307 -0.16137200593948364 0.016445999965071678
   vertex 0.047945000231266022 -0.15994100272655487 0.016571000218391418
  endloop
 endfacet
 facet normal 0.77489459426530671 0.23024745881268527 0.58866329551680607
  outer loop
   vertex 0.046018000692129135 -0.15901899337768555 0.018747000023722649
   vertex 0.047793999314308167 -0.16090799868106842 0.017147999256849289
   vertex 0.047945000231266022 -0.15994100272655487 0.016571000218391418
  endloop
 endfacet
 facet normal 0.70344539237132975 0.062024749260014195 0.70803778884377233
  outer loop
   vertex 0.045373000204563141 -0.1597059965133667 0.019447999075055122
   vertex 0.047793999314308167 -0.16090799868106842 0.017147999256849289
   vertex 0.046018000692129135 -0.15901899337768555 0.018747000023722649
  endloop
 endfacet
 facet normal 0.58815456880315709 0.50795319168083963 0.62933119917672964
  outer loop
   vertex 0.050477001816034317 -0.161421999335289 0.014963000081479549
   vertex 0.048937998712062836 -0.1605370044708252 0.015687000006437302
   vertex 0.048847001045942307 -0.16137200593948364 0.016445999965071678
  endloop
 endfacet
 facet normal 0.56453431176987245 0.56531026519597694 0.60143604389708016
  outer loop
   vertex 0.050477001816034317 -0.161421999335289 0.014963000081479549
   vertex 0.048847001045942307 -0.16137200593948364 0.016445999965071678
   vertex 0.050415001809597015 -0.16200800240039825 0.015572000294923782
  endloop
 endfacet
 facet normal 0.73119262248665795 0.41349696329133401 0.54256576575557069
  outer loop
   vertex 0.048937998712062836 -0.1605370044708252 0.015687000006437302
   vertex 0.047945000231266022 -0.15994100272655487 0.016571000218391418
   vertex 0.048847001045942307 -0.16137200593948364 0.016445999965071678
  endloop
 endfacet
 facet normal -0.41999825474960373 -0.85019998418076592 0.31742944555650859
  outer loop
   vertex 0.042511999607086182 -0.16173100471496582 0.016538999974727631
   vertex 0.044100001454353333 -0.1621129959821701 0.017617000266909599
   vertex 0.043522000312805176 -0.16144999861717224 0.018627999350428581
  endloop
 endfacet
 facet normal -0.52600006024103085 0.8201577507212936 0.22508931684604763
  outer loop
   vertex 0.041855998337268829 -0.16157099604606628 0.014422999694943428
   vertex 0.042511999607086182 -0.16173100471496582 0.016538999974727631
   vertex 0.04318699985742569 -0.16064299643039703 0.014151999726891518
  endloop
 endfacet
 facet normal -0.79908756054491947 0.5993572051040863 0.047222995163246038
  outer loop
   vertex 0.04318699985742569 -0.16064299643039703 0.014151999726891518
   vertex 0.042511999607086182 -0.16173100471496582 0.016538999974727631
   vertex 0.043990001082420349 -0.15960100293159485 0.014515000395476818
  endloop
 endfacet
 facet normal -0.67956590115774984 0.69492982088440203 0.2350802629512492
  outer loop
   vertex 0.042511999607086182 -0.16173100471496582 0.016538999974727631
   vertex 0.043522000312805176 -0.16144999861717224 0.018627999350428581
   vertex 0.043990001082420349 -0.15960100293159485 0.014515000395476818
  endloop
 endfacet
 facet normal -0.43776813465214814 -0.84595846235240912 0.30448865374185391
  outer loop
   vertex 0.044100001454353333 -0.1621129959821701 0.017617000266909599
   vertex 0.0441569983959198 -0.16180199384689331 0.018563000485301018
   vertex 0.043522000312805176 -0.16144999861717224 0.018627999350428581
  endloop
 endfacet
 facet normal 0.30374656171666486 -0.18250409942046872 0.93510976892556741
  outer loop
   vertex 0.044814001768827438 -0.15946300327777863 0.019677000120282173
   vertex 0.044394001364707947 -0.16078199446201324 0.019556000828742981
   vertex 0.045373000204563141 -0.1597059965133667 0.019447999075055122
  endloop
 endfacet
 facet normal -0.18376165118984533 0.13764245106695819 0.97328629457948379
  outer loop
   vertex 0.04413200169801712 -0.15906700491905212 0.019263999536633492
   vertex 0.043701998889446259 -0.16022799909114838 0.019347000867128372
   vertex 0.044394001364707947 -0.16078199446201324 0.019556000828742981
  endloop
 endfacet
 facet normal -0.49652425894026603 -0.31508000970452438 0.808819045132109
  outer loop
   vertex 0.044130999594926834 -0.16126599907875061 0.019206000491976738
   vertex 0.044394001364707947 -0.16078199446201324 0.019556000828742981
   vertex 0.043701998889446259 -0.16022799909114838 0.019347000867128372
  endloop
 endfacet
 facet normal -0.48461627363352144 0.074360494065945928 0.87156043063681377
  outer loop
   vertex 0.044394001364707947 -0.16078199446201324 0.019556000828742981
   vertex 0.044814001768827438 -0.15946300327777863 0.019677000120282173
   vertex 0.04413200169801712 -0.15906700491905212 0.019263999536633492
  endloop
 endfacet
 facet normal 0.45041171047885709 0.39441970197177895 0.80097589836399152
  outer loop
   vertex 0.046018000692129135 -0.15901899337768555 0.018747000023722649
   vertex 0.04521000012755394 -0.15853899717330933 0.018965000286698341
   vertex 0.045373000204563141 -0.1597059965133667 0.019447999075055122
  endloop
 endfacet
 facet normal 0.48931335168463908 0.3909865061363908 0.77955243305527744
  outer loop
   vertex 0.044814001768827438 -0.15946300327777863 0.019677000120282173
   vertex 0.045373000204563141 -0.1597059965133667 0.019447999075055122
   vertex 0.04521000012755394 -0.15853899717330933 0.018965000286698341
  endloop
 endfacet
 facet normal -0.34299345033963546 -0.72830471066593028 0.59323497995813379
  outer loop
   vertex 0.044130999594926834 -0.16126599907875061 0.019206000491976738
   vertex 0.043522000312805176 -0.16144999861717224 0.018627999350428581
   vertex 0.0441569983959198 -0.16180199384689331 0.018563000485301018
  endloop
 endfacet
 facet normal -0.58999784333310656 -0.34312353553475117 0.73086851363594507
  outer loop
   vertex 0.043522000312805176 -0.16144999861717224 0.018627999350428581
   vertex 0.044130999594926834 -0.16126599907875061 0.019206000491976738
   vertex 0.043701998889446259 -0.16022799909114838 0.019347000867128372
  endloop
 endfacet
 facet normal -0.20722690215764494 -0.77032048559002253 0.60304507335894686
  outer loop
   vertex 0.05502999946475029 -0.16424299776554108 0.014093999750912189
   vertex 0.052439000457525253 -0.16262300312519073 0.015273000113666058
   vertex 0.053033001720905304 -0.16442599892616272 0.013174000196158886
  endloop
 endfacet
 facet normal -0.087700700972417958 -0.76777762561196738 0.63468583146198898
  outer loop
   vertex 0.053033001720905304 -0.16442599892616272 0.013174000196158886
   vertex 0.052439000457525253 -0.16262300312519073 0.015273000113666058
   vertex 0.051288001239299774 -0.16235099732875824 0.015443000011146069
  endloop
 endfacet
 facet normal -0.095431806716942846 -0.99506389110896376 0.027214387331492739
  outer loop
   vertex 0.053033001720905304 -0.16442599892616272 0.013174000196158886
   vertex 0.052710000425577164 -0.16441099345684052 0.012590000405907631
   vertex 0.056455999612808228 -0.16477799415588379 0.0123070003464818
  endloop
 endfacet
 facet normal -0.032636196260166707 -0.96433579224836263 0.2626620613685785
  outer loop
   vertex 0.05502999946475029 -0.16424299776554108 0.014093999750912189
   vertex 0.053033001720905304 -0.16442599892616272 0.013174000196158886
   vertex 0.056455999612808228 -0.16477799415588379 0.0123070003464818
  endloop
 endfacet
 facet normal 0.19162099990422393 0.21191307086156522 0.95831844539992372
  outer loop
   vertex 0.052439000457525253 -0.16262300312519073 0.015273000113666058
   vertex 0.051624998450279236 -0.16200000047683716 0.015297999605536461
   vertex 0.051288001239299774 -0.16235099732875824 0.015443000011146069
  endloop
 endfacet
 facet normal 0.21570152689460811 0.18868452186750689 0.95805584519012521
  outer loop
   vertex 0.050415001809597015 -0.16200800240039825 0.015572000294923782
   vertex 0.051288001239299774 -0.16235099732875824 0.015443000011146069
   vertex 0.051624998450279236 -0.16200000047683716 0.015297999605536461
  endloop
 endfacet
 facet normal 0.15233492562320131 0.70437715979605131 0.69328701646073077
  outer loop
   vertex 0.050477001816034317 -0.161421999335289 0.014963000081479549
   vertex 0.050415001809597015 -0.16200800240039825 0.015572000294923782
   vertex 0.051624998450279236 -0.16200000047683716 0.015297999605536461
  endloop
 endfacet
 facet normal -0.099824815765881189 -0.99450105921387566 -0.031664639265072084
  outer loop
   vertex 0.056455999612808228 -0.16477799415588379 0.0123070003464818
   vertex 0.052710000425577164 -0.16441099345684052 0.012590000405907631
   vertex 0.055615000426769257 -0.16464400291442871 0.010750000365078449
  endloop
 endfacet
 facet normal -0.30264921921978494 -0.87985950301577764 -0.36640238134936198
  outer loop
   vertex 0.05276000127196312 -0.16387100517749786 0.011251999996602535
   vertex 0.055615000426769257 -0.16464400291442871 0.010750000365078449
   vertex 0.052710000425577164 -0.16441099345684052 0.012590000405907631
  endloop
 endfacet
 facet normal -0.27622841655934532 -0.88762081941083526 -0.3685473413736069
  outer loop
   vertex 0.050037998706102371 -0.16328300535678864 0.011876000091433525
   vertex 0.05276000127196312 -0.16387100517749786 0.011251999996602535
   vertex 0.052710000425577164 -0.16441099345684052 0.012590000405907631
  endloop
 endfacet
 facet normal -0.29918448463115599 -0.71770588147957026 -0.62879798969591405
  outer loop
   vertex 0.05276000127196312 -0.16387100517749786 0.011251999996602535
   vertex 0.050037998706102371 -0.16328300535678864 0.011876000091433525
   vertex 0.051127001643180847 -0.1624000072479248 0.010350000113248825
  endloop
 endfacet
 facet normal -0.041596016672285879 -0.85164018409664899 -0.52247370099252333
  outer loop
   vertex 0.049823999404907227 -0.16265599429607391 0.010870999656617641
   vertex 0.051127001643180847 -0.1624000072479248 0.010350000113248825
   vertex 0.050037998706102371 -0.16328300535678864 0.011876000091433525
  endloop
 endfacet
 facet normal -0.24415197411731376 -0.84524087015595895 -0.47535006569118721
  outer loop
   vertex 0.045754000544548035 -0.16199100017547607 0.011779000051319599
   vertex 0.049823999404907227 -0.16265599429607391 0.010870999656617641
   vertex 0.050037998706102371 -0.16328300535678864 0.011876000091433525
  endloop
 endfacet
 facet normal -0.26644964890287731 -0.58858550435184687 -0.76326383948567578
  outer loop
   vertex 0.048145998269319534 -0.16140100359916687 0.010489000007510185
   vertex 0.049823999404907227 -0.16265599429607391 0.010870999656617641
   vertex 0.045754000544548035 -0.16199100017547607 0.011779000051319599
  endloop
 endfacet
 facet normal -0.16263437985514675 -0.74787087411961217 -0.64361418111528501
  outer loop
   vertex 0.046773001551628113 -0.16088899970054626 0.010240999981760979
   vertex 0.048145998269319534 -0.16140100359916687 0.010489000007510185
   vertex 0.045754000544548035 -0.16199100017547607 0.011779000051319599
  endloop
 endfacet
 facet normal -0.18991442903337219 -0.83267553163583674 -0.52017686286483833
  outer loop
   vertex 0.044872000813484192 -0.16065099835395813 0.0099560003727674484
   vertex 0.045754000544548035 -0.16199100017547607 0.011779000051319599
   vertex 0.041618999093770981 -0.16135400533676147 0.012268999591469765
  endloop
 endfacet
 facet normal -0.013077297087790152 -0.80868360290142571 -0.58809847364131707
  outer loop
   vertex 0.046773001551628113 -0.16088899970054626 0.010240999981760979
   vertex 0.045754000544548035 -0.16199100017547607 0.011779000051319599
   vertex 0.044872000813484192 -0.16065099835395813 0.0099560003727674484
  endloop
 endfacet
 facet normal -0.029397275134227508 -0.94411705027866488 -0.3282968102004582
  outer loop
   vertex 0.042598001658916473 -0.16064000129699707 0.010127999819815159
   vertex 0.044872000813484192 -0.16065099835395813 0.0099560003727674484
   vertex 0.041618999093770981 -0.16135400533676147 0.012268999591469765
  endloop
 endfacet
 facet normal -0.59825762453166065 0.80127871936511486 -0.0063426005972480066
  outer loop
   vertex 0.042337998747825623 -0.16082599759101868 0.011154999956488609
   vertex 0.042598001658916473 -0.16064000129699707 0.010127999819815159
   vertex 0.041618999093770981 -0.16135400533676147 0.012268999591469765
  endloop
 endfacet
 facet normal -0.54624247340956777 0.82528870983086755 0.14324002816636111
  outer loop
   vertex 0.04318699985742569 -0.16064299643039703 0.014151999726891518
   vertex 0.041618999093770981 -0.16135400533676147 0.012268999591469765
   vertex 0.041855998337268829 -0.16157099604606628 0.014422999694943428
  endloop
 endfacet
 facet normal -0.58028670799939974 0.81433186867287466 0.011443084503905548
  outer loop
   vertex 0.042337998747825623 -0.16082599759101868 0.011154999956488609
   vertex 0.041618999093770981 -0.16135400533676147 0.012268999591469765
   vertex 0.043820999562740326 -0.15980400145053864 0.013629999943077564
  endloop
 endfacet
 facet normal -0.66513973336411403 0.68605336543114248 0.29482183582787552
  outer loop
   vertex 0.041618999093770981 -0.16135400533676147 0.012268999591469765
   vertex 0.04318699985742569 -0.16064299643039703 0.014151999726891518
   vertex 0.043820999562740326 -0.15980400145053864 0.013629999943077564
  endloop
 endfacet
 facet normal 0.60020792246310983 0.78682415820511209 0.14372958594991611
  outer loop
   vertex 0.047945000231266022 -0.15994100272655487 0.016571000218391418
   vertex 0.048937998712062836 -0.1605370044708252 0.015687000006437302
   vertex 0.045759998261928558 -0.15719300508499146 0.010652000084519386
  endloop
 endfacet
 facet normal 0.67879565265384167 0.72904792872661373 0.087895276082844323
  outer loop
   vertex 0.045311998575925827 -0.15760800242424011 0.017554000020027161
   vertex 0.047945000231266022 -0.15994100272655487 0.016571000218391418
   vertex 0.045759998261928558 -0.15719300508499146 0.010652000084519386
  endloop
 endfacet
 facet normal 0.69143931206624543 0.63587871125497175 0.3428847361753995
  outer loop
   vertex 0.046018000692129135 -0.15901899337768555 0.018747000023722649
   vertex 0.047945000231266022 -0.15994100272655487 0.016571000218391418
   vertex 0.045311998575925827 -0.15760800242424011 0.017554000020027161
  endloop
 endfacet
 facet normal 0.53906369533011222 0.68458568956348786 0.49066563566437771
  outer loop
   vertex 0.04521000012755394 -0.15853899717330933 0.018965000286698341
   vertex 0.046018000692129135 -0.15901899337768555 0.018747000023722649
   vertex 0.045311998575925827 -0.15760800242424011 0.017554000020027161
  endloop
 endfacet
 facet normal 0.5409647709824098 0.83010136790214639 0.13523622134226534
  outer loop
   vertex 0.050255998969078064 -0.16097299754619598 0.01309099979698658
   vertex 0.048937998712062836 -0.1605370044708252 0.015687000006437302
   vertex 0.050477001816034317 -0.161421999335289 0.014963000081479549
  endloop
 endfacet
 facet normal 0.40375354284290671 0.89930410411645212 0.16803334478937995
  outer loop
   vertex 0.051624998450279236 -0.16200000047683716 0.015297999605536461
   vertex 0.050255998969078064 -0.16097299754619598 0.01309099979698658
   vertex 0.050477001816034317 -0.161421999335289 0.014963000081479549
  endloop
 endfacet
 facet normal 0.58217248344878869 0.79681413102828547 0.16174807605875244
  outer loop
   vertex 0.045759998261928558 -0.15719300508499146 0.010652000084519386
   vertex 0.048937998712062836 -0.1605370044708252 0.015687000006437302
   vertex 0.050255998969078064 -0.16097299754619598 0.01309099979698658
  endloop
 endfacet
 facet normal -0.90015492745612635 0.3116392489143549 -0.30430590712727307
  outer loop
   vertex 0.04413200169801712 -0.15906700491905212 0.019263999536633492
   vertex 0.043522000312805176 -0.16144999861717224 0.018627999350428581
   vertex 0.043701998889446259 -0.16022799909114838 0.019347000867128372
  endloop
 endfacet
 facet normal -0.96814985774278473 0.2502120427608599 -0.0089323350845912936
  outer loop
   vertex 0.043522000312805176 -0.16144999861717224 0.018627999350428581
   vertex 0.04413200169801712 -0.15906700491905212 0.019263999536633492
   vertex 0.044365998357534409 -0.1583079993724823 0.015162999741733074
  endloop
 endfacet
 facet normal -0.95645758011379178 0.29104061713855706 0.022005831465258519
  outer loop
   vertex 0.043990001082420349 -0.15960100293159485 0.014515000395476818
   vertex 0.043522000312805176 -0.16144999861717224 0.018627999350428581
   vertex 0.044275000691413879 -0.15866999328136444 0.014588999561965466
  endloop
 endfacet
 facet normal -0.96743845662512606 0.25303033315975804 -0.0062034783674799841
  outer loop
   vertex 0.043522000312805176 -0.16144999861717224 0.018627999350428581
   vertex 0.044365998357534409 -0.1583079993724823 0.015162999741733074
   vertex 0.044275000691413879 -0.15866999328136444 0.014588999561965466
  endloop
 endfacet
 facet normal -0.79221331746928891 0.60997276346519769 0.018201303660274917
  outer loop
   vertex 0.043820999562740326 -0.15980400145053864 0.013629999943077564
   vertex 0.04318699985742569 -0.16064299643039703 0.014151999726891518
   vertex 0.04355200007557869 -0.16016900539398193 0.014154000207781792
  endloop
 endfacet
 facet normal -0.79230945889650251 0.61011795992558526 0.0013402683960100383
  outer loop
   vertex 0.043990001082420349 -0.15960100293159485 0.014515000395476818
   vertex 0.04355200007557869 -0.16016900539398193 0.014154000207781792
   vertex 0.04318699985742569 -0.16064299643039703 0.014151999726891518
  endloop
 endfacet
 facet normal -0.82469406639363096 0.35729296831939689 0.43843064633377521
  outer loop
   vertex 0.043990001082420349 -0.15960100293159485 0.014515000395476818
   vertex 0.044011000543832779 -0.15911200642585754 0.014155999757349491
   vertex 0.04355200007557869 -0.16016900539398193 0.014154000207781792
  endloop
 endfacet
 facet normal -0.91930876984525722 0.25778327965477688 0.29735360501602615
  outer loop
   vertex 0.043990001082420349 -0.15960100293159485 0.014515000395476818
   vertex 0.044275000691413879 -0.15866999328136444 0.014588999561965466
   vertex 0.044011000543832779 -0.15911200642585754 0.014155999757349491
  endloop
 endfacet
 facet normal -0.09723215868342576 0.63329054910813865 0.76778186207286347
  outer loop
   vertex 0.044814001768827438 -0.15946300327777863 0.019677000120282173
   vertex 0.04521000012755394 -0.15853899717330933 0.018965000286698341
   vertex 0.04413200169801712 -0.15906700491905212 0.019263999536633492
  endloop
 endfacet
 facet normal -0.10042243713316636 0.63756319750386359 0.76382491665884056
  outer loop
   vertex 0.044181998819112778 -0.15853199362754822 0.018823999911546707
   vertex 0.04413200169801712 -0.15906700491905212 0.019263999536633492
   vertex 0.04521000012755394 -0.15853899717330933 0.018965000286698341
  endloop
 endfacet
 facet normal -0.93475920596413808 -0.16945685925430309 -0.3122652713911066
  outer loop
   vertex 0.044181998819112778 -0.15853199362754822 0.018823999911546707
   vertex 0.044394001364707947 -0.1576559990644455 0.017713999375700951
   vertex 0.04413200169801712 -0.15906700491905212 0.019263999536633492
  endloop
 endfacet
 facet normal -0.76635336603510951 0.53423293827261786 0.3567880127348208
  outer loop
   vertex 0.044054001569747925 -0.15755000710487366 0.016824999824166298
   vertex 0.04413200169801712 -0.15906700491905212 0.019263999536633492
   vertex 0.044394001364707947 -0.1576559990644455 0.017713999375700951
  endloop
 endfacet
 facet normal -0.97566020922949348 -0.19883768356503001 -0.092470166652569102
  outer loop
   vertex 0.044365998357534409 -0.1583079993724823 0.015162999741733074
   vertex 0.04413200169801712 -0.15906700491905212 0.019263999536633492
   vertex 0.044054001569747925 -0.15755000710487366 0.016824999824166298
  endloop
 endfacet
 facet normal -0.078064994066793306 0.78979463811786732 0.60838333828402846
  outer loop
   vertex 0.044394001364707947 -0.1576559990644455 0.017713999375700951
   vertex 0.044181998819112778 -0.15853199362754822 0.018823999911546707
   vertex 0.04521000012755394 -0.15853899717330933 0.018965000286698341
  endloop
 endfacet
 facet normal 0.052829785371340289 0.83175620661084715 0.55262159435001434
  outer loop
   vertex 0.044394001364707947 -0.1576559990644455 0.017713999375700951
   vertex 0.04521000012755394 -0.15853899717330933 0.018965000286698341
   vertex 0.045311998575925827 -0.15760800242424011 0.017554000020027161
  endloop
 endfacet
 facet normal -0.35219622955875185 -0.89323119197258838 0.27945635360790805
  outer loop
   vertex 0.055819001048803329 -0.16430099308490753 0.014902999624609947
   vertex 0.05502999946475029 -0.16424299776554108 0.014093999750912189
   vertex 0.056217998266220093 -0.16472800076007843 0.014041000045835972
  endloop
 endfacet
 facet normal -0.37881437664066875 -0.9251261916388015 -0.025321879753078796
  outer loop
   vertex 0.056217998266220093 -0.16472800076007843 0.014041000045835972
   vertex 0.05502999946475029 -0.16424299776554108 0.014093999750912189
   vertex 0.056455999612808228 -0.16477799415588379 0.0123070003464818
  endloop
 endfacet
 facet normal -0.39418080982139209 -0.86049641396636511 0.32274976486370655
  outer loop
   vertex 0.052696999162435532 -0.16235099732875824 0.01628899946808815
   vertex 0.05502999946475029 -0.16424299776554108 0.014093999750912189
   vertex 0.055819001048803329 -0.16430099308490753 0.014902999624609947
  endloop
 endfacet
 facet normal -0.38841959446818575 -0.86072302593216576 0.32906852062047276
  outer loop
   vertex 0.052696999162435532 -0.16235099732875824 0.01628899946808815
   vertex 0.052439000457525253 -0.16262300312519073 0.015273000113666058
   vertex 0.05502999946475029 -0.16424299776554108 0.014093999750912189
  endloop
 endfacet
 facet normal -0.57186809919888681 -0.74448850540992428 0.34453409472960606
  outer loop
   vertex 0.052696999162435532 -0.16235099732875824 0.01628899946808815
   vertex 0.052202999591827393 -0.16225799918174744 0.015669999644160271
   vertex 0.052439000457525253 -0.16262300312519073 0.015273000113666058
  endloop
 endfacet
 facet normal -0.56158231606945674 -0.74794983296316186 0.35383096196975605
  outer loop
   vertex 0.052439000457525253 -0.16262300312519073 0.015273000113666058
   vertex 0.052202999591827393 -0.16225799918174744 0.015669999644160271
   vertex 0.051624998450279236 -0.16200000047683716 0.015297999605536461
  endloop
 endfacet
 facet normal -0.34081529864407145 -0.93992427561618042 -0.01967964221094792
  outer loop
   vertex 0.056217998266220093 -0.16472800076007843 0.014041000045835972
   vertex 0.056455999612808228 -0.16477799415588379 0.0123070003464818
   vertex 0.056777998805046082 -0.16490299999713898 0.012701000086963177
  endloop
 endfacet
 facet normal -0.31483717495429581 -0.94498887519533259 0.088733190091747821
  outer loop
   vertex 0.055615000426769257 -0.16464400291442871 0.010750000365078449
   vertex 0.056637000292539597 -0.1648859977722168 0.011799000203609467
   vertex 0.056455999612808228 -0.16477799415588379 0.0123070003464818
  endloop
 endfacet
 facet normal 0.47836200219321873 -0.64525264081750955 -0.59566670578077885
  outer loop
   vertex 0.057778999209403992 -0.16446000337600708 0.013024999760091305
   vertex 0.056777998805046082 -0.16490299999713898 0.012701000086963177
   vertex 0.056455999612808228 -0.16477799415588379 0.0123070003464818
  endloop
 endfacet
 facet normal 0.35962053103106012 -0.87836486058379459 0.3148781436564777
  outer loop
   vertex 0.056637000292539597 -0.1648859977722168 0.011799000203609467
   vertex 0.057216998189687729 -0.16467900574207306 0.011714000254869461
   vertex 0.056455999612808228 -0.16477799415588379 0.0123070003464818
  endloop
 endfacet
 facet normal 0.19083442901060907 -0.97822432087958011 0.081605139200168403
  outer loop
   vertex 0.057778999209403992 -0.16446000337600708 0.013024999760091305
   vertex 0.056455999612808228 -0.16477799415588379 0.0123070003464818
   vertex 0.057216998189687729 -0.16467900574207306 0.011714000254869461
  endloop
 endfacet
 facet normal -0.22673021651069311 0.95342888470194065 0.19891397823438151
  outer loop
   vertex 0.05167900025844574 -0.16149500012397766 0.012938999570906162
   vertex 0.051624998450279236 -0.16200000047683716 0.015297999605536461
   vertex 0.052368998527526855 -0.16168099641799927 0.01461699977517128
  endloop
 endfacet
 facet normal 0.35626846134188878 0.91197952423928197 0.20338665349864063
  outer loop
   vertex 0.051624998450279236 -0.16200000047683716 0.015297999605536461
   vertex 0.05167900025844574 -0.16149500012397766 0.012938999570906162
   vertex 0.050255998969078064 -0.16097299754619598 0.01309099979698658
  endloop
 endfacet
 facet normal -0.36237725757877709 0.40116748659161366 0.84127722594365528
  outer loop
   vertex 0.051624998450279236 -0.16200000047683716 0.015297999605536461
   vertex 0.052202999591827393 -0.16225799918174744 0.015669999644160271
   vertex 0.052622001618146896 -0.16145800054073334 0.015468999743461609
  endloop
 endfacet
 facet normal -0.46316050601341247 0.88136613221904536 -0.093145513293126786
  outer loop
   vertex 0.052368998527526855 -0.16168099641799927 0.01461699977517128
   vertex 0.051624998450279236 -0.16200000047683716 0.015297999605536461
   vertex 0.052622001618146896 -0.16145800054073334 0.015468999743461609
  endloop
 endfacet
 facet normal -0.016776659988971827 -0.76731761049693736 -0.64104775820595827
  outer loop
   vertex 0.053941000252962112 -0.1635890007019043 0.0095309996977448463
   vertex 0.056088000535964966 -0.16372199356555939 0.0096340002492070198
   vertex 0.055615000426769257 -0.16464400291442871 0.010750000365078449
  endloop
 endfacet
 facet normal 0.24458192175672286 -0.86513233875858331 -0.43786495633230615
  outer loop
   vertex 0.057216998189687729 -0.16467900574207306 0.011714000254869461
   vertex 0.056637000292539597 -0.1648859977722168 0.011799000203609467
   vertex 0.055615000426769257 -0.16464400291442871 0.010750000365078449
  endloop
 endfacet
 facet normal 0.20084176244946847 -0.90838277220415353 -0.36674695038798671
  outer loop
   vertex 0.057216998189687729 -0.16467900574207306 0.011714000254869461
   vertex 0.055615000426769257 -0.16464400291442871 0.010750000365078449
   vertex 0.057165000587701797 -0.16428999602794647 0.010722000151872635
  endloop
 endfacet
 facet normal 0.17078459558924936 -0.79392602159768166 -0.58353585505904793
  outer loop
   vertex 0.056088000535964966 -0.16372199356555939 0.0096340002492070198
   vertex 0.057165000587701797 -0.16428999602794647 0.010722000151872635
   vertex 0.055615000426769257 -0.16464400291442871 0.010750000365078449
  endloop
 endfacet
 facet normal -0.3018002356466033 -0.88590263933230473 -0.35226855009738123
  outer loop
   vertex 0.053941000252962112 -0.1635890007019043 0.0095309996977448463
   vertex 0.055615000426769257 -0.16464400291442871 0.010750000365078449
   vertex 0.05276000127196312 -0.16387100517749786 0.011251999996602535
  endloop
 endfacet
 facet normal -0.50034087910159664 -0.73150074830190071 -0.46321232705272497
  outer loop
   vertex 0.053941000252962112 -0.1635890007019043 0.0095309996977448463
   vertex 0.05276000127196312 -0.16387100517749786 0.011251999996602535
   vertex 0.05201299861073494 -0.1622689962387085 0.0095290001481771469
  endloop
 endfacet
 facet normal -0.27044506286779241 -0.70333919854758808 -0.65739899585934292
  outer loop
   vertex 0.051127001643180847 -0.1624000072479248 0.010350000113248825
   vertex 0.051778998225927353 -0.1626179963350296 0.010315000079572201
   vertex 0.05276000127196312 -0.16387100517749786 0.011251999996602535
  endloop
 endfacet
 facet normal -0.48797133469972676 -0.73458949848991351 -0.47144696967920408
  outer loop
   vertex 0.051778998225927353 -0.1626179963350296 0.010315000079572201
   vertex 0.05201299861073494 -0.1622689962387085 0.0095290001481771469
   vertex 0.05276000127196312 -0.16387100517749786 0.011251999996602535
  endloop
 endfacet
 facet normal -0.26642761366493961 -0.41469600509323912 -0.87008249610971589
  outer loop
   vertex 0.051127001643180847 -0.1624000072479248 0.010350000113248825
   vertex 0.049823999404907227 -0.16265599429607391 0.010870999656617641
   vertex 0.05065000057220459 -0.1622530072927475 0.010425999760627747
  endloop
 endfacet
 facet normal -0.21003738288561874 -0.49261863508838688 -0.84451831131966271
  outer loop
   vertex 0.051778998225927353 -0.1626179963350296 0.010315000079572201
   vertex 0.051127001643180847 -0.1624000072479248 0.010350000113248825
   vertex 0.051578998565673828 -0.16212299466133118 0.010076000355184078
  endloop
 endfacet
 facet normal -0.085838010486400607 0.22343937416776713 -0.97093083277196068
  outer loop
   vertex 0.05065000057220459 -0.1622530072927475 0.010425999760627747
   vertex 0.051066000014543533 -0.16190199553966522 0.010470000095665455
   vertex 0.051127001643180847 -0.1624000072479248 0.010350000113248825
  endloop
 endfacet
 facet normal -0.56956680839112517 0.12594892467829644 -0.81223796953326932
  outer loop
   vertex 0.051578998565673828 -0.16212299466133118 0.010076000355184078
   vertex 0.051127001643180847 -0.1624000072479248 0.010350000113248825
   vertex 0.051066000014543533 -0.16190199553966522 0.010470000095665455
  endloop
 endfacet
 facet normal -0.10030826737759302 -0.41005190598509811 -0.90652947326255939
  outer loop
   vertex 0.048145998269319534 -0.16140100359916687 0.010489000007510185
   vertex 0.049780000001192093 -0.16202400624752045 0.010590000078082085
   vertex 0.049823999404907227 -0.16265599429607391 0.010870999656617641
  endloop
 endfacet
 facet normal -0.27148968208069685 -0.40673767265497018 -0.87227164241819788
  outer loop
   vertex 0.049780000001192093 -0.16202400624752045 0.010590000078082085
   vertex 0.05065000057220459 -0.1622530072927475 0.010425999760627747
   vertex 0.049823999404907227 -0.16265599429607391 0.010870999656617641
  endloop
 endfacet
 facet normal 0.26336580934582426 0.56385260360227485 -0.7827571091204184
  outer loop
   vertex 0.049780000001192093 -0.16202400624752045 0.010590000078082085
   vertex 0.048145998269319534 -0.16140100359916687 0.010489000007510185
   vertex 0.049922998994588852 -0.1614300012588501 0.01106599997729063
  endloop
 endfacet
 facet normal 0.30894819414402203 0.0086733447121921312 -0.95103931907500605
  outer loop
   vertex 0.047609999775886536 -0.15974299609661102 0.010329999960958958
   vertex 0.049922998994588852 -0.1614300012588501 0.01106599997729063
   vertex 0.048145998269319534 -0.16140100359916687 0.010489000007510185
  endloop
 endfacet
 facet normal 0.16238942902266623 -0.042042411108380841 -0.98583066954213117
  outer loop
   vertex 0.048145998269319534 -0.16140100359916687 0.010489000007510185
   vertex 0.046773001551628113 -0.16088899970054626 0.010240999981760979
   vertex 0.047609999775886536 -0.15974299609661102 0.010329999960958958
  endloop
 endfacet
 facet normal 0.084171847350568235 -0.41338532934835798 -0.90665741578235726
  outer loop
   vertex 0.046773001551628113 -0.16088899970054626 0.010240999981760979
   vertex 0.044872000813484192 -0.16065099835395813 0.0099560003727674484
   vertex 0.045852001756429672 -0.15956099331378937 0.0095499996095895767
  endloop
 endfacet
 facet normal 0.37885275045936878 -0.20664239817143629 -0.90209174297702599
  outer loop
   vertex 0.046773001551628113 -0.16088899970054626 0.010240999981760979
   vertex 0.045852001756429672 -0.15956099331378937 0.0095499996095895767
   vertex 0.047609999775886536 -0.15974299609661102 0.010329999960958958
  endloop
 endfacet
 facet normal -0.0016591627390155485 -0.66856364358334663 -0.74365307883284215
  outer loop
   vertex 0.043676000088453293 -0.15939000248908997 0.0088250003755092621
   vertex 0.044872000813484192 -0.16065099835395813 0.0099560003727674484
   vertex 0.042840000241994858 -0.1602800041437149 0.0096270004287362099
  endloop
 endfacet
 facet normal 0.23375789322392981 -0.5169042816283147 -0.82350908373242948
  outer loop
   vertex 0.043676000088453293 -0.15939000248908997 0.0088250003755092621
   vertex 0.045852001756429672 -0.15956099331378937 0.0095499996095895767
   vertex 0.044872000813484192 -0.16065099835395813 0.0099560003727674484
  endloop
 endfacet
 facet normal -0.049126551375865794 -0.79971265578403172 -0.5983696601004812
  outer loop
   vertex 0.042598001658916473 -0.16064000129699707 0.010127999819815159
   vertex 0.042840000241994858 -0.1602800041437149 0.0096270004287362099
   vertex 0.044872000813484192 -0.16065099835395813 0.0099560003727674484
  endloop
 endfacet
 facet normal -0.96666750907546428 -0.042663942647483445 -0.25245537208704738
  outer loop
   vertex 0.042337998747825623 -0.16082599759101868 0.011154999956488609
   vertex 0.042443998157978058 -0.16048799455165863 0.010692000389099121
   vertex 0.042598001658916473 -0.16064000129699707 0.010127999819815159
  endloop
 endfacet
 facet normal -0.9277411847251994 0.27961286784014094 -0.24721031188624701
  outer loop
   vertex 0.042840000241994858 -0.1602800041437149 0.0096270004287362099
   vertex 0.042598001658916473 -0.16064000129699707 0.010127999819815159
   vertex 0.043017998337745667 -0.15921199321746826 0.010166999883949757
  endloop
 endfacet
 facet normal -0.62807667172641601 0.69104093091220387 -0.35774589618479541
  outer loop
   vertex 0.042789001017808914 -0.16011799871921539 0.010800999589264393
   vertex 0.042598001658916473 -0.16064000129699707 0.010127999819815159
   vertex 0.042443998157978058 -0.16048799455165863 0.010692000389099121
  endloop
 endfacet
 facet normal -0.95834203655927486 0.28037267798158294 0.054513323186697736
  outer loop
   vertex 0.042598001658916473 -0.16064000129699707 0.010127999819815159
   vertex 0.042789001017808914 -0.16011799871921539 0.010800999589264393
   vertex 0.043017998337745667 -0.15921199321746826 0.010166999883949757
  endloop
 endfacet
 facet normal -0.74218055552171414 0.61075255350804147 0.27595170118860823
  outer loop
   vertex 0.042443998157978058 -0.16048799455165863 0.010692000389099121
   vertex 0.042337998747825623 -0.16082599759101868 0.011154999956488609
   vertex 0.042789001017808914 -0.16011799871921539 0.010800999589264393
  endloop
 endfacet
 facet normal -0.77144531130064853 0.59889119498050469 0.21494526802669642
  outer loop
   vertex 0.042789001017808914 -0.16011799871921539 0.010800999589264393
   vertex 0.042337998747825623 -0.16082599759101868 0.011154999956488609
   vertex 0.043820999562740326 -0.15980400145053864 0.013629999943077564
  endloop
 endfacet
 facet normal -0.9004741280388453 0.39138849069128867 -0.18963489680719692
  outer loop
   vertex 0.043820999562740326 -0.15980400145053864 0.013629999943077564
   vertex 0.04355200007557869 -0.16016900539398193 0.014154000207781792
   vertex 0.044011000543832779 -0.15911200642585754 0.014155999757349491
  endloop
 endfacet
 facet normal -0.89193876389005011 0.34976174928581416 0.28655184558263908
  outer loop
   vertex 0.044245999306440353 -0.1581680029630661 0.012955999933183193
   vertex 0.042789001017808914 -0.16011799871921539 0.010800999589264393
   vertex 0.043820999562740326 -0.15980400145053864 0.013629999943077564
  endloop
 endfacet
 facet normal -0.96656811149443489 0.25611976597698993 0.012196364949176834
  outer loop
   vertex 0.044245999306440353 -0.1581680029630661 0.012955999933183193
   vertex 0.043820999562740326 -0.15980400145053864 0.013629999943077564
   vertex 0.044011000543832779 -0.15911200642585754 0.014155999757349491
  endloop
 endfacet
 facet normal 0.72775821710687338 0.57515752396221376 -0.37357971045424904
  outer loop
   vertex 0.046105001121759415 -0.15823100507259369 0.0097260000184178352
   vertex 0.045759998261928558 -0.15719300508499146 0.010652000084519386
   vertex 0.047609999775886536 -0.15974299609661102 0.010329999960958958
  endloop
 endfacet
 facet normal 0.70642396040477162 0.56614587022097274 -0.42478705464947397
  outer loop
   vertex 0.047609999775886536 -0.15974299609661102 0.010329999960958958
   vertex 0.045759998261928558 -0.15719300508499146 0.010652000084519386
   vertex 0.050255998969078064 -0.16097299754619598 0.01309099979698658
  endloop
 endfacet
 facet normal 0.53251179782576219 0.65511951652103417 -0.53595671863464989
  outer loop
   vertex 0.045010000467300415 -0.15758800506591797 0.009424000047147274
   vertex 0.045759998261928558 -0.15719300508499146 0.010652000084519386
   vertex 0.046105001121759415 -0.15823100507259369 0.0097260000184178352
  endloop
 endfacet
 facet normal 0.14058493601597885 0.91426346909314304 -0.37994497607831934
  outer loop
   vertex 0.045759998261928558 -0.15719300508499146 0.010652000084519386
   vertex 0.045010000467300415 -0.15758800506591797 0.009424000047147274
   vertex 0.043832000344991684 -0.15726099908351898 0.0097749996930360794
  endloop
 endfacet
 facet normal 0.11728658883446094 0.93650752477724231 -0.33045046847474557
  outer loop
   vertex 0.045759998261928558 -0.15719300508499146 0.010652000084519386
   vertex 0.043832000344991684 -0.15726099908351898 0.0097749996930360794
   vertex 0.043827001005411148 -0.15684400498867035 0.010955000296235085
  endloop
 endfacet
 facet normal 0.18800926026298748 0.97959013378071458 0.071103360362542875
  outer loop
   vertex 0.045759998261928558 -0.15719300508499146 0.010652000084519386
   vertex 0.043827001005411148 -0.15684400498867035 0.010955000296235085
   vertex 0.045311998575925827 -0.15760800242424011 0.017554000020027161
  endloop
 endfacet
 facet normal 0.35869311815641675 0.93305606204828562 0.027306264156282022
  outer loop
   vertex 0.043827001005411148 -0.15684400498867035 0.010955000296235085
   vertex 0.043915998190641403 -0.1569570004940033 0.013647000305354595
   vertex 0.045311998575925827 -0.15760800242424011 0.017554000020027161
  endloop
 endfacet
 facet normal 0.22361745345274103 0.97122741594225481 0.081930098458633194
  outer loop
   vertex 0.044466998428106308 -0.15738299489021301 0.017193000763654709
   vertex 0.045311998575925827 -0.15760800242424011 0.017554000020027161
   vertex 0.043915998190641403 -0.1569570004940033 0.013647000305354595
  endloop
 endfacet
 facet normal 0.035346372163350966 0.883163516119567 0.4677315873128659
  outer loop
   vertex 0.044466998428106308 -0.15738299489021301 0.017193000763654709
   vertex 0.044394001364707947 -0.1576559990644455 0.017713999375700951
   vertex 0.045311998575925827 -0.15760800242424011 0.017554000020027161
  endloop
 endfacet
 facet normal 0.62193891463450224 0.7356676060673184 -0.26830050288144858
  outer loop
   vertex 0.049922998994588852 -0.1614300012588501 0.01106599997729063
   vertex 0.047609999775886536 -0.15974299609661102 0.010329999960958958
   vertex 0.050255998969078064 -0.16097299754619598 0.01309099979698658
  endloop
 endfacet
 facet normal 0.30843673971746693 0.9157603467356551 -0.2573902969015201
  outer loop
   vertex 0.049922998994588852 -0.1614300012588501 0.01106599997729063
   vertex 0.050255998969078064 -0.16097299754619598 0.01309099979698658
   vertex 0.05167900025844574 -0.16149500012397766 0.012938999570906162
  endloop
 endfacet
 facet normal -0.85906721167523503 -0.50705559693377589 0.069986766196683051
  outer loop
   vertex 0.044365998357534409 -0.1583079993724823 0.015162999741733074
   vertex 0.044054001569747925 -0.15755000710487366 0.016824999824166298
   vertex 0.044045001268386841 -0.15787899494171143 0.014330999925732613
  endloop
 endfacet
 facet normal -0.94502540930971302 -0.1873769166237037 0.2679866916016595
  outer loop
   vertex 0.044365998357534409 -0.1583079993724823 0.015162999741733074
   vertex 0.044045001268386841 -0.15787899494171143 0.014330999925732613
   vertex 0.044275000691413879 -0.15866999328136444 0.014588999561965466
  endloop
 endfacet
 facet normal -0.82555359071197842 -0.056920539686021253 0.56144574183478435
  outer loop
   vertex 0.044275000691413879 -0.15866999328136444 0.014588999561965466
   vertex 0.044045001268386841 -0.15787899494171143 0.014330999925732613
   vertex 0.044011000543832779 -0.15911200642585754 0.014155999757349491
  endloop
 endfacet
 facet normal -0.98675777936467046 0.04914889605785526 -0.15457513021051739
  outer loop
   vertex 0.044011000543832779 -0.15911200642585754 0.014155999757349491
   vertex 0.044045001268386841 -0.15787899494171143 0.014330999925732613
   vertex 0.044245999306440353 -0.1581680029630661 0.012955999933183193
  endloop
 endfacet
 facet normal -0.58179320767842702 0.75109033339178144 0.31205764625253057
  outer loop
   vertex 0.044394001364707947 -0.1576559990644455 0.017713999375700951
   vertex 0.044466998428106308 -0.15738299489021301 0.017193000763654709
   vertex 0.044054001569747925 -0.15755000710487366 0.016824999824166298
  endloop
 endfacet
 facet normal -0.50215638702497067 0.84591051114771643 0.17965068911595336
  outer loop
   vertex 0.044466998428106308 -0.15738299489021301 0.017193000763654709
   vertex 0.043915998190641403 -0.1569570004940033 0.013647000305354595
   vertex 0.044054001569747925 -0.15755000710487366 0.016824999824166298
  endloop
 endfacet
 facet normal -0.99207976633160677 -0.12401675300963157 0.01993946359289438
  outer loop
   vertex 0.044054001569747925 -0.15755000710487366 0.016824999824166298
   vertex 0.043915998190641403 -0.1569570004940033 0.013647000305354595
   vertex 0.044045001268386841 -0.15787899494171143 0.014330999925732613
  endloop
 endfacet
 facet normal 0.098223964288994423 -0.59334888633477034 0.79893000439628137
  outer loop
   vertex 0.056563001126050949 -0.16361500322818756 0.015320999547839165
   vertex 0.05573200061917305 -0.16314800083637238 0.015769999474287033
   vertex 0.055819001048803329 -0.16430099308490753 0.014902999624609947
  endloop
 endfacet
 facet normal 0.18375666927996417 -0.64909634700901708 0.73817844644413955
  outer loop
   vertex 0.056921999901533127 -0.16384999454021454 0.015025000087916851
   vertex 0.056563001126050949 -0.16361500322818756 0.015320999547839165
   vertex 0.055819001048803329 -0.16430099308490753 0.014902999624609947
  endloop
 endfacet
 facet normal -0.014743842215326734 -0.60164535302171163 0.79862725241761545
  outer loop
   vertex 0.0539730004966259 -0.16226199269294739 0.016404999420046806
   vertex 0.055819001048803329 -0.16430099308490753 0.014902999624609947
   vertex 0.05573200061917305 -0.16314800083637238 0.015769999474287033
  endloop
 endfacet
 facet normal 0.2728272145019715 -0.80836085057872187 0.52164935184349703
  outer loop
   vertex 0.056921999901533127 -0.16384999454021454 0.015025000087916851
   vertex 0.055819001048803329 -0.16430099308490753 0.014902999624609947
   vertex 0.057464998215436935 -0.16424299776554108 0.01413199957460165
  endloop
 endfacet
 facet normal 0.27470075480423045 -0.80496187151691301 0.52590482096475877
  outer loop
   vertex 0.055819001048803329 -0.16430099308490753 0.014902999624609947
   vertex 0.056217998266220093 -0.16472800076007843 0.014041000045835972
   vertex 0.057464998215436935 -0.16424299776554108 0.01413199957460165
  endloop
 endfacet
 facet normal -0.022107616055729466 -0.60247189047159699 0.79783386397414369
  outer loop
   vertex 0.052933000028133392 -0.16187100112438202 0.016658000648021698
   vertex 0.052696999162435532 -0.16235099732875824 0.01628899946808815
   vertex 0.055819001048803329 -0.16430099308490753 0.014902999624609947
  endloop
 endfacet
 facet normal -0.040160193455072324 -0.61592766610212424 0.78677841162022322
  outer loop
   vertex 0.052933000028133392 -0.16187100112438202 0.016658000648021698
   vertex 0.055819001048803329 -0.16430099308490753 0.014902999624609947
   vertex 0.0539730004966259 -0.16226199269294739 0.016404999420046806
  endloop
 endfacet
 facet normal 0.33164489803809266 -0.90358272045951726 0.27120090134857749
  outer loop
   vertex 0.056217998266220093 -0.16472800076007843 0.014041000045835972
   vertex 0.057778999209403992 -0.16446000337600708 0.013024999760091305
   vertex 0.057464998215436935 -0.16424299776554108 0.01413199957460165
  endloop
 endfacet
 facet normal 0.32165746441383453 -0.91227292966065754 0.25356375410382248
  outer loop
   vertex 0.056777998805046082 -0.16490299999713898 0.012701000086963177
   vertex 0.057778999209403992 -0.16446000337600708 0.013024999760091305
   vertex 0.056217998266220093 -0.16472800076007843 0.014041000045835972
  endloop
 endfacet
 facet normal -0.74044547553399509 -0.41519053925560045 0.52854263203064289
  outer loop
   vertex 0.052696999162435532 -0.16235099732875824 0.01628899946808815
   vertex 0.052421998232603073 -0.16178800165653229 0.016346000134944916
   vertex 0.052202999591827393 -0.16225799918174744 0.015669999644160271
  endloop
 endfacet
 facet normal -0.5298553592968247 -0.33758253092008539 0.77800471273766869
  outer loop
   vertex 0.052933000028133392 -0.16187100112438202 0.016658000648021698
   vertex 0.052421998232603073 -0.16178800165653229 0.016346000134944916
   vertex 0.052696999162435532 -0.16235099732875824 0.01628899946808815
  endloop
 endfacet
 facet normal -0.88856121528180954 0.45774999078148487 -0.030395931248514273
  outer loop
   vertex 0.052421998232603073 -0.16178800165653229 0.016346000134944916
   vertex 0.052622001618146896 -0.16145800054073334 0.015468999743461609
   vertex 0.052202999591827393 -0.16225799918174744 0.015669999644160271
  endloop
 endfacet
 facet normal 0.87622503372496252 0.45477926354340681 0.15939106538512451
  outer loop
   vertex 0.056883998215198517 -0.16331599652767181 0.014681000262498856
   vertex 0.057464998215436935 -0.16424299776554108 0.01413199957460165
   vertex 0.057778999209403992 -0.16446000337600708 0.013024999760091305
  endloop
 endfacet
 facet normal 0.89220108931718423 -0.30708798530089459 -0.3311709309481542
  outer loop
   vertex 0.057778999209403992 -0.16446000337600708 0.013024999760091305
   vertex 0.057216998189687729 -0.16467900574207306 0.011714000254869461
   vertex 0.057604998350143433 -0.16396799683570862 0.012099999934434891
  endloop
 endfacet
 facet normal 0.8019806472362826 0.5766572431569007 0.15586361144653416
  outer loop
   vertex 0.057604998350143433 -0.16396799683570862 0.012099999934434891
   vertex 0.056366998702287674 -0.16272899508476257 0.013886000029742718
   vertex 0.057778999209403992 -0.16446000337600708 0.013024999760091305
  endloop
 endfacet
 facet normal 0.76799987795276836 0.63988171457664267 -0.026973668919689164
  outer loop
   vertex 0.057778999209403992 -0.16446000337600708 0.013024999760091305
   vertex 0.056366998702287674 -0.16272899508476257 0.013886000029742718
   vertex 0.056883998215198517 -0.16331599652767181 0.014681000262498856
  endloop
 endfacet
 facet normal 0.90162843865262865 -0.38450610953653475 -0.19804345569066759
  outer loop
   vertex 0.057216998189687729 -0.16467900574207306 0.011714000254869461
   vertex 0.057165000587701797 -0.16428999602794647 0.010722000151872635
   vertex 0.057604998350143433 -0.16396799683570862 0.012099999934434891
  endloop
 endfacet
 facet normal 0.27116717855507044 0.93664658948377966 -0.2217239898677775
  outer loop
   vertex 0.05167900025844574 -0.16149500012397766 0.012938999570906162
   vertex 0.051066000014543533 -0.16190199553966522 0.010470000095665455
   vertex 0.049922998994588852 -0.1614300012588501 0.01106599997729063
  endloop
 endfacet
 facet normal 0.22206615035584204 0.97488778179572411 0.016746276348767169
  outer loop
   vertex 0.052368998527526855 -0.16168099641799927 0.01461699977517128
   vertex 0.052933000028133392 -0.16177600622177124 0.012668999843299389
   vertex 0.05167900025844574 -0.16149500012397766 0.012938999570906162
  endloop
 endfacet
 facet normal 0.20759813021474521 0.9768071927805565 -0.052447349442183169
  outer loop
   vertex 0.052933000028133392 -0.16177600622177124 0.012668999843299389
   vertex 0.051945999264717102 -0.1616629958152771 0.010866999626159668
   vertex 0.05167900025844574 -0.16149500012397766 0.012938999570906162
  endloop
 endfacet
 facet normal -0.21558556004122925 0.97066199601388869 -0.1064807766502633
  outer loop
   vertex 0.05167900025844574 -0.16149500012397766 0.012938999570906162
   vertex 0.051945999264717102 -0.1616629958152771 0.010866999626159668
   vertex 0.051066000014543533 -0.16190199553966522 0.010470000095665455
  endloop
 endfacet
 facet normal -0.33779308181900913 0.93026739378666334 -0.14317265776881188
  outer loop
   vertex 0.052622001618146896 -0.16145800054073334 0.015468999743461609
   vertex 0.052933000028133392 -0.16177600622177124 0.012668999843299389
   vertex 0.052368998527526855 -0.16168099641799927 0.01461699977517128
  endloop
 endfacet
 facet normal -0.66170346336096897 0.7389081021421755 0.1271351374119174
  outer loop
   vertex 0.052421998232603073 -0.16178800165653229 0.016346000134944916
   vertex 0.052832998335361481 -0.16139000654220581 0.016171999275684357
   vertex 0.052622001618146896 -0.16145800054073334 0.015468999743461609
  endloop
 endfacet
 facet normal 0.29152855063748184 0.95354480999875424 -0.075917056631884777
  outer loop
   vertex 0.052933000028133392 -0.16177600622177124 0.012668999843299389
   vertex 0.052622001618146896 -0.16145800054073334 0.015468999743461609
   vertex 0.056366998702287674 -0.16272899508476257 0.013886000029742718
  endloop
 endfacet
 facet normal 0.24772806463104571 0.95224493118115039 -0.1784948095434776
  outer loop
   vertex 0.056366998702287674 -0.16272899508476257 0.013886000029742718
   vertex 0.052622001618146896 -0.16145800054073334 0.015468999743461609
   vertex 0.054010998457670212 -0.16172300279140472 0.01598300039768219
  endloop
 endfacet
 facet normal 0.24358298879681986 0.95564862180248733 -0.16553863360501339
  outer loop
   vertex 0.052832998335361481 -0.16139000654220581 0.016171999275684357
   vertex 0.054010998457670212 -0.16172300279140472 0.01598300039768219
   vertex 0.052622001618146896 -0.16145800054073334 0.015468999743461609
  endloop
 endfacet
 facet normal 0.0064159152747698097 -0.54550384101854021 -0.83808376399093076
  outer loop
   vertex 0.053941000252962112 -0.1635890007019043 0.0095309996977448463
   vertex 0.053677998483181 -0.16248899698257446 0.0088130002841353416
   vertex 0.056088000535964966 -0.16372199356555939 0.0096340002492070198
  endloop
 endfacet
 facet normal -0.32051074397738649 -0.5703031857836165 -0.75632475781248898
  outer loop
   vertex 0.053941000252962112 -0.1635890007019043 0.0095309996977448463
   vertex 0.053041998296976089 -0.16217400133609772 0.0088449995964765549
   vertex 0.053677998483181 -0.16248899698257446 0.0088130002841353416
  endloop
 endfacet
 facet normal -0.40632955550044852 -0.59453695150416674 -0.69384588030984229
  outer loop
   vertex 0.053941000252962112 -0.1635890007019043 0.0095309996977448463
   vertex 0.05201299861073494 -0.1622689962387085 0.0095290001481771469
   vertex 0.053041998296976089 -0.16217400133609772 0.0088449995964765549
  endloop
 endfacet
 facet normal 0.4057094683367059 0.19900030245432573 -0.89207550517040557
  outer loop
   vertex 0.053677998483181 -0.16248899698257446 0.0088130002841353416
   vertex 0.055459000170230865 -0.16273100674152374 0.0095690004527568817
   vertex 0.056088000535964966 -0.16372199356555939 0.0096340002492070198
  endloop
 endfacet
 facet normal 0.69593612322920229 0.61752858577016123 -0.36651242563030939
  outer loop
   vertex 0.057165000587701797 -0.16428999602794647 0.010722000151872635
   vertex 0.056088000535964966 -0.16372199356555939 0.0096340002492070198
   vertex 0.057604998350143433 -0.16396799683570862 0.012099999934434891
  endloop
 endfacet
 facet normal 0.7746338531847301 0.46345308554552428 -0.43029481869819336
  outer loop
   vertex 0.055459000170230865 -0.16273100674152374 0.0095690004527568817
   vertex 0.057604998350143433 -0.16396799683570862 0.012099999934434891
   vertex 0.056088000535964966 -0.16372199356555939 0.0096340002492070198
  endloop
 endfacet
 facet normal -0.45790774737193146 -0.47059835598199906 -0.75422654570347958
  outer loop
   vertex 0.05201299861073494 -0.1622689962387085 0.0095290001481771469
   vertex 0.05256899818778038 -0.16197499632835388 0.0090079996734857559
   vertex 0.053041998296976089 -0.16217400133609772 0.0088449995964765549
  endloop
 endfacet
 facet normal -0.46292532744349207 -0.46348505855835542 -0.75556716558125636
  outer loop
   vertex 0.05201299861073494 -0.1622689962387085 0.0095290001481771469
   vertex 0.051862001419067383 -0.16178399324417114 0.0093240002170205116
   vertex 0.05256899818778038 -0.16197499632835388 0.0090079996734857559
  endloop
 endfacet
 facet normal -0.73422287746545467 -0.51194666429639013 -0.44590063817194436
  outer loop
   vertex 0.05201299861073494 -0.1622689962387085 0.0095290001481771469
   vertex 0.051778998225927353 -0.1626179963350296 0.010315000079572201
   vertex 0.051578998565673828 -0.16212299466133118 0.010076000355184078
  endloop
 endfacet
 facet normal -0.75697893314256282 -0.43990362354208362 -0.48318495089654057
  outer loop
   vertex 0.051578998565673828 -0.16212299466133118 0.010076000355184078
   vertex 0.051862001419067383 -0.16178399324417114 0.0093240002170205116
   vertex 0.05201299861073494 -0.1622689962387085 0.0095290001481771469
  endloop
 endfacet
 facet normal -0.11381086359480884 0.25524056126591399 -0.96015589526517264
  outer loop
   vertex 0.049780000001192093 -0.16202400624752045 0.010590000078082085
   vertex 0.051066000014543533 -0.16190199553966522 0.010470000095665455
   vertex 0.05065000057220459 -0.1622530072927475 0.010425999760627747
  endloop
 endfacet
 facet normal -0.37335641086407789 0.51224152133112044 -0.77344270265551884
  outer loop
   vertex 0.051578998565673828 -0.16212299466133118 0.010076000355184078
   vertex 0.051066000014543533 -0.16190199553966522 0.010470000095665455
   vertex 0.052106000483036041 -0.16145199537277222 0.010266000404953957
  endloop
 endfacet
 facet normal -0.78420904116629364 0.62030330452279159 -0.015491615511209122
  outer loop
   vertex 0.051862001419067383 -0.16178399324417114 0.0093240002170205116
   vertex 0.051578998565673828 -0.16212299466133118 0.010076000355184078
   vertex 0.052106000483036041 -0.16145199537277222 0.010266000404953957
  endloop
 endfacet
 facet normal -0.13134798119616453 0.63897815240084133 -0.75792785183690092
  outer loop
   vertex 0.049780000001192093 -0.16202400624752045 0.010590000078082085
   vertex 0.049922998994588852 -0.1614300012588501 0.01106599997729063
   vertex 0.051066000014543533 -0.16190199553966522 0.010470000095665455
  endloop
 endfacet
 facet normal -0.34907555017208858 0.90935310508872125 0.22632540851074331
  outer loop
   vertex 0.051066000014543533 -0.16190199553966522 0.010470000095665455
   vertex 0.051945999264717102 -0.1616629958152771 0.010866999626159668
   vertex 0.052106000483036041 -0.16145199537277222 0.010266000404953957
  endloop
 endfacet
 facet normal 0.40889064297471434 0.042849122526946407 -0.9115768726697685
  outer loop
   vertex 0.046105001121759415 -0.15823100507259369 0.0097260000184178352
   vertex 0.047609999775886536 -0.15974299609661102 0.010329999960958958
   vertex 0.045852001756429672 -0.15956099331378937 0.0095499996095895767
  endloop
 endfacet
 facet normal 0.50832002109596897 0.017241461844108061 -0.86099563770467014
  outer loop
   vertex 0.045852001756429672 -0.15956099331378937 0.0095499996095895767
   vertex 0.044557999819517136 -0.15871399641036987 0.0088029997423291206
   vertex 0.046105001121759415 -0.15823100507259369 0.0097260000184178352
  endloop
 endfacet
 facet normal 0.2661467785412257 -0.37613179065799085 -0.8875194467326003
  outer loop
   vertex 0.044557999819517136 -0.15871399641036987 0.0088029997423291206
   vertex 0.045852001756429672 -0.15956099331378937 0.0095499996095895767
   vertex 0.043676000088453293 -0.15939000248908997 0.0088250003755092621
  endloop
 endfacet
 facet normal -0.36180574644938357 -0.41319828676549908 -0.83568162457377326
  outer loop
   vertex 0.042840000241994858 -0.1602800041437149 0.0096270004287362099
   vertex 0.042984999716281891 -0.15906000137329102 0.0089609995484352112
   vertex 0.043676000088453293 -0.15939000248908997 0.0088250003755092621
  endloop
 endfacet
 facet normal -0.24571890550910602 -0.11800814086697468 -0.96213112316592653
  outer loop
   vertex 0.043676000088453293 -0.15939000248908997 0.0088250003755092621
   vertex 0.042984999716281891 -0.15906000137329102 0.0089609995484352112
   vertex 0.043823998421430588 -0.15889100730419159 0.0087259998545050621
  endloop
 endfacet
 facet normal 0.1577114470742409 -0.23696819512008602 -0.95863088514989847
  outer loop
   vertex 0.043676000088453293 -0.15939000248908997 0.0088250003755092621
   vertex 0.043823998421430588 -0.15889100730419159 0.0087259998545050621
   vertex 0.044557999819517136 -0.15871399641036987 0.0088029997423291206
  endloop
 endfacet
 facet normal -0.98883505952350093 0.1420693125817466 0.044961488851066218
  outer loop
   vertex 0.042984999716281891 -0.15906000137329102 0.0089609995484352112
   vertex 0.042840000241994858 -0.1602800041437149 0.0096270004287362099
   vertex 0.043017998337745667 -0.15921199321746826 0.010166999883949757
  endloop
 endfacet
 facet normal -0.8864589239831121 0.39398410663169547 0.24283142262138915
  outer loop
   vertex 0.043017998337745667 -0.15921199321746826 0.010166999883949757
   vertex 0.042789001017808914 -0.16011799871921539 0.010800999589264393
   vertex 0.044245999306440353 -0.1581680029630661 0.012955999933183193
  endloop
 endfacet
 facet normal -0.91874740768348806 0.23698983643645999 0.31581484813208288
  outer loop
   vertex 0.043017998337745667 -0.15921199321746826 0.010166999883949757
   vertex 0.044245999306440353 -0.1581680029630661 0.012955999933183193
   vertex 0.043871000409126282 -0.15798799693584442 0.011730000376701355
  endloop
 endfacet
 facet normal -0.99955498075003879 0.0089001181441256787 0.028471535870239376
  outer loop
   vertex 0.042984999716281891 -0.15906000137329102 0.0089609995484352112
   vertex 0.043017998337745667 -0.15921199321746826 0.010166999883949757
   vertex 0.04302699863910675 -0.15815000236034393 0.010150999762117863
  endloop
 endfacet
 facet normal -0.88244620096051052 0.014562597074266661 0.4701878700868567
  outer loop
   vertex 0.043871000409126282 -0.15798799693584442 0.011730000376701355
   vertex 0.04302699863910675 -0.15815000236034393 0.010150999762117863
   vertex 0.043017998337745667 -0.15921199321746826 0.010166999883949757
  endloop
 endfacet
 facet normal -0.90155435914838966 -0.37187049911895292 0.22116073201533126
  outer loop
   vertex 0.044245999306440353 -0.1581680029630661 0.012955999933183193
   vertex 0.043915998190641403 -0.1569570004940033 0.013647000305354595
   vertex 0.043871000409126282 -0.15798799693584442 0.011730000376701355
  endloop
 endfacet
 facet normal -0.97295325181551218 -0.20904931253489806 -0.098287103479078625
  outer loop
   vertex 0.044045001268386841 -0.15787899494171143 0.014330999925732613
   vertex 0.043915998190641403 -0.1569570004940033 0.013647000305354595
   vertex 0.044245999306440353 -0.1581680029630661 0.012955999933183193
  endloop
 endfacet
 facet normal 0.41569636549328964 0.30557474101216098 -0.8566332992424589
  outer loop
   vertex 0.045010000467300415 -0.15758800506591797 0.009424000047147274
   vertex 0.046105001121759415 -0.15823100507259369 0.0097260000184178352
   vertex 0.044557999819517136 -0.15871399641036987 0.0088029997423291206
  endloop
 endfacet
 facet normal -0.016424343513913905 0.48791869887857797 -0.87273454396212169
  outer loop
   vertex 0.043345000594854355 -0.15860100090503693 0.0088889999315142632
   vertex 0.045010000467300415 -0.15758800506591797 0.009424000047147274
   vertex 0.044557999819517136 -0.15871399641036987 0.0088029997423291206
  endloop
 endfacet
 facet normal -0.084879588145157614 0.57082581808161803 -0.81667211347502255
  outer loop
   vertex 0.045010000467300415 -0.15758800506591797 0.009424000047147274
   vertex 0.043345000594854355 -0.15860100090503693 0.0088889999315142632
   vertex 0.043832000344991684 -0.15726099908351898 0.0097749996930360794
  endloop
 endfacet
 facet normal -0.095298182460688413 0.57289268853814734 -0.81407138743431018
  outer loop
   vertex 0.043345000594854355 -0.15860100090503693 0.0088889999315142632
   vertex 0.043005000799894333 -0.15809200704097748 0.0092869997024536133
   vertex 0.043832000344991684 -0.15726099908351898 0.0097749996930360794
  endloop
 endfacet
 facet normal -0.52742774875356191 0.80034846918970304 -0.28506542706973198
  outer loop
   vertex 0.043216001242399216 -0.15743400156497955 0.010428999550640583
   vertex 0.043827001005411148 -0.15684400498867035 0.010955000296235085
   vertex 0.043832000344991684 -0.15726099908351898 0.0097749996930360794
  endloop
 endfacet
 facet normal -0.56424775803064597 0.75615794145833415 -0.33143571794072546
  outer loop
   vertex 0.043005000799894333 -0.15809200704097748 0.0092869997024536133
   vertex 0.043216001242399216 -0.15743400156497955 0.010428999550640583
   vertex 0.043832000344991684 -0.15726099908351898 0.0097749996930360794
  endloop
 endfacet
 facet normal -0.71684750239172046 0.69522177002334684 0.052880514373035314
  outer loop
   vertex 0.043216001242399216 -0.15743400156497955 0.010428999550640583
   vertex 0.043915998190641403 -0.1569570004940033 0.013647000305354595
   vertex 0.043827001005411148 -0.15684400498867035 0.010955000296235085
  endloop
 endfacet
 facet normal -0.86613741962440849 -0.43141922479634304 0.25235574652163872
  outer loop
   vertex 0.043915998190641403 -0.1569570004940033 0.013647000305354595
   vertex 0.043216001242399216 -0.15743400156497955 0.010428999550640583
   vertex 0.043871000409126282 -0.15798799693584442 0.011730000376701355
  endloop
 endfacet
 facet normal 0.5876944364854052 0.33980061716769633 0.73426888119853917
  outer loop
   vertex 0.056258000433444977 -0.16283899545669556 0.015205999836325645
   vertex 0.05573200061917305 -0.16314800083637238 0.015769999474287033
   vertex 0.056563001126050949 -0.16361500322818756 0.015320999547839165
  endloop
 endfacet
 facet normal 0.72481964300300816 0.40881145197473673 0.55453555508307972
  outer loop
   vertex 0.056921999901533127 -0.16384999454021454 0.015025000087916851
   vertex 0.056883998215198517 -0.16331599652767181 0.014681000262498856
   vertex 0.056563001126050949 -0.16361500322818756 0.015320999547839165
  endloop
 endfacet
 facet normal 0.74658917047151596 0.37488614357753075 0.54960439398554728
  outer loop
   vertex 0.056883998215198517 -0.16331599652767181 0.014681000262498856
   vertex 0.056258000433444977 -0.16283899545669556 0.015205999836325645
   vertex 0.056563001126050949 -0.16361500322818756 0.015320999547839165
  endloop
 endfacet
 facet normal 0.49107880775804386 0.48491677017959711 0.72366935168592439
  outer loop
   vertex 0.05573200061917305 -0.16314800083637238 0.015769999474287033
   vertex 0.056258000433444977 -0.16283899545669556 0.015205999836325645
   vertex 0.054010998457670212 -0.16172300279140472 0.01598300039768219
  endloop
 endfacet
 facet normal 0.50735237846340642 0.50877953344621052 0.69551200594510276
  outer loop
   vertex 0.05573200061917305 -0.16314800083637238 0.015769999474287033
   vertex 0.054010998457670212 -0.16172300279140472 0.01598300039768219
   vertex 0.0539730004966259 -0.16226199269294739 0.016404999420046806
  endloop
 endfacet
 facet normal 0.86646841675293862 0.31247731154146002 0.3893461346173569
  outer loop
   vertex 0.056883998215198517 -0.16331599652767181 0.014681000262498856
   vertex 0.056921999901533127 -0.16384999454021454 0.015025000087916851
   vertex 0.057464998215436935 -0.16424299776554108 0.01413199957460165
  endloop
 endfacet
 facet normal 0.38706937745393011 0.55134670178642853 0.73904946483077449
  outer loop
   vertex 0.054010998457670212 -0.16172300279140472 0.01598300039768219
   vertex 0.052933000028133392 -0.16187100112438202 0.016658000648021698
   vertex 0.0539730004966259 -0.16226199269294739 0.016404999420046806
  endloop
 endfacet
 facet normal 0.3025050443050602 0.7078483494348603 0.63831137571904328
  outer loop
   vertex 0.052832998335361481 -0.16139000654220581 0.016171999275684357
   vertex 0.052933000028133392 -0.16187100112438202 0.016658000648021698
   vertex 0.054010998457670212 -0.16172300279140472 0.01598300039768219
  endloop
 endfacet
 facet normal -0.32275006263803774 0.63868113446968655 0.69851185067946908
  outer loop
   vertex 0.052421998232603073 -0.16178800165653229 0.016346000134944916
   vertex 0.052933000028133392 -0.16187100112438202 0.016658000648021698
   vertex 0.052832998335361481 -0.16139000654220581 0.016171999275684357
  endloop
 endfacet
 facet normal 0.66186690854088237 0.7405345665826486 0.11636473295111507
  outer loop
   vertex 0.056258000433444977 -0.16283899545669556 0.015205999836325645
   vertex 0.056883998215198517 -0.16331599652767181 0.014681000262498856
   vertex 0.056366998702287674 -0.16272899508476257 0.013886000029742718
  endloop
 endfacet
 facet normal 0.60379507824427514 0.7868990099170794 -0.12736346289069578
  outer loop
   vertex 0.056366998702287674 -0.16272899508476257 0.013886000029742718
   vertex 0.057604998350143433 -0.16396799683570862 0.012099999934434891
   vertex 0.055459000170230865 -0.16273100674152374 0.0095690004527568817
  endloop
 endfacet
 facet normal 0.43422783773842322 0.89611845394304468 -0.091749122261420374
  outer loop
   vertex 0.053185001015663147 -0.16165900230407715 0.0092770000919699669
   vertex 0.056366998702287674 -0.16272899508476257 0.013886000029742718
   vertex 0.055459000170230865 -0.16273100674152374 0.0095690004527568817
  endloop
 endfacet
 facet normal 0.24533590313461259 0.9672462582960959 0.065153437709195489
  outer loop
   vertex 0.05218999832868576 -0.16139200329780579 0.00976600032299757
   vertex 0.052933000028133392 -0.16177600622177124 0.012668999843299389
   vertex 0.056366998702287674 -0.16272899508476257 0.013886000029742718
  endloop
 endfacet
 facet normal 0.47278847156300446 0.87404488878026421 0.11187758289404466
  outer loop
   vertex 0.054010998457670212 -0.16172300279140472 0.01598300039768219
   vertex 0.056258000433444977 -0.16283899545669556 0.015205999836325645
   vertex 0.056366998702287674 -0.16272899508476257 0.013886000029742718
  endloop
 endfacet
 facet normal 0.27441770846429442 0.9610216669129823 0.033649323990210513
  outer loop
   vertex 0.053185001015663147 -0.16165900230407715 0.0092770000919699669
   vertex 0.05218999832868576 -0.16139200329780579 0.00976600032299757
   vertex 0.056366998702287674 -0.16272899508476257 0.013886000029742718
  endloop
 endfacet
 facet normal -0.32457387704235652 0.91614280923711566 0.23523212243403108
  outer loop
   vertex 0.052933000028133392 -0.16177600622177124 0.012668999843299389
   vertex 0.052106000483036041 -0.16145199537277222 0.010266000404953957
   vertex 0.051945999264717102 -0.1616629958152771 0.010866999626159668
  endloop
 endfacet
 facet normal 0.02876381845997469 0.99188489377698796 0.1238426430782823
  outer loop
   vertex 0.052933000028133392 -0.16177600622177124 0.012668999843299389
   vertex 0.05218999832868576 -0.16139200329780579 0.00976600032299757
   vertex 0.052106000483036041 -0.16145199537277222 0.010266000404953957
  endloop
 endfacet
 facet normal 0.37791939694089854 0.6125693909774651 -0.69421586747446562
  outer loop
   vertex 0.055459000170230865 -0.16273100674152374 0.0095690004527568817
   vertex 0.053677998483181 -0.16248899698257446 0.0088130002841353416
   vertex 0.053185001015663147 -0.16165900230407715 0.0092770000919699669
  endloop
 endfacet
 facet normal 0.24876063888274888 0.58099235429891571 -0.77496195312340987
  outer loop
   vertex 0.053677998483181 -0.16248899698257446 0.0088130002841353416
   vertex 0.053041998296976089 -0.16217400133609772 0.0088449995964765549
   vertex 0.053185001015663147 -0.16165900230407715 0.0092770000919699669
  endloop
 endfacet
 facet normal 0.0057095008931670032 0.64172821154727777 -0.76691088406925301
  outer loop
   vertex 0.05256899818778038 -0.16197499632835388 0.0090079996734857559
   vertex 0.053185001015663147 -0.16165900230407715 0.0092770000919699669
   vertex 0.053041998296976089 -0.16217400133609772 0.0088449995964765549
  endloop
 endfacet
 facet normal -0.093850844584473916 0.74508495503182282 -0.66033357385188851
  outer loop
   vertex 0.051862001419067383 -0.16178399324417114 0.0093240002170205116
   vertex 0.053185001015663147 -0.16165900230407715 0.0092770000919699669
   vertex 0.05256899818778038 -0.16197499632835388 0.0090079996734857559
  endloop
 endfacet
 facet normal -0.095606047891842974 0.77889695213529708 -0.61982176596247984
  outer loop
   vertex 0.051862001419067383 -0.16178399324417114 0.0093240002170205116
   vertex 0.05218999832868576 -0.16139200329780579 0.00976600032299757
   vertex 0.053185001015663147 -0.16165900230407715 0.0092770000919699669
  endloop
 endfacet
 facet normal -0.74113542923776798 0.66990360639326618 -0.044129736797823185
  outer loop
   vertex 0.05218999832868576 -0.16139200329780579 0.00976600032299757
   vertex 0.051862001419067383 -0.16178399324417114 0.0093240002170205116
   vertex 0.052106000483036041 -0.16145199537277222 0.010266000404953957
  endloop
 endfacet
 facet normal -0.019390758707517761 0.46534599500280027 -0.88491643866051028
  outer loop
   vertex 0.043345000594854355 -0.15860100090503693 0.0088889999315142632
   vertex 0.044557999819517136 -0.15871399641036987 0.0088029997423291206
   vertex 0.043823998421430588 -0.15889100730419159 0.0087259998545050621
  endloop
 endfacet
 facet normal -0.2823319261305518 0.071374079411766586 -0.95665794528427728
  outer loop
   vertex 0.043345000594854355 -0.15860100090503693 0.0088889999315142632
   vertex 0.043823998421430588 -0.15889100730419159 0.0087259998545050621
   vertex 0.042984999716281891 -0.15906000137329102 0.0089609995484352112
  endloop
 endfacet
 facet normal -0.52082376480551851 0.28210566122003433 -0.80570404114750049
  outer loop
   vertex 0.042984999716281891 -0.15906000137329102 0.0089609995484352112
   vertex 0.043005000799894333 -0.15809200704097748 0.0092869997024536133
   vertex 0.043345000594854355 -0.15860100090503693 0.0088889999315142632
  endloop
 endfacet
 facet normal -0.99958575994861765 0.011815735270899011 0.026243035418039601
  outer loop
   vertex 0.04302699863910675 -0.15815000236034393 0.010150999762117863
   vertex 0.043005000799894333 -0.15809200704097748 0.0092869997024536133
   vertex 0.042984999716281891 -0.15906000137329102 0.0089609995484352112
  endloop
 endfacet
 facet normal -0.88293480251659939 0.051895299814933578 0.46661870125627392
  outer loop
   vertex 0.043871000409126282 -0.15798799693584442 0.011730000376701355
   vertex 0.043216001242399216 -0.15743400156497955 0.010428999550640583
   vertex 0.04302699863910675 -0.15815000236034393 0.010150999762117863
  endloop
 endfacet
 facet normal -0.96987241837619442 0.24017006182943551 0.040814623285744964
  outer loop
   vertex 0.043005000799894333 -0.15809200704097748 0.0092869997024536133
   vertex 0.04302699863910675 -0.15815000236034393 0.010150999762117863
   vertex 0.043216001242399216 -0.15743400156497955 0.010428999550640583
  endloop
 endfacet
endsolid
