solid Visualization Toolkit generated SLA File
 facet normal -0.71842721048335745 -0.68158825131530831 -0.13892371613961998
  outer loop
   vertex 0.037679001688957214 -0.15806800127029419 -0.018509000539779663
   vertex 0.039684001356363297 -0.16033199429512024 -0.017769999802112579
   vertex 0.039308000355958939 -0.16018800437450409 -0.016532000154256821
  endloop
 endfacet
 facet normal -0.77779333449673094 -0.62769397708165497 -0.032214902574296773
  outer loop
   vertex 0.037679001688957214 -0.15806800127029419 -0.018509000539779663
   vertex 0.039308000355958939 -0.16018800437450409 -0.016532000154256821
   vertex 0.036768998950719833 -0.1569720059633255 -0.017892999574542046
  endloop
 endfacet
 facet normal -0.14734339748192338 -0.42241557477837549 -0.8943461328832023
  outer loop
   vertex 0.039684001356363297 -0.16033199429512024 -0.017769999802112579
   vertex 0.037679001688957214 -0.15806800127029419 -0.018509000539779663
   vertex 0.042435001581907272 -0.15743400156497955 -0.019592000171542168
  endloop
 endfacet
 facet normal -0.34908447725544078 -0.35855482116209175 -0.8657819979421586
  outer loop
   vertex 0.038346998393535614 -0.15556000173091888 -0.01981700025498867
   vertex 0.037679001688957214 -0.15806800127029419 -0.018509000539779663
   vertex 0.036986999213695526 -0.15563400089740753 -0.019238000735640526
  endloop
 endfacet
 facet normal -0.14639112122659423 -0.4265065728948913 -0.89255912011668748
  outer loop
   vertex 0.042435001581907272 -0.15743400156497955 -0.019592000171542168
   vertex 0.037679001688957214 -0.15806800127029419 -0.018509000539779663
   vertex 0.038346998393535614 -0.15556000173091888 -0.01981700025498867
  endloop
 endfacet
 facet normal -0.7841281074351194 -0.3717651525172887 -0.49692432271324238
  outer loop
   vertex 0.036986999213695526 -0.15563400089740753 -0.019238000735640526
   vertex 0.037679001688957214 -0.15806800127029419 -0.018509000539779663
   vertex 0.036768998950719833 -0.1569720059633255 -0.017892999574542046
  endloop
 endfacet
 facet normal -0.23267586884101843 -0.97163219847849547 0.042341598209359968
  outer loop
   vertex 0.039308000355958939 -0.16018800437450409 -0.016532000154256821
   vertex 0.039684001356363297 -0.16033199429512024 -0.017769999802112579
   vertex 0.04108000174164772 -0.16066999733448029 -0.017854999750852585
  endloop
 endfacet
 facet normal -0.15526922987534905 -0.41595231138959604 -0.89603300212858716
  outer loop
   vertex 0.039684001356363297 -0.16033199429512024 -0.017769999802112579
   vertex 0.042435001581907272 -0.15743400156497955 -0.019592000171542168
   vertex 0.04108000174164772 -0.16066999733448029 -0.017854999750852585
  endloop
 endfacet
 facet normal -0.44541982332609587 -0.84783677225147913 -0.28770468992761161
  outer loop
   vertex 0.04108000174164772 -0.16066999733448029 -0.017854999750852585
   vertex 0.040640000253915787 -0.16088099777698517 -0.016551999375224113
   vertex 0.039308000355958939 -0.16018800437450409 -0.016532000154256821
  endloop
 endfacet
 facet normal -0.78272034652449929 -0.62228912761330823 -0.010251867675478076
  outer loop
   vertex 0.037206999957561493 -0.15757399797439575 -0.014793000183999538
   vertex 0.036768998950719833 -0.1569720059633255 -0.017892999574542046
   vertex 0.039308000355958939 -0.16018800437450409 -0.016532000154256821
  endloop
 endfacet
 facet normal -0.7235850164822043 -0.6756087885735792 0.14134174445148404
  outer loop
   vertex 0.037206999957561493 -0.15757399797439575 -0.014793000183999538
   vertex 0.039308000355958939 -0.16018800437450409 -0.016532000154256821
   vertex 0.039788998663425446 -0.15961800515651703 -0.011345000006258488
  endloop
 endfacet
 facet normal -0.64153174609010644 -0.75377797189411566 0.14232282967174686
  outer loop
   vertex 0.039308000355958939 -0.16018800437450409 -0.016532000154256821
   vertex 0.039965000003576279 -0.1601559966802597 -0.013400999829173088
   vertex 0.039788998663425446 -0.15961800515651703 -0.011345000006258488
  endloop
 endfacet
 facet normal -0.45774098222210147 -0.88285455929778489 0.10507625955209764
  outer loop
   vertex 0.039965000003576279 -0.1601559966802597 -0.013400999829173088
   vertex 0.039308000355958939 -0.16018800437450409 -0.016532000154256821
   vertex 0.040640000253915787 -0.16088099777698517 -0.016551999375224113
  endloop
 endfacet
 facet normal -0.68040359399081984 -0.7301223276854204 -0.063026469832911339
  outer loop
   vertex 0.034751001745462418 -0.15511499345302582 -0.017619999125599861
   vertex 0.036768998950719833 -0.1569720059633255 -0.017892999574542046
   vertex 0.032628998160362244 -0.15336400270462036 -0.0149959996342659
  endloop
 endfacet
 facet normal -0.57391964434750287 -0.53216995424483471 -0.62242379584258045
  outer loop
   vertex 0.036986999213695526 -0.15563400089740753 -0.019238000735640526
   vertex 0.036768998950719833 -0.1569720059633255 -0.017892999574542046
   vertex 0.034751001745462418 -0.15511499345302582 -0.017619999125599861
  endloop
 endfacet
 facet normal -0.67499040677878919 -0.73628877588352726 -0.047610810374765278
  outer loop
   vertex 0.036768998950719833 -0.1569720059633255 -0.017892999574542046
   vertex 0.037206999957561493 -0.15757399797439575 -0.014793000183999538
   vertex 0.032628998160362244 -0.15336400270462036 -0.0149959996342659
  endloop
 endfacet
 facet normal -0.028845903240726244 -0.46334672876658217 -0.88570747022227037
  outer loop
   vertex 0.042435001581907272 -0.15743400156497955 -0.019592000171542168
   vertex 0.042431998997926712 -0.15991500020027161 -0.018293999135494232
   vertex 0.04108000174164772 -0.16066999733448029 -0.017854999750852585
  endloop
 endfacet
 facet normal -0.12374587286258776 -0.45988645542565521 -0.87931303132928895
  outer loop
   vertex 0.042435001581907272 -0.15743400156497955 -0.019592000171542168
   vertex 0.042819999158382416 -0.15881100296974182 -0.018926000222563744
   vertex 0.042431998997926712 -0.15991500020027161 -0.018293999135494232
  endloop
 endfacet
 facet normal -0.10257345497839898 -0.40867486108789536 -0.90689775843177811
  outer loop
   vertex 0.042435001581907272 -0.15743400156497955 -0.019592000171542168
   vertex 0.039746999740600586 -0.1556520015001297 -0.020090999081730843
   vertex 0.041335999965667725 -0.15632599592208862 -0.019966999068856239
  endloop
 endfacet
 facet normal -0.19641705883381275 -0.52769311558566612 -0.82641413030185251
  outer loop
   vertex 0.042435001581907272 -0.15743400156497955 -0.019592000171542168
   vertex 0.038346998393535614 -0.15556000173091888 -0.01981700025498867
   vertex 0.039746999740600586 -0.1556520015001297 -0.020090999081730843
  endloop
 endfacet
 facet normal 0.50485133733534671 0.21807789078850359 -0.83520486153993945
  outer loop
   vertex 0.041335999965667725 -0.15632599592208862 -0.019966999068856239
   vertex 0.04146600142121315 -0.15529799461364746 -0.019619999453425407
   vertex 0.042435001581907272 -0.15743400156497955 -0.019592000171542168
  endloop
 endfacet
 facet normal 0.56745202445797893 0.24712896068445231 -0.78544603680301539
  outer loop
   vertex 0.04146600142121315 -0.15529799461364746 -0.019619999453425407
   vertex 0.042987998574972153 -0.15671099722385406 -0.018965000286698341
   vertex 0.042435001581907272 -0.15743400156497955 -0.019592000171542168
  endloop
 endfacet
 facet normal 0.78892167758064835 -0.074441308905848019 -0.60996809602775115
  outer loop
   vertex 0.042819999158382416 -0.15881100296974182 -0.018926000222563744
   vertex 0.042435001581907272 -0.15743400156497955 -0.019592000171542168
   vertex 0.042987998574972153 -0.15671099722385406 -0.018965000286698341
  endloop
 endfacet
 facet normal -0.35522738735928067 0.53593382644523679 -0.76589061682570991
  outer loop
   vertex 0.036986999213695526 -0.15563400089740753 -0.019238000735640526
   vertex 0.037859000265598297 -0.15460300445556641 -0.018921000882983208
   vertex 0.038346998393535614 -0.15556000173091888 -0.01981700025498867
  endloop
 endfacet
 facet normal -0.30297563183554982 0.5644310175376599 -0.76786938534834903
  outer loop
   vertex 0.039168998599052429 -0.15444399416446686 -0.019321000203490257
   vertex 0.038346998393535614 -0.15556000173091888 -0.01981700025498867
   vertex 0.037859000265598297 -0.15460300445556641 -0.018921000882983208
  endloop
 endfacet
 facet normal -0.13717822532063162 0.48491839522406605 -0.86373391994942428
  outer loop
   vertex 0.039746999740600586 -0.1556520015001297 -0.020090999081730843
   vertex 0.038346998393535614 -0.15556000173091888 -0.01981700025498867
   vertex 0.039168998599052429 -0.15444399416446686 -0.019321000203490257
  endloop
 endfacet
 facet normal 0.32556260213232907 0.0153245475368168 -0.94539629274480375
  outer loop
   vertex 0.036986999213695526 -0.15563400089740753 -0.019238000735640526
   vertex 0.036708001047372818 -0.1534699946641922 -0.01929900050163269
   vertex 0.037859000265598297 -0.15460300445556641 -0.018921000882983208
  endloop
 endfacet
 facet normal -0.56133963360205097 -0.58096582841802447 -0.58938656411397228
  outer loop
   vertex 0.035619001835584641 -0.15436699986457825 -0.019184000790119171
   vertex 0.036986999213695526 -0.15563400089740753 -0.019238000735640526
   vertex 0.034751001745462418 -0.15511499345302582 -0.017619999125599861
  endloop
 endfacet
 facet normal -0.074215416046504307 -0.037658910951025325 -0.99653092197233251
  outer loop
   vertex 0.036708001047372818 -0.1534699946641922 -0.01929900050163269
   vertex 0.036986999213695526 -0.15563400089740753 -0.019238000735640526
   vertex 0.035619001835584641 -0.15436699986457825 -0.019184000790119171
  endloop
 endfacet
 facet normal 0.40125417977598216 -0.91587709725565314 -0.012815066713152414
  outer loop
   vertex 0.040640000253915787 -0.16088099777698517 -0.016551999375224113
   vertex 0.04108000174164772 -0.16066999733448029 -0.017854999750852585
   vertex 0.042908001691102982 -0.15987600386142731 -0.017364000901579857
  endloop
 endfacet
 facet normal 0.43283116946855005 -0.88238500709339007 -0.18453692853541676
  outer loop
   vertex 0.04108000174164772 -0.16066999733448029 -0.017854999750852585
   vertex 0.042431998997926712 -0.15991500020027161 -0.018293999135494232
   vertex 0.042908001691102982 -0.15987600386142731 -0.017364000901579857
  endloop
 endfacet
 facet normal -0.15130921161964134 -0.96990737901957513 0.19074904613764346
  outer loop
   vertex 0.039965000003576279 -0.1601559966802597 -0.013400999829173088
   vertex 0.040640000253915787 -0.16088099777698517 -0.016551999375224113
   vertex 0.040600001811981201 -0.16040000319480896 -0.014138000085949898
  endloop
 endfacet
 facet normal 0.54316248582409787 -0.82167054860365973 0.17271949383537341
  outer loop
   vertex 0.040640000253915787 -0.16088099777698517 -0.016551999375224113
   vertex 0.042649999260902405 -0.15912599861621857 -0.014523999765515327
   vertex 0.040600001811981201 -0.16040000319480896 -0.014138000085949898
  endloop
 endfacet
 facet normal 0.46838505720926288 -0.84280740947179156 0.26512470409700284
  outer loop
   vertex 0.040640000253915787 -0.16088099777698517 -0.016551999375224113
   vertex 0.042908001691102982 -0.15987600386142731 -0.017364000901579857
   vertex 0.042649999260902405 -0.15912599861621857 -0.014523999765515327
  endloop
 endfacet
 facet normal -0.64121779460573491 -0.68013505956776676 0.35532526032876938
  outer loop
   vertex 0.032628998160362244 -0.15336400270462036 -0.0149959996342659
   vertex 0.037206999957561493 -0.15757399797439575 -0.014793000183999538
   vertex 0.03667299821972847 -0.1561959981918335 -0.013119000010192394
  endloop
 endfacet
 facet normal -0.7762009308658625 -0.58535554615943008 0.23424559655063695
  outer loop
   vertex 0.039788998663425446 -0.15961800515651703 -0.011345000006258488
   vertex 0.03667299821972847 -0.1561959981918335 -0.013119000010192394
   vertex 0.037206999957561493 -0.15757399797439575 -0.014793000183999538
  endloop
 endfacet
 facet normal -0.37611809258423196 -0.90376997176222773 0.20429150391462966
  outer loop
   vertex 0.039788998663425446 -0.15961800515651703 -0.011345000006258488
   vertex 0.039965000003576279 -0.1601559966802597 -0.013400999829173088
   vertex 0.041039999574422836 -0.16006200015544891 -0.011006000451743603
  endloop
 endfacet
 facet normal -0.50252544520341136 -0.26160713811281794 0.82403269486807029
  outer loop
   vertex 0.038609001785516739 -0.15656700730323792 -0.011095999740064144
   vertex 0.037641998380422592 -0.1568010002374649 -0.011760000139474869
   vertex 0.039788998663425446 -0.15961800515651703 -0.011345000006258488
  endloop
 endfacet
 facet normal -0.56978198507942346 -0.28332456155782937 0.77141148701391238
  outer loop
   vertex 0.039788998663425446 -0.15961800515651703 -0.011345000006258488
   vertex 0.040580000728368759 -0.15921300649642944 -0.010611999779939651
   vertex 0.038609001785516739 -0.15656700730323792 -0.011095999740064144
  endloop
 endfacet
 facet normal -0.39519905598055882 -0.55412817371560363 0.73263884230000043
  outer loop
   vertex 0.039788998663425446 -0.15961800515651703 -0.011345000006258488
   vertex 0.041039999574422836 -0.16006200015544891 -0.011006000451743603
   vertex 0.040580000728368759 -0.15921300649642944 -0.010611999779939651
  endloop
 endfacet
 facet normal -0.77743817485831335 -0.54672221027149481 0.31094164897746651
  outer loop
   vertex 0.039788998663425446 -0.15961800515651703 -0.011345000006258488
   vertex 0.037641998380422592 -0.1568010002374649 -0.011760000139474869
   vertex 0.03667299821972847 -0.1561959981918335 -0.013119000010192394
  endloop
 endfacet
 facet normal -0.43176366791673354 -0.87268220915206685 0.22804801445431822
  outer loop
   vertex 0.041039999574422836 -0.16006200015544891 -0.011006000451743603
   vertex 0.039965000003576279 -0.1601559966802597 -0.013400999829173088
   vertex 0.041131000965833664 -0.16039499640464783 -0.012107999995350838
  endloop
 endfacet
 facet normal -0.27999978449528706 -0.95701855775376021 0.075601592559319794
  outer loop
   vertex 0.040600001811981201 -0.16040000319480896 -0.014138000085949898
   vertex 0.041131000965833664 -0.16039499640464783 -0.012107999995350838
   vertex 0.039965000003576279 -0.1601559966802597 -0.013400999829173088
  endloop
 endfacet
 facet normal -0.69348443196276155 -0.71564381084641038 -0.083266311450149871
  outer loop
   vertex 0.028562000021338463 -0.14936499297618866 -0.015494000166654587
   vertex 0.034751001745462418 -0.15511499345302582 -0.017619999125599861
   vertex 0.032628998160362244 -0.15336400270462036 -0.0149959996342659
  endloop
 endfacet
 facet normal -0.69718310158173136 -0.70738514861902113 -0.11636998918158696
  outer loop
   vertex 0.028562000021338463 -0.14936499297618866 -0.015494000166654587
   vertex 0.028725000098347664 -0.14863499999046326 -0.020907999947667122
   vertex 0.034751001745462418 -0.15511499345302582 -0.017619999125599861
  endloop
 endfacet
 facet normal -0.47009699060119603 -0.66585665382744552 -0.57934768143267512
  outer loop
   vertex 0.034751001745462418 -0.15511499345302582 -0.017619999125599861
   vertex 0.032962001860141754 -0.15165500342845917 -0.020145000889897346
   vertex 0.035619001835584641 -0.15436699986457825 -0.019184000790119171
  endloop
 endfacet
 facet normal -0.3717141839662127 -0.66495356340783218 -0.64781581020345491
  outer loop
   vertex 0.034751001745462418 -0.15511499345302582 -0.017619999125599861
   vertex 0.031092999503016472 -0.14940899610519409 -0.02137799933552742
   vertex 0.032962001860141754 -0.15165500342845917 -0.020145000889897346
  endloop
 endfacet
 facet normal -0.34799945875655064 -0.66096645580465663 -0.66484563697611687
  outer loop
   vertex 0.031092999503016472 -0.14940899610519409 -0.02137799933552742
   vertex 0.034751001745462418 -0.15511499345302582 -0.017619999125599861
   vertex 0.028725000098347664 -0.14863499999046326 -0.020907999947667122
  endloop
 endfacet
 facet normal -0.62326901334315776 -0.55479968564207027 0.55111981076505179
  outer loop
   vertex 0.032628998160362244 -0.15336400270462036 -0.0149959996342659
   vertex 0.03660999983549118 -0.15518799424171448 -0.012330000288784504
   vertex 0.033362001180648804 -0.15231099724769592 -0.013106999918818474
  endloop
 endfacet
 facet normal -0.69978895870666791 -0.68754703105366255 0.19384141291667195
  outer loop
   vertex 0.028562000021338463 -0.14936499297618866 -0.015494000166654587
   vertex 0.032628998160362244 -0.15336400270462036 -0.0149959996342659
   vertex 0.02779800072312355 -0.14837199449539185 -0.0147299999371171
  endloop
 endfacet
 facet normal -0.59550376209446576 -0.58091221384842517 0.55490203561805362
  outer loop
   vertex 0.031567998230457306 -0.15019300580024719 -0.012814999558031559
   vertex 0.032628998160362244 -0.15336400270462036 -0.0149959996342659
   vertex 0.033362001180648804 -0.15231099724769592 -0.013106999918818474
  endloop
 endfacet
 facet normal -0.58086645241464185 -0.58421385307911256 0.56682302205334389
  outer loop
   vertex 0.032628998160362244 -0.15336400270462036 -0.0149959996342659
   vertex 0.031567998230457306 -0.15019300580024719 -0.012814999558031559
   vertex 0.026862999424338341 -0.14600299298763275 -0.013318000361323357
  endloop
 endfacet
 facet normal -0.56223849945244775 -0.5757366947276451 0.59364562499655171
  outer loop
   vertex 0.02779800072312355 -0.14837199449539185 -0.0147299999371171
   vertex 0.032628998160362244 -0.15336400270462036 -0.0149959996342659
   vertex 0.026862999424338341 -0.14600299298763275 -0.013318000361323357
  endloop
 endfacet
 facet normal -0.62803252457724412 -0.503611554204898 0.59325420398380679
  outer loop
   vertex 0.03660999983549118 -0.15518799424171448 -0.012330000288784504
   vertex 0.032628998160362244 -0.15336400270462036 -0.0149959996342659
   vertex 0.03667299821972847 -0.1561959981918335 -0.013119000010192394
  endloop
 endfacet
 facet normal 0.80381875747189746 -0.44685074706647709 -0.3926828427401256
  outer loop
   vertex 0.042908001691102982 -0.15987600386142731 -0.017364000901579857
   vertex 0.042431998997926712 -0.15991500020027161 -0.018293999135494232
   vertex 0.043441999703645706 -0.15812100470066071 -0.018268000334501266
  endloop
 endfacet
 facet normal 0.83304671106686201 -0.46464562763267642 -0.30022927555873097
  outer loop
   vertex 0.042431998997926712 -0.15991500020027161 -0.018293999135494232
   vertex 0.042819999158382416 -0.15881100296974182 -0.018926000222563744
   vertex 0.043441999703645706 -0.15812100470066071 -0.018268000334501266
  endloop
 endfacet
 facet normal 0.76180911588243505 -0.072898520968645436 -0.64368678454587414
  outer loop
   vertex 0.042819999158382416 -0.15881100296974182 -0.018926000222563744
   vertex 0.042987998574972153 -0.15671099722385406 -0.018965000286698341
   vertex 0.043441999703645706 -0.15812100470066071 -0.018268000334501266
  endloop
 endfacet
 facet normal 0.19656735558537047 0.2911738753148832 -0.93625800346501042
  outer loop
   vertex 0.04146600142121315 -0.15529799461364746 -0.019619999453425407
   vertex 0.041335999965667725 -0.15632599592208862 -0.019966999068856239
   vertex 0.039746999740600586 -0.1556520015001297 -0.020090999081730843
  endloop
 endfacet
 facet normal 0.10586274943923096 0.57000966276776122 -0.81478958181394878
  outer loop
   vertex 0.039168998599052429 -0.15444399416446686 -0.019321000203490257
   vertex 0.04146600142121315 -0.15529799461364746 -0.019619999453425407
   vertex 0.039746999740600586 -0.1556520015001297 -0.020090999081730843
  endloop
 endfacet
 facet normal 0.70141863980572627 0.70404469580951445 -0.11105385196188865
  outer loop
   vertex 0.041708998382091522 -0.15520000457763672 -0.017464000731706619
   vertex 0.042987998574972153 -0.15671099722385406 -0.018965000286698341
   vertex 0.04146600142121315 -0.15529799461364746 -0.019619999453425407
  endloop
 endfacet
 facet normal 0.33809776059809321 0.93764272231210433 -0.080721927465221152
  outer loop
   vertex 0.039168998599052429 -0.15444399416446686 -0.019321000203490257
   vertex 0.041708998382091522 -0.15520000457763672 -0.017464000731706619
   vertex 0.04146600142121315 -0.15529799461364746 -0.019619999453425407
  endloop
 endfacet
 facet normal 0.696664791108627 0.70752419425890356 -0.11860726524063508
  outer loop
   vertex 0.042987998574972153 -0.15671099722385406 -0.018965000286698341
   vertex 0.041708998382091522 -0.15520000457763672 -0.017464000731706619
   vertex 0.04314199835062027 -0.15655200183391571 -0.017111999914050102
  endloop
 endfacet
 facet normal 0.9605175437411837 0.25883333940778513 -0.10203602587526424
  outer loop
   vertex 0.04314199835062027 -0.15655200183391571 -0.017111999914050102
   vertex 0.043441999703645706 -0.15812100470066071 -0.018268000334501266
   vertex 0.042987998574972153 -0.15671099722385406 -0.018965000286698341
  endloop
 endfacet
 facet normal 0.71314438016906567 0.60812321414834525 -0.34872804511132333
  outer loop
   vertex 0.036708001047372818 -0.1534699946641922 -0.01929900050163269
   vertex 0.038107998669147491 -0.1540829986333847 -0.017504999414086342
   vertex 0.037859000265598297 -0.15460300445556641 -0.018921000882983208
  endloop
 endfacet
 facet normal -0.20604298909254798 0.92973128215694223 -0.30519834472784452
  outer loop
   vertex 0.038107998669147491 -0.1540829986333847 -0.017504999414086342
   vertex 0.039168998599052429 -0.15444399416446686 -0.019321000203490257
   vertex 0.037859000265598297 -0.15460300445556641 -0.018921000882983208
  endloop
 endfacet
 facet normal 0.3276283025562543 0.94479982305978405 0.0036041240694706417
  outer loop
   vertex 0.041331000626087189 -0.1552090048789978 -0.015312000177800655
   vertex 0.039168998599052429 -0.15444399416446686 -0.019321000203490257
   vertex 0.038107998669147491 -0.1540829986333847 -0.017504999414086342
  endloop
 endfacet
 facet normal 0.2522984972320701 0.96644035959164454 0.048358036010698269
  outer loop
   vertex 0.039168998599052429 -0.15444399416446686 -0.019321000203490257
   vertex 0.041331000626087189 -0.1552090048789978 -0.015312000177800655
   vertex 0.041708998382091522 -0.15520000457763672 -0.017464000731706619
  endloop
 endfacet
 facet normal 0.76918297711454842 0.62879721690440682 -0.11389296611499911
  outer loop
   vertex 0.036708001047372818 -0.1534699946641922 -0.01929900050163269
   vertex 0.035202000290155411 -0.15168499946594238 -0.019615000113844872
   vertex 0.03425300121307373 -0.15010300278663635 -0.01728999987244606
  endloop
 endfacet
 facet normal 0.67734213815299438 0.67221506828572697 -0.2988888252376547
  outer loop
   vertex 0.038107998669147491 -0.1540829986333847 -0.017504999414086342
   vertex 0.036708001047372818 -0.1534699946641922 -0.01929900050163269
   vertex 0.03425300121307373 -0.15010300278663635 -0.01728999987244606
  endloop
 endfacet
 facet normal 0.46510299678852074 0.24164092685642125 -0.85163892868181346
  outer loop
   vertex 0.036708001047372818 -0.1534699946641922 -0.01929900050163269
   vertex 0.034890998154878616 -0.15218600630760193 -0.019927000626921654
   vertex 0.035202000290155411 -0.15168499946594238 -0.019615000113844872
  endloop
 endfacet
 facet normal 0.13053636927837658 -0.28039414167112364 -0.95096760281943005
  outer loop
   vertex 0.035619001835584641 -0.15436699986457825 -0.019184000790119171
   vertex 0.034890998154878616 -0.15218600630760193 -0.019927000626921654
   vertex 0.036708001047372818 -0.1534699946641922 -0.01929900050163269
  endloop
 endfacet
 facet normal 0.02008812603805888 -0.31639185880317511 -0.94841586810604905
  outer loop
   vertex 0.034890998154878616 -0.15218600630760193 -0.019927000626921654
   vertex 0.035619001835584641 -0.15436699986457825 -0.019184000790119171
   vertex 0.032962001860141754 -0.15165500342845917 -0.020145000889897346
  endloop
 endfacet
 facet normal 0.96222225384496973 -0.2679726295617752 0.048156038159865328
  outer loop
   vertex 0.042908001691102982 -0.15987600386142731 -0.017364000901579857
   vertex 0.043441999703645706 -0.15812100470066071 -0.018268000334501266
   vertex 0.043409999459981918 -0.15791100263595581 -0.016459999606013298
  endloop
 endfacet
 facet normal 0.93373549919641741 -0.31595112880619797 0.16826438050433132
  outer loop
   vertex 0.043409999459981918 -0.15791100263595581 -0.016459999606013298
   vertex 0.042649999260902405 -0.15912599861621857 -0.014523999765515327
   vertex 0.042908001691102982 -0.15987600386142731 -0.017364000901579857
  endloop
 endfacet
 facet normal 0.49076230064858184 -0.84900808838931041 -0.19579997474882349
  outer loop
   vertex 0.042617999017238617 -0.15956999361515045 -0.01267900038510561
   vertex 0.040600001811981201 -0.16040000319480896 -0.014138000085949898
   vertex 0.042649999260902405 -0.15912599861621857 -0.014523999765515327
  endloop
 endfacet
 facet normal 0.4478141722229666 -0.88670675244294794 -0.1149504342242333
  outer loop
   vertex 0.041131000965833664 -0.16039499640464783 -0.012107999995350838
   vertex 0.040600001811981201 -0.16040000319480896 -0.014138000085949898
   vertex 0.042617999017238617 -0.15956999361515045 -0.01267900038510561
  endloop
 endfacet
 facet normal 0.93360440139068313 -0.013456451750788865 0.35805271345183654
  outer loop
   vertex 0.042812999337911606 -0.15713000297546387 -0.01487400010228157
   vertex 0.042649999260902405 -0.15912599861621857 -0.014523999765515327
   vertex 0.043409999459981918 -0.15791100263595581 -0.016459999606013298
  endloop
 endfacet
 facet normal 0.94508029108222413 -0.12977837485058583 -0.29996802634460784
  outer loop
   vertex 0.042812999337911606 -0.15713000297546387 -0.01487400010228157
   vertex 0.043400999158620834 -0.15773199498653412 -0.012760999612510204
   vertex 0.042649999260902405 -0.15912599861621857 -0.014523999765515327
  endloop
 endfacet
 facet normal 0.915859164629098 -0.39368025437190796 -0.078853331461394574
  outer loop
   vertex 0.043400999158620834 -0.15773199498653412 -0.012760999612510204
   vertex 0.042617999017238617 -0.15956999361515045 -0.01267900038510561
   vertex 0.042649999260902405 -0.15912599861621857 -0.014523999765515327
  endloop
 endfacet
 facet normal -0.82294316142037072 -0.046115066182373182 0.56624902096378171
  outer loop
   vertex 0.03667299821972847 -0.1561959981918335 -0.013119000010192394
   vertex 0.037641998380422592 -0.1568010002374649 -0.011760000139474869
   vertex 0.037686999887228012 -0.1553570032119751 -0.0115769999101758
  endloop
 endfacet
 facet normal -0.53745348267363757 -0.54035352375374845 0.64742707954555412
  outer loop
   vertex 0.037686999887228012 -0.1553570032119751 -0.0115769999101758
   vertex 0.03660999983549118 -0.15518799424171448 -0.012330000288784504
   vertex 0.03667299821972847 -0.1561959981918335 -0.013119000010192394
  endloop
 endfacet
 facet normal 0.46402122272502677 -0.83661914700857709 0.29112318306760082
  outer loop
   vertex 0.041131000965833664 -0.16039499640464783 -0.012107999995350838
   vertex 0.042305998504161835 -0.15926100313663483 -0.010722000151872635
   vertex 0.041039999574422836 -0.16006200015544891 -0.011006000451743603
  endloop
 endfacet
 facet normal 0.047248335791991329 -0.39931025921410651 0.91559757079802817
  outer loop
   vertex 0.042305998504161835 -0.15926100313663483 -0.010722000151872635
   vertex 0.040580000728368759 -0.15921300649642944 -0.010611999779939651
   vertex 0.041039999574422836 -0.16006200015544891 -0.011006000451743603
  endloop
 endfacet
 facet normal -0.54926057638507331 -0.088194588050276537 0.83098407558013954
  outer loop
   vertex 0.038609001785516739 -0.15656700730323792 -0.011095999740064144
   vertex 0.037686999887228012 -0.1553570032119751 -0.0115769999101758
   vertex 0.037641998380422592 -0.1568010002374649 -0.011760000139474869
  endloop
 endfacet
 facet normal -0.58875176393934792 -0.13158410815084873 0.7975318068518974
  outer loop
   vertex 0.038605000823736191 -0.15594300627708435 -0.010995999909937382
   vertex 0.037686999887228012 -0.1553570032119751 -0.0115769999101758
   vertex 0.038609001785516739 -0.15656700730323792 -0.011095999740064144
  endloop
 endfacet
 facet normal -0.10013390933177312 -0.15806746682873959 0.98233796431385145
  outer loop
   vertex 0.038605000823736191 -0.15594300627708435 -0.010995999909937382
   vertex 0.038609001785516739 -0.15656700730323792 -0.011095999740064144
   vertex 0.040375001728534698 -0.15711399912834167 -0.011003999970853329
  endloop
 endfacet
 facet normal 0.0058274286416709602 0.18412785984109084 0.98288502496770491
  outer loop
   vertex 0.038609001785516739 -0.15656700730323792 -0.011095999740064144
   vertex 0.040580000728368759 -0.15921300649642944 -0.010611999779939651
   vertex 0.040375001728534698 -0.15711399912834167 -0.011003999970853329
  endloop
 endfacet
 facet normal -0.32650232278117608 0.14261162284049403 0.9343758121062945
  outer loop
   vertex 0.040580000728368759 -0.15921300649642944 -0.010611999779939651
   vertex 0.042417000979185104 -0.15749700367450714 -0.010231999680399895
   vertex 0.040375001728534698 -0.15711399912834167 -0.011003999970853329
  endloop
 endfacet
 facet normal 0.053742580784711079 -0.27039554748730182 0.96124813805262632
  outer loop
   vertex 0.042305998504161835 -0.15926100313663483 -0.010722000151872635
   vertex 0.042417000979185104 -0.15749700367450714 -0.010231999680399895
   vertex 0.040580000728368759 -0.15921300649642944 -0.010611999779939651
  endloop
 endfacet
 facet normal 0.53551766355455599 -0.81686851411137373 0.21435172654901952
  outer loop
   vertex 0.042305998504161835 -0.15926100313663483 -0.010722000151872635
   vertex 0.041131000965833664 -0.16039499640464783 -0.012107999995350838
   vertex 0.042617999017238617 -0.15956999361515045 -0.01267900038510561
  endloop
 endfacet
 facet normal -0.58880972248561825 -0.72614512568861234 0.35498784084117402
  outer loop
   vertex 0.023191999644041061 -0.14534500241279602 -0.016178000718355179
   vertex 0.028562000021338463 -0.14936499297618866 -0.015494000166654587
   vertex 0.02779800072312355 -0.14837199449539185 -0.0147299999371171
  endloop
 endfacet
 facet normal -0.54564579403894775 -0.82828256784398901 -0.12735248428426416
  outer loop
   vertex 0.028562000021338463 -0.14936499297618866 -0.015494000166654587
   vertex 0.023068999871611595 -0.14548499882221222 -0.017193999141454697
   vertex 0.023729000240564346 -0.14517299830913544 -0.022050999104976654
  endloop
 endfacet
 facet normal -0.5449023354128314 -0.82865106977752201 -0.12813605822800481
  outer loop
   vertex 0.028562000021338463 -0.14936499297618866 -0.015494000166654587
   vertex 0.023729000240564346 -0.14517299830913544 -0.022050999104976654
   vertex 0.028725000098347664 -0.14863499999046326 -0.020907999947667122
  endloop
 endfacet
 facet normal -0.60408261477054648 -0.7763040709460215 0.18010048296607636
  outer loop
   vertex 0.023191999644041061 -0.14534500241279602 -0.016178000718355179
   vertex 0.023068999871611595 -0.14548499882221222 -0.017193999141454697
   vertex 0.028562000021338463 -0.14936499297618866 -0.015494000166654587
  endloop
 endfacet
 facet normal -0.022255184855063448 -0.72821010835917066 -0.6849925144339839
  outer loop
   vertex 0.029394000768661499 -0.14638000726699829 -0.023327000439167023
   vertex 0.028725000098347664 -0.14863499999046326 -0.020907999947667122
   vertex 0.026859000325202942 -0.14694499969482422 -0.022644000127911568
  endloop
 endfacet
 facet normal -0.3450342029301523 -0.63705403016432682 -0.68928481882291837
  outer loop
   vertex 0.031092999503016472 -0.14940899610519409 -0.02137799933552742
   vertex 0.028725000098347664 -0.14863499999046326 -0.020907999947667122
   vertex 0.029394000768661499 -0.14638000726699829 -0.023327000439167023
  endloop
 endfacet
 facet normal -0.51244323140843906 -0.82177303428177717 -0.24918068687399908
  outer loop
   vertex 0.028725000098347664 -0.14863499999046326 -0.020907999947667122
   vertex 0.023729000240564346 -0.14517299830913544 -0.022050999104976654
   vertex 0.026859000325202942 -0.14694499969482422 -0.022644000127911568
  endloop
 endfacet
 facet normal -0.042530692761518565 -0.50775611552346167 -0.86045038632204141
  outer loop
   vertex 0.031092999503016472 -0.14940899610519409 -0.02137799933552742
   vertex 0.034890998154878616 -0.15218600630760193 -0.019927000626921654
   vertex 0.032962001860141754 -0.15165500342845917 -0.020145000889897346
  endloop
 endfacet
 facet normal 0.13469996008037144 -0.30789075008226174 -0.94183820625844683
  outer loop
   vertex 0.031092999503016472 -0.14940899610519409 -0.02137799933552742
   vertex 0.032069001346826553 -0.14892999827861786 -0.021394999697804451
   vertex 0.034890998154878616 -0.15218600630760193 -0.019927000626921654
  endloop
 endfacet
 facet normal 0.20386373965262405 -0.44631634356880734 -0.8713445341070416
  outer loop
   vertex 0.031092999503016472 -0.14940899610519409 -0.02137799933552742
   vertex 0.029394000768661499 -0.14638000726699829 -0.023327000439167023
   vertex 0.032069001346826553 -0.14892999827861786 -0.021394999697804451
  endloop
 endfacet
 facet normal -0.1135153581231538 0.13758838149299984 0.98396326188954275
  outer loop
   vertex 0.03660999983549118 -0.15518799424171448 -0.012330000288784504
   vertex 0.036910999566316605 -0.15438899397850037 -0.012407000176608562
   vertex 0.033362001180648804 -0.15231099724769592 -0.013106999918818474
  endloop
 endfacet
 facet normal -0.52171807187091379 0.27438860788748731 0.80778780960402141
  outer loop
   vertex 0.03660999983549118 -0.15518799424171448 -0.012330000288784504
   vertex 0.037686999887228012 -0.1553570032119751 -0.0115769999101758
   vertex 0.036910999566316605 -0.15438899397850037 -0.012407000176608562
  endloop
 endfacet
 facet normal 0.0078869889028141786 0.33129789295437023 0.94349324402988777
  outer loop
   vertex 0.033362001180648804 -0.15231099724769592 -0.013106999918818474
   vertex 0.036910999566316605 -0.15438899397850037 -0.012407000176608562
   vertex 0.036118000745773315 -0.15291200578212738 -0.012919000349938869
  endloop
 endfacet
 facet normal -0.11642125014107446 -0.23176129684331123 0.96578092433071794
  outer loop
   vertex 0.036118000745773315 -0.15291200578212738 -0.012919000349938869
   vertex 0.031567998230457306 -0.15019300580024719 -0.012814999558031559
   vertex 0.033362001180648804 -0.15231099724769592 -0.013106999918818474
  endloop
 endfacet
 facet normal -0.56429732414939382 -0.57551281493967643 0.59190669011090224
  outer loop
   vertex 0.026862999424338341 -0.14600299298763275 -0.013318000361323357
   vertex 0.023191999644041061 -0.14534500241279602 -0.016178000718355179
   vertex 0.02779800072312355 -0.14837199449539185 -0.0147299999371171
  endloop
 endfacet
 facet normal 0.064144790415187392 0.069261720550249747 0.99553415809253409
  outer loop
   vertex 0.031567998230457306 -0.15019300580024719 -0.012814999558031559
   vertex 0.036118000745773315 -0.15291200578212738 -0.012919000349938869
   vertex 0.032366000115871429 -0.14900599420070648 -0.012949000112712383
  endloop
 endfacet
 facet normal -0.003961242367574151 0.11480475315946996 0.99338017758101993
  outer loop
   vertex 0.031567998230457306 -0.15019300580024719 -0.012814999558031559
   vertex 0.032366000115871429 -0.14900599420070648 -0.012949000112712383
   vertex 0.026862999424338341 -0.14600299298763275 -0.013318000361323357
  endloop
 endfacet
 facet normal -0.52981138748288037 -0.66434605669522639 0.52720414513447078
  outer loop
   vertex 0.023191999644041061 -0.14534500241279602 -0.016178000718355179
   vertex 0.026862999424338341 -0.14600299298763275 -0.013318000361323357
   vertex 0.023757999762892723 -0.14396800100803375 -0.013873999938368797
  endloop
 endfacet
 facet normal -0.45130680245249594 -0.48372109754256343 0.74989070527132262
  outer loop
   vertex 0.023757999762892723 -0.14396800100803375 -0.013873999938368797
   vertex 0.026862999424338341 -0.14600299298763275 -0.013318000361323357
   vertex 0.025194000452756882 -0.14358699321746826 -0.012764000333845615
  endloop
 endfacet
 facet normal -0.12653578044858105 -0.30393382070200275 0.94425257685629382
  outer loop
   vertex 0.027854999527335167 -0.14513599872589111 -0.012906000018119812
   vertex 0.025194000452756882 -0.14358699321746826 -0.012764000333845615
   vertex 0.026862999424338341 -0.14600299298763275 -0.013318000361323357
  endloop
 endfacet
 facet normal -0.044432071284906269 -0.38685813485827786 0.92106817040613631
  outer loop
   vertex 0.029729999601840973 -0.14586800336837769 -0.013123000040650368
   vertex 0.027854999527335167 -0.14513599872589111 -0.012906000018119812
   vertex 0.026862999424338341 -0.14600299298763275 -0.013318000361323357
  endloop
 endfacet
 facet normal -0.067782775513027138 -0.0016175679021136944 0.99769879162893282
  outer loop
   vertex 0.032366000115871429 -0.14900599420070648 -0.012949000112712383
   vertex 0.029729999601840973 -0.14586800336837769 -0.013123000040650368
   vertex 0.026862999424338341 -0.14600299298763275 -0.013318000361323357
  endloop
 endfacet
 facet normal 0.98153134445158008 0.19124013612885202 -0.0048404744077328024
  outer loop
   vertex 0.043441999703645706 -0.15812100470066071 -0.018268000334501266
   vertex 0.04314199835062027 -0.15655200183391571 -0.017111999914050102
   vertex 0.043409999459981918 -0.15791100263595581 -0.016459999606013298
  endloop
 endfacet
 facet normal 0.76880228747621338 0.62449587370910953 0.13765154009903977
  outer loop
   vertex 0.042812999337911606 -0.15713000297546387 -0.01487400010228157
   vertex 0.041708998382091522 -0.15520000457763672 -0.017464000731706619
   vertex 0.041331000626087189 -0.1552090048789978 -0.015312000177800655
  endloop
 endfacet
 facet normal 0.62141372717079746 0.73162402511422275 0.2803056645152941
  outer loop
   vertex 0.041708998382091522 -0.15520000457763672 -0.017464000731706619
   vertex 0.042812999337911606 -0.15713000297546387 -0.01487400010228157
   vertex 0.04314199835062027 -0.15655200183391571 -0.017111999914050102
  endloop
 endfacet
 facet normal 0.93476901094444564 0.28566408361680307 0.21119405178488099
  outer loop
   vertex 0.042812999337911606 -0.15713000297546387 -0.01487400010228157
   vertex 0.043409999459981918 -0.15791100263595581 -0.016459999606013298
   vertex 0.04314199835062027 -0.15655200183391571 -0.017111999914050102
  endloop
 endfacet
 facet normal 0.7174108285848515 0.69621285240355657 -0.024685363625039237
  outer loop
   vertex 0.038107998669147491 -0.1540829986333847 -0.017504999414086342
   vertex 0.03425300121307373 -0.15010300278663635 -0.01728999987244606
   vertex 0.037863001227378845 -0.1537030041217804 -0.013907999731600285
  endloop
 endfacet
 facet normal 0.43189239473270863 0.88356174447151226 -0.18107347425424949
  outer loop
   vertex 0.040938001126050949 -0.15458899736404419 -0.013224000111222267
   vertex 0.041331000626087189 -0.1552090048789978 -0.015312000177800655
   vertex 0.038107998669147491 -0.1540829986333847 -0.017504999414086342
  endloop
 endfacet
 facet normal 0.29250211134297732 0.95285037730748401 -0.080738301473872204
  outer loop
   vertex 0.038107998669147491 -0.1540829986333847 -0.017504999414086342
   vertex 0.037863001227378845 -0.1537030041217804 -0.013907999731600285
   vertex 0.040938001126050949 -0.15458899736404419 -0.013224000111222267
  endloop
 endfacet
 facet normal 0.77980341753220539 0.52322883944526966 -0.34371239660194003
  outer loop
   vertex 0.041331000626087189 -0.1552090048789978 -0.015312000177800655
   vertex 0.04286700114607811 -0.1560090035200119 -0.013044999912381172
   vertex 0.042812999337911606 -0.15713000297546387 -0.01487400010228157
  endloop
 endfacet
 facet normal 0.59569841316139516 0.79364998151774635 -0.12354394924024542
  outer loop
   vertex 0.04286700114607811 -0.1560090035200119 -0.013044999912381172
   vertex 0.041331000626087189 -0.1552090048789978 -0.015312000177800655
   vertex 0.040938001126050949 -0.15458899736404419 -0.013224000111222267
  endloop
 endfacet
 facet normal 0.80991110817332013 0.58282865483186252 -0.0659905748144856
  outer loop
   vertex 0.032584000378847122 -0.14816200733184814 -0.020631000399589539
   vertex 0.03425300121307373 -0.15010300278663635 -0.01728999987244606
   vertex 0.035202000290155411 -0.15168499946594238 -0.019615000113844872
  endloop
 endfacet
 facet normal 0.64620966000519298 0.27489556335506571 -0.7119308284964726
  outer loop
   vertex 0.035202000290155411 -0.15168499946594238 -0.019615000113844872
   vertex 0.032069001346826553 -0.14892999827861786 -0.021394999697804451
   vertex 0.032584000378847122 -0.14816200733184814 -0.020631000399589539
  endloop
 endfacet
 facet normal 0.57946512949853601 0.1402590152346683 -0.80283720164217987
  outer loop
   vertex 0.034890998154878616 -0.15218600630760193 -0.019927000626921654
   vertex 0.032069001346826553 -0.14892999827861786 -0.021394999697804451
   vertex 0.035202000290155411 -0.15168499946594238 -0.019615000113844872
  endloop
 endfacet
 facet normal 0.71388033549552588 0.68678298980913166 0.1367625369084155
  outer loop
   vertex 0.03425300121307373 -0.15010300278663635 -0.01728999987244606
   vertex 0.032366000115871429 -0.14900599420070648 -0.012949000112712383
   vertex 0.036118000745773315 -0.15291200578212738 -0.012919000349938869
  endloop
 endfacet
 facet normal 0.52636269223034327 0.79955089872608431 0.28924155402420293
  outer loop
   vertex 0.036118000745773315 -0.15291200578212738 -0.012919000349938869
   vertex 0.037863001227378845 -0.1537030041217804 -0.013907999731600285
   vertex 0.03425300121307373 -0.15010300278663635 -0.01728999987244606
  endloop
 endfacet
 facet normal 0.66244310169314757 0.74235928127063999 0.10035852993393692
  outer loop
   vertex 0.032584000378847122 -0.14816200733184814 -0.020631000399589539
   vertex 0.032366000115871429 -0.14900599420070648 -0.012949000112712383
   vertex 0.03425300121307373 -0.15010300278663635 -0.01728999987244606
  endloop
 endfacet
 facet normal 0.90398832718441824 -0.37602683994491687 0.20349181790764265
  outer loop
   vertex 0.042305998504161835 -0.15926100313663483 -0.010722000151872635
   vertex 0.042617999017238617 -0.15956999361515045 -0.01267900038510561
   vertex 0.043400999158620834 -0.15773199498653412 -0.012760999612510204
  endloop
 endfacet
 facet normal 0.94638970065758221 0.2622139446475823 -0.18865413253254373
  outer loop
   vertex 0.042812999337911606 -0.15713000297546387 -0.01487400010228157
   vertex 0.04286700114607811 -0.1560090035200119 -0.013044999912381172
   vertex 0.043400999158620834 -0.15773199498653412 -0.012760999612510204
  endloop
 endfacet
 facet normal 0.97128473424617079 0.14321468108082552 0.18998821053755632
  outer loop
   vertex 0.043400999158620834 -0.15773199498653412 -0.012760999612510204
   vertex 0.04288800060749054 -0.1569100022315979 -0.010758000425994396
   vertex 0.043001998215913773 -0.15777599811553955 -0.010688000358641148
  endloop
 endfacet
 facet normal 0.94349261149283259 0.3111918605828593 0.11393558691389317
  outer loop
   vertex 0.04286700114607811 -0.1560090035200119 -0.013044999912381172
   vertex 0.04288800060749054 -0.1569100022315979 -0.010758000425994396
   vertex 0.043400999158620834 -0.15773199498653412 -0.012760999612510204
  endloop
 endfacet
 facet normal 0.89197509131578345 -0.42178119573937595 0.16273001994979894
  outer loop
   vertex 0.042305998504161835 -0.15926100313663483 -0.010722000151872635
   vertex 0.043400999158620834 -0.15773199498653412 -0.012760999612510204
   vertex 0.043001998215913773 -0.15777599811553955 -0.010688000358641148
  endloop
 endfacet
 facet normal -0.29050295219450095 0.52483205943448852 0.80009958389942493
  outer loop
   vertex 0.037686999887228012 -0.1553570032119751 -0.0115769999101758
   vertex 0.039758998900651932 -0.15439000725746155 -0.011459000408649445
   vertex 0.037213999778032303 -0.15379400551319122 -0.012773999944329262
  endloop
 endfacet
 facet normal -0.14799290105937155 0.57270272711347359 0.80629379731759143
  outer loop
   vertex 0.036910999566316605 -0.15438899397850037 -0.012407000176608562
   vertex 0.037686999887228012 -0.1553570032119751 -0.0115769999101758
   vertex 0.037213999778032303 -0.15379400551319122 -0.012773999944329262
  endloop
 endfacet
 facet normal -0.28717813202053116 0.40892886435885611 0.86620199975720136
  outer loop
   vertex 0.037686999887228012 -0.1553570032119751 -0.0115769999101758
   vertex 0.038605000823736191 -0.15594300627708435 -0.010995999909937382
   vertex 0.040672998875379562 -0.15533800423145294 -0.010595999658107758
  endloop
 endfacet
 facet normal -0.27514606445155149 0.48851746998608181 0.82803703101686232
  outer loop
   vertex 0.037686999887228012 -0.1553570032119751 -0.0115769999101758
   vertex 0.040672998875379562 -0.15533800423145294 -0.010595999658107758
   vertex 0.039758998900651932 -0.15439000725746155 -0.011459000408649445
  endloop
 endfacet
 facet normal 0.51370353542970137 -0.25948873500515013 0.8177862031683174
  outer loop
   vertex 0.042305998504161835 -0.15926100313663483 -0.010722000151872635
   vertex 0.043001998215913773 -0.15777599811553955 -0.010688000358641148
   vertex 0.042417000979185104 -0.15749700367450714 -0.010231999680399895
  endloop
 endfacet
 facet normal -0.12887953839320104 -0.20144003347508826 0.97098505523880796
  outer loop
   vertex 0.040672998875379562 -0.15533800423145294 -0.010595999658107758
   vertex 0.038605000823736191 -0.15594300627708435 -0.010995999909937382
   vertex 0.040375001728534698 -0.15711399912834167 -0.011003999970853329
  endloop
 endfacet
 facet normal -0.32509665807070992 -0.15958748874599687 0.93211801631928681
  outer loop
   vertex 0.040672998875379562 -0.15533800423145294 -0.010595999658107758
   vertex 0.040375001728534698 -0.15711399912834167 -0.011003999970853329
   vertex 0.041910998523235321 -0.15620699524879456 -0.010312999598681927
  endloop
 endfacet
 facet normal -0.36633059816849273 -0.085514136211124428 0.92654693640073071
  outer loop
   vertex 0.040375001728534698 -0.15711399912834167 -0.011003999970853329
   vertex 0.042417000979185104 -0.15749700367450714 -0.010231999680399895
   vertex 0.041910998523235321 -0.15620699524879456 -0.010312999598681927
  endloop
 endfacet
 facet normal 0.55149617466399015 0.26596747168644735 0.79064105214421065
  outer loop
   vertex 0.042417000979185104 -0.15749700367450714 -0.010231999680399895
   vertex 0.04288800060749054 -0.1569100022315979 -0.010758000425994396
   vertex 0.041910998523235321 -0.15620699524879456 -0.010312999598681927
  endloop
 endfacet
 facet normal 0.65054713233432282 0.14588232877255017 0.74532326863146203
  outer loop
   vertex 0.04288800060749054 -0.1569100022315979 -0.010758000425994396
   vertex 0.042417000979185104 -0.15749700367450714 -0.010231999680399895
   vertex 0.043001998215913773 -0.15777599811553955 -0.010688000358641148
  endloop
 endfacet
 facet normal -0.83226111414309778 -0.5265954713541473 0.17331661038282767
  outer loop
   vertex 0.023068999871611595 -0.14548499882221222 -0.017193999141454697
   vertex 0.023191999644041061 -0.14534500241279602 -0.016178000718355179
   vertex 0.021865999326109886 -0.14345699548721313 -0.016808999702334404
  endloop
 endfacet
 facet normal -0.79685388255157275 -0.41194471508753155 0.44195637971856078
  outer loop
   vertex 0.021865999326109886 -0.14345699548721313 -0.016808999702334404
   vertex 0.023191999644041061 -0.14534500241279602 -0.016178000718355179
   vertex 0.023757999762892723 -0.14396800100803375 -0.013873999938368797
  endloop
 endfacet
 facet normal -0.68237612897408939 -0.71769731975765549 -0.13882858430098086
  outer loop
   vertex 0.021872000768780708 -0.14391399919986725 -0.019432000815868378
   vertex 0.023729000240564346 -0.14517299830913544 -0.022050999104976654
   vertex 0.023068999871611595 -0.14548499882221222 -0.017193999141454697
  endloop
 endfacet
 facet normal -0.84918562621125571 -0.5205822077406046 0.08875774456415339
  outer loop
   vertex 0.021865999326109886 -0.14345699548721313 -0.016808999702334404
   vertex 0.021872000768780708 -0.14391399919986725 -0.019432000815868378
   vertex 0.023068999871611595 -0.14548499882221222 -0.017193999141454697
  endloop
 endfacet
 facet normal -0.5099055737779854 -0.77749195338407595 -0.36810673486525236
  outer loop
   vertex 0.023729000240564346 -0.14517299830913544 -0.022050999104976654
   vertex 0.026037000119686127 -0.14565500617027283 -0.024229999631643295
   vertex 0.026859000325202942 -0.14694499969482422 -0.022644000127911568
  endloop
 endfacet
 facet normal -0.84031310094407197 -0.2995393069254495 -0.45182972012515837
  outer loop
   vertex 0.021872000768780708 -0.14391399919986725 -0.019432000815868378
   vertex 0.023646999150514603 -0.14396399259567261 -0.022700000554323196
   vertex 0.023729000240564346 -0.14517299830913544 -0.022050999104976654
  endloop
 endfacet
 facet normal -0.853733343657743 -0.29004614611861951 -0.43244954740259178
  outer loop
   vertex 0.023729000240564346 -0.14517299830913544 -0.022050999104976654
   vertex 0.023646999150514603 -0.14396399259567261 -0.022700000554323196
   vertex 0.024325000122189522 -0.14392000436782837 -0.024067999795079231
  endloop
 endfacet
 facet normal -0.62510167849543419 -0.5666970420399382 -0.53675166891717729
  outer loop
   vertex 0.026037000119686127 -0.14565500617027283 -0.024229999631643295
   vertex 0.023729000240564346 -0.14517299830913544 -0.022050999104976654
   vertex 0.024325000122189522 -0.14392000436782837 -0.024067999795079231
  endloop
 endfacet
 facet normal -0.00091232513569282857 -0.76886638397201101 -0.63940882951414646
  outer loop
   vertex 0.026859000325202942 -0.14694499969482422 -0.022644000127911568
   vertex 0.027404999360442162 -0.1450670063495636 -0.024902999401092529
   vertex 0.029394000768661499 -0.14638000726699829 -0.023327000439167023
  endloop
 endfacet
 facet normal 0.42334934138679464 -0.35774941592447934 -0.83234048955524265
  outer loop
   vertex 0.028187999501824379 -0.14301900565624237 -0.025384999811649323
   vertex 0.029394000768661499 -0.14638000726699829 -0.023327000439167023
   vertex 0.027404999360442162 -0.1450670063495636 -0.024902999401092529
  endloop
 endfacet
 facet normal 0.69737005657524953 0.21309922132935066 -0.68429798045957846
  outer loop
   vertex 0.032584000378847122 -0.14816200733184814 -0.020631000399589539
   vertex 0.032069001346826553 -0.14892999827861786 -0.021394999697804451
   vertex 0.029394000768661499 -0.14638000726699829 -0.023327000439167023
  endloop
 endfacet
 facet normal 0.64751525866419657 0.0062565299296594599 -0.76202680112334498
  outer loop
   vertex 0.029394000768661499 -0.14638000726699829 -0.023327000439167023
   vertex 0.030616000294685364 -0.14496299624443054 -0.022276999428868294
   vertex 0.032584000378847122 -0.14816200733184814 -0.020631000399589539
  endloop
 endfacet
 facet normal 0.75547193639453603 -0.18598718876324358 -0.62822839711066525
  outer loop
   vertex 0.030616000294685364 -0.14496299624443054 -0.022276999428868294
   vertex 0.029394000768661499 -0.14638000726699829 -0.023327000439167023
   vertex 0.02922699972987175 -0.14254899322986603 -0.024661999195814133
  endloop
 endfacet
 facet normal 0.62422407669108404 -0.23267617079742778 -0.74579226438882407
  outer loop
   vertex 0.02922699972987175 -0.14254899322986603 -0.024661999195814133
   vertex 0.029394000768661499 -0.14638000726699829 -0.023327000439167023
   vertex 0.028187999501824379 -0.14301900565624237 -0.025384999811649323
  endloop
 endfacet
 facet normal 0.018236253718712458 -0.7710095963810486 -0.63656236248983422
  outer loop
   vertex 0.027404999360442162 -0.1450670063495636 -0.024902999401092529
   vertex 0.026859000325202942 -0.14694499969482422 -0.022644000127911568
   vertex 0.026037000119686127 -0.14565500617027283 -0.024229999631643295
  endloop
 endfacet
 facet normal 0.22630511416731658 0.4252788997077846 0.87631264555811006
  outer loop
   vertex 0.036910999566316605 -0.15438899397850037 -0.012407000176608562
   vertex 0.037213999778032303 -0.15379400551319122 -0.012773999944329262
   vertex 0.036118000745773315 -0.15291200578212738 -0.012919000349938869
  endloop
 endfacet
 facet normal 0.55059111120271043 0.74582425690756915 0.37496080604889459
  outer loop
   vertex 0.037863001227378845 -0.1537030041217804 -0.013907999731600285
   vertex 0.036118000745773315 -0.15291200578212738 -0.012919000349938869
   vertex 0.037213999778032303 -0.15379400551319122 -0.012773999944329262
  endloop
 endfacet
 facet normal 0.82875960667679394 0.55321904708520808 0.084298281613923373
  outer loop
   vertex 0.030616000294685364 -0.14496299624443054 -0.022276999428868294
   vertex 0.032366000115871429 -0.14900599420070648 -0.012949000112712383
   vertex 0.032584000378847122 -0.14816200733184814 -0.020631000399589539
  endloop
 endfacet
 facet normal 0.6983356454303481 0.60760086537935598 0.37834972540182549
  outer loop
   vertex 0.029729999601840973 -0.14586800336837769 -0.013123000040650368
   vertex 0.032366000115871429 -0.14900599420070648 -0.012949000112712383
   vertex 0.02988399937748909 -0.14408600330352783 -0.016269000247120857
  endloop
 endfacet
 facet normal 0.88141902289114393 0.47074918602385746 0.038674409413677724
  outer loop
   vertex 0.030616000294685364 -0.14496299624443054 -0.022276999428868294
   vertex 0.02988399937748909 -0.14408600330352783 -0.016269000247120857
   vertex 0.032366000115871429 -0.14900599420070648 -0.012949000112712383
  endloop
 endfacet
 facet normal -0.74313433481392888 -0.10730047228917043 0.6604831330678933
  outer loop
   vertex 0.022949999198317528 -0.14304399490356445 -0.014632999897003174
   vertex 0.023757999762892723 -0.14396800100803375 -0.013873999938368797
   vertex 0.024217000231146812 -0.14216099679470062 -0.013063999824225903
  endloop
 endfacet
 facet normal -0.81864952708108485 -0.32950683620444521 0.47035964612671982
  outer loop
   vertex 0.023757999762892723 -0.14396800100803375 -0.013873999938368797
   vertex 0.022949999198317528 -0.14304399490356445 -0.014632999897003174
   vertex 0.021865999326109886 -0.14345699548721313 -0.016808999702334404
  endloop
 endfacet
 facet normal -0.56063685014598819 -0.21593262969839888 0.79941192240916636
  outer loop
   vertex 0.023757999762892723 -0.14396800100803375 -0.013873999938368797
   vertex 0.025194000452756882 -0.14358699321746826 -0.012764000333845615
   vertex 0.024217000231146812 -0.14216099679470062 -0.013063999824225903
  endloop
 endfacet
 facet normal -0.016252820916569627 -0.11892903426829339 0.99276972688547716
  outer loop
   vertex 0.025194000452756882 -0.14358699321746826 -0.012764000333845615
   vertex 0.027854999527335167 -0.14513599872589111 -0.012906000018119812
   vertex 0.026189999654889107 -0.14268800616264343 -0.012640000320971012
  endloop
 endfacet
 facet normal -0.1901457889575634 0.07565100795694131 0.97883681169886771
  outer loop
   vertex 0.026189999654889107 -0.14268800616264343 -0.012640000320971012
   vertex 0.024217000231146812 -0.14216099679470062 -0.013063999824225903
   vertex 0.025194000452756882 -0.14358699321746826 -0.012764000333845615
  endloop
 endfacet
 facet normal 0.27949653988641632 0.086190661181656192 0.95627028298310612
  outer loop
   vertex 0.028873000293970108 -0.14444300532341003 -0.013265999965369701
   vertex 0.026189999654889107 -0.14268800616264343 -0.012640000320971012
   vertex 0.027854999527335167 -0.14513599872589111 -0.012906000018119812
  endloop
 endfacet
 facet normal 0.19387642740797759 0.2127030997104418 0.95768957510724173
  outer loop
   vertex 0.027854999527335167 -0.14513599872589111 -0.012906000018119812
   vertex 0.029729999601840973 -0.14586800336837769 -0.013123000040650368
   vertex 0.028873000293970108 -0.14444300532341003 -0.013265999965369701
  endloop
 endfacet
 facet normal 0.7945755554257532 0.51079887959845849 0.32822887033412401
  outer loop
   vertex 0.029729999601840973 -0.14586800336837769 -0.013123000040650368
   vertex 0.02988399937748909 -0.14408600330352783 -0.016269000247120857
   vertex 0.028873000293970108 -0.14444300532341003 -0.013265999965369701
  endloop
 endfacet
 facet normal 0.2281036822949368 0.95140072664721631 0.20689458054439056
  outer loop
   vertex 0.037213999778032303 -0.15379400551319122 -0.012773999944329262
   vertex 0.040938001126050949 -0.15458899736404419 -0.013224000111222267
   vertex 0.037863001227378845 -0.1537030041217804 -0.013907999731600285
  endloop
 endfacet
 facet normal 0.58410071253750551 0.80578197933524376 0.097681929709415069
  outer loop
   vertex 0.04286700114607811 -0.1560090035200119 -0.013044999912381172
   vertex 0.040938001126050949 -0.15458899736404419 -0.013224000111222267
   vertex 0.040782000869512558 -0.15471400320529938 -0.011260000057518482
  endloop
 endfacet
 facet normal 0.21233339699010964 0.97668222405007943 0.031723205185336487
  outer loop
   vertex 0.040938001126050949 -0.15458899736404419 -0.013224000111222267
   vertex 0.037213999778032303 -0.15379400551319122 -0.012773999944329262
   vertex 0.039758998900651932 -0.15439000725746155 -0.011459000408649445
  endloop
 endfacet
 facet normal 0.28608125468832052 0.95456200322059359 0.083479924074257986
  outer loop
   vertex 0.040938001126050949 -0.15458899736404419 -0.013224000111222267
   vertex 0.039758998900651932 -0.15439000725746155 -0.011459000408649445
   vertex 0.040782000869512558 -0.15471400320529938 -0.011260000057518482
  endloop
 endfacet
 facet normal 0.92489077250261498 0.35658856232171315 0.1319911215228122
  outer loop
   vertex 0.042576000094413757 -0.15606300532817841 -0.010859999805688858
   vertex 0.04288800060749054 -0.1569100022315979 -0.010758000425994396
   vertex 0.04286700114607811 -0.1560090035200119 -0.013044999912381172
  endloop
 endfacet
 facet normal 0.58411448157327994 0.80576889748274372 0.097707503631103559
  outer loop
   vertex 0.04286700114607811 -0.1560090035200119 -0.013044999912381172
   vertex 0.040782000869512558 -0.15471400320529938 -0.011260000057518482
   vertex 0.042576000094413757 -0.15606300532817841 -0.010859999805688858
  endloop
 endfacet
 facet normal 0.56609829418125479 0.30094716903792962 0.76743958900562936
  outer loop
   vertex 0.04288800060749054 -0.1569100022315979 -0.010758000425994396
   vertex 0.042576000094413757 -0.15606300532817841 -0.010859999805688858
   vertex 0.041910998523235321 -0.15620699524879456 -0.010312999598681927
  endloop
 endfacet
 facet normal 0.093150585910449904 0.71787002014101586 0.68991709830042425
  outer loop
   vertex 0.040672998875379562 -0.15533800423145294 -0.010595999658107758
   vertex 0.040782000869512558 -0.15471400320529938 -0.011260000057518482
   vertex 0.039758998900651932 -0.15439000725746155 -0.011459000408649445
  endloop
 endfacet
 facet normal 0.35372212230151223 0.70435404489204223 0.61543971243228446
  outer loop
   vertex 0.042576000094413757 -0.15606300532817841 -0.010859999805688858
   vertex 0.040672998875379562 -0.15533800423145294 -0.010595999658107758
   vertex 0.041910998523235321 -0.15620699524879456 -0.010312999598681927
  endloop
 endfacet
 facet normal 0.34311334909193014 0.65571536059728464 0.67254040440087492
  outer loop
   vertex 0.040672998875379562 -0.15533800423145294 -0.010595999658107758
   vertex 0.042576000094413757 -0.15606300532817841 -0.010859999805688858
   vertex 0.040782000869512558 -0.15471400320529938 -0.011260000057518482
  endloop
 endfacet
 facet normal -0.16739661090329691 0.97119332091595623 -0.16959336091465008
  outer loop
   vertex 0.021865999326109886 -0.14345699548721313 -0.016808999702334404
   vertex 0.023446999490261078 -0.1429470032453537 -0.015448999591171741
   vertex 0.021872000768780708 -0.14391399919986725 -0.019432000815868378
  endloop
 endfacet
 facet normal -0.26820666008690569 0.96211457836403425 -0.048997199761044045
  outer loop
   vertex 0.021865999326109886 -0.14345699548721313 -0.016808999702334404
   vertex 0.022949999198317528 -0.14304399490356445 -0.014632999897003174
   vertex 0.023446999490261078 -0.1429470032453537 -0.015448999591171741
  endloop
 endfacet
 facet normal -0.18767266431678539 0.9752560616409619 -0.11685283608368137
  outer loop
   vertex 0.021872000768780708 -0.14391399919986725 -0.019432000815868378
   vertex 0.023719999939203262 -0.14354999363422394 -0.019362000748515129
   vertex 0.023646999150514603 -0.14396399259567261 -0.022700000554323196
  endloop
 endfacet
 facet normal -0.18477819507098814 0.96929308994127628 -0.16225881923150032
  outer loop
   vertex 0.023719999939203262 -0.14354999363422394 -0.019362000748515129
   vertex 0.021872000768780708 -0.14391399919986725 -0.019432000815868378
   vertex 0.023446999490261078 -0.1429470032453537 -0.015448999591171741
  endloop
 endfacet
 facet normal -0.4855089457285951 -0.40682069055220055 -0.77380746271675283
  outer loop
   vertex 0.026037000119686127 -0.14565500617027283 -0.024229999631643295
   vertex 0.024325000122189522 -0.14392000436782837 -0.024067999795079231
   vertex 0.026593999937176704 -0.14390599727630615 -0.025498999282717705
  endloop
 endfacet
 facet normal -0.17163672074927824 -0.54215336576406425 -0.82256341037097636
  outer loop
   vertex 0.026037000119686127 -0.14565500617027283 -0.024229999631643295
   vertex 0.026593999937176704 -0.14390599727630615 -0.025498999282717705
   vertex 0.027404999360442162 -0.1450670063495636 -0.024902999401092529
  endloop
 endfacet
 facet normal -0.80177578553545836 0.45909172366505385 -0.38260995673302672
  outer loop
   vertex 0.024325000122189522 -0.14392000436782837 -0.024067999795079231
   vertex 0.023646999150514603 -0.14396399259567261 -0.022700000554323196
   vertex 0.025147000327706337 -0.1432269960641861 -0.024958999827504158
  endloop
 endfacet
 facet normal -0.70119462545675815 0.68930356005530335 -0.18217216945966669
  outer loop
   vertex 0.026522999629378319 -0.14162799715995789 -0.024931000545620918
   vertex 0.023646999150514603 -0.14396399259567261 -0.022700000554323196
   vertex 0.027219999581575394 -0.14047999680042267 -0.023269999772310257
  endloop
 endfacet
 facet normal -0.73989662730852712 0.63635224289142167 0.21819441758331859
  outer loop
   vertex 0.023646999150514603 -0.14396399259567261 -0.022700000554323196
   vertex 0.025784000754356384 -0.14255900681018829 -0.019550999626517296
   vertex 0.026643000543117523 -0.14157600700855255 -0.019504999741911888
  endloop
 endfacet
 facet normal -0.63421675042564785 0.77296864455824899 0.016987878305280486
  outer loop
   vertex 0.023646999150514603 -0.14396399259567261 -0.022700000554323196
   vertex 0.026643000543117523 -0.14157600700855255 -0.019504999741911888
   vertex 0.027132999151945114 -0.14114899933338165 -0.02064099907875061
  endloop
 endfacet
 facet normal -0.81237275136885223 0.42296987893845933 -0.4014311825757762
  outer loop
   vertex 0.025147000327706337 -0.1432269960641861 -0.024958999827504158
   vertex 0.023646999150514603 -0.14396399259567261 -0.022700000554323196
   vertex 0.025064999237656593 -0.14285300672054291 -0.024398999288678169
  endloop
 endfacet
 facet normal -0.65335901319857215 0.75530105866710306 -0.051403410864856655
  outer loop
   vertex 0.025064999237656593 -0.14285300672054291 -0.024398999288678169
   vertex 0.023646999150514603 -0.14396399259567261 -0.022700000554323196
   vertex 0.026522999629378319 -0.14162799715995789 -0.024931000545620918
  endloop
 endfacet
 facet normal -0.38398126297107726 0.91730856102516645 -0.10537264140693617
  outer loop
   vertex 0.023646999150514603 -0.14396399259567261 -0.022700000554323196
   vertex 0.023719999939203262 -0.14354999363422394 -0.019362000748515129
   vertex 0.024839999154210091 -0.14306600391864777 -0.019230000674724579
  endloop
 endfacet
 facet normal -0.67580084932514317 0.71935511140680775 0.1606904967454954
  outer loop
   vertex 0.023646999150514603 -0.14396399259567261 -0.022700000554323196
   vertex 0.027132999151945114 -0.14114899933338165 -0.02064099907875061
   vertex 0.027219999581575394 -0.14047999680042267 -0.023269999772310257
  endloop
 endfacet
 facet normal -0.4875494306374385 0.87117823826609297 -0.057827587332485622
  outer loop
   vertex 0.025784000754356384 -0.14255900681018829 -0.019550999626517296
   vertex 0.023646999150514603 -0.14396399259567261 -0.022700000554323196
   vertex 0.024839999154210091 -0.14306600391864777 -0.019230000674724579
  endloop
 endfacet
 facet normal -0.48300876673075416 -0.41700189410662758 -0.76994282357375132
  outer loop
   vertex 0.025147000327706337 -0.1432269960641861 -0.024958999827504158
   vertex 0.026593999937176704 -0.14390599727630615 -0.025498999282717705
   vertex 0.024325000122189522 -0.14392000436782837 -0.024067999795079231
  endloop
 endfacet
 facet normal 0.23702254613542298 -0.30750836574992768 -0.92155244973755568
  outer loop
   vertex 0.028187999501824379 -0.14301900565624237 -0.025384999811649323
   vertex 0.027404999360442162 -0.1450670063495636 -0.024902999401092529
   vertex 0.026593999937176704 -0.14390599727630615 -0.025498999282717705
  endloop
 endfacet
 facet normal 0.24264069090958593 -0.048151900708151896 -0.96892047639272805
  outer loop
   vertex 0.02687700092792511 -0.1423410028219223 -0.025746999308466911
   vertex 0.028187999501824379 -0.14301900565624237 -0.025384999811649323
   vertex 0.027085000649094582 -0.14296300709247589 -0.02566399984061718
  endloop
 endfacet
 facet normal 0.22213398012867552 -0.2791257551886982 -0.93420838556637453
  outer loop
   vertex 0.027085000649094582 -0.14296300709247589 -0.02566399984061718
   vertex 0.028187999501824379 -0.14301900565624237 -0.025384999811649323
   vertex 0.026593999937176704 -0.14390599727630615 -0.025498999282717705
  endloop
 endfacet
 facet normal 0.41705296944835657 0.36109217479784367 -0.83407389479234495
  outer loop
   vertex 0.02922699972987175 -0.14254899322986603 -0.024661999195814133
   vertex 0.028187999501824379 -0.14301900565624237 -0.025384999811649323
   vertex 0.02687700092792511 -0.1423410028219223 -0.025746999308466911
  endloop
 endfacet
 facet normal 0.93970124783552367 0.33566675178860639 0.065493484867168494
  outer loop
   vertex 0.02988399937748909 -0.14408600330352783 -0.016269000247120857
   vertex 0.030616000294685364 -0.14496299624443054 -0.022276999428868294
   vertex 0.029031999409198761 -0.140407994389534 -0.022895000874996185
  endloop
 endfacet
 facet normal 0.92514228481338845 0.28819318788798948 -0.24709601232156961
  outer loop
   vertex 0.029031999409198761 -0.140407994389534 -0.022895000874996185
   vertex 0.030616000294685364 -0.14496299624443054 -0.022276999428868294
   vertex 0.02922699972987175 -0.14254899322986603 -0.024661999195814133
  endloop
 endfacet
 facet normal 0.76981645084820716 0.44651890520280779 -0.45607400638488016
  outer loop
   vertex 0.02922699972987175 -0.14254899322986603 -0.024661999195814133
   vertex 0.028511999174952507 -0.14130200445652008 -0.024647999554872513
   vertex 0.029031999409198761 -0.140407994389534 -0.022895000874996185
  endloop
 endfacet
 facet normal 0.42391773637233554 0.25283053856991994 -0.86969562006221424
  outer loop
   vertex 0.028511999174952507 -0.14130200445652008 -0.024647999554872513
   vertex 0.02922699972987175 -0.14254899322986603 -0.024661999195814133
   vertex 0.02687700092792511 -0.1423410028219223 -0.025746999308466911
  endloop
 endfacet
 facet normal 0.91330867015464723 0.39441757915627085 0.10149899641305096
  outer loop
   vertex 0.02988399937748909 -0.14408600330352783 -0.016269000247120857
   vertex 0.029031999409198761 -0.140407994389534 -0.022895000874996185
   vertex 0.028407000005245209 -0.14115199446678162 -0.014379999600350857
  endloop
 endfacet
 facet normal 0.91038620209791932 0.24241100047658404 0.33531160116773157
  outer loop
   vertex 0.028873000293970108 -0.14444300532341003 -0.013265999965369701
   vertex 0.02988399937748909 -0.14408600330352783 -0.016269000247120857
   vertex 0.028407000005245209 -0.14115199446678162 -0.014379999600350857
  endloop
 endfacet
 facet normal -0.485317754130481 0.86892837513119336 -0.097108992465219354
  outer loop
   vertex 0.024217000231146812 -0.14216099679470062 -0.013063999824225903
   vertex 0.025756999850273132 -0.14164899289608002 -0.016178999096155167
   vertex 0.022949999198317528 -0.14304399490356445 -0.014632999897003174
  endloop
 endfacet
 facet normal -0.53050105436388539 0.81700192520631565 -0.22600107417439352
  outer loop
   vertex 0.023446999490261078 -0.1429470032453537 -0.015448999591171741
   vertex 0.022949999198317528 -0.14304399490356445 -0.014632999897003174
   vertex 0.025756999850273132 -0.14164899289608002 -0.016178999096155167
  endloop
 endfacet
 facet normal -0.09191227287250936 0.39225770674021709 0.91525189188458667
  outer loop
   vertex 0.024217000231146812 -0.14216099679470062 -0.013063999824225903
   vertex 0.026189999654889107 -0.14268800616264343 -0.012640000320971012
   vertex 0.024907000362873077 -0.1409820020198822 -0.013500000350177288
  endloop
 endfacet
 facet normal -0.85644841556648388 0.36695579079452778 -0.36309717580287248
  outer loop
   vertex 0.024217000231146812 -0.14216099679470062 -0.013063999824225903
   vertex 0.024907000362873077 -0.1409820020198822 -0.013500000350177288
   vertex 0.025756999850273132 -0.14164899289608002 -0.016178999096155167
  endloop
 endfacet
 facet normal 0.31756890016108202 0.15161217647331734 0.93603618605025318
  outer loop
   vertex 0.026189999654889107 -0.14268800616264343 -0.012640000320971012
   vertex 0.028873000293970108 -0.14444300532341003 -0.013265999965369701
   vertex 0.027383999899029732 -0.14163899421691895 -0.013214999809861183
  endloop
 endfacet
 facet normal 0.020648991155452785 0.46238467603974065 0.88643896040725001
  outer loop
   vertex 0.026189999654889107 -0.14268800616264343 -0.012640000320971012
   vertex 0.027383999899029732 -0.14163899421691895 -0.013214999809861183
   vertex 0.024907000362873077 -0.1409820020198822 -0.013500000350177288
  endloop
 endfacet
 facet normal 0.63844625905765262 0.32635285107103473 0.69705106763643621
  outer loop
   vertex 0.028873000293970108 -0.14444300532341003 -0.013265999965369701
   vertex 0.028407000005245209 -0.14115199446678162 -0.014379999600350857
   vertex 0.027383999899029732 -0.14163899421691895 -0.013214999809861183
  endloop
 endfacet
 facet normal -0.087823927021888626 0.98357467318266822 -0.15769533955086082
  outer loop
   vertex 0.023719999939203262 -0.14354999363422394 -0.019362000748515129
   vertex 0.023446999490261078 -0.1429470032453537 -0.015448999591171741
   vertex 0.024612000212073326 -0.14328500628471375 -0.018206000328063965
  endloop
 endfacet
 facet normal -0.56453098527074652 0.75603360659877972 -0.33123700331104561
  outer loop
   vertex 0.024612000212073326 -0.14328500628471375 -0.018206000328063965
   vertex 0.023446999490261078 -0.1429470032453537 -0.015448999591171741
   vertex 0.025940999388694763 -0.14214499294757843 -0.017868999391794205
  endloop
 endfacet
 facet normal -0.53690435577308093 0.79191253065225753 -0.29087498439678566
  outer loop
   vertex 0.023446999490261078 -0.1429470032453537 -0.015448999591171741
   vertex 0.025756999850273132 -0.14164899289608002 -0.016178999096155167
   vertex 0.025940999388694763 -0.14214499294757843 -0.017868999391794205
  endloop
 endfacet
 facet normal -0.40484085506455242 0.90843673201183806 0.1041469442770834
  outer loop
   vertex 0.023719999939203262 -0.14354999363422394 -0.019362000748515129
   vertex 0.024612000212073326 -0.14328500628471375 -0.018206000328063965
   vertex 0.024839999154210091 -0.14306600391864777 -0.019230000674724579
  endloop
 endfacet
 facet normal -0.049560077456784361 -0.14705115115809855 -0.9878865105190755
  outer loop
   vertex 0.026593999937176704 -0.14390599727630615 -0.025498999282717705
   vertex 0.026060000061988831 -0.14263099431991577 -0.025661999359726906
   vertex 0.027085000649094582 -0.14296300709247589 -0.02566399984061718
  endloop
 endfacet
 facet normal -0.45311178566534355 -0.29721855155320276 -0.84044681110929309
  outer loop
   vertex 0.025147000327706337 -0.1432269960641861 -0.024958999827504158
   vertex 0.026060000061988831 -0.14263099431991577 -0.025661999359726906
   vertex 0.026593999937176704 -0.14390599727630615 -0.025498999282717705
  endloop
 endfacet
 facet normal -0.70605883564006744 0.53679420644701104 -0.46187974683841237
  outer loop
   vertex 0.025064999237656593 -0.14285300672054291 -0.024398999288678169
   vertex 0.026060000061988831 -0.14263099431991577 -0.025661999359726906
   vertex 0.025147000327706337 -0.1432269960641861 -0.024958999827504158
  endloop
 endfacet
 facet normal -0.8885760204291564 0.45499693599945373 0.058399008119938783
  outer loop
   vertex 0.027187999337911606 -0.14040400087833405 -0.024349000304937363
   vertex 0.026522999629378319 -0.14162799715995789 -0.024931000545620918
   vertex 0.027219999581575394 -0.14047999680042267 -0.023269999772310257
  endloop
 endfacet
 facet normal -0.66884013691976529 0.61409862194035447 -0.41896987215801951
  outer loop
   vertex 0.026060000061988831 -0.14263099431991577 -0.025661999359726906
   vertex 0.025064999237656593 -0.14285300672054291 -0.024398999288678169
   vertex 0.026522999629378319 -0.14162799715995789 -0.024931000545620918
  endloop
 endfacet
 facet normal -0.30288456712898093 0.64867428540332261 -0.69819954916311611
  outer loop
   vertex 0.026522999629378319 -0.14162799715995789 -0.024931000545620918
   vertex 0.02687700092792511 -0.1423410028219223 -0.025746999308466911
   vertex 0.026060000061988831 -0.14263099431991577 -0.025661999359726906
  endloop
 endfacet
 facet normal -0.44453191271866493 0.57006000096220677 -0.69095801166037152
  outer loop
   vertex 0.026522999629378319 -0.14162799715995789 -0.024931000545620918
   vertex 0.027187999337911606 -0.14040400087833405 -0.024349000304937363
   vertex 0.02687700092792511 -0.1423410028219223 -0.025746999308466911
  endloop
 endfacet
 facet normal -0.7737374141141995 0.59232119374033843 -0.22469093761407485
  outer loop
   vertex 0.027615999802947044 -0.14012999832630157 -0.023710999637842178
   vertex 0.027219999581575394 -0.14047999680042267 -0.023269999772310257
   vertex 0.027736000716686249 -0.13950400054454803 -0.022474000230431557
  endloop
 endfacet
 facet normal -0.61319294827949478 0.78649880424787499 0.073580154233079148
  outer loop
   vertex 0.027219999581575394 -0.14047999680042267 -0.023269999772310257
   vertex 0.027615999802947044 -0.14012999832630157 -0.023710999637842178
   vertex 0.027187999337911606 -0.14040400087833405 -0.024349000304937363
  endloop
 endfacet
 facet normal -0.90579574330046475 0.41682571696447773 0.076094632503269324
  outer loop
   vertex 0.027736000716686249 -0.13950400054454803 -0.022474000230431557
   vertex 0.027219999581575394 -0.14047999680042267 -0.023269999772310257
   vertex 0.027132999151945114 -0.14114899933338165 -0.02064099907875061
  endloop
 endfacet
 facet normal -0.67535691200428183 0.60958840097620048 -0.4150843562498106
  outer loop
   vertex 0.025991000235080719 -0.14201100170612335 -0.019083000719547272
   vertex 0.026643000543117523 -0.14157600700855255 -0.019504999741911888
   vertex 0.025784000754356384 -0.14255900681018829 -0.019550999626517296
  endloop
 endfacet
 facet normal -0.447063803045187 0.88988388494459247 0.090777901070104264
  outer loop
   vertex 0.025784000754356384 -0.14255900681018829 -0.019550999626517296
   vertex 0.024839999154210091 -0.14306600391864777 -0.019230000674724579
   vertex 0.024612000212073326 -0.14328500628471375 -0.018206000328063965
  endloop
 endfacet
 facet normal -0.53897063226226427 0.84219006662877038 -0.015051552432966858
  outer loop
   vertex 0.024612000212073326 -0.14328500628471375 -0.018206000328063965
   vertex 0.025647999718785286 -0.14263099431991577 -0.018709000200033188
   vertex 0.025784000754356384 -0.14255900681018829 -0.019550999626517296
  endloop
 endfacet
 facet normal -0.8960541612085472 0.4306289443605239 -0.10791502425421483
  outer loop
   vertex 0.025991000235080719 -0.14201100170612335 -0.019083000719547272
   vertex 0.025784000754356384 -0.14255900681018829 -0.019550999626517296
   vertex 0.025647999718785286 -0.14263099431991577 -0.018709000200033188
  endloop
 endfacet
 facet normal -0.92623258322057955 0.17586955061907777 -0.33341131196403034
  outer loop
   vertex 0.026643000543117523 -0.14157600700855255 -0.019504999741911888
   vertex 0.027091000229120255 -0.14037300646305084 -0.020114999264478683
   vertex 0.027132999151945114 -0.14114899933338165 -0.02064099907875061
  endloop
 endfacet
 facet normal -0.92697616704648078 0.17769112941838458 -0.33036502274580148
  outer loop
   vertex 0.026643000543117523 -0.14157600700855255 -0.019504999741911888
   vertex 0.026794999837875366 -0.14008399844169617 -0.019129000604152679
   vertex 0.027091000229120255 -0.14037300646305084 -0.020114999264478683
  endloop
 endfacet
 facet normal -0.98097380192788775 0.13507811772648876 -0.13944282714651904
  outer loop
   vertex 0.026794999837875366 -0.14008399844169617 -0.019129000604152679
   vertex 0.026643000543117523 -0.14157600700855255 -0.019504999741911888
   vertex 0.026528000831604004 -0.14157499372959137 -0.018695000559091568
  endloop
 endfacet
 facet normal -0.5904001090344837 0.80264078481140877 -0.084826185870848253
  outer loop
   vertex 0.025991000235080719 -0.14201100170612335 -0.019083000719547272
   vertex 0.026528000831604004 -0.14157499372959137 -0.018695000559091568
   vertex 0.026643000543117523 -0.14157600700855255 -0.019504999741911888
  endloop
 endfacet
 facet normal -0.96249896921126377 0.11458640818834051 -0.24589772126994108
  outer loop
   vertex 0.027132999151945114 -0.14114899933338165 -0.02064099907875061
   vertex 0.027091000229120255 -0.14037300646305084 -0.020114999264478683
   vertex 0.027419999241828918 -0.13914600014686584 -0.020831000059843063
  endloop
 endfacet
 facet normal -0.96992308986199871 0.11882407477140432 -0.21243831812380945
  outer loop
   vertex 0.027132999151945114 -0.14114899933338165 -0.02064099907875061
   vertex 0.027419999241828918 -0.13914600014686584 -0.020831000059843063
   vertex 0.027736000716686249 -0.13950400054454803 -0.022474000230431557
  endloop
 endfacet
 facet normal -0.050036007962203227 -0.14852192969631028 -0.98764246279030077
  outer loop
   vertex 0.027085000649094582 -0.14296300709247589 -0.02566399984061718
   vertex 0.026060000061988831 -0.14263099431991577 -0.025661999359726906
   vertex 0.02687700092792511 -0.1423410028219223 -0.025746999308466911
  endloop
 endfacet
 facet normal 0.19263381589037698 0.55374575177865948 -0.8100974357215307
  outer loop
   vertex 0.027187999337911606 -0.14040400087833405 -0.024349000304937363
   vertex 0.028511999174952507 -0.14130200445652008 -0.024647999554872513
   vertex 0.02687700092792511 -0.1423410028219223 -0.025746999308466911
  endloop
 endfacet
 facet normal 0.69816602894207658 0.70695939400726882 0.11301597787979642
  outer loop
   vertex 0.029031999409198761 -0.140407994389534 -0.022895000874996185
   vertex 0.027419999241828918 -0.13914600014686584 -0.020831000059843063
   vertex 0.028407000005245209 -0.14115199446678162 -0.014379999600350857
  endloop
 endfacet
 facet normal 0.55423608363881816 0.82905908719897792 -0.07404993940242402
  outer loop
   vertex 0.027419999241828918 -0.13914600014686584 -0.020831000059843063
   vertex 0.029031999409198761 -0.140407994389534 -0.022895000874996185
   vertex 0.027736000716686249 -0.13950400054454803 -0.022474000230431557
  endloop
 endfacet
 facet normal 0.43837004680634428 0.74137493087618656 -0.50812883595731217
  outer loop
   vertex 0.027615999802947044 -0.14012999832630157 -0.023710999637842178
   vertex 0.029031999409198761 -0.140407994389534 -0.022895000874996185
   vertex 0.028511999174952507 -0.14130200445652008 -0.024647999554872513
  endloop
 endfacet
 facet normal 0.41163886684343065 0.79644243799747028 -0.44298181256175989
  outer loop
   vertex 0.029031999409198761 -0.140407994389534 -0.022895000874996185
   vertex 0.027615999802947044 -0.14012999832630157 -0.023710999637842178
   vertex 0.027736000716686249 -0.13950400054454803 -0.022474000230431557
  endloop
 endfacet
 facet normal 0.37165089659400413 0.73625023186374827 -0.56551852944129954
  outer loop
   vertex 0.028511999174952507 -0.14130200445652008 -0.024647999554872513
   vertex 0.027187999337911606 -0.14040400087833405 -0.024349000304937363
   vertex 0.027615999802947044 -0.14012999832630157 -0.023710999637842178
  endloop
 endfacet
 facet normal 0.41098443290398468 0.65457961140230614 0.63452133789731291
  outer loop
   vertex 0.027383999899029732 -0.14163899421691895 -0.013214999809861183
   vertex 0.028407000005245209 -0.14115199446678162 -0.014379999600350857
   vertex 0.026287000626325607 -0.14023000001907349 -0.013957999646663666
  endloop
 endfacet
 facet normal 0.42472910032685396 0.73412377401733775 0.52978059209269079
  outer loop
   vertex 0.026623999699950218 -0.13947600126266479 -0.015273000113666058
   vertex 0.026287000626325607 -0.14023000001907349 -0.013957999646663666
   vertex 0.028407000005245209 -0.14115199446678162 -0.014379999600350857
  endloop
 endfacet
 facet normal 0.64127590133892332 0.75504049685115815 0.13667138133752652
  outer loop
   vertex 0.027419999241828918 -0.13914600014686584 -0.020831000059843063
   vertex 0.026623999699950218 -0.13947600126266479 -0.015273000113666058
   vertex 0.028407000005245209 -0.14115199446678162 -0.014379999600350857
  endloop
 endfacet
 facet normal -0.82826772276051119 0.42255205284097175 -0.36799774737489599
  outer loop
   vertex 0.025756999850273132 -0.14164899289608002 -0.016178999096155167
   vertex 0.024907000362873077 -0.1409820020198822 -0.013500000350177288
   vertex 0.02578200027346611 -0.13995400071144104 -0.014289000071585178
  endloop
 endfacet
 facet normal -0.9286941448403141 0.37084584796310205 -0.00073646985366257445
  outer loop
   vertex 0.025756999850273132 -0.14164899289608002 -0.016178999096155167
   vertex 0.026623999699950218 -0.13947600126266479 -0.015273000113666058
   vertex 0.026466000825166702 -0.13987299799919128 -0.015940999612212181
  endloop
 endfacet
 facet normal -0.76743649622280319 0.48231061698893396 -0.42239518582131264
  outer loop
   vertex 0.025756999850273132 -0.14164899289608002 -0.016178999096155167
   vertex 0.02578200027346611 -0.13995400071144104 -0.014289000071585178
   vertex 0.026623999699950218 -0.13947600126266479 -0.015273000113666058
  endloop
 endfacet
 facet normal -0.8488216638816215 0.38711273641308935 -0.3600632058847526
  outer loop
   vertex 0.026723999530076981 -0.14110800623893738 -0.017876999452710152
   vertex 0.025756999850273132 -0.14164899289608002 -0.016178999096155167
   vertex 0.026466000825166702 -0.13987299799919128 -0.015940999612212181
  endloop
 endfacet
 facet normal -0.77266160099176895 0.58145001089257764 -0.2547742828188469
  outer loop
   vertex 0.025940999388694763 -0.14214499294757843 -0.017868999391794205
   vertex 0.025756999850273132 -0.14164899289608002 -0.016178999096155167
   vertex 0.026723999530076981 -0.14110800623893738 -0.017876999452710152
  endloop
 endfacet
 facet normal -0.11859566008516516 0.66611031635126783 0.73636411907383004
  outer loop
   vertex 0.026287000626325607 -0.14023000001907349 -0.013957999646663666
   vertex 0.02578200027346611 -0.13995400071144104 -0.014289000071585178
   vertex 0.024907000362873077 -0.1409820020198822 -0.013500000350177288
  endloop
 endfacet
 facet normal 0.027364395128040446 0.48285845032283109 0.87527076201088239
  outer loop
   vertex 0.024907000362873077 -0.1409820020198822 -0.013500000350177288
   vertex 0.027383999899029732 -0.14163899421691895 -0.013214999809861183
   vertex 0.026287000626325607 -0.14023000001907349 -0.013957999646663666
  endloop
 endfacet
 facet normal -0.59786572501212376 0.76641127206350734 -0.2348836667580875
  outer loop
   vertex 0.025647999718785286 -0.14263099431991577 -0.018709000200033188
   vertex 0.024612000212073326 -0.14328500628471375 -0.018206000328063965
   vertex 0.025940999388694763 -0.14214499294757843 -0.017868999391794205
  endloop
 endfacet
 facet normal -0.78952145316833588 0.59498490449707031 -0.15049531025108825
  outer loop
   vertex 0.025940999388694763 -0.14214499294757843 -0.017868999391794205
   vertex 0.026723999530076981 -0.14110800623893738 -0.017876999452710152
   vertex 0.026528000831604004 -0.14157499372959137 -0.018695000559091568
  endloop
 endfacet
 facet normal -0.87009274092791433 0.49253975266638639 0.018526041883908911
  outer loop
   vertex 0.025991000235080719 -0.14201100170612335 -0.019083000719547272
   vertex 0.025647999718785286 -0.14263099431991577 -0.018709000200033188
   vertex 0.025940999388694763 -0.14214499294757843 -0.017868999391794205
  endloop
 endfacet
 facet normal -0.65356258189960981 0.75476914940883644 0.056386901328032216
  outer loop
   vertex 0.025991000235080719 -0.14201100170612335 -0.019083000719547272
   vertex 0.025940999388694763 -0.14214499294757843 -0.017868999391794205
   vertex 0.026528000831604004 -0.14157499372959137 -0.018695000559091568
  endloop
 endfacet
 facet normal -0.9487593018943461 0.075308451645301477 -0.30689480963310578
  outer loop
   vertex 0.027091000229120255 -0.14037300646305084 -0.020114999264478683
   vertex 0.026794999837875366 -0.14008399844169617 -0.019129000604152679
   vertex 0.027419999241828918 -0.13914600014686584 -0.020831000059843063
  endloop
 endfacet
 facet normal -0.91278896985027358 0.39039374483440786 -0.12003757959007537
  outer loop
   vertex 0.026794999837875366 -0.14008399844169617 -0.019129000604152679
   vertex 0.026466000825166702 -0.13987299799919128 -0.015940999612212181
   vertex 0.027419999241828918 -0.13914600014686584 -0.020831000059843063
  endloop
 endfacet
 facet normal -0.99370541630126852 -0.052254235990683073 -0.099091071416917739
  outer loop
   vertex 0.026794999837875366 -0.14008399844169617 -0.019129000604152679
   vertex 0.026723999530076981 -0.14110800623893738 -0.017876999452710152
   vertex 0.026466000825166702 -0.13987299799919128 -0.015940999612212181
  endloop
 endfacet
 facet normal -0.97156046121806083 0.20729569822746011 0.11444983046793475
  outer loop
   vertex 0.026528000831604004 -0.14157499372959137 -0.018695000559091568
   vertex 0.026723999530076981 -0.14110800623893738 -0.017876999452710152
   vertex 0.026794999837875366 -0.14008399844169617 -0.019129000604152679
  endloop
 endfacet
 facet normal -0.86088627380917837 0.50011391340089806 -0.093599664474758107
  outer loop
   vertex 0.026466000825166702 -0.13987299799919128 -0.015940999612212181
   vertex 0.026623999699950218 -0.13947600126266479 -0.015273000113666058
   vertex 0.027419999241828918 -0.13914600014686584 -0.020831000059843063
  endloop
 endfacet
 facet normal 0.1237719805486094 0.84682287528507727 0.5172731529134188
  outer loop
   vertex 0.02578200027346611 -0.13995400071144104 -0.014289000071585178
   vertex 0.026287000626325607 -0.14023000001907349 -0.013957999646663666
   vertex 0.026623999699950218 -0.13947600126266479 -0.015273000113666058
  endloop
 endfacet
endsolid
