solid Visualization Toolkit generated SLA File
 facet normal -0.604624893883143 0.13047734457280602 -0.78575085125631738
  outer loop
   vertex -0.06244799867272377 -0.071901001036167145 -0.057002000510692596
   vertex -0.062417000532150269 -0.062953002750873566 -0.055539999157190323
   vertex -0.04591900110244751 -0.070017002522945404 -0.069407999515533447
  endloop
 endfacet
 facet normal -0.75186962068784247 -0.38697225532544577 -0.53380197367100268
  outer loop
   vertex -0.04591900110244751 -0.070017002522945404 -0.069407999515533447
   vertex -0.05768200010061264 -0.053883999586105347 -0.064534999430179596
   vertex -0.047412998974323273 -0.050859000533819199 -0.081192001700401306
  endloop
 endfacet
 facet normal 0.68985379940856162 0.30103596881157502 -0.65839128253892354
  outer loop
   vertex -0.084749996662139893 -0.081350997090339661 -0.070701003074645996
   vertex -0.087329000234603882 -0.064966998994350433 -0.065912000834941864
   vertex -0.080482997000217438 -0.072644002735614777 -0.062249001115560532
  endloop
 endfacet
 facet normal 0.69553317485718569 0.31126310883063274 -0.64757152481727709
  outer loop
   vertex -0.080482997000217438 -0.072644002735614777 -0.062249001115560532
   vertex -0.087329000234603882 -0.064966998994350433 -0.065912000834941864
   vertex -0.076976999640464783 -0.066999003291130066 -0.055769998580217361
  endloop
 endfacet
 facet normal 0.71418233737204517 0.29760235890937659 -0.63354275700806251
  outer loop
   vertex -0.094783999025821686 -0.078564003109931946 -0.080702997744083405
   vertex -0.087329000234603882 -0.064966998994350433 -0.065912000834941864
   vertex -0.084749996662139893 -0.081350997090339661 -0.070701003074645996
  endloop
 endfacet
 facet normal 0.25164518606488623 -0.65089916069967346 -0.7162436617037734
  outer loop
   vertex -0.084509000182151794 -0.04830000177025795 -0.064621999859809875
   vertex -0.077689997851848602 -0.044275000691413879 -0.065884001553058624
   vertex -0.075724996626377106 -0.050801001489162445 -0.059262998402118683
  endloop
 endfacet
 facet normal 0.016926478801811078 -0.70957977978816289 -0.70442177027059161
  outer loop
   vertex -0.070202000439167023 -0.04483100026845932 -0.065144002437591553
   vertex -0.075724996626377106 -0.050801001489162445 -0.059262998402118683
   vertex -0.077689997851848602 -0.044275000691413879 -0.065884001553058624
  endloop
 endfacet
 facet normal 0.52604663124983053 -0.81465170270833542 0.24416704328208289
  outer loop
   vertex -0.084509000182151794 -0.04830000177025795 -0.064621999859809875
   vertex -0.089861996471881866 -0.054216999560594559 -0.072830997407436371
   vertex -0.077689997851848602 -0.044275000691413879 -0.065884001553058624
  endloop
 endfacet
 facet normal 0.69150776641882761 -0.68371819807713252 -0.23312321763523097
  outer loop
   vertex -0.091591000556945801 -0.050184998661279678 -0.089785002171993256
   vertex -0.077689997851848602 -0.044275000691413879 -0.065884001553058624
   vertex -0.089861996471881866 -0.054216999560594559 -0.072830997407436371
  endloop
 endfacet
 facet normal -0.029234267524697682 0.16128018658343787 -0.9864755744659397
  outer loop
   vertex -0.076976999640464783 -0.066999003291130066 -0.055769998580217361
   vertex -0.062417000532150269 -0.062953002750873566 -0.055539999157190323
   vertex -0.06244799867272377 -0.071901001036167145 -0.057002000510692596
  endloop
 endfacet
 facet normal 0.93640409635331701 -0.0051967295458978484 -0.35088511272887396
  outer loop
   vertex -0.087329000234603882 -0.064966998994350433 -0.065912000834941864
   vertex -0.089861996471881866 -0.054216999560594559 -0.072830997407436371
   vertex -0.085142001509666443 -0.053865000605583191 -0.060240000486373901
  endloop
 endfacet
 facet normal 0.61207661637061694 0.26083461195075308 -0.74654371667089714
  outer loop
   vertex -0.087329000234603882 -0.064966998994350433 -0.065912000834941864
   vertex -0.085142001509666443 -0.053865000605583191 -0.060240000486373901
   vertex -0.078795000910758972 -0.05839800089597702 -0.056620001792907715
  endloop
 endfacet
 facet normal 0.7055297484010441 0.079534810111715482 -0.70420308725654746
  outer loop
   vertex -0.076976999640464783 -0.066999003291130066 -0.055769998580217361
   vertex -0.087329000234603882 -0.064966998994350433 -0.065912000834941864
   vertex -0.078795000910758972 -0.05839800089597702 -0.056620001792907715
  endloop
 endfacet
 facet normal 0.11976607255812537 -0.36904485357129724 -0.9216626193551205
  outer loop
   vertex -0.078795000910758972 -0.05839800089597702 -0.056620001792907715
   vertex -0.075724996626377106 -0.050801001489162445 -0.059262998402118683
   vertex -0.071624003350734711 -0.058301001787185669 -0.055727001279592514
  endloop
 endfacet
 facet normal -0.065342476652511111 -0.16885632512242607 -0.98347236982594777
  outer loop
   vertex -0.062417000532150269 -0.062953002750873566 -0.055539999157190323
   vertex -0.071624003350734711 -0.058301001787185669 -0.055727001279592514
   vertex -0.067025996744632721 -0.053924001753330231 -0.056784000247716904
  endloop
 endfacet
 facet normal 0.92201348474240252 -0.098117882296810552 -0.37451837755544221
  outer loop
   vertex -0.094783999025821686 -0.078564003109931946 -0.080702997744083405
   vertex -0.097661003470420837 -0.060940001159906387 -0.092403002083301544
   vertex -0.087329000234603882 -0.064966998994350433 -0.065912000834941864
  endloop
 endfacet
 facet normal 0.97906239977812137 0.19650910109690886 -0.053112997719870027
  outer loop
   vertex -0.087329000234603882 -0.064966998994350433 -0.065912000834941864
   vertex -0.091591000556945801 -0.050184998661279678 -0.089785002171993256
   vertex -0.089861996471881866 -0.054216999560594559 -0.072830997407436371
  endloop
 endfacet
 facet normal 0.84052432319494508 -0.38050390392432726 -0.38566260022981991
  outer loop
   vertex -0.097661003470420837 -0.060940001159906387 -0.092403002083301544
   vertex -0.091591000556945801 -0.050184998661279678 -0.089785002171993256
   vertex -0.087329000234603882 -0.064966998994350433 -0.065912000834941864
  endloop
 endfacet
 facet normal -0.99533182085949623 -0.019476140691205873 0.094526431902913155
  outer loop
   vertex -0.047412998974323273 -0.050859000533819199 -0.081192001700401306
   vertex -0.048881001770496368 -0.048842001706361771 -0.096234001219272614
   vertex -0.04591900110244751 -0.070017002522945404 -0.069407999515533447
  endloop
 endfacet
 facet normal -0.58301557681161775 -0.81080649633032176 -0.05182337989329306
  outer loop
   vertex -0.048881001770496368 -0.048842001706361771 -0.096234001219272614
   vertex -0.047412998974323273 -0.050859000533819199 -0.081192001700401306
   vertex -0.061698000878095627 -0.040081001818180084 -0.089112997055053711
  endloop
 endfacet
 facet normal -0.62128152879068266 -0.60862156777444787 -0.49354741334879404
  outer loop
   vertex -0.047412998974323273 -0.050859000533819199 -0.081192001700401306
   vertex -0.05768200010061264 -0.053883999586105347 -0.064534999430179596
   vertex -0.061427999287843704 -0.046105999499559402 -0.069411002099514008
  endloop
 endfacet
 facet normal -0.49184906199454353 -0.83448041030246045 -0.24844907936340777
  outer loop
   vertex -0.061698000878095627 -0.040081001818180084 -0.089112997055053711
   vertex -0.047412998974323273 -0.050859000533819199 -0.081192001700401306
   vertex -0.061427999287843704 -0.046105999499559402 -0.069411002099514008
  endloop
 endfacet
 facet normal -0.054114765290804695 -0.70892761116789715 -0.70320212905060242
  outer loop
   vertex -0.067025996744632721 -0.053924001753330231 -0.056784000247716904
   vertex -0.075724996626377106 -0.050801001489162445 -0.059262998402118683
   vertex -0.065351001918315887 -0.049490001052618027 -0.061383001506328583
  endloop
 endfacet
 facet normal -0.55607891334389858 -0.48785739427058278 -0.67288290585345223
  outer loop
   vertex -0.05768200010061264 -0.053883999586105347 -0.064534999430179596
   vertex -0.067025996744632721 -0.053924001753330231 -0.056784000247716904
   vertex -0.065351001918315887 -0.049490001052618027 -0.061383001506328583
  endloop
 endfacet
 facet normal 0.23585638455307928 -0.95139280280639427 0.19804923790245485
  outer loop
   vertex -0.088044002652168274 -0.0489329993724823 -0.10026100277900696
   vertex -0.061698000878095627 -0.040081001818180084 -0.089112997055053711
   vertex -0.072428002953529358 -0.040380001068115234 -0.077771000564098358
  endloop
 endfacet
 facet normal -0.26850930341510171 -0.92218984292010164 -0.2783319018627492
  outer loop
   vertex -0.061698000878095627 -0.040081001818180084 -0.089112997055053711
   vertex -0.061427999287843704 -0.046105999499559402 -0.069411002099514008
   vertex -0.072428002953529358 -0.040380001068115234 -0.077771000564098358
  endloop
 endfacet
 facet normal -0.58519522580319605 -0.39620175791523282 -0.70751022234454364
  outer loop
   vertex -0.05768200010061264 -0.053883999586105347 -0.064534999430179596
   vertex -0.062417000532150269 -0.062953002750873566 -0.055539999157190323
   vertex -0.067025996744632721 -0.053924001753330231 -0.056784000247716904
  endloop
 endfacet
 facet normal -0.57441392701872007 -0.61517515636290987 -0.54000756239223335
  outer loop
   vertex -0.061427999287843704 -0.046105999499559402 -0.069411002099514008
   vertex -0.05768200010061264 -0.053883999586105347 -0.064534999430179596
   vertex -0.065351001918315887 -0.049490001052618027 -0.061383001506328583
  endloop
 endfacet
 facet normal -0.36007938178769205 -0.78360481239304158 -0.50626706075534833
  outer loop
   vertex -0.061427999287843704 -0.046105999499559402 -0.069411002099514008
   vertex -0.065351001918315887 -0.049490001052618027 -0.061383001506328583
   vertex -0.070202000439167023 -0.04483100026845932 -0.065144002437591553
  endloop
 endfacet
 facet normal -0.26904647799210391 -0.922236676894852 -0.27765717075196317
  outer loop
   vertex -0.072428002953529358 -0.040380001068115234 -0.077771000564098358
   vertex -0.061427999287843704 -0.046105999499559402 -0.069411002099514008
   vertex -0.070202000439167023 -0.04483100026845932 -0.065144002437591553
  endloop
 endfacet
 facet normal 0.017395506728321082 -0.0057631632462613741 -0.99983207704847221
  outer loop
   vertex -0.062417000532150269 -0.062953002750873566 -0.055539999157190323
   vertex -0.076976999640464783 -0.066999003291130066 -0.055769998580217361
   vertex -0.071624003350734711 -0.058301001787185669 -0.055727001279592514
  endloop
 endfacet
 facet normal 0.12421125284404416 -0.071550817840876982 -0.98967269596226348
  outer loop
   vertex -0.076976999640464783 -0.066999003291130066 -0.055769998580217361
   vertex -0.078795000910758972 -0.05839800089597702 -0.056620001792907715
   vertex -0.071624003350734711 -0.058301001787185669 -0.055727001279592514
  endloop
 endfacet
 facet normal 0.27642195636519495 -0.61375751883736096 -0.73952187939901071
  outer loop
   vertex -0.084509000182151794 -0.04830000177025795 -0.064621999859809875
   vertex -0.075724996626377106 -0.050801001489162445 -0.059262998402118683
   vertex -0.085142001509666443 -0.053865000605583191 -0.060240000486373901
  endloop
 endfacet
 facet normal 0.22218907047504155 -0.39924958688828188 -0.88951210465680197
  outer loop
   vertex -0.085142001509666443 -0.053865000605583191 -0.060240000486373901
   vertex -0.075724996626377106 -0.050801001489162445 -0.059262998402118683
   vertex -0.078795000910758972 -0.05839800089597702 -0.056620001792907715
  endloop
 endfacet
 facet normal 0.48831144474161525 -0.86994569706062885 -0.068894245768807857
  outer loop
   vertex -0.072428002953529358 -0.040380001068115234 -0.077771000564098358
   vertex -0.077689997851848602 -0.044275000691413879 -0.065884001553058624
   vertex -0.091591000556945801 -0.050184998661279678 -0.089785002171993256
  endloop
 endfacet
 facet normal 0.43521865688776018 -0.89944180059765511 0.039864370488722579
  outer loop
   vertex -0.091591000556945801 -0.050184998661279678 -0.089785002171993256
   vertex -0.088044002652168274 -0.0489329993724823 -0.10026100277900696
   vertex -0.072428002953529358 -0.040380001068115234 -0.077771000564098358
  endloop
 endfacet
 facet normal 0.82634587322609598 -0.51937700172137602 0.21771547461105042
  outer loop
   vertex -0.097661003470420837 -0.060940001159906387 -0.092403002083301544
   vertex -0.088044002652168274 -0.0489329993724823 -0.10026100277900696
   vertex -0.091591000556945801 -0.050184998661279678 -0.089785002171993256
  endloop
 endfacet
 facet normal 0.13282685811094058 -0.36231762727011368 -0.92254157778049828
  outer loop
   vertex -0.071624003350734711 -0.058301001787185669 -0.055727001279592514
   vertex -0.075724996626377106 -0.050801001489162445 -0.059262998402118683
   vertex -0.067025996744632721 -0.053924001753330231 -0.056784000247716904
  endloop
 endfacet
 facet normal -0.067025820401335048 -0.66804289650630622 -0.74109798800630444
  outer loop
   vertex -0.065351001918315887 -0.049490001052618027 -0.061383001506328583
   vertex -0.075724996626377106 -0.050801001489162445 -0.059262998402118683
   vertex -0.070202000439167023 -0.04483100026845932 -0.065144002437591553
  endloop
 endfacet
 facet normal 0.87964574660003458 -0.35196388574641502 -0.31991371277072883
  outer loop
   vertex -0.085142001509666443 -0.053865000605583191 -0.060240000486373901
   vertex -0.089861996471881866 -0.054216999560594559 -0.072830997407436371
   vertex -0.084509000182151794 -0.04830000177025795 -0.064621999859809875
  endloop
 endfacet
 facet normal -0.5628454721736883 -0.33204011198015942 -0.75693747330263761
  outer loop
   vertex -0.018107000738382339 0.019491000100970268 -0.13293500244617462
   vertex -0.028266999870538712 -0.0096640000119805336 -0.11259099841117859
   vertex -0.045060999691486359 0.043864000588655472 -0.12358400225639343
  endloop
 endfacet
 facet normal -0.35351954542744984 -0.29333233500227412 -0.88824550223622456
  outer loop
   vertex -0.045060999691486359 0.043864000588655472 -0.12358400225639343
   vertex -0.028266999870538712 -0.0096640000119805336 -0.11259099841117859
   vertex -0.063047997653484344 -0.0065700002014636993 -0.099770002067089081
  endloop
 endfacet
 facet normal -0.46061492272052845 -0.39435410203129473 -0.79518471764631693
  outer loop
   vertex -0.028266999870538712 -0.0096640000119805336 -0.11259099841117859
   vertex -0.018107000738382339 0.019491000100970268 -0.13293500244617462
   vertex -0.008839000016450882 -0.013895999640226364 -0.1217460036277771
  endloop
 endfacet
 facet normal 0.13693479343376319 -0.28038519252895472 -0.95007000066192671
  outer loop
   vertex -0.008839000016450882 -0.013895999640226364 -0.1217460036277771
   vertex -0.018107000738382339 0.019491000100970268 -0.13293500244617462
   vertex -0.0010730000212788582 0.011409999802708626 -0.12809500098228455
  endloop
 endfacet
 facet normal 0.26807034394714935 -0.01190296752485495 -0.96332580680689717
  outer loop
   vertex -0.016222000122070312 0.038472998887300491 -0.13264499604701996
   vertex -0.0010730000212788582 0.011409999802708626 -0.12809500098228455
   vertex -0.018107000738382339 0.019491000100970268 -0.13293500244617462
  endloop
 endfacet
 facet normal 0.0049995586644329838 0.014779630450269086 -0.99987827606009838
  outer loop
   vertex -0.016222000122070312 0.038472998887300491 -0.13264499604701996
   vertex -0.018107000738382339 0.019491000100970268 -0.13293500244617462
   vertex -0.042118001729249954 0.051224000751972198 -0.13258600234985352
  endloop
 endfacet
 facet normal -0.64080568261092141 -0.47826560172306964 -0.60052484656508698
  outer loop
   vertex -0.018107000738382339 0.019491000100970268 -0.13293500244617462
   vertex -0.045060999691486359 0.043864000588655472 -0.12358400225639343
   vertex -0.042118001729249954 0.051224000751972198 -0.13258600234985352
  endloop
 endfacet
 facet normal 0.25885253533287905 0.52944123141432264 -0.80789067789536129
  outer loop
   vertex -0.042674999684095383 0.072013996541500092 -0.11913999915122986
   vertex -0.016222000122070312 0.038472998887300491 -0.13264499604701996
   vertex -0.042118001729249954 0.051224000751972198 -0.13258600234985352
  endloop
 endfacet
 facet normal -0.78099574353577939 -0.097656591856543157 -0.61685398486672649
  outer loop
   vertex -0.045060999691486359 0.043864000588655472 -0.12358400225639343
   vertex -0.077514000236988068 0.027033999562263489 -0.079830996692180634
   vertex -0.065829001367092133 0.083021998405456543 -0.10348899662494659
  endloop
 endfacet
 facet normal -0.85993682625969059 -0.21964839922929649 -0.4607203441985368
  outer loop
   vertex -0.045060999691486359 0.043864000588655472 -0.12358400225639343
   vertex -0.065829001367092133 0.083021998405456543 -0.10348899662494659
   vertex -0.042118001729249954 0.051224000751972198 -0.13258600234985352
  endloop
 endfacet
 facet normal -0.3002889126670667 0.5123214598526864 -0.80458268108606656
  outer loop
   vertex -0.042674999684095383 0.072013996541500092 -0.11913999915122986
   vertex -0.042118001729249954 0.051224000751972198 -0.13258600234985352
   vertex -0.065829001367092133 0.083021998405456543 -0.10348899662494659
  endloop
 endfacet
 facet normal -0.34990156322087457 0.43992833299227901 -0.82706224547262641
  outer loop
   vertex -0.063703998923301697 0.089930996298789978 -0.10071299970149994
   vertex -0.042674999684095383 0.072013996541500092 -0.11913999915122986
   vertex -0.065829001367092133 0.083021998405456543 -0.10348899662494659
  endloop
 endfacet
 facet normal -0.48037261310753299 0.62152760299406384 -0.61882597819798568
  outer loop
   vertex -0.086810000240802765 0.093832001090049744 -0.076344996690750122
   vertex -0.065829001367092133 0.083021998405456543 -0.10348899662494659
   vertex -0.10511799901723862 0.082413002848625183 -0.073601998388767242
  endloop
 endfacet
 facet normal -0.51779824880417502 -0.50442815834723498 -0.69096831085205812
  outer loop
   vertex -0.065829001367092133 0.083021998405456543 -0.10348899662494659
   vertex -0.097580000758171082 0.072126001119613647 -0.071740999817848206
   vertex -0.10511799901723862 0.082413002848625183 -0.073601998388767242
  endloop
 endfacet
 facet normal -0.61108359997863049 0.44969036809148355 -0.65142567241620364
  outer loop
   vertex -0.063703998923301697 0.089930996298789978 -0.10071299970149994
   vertex -0.065829001367092133 0.083021998405456543 -0.10348899662494659
   vertex -0.086810000240802765 0.093832001090049744 -0.076344996690750122
  endloop
 endfacet
 facet normal -0.18572778683967547 0.092851422373948111 -0.97820437668146354
  outer loop
   vertex -0.077514000236988068 0.027033999562263489 -0.079830996692180634
   vertex -0.12706400454044342 0.049844000488519669 -0.068258002400398254
   vertex -0.097580000758171082 0.072126001119613647 -0.071740999817848206
  endloop
 endfacet
 facet normal -0.66787296546438013 -0.1670814081125496 -0.72527891535942401
  outer loop
   vertex -0.077514000236988068 0.027033999562263489 -0.079830996692180634
   vertex -0.097580000758171082 0.072126001119613647 -0.071740999817848206
   vertex -0.065829001367092133 0.083021998405456543 -0.10348899662494659
  endloop
 endfacet
 facet normal -0.80431871803497756 0.006302117838623166 -0.59416469360718349
  outer loop
   vertex -0.077514000236988068 0.027033999562263489 -0.079830996692180634
   vertex -0.045060999691486359 0.043864000588655472 -0.12358400225639343
   vertex -0.063047997653484344 -0.0065700002014636993 -0.099770002067089081
  endloop
 endfacet
 facet normal -0.54145773409538245 0.24424356786888862 -0.80446789975919464
  outer loop
   vertex -0.077514000236988068 0.027033999562263489 -0.079830996692180634
   vertex -0.063047997653484344 -0.0065700002014636993 -0.099770002067089081
   vertex -0.10192500054836273 -0.0055379997938871384 -0.07328999787569046
  endloop
 endfacet
 facet normal -0.2355217506878233 -0.018620474281522928 -0.97169068272288894
  outer loop
   vertex -0.12706400454044342 0.049844000488519669 -0.068258002400398254
   vertex -0.077514000236988068 0.027033999562263489 -0.079830996692180634
   vertex -0.10192500054836273 -0.0055379997938871384 -0.07328999787569046
  endloop
 endfacet
 facet normal -0.62385666615917101 -0.010188229207409371 -0.7814723668015281
  outer loop
   vertex -0.12706400454044342 0.049844000488519669 -0.068258002400398254
   vertex -0.13218900561332703 0.020569000393152237 -0.063785001635551453
   vertex -0.14004500210285187 0.0478379987180233 -0.057868998497724533
  endloop
 endfacet
 facet normal -0.86826391873972442 -0.48607814365131707 -0.099226033273666997
  outer loop
   vertex -0.14275600016117096 0.037852998822927475 -0.05598900094628334
   vertex -0.13218900561332703 0.020569000393152237 -0.063785001635551453
   vertex -0.1357090026140213 0.025433000177145004 -0.056811001151800156
  endloop
 endfacet
 facet normal -0.74624649761693829 -0.38759583056062386 -0.54118909535066673
  outer loop
   vertex -0.14275600016117096 0.037852998822927475 -0.05598900094628334
   vertex -0.1357090026140213 0.025433000177145004 -0.056811001151800156
   vertex -0.14028300344944 0.027056999504566193 -0.051667001098394394
  endloop
 endfacet
 facet normal -0.58650085046323908 0.0067455254106314659 -0.80992052097278766
  outer loop
   vertex -0.14004500210285187 0.0478379987180233 -0.057868998497724533
   vertex -0.13218900561332703 0.020569000393152237 -0.063785001635551453
   vertex -0.14275600016117096 0.037852998822927475 -0.05598900094628334
  endloop
 endfacet
 facet normal -0.64952503703480657 0.32487333391438378 -0.68744057428717897
  outer loop
   vertex -0.10511799901723862 0.082413002848625183 -0.073601998388767242
   vertex -0.12706400454044342 0.049844000488519669 -0.068258002400398254
   vertex -0.12183099985122681 0.074796997010707855 -0.061409998685121536
  endloop
 endfacet
 facet normal 0.011787611629755826 -0.16963550075701697 -0.9854363749603432
  outer loop
   vertex -0.097580000758171082 0.072126001119613647 -0.071740999817848206
   vertex -0.12706400454044342 0.049844000488519669 -0.068258002400398254
   vertex -0.10511799901723862 0.082413002848625183 -0.073601998388767242
  endloop
 endfacet
 facet normal -0.62092701020513041 0.32586916064418275 -0.71292281359118648
  outer loop
   vertex -0.12706400454044342 0.049844000488519669 -0.068258002400398254
   vertex -0.14004500210285187 0.0478379987180233 -0.057868998497724533
   vertex -0.12183099985122681 0.074796997010707855 -0.061409998685121536
  endloop
 endfacet
 facet normal -0.9178999590544068 -0.12364650084715297 -0.37705597461938334
  outer loop
   vertex -0.1357090026140213 0.025433000177145004 -0.056811001151800156
   vertex -0.13218900561332703 0.020569000393152237 -0.063785001635551453
   vertex -0.13409499824047089 0.010596999898552895 -0.055874999612569809
  endloop
 endfacet
 facet normal -0.73134918292967421 -0.33253129036066287 -0.59544211604417974
  outer loop
   vertex -0.13218900561332703 0.020569000393152237 -0.063785001635551453
   vertex -0.12025900185108185 -0.0066880001686513424 -0.06321600079536438
   vertex -0.13409499824047089 0.010596999898552895 -0.055874999612569809
  endloop
 endfacet
 facet normal -0.55002901652581104 -0.087542391967305747 -0.83054464695661712
  outer loop
   vertex -0.13409499824047089 0.010596999898552895 -0.055874999612569809
   vertex -0.12025900185108185 -0.0066880001686513424 -0.06321600079536438
   vertex -0.13033899664878845 -0.00099099997896701097 -0.057140998542308807
  endloop
 endfacet
 facet normal -0.47070130401670357 -0.13443189171596565 -0.87199102569157305
  outer loop
   vertex -0.12706400454044342 0.049844000488519669 -0.068258002400398254
   vertex -0.10192500054836273 -0.0055379997938871384 -0.07328999787569046
   vertex -0.12025900185108185 -0.0066880001686513424 -0.06321600079536438
  endloop
 endfacet
 facet normal -0.20914496772283159 -0.11181963044625821 -0.97147040753853009
  outer loop
   vertex -0.12025900185108185 -0.0066880001686513424 -0.06321600079536438
   vertex -0.13218900561332703 0.020569000393152237 -0.063785001635551453
   vertex -0.12706400454044342 0.049844000488519669 -0.068258002400398254
  endloop
 endfacet
 facet normal 0.68423168411985025 0.36989814386451159 0.62849213647594893
  outer loop
   vertex -0.036015000194311142 -0.018197000026702881 -0.095127001404762268
   vertex -0.083711996674537659 0.011708999983966351 -0.060800999402999878
   vertex -0.058936998248100281 -0.031863000243902206 -0.062128998339176178
  endloop
 endfacet
 facet normal 0.6757009387111963 0.24588068184070491 0.69496110086993934
  outer loop
   vertex -0.045607000589370728 -0.037891000509262085 -0.078832998871803284
   vertex -0.029562000185251236 -0.031116999685764313 -0.096830002963542938
   vertex -0.036015000194311142 -0.018197000026702881 -0.095127001404762268
  endloop
 endfacet
 facet normal 0.79552914312476897 0.10609983261748518 0.59655360862014106
  outer loop
   vertex -0.058936998248100281 -0.031863000243902206 -0.062128998339176178
   vertex -0.045607000589370728 -0.037891000509262085 -0.078832998871803284
   vertex -0.036015000194311142 -0.018197000026702881 -0.095127001404762268
  endloop
 endfacet
 facet normal -0.31668198548474896 -0.20826919281609993 0.9253844948955906
  outer loop
   vertex -0.058936998248100281 -0.031863000243902206 -0.062128998339176178
   vertex -0.083711996674537659 0.011708999983966351 -0.060800999402999878
   vertex -0.095264002680778503 -0.012132000178098679 -0.070119999349117279
  endloop
 endfacet
 facet normal 0.43270142189379895 0.055886029824946996 0.89980344029209502
  outer loop
   vertex -0.083711996674537659 0.011708999983966351 -0.060800999402999878
   vertex -0.097171999514102936 0.024295000359416008 -0.05511000007390976
   vertex -0.10435900092124939 0.010080000385642052 -0.050771001726388931
  endloop
 endfacet
 facet normal 0.33764687143775218 -0.74609454286960708 0.57387936302718723
  outer loop
   vertex -0.12025900185108185 -0.0066880001686513424 -0.06321600079536438
   vertex -0.083711996674537659 0.011708999983966351 -0.060800999402999878
   vertex -0.10435900092124939 0.010080000385642052 -0.050771001726388931
  endloop
 endfacet
 facet normal 0.090279403993171262 -0.64732785168926765 0.75684627345452082
  outer loop
   vertex -0.13033899664878845 -0.00099099997896701097 -0.057140998542308807
   vertex -0.12025900185108185 -0.0066880001686513424 -0.06321600079536438
   vertex -0.10435900092124939 0.010080000385642052 -0.050771001726388931
  endloop
 endfacet
 facet normal -0.16236666471751698 -0.1774631538586397 0.97064097132310168
  outer loop
   vertex -0.13033899664878845 -0.00099099997896701097 -0.057140998542308807
   vertex -0.10435900092124939 0.010080000385642052 -0.050771001726388931
   vertex -0.13413999974727631 0.0095149995759129524 -0.055856000632047653
  endloop
 endfacet
 facet normal -0.21307435712803402 0.38219551380838179 0.89918068682507979
  outer loop
   vertex -0.097171999514102936 0.024295000359416008 -0.05511000007390976
   vertex -0.1188960000872612 0.021691000089049339 -0.059151001274585724
   vertex -0.10435900092124939 0.010080000385642052 -0.050771001726388931
  endloop
 endfacet
 facet normal -0.50155496842134906 -0.093169414162159653 0.86009422385953704
  outer loop
   vertex -0.095264002680778503 -0.012132000178098679 -0.070119999349117279
   vertex -0.083711996674537659 0.011708999983966351 -0.060800999402999878
   vertex -0.10192500054836273 -0.0055379997938871384 -0.07328999787569046
  endloop
 endfacet
 facet normal 0.34770585391470088 -0.76238760626531021 0.5457708099252826
  outer loop
   vertex -0.10192500054836273 -0.0055379997938871384 -0.07328999787569046
   vertex -0.083711996674537659 0.011708999983966351 -0.060800999402999878
   vertex -0.12025900185108185 -0.0066880001686513424 -0.06321600079536438
  endloop
 endfacet
 facet normal 0.78691508303999458 0.015223773966912605 0.61687347875424403
  outer loop
   vertex -0.082515999674797058 0.044380001723766327 -0.066275998950004578
   vertex -0.056938998401165009 0.031116999685764313 -0.098576001822948456
   vertex -0.068604998290538788 0.091886997222900391 -0.085193999111652374
  endloop
 endfacet
 facet normal 0.79605665089779054 0.071569867763591977 0.60097550914300579
  outer loop
   vertex -0.082515999674797058 0.044380001723766327 -0.066275998950004578
   vertex -0.083711996674537659 0.011708999983966351 -0.060800999402999878
   vertex -0.056938998401165009 0.031116999685764313 -0.098576001822948456
  endloop
 endfacet
 facet normal 0.60118288881670101 0.19822596596513306 0.77413538907041068
  outer loop
   vertex -0.023834999650716782 -0.0093000000342726707 -0.10686399787664413
   vertex -0.036015000194311142 -0.018197000026702881 -0.095127001404762268
   vertex -0.029562000185251236 -0.031116999685764313 -0.096830002963542938
  endloop
 endfacet
 facet normal 0.53389497433166744 -0.48979128993185456 0.68924643538452801
  outer loop
   vertex -0.023834999650716782 -0.0093000000342726707 -0.10686399787664413
   vertex -0.008839000016450882 -0.013895999640226364 -0.1217460036277771
   vertex 0 0 -0.11871799826622009
  endloop
 endfacet
 facet normal 0.83681692089614212 0.38913074103530199 0.38511648534335247
  outer loop
   vertex -0.0083659999072551727 0.022010000422596931 -0.1227789968252182
   vertex 0 0 -0.11871799826622009
   vertex -0.0011840000515803695 0.011483999900519848 -0.1277489960193634
  endloop
 endfacet
 facet normal 0.75206895234508941 -0.35776001904234589 -0.5535341540441564
  outer loop
   vertex -0.0011840000515803695 0.011483999900519848 -0.1277489960193634
   vertex 0 0 -0.11871799826622009
   vertex -0.008839000016450882 -0.013895999640226364 -0.1217460036277771
  endloop
 endfacet
 facet normal 0.67952079991704761 0.33400724015530553 0.6532156198407475
  outer loop
   vertex -0.036015000194311142 -0.018197000026702881 -0.095127001404762268
   vertex -0.056938998401165009 0.031116999685764313 -0.098576001822948456
   vertex -0.083711996674537659 0.011708999983966351 -0.060800999402999878
  endloop
 endfacet
 facet normal 0.54751052320862603 0.28727787229010182 0.78594125166470841
  outer loop
   vertex -0.023834999650716782 -0.0093000000342726707 -0.10686399787664413
   vertex -0.056938998401165009 0.031116999685764313 -0.098576001822948456
   vertex -0.036015000194311142 -0.018197000026702881 -0.095127001404762268
  endloop
 endfacet
 facet normal 0.39694070706454704 0.13907691556762292 0.90724621059076005
  outer loop
   vertex 0 0 -0.11871799826622009
   vertex -0.056938998401165009 0.031116999685764313 -0.098576001822948456
   vertex -0.023834999650716782 -0.0093000000342726707 -0.10686399787664413
  endloop
 endfacet
 facet normal 0.46922928522230256 0.25899981108319198 0.84424106495043105
  outer loop
   vertex -0.026130000129342079 0.04682299867272377 -0.12051799893379211
   vertex -0.056938998401165009 0.031116999685764313 -0.098576001822948456
   vertex -0.0083659999072551727 0.022010000422596931 -0.1227789968252182
  endloop
 endfacet
 facet normal 0.59938475569379268 -0.060696244702338892 0.79815655138633446
  outer loop
   vertex -0.068604998290538788 0.091886997222900391 -0.085193999111652374
   vertex -0.056938998401165009 0.031116999685764313 -0.098576001822948456
   vertex -0.026130000129342079 0.04682299867272377 -0.12051799893379211
  endloop
 endfacet
 facet normal 0.84910034735426942 0.50259845756929222 0.16255273166522746
  outer loop
   vertex -0.016222000122070312 0.038472998887300491 -0.13264499604701996
   vertex -0.0083659999072551727 0.022010000422596931 -0.1227789968252182
   vertex -0.0011840000515803695 0.011483999900519848 -0.1277489960193634
  endloop
 endfacet
 facet normal 0.79355750408128423 0.54311685603945647 0.2743912688153522
  outer loop
   vertex -0.026130000129342079 0.04682299867272377 -0.12051799893379211
   vertex -0.0083659999072551727 0.022010000422596931 -0.1227789968252182
   vertex -0.016222000122070312 0.038472998887300491 -0.13264499604701996
  endloop
 endfacet
 facet normal 0.8036729103157173 0.51117306395136375 0.30465054064491631
  outer loop
   vertex -0.026130000129342079 0.04682299867272377 -0.12051799893379211
   vertex -0.016222000122070312 0.038472998887300491 -0.13264499604701996
   vertex -0.042674999684095383 0.072013996541500092 -0.11913999915122986
  endloop
 endfacet
 facet normal 0.80134584180727664 0.50913017697662566 0.31405621265935335
  outer loop
   vertex -0.068604998290538788 0.091886997222900391 -0.085193999111652374
   vertex -0.026130000129342079 0.04682299867272377 -0.12051799893379211
   vertex -0.042674999684095383 0.072013996541500092 -0.11913999915122986
  endloop
 endfacet
 facet normal 0.70915661453852363 0.69165598080872959 0.13678048204248336
  outer loop
   vertex -0.063703998923301697 0.089930996298789978 -0.10071299970149994
   vertex -0.068604998290538788 0.091886997222900391 -0.085193999111652374
   vertex -0.042674999684095383 0.072013996541500092 -0.11913999915122986
  endloop
 endfacet
 facet normal 0.88276532809859887 -0.073722004590708309 0.46399401024808568
  outer loop
   vertex -0.068604998290538788 0.091886997222900391 -0.085193999111652374
   vertex -0.084244996309280396 0.06599000096321106 -0.059553001075983047
   vertex -0.082515999674797058 0.044380001723766327 -0.066275998950004578
  endloop
 endfacet
 facet normal 0.36276464605710951 0.3622022272368044 0.85861013164052424
  outer loop
   vertex -0.099932998418807983 0.080170996487140656 -0.058906998485326767
   vertex -0.084244996309280396 0.06599000096321106 -0.059553001075983047
   vertex -0.080521002411842346 0.089270003139972687 -0.07094699889421463
  endloop
 endfacet
 facet normal 0.4512052839855461 -0.23199147743438189 0.86173879226905825
  outer loop
   vertex -0.082515999674797058 0.044380001723766327 -0.066275998950004578
   vertex -0.084244996309280396 0.06599000096321106 -0.059553001075983047
   vertex -0.11078300327062607 0.041487999260425568 -0.052253998816013336
  endloop
 endfacet
 facet normal 0.42128186257512429 0.18606247654474606 0.88763863541830457
  outer loop
   vertex -0.082515999674797058 0.044380001723766327 -0.066275998950004578
   vertex -0.11078300327062607 0.041487999260425568 -0.052253998816013336
   vertex -0.097171999514102936 0.024295000359416008 -0.05511000007390976
  endloop
 endfacet
 facet normal -0.1443242388832105 -0.2722853146621052 0.95133128903139752
  outer loop
   vertex -0.11078300327062607 0.041487999260425568 -0.052253998816013336
   vertex -0.1188960000872612 0.021691000089049339 -0.059151001274585724
   vertex -0.097171999514102936 0.024295000359416008 -0.05511000007390976
  endloop
 endfacet
 facet normal -0.48070612436283372 -0.21004857967450136 0.85135258041353734
  outer loop
   vertex -0.13044199347496033 0.036093000322580338 -0.043880999088287354
   vertex -0.1425669938325882 0.036860000342130661 -0.050537999719381332
   vertex -0.14028300344944 0.027056999504566193 -0.051667001098394394
  endloop
 endfacet
 facet normal -0.95037214261908676 0.29129682125070328 0.10926551360261021
  outer loop
   vertex -0.14004500210285187 0.0478379987180233 -0.057868998497724533
   vertex -0.1425669938325882 0.036860000342130661 -0.050537999719381332
   vertex -0.13776400685310364 0.052955001592636108 -0.051670998334884644
  endloop
 endfacet
 facet normal -0.46198130702923906 0.19870701205366401 0.86434298476719351
  outer loop
   vertex -0.13044199347496033 0.036093000322580338 -0.043880999088287354
   vertex -0.13776400685310364 0.052955001592636108 -0.051670998334884644
   vertex -0.1425669938325882 0.036860000342130661 -0.050537999719381332
  endloop
 endfacet
 facet normal 0.4516786867061745 -0.45289959088273252 0.76867959811200859
  outer loop
   vertex -0.13044199347496033 0.036093000322580338 -0.043880999088287354
   vertex -0.1188960000872612 0.021691000089049339 -0.059151001274585724
   vertex -0.11078300327062607 0.041487999260425568 -0.052253998816013336
  endloop
 endfacet
 facet normal -0.062205528756229443 -0.74912233177447984 0.65950451418388656
  outer loop
   vertex -0.13577699661254883 0.02518099918961525 -0.056779000908136368
   vertex -0.1188960000872612 0.021691000089049339 -0.059151001274585724
   vertex -0.13044199347496033 0.036093000322580338 -0.043880999088287354
  endloop
 endfacet
 facet normal 0.29087518144020946 -0.78637774821111051 0.54497859218555411
  outer loop
   vertex -0.13044199347496033 0.036093000322580338 -0.043880999088287354
   vertex -0.14028300344944 0.027056999504566193 -0.051667001098394394
   vertex -0.13577699661254883 0.02518099918961525 -0.056779000908136368
  endloop
 endfacet
 facet normal -0.29087518144020946 0.78637774821111051 -0.54497859218555411
  outer loop
   vertex -0.13577699661254883 0.02518099918961525 -0.056779000908136368
   vertex -0.14028300344944 0.027056999504566193 -0.051667001098394394
   vertex -0.13044199347496033 0.036093000322580338 -0.043880999088287354
  endloop
 endfacet
 facet normal 0.1537744934311602 0.074121082779342512 0.98532201348473281
  outer loop
   vertex -0.13577699661254883 0.02518099918961525 -0.056779000908136368
   vertex -0.13413999974727631 0.0095149995759129524 -0.055856000632047653
   vertex -0.1188960000872612 0.021691000089049339 -0.059151001274585724
  endloop
 endfacet
 facet normal -0.55806595272459036 0.78247509519593528 -0.27621570883587954
  outer loop
   vertex -0.10511799901723862 0.082413002848625183 -0.073601998388767242
   vertex -0.12183099985122681 0.074796997010707855 -0.061409998685121536
   vertex -0.10118400305509567 0.087329000234603882 -0.067624002695083618
  endloop
 endfacet
 facet normal -0.25176496104845547 0.72990414077117938 0.63549535771188481
  outer loop
   vertex -0.12183099985122681 0.074796997010707855 -0.061409998685121536
   vertex -0.099932998418807983 0.080170996487140656 -0.058906998485326767
   vertex -0.10118400305509567 0.087329000234603882 -0.067624002695083618
  endloop
 endfacet
 facet normal 0.027542107679992742 0.77907297216171512 0.62632797826031616
  outer loop
   vertex -0.10118400305509567 0.087329000234603882 -0.067624002695083618
   vertex -0.080521002411842346 0.089270003139972687 -0.07094699889421463
   vertex -0.086810000240802765 0.093832001090049744 -0.076344996690750122
  endloop
 endfacet
 facet normal -0.53702698168767338 0.78987348041213989 -0.29614507573322951
  outer loop
   vertex -0.10511799901723862 0.082413002848625183 -0.073601998388767242
   vertex -0.10118400305509567 0.087329000234603882 -0.067624002695083618
   vertex -0.086810000240802765 0.093832001090049744 -0.076344996690750122
  endloop
 endfacet
 facet normal 0.053445374811244721 0.99268721518982073 -0.10823901657888405
  outer loop
   vertex -0.086810000240802765 0.093832001090049744 -0.076344996690750122
   vertex -0.068604998290538788 0.091886997222900391 -0.085193999111652374
   vertex -0.063703998923301697 0.089930996298789978 -0.10071299970149994
  endloop
 endfacet
 facet normal 0.28754793300664633 0.87008935201275728 0.40032574953108552
  outer loop
   vertex -0.068604998290538788 0.091886997222900391 -0.085193999111652374
   vertex -0.086810000240802765 0.093832001090049744 -0.076344996690750122
   vertex -0.080521002411842346 0.089270003139972687 -0.07094699889421463
  endloop
 endfacet
 facet normal -0.82877312068011999 0.54129843619094609 -0.14188416900898937
  outer loop
   vertex -0.12183099985122681 0.074796997010707855 -0.061409998685121536
   vertex -0.14004500210285187 0.0478379987180233 -0.057868998497724533
   vertex -0.13776400685310364 0.052955001592636108 -0.051670998334884644
  endloop
 endfacet
 facet normal 0.2181215480408287 0.19776636085160501 0.95567330024218278
  outer loop
   vertex -0.12133000046014786 0.055185999721288681 -0.04885299876332283
   vertex -0.084244996309280396 0.06599000096321106 -0.059553001075983047
   vertex -0.099932998418807983 0.080170996487140656 -0.058906998485326767
  endloop
 endfacet
 facet normal 0.28265989588219559 -0.020466646169053148 0.95900182463562456
  outer loop
   vertex -0.084244996309280396 0.06599000096321106 -0.059553001075983047
   vertex -0.12133000046014786 0.055185999721288681 -0.04885299876332283
   vertex -0.11078300327062607 0.041487999260425568 -0.052253998816013336
  endloop
 endfacet
 facet normal -0.21253724944932237 0.5230587552621192 0.82537110207479336
  outer loop
   vertex -0.12183099985122681 0.074796997010707855 -0.061409998685121536
   vertex -0.13776400685310364 0.052955001592636108 -0.051670998334884644
   vertex -0.12133000046014786 0.055185999721288681 -0.04885299876332283
  endloop
 endfacet
 facet normal -0.20334470065718255 0.33648414525339798 0.91947232296993642
  outer loop
   vertex -0.12133000046014786 0.055185999721288681 -0.04885299876332283
   vertex -0.13776400685310364 0.052955001592636108 -0.051670998334884644
   vertex -0.13044199347496033 0.036093000322580338 -0.043880999088287354
  endloop
 endfacet
 facet normal -0.15932473979848827 0.43878857793157855 0.88435299013738111
  outer loop
   vertex -0.10435900092124939 0.010080000385642052 -0.050771001726388931
   vertex -0.1188960000872612 0.021691000089049339 -0.059151001274585724
   vertex -0.13413999974727631 0.0095149995759129524 -0.055856000632047653
  endloop
 endfacet
 facet normal 0.37696285099236837 0.060776182486040296 0.92423225685653765
  outer loop
   vertex -0.11078300327062607 0.041487999260425568 -0.052253998816013336
   vertex -0.12133000046014786 0.055185999721288681 -0.04885299876332283
   vertex -0.13044199347496033 0.036093000322580338 -0.043880999088287354
  endloop
 endfacet
 facet normal 0.48484589598424549 0.12725655145930093 0.86529198959537368
  outer loop
   vertex -0.083711996674537659 0.011708999983966351 -0.060800999402999878
   vertex -0.082515999674797058 0.044380001723766327 -0.066275998950004578
   vertex -0.097171999514102936 0.024295000359416008 -0.05511000007390976
  endloop
 endfacet
 facet normal 0.73296653655811905 0.20085149969693256 0.6499374826515919
  outer loop
   vertex -0.080521002411842346 0.089270003139972687 -0.07094699889421463
   vertex -0.084244996309280396 0.06599000096321106 -0.059553001075983047
   vertex -0.068604998290538788 0.091886997222900391 -0.085193999111652374
  endloop
 endfacet
 facet normal 0.02885980923936456 0.77453573469389736 0.63187143240761556
  outer loop
   vertex -0.099932998418807983 0.080170996487140656 -0.058906998485326767
   vertex -0.080521002411842346 0.089270003139972687 -0.07094699889421463
   vertex -0.10118400305509567 0.087329000234603882 -0.067624002695083618
  endloop
 endfacet
 facet normal 0.46984264134384451 0.32967591899852039 0.81887830647021076
  outer loop
   vertex -0.056938998401165009 0.031116999685764313 -0.098576001822948456
   vertex 0 0 -0.11871799826622009
   vertex -0.0083659999072551727 0.022010000422596931 -0.1227789968252182
  endloop
 endfacet
 facet normal -0.47392132292231859 0.75732891936043734 0.44927885280737573
  outer loop
   vertex -0.096303001046180725 -0.10280700027942657 -0.040325000882148743
   vertex -0.10671199858188629 -0.11179099977016449 -0.036161001771688461
   vertex -0.065047003328800201 -0.095889002084732056 -0.019015999510884285
  endloop
 endfacet
 facet normal 0.088443032081006845 0.3427458244554748 0.93525564948555906
  outer loop
   vertex -0.025062000378966331 -0.079029001295566559 -0.0022209999151527882
   vertex -0.026301000267267227 -0.071630999445915222 -0.0048150001093745232
   vertex -0.046877998858690262 -0.072892002761363983 -0.0024069999344646931
  endloop
 endfacet
 facet normal 0.020426226840586741 0.1027530021527496 0.99449715424713703
  outer loop
   vertex -0.025062000378966331 -0.079029001295566559 -0.0022209999151527882
   vertex -0.046877998858690262 -0.072892002761363983 -0.0024069999344646931
   vertex -0.055663000792264938 -0.097838997840881348 0.00035099999513477087
  endloop
 endfacet
 facet normal -0.09720393830395202 0.14311735897431277 0.98492071555959215
  outer loop
   vertex -0.055378999561071396 -0.082850001752376556 -0.0017989999614655972
   vertex -0.055663000792264938 -0.097838997840881348 0.00035099999513477087
   vertex -0.046877998858690262 -0.072892002761363983 -0.0024069999344646931
  endloop
 endfacet
 facet normal -0.724164990842187 0.51749836747407474 0.45582946997775647
  outer loop
   vertex -0.055601000785827637 -0.064625002443790436 -0.037257999181747437
   vertex -0.062757000327110291 -0.090507000684738159 -0.019243000075221062
   vertex -0.055663000792264938 -0.097838997840881348 0.00035099999513477087
  endloop
 endfacet
 facet normal -0.99962153080314653 0.021416764902524626 0.017266074709787124
  outer loop
   vertex -0.055601000785827637 -0.064625002443790436 -0.037257999181747437
   vertex -0.055663000792264938 -0.097838997840881348 0.00035099999513477087
   vertex -0.055378999561071396 -0.082850001752376556 -0.0017989999614655972
  endloop
 endfacet
 facet normal -0.70913828861950867 0.6252742377438798 0.32581438769275478
  outer loop
   vertex -0.055378999561071396 -0.082850001752376556 -0.0017989999614655972
   vertex -0.046877998858690262 -0.072892002761363983 -0.0024069999344646931
   vertex -0.055601000785827637 -0.064625002443790436 -0.037257999181747437
  endloop
 endfacet
 facet normal -0.33851867329420987 -0.50128871714571932 0.7963132109249017
  outer loop
   vertex -0.092128999531269073 -0.12087000161409378 -0.035677000880241394
   vertex -0.072770997881889343 -0.11734700202941895 -0.025229999795556068
   vertex -0.10671199858188629 -0.11179099977016449 -0.036161001771688461
  endloop
 endfacet
 facet normal -0.52248246871030513 -0.24607485219332784 -0.8163695468404103
  outer loop
   vertex -0.1191909983754158 -0.10148999840021133 -0.069475002586841583
   vertex -0.13573800027370453 -0.096931003034114838 -0.060258999466896057
   vertex -0.13181799650192261 -0.075843997299671173 -0.069123998284339905
  endloop
 endfacet
 facet normal -0.97660288464280598 0.10194319887494838 -0.18935255453912747
  outer loop
   vertex -0.13181799650192261 -0.075843997299671173 -0.069123998284339905
   vertex -0.13573800027370453 -0.096931003034114838 -0.060258999466896057
   vertex -0.13561099767684937 -0.084397003054618835 -0.054166000336408615
  endloop
 endfacet
 facet normal -0.69610937129220507 -0.30816223186687713 0.64843487109346287
  outer loop
   vertex -0.13561099767684937 -0.084397003054618835 -0.054166000336408615
   vertex -0.13573800027370453 -0.096931003034114838 -0.060258999466896057
   vertex -0.10671199858188629 -0.11179099977016449 -0.036161001771688461
  endloop
 endfacet
 facet normal -0.075996855531593535 0.49043426376895233 0.86815822916719254
  outer loop
   vertex -0.096303001046180725 -0.10280700027942657 -0.040325000882148743
   vertex -0.13561099767684937 -0.084397003054618835 -0.054166000336408615
   vertex -0.10671199858188629 -0.11179099977016449 -0.036161001771688461
  endloop
 endfacet
 facet normal 0.025250533741669155 0.63462489087974516 0.77240770220242649
  outer loop
   vertex -0.096303001046180725 -0.10280700027942657 -0.040325000882148743
   vertex -0.09889800101518631 -0.090769998729228973 -0.050129998475313187
   vertex -0.13561099767684937 -0.084397003054618835 -0.054166000336408615
  endloop
 endfacet
 facet normal -0.6721346312159916 -0.59225915816198815 0.44436935885971712
  outer loop
   vertex -0.11430799961090088 -0.11507699638605118 -0.05203000083565712
   vertex -0.10671199858188629 -0.11179099977016449 -0.036161001771688461
   vertex -0.13573800027370453 -0.096931003034114838 -0.060258999466896057
  endloop
 endfacet
 facet normal -0.46451783229202182 -0.75698830319393962 -0.45955619059074954
  outer loop
   vertex -0.1191909983754158 -0.10148999840021133 -0.069475002586841583
   vertex -0.11430799961090088 -0.11507699638605118 -0.05203000083565712
   vertex -0.13573800027370453 -0.096931003034114838 -0.060258999466896057
  endloop
 endfacet
 facet normal -0.047550031043859145 0.21496118294074198 -0.97546434295490525
  outer loop
   vertex -0.11174599826335907 -0.086623996496200562 -0.072477996349334717
   vertex -0.13181799650192261 -0.075843997299671173 -0.069123998284339905
   vertex -0.11836200207471848 -0.066696003079414368 -0.067763999104499817
  endloop
 endfacet
 facet normal -0.52869242656287108 0.81362366993386837 -0.24186947268807385
  outer loop
   vertex -0.13181799650192261 -0.075843997299671173 -0.069123998284339905
   vertex -0.12694400548934937 -0.070427998900413513 -0.061558999121189117
   vertex -0.11836200207471848 -0.066696003079414368 -0.067763999104499817
  endloop
 endfacet
 facet normal -0.48060849612945911 0.54964619993322639 -0.68330412580866484
  outer loop
   vertex -0.12535299360752106 -0.054405000060796738 -0.052960000932216644
   vertex -0.11085499823093414 -0.059932999312877655 -0.067603997886180878
   vertex -0.11836200207471848 -0.066696003079414368 -0.067763999104499817
  endloop
 endfacet
 facet normal 0.20887482819056002 0.23652098816423259 0.9489094415728927
  outer loop
   vertex -0.095264002680778503 -0.012132000178098679 -0.070119999349117279
   vertex -0.12535299360752106 -0.054405000060796738 -0.052960000932216644
   vertex -0.089372999966144562 -0.030293000862002373 -0.06689000129699707
  endloop
 endfacet
 facet normal -0.14360321984479521 0.18241298152821173 -0.97267857970667571
  outer loop
   vertex -0.11085499823093414 -0.059932999312877655 -0.067603997886180878
   vertex -0.11174599826335907 -0.086623996496200562 -0.072477996349334717
   vertex -0.11836200207471848 -0.066696003079414368 -0.067763999104499817
  endloop
 endfacet
 facet normal -0.056395387936591622 0.18117345147237307 -0.98183284763806367
  outer loop
   vertex -0.10255700349807739 -0.079411998391151428 -0.071675002574920654
   vertex -0.11174599826335907 -0.086623996496200562 -0.072477996349334717
   vertex -0.11085499823093414 -0.059932999312877655 -0.067603997886180878
  endloop
 endfacet
 facet normal -0.84795492700357222 -0.26532141959226663 -0.45888668108358821
  outer loop
   vertex -0.10255700349807739 -0.079411998391151428 -0.071675002574920654
   vertex -0.11085499823093414 -0.059932999312877655 -0.067603997886180878
   vertex -0.10534399747848511 -0.063814997673034668 -0.075543001294136047
  endloop
 endfacet
 facet normal -0.26584513533452658 -0.43522958846229526 0.86017531314605189
  outer loop
   vertex -0.12535299360752106 -0.054405000060796738 -0.052960000932216644
   vertex -0.12694400548934937 -0.070427998900413513 -0.061558999121189117
   vertex -0.080788001418113708 -0.075603999197483063 -0.04991300031542778
  endloop
 endfacet
 facet normal -0.79728492289395847 -0.41875059779260754 -0.43472369221645657
  outer loop
   vertex -0.094783999025821686 -0.078564003109931946 -0.080702997744083405
   vertex -0.10534399747848511 -0.063814997673034668 -0.075543001294136047
   vertex -0.097661003470420837 -0.060940001159906387 -0.092403002083301544
  endloop
 endfacet
 facet normal -0.91155550550471476 0.032036191258466122 -0.40992711892932271
  outer loop
   vertex -0.097661003470420837 -0.060940001159906387 -0.092403002083301544
   vertex -0.10534399747848511 -0.063814997673034668 -0.075543001294136047
   vertex -0.10096900165081024 -0.048285000026226044 -0.084058001637458801
  endloop
 endfacet
 facet normal 0.11149821733273273 0.3671264583008263 0.92346429879401104
  outer loop
   vertex -0.12535299360752106 -0.054405000060796738 -0.052960000932216644
   vertex -0.080788001418113708 -0.075603999197483063 -0.04991300031542778
   vertex -0.089372999966144562 -0.030293000862002373 -0.06689000129699707
  endloop
 endfacet
 facet normal 0.066212452232785143 0.084236696084638824 0.99424347631858534
  outer loop
   vertex -0.062492001801729202 -0.055190000683069229 -0.052861001342535019
   vertex -0.080788001418113708 -0.075603999197483063 -0.04991300031542778
   vertex -0.054641000926494598 -0.074427001178264618 -0.051754001528024673
  endloop
 endfacet
 facet normal -0.81132140643937545 -0.30232304742211397 0.50035822212754744
  outer loop
   vertex -0.052625000476837158 -0.067426003515720367 -0.044254999607801437
   vertex -0.062492001801729202 -0.055190000683069229 -0.052861001342535019
   vertex -0.054641000926494598 -0.074427001178264618 -0.051754001528024673
  endloop
 endfacet
 facet normal -0.75580623280947401 -0.65199819218169697 -0.060459042649963782
  outer loop
   vertex -0.055601000785827637 -0.064625002443790436 -0.037257999181747437
   vertex -0.062492001801729202 -0.055190000683069229 -0.052861001342535019
   vertex -0.052625000476837158 -0.067426003515720367 -0.044254999607801437
  endloop
 endfacet
 facet normal 0.0070518333537040049 -0.47927786358198365 -0.87763489055907573
  outer loop
   vertex -0.041877001523971558 -0.045942001044750214 -0.088832996785640717
   vertex -0.059916000813245773 -0.027589999139308929 -0.098999999463558197
   vertex -0.029562000185251236 -0.031116999685764313 -0.096830002963542938
  endloop
 endfacet
 facet normal 0.015883011329756985 -0.42122856427438804 -0.90681543138084975
  outer loop
   vertex -0.029562000185251236 -0.031116999685764313 -0.096830002963542938
   vertex -0.059916000813245773 -0.027589999139308929 -0.098999999463558197
   vertex -0.023834999650716782 -0.0093000000342726707 -0.10686399787664413
  endloop
 endfacet
 facet normal -0.18191428816347782 -0.063051927603763602 -0.98129080612600517
  outer loop
   vertex -0.023834999650716782 -0.0093000000342726707 -0.10686399787664413
   vertex -0.059916000813245773 -0.027589999139308929 -0.098999999463558197
   vertex -0.063047997653484344 -0.0065700002014636993 -0.099770002067089081
  endloop
 endfacet
 facet normal -0.21293146516310885 -0.067433446851737147 -0.97473736021001367
  outer loop
   vertex -0.063047997653484344 -0.0065700002014636993 -0.099770002067089081
   vertex -0.059916000813245773 -0.027589999139308929 -0.098999999463558197
   vertex -0.088157996535301208 -0.031197000294923782 -0.092580996453762054
  endloop
 endfacet
 facet normal 0.46876843679455127 -0.028334396817359012 -0.88286653273424576
  outer loop
   vertex -0.041877001523971558 -0.045942001044750214 -0.088832996785640717
   vertex -0.07133299857378006 -0.042764000594615936 -0.10457500070333481
   vertex -0.059916000813245773 -0.027589999139308929 -0.098999999463558197
  endloop
 endfacet
 facet normal -0.63896600271536552 0.4748331179523832 -0.60519084384148236
  outer loop
   vertex -0.095264002680778503 -0.012132000178098679 -0.070119999349117279
   vertex -0.063047997653484344 -0.0065700002014636993 -0.099770002067089081
   vertex -0.088157996535301208 -0.031197000294923782 -0.092580996453762054
  endloop
 endfacet
 facet normal -0.41507412348649009 -0.6991536882135061 -0.58214911514952383
  outer loop
   vertex -0.095264002680778503 -0.012132000178098679 -0.070119999349117279
   vertex -0.10192500054836273 -0.0055379997938871384 -0.07328999787569046
   vertex -0.063047997653484344 -0.0065700002014636993 -0.099770002067089081
  endloop
 endfacet
 facet normal -0.76080540914267969 0.20677578215578182 -0.61515762641221039
  outer loop
   vertex -0.088044002652168274 -0.0489329993724823 -0.10026100277900696
   vertex -0.097661003470420837 -0.060940001159906387 -0.092403002083301544
   vertex -0.10096900165081024 -0.048285000026226044 -0.084058001637458801
  endloop
 endfacet
 facet normal -0.75005639728703521 0.25874053030365629 -0.60866143205149437
  outer loop
   vertex -0.088044002652168274 -0.0489329993724823 -0.10026100277900696
   vertex -0.10096900165081024 -0.048285000026226044 -0.084058001637458801
   vertex -0.088157996535301208 -0.031197000294923782 -0.092580996453762054
  endloop
 endfacet
 facet normal -0.35770734357141143 0.36913469849145125 -0.85777912700456271
  outer loop
   vertex -0.07133299857378006 -0.042764000594615936 -0.10457500070333481
   vertex -0.088044002652168274 -0.0489329993724823 -0.10026100277900696
   vertex -0.088157996535301208 -0.031197000294923782 -0.092580996453762054
  endloop
 endfacet
 facet normal -0.78544009027466533 0.32662929655163303 -0.52573488301948434
  outer loop
   vertex -0.095264002680778503 -0.012132000178098679 -0.070119999349117279
   vertex -0.088157996535301208 -0.031197000294923782 -0.092580996453762054
   vertex -0.10096900165081024 -0.048285000026226044 -0.084058001637458801
  endloop
 endfacet
 facet normal -0.89757591269937309 0.27460419779280376 -0.34489130968532394
  outer loop
   vertex -0.11085499823093414 -0.059932999312877655 -0.067603997886180878
   vertex -0.095264002680778503 -0.012132000178098679 -0.070119999349117279
   vertex -0.10096900165081024 -0.048285000026226044 -0.084058001637458801
  endloop
 endfacet
 facet normal -0.097070679049356026 -0.9796648630448026 -0.17559623966447954
  outer loop
   vertex -0.084749996662139893 -0.081350997090339661 -0.070701003074645996
   vertex -0.10255700349807739 -0.079411998391151428 -0.071675002574920654
   vertex -0.094783999025821686 -0.078564003109931946 -0.080702997744083405
  endloop
 endfacet
 facet normal -0.014350538979768351 0.47466410123544001 0.88005002870822191
  outer loop
   vertex -0.12694400548934937 -0.070427998900413513 -0.061558999121189117
   vertex -0.13561099767684937 -0.084397003054618835 -0.054166000336408615
   vertex -0.09889800101518631 -0.090769998729228973 -0.050129998475313187
  endloop
 endfacet
 facet normal -0.21214866341703426 0.23977553986310363 0.94736510126440865
  outer loop
   vertex -0.12694400548934937 -0.070427998900413513 -0.061558999121189117
   vertex -0.09889800101518631 -0.090769998729228973 -0.050129998475313187
   vertex -0.080788001418113708 -0.075603999197483063 -0.04991300031542778
  endloop
 endfacet
 facet normal 0.52523006215711965 -0.85045323864071332 0.029371256220157942
  outer loop
   vertex -0.055663000792264938 -0.097838997840881348 0.00035099999513477087
   vertex -0.03156299889087677 -0.083549998700618744 -0.016874000430107117
   vertex -0.025062000378966331 -0.079029001295566559 -0.0022209999151527882
  endloop
 endfacet
 facet normal 0.99124787074807752 0.10954653813750345 0.0736696322747111
  outer loop
   vertex -0.041877001523971558 -0.045942001044750214 -0.088832996785640717
   vertex -0.043487001210451126 -0.047598998993635178 -0.064705997705459595
   vertex -0.041829999536275864 -0.06555899977684021 -0.060295000672340393
  endloop
 endfacet
 facet normal -0.038090890364298594 0.72550649428374925 0.68716039672216211
  outer loop
   vertex -0.02194100059568882 -0.075540997087955475 -0.023866999894380569
   vertex -0.043358001857995987 -0.059739001095294952 -0.041737999767065048
   vertex -0.055601000785827637 -0.064625002443790436 -0.037257999181747437
  endloop
 endfacet
 facet normal 0.34652972840514418 0.93134840071423253 -0.1118360577743073
  outer loop
   vertex -0.026301000267267227 -0.071630999445915222 -0.0048150001093745232
   vertex -0.02194100059568882 -0.075540997087955475 -0.023866999894380569
   vertex -0.055601000785827637 -0.064625002443790436 -0.037257999181747437
  endloop
 endfacet
 facet normal -0.031614982199911122 0.97070768733750168 0.23817447101731609
  outer loop
   vertex -0.046877998858690262 -0.072892002761363983 -0.0024069999344646931
   vertex -0.026301000267267227 -0.071630999445915222 -0.0048150001093745232
   vertex -0.055601000785827637 -0.064625002443790436 -0.037257999181747437
  endloop
 endfacet
 facet normal 0.055441235522107946 -0.81147520098263171 0.58175103574809373
  outer loop
   vertex -0.055663000792264938 -0.097838997840881348 0.00035099999513477087
   vertex -0.072770997881889343 -0.11734700202941895 -0.025229999795556068
   vertex -0.054177001118659973 -0.10202600061893463 -0.0056309998035430908
  endloop
 endfacet
 facet normal -0.32943027043818662 -0.63151101701875234 0.70190421875278985
  outer loop
   vertex -0.072770997881889343 -0.11734700202941895 -0.025229999795556068
   vertex -0.055663000792264938 -0.097838997840881348 0.00035099999513477087
   vertex -0.10671199858188629 -0.11179099977016449 -0.036161001771688461
  endloop
 endfacet
 facet normal 0.73230313356983701 -0.4225157076676212 -0.53405299113283378
  outer loop
   vertex -0.1191909983754158 -0.10148999840021133 -0.069475002586841583
   vertex -0.09889800101518631 -0.090769998729228973 -0.050129998475313187
   vertex -0.11430799961090088 -0.11507699638605118 -0.05203000083565712
  endloop
 endfacet
 facet normal 0.67134612768024038 -0.37567695957258934 -0.63887494777541687
  outer loop
   vertex -0.11430799961090088 -0.11507699638605118 -0.05203000083565712
   vertex -0.09889800101518631 -0.090769998729228973 -0.050129998475313187
   vertex -0.096303001046180725 -0.10280700027942657 -0.040325000882148743
  endloop
 endfacet
 facet normal 0.57898620779266374 -0.075119302535627028 -0.81186948555320848
  outer loop
   vertex -0.092128999531269073 -0.12087000161409378 -0.035677000880241394
   vertex -0.11430799961090088 -0.11507699638605118 -0.05203000083565712
   vertex -0.096303001046180725 -0.10280700027942657 -0.040325000882148743
  endloop
 endfacet
 facet normal 0.48749365875013179 -0.11022661785774951 -0.86614088080060725
  outer loop
   vertex -0.096303001046180725 -0.10280700027942657 -0.040325000882148743
   vertex -0.072770997881889343 -0.11734700202941895 -0.025229999795556068
   vertex -0.092128999531269073 -0.12087000161409378 -0.035677000880241394
  endloop
 endfacet
 facet normal 0.29538748240414092 -0.80462750713405962 -0.51509301102050697
  outer loop
   vertex -0.03156299889087677 -0.083549998700618744 -0.016874000430107117
   vertex -0.036276001483201981 -0.072748996317386627 -0.036449000239372253
   vertex -0.02194100059568882 -0.075540997087955475 -0.023866999894380569
  endloop
 endfacet
 facet normal 0.9754757309446328 0.030619183286964575 -0.21796688728537131
  outer loop
   vertex -0.041829999536275864 -0.06555899977684021 -0.060295000672340393
   vertex -0.036276001483201981 -0.072748996317386627 -0.036449000239372253
   vertex -0.03156299889087677 -0.083549998700618744 -0.016874000430107117
  endloop
 endfacet
 facet normal 0.6469709047539236 -0.63813794257436818 -0.41738305505715229
  outer loop
   vertex -0.03156299889087677 -0.083549998700618744 -0.016874000430107117
   vertex -0.052737001329660416 -0.076823003590106964 -0.059980001300573349
   vertex -0.041829999536275864 -0.06555899977684021 -0.060295000672340393
  endloop
 endfacet
 facet normal -0.63736035610706332 -0.76967576088226763 0.037027011402216523
  outer loop
   vertex -0.052625000476837158 -0.067426003515720367 -0.044254999607801437
   vertex -0.03156299889087677 -0.083549998700618744 -0.016874000430107117
   vertex -0.055601000785827637 -0.064625002443790436 -0.037257999181747437
  endloop
 endfacet
 facet normal -0.83349989349497733 -0.27394361699981795 0.4798258249082874
  outer loop
   vertex -0.054641000926494598 -0.074427001178264618 -0.051754001528024673
   vertex -0.03156299889087677 -0.083549998700618744 -0.016874000430107117
   vertex -0.052625000476837158 -0.067426003515720367 -0.044254999607801437
  endloop
 endfacet
 facet normal -0.52220411180576087 -0.84363132883604175 0.12485610365332898
  outer loop
   vertex -0.052737001329660416 -0.076823003590106964 -0.059980001300573349
   vertex -0.03156299889087677 -0.083549998700618744 -0.016874000430107117
   vertex -0.054641000926494598 -0.074427001178264618 -0.051754001528024673
  endloop
 endfacet
 facet normal 0.62380564174729802 -0.78075608180311684 -0.035867283862683737
  outer loop
   vertex -0.025062000378966331 -0.079029001295566559 -0.0022209999151527882
   vertex -0.03156299889087677 -0.083549998700618744 -0.016874000430107117
   vertex -0.02194100059568882 -0.075540997087955475 -0.023866999894380569
  endloop
 endfacet
 facet normal 0.95944886469186985 0.22171933987323461 0.17406438569580884
  outer loop
   vertex -0.026301000267267227 -0.071630999445915222 -0.0048150001093745232
   vertex -0.025062000378966331 -0.079029001295566559 -0.0022209999151527882
   vertex -0.02194100059568882 -0.075540997087955475 -0.023866999894380569
  endloop
 endfacet
 facet normal 0.72696743486152293 -0.46595782874054703 -0.50438244466501048
  outer loop
   vertex -0.11174599826335907 -0.086623996496200562 -0.072477996349334717
   vertex -0.09889800101518631 -0.090769998729228973 -0.050129998475313187
   vertex -0.1191909983754158 -0.10148999840021133 -0.069475002586841583
  endloop
 endfacet
 facet normal 0.6388330152413696 -0.76412274760552656 0.089491928291888762
  outer loop
   vertex -0.084749996662139893 -0.081350997090339661 -0.070701003074645996
   vertex -0.080788001418113708 -0.075603999197483063 -0.04991300031542778
   vertex -0.09889800101518631 -0.090769998729228973 -0.050129998475313187
  endloop
 endfacet
 facet normal -0.071698301802012504 -0.88729962558349706 -0.45558613670533638
  outer loop
   vertex -0.10255700349807739 -0.079411998391151428 -0.071675002574920654
   vertex -0.084749996662139893 -0.081350997090339661 -0.070701003074645996
   vertex -0.09889800101518631 -0.090769998729228973 -0.050129998475313187
  endloop
 endfacet
 facet normal 0.57377399770169923 -0.68028074219127133 -0.45607182698025039
  outer loop
   vertex -0.10255700349807739 -0.079411998391151428 -0.071675002574920654
   vertex -0.09889800101518631 -0.090769998729228973 -0.050129998475313187
   vertex -0.11174599826335907 -0.086623996496200562 -0.072477996349334717
  endloop
 endfacet
 facet normal 0.75458694537295379 -0.083122612624029146 -0.65091410581064413
  outer loop
   vertex -0.054177001118659973 -0.10202600061893463 -0.0056309998035430908
   vertex -0.072770997881889343 -0.11734700202941895 -0.025229999795556068
   vertex -0.065047003328800201 -0.095889002084732056 -0.019015999510884285
  endloop
 endfacet
 facet normal 0.66304874262420899 -0.31084492011482406 -0.68098590333667275
  outer loop
   vertex -0.054177001118659973 -0.10202600061893463 -0.0056309998035430908
   vertex -0.065047003328800201 -0.095889002084732056 -0.019015999510884285
   vertex -0.062757000327110291 -0.090507000684738159 -0.019243000075221062
  endloop
 endfacet
 facet normal 0.55682166490928298 0.039832333771158329 -0.82967645421212066
  outer loop
   vertex -0.072770997881889343 -0.11734700202941895 -0.025229999795556068
   vertex -0.096303001046180725 -0.10280700027942657 -0.040325000882148743
   vertex -0.065047003328800201 -0.095889002084732056 -0.019015999510884285
  endloop
 endfacet
 facet normal 0.20505615333620406 -0.67959155211558453 -0.70434884558156985
  outer loop
   vertex -0.03156299889087677 -0.083549998700618744 -0.016874000430107117
   vertex -0.054177001118659973 -0.10202600061893463 -0.0056309998035430908
   vertex -0.062757000327110291 -0.090507000684738159 -0.019243000075221062
  endloop
 endfacet
 facet normal 0.67936352947778389 -0.51112376584876185 0.52651466342360143
  outer loop
   vertex -0.03156299889087677 -0.083549998700618744 -0.016874000430107117
   vertex -0.055663000792264938 -0.097838997840881348 0.00035099999513477087
   vertex -0.054177001118659973 -0.10202600061893463 -0.0056309998035430908
  endloop
 endfacet
 facet normal -0.28958969323892453 0.38602690979342547 0.87585445964790531
  outer loop
   vertex -0.059230998158454895 -0.032039999961853027 -0.061985999345779419
   vertex -0.080788001418113708 -0.075603999197483063 -0.04991300031542778
   vertex -0.062492001801729202 -0.055190000683069229 -0.052861001342535019
  endloop
 endfacet
 facet normal 0.99338311686751457 0.10374798345628507 0.049257883139011124
  outer loop
   vertex -0.041829999536275864 -0.06555899977684021 -0.060295000672340393
   vertex -0.043487001210451126 -0.047598998993635178 -0.064705997705459595
   vertex -0.043358001857995987 -0.059739001095294952 -0.041737999767065048
  endloop
 endfacet
 facet normal 0.88778168416545455 0.45497328495352302 -0.069591603221578924
  outer loop
   vertex -0.036276001483201981 -0.072748996317386627 -0.036449000239372253
   vertex -0.041829999536275864 -0.06555899977684021 -0.060295000672340393
   vertex -0.043358001857995987 -0.059739001095294952 -0.041737999767065048
  endloop
 endfacet
 facet normal 0.66499875425245769 0.059334944247894088 -0.74448372798455353
  outer loop
   vertex -0.02194100059568882 -0.075540997087955475 -0.023866999894380569
   vertex -0.036276001483201981 -0.072748996317386627 -0.036449000239372253
   vertex -0.043358001857995987 -0.059739001095294952 -0.041737999767065048
  endloop
 endfacet
 facet normal 0.94026176220236302 0.32957299509398036 0.085378331237440694
  outer loop
   vertex -0.045607000589370728 -0.037891000509262085 -0.078832998871803284
   vertex -0.043487001210451126 -0.047598998993635178 -0.064705997705459595
   vertex -0.041877001523971558 -0.045942001044750214 -0.088832996785640717
  endloop
 endfacet
 facet normal 0.69073672571521427 0.64016505398351542 0.3362610286763959
  outer loop
   vertex -0.059230998158454895 -0.032039999961853027 -0.061985999345779419
   vertex -0.043487001210451126 -0.047598998993635178 -0.064705997705459595
   vertex -0.045607000589370728 -0.037891000509262085 -0.078832998871803284
  endloop
 endfacet
 facet normal -0.12602315127747329 0.82327105308462767 0.55348255482447073
  outer loop
   vertex -0.055601000785827637 -0.064625002443790436 -0.037257999181747437
   vertex -0.043358001857995987 -0.059739001095294952 -0.041737999767065048
   vertex -0.062492001801729202 -0.055190000683069229 -0.052861001342535019
  endloop
 endfacet
 facet normal 0.76245012574702664 -0.33462555715855241 0.55380099516403136
  outer loop
   vertex -0.029562000185251236 -0.031116999685764313 -0.096830002963542938
   vertex -0.045607000589370728 -0.037891000509262085 -0.078832998871803284
   vertex -0.041877001523971558 -0.045942001044750214 -0.088832996785640717
  endloop
 endfacet
 facet normal -0.15226518869601224 0.12497741315653131 0.98040601717455267
  outer loop
   vertex -0.089372999966144562 -0.030293000862002373 -0.06689000129699707
   vertex -0.059230998158454895 -0.032039999961853027 -0.061985999345779419
   vertex -0.095264002680778503 -0.012132000178098679 -0.070119999349117279
  endloop
 endfacet
 facet normal -0.13343680853930845 0.32545184182183662 0.93609599763144924
  outer loop
   vertex -0.089372999966144562 -0.030293000862002373 -0.06689000129699707
   vertex -0.080788001418113708 -0.075603999197483063 -0.04991300031542778
   vertex -0.059230998158454895 -0.032039999961853027 -0.061985999345779419
  endloop
 endfacet
 facet normal -0.39388849675725718 0.38455497659264648 0.83484688542279273
  outer loop
   vertex -0.043358001857995987 -0.059739001095294952 -0.041737999767065048
   vertex -0.059230998158454895 -0.032039999961853027 -0.061985999345779419
   vertex -0.062492001801729202 -0.055190000683069229 -0.052861001342535019
  endloop
 endfacet
 facet normal 0.69098756009586415 0.64068150023459514 0.33475872960971881
  outer loop
   vertex -0.043358001857995987 -0.059739001095294952 -0.041737999767065048
   vertex -0.043487001210451126 -0.047598998993635178 -0.064705997705459595
   vertex -0.059230998158454895 -0.032039999961853027 -0.061985999345779419
  endloop
 endfacet
 facet normal 0.19211116754032603 -0.59586729884054479 -0.7797662864466286
  outer loop
   vertex -0.03156299889087677 -0.083549998700618744 -0.016874000430107117
   vertex -0.062757000327110291 -0.090507000684738159 -0.019243000075221062
   vertex -0.055601000785827637 -0.064625002443790436 -0.037257999181747437
  endloop
 endfacet
 facet normal -0.49457295838486737 -0.77324359239888552 0.39685253640175544
  outer loop
   vertex -0.092128999531269073 -0.12087000161409378 -0.035677000880241394
   vertex -0.10671199858188629 -0.11179099977016449 -0.036161001771688461
   vertex -0.11430799961090088 -0.11507699638605118 -0.05203000083565712
  endloop
 endfacet
 facet normal -0.44559299668197216 0.84318697364006345 0.30080327257476891
  outer loop
   vertex -0.065047003328800201 -0.095889002084732056 -0.019015999510884285
   vertex -0.10671199858188629 -0.11179099977016449 -0.036161001771688461
   vertex -0.055663000792264938 -0.097838997840881348 0.00035099999513477087
  endloop
 endfacet
 facet normal -0.21135237718137861 -0.090741346085946389 -0.97318866658541137
  outer loop
   vertex -0.11174599826335907 -0.086623996496200562 -0.072477996349334717
   vertex -0.1191909983754158 -0.10148999840021133 -0.069475002586841583
   vertex -0.13181799650192261 -0.075843997299671173 -0.069123998284339905
  endloop
 endfacet
 facet normal -0.66467412098906675 0.17860811625617173 -0.72547050504816069
  outer loop
   vertex -0.12535299360752106 -0.054405000060796738 -0.052960000932216644
   vertex -0.095264002680778503 -0.012132000178098679 -0.070119999349117279
   vertex -0.11085499823093414 -0.059932999312877655 -0.067603997886180878
  endloop
 endfacet
 facet normal -0.81454362268319613 0.56793347066607447 0.1181958529023857
  outer loop
   vertex -0.13561099767684937 -0.084397003054618835 -0.054166000336408615
   vertex -0.12694400548934937 -0.070427998900413513 -0.061558999121189117
   vertex -0.13181799650192261 -0.075843997299671173 -0.069123998284339905
  endloop
 endfacet
 facet normal -0.7126642104311266 -0.28618030263872185 -0.6404768204644008
  outer loop
   vertex -0.094783999025821686 -0.078564003109931946 -0.080702997744083405
   vertex -0.10255700349807739 -0.079411998391151428 -0.071675002574920654
   vertex -0.10534399747848511 -0.063814997673034668 -0.075543001294136047
  endloop
 endfacet
 facet normal -0.25220349827376315 0.49520599367631279 -0.83136298888363536
  outer loop
   vertex -0.07133299857378006 -0.042764000594615936 -0.10457500070333481
   vertex -0.088157996535301208 -0.031197000294923782 -0.092580996453762054
   vertex -0.059916000813245773 -0.027589999139308929 -0.098999999463558197
  endloop
 endfacet
 facet normal -0.037889796899011036 -0.94451960613932739 -0.3262622823885124
  outer loop
   vertex -0.077689997851848602 -0.044275000691413879 -0.065884001553058624
   vertex -0.072428002953529358 -0.040380001068115234 -0.077771000564098358
   vertex -0.070202000439167023 -0.04483100026845932 -0.065144002437591553
  endloop
 endfacet
 facet normal -0.68580903396933657 -0.2997210743572658 -0.66319925098884991
  outer loop
   vertex -0.062417000532150269 -0.062953002750873566 -0.055539999157190323
   vertex -0.05768200010061264 -0.053883999586105347 -0.064534999430179596
   vertex -0.04591900110244751 -0.070017002522945404 -0.069407999515533447
  endloop
 endfacet
 facet normal 0.1919676855618718 0.63351239585860608 -0.7495401603606755
  outer loop
   vertex -0.084749996662139893 -0.081350997090339661 -0.070701003074645996
   vertex -0.080482997000217438 -0.072644002735614777 -0.062249001115560532
   vertex -0.06244799867272377 -0.071901001036167145 -0.057002000510692596
  endloop
 endfacet
 facet normal 0.17474913410233139 0.69358054450290285 -0.69886248176414667
  outer loop
   vertex -0.076976999640464783 -0.066999003291130066 -0.055769998580217361
   vertex -0.06244799867272377 -0.071901001036167145 -0.057002000510692596
   vertex -0.080482997000217438 -0.072644002735614777 -0.062249001115560532
  endloop
 endfacet
 facet normal -0.37012853012139807 -0.84864371122177862 0.37790041359318416
  outer loop
   vertex -0.061698000878095627 -0.040081001818180084 -0.089112997055053711
   vertex -0.07133299857378006 -0.042764000594615936 -0.10457500070333481
   vertex -0.048881001770496368 -0.048842001706361771 -0.096234001219272614
  endloop
 endfacet
 facet normal 0.33552200481454708 -0.94091799850361102 -0.045807252451829643
  outer loop
   vertex -0.07133299857378006 -0.042764000594615936 -0.10457500070333481
   vertex -0.061698000878095627 -0.040081001818180084 -0.089112997055053711
   vertex -0.088044002652168274 -0.0489329993724823 -0.10026100277900696
  endloop
 endfacet
 facet normal 0.41346111831526799 0.64403285931110665 -0.64363932428732806
  outer loop
   vertex -0.048881001770496368 -0.048842001706361771 -0.096234001219272614
   vertex -0.07133299857378006 -0.042764000594615936 -0.10457500070333481
   vertex -0.041877001523971558 -0.045942001044750214 -0.088832996785640717
  endloop
 endfacet
 facet normal 0.71639304568109008 -0.50700239878542575 -0.47930112844181361
  outer loop
   vertex -0.048881001770496368 -0.048842001706361771 -0.096234001219272614
   vertex -0.041877001523971558 -0.045942001044750214 -0.088832996785640717
   vertex -0.04591900110244751 -0.070017002522945404 -0.069407999515533447
  endloop
 endfacet
 facet normal 0.90779934764782277 -0.34492389116161781 -0.23859558612035511
  outer loop
   vertex -0.041829999536275864 -0.06555899977684021 -0.060295000672340393
   vertex -0.04591900110244751 -0.070017002522945404 -0.069407999515533447
   vertex -0.041877001523971558 -0.045942001044750214 -0.088832996785640717
  endloop
 endfacet
 facet normal -0.47803848943117822 -0.51086481263789207 -0.71449026993431397
  outer loop
   vertex -0.04591900110244751 -0.070017002522945404 -0.069407999515533447
   vertex -0.052737001329660416 -0.076823003590106964 -0.059980001300573349
   vertex -0.06244799867272377 -0.071901001036167145 -0.057002000510692596
  endloop
 endfacet
 facet normal 0.71853442011836433 -0.69526583071293158 0.017711909784746089
  outer loop
   vertex -0.041829999536275864 -0.06555899977684021 -0.060295000672340393
   vertex -0.052737001329660416 -0.076823003590106964 -0.059980001300573349
   vertex -0.04591900110244751 -0.070017002522945404 -0.069407999515533447
  endloop
 endfacet
 facet normal 0.050364970714143566 -0.96504614007440515 0.25719509570062787
  outer loop
   vertex -0.084749996662139893 -0.081350997090339661 -0.070701003074645996
   vertex -0.052737001329660416 -0.076823003590106964 -0.059980001300573349
   vertex -0.080788001418113708 -0.075603999197483063 -0.04991300031542778
  endloop
 endfacet
 facet normal 0.06355222922711351 -0.95411554012224542 0.29261690015701458
  outer loop
   vertex -0.080788001418113708 -0.075603999197483063 -0.04991300031542778
   vertex -0.052737001329660416 -0.076823003590106964 -0.059980001300573349
   vertex -0.054641000926494598 -0.074427001178264618 -0.051754001528024673
  endloop
 endfacet
 facet normal -0.64474235743903696 0.41018297586621716 -0.64502497535637138
  outer loop
   vertex -0.11836200207471848 -0.066696003079414368 -0.067763999104499817
   vertex -0.12694400548934937 -0.070427998900413513 -0.061558999121189117
   vertex -0.12535299360752106 -0.054405000060796738 -0.052960000932216644
  endloop
 endfacet
 facet normal -0.83435878575104561 -0.06506893130262123 -0.54736774733187887
  outer loop
   vertex -0.11085499823093414 -0.059932999312877655 -0.067603997886180878
   vertex -0.10096900165081024 -0.048285000026226044 -0.084058001637458801
   vertex -0.10534399747848511 -0.063814997673034668 -0.075543001294136047
  endloop
 endfacet
 facet normal -0.13449097639826307 -0.97688283566782286 0.16616889794734557
  outer loop
   vertex -0.028266999870538712 -0.0096640000119805336 -0.11259099841117859
   vertex -0.008839000016450882 -0.013895999640226364 -0.1217460036277771
   vertex -0.023834999650716782 -0.0093000000342726707 -0.10686399787664413
  endloop
 endfacet
 facet normal -0.050650158623215605 -0.99345916249484711 0.10233989391473795
  outer loop
   vertex -0.028266999870538712 -0.0096640000119805336 -0.11259099841117859
   vertex -0.023834999650716782 -0.0093000000342726707 -0.10686399787664413
   vertex -0.063047997653484344 -0.0065700002014636993 -0.099770002067089081
  endloop
 endfacet
 facet normal -0.2221847898028021 0.52172491849354241 0.82367288932147753
  outer loop
   vertex -0.12133000046014786 0.055185999721288681 -0.04885299876332283
   vertex -0.099932998418807983 0.080170996487140656 -0.058906998485326767
   vertex -0.12183099985122681 0.074796997010707855 -0.061409998685121536
  endloop
 endfacet
 facet normal -0.82170161479355386 0.36798366861102466 0.4351947562657868
  outer loop
   vertex -0.065047003328800201 -0.095889002084732056 -0.019015999510884285
   vertex -0.055663000792264938 -0.097838997840881348 0.00035099999513477087
   vertex -0.062757000327110291 -0.090507000684738159 -0.019243000075221062
  endloop
 endfacet
 facet normal -0.95761427379304265 0.27570725496976661 0.083429084765804226
  outer loop
   vertex -0.14275600016117096 0.037852998822927475 -0.05598900094628334
   vertex -0.1425669938325882 0.036860000342130661 -0.050537999719381332
   vertex -0.14004500210285187 0.0478379987180233 -0.057868998497724533
  endloop
 endfacet
 facet normal -0.97407695445156384 -0.22609542503165361 -0.007412528996353928
  outer loop
   vertex -0.14028300344944 0.027056999504566193 -0.051667001098394394
   vertex -0.1425669938325882 0.036860000342130661 -0.050537999719381332
   vertex -0.14275600016117096 0.037852998822927475 -0.05598900094628334
  endloop
 endfacet
endsolid
