solid Visualization Toolkit generated SLA File
 facet normal -0.40880256665964776 -0.30263151642960434 -0.86098468439107678
  outer loop
   vertex 0.015775000676512718 -0.11621200293302536 0.040419001132249832
   vertex 0.017963999882340431 -0.11511199921369553 0.038993000984191895
   vertex 0.017103999853134155 -0.11880099773406982 0.04069799929857254
  endloop
 endfacet
 facet normal -0.062952783619452043 -0.13881921221262261 -0.98831481490222994
  outer loop
   vertex 0.017103999853134155 -0.11880099773406982 0.04069799929857254
   vertex 0.012574999593198299 -0.11661899834871292 0.040679998695850372
   vertex 0.015775000676512718 -0.11621200293302536 0.040419001132249832
  endloop
 endfacet
 facet normal -0.29192800498369248 -0.48654131541227058 -0.8234413083536305
  outer loop
   vertex 0.017963999882340431 -0.11511199921369553 0.038993000984191895
   vertex 0.015775000676512718 -0.11621200293302536 0.040419001132249832
   vertex 0.016219999641180038 -0.11348000168800354 0.03864699974656105
  endloop
 endfacet
 facet normal -0.18997997653772739 -0.51228925462916197 -0.83753646374723423
  outer loop
   vertex 0.015775000676512718 -0.11621200293302536 0.040419001132249832
   vertex 0.012883000075817108 -0.11309099942445755 0.039165999740362167
   vertex 0.016219999641180038 -0.11348000168800354 0.03864699974656105
  endloop
 endfacet
 facet normal -0.025086783349247896 -0.39238481118945967 -0.91945897855695546
  outer loop
   vertex 0.015775000676512718 -0.11621200293302536 0.040419001132249832
   vertex 0.012574999593198299 -0.11661899834871292 0.040679998695850372
   vertex 0.012883000075817108 -0.11309099942445755 0.039165999740362167
  endloop
 endfacet
 facet normal -0.13799038153863644 -0.38884064590209211 -0.91091251319611666
  outer loop
   vertex 0.017103999853134155 -0.11880099773406982 0.04069799929857254
   vertex 0.017963999882340431 -0.11511199921369553 0.038993000984191895
   vertex 0.018000999465584755 -0.11769499629735947 0.04008999839425087
  endloop
 endfacet
 facet normal 0.34986696155588987 0.17892257128828923 -0.91955414342780084
  outer loop
   vertex 0.018410999327898026 -0.11354999989271164 0.039466999471187592
   vertex 0.017963999882340431 -0.11511199921369553 0.038993000984191895
   vertex 0.016219999641180038 -0.11348000168800354 0.03864699974656105
  endloop
 endfacet
 facet normal 0.6614006434859685 0.038035394464448424 -0.74906775231902789
  outer loop
   vertex 0.018410999327898026 -0.11354999989271164 0.039466999471187592
   vertex 0.019205000251531601 -0.11538299918174744 0.040075000375509262
   vertex 0.017963999882340431 -0.11511199921369553 0.038993000984191895
  endloop
 endfacet
 facet normal 0.58551385169083026 -0.30977321814474451 -0.74914223135424474
  outer loop
   vertex 0.018000999465584755 -0.11769499629735947 0.04008999839425087
   vertex 0.017963999882340431 -0.11511199921369553 0.038993000984191895
   vertex 0.019205000251531601 -0.11538299918174744 0.040075000375509262
  endloop
 endfacet
 facet normal -0.13135707549272574 -0.28049121984609382 -0.95082595374087719
  outer loop
   vertex 0.017103999853134155 -0.11880099773406982 0.04069799929857254
   vertex 0.013766000047326088 -0.11836999654769897 0.041032001376152039
   vertex 0.012574999593198299 -0.11661899834871292 0.040679998695850372
  endloop
 endfacet
 facet normal -0.1277229937273926 -0.24425885165977868 -0.96126190513260168
  outer loop
   vertex 0.017103999853134155 -0.11880099773406982 0.04069799929857254
   vertex 0.01525299996137619 -0.11912000179290771 0.041025001555681229
   vertex 0.013766000047326088 -0.11836999654769897 0.041032001376152039
  endloop
 endfacet
 facet normal 0.15094576068573695 -0.98300027052798422 -0.10452676916902086
  outer loop
   vertex 0.01525299996137619 -0.11912000179290771 0.041025001555681229
   vertex 0.017103999853134155 -0.11880099773406982 0.04069799929857254
   vertex 0.017520999535918236 -0.11884500086307526 0.041714001446962357
  endloop
 endfacet
 facet normal 0.65427458307883579 -0.69479975152923878 -0.29862698339554561
  outer loop
   vertex 0.017520999535918236 -0.11884500086307526 0.041714001446962357
   vertex 0.017103999853134155 -0.11880099773406982 0.04069799929857254
   vertex 0.018000999465584755 -0.11769499629735947 0.04008999839425087
  endloop
 endfacet
 facet normal -0.76899901652431557 -0.57796622051382318 -0.27312187852605668
  outer loop
   vertex 0.012574999593198299 -0.11661899834871292 0.040679998695850372
   vertex 0.013766000047326088 -0.11836999654769897 0.041032001376152039
   vertex 0.013067999854683876 -0.1177389994263649 0.041662000119686127
  endloop
 endfacet
 facet normal -0.88671833684745505 -0.45616810829578192 -0.075108242372798201
  outer loop
   vertex 0.0087259998545050621 -0.10910899937152863 0.040509000420570374
   vertex 0.012574999593198299 -0.11661899834871292 0.040679998695850372
   vertex 0.013067999854683876 -0.1177389994263649 0.041662000119686127
  endloop
 endfacet
 facet normal -0.53629049378244065 -0.29288183484396352 -0.7915887424016459
  outer loop
   vertex 0.012883000075817108 -0.11309099942445755 0.039165999740362167
   vertex 0.012574999593198299 -0.11661899834871292 0.040679998695850372
   vertex 0.0087259998545050621 -0.10910899937152863 0.040509000420570374
  endloop
 endfacet
 facet normal -0.064528505349200904 0.089972766295391277 -0.9938515851587465
  outer loop
   vertex 0.014445000328123569 -0.11258800327777863 0.038842998445034027
   vertex 0.016219999641180038 -0.11348000168800354 0.03864699974656105
   vertex 0.013759000226855278 -0.11284799873828888 0.038864001631736755
  endloop
 endfacet
 facet normal 0.19936998923813221 0.57161846381650894 -0.79592960694727366
  outer loop
   vertex 0.016219999641180038 -0.11348000168800354 0.03864699974656105
   vertex 0.014445000328123569 -0.11258800327777863 0.038842998445034027
   vertex 0.016334999352693558 -0.11218199878931046 0.039608001708984375
  endloop
 endfacet
 facet normal -0.18729218480938289 -0.4252779293869362 -0.88547180660125369
  outer loop
   vertex 0.013759000226855278 -0.11284799873828888 0.038864001631736755
   vertex 0.016219999641180038 -0.11348000168800354 0.03864699974656105
   vertex 0.012883000075817108 -0.11309099942445755 0.039165999740362167
  endloop
 endfacet
 facet normal 0.30845394398259235 0.54821751173830857 -0.77737617937845338
  outer loop
   vertex 0.016219999641180038 -0.11348000168800354 0.03864699974656105
   vertex 0.016334999352693558 -0.11218199878931046 0.039608001708984375
   vertex 0.018410999327898026 -0.11354999989271164 0.039466999471187592
  endloop
 endfacet
 facet normal -0.37177430597558819 0.83430912067419838 -0.40707758053743953
  outer loop
   vertex 0.012883000075817108 -0.11309099942445755 0.039165999740362167
   vertex 0.014550999738276005 -0.1120539978146553 0.039767999202013016
   vertex 0.013759000226855278 -0.11284799873828888 0.038864001631736755
  endloop
 endfacet
 facet normal -0.62712182338922995 -0.43728106631849889 -0.6445956001000348
  outer loop
   vertex 0.0087259998545050621 -0.10910899937152863 0.040509000420570374
   vertex 0.009335000067949295 -0.1065329983830452 0.038169000297784805
   vertex 0.012883000075817108 -0.11309099942445755 0.039165999740362167
  endloop
 endfacet
 facet normal 0.0049434169240660996 -0.14768453030660769 -0.98902216463395376
  outer loop
   vertex 0.01028900034725666 -0.10641399770975113 0.038155999034643173
   vertex 0.012883000075817108 -0.11309099942445755 0.039165999740362167
   vertex 0.009335000067949295 -0.1065329983830452 0.038169000297784805
  endloop
 endfacet
 facet normal 0.34405967831573775 -0.008358487326208015 -0.93891057798221067
  outer loop
   vertex 0.01028900034725666 -0.10641399770975113 0.038155999034643173
   vertex 0.014550999738276005 -0.1120539978146553 0.039767999202013016
   vertex 0.012883000075817108 -0.11309099942445755 0.039165999740362167
  endloop
 endfacet
 facet normal 0.69115631943407052 -0.36397834437111948 -0.62435783564812231
  outer loop
   vertex 0.018000999465584755 -0.11769499629735947 0.04008999839425087
   vertex 0.019205000251531601 -0.11538299918174744 0.040075000375509262
   vertex 0.018897999078035355 -0.11715299636125565 0.040766999125480652
  endloop
 endfacet
 facet normal 0.64957383303235794 -0.69771217080834169 -0.3020787350105299
  outer loop
   vertex 0.017520999535918236 -0.11884500086307526 0.041714001446962357
   vertex 0.018000999465584755 -0.11769499629735947 0.04008999839425087
   vertex 0.018897999078035355 -0.11715299636125565 0.040766999125480652
  endloop
 endfacet
 facet normal 0.92442669823552548 0.37060488672795594 -0.089929402993257246
  outer loop
   vertex 0.018590999767184258 -0.1134369969367981 0.041783001273870468
   vertex 0.019205000251531601 -0.11538299918174744 0.040075000375509262
   vertex 0.018410999327898026 -0.11354999989271164 0.039466999471187592
  endloop
 endfacet
 facet normal 0.54439836633177296 0.83470659642324951 -0.083038043226048422
  outer loop
   vertex 0.018590999767184258 -0.1134369969367981 0.041783001273870468
   vertex 0.018410999327898026 -0.11354999989271164 0.039466999471187592
   vertex 0.016334999352693558 -0.11218199878931046 0.039608001708984375
  endloop
 endfacet
 facet normal 0.92514252176652201 0.36924908280531521 -0.088127346873226931
  outer loop
   vertex 0.019205000251531601 -0.11538299918174744 0.040075000375509262
   vertex 0.018590999767184258 -0.1134369969367981 0.041783001273870468
   vertex 0.019332999363541603 -0.11521299928426743 0.042130999267101288
  endloop
 endfacet
 facet normal 0.98111742643749744 -0.18797573263749881 -0.045538110194181899
  outer loop
   vertex 0.019332999363541603 -0.11521299928426743 0.042130999267101288
   vertex 0.018897999078035355 -0.11715299636125565 0.040766999125480652
   vertex 0.019205000251531601 -0.11538299918174744 0.040075000375509262
  endloop
 endfacet
 facet normal -0.74082954490369013 -0.64984557266887677 -0.16991856014117659
  outer loop
   vertex 0.013067999854683876 -0.1177389994263649 0.041662000119686127
   vertex 0.013766000047326088 -0.11836999654769897 0.041032001376152039
   vertex 0.013584000058472157 -0.11833299696445465 0.041684001684188843
  endloop
 endfacet
 facet normal -0.44935134439785573 -0.89020846623844518 -0.074914991325066294
  outer loop
   vertex 0.013584000058472157 -0.11833299696445465 0.041684001684188843
   vertex 0.013766000047326088 -0.11836999654769897 0.041032001376152039
   vertex 0.01525299996137619 -0.11912000179290771 0.041025001555681229
  endloop
 endfacet
 facet normal -0.4601552743377228 -0.88050681435935396 -0.11386339783230283
  outer loop
   vertex 0.013584000058472157 -0.11833299696445465 0.041684001684188843
   vertex 0.01525299996137619 -0.11912000179290771 0.041025001555681229
   vertex 0.014898999594151974 -0.11912599951028824 0.04250200092792511
  endloop
 endfacet
 facet normal 0.11340579964223571 -0.99327908226319006 0.023147123922854087
  outer loop
   vertex 0.014898999594151974 -0.11912599951028824 0.04250200092792511
   vertex 0.01525299996137619 -0.11912000179290771 0.041025001555681229
   vertex 0.017520999535918236 -0.11884500086307526 0.041714001446962357
  endloop
 endfacet
 facet normal 0.80318547737139412 -0.58168638736764999 0.12858474128316277
  outer loop
   vertex 0.018888000398874283 -0.11672999709844589 0.042743001133203506
   vertex 0.017520999535918236 -0.11884500086307526 0.041714001446962357
   vertex 0.018897999078035355 -0.11715299636125565 0.040766999125480652
  endloop
 endfacet
 facet normal 0.71795086897765459 -0.6189749519051293 0.3184596656537112
  outer loop
   vertex 0.018888000398874283 -0.11672999709844589 0.042743001133203506
   vertex 0.017059000208973885 -0.11785899847745895 0.044672001153230667
   vertex 0.017520999535918236 -0.11884500086307526 0.041714001446962357
  endloop
 endfacet
 facet normal 0.25313904183266928 -0.90523322509789772 0.34128204417885366
  outer loop
   vertex 0.014928000047802925 -0.11840099841356277 0.044815000146627426
   vertex 0.017520999535918236 -0.11884500086307526 0.041714001446962357
   vertex 0.017059000208973885 -0.11785899847745895 0.044672001153230667
  endloop
 endfacet
 facet normal 0.18814699108550934 -0.93785177544034359 0.29160719649704214
  outer loop
   vertex 0.014898999594151974 -0.11912599951028824 0.04250200092792511
   vertex 0.017520999535918236 -0.11884500086307526 0.041714001446962357
   vertex 0.014928000047802925 -0.11840099841356277 0.044815000146627426
  endloop
 endfacet
 facet normal -0.71799540171759857 -0.61139333185664013 0.33268723581409132
  outer loop
   vertex 0.013066999614238739 -0.11736399680376053 0.042348999530076981
   vertex 0.013067999854683876 -0.1177389994263649 0.041662000119686127
   vertex 0.013584000058472157 -0.11833299696445465 0.041684001684188843
  endloop
 endfacet
 facet normal -0.88219903807593192 -0.41384980885066552 0.22461788204007269
  outer loop
   vertex 0.013066999614238739 -0.11736399680376053 0.042348999530076981
   vertex 0.0087259998545050621 -0.10910899937152863 0.040509000420570374
   vertex 0.013067999854683876 -0.1177389994263649 0.041662000119686127
  endloop
 endfacet
 facet normal -0.7838338695382423 -0.49905432809033429 -0.36952569948382569
  outer loop
   vertex 0.0087259998545050621 -0.10910899937152863 0.040509000420570374
   vertex 0.0041120001114904881 -0.10262399911880493 0.041538000106811523
   vertex 0.002862999914214015 -0.097949996590614319 0.037875000387430191
  endloop
 endfacet
 facet normal -0.63814571148506882 -0.42954771375105261 -0.63895133815061289
  outer loop
   vertex 0.0087259998545050621 -0.10910899937152863 0.040509000420570374
   vertex 0.0072639998979866505 -0.10182300209999084 0.037071000784635544
   vertex 0.009335000067949295 -0.1065329983830452 0.038169000297784805
  endloop
 endfacet
 facet normal -0.52561415570485348 -0.44701198135115139 -0.72381630808596176
  outer loop
   vertex 0.0072639998979866505 -0.10182300209999084 0.037071000784635544
   vertex 0.0087259998545050621 -0.10910899937152863 0.040509000420570374
   vertex 0.002862999914214015 -0.097949996590614319 0.037875000387430191
  endloop
 endfacet
 facet normal -0.88209583997726226 -0.4702086062522674 -0.02847447455367904
  outer loop
   vertex 0.012695999816060066 -0.11679700016975403 0.044479001313447952
   vertex 0.0087259998545050621 -0.10910899937152863 0.040509000420570374
   vertex 0.013066999614238739 -0.11736399680376053 0.042348999530076981
  endloop
 endfacet
 facet normal -0.80935477195612227 -0.53873075644747581 -0.23391029299580576
  outer loop
   vertex 0.0087259998545050621 -0.10910899937152863 0.040509000420570374
   vertex 0.012695999816060066 -0.11679700016975403 0.044479001313447952
   vertex 0.0041120001114904881 -0.10262399911880493 0.041538000106811523
  endloop
 endfacet
 facet normal -0.32949063164338521 0.83354067540595 -0.44344770390998267
  outer loop
   vertex 0.013759000226855278 -0.11284799873828888 0.038864001631736755
   vertex 0.014550999738276005 -0.1120539978146553 0.039767999202013016
   vertex 0.014445000328123569 -0.11258800327777863 0.038842998445034027
  endloop
 endfacet
 facet normal 0.017103248741921078 0.8650666669566196 -0.5013652766227803
  outer loop
   vertex 0.016334999352693558 -0.11218199878931046 0.039608001708984375
   vertex 0.014445000328123569 -0.11258800327777863 0.038842998445034027
   vertex 0.014550999738276005 -0.1120539978146553 0.039767999202013016
  endloop
 endfacet
 facet normal 0.61573026723116309 0.76249389639941911 -0.1986939756738306
  outer loop
   vertex 0.016820000484585762 -0.11209599673748016 0.041441000998020172
   vertex 0.018590999767184258 -0.1134369969367981 0.041783001273870468
   vertex 0.016334999352693558 -0.11218199878931046 0.039608001708984375
  endloop
 endfacet
 facet normal 0.039690017781420353 0.94797862219416196 -0.31585001876107099
  outer loop
   vertex 0.015110000036656857 -0.11148600280284882 0.041542999446392059
   vertex 0.016334999352693558 -0.11218199878931046 0.039608001708984375
   vertex 0.014550999738276005 -0.1120539978146553 0.039767999202013016
  endloop
 endfacet
 facet normal 0.32622145257101753 0.93627758818728235 -0.13024531369942247
  outer loop
   vertex 0.016334999352693558 -0.11218199878931046 0.039608001708984375
   vertex 0.015110000036656857 -0.11148600280284882 0.041542999446392059
   vertex 0.016820000484585762 -0.11209599673748016 0.041441000998020172
  endloop
 endfacet
 facet normal 0.83763748405568184 0.38536605926015899 -0.38711296242203397
  outer loop
   vertex 0.015110000036656857 -0.11148600280284882 0.041542999446392059
   vertex 0.014550999738276005 -0.1120539978146553 0.039767999202013016
   vertex 0.012171999551355839 -0.10777699947357178 0.038878001272678375
  endloop
 endfacet
 facet normal 0.36310517429531458 0.0080908635683825305 -0.93171303002946515
  outer loop
   vertex 0.01028900034725666 -0.10641399770975113 0.038155999034643173
   vertex 0.012171999551355839 -0.10777699947357178 0.038878001272678375
   vertex 0.014550999738276005 -0.1120539978146553 0.039767999202013016
  endloop
 endfacet
 facet normal 0.021743537181487905 -0.2791950565551311 -0.95998819731599538
  outer loop
   vertex 0.009335000067949295 -0.1065329983830452 0.038169000297784805
   vertex 0.010169000364840031 -0.10395800322294235 0.037438999861478806
   vertex 0.01028900034725666 -0.10641399770975113 0.038155999034643173
  endloop
 endfacet
 facet normal -0.063685622906467912 -0.2530474884782527 -0.96535543195750639
  outer loop
   vertex 0.010169000364840031 -0.10395800322294235 0.037438999861478806
   vertex 0.009335000067949295 -0.1065329983830452 0.038169000297784805
   vertex 0.0072639998979866505 -0.10182300209999084 0.037071000784635544
  endloop
 endfacet
 facet normal 0.16919635658223506 -0.26857335519418202 -0.94828315697318855
  outer loop
   vertex 0.01028900034725666 -0.10641399770975113 0.038155999034643173
   vertex 0.010169000364840031 -0.10395800322294235 0.037438999861478806
   vertex 0.012171999551355839 -0.10777699947357178 0.038878001272678375
  endloop
 endfacet
 facet normal 0.9641259912317367 -0.25852386931394128 0.060220279195378423
  outer loop
   vertex 0.018897999078035355 -0.11715299636125565 0.040766999125480652
   vertex 0.019332999363541603 -0.11521299928426743 0.042130999267101288
   vertex 0.018888000398874283 -0.11672999709844589 0.042743001133203506
  endloop
 endfacet
 facet normal 0.59175961887880468 0.80207249357613686 0.080624242712535127
  outer loop
   vertex 0.016820000484585762 -0.11209599673748016 0.041441000998020172
   vertex 0.018068000674247742 -0.11327599734067917 0.044020000845193863
   vertex 0.018590999767184258 -0.1134369969367981 0.041783001273870468
  endloop
 endfacet
 facet normal 0.89466004028142532 0.40899908956738446 0.17973079050816249
  outer loop
   vertex 0.019332999363541603 -0.11521299928426743 0.042130999267101288
   vertex 0.018590999767184258 -0.1134369969367981 0.041783001273870468
   vertex 0.018068000674247742 -0.11327599734067917 0.044020000845193863
  endloop
 endfacet
 facet normal 0.94472882478932863 -0.16217911189567935 0.284930488500095
  outer loop
   vertex 0.018569000065326691 -0.11565600335597992 0.044411998242139816
   vertex 0.018888000398874283 -0.11672999709844589 0.042743001133203506
   vertex 0.019332999363541603 -0.11521299928426743 0.042130999267101288
  endloop
 endfacet
 facet normal 0.90311928870122593 0.24785989908214592 0.35062946368321657
  outer loop
   vertex 0.018569000065326691 -0.11565600335597992 0.044411998242139816
   vertex 0.019332999363541603 -0.11521299928426743 0.042130999267101288
   vertex 0.018068000674247742 -0.11327599734067917 0.044020000845193863
  endloop
 endfacet
 facet normal -0.9144015596351569 -0.35734844461018495 -0.19018905560382368
  outer loop
   vertex 0.013584000058472157 -0.11833299696445465 0.041684001684188843
   vertex 0.013379000127315521 -0.11823900043964386 0.042493000626564026
   vertex 0.013066999614238739 -0.11736399680376053 0.042348999530076981
  endloop
 endfacet
 facet normal -0.50370334705413822 -0.86344472454735943 -0.027315669821425102
  outer loop
   vertex 0.013584000058472157 -0.11833299696445465 0.041684001684188843
   vertex 0.014898999594151974 -0.11912599951028824 0.04250200092792511
   vertex 0.013379000127315521 -0.11823900043964386 0.042493000626564026
  endloop
 endfacet
 facet normal -0.49660887993543051 -0.84918768215460505 0.17961041408049372
  outer loop
   vertex 0.013914999552071095 -0.11808100342750549 0.044721998274326324
   vertex 0.013379000127315521 -0.11823900043964386 0.042493000626564026
   vertex 0.014898999594151974 -0.11912599951028824 0.04250200092792511
  endloop
 endfacet
 facet normal -0.31239877855829234 -0.90533979644819707 0.2876922941658745
  outer loop
   vertex 0.014898999594151974 -0.11912599951028824 0.04250200092792511
   vertex 0.014928000047802925 -0.11840099841356277 0.044815000146627426
   vertex 0.013914999552071095 -0.11808100342750549 0.044721998274326324
  endloop
 endfacet
 facet normal 0.76142930365510009 -0.46910347487637921 0.44740065421746505
  outer loop
   vertex 0.018569000065326691 -0.11565600335597992 0.044411998242139816
   vertex 0.017059000208973885 -0.11785899847745895 0.044672001153230667
   vertex 0.018888000398874283 -0.11672999709844589 0.042743001133203506
  endloop
 endfacet
 facet normal 0.7833151337650428 -0.56698525352642137 -0.25484333128067682
  outer loop
   vertex 0.018569000065326691 -0.11565600335597992 0.044411998242139816
   vertex 0.01876400038599968 -0.11636599898338318 0.046590998768806458
   vertex 0.017059000208973885 -0.11785899847745895 0.044672001153230667
  endloop
 endfacet
 facet normal 0.68097883360128897 -0.73141824682653034 -0.035988559240859211
  outer loop
   vertex 0.017116999253630638 -0.11793799698352814 0.047375001013278961
   vertex 0.017059000208973885 -0.11785899847745895 0.044672001153230667
   vertex 0.01876400038599968 -0.11636599898338318 0.046590998768806458
  endloop
 endfacet
 facet normal 0.23863405915731412 -0.97001805142845399 -0.046030052281619001
  outer loop
   vertex 0.016106000170111656 -0.11823400110006332 0.047634001821279526
   vertex 0.014876999892294407 -0.11845800280570984 0.045983001589775085
   vertex 0.017059000208973885 -0.11785899847745895 0.044672001153230667
  endloop
 endfacet
 facet normal 0.27280446497329602 -0.9614701574482305 -0.033953795474270167
  outer loop
   vertex 0.017116999253630638 -0.11793799698352814 0.047375001013278961
   vertex 0.016106000170111656 -0.11823400110006332 0.047634001821279526
   vertex 0.017059000208973885 -0.11785899847745895 0.044672001153230667
  endloop
 endfacet
 facet normal 0.24401725736359675 -0.96907843385052805 -0.036641058316537016
  outer loop
   vertex 0.017059000208973885 -0.11785899847745895 0.044672001153230667
   vertex 0.014876999892294407 -0.11845800280570984 0.045983001589775085
   vertex 0.014928000047802925 -0.11840099841356277 0.044815000146627426
  endloop
 endfacet
 facet normal -0.29571797736577488 -0.95342396354759806 -0.059444289850947567
  outer loop
   vertex 0.014876999892294407 -0.11845800280570984 0.045983001589775085
   vertex 0.013914999552071095 -0.11808100342750549 0.044721998274326324
   vertex 0.014928000047802925 -0.11840099841356277 0.044815000146627426
  endloop
 endfacet
 facet normal -0.93577492007763929 -0.34536380532233452 -0.071057307343891415
  outer loop
   vertex 0.013066999614238739 -0.11736399680376053 0.042348999530076981
   vertex 0.013379000127315521 -0.11823900043964386 0.042493000626564026
   vertex 0.012695999816060066 -0.11679700016975403 0.044479001313447952
  endloop
 endfacet
 facet normal -0.72213683082410929 -0.53583368715852009 -0.43749360826578615
  outer loop
   vertex 0.002862999914214015 -0.097949996590614319 0.037875000387430191
   vertex 0.0041120001114904881 -0.10262399911880493 0.041538000106811523
   vertex 0.0022440000902861357 -0.098008997738361359 0.038968998938798904
  endloop
 endfacet
 facet normal -0.83703818186833301 -0.33194731269621747 0.43494604687054605
  outer loop
   vertex 0.0062620001845061779 -0.10471600294113159 0.044078998267650604
   vertex 0.0020439999643713236 -0.097901999950408936 0.041161999106407166
   vertex 0.0041120001114904881 -0.10262399911880493 0.041538000106811523
  endloop
 endfacet
 facet normal -0.91229281013872376 -0.4045919317550678 -0.063460202709201233
  outer loop
   vertex 0.0020439999643713236 -0.097901999950408936 0.041161999106407166
   vertex 0.0022440000902861357 -0.098008997738361359 0.038968998938798904
   vertex 0.0041120001114904881 -0.10262399911880493 0.041538000106811523
  endloop
 endfacet
 facet normal -0.83198386715080674 -0.43154675354889144 0.34866924771508168
  outer loop
   vertex 0.0062620001845061779 -0.10471600294113159 0.044078998267650604
   vertex 0.0041120001114904881 -0.10262399911880493 0.041538000106811523
   vertex 0.012695999816060066 -0.11679700016975403 0.044479001313447952
  endloop
 endfacet
 facet normal -0.53305133411954975 -0.4580464224696707 -0.71137173830291012
  outer loop
   vertex 0.0072639998979866505 -0.10182300209999084 0.037071000784635544
   vertex 0.002862999914214015 -0.097949996590614319 0.037875000387430191
   vertex 0.0054660001769661903 -0.097050003707408905 0.03534499928355217
  endloop
 endfacet
 facet normal -0.39677532175782737 -0.65634297979095524 -0.64170338702791818
  outer loop
   vertex 0.0054660001769661903 -0.097050003707408905 0.03534499928355217
   vertex 0.002862999914214015 -0.097949996590614319 0.037875000387430191
   vertex 0.00049300002865493298 -0.09477599710226059 0.036093998700380325
  endloop
 endfacet
 facet normal -0.65869600116914762 -0.63293375553210673 -0.40683465824803799
  outer loop
   vertex 0.002862999914214015 -0.097949996590614319 0.037875000387430191
   vertex 0.0022440000902861357 -0.098008997738361359 0.038968998938798904
   vertex 4.1999999666586518e-05 -0.094686999917030334 0.037365999072790146
  endloop
 endfacet
 facet normal -0.72308733936328728 -0.65795171593861568 -0.21034314618250186
  outer loop
   vertex 0.00049300002865493298 -0.09477599710226059 0.036093998700380325
   vertex 0.002862999914214015 -0.097949996590614319 0.037875000387430191
   vertex 4.1999999666586518e-05 -0.094686999917030334 0.037365999072790146
  endloop
 endfacet
 facet normal 0.029592960480262883 -0.33003981753939587 -0.94350303419150483
  outer loop
   vertex 0.0072639998979866505 -0.10182300209999084 0.037071000784635544
   vertex 0.0054660001769661903 -0.097050003707408905 0.03534499928355217
   vertex 0.0092569999396800995 -0.10160999745130539 0.037059001624584198
  endloop
 endfacet
 facet normal 0.010693978010035864 -0.15570187610042385 -0.9877462045551626
  outer loop
   vertex 0.0092569999396800995 -0.10160999745130539 0.037059001624584198
   vertex 0.010169000364840031 -0.10395800322294235 0.037438999861478806
   vertex 0.0072639998979866505 -0.10182300209999084 0.037071000784635544
  endloop
 endfacet
 facet normal -0.90184791051503777 -0.30718702504851886 0.30381981163429916
  outer loop
   vertex 0.013968000188469887 -0.11731699854135513 0.047729000449180603
   vertex 0.01258500013500452 -0.11431699991226196 0.046656999737024307
   vertex 0.012695999816060066 -0.11679700016975403 0.044479001313447952
  endloop
 endfacet
 facet normal -0.75474622695338556 -0.62630662685023419 0.19518745365189352
  outer loop
   vertex 0.013379000127315521 -0.11823900043964386 0.042493000626564026
   vertex 0.013968000188469887 -0.11731699854135513 0.047729000449180603
   vertex 0.012695999816060066 -0.11679700016975403 0.044479001313447952
  endloop
 endfacet
 facet normal -0.77103453025882707 -0.39406914713328411 0.50021521410908343
  outer loop
   vertex 0.012198000214993954 -0.11279900372028351 0.04686100035905838
   vertex 0.0062620001845061779 -0.10471600294113159 0.044078998267650604
   vertex 0.012695999816060066 -0.11679700016975403 0.044479001313447952
  endloop
 endfacet
 facet normal -0.92622657328273339 -0.2713055315069301 0.26172054470115186
  outer loop
   vertex 0.012695999816060066 -0.11679700016975403 0.044479001313447952
   vertex 0.01258500013500452 -0.11431699991226196 0.046656999737024307
   vertex 0.012198000214993954 -0.11279900372028351 0.04686100035905838
  endloop
 endfacet
 facet normal 0.3401002373692717 0.92888848737127006 0.14662198529033438
  outer loop
   vertex 0.017202999442815781 -0.11262500286102295 0.043903999030590057
   vertex 0.016820000484585762 -0.11209599673748016 0.041441000998020172
   vertex 0.015110000036656857 -0.11148600280284882 0.041542999446392059
  endloop
 endfacet
 facet normal 0.59252365228344672 0.80156840048179823 0.080023876647765391
  outer loop
   vertex 0.016820000484585762 -0.11209599673748016 0.041441000998020172
   vertex 0.017202999442815781 -0.11262500286102295 0.043903999030590057
   vertex 0.018068000674247742 -0.11327599734067917 0.044020000845193863
  endloop
 endfacet
 facet normal 0.85942644433121784 0.51005875954433455 -0.035017832547073191
  outer loop
   vertex 0.015110000036656857 -0.11148600280284882 0.041542999446392059
   vertex 0.0096810003742575645 -0.10204199701547623 0.04585999995470047
   vertex 0.014818999916315079 -0.11071900278329849 0.045572999864816666
  endloop
 endfacet
 facet normal 0.82509992298433088 0.54402107236977115 -0.15248340863482676
  outer loop
   vertex 0.0096810003742575645 -0.10204199701547623 0.04585999995470047
   vertex 0.015110000036656857 -0.11148600280284882 0.041542999446392059
   vertex 0.012171999551355839 -0.10777699947357178 0.038878001272678375
  endloop
 endfacet
 facet normal 0.57069495767094391 0.81326998557615982 -0.11357462678746821
  outer loop
   vertex 0.017202999442815781 -0.11262500286102295 0.043903999030590057
   vertex 0.015110000036656857 -0.11148600280284882 0.041542999446392059
   vertex 0.014818999916315079 -0.11071900278329849 0.045572999864816666
  endloop
 endfacet
 facet normal 0.90645207280733453 0.42168349067282762 -0.022971142707009701
  outer loop
   vertex 0.0096810003742575645 -0.10204199701547623 0.04585999995470047
   vertex 0.012171999551355839 -0.10777699947357178 0.038878001272678375
   vertex 0.0092569999396800995 -0.10160999745130539 0.037059001624584198
  endloop
 endfacet
 facet normal 0.82131461144823725 0.23487391231939958 -0.51988128869330363
  outer loop
   vertex 0.012171999551355839 -0.10777699947357178 0.038878001272678375
   vertex 0.010169000364840031 -0.10395800322294235 0.037438999861478806
   vertex 0.0092569999396800995 -0.10160999745130539 0.037059001624584198
  endloop
 endfacet
 facet normal 0.92678352692018406 0.13752480398784919 -0.34951283598387051
  outer loop
   vertex 0.018068000674247742 -0.11327599734067917 0.044020000845193863
   vertex 0.019136000424623489 -0.11441700160503387 0.046402998268604279
   vertex 0.018569000065326691 -0.11565600335597992 0.044411998242139816
  endloop
 endfacet
 facet normal 0.6068528912754575 0.78842056588223108 -0.10061103142578499
  outer loop
   vertex 0.017202999442815781 -0.11262500286102295 0.043903999030590057
   vertex 0.017463000491261482 -0.11226899921894073 0.04826200008392334
   vertex 0.018068000674247742 -0.11327599734067917 0.044020000845193863
  endloop
 endfacet
 facet normal 0.77075992319906506 0.63580477251852208 -0.041005268354709176
  outer loop
   vertex 0.019136000424623489 -0.11441700160503387 0.046402998268604279
   vertex 0.018068000674247742 -0.11327599734067917 0.044020000845193863
   vertex 0.017463000491261482 -0.11226899921894073 0.04826200008392334
  endloop
 endfacet
 facet normal 0.96811730118037453 -0.19940645381670211 -0.15161120450506022
  outer loop
   vertex 0.018569000065326691 -0.11565600335597992 0.044411998242139816
   vertex 0.019136000424623489 -0.11441700160503387 0.046402998268604279
   vertex 0.01876400038599968 -0.11636599898338318 0.046590998768806458
  endloop
 endfacet
 facet normal -0.62179912460182085 -0.75637409289825397 0.20313562030513732
  outer loop
   vertex 0.013968000188469887 -0.11731699854135513 0.047729000449180603
   vertex 0.013379000127315521 -0.11823900043964386 0.042493000626564026
   vertex 0.013914999552071095 -0.11808100342750549 0.044721998274326324
  endloop
 endfacet
 facet normal -0.58266456993646099 -0.78517590418725558 0.20976367279508812
  outer loop
   vertex 0.014876999892294407 -0.11845800280570984 0.045983001589775085
   vertex 0.013968000188469887 -0.11731699854135513 0.047729000449180603
   vertex 0.013914999552071095 -0.11808100342750549 0.044721998274326324
  endloop
 endfacet
 facet normal 0.95706909421487951 -0.15931531162542659 0.24215156489356707
  outer loop
   vertex 0.019136000424623489 -0.11441700160503387 0.046402998268604279
   vertex 0.018247000873088837 -0.1162479966878891 0.048712000250816345
   vertex 0.01876400038599968 -0.11636599898338318 0.046590998768806458
  endloop
 endfacet
 facet normal 0.72577696693203841 -0.65402768559773006 0.21329693092636703
  outer loop
   vertex 0.017116999253630638 -0.11793799698352814 0.047375001013278961
   vertex 0.01876400038599968 -0.11636599898338318 0.046590998768806458
   vertex 0.018247000873088837 -0.1162479966878891 0.048712000250816345
  endloop
 endfacet
 facet normal 0.35786969640530991 -0.79795477977179397 0.48497159693544839
  outer loop
   vertex 0.017633000388741493 -0.11700399965047836 0.048530999571084976
   vertex 0.016106000170111656 -0.11823400110006332 0.047634001821279526
   vertex 0.017116999253630638 -0.11793799698352814 0.047375001013278961
  endloop
 endfacet
 facet normal 0.73874824762838565 -0.64599960513357779 0.19218620344148216
  outer loop
   vertex 0.017633000388741493 -0.11700399965047836 0.048530999571084976
   vertex 0.017116999253630638 -0.11793799698352814 0.047375001013278961
   vertex 0.018247000873088837 -0.1162479966878891 0.048712000250816345
  endloop
 endfacet
 facet normal -0.054379466166697858 -0.98326329113090427 0.17388551973596836
  outer loop
   vertex 0.014876999892294407 -0.11845800280570984 0.045983001589775085
   vertex 0.016106000170111656 -0.11823400110006332 0.047634001821279526
   vertex 0.015166000463068485 -0.11809200048446655 0.048142999410629272
  endloop
 endfacet
 facet normal 0.40142559359631153 -0.81004902607535001 0.42740854947020612
  outer loop
   vertex 0.016106000170111656 -0.11823400110006332 0.047634001821279526
   vertex 0.017633000388741493 -0.11700399965047836 0.048530999571084976
   vertex 0.016036000102758408 -0.11794999986886978 0.048238001763820648
  endloop
 endfacet
 facet normal 0.098991151118945506 -0.89604221056046451 0.43279222369869624
  outer loop
   vertex 0.015166000463068485 -0.11809200048446655 0.048142999410629272
   vertex 0.016106000170111656 -0.11823400110006332 0.047634001821279526
   vertex 0.016036000102758408 -0.11794999986886978 0.048238001763820648
  endloop
 endfacet
 facet normal -0.58129059180389031 -0.78587922213595074 0.21093860740811818
  outer loop
   vertex 0.013968000188469887 -0.11731699854135513 0.047729000449180603
   vertex 0.014876999892294407 -0.11845800280570984 0.045983001589775085
   vertex 0.015166000463068485 -0.11809200048446655 0.048142999410629272
  endloop
 endfacet
 facet normal -0.82192873196595728 -0.56762595386780901 -0.047264532839045782
  outer loop
   vertex 0.0022440000902861357 -0.098008997738361359 0.038968998938798904
   vertex 0.0020439999643713236 -0.097901999950408936 0.041161999106407166
   vertex 4.1999999666586518e-05 -0.094686999917030334 0.037365999072790146
  endloop
 endfacet
 facet normal -0.86556453124078037 -0.41722935643618309 0.27697961366457369
  outer loop
   vertex 0.0020439999643713236 -0.097901999950408936 0.041161999106407166
   vertex 0.0062620001845061779 -0.10471600294113159 0.044078998267650604
   vertex -0.00097200000891461968 -0.090814001858234406 0.042413998395204544
  endloop
 endfacet
 facet normal -0.52595565300893088 0.11084433951850999 0.84325807643013684
  outer loop
   vertex 0.0096509996801614761 -0.10725100338459015 0.046525999903678894
   vertex 0.0096810003742575645 -0.10204199701547623 0.04585999995470047
   vertex 0.0062620001845061779 -0.10471600294113159 0.044078998267650604
  endloop
 endfacet
 facet normal -0.51547609466180178 -0.16758450191101315 0.84035696614680055
  outer loop
   vertex 0.0023270000237971544 -0.092522002756595612 0.044096998870372772
   vertex -0.00097200000891461968 -0.090814001858234406 0.042413998395204544
   vertex 0.0062620001845061779 -0.10471600294113159 0.044078998267650604
  endloop
 endfacet
 facet normal -0.38035259857519454 -0.12409256027122957 0.91647855252724175
  outer loop
   vertex 0.0062620001845061779 -0.10471600294113159 0.044078998267650604
   vertex 0.0096810003742575645 -0.10204199701547623 0.04585999995470047
   vertex 0.0023270000237971544 -0.092522002756595612 0.044096998870372772
  endloop
 endfacet
 facet normal -0.68983594188530561 -0.27628682326218817 0.66917259699938525
  outer loop
   vertex 0.0096509996801614761 -0.10725100338459015 0.046525999903678894
   vertex 0.0062620001845061779 -0.10471600294113159 0.044078998267650604
   vertex 0.012198000214993954 -0.11279900372028351 0.04686100035905838
  endloop
 endfacet
 facet normal -0.87902796921240989 -0.4725382182296885 0.063383449374564096
  outer loop
   vertex 4.1999999666586518e-05 -0.094686999917030334 0.037365999072790146
   vertex 0.0020439999643713236 -0.097901999950408936 0.041161999106407166
   vertex -0.0023219999857246876 -0.090139999985694885 0.038479998707771301
  endloop
 endfacet
 facet normal -0.87971642405314587 -0.47006971176545342 0.071648303063571922
  outer loop
   vertex 0.0020439999643713236 -0.097901999950408936 0.041161999106407166
   vertex -0.0015790000325068831 -0.091279000043869019 0.040130000561475754
   vertex -0.0023219999857246876 -0.090139999985694885 0.038479998707771301
  endloop
 endfacet
 facet normal -0.85317824409297816 -0.41812138250364134 0.31186758937033843
  outer loop
   vertex -0.0015790000325068831 -0.091279000043869019 0.040130000561475754
   vertex 0.0020439999643713236 -0.097901999950408936 0.041161999106407166
   vertex -0.00097200000891461968 -0.090814001858234406 0.042413998395204544
  endloop
 endfacet
 facet normal -0.39617136486558746 -0.56114608094751439 -0.72674846095315748
  outer loop
   vertex 0.0034169999416917562 -0.091494001448154449 0.032171998172998428
   vertex 0.0054660001769661903 -0.097050003707408905 0.03534499928355217
   vertex 0.00051500002155080438 -0.093336999416351318 0.035176999866962433
  endloop
 endfacet
 facet normal -0.34807477683014743 -0.50001024659347215 -0.79299035494524028
  outer loop
   vertex 0.0054660001769661903 -0.097050003707408905 0.03534499928355217
   vertex 0.00049300002865493298 -0.09477599710226059 0.036093998700380325
   vertex 0.00051500002155080438 -0.093336999416351318 0.035176999866962433
  endloop
 endfacet
 facet normal 0.34624885670891187 -0.36569379503393434 -0.86393273899155487
  outer loop
   vertex 0.0054660001769661903 -0.097050003707408905 0.03534499928355217
   vertex 0.0034169999416917562 -0.091494001448154449 0.032171998172998428
   vertex 0.0061050001531839371 -0.093147002160549164 0.033948998898267746
  endloop
 endfacet
 facet normal 0.15915163004996891 -0.35548530184354799 -0.92103255036162501
  outer loop
   vertex 0.0054660001769661903 -0.097050003707408905 0.03534499928355217
   vertex 0.0061050001531839371 -0.093147002160549164 0.033948998898267746
   vertex 0.0072119999676942825 -0.096587002277374268 0.035468000918626785
  endloop
 endfacet
 facet normal 0.13369600480458618 -0.24936850220506435 -0.95913540671132291
  outer loop
   vertex 0.0092569999396800995 -0.10160999745130539 0.037059001624584198
   vertex 0.0054660001769661903 -0.097050003707408905 0.03534499928355217
   vertex 0.0072119999676942825 -0.096587002277374268 0.035468000918626785
  endloop
 endfacet
 facet normal -0.7815143691182348 -0.32673983738060552 -0.53148506049579891
  outer loop
   vertex -0.00055799999972805381 -0.093474000692367554 0.036839000880718231
   vertex 0.00051500002155080438 -0.093336999416351318 0.035176999866962433
   vertex 0.00049300002865493298 -0.09477599710226059 0.036093998700380325
  endloop
 endfacet
 facet normal -0.81847777280220546 -0.5152699285028971 -0.25414766614974255
  outer loop
   vertex 0.00049300002865493298 -0.09477599710226059 0.036093998700380325
   vertex 4.1999999666586518e-05 -0.094686999917030334 0.037365999072790146
   vertex -0.00055799999972805381 -0.093474000692367554 0.036839000880718231
  endloop
 endfacet
 facet normal -0.89006118676470947 -0.45463834563373617 -0.033091668051288166
  outer loop
   vertex -0.00055799999972805381 -0.093474000692367554 0.036839000880718231
   vertex 4.1999999666586518e-05 -0.094686999917030334 0.037365999072790146
   vertex -0.0023219999857246876 -0.090139999985694885 0.038479998707771301
  endloop
 endfacet
 facet normal 0.98366641959231371 0.16914751651074655 0.061558854965673496
  outer loop
   vertex 0.0076399999670684338 -0.094210997223854065 0.042566999793052673
   vertex 0.0092569999396800995 -0.10160999745130539 0.037059001624584198
   vertex 0.0076930001378059387 -0.091829001903533936 0.035174999386072159
  endloop
 endfacet
 facet normal 0.9705786571051731 0.23821722059336073 -0.035066026074999673
  outer loop
   vertex 0.0092569999396800995 -0.10160999745130539 0.037059001624584198
   vertex 0.0076399999670684338 -0.094210997223854065 0.042566999793052673
   vertex 0.0096810003742575645 -0.10204199701547623 0.04585999995470047
  endloop
 endfacet
 facet normal 0.44644918490848484 -0.099891488310848139 -0.88921584323357228
  outer loop
   vertex 0.0076930001378059387 -0.091829001903533936 0.035174999386072159
   vertex 0.0092569999396800995 -0.10160999745130539 0.037059001624584198
   vertex 0.0072119999676942825 -0.096587002277374268 0.035468000918626785
  endloop
 endfacet
 facet normal -0.91213348634667291 -0.40852172805925469 0.033503742903508757
  outer loop
   vertex 0.012643000110983849 -0.11439999938011169 0.047224000096321106
   vertex 0.01258500013500452 -0.11431699991226196 0.046656999737024307
   vertex 0.013968000188469887 -0.11731699854135513 0.047729000449180603
  endloop
 endfacet
 facet normal -0.63179404234756675 -0.15551679876280053 0.75937527834180352
  outer loop
   vertex 0.012643000110983849 -0.11439999938011169 0.047224000096321106
   vertex 0.013968000188469887 -0.11731699854135513 0.047729000449180603
   vertex 0.015041000209748745 -0.11705199629068375 0.048675999045372009
  endloop
 endfacet
 facet normal -0.53265462561762722 -0.43583087853859587 0.7254863852067942
  outer loop
   vertex 0.013968000188469887 -0.11731699854135513 0.047729000449180603
   vertex 0.015166000463068485 -0.11809200048446655 0.048142999410629272
   vertex 0.015041000209748745 -0.11705199629068375 0.048675999045372009
  endloop
 endfacet
 facet normal -0.97975108444274073 -0.18646619791239591 0.072925781239344567
  outer loop
   vertex 0.012400999665260315 -0.113086998462677 0.047329999506473541
   vertex 0.01258500013500452 -0.11431699991226196 0.046656999737024307
   vertex 0.012643000110983849 -0.11439999938011169 0.047224000096321106
  endloop
 endfacet
 facet normal -0.93299204978411043 -0.26985893937799799 0.23812179210947068
  outer loop
   vertex 0.01258500013500452 -0.11431699991226196 0.046656999737024307
   vertex 0.012400999665260315 -0.113086998462677 0.047329999506473541
   vertex 0.012198000214993954 -0.11279900372028351 0.04686100035905838
  endloop
 endfacet
 facet normal -0.73002924234455024 -0.29800887196758197 0.61501871317095003
  outer loop
   vertex 0.012134999968111515 -0.11174900084733963 0.047295000404119492
   vertex 0.0096509996801614761 -0.10725100338459015 0.046525999903678894
   vertex 0.012198000214993954 -0.11279900372028351 0.04686100035905838
  endloop
 endfacet
 facet normal -0.92575014822551949 -0.040238080507861249 0.3759887763450811
  outer loop
   vertex 0.012198000214993954 -0.11279900372028351 0.04686100035905838
   vertex 0.012400999665260315 -0.113086998462677 0.047329999506473541
   vertex 0.012501000426709652 -0.11189299821853638 0.047704000025987625
  endloop
 endfacet
 facet normal -0.76191552881510172 -0.28592226096467693 0.5811481632383011
  outer loop
   vertex 0.012134999968111515 -0.11174900084733963 0.047295000404119492
   vertex 0.012198000214993954 -0.11279900372028351 0.04686100035905838
   vertex 0.012501000426709652 -0.11189299821853638 0.047704000025987625
  endloop
 endfacet
 facet normal 0.57735361198233093 0.81026861793010241 -0.10063584614141151
  outer loop
   vertex 0.017463000491261482 -0.11226899921894073 0.04826200008392334
   vertex 0.017202999442815781 -0.11262500286102295 0.043903999030590057
   vertex 0.014818999916315079 -0.11071900278329849 0.045572999864816666
  endloop
 endfacet
 facet normal 0.76873049645628844 0.43983791664066396 0.46432319660261284
  outer loop
   vertex 0.013682999648153782 -0.11033499985933304 0.047090001404285431
   vertex 0.014818999916315079 -0.11071900278329849 0.045572999864816666
   vertex 0.0096810003742575645 -0.10204199701547623 0.04585999995470047
  endloop
 endfacet
 facet normal -0.027739946133142953 0.16126464446659111 0.98652126679235574
  outer loop
   vertex 0.0067770001478493214 -0.095011003315448761 0.044629000127315521
   vertex 0.0023270000237971544 -0.092522002756595612 0.044096998870372772
   vertex 0.0096810003742575645 -0.10204199701547623 0.04585999995470047
  endloop
 endfacet
 facet normal -0.041527167771673541 0.12694900054409913 0.99103957821961763
  outer loop
   vertex 0.0096509996801614761 -0.10725100338459015 0.046525999903678894
   vertex 0.013682999648153782 -0.11033499985933304 0.047090001404285431
   vertex 0.0096810003742575645 -0.10204199701547623 0.04585999995470047
  endloop
 endfacet
 facet normal 0.77666593003077222 0.40522200362865723 0.48227083770907392
  outer loop
   vertex 0.0067770001478493214 -0.095011003315448761 0.044629000127315521
   vertex 0.0096810003742575645 -0.10204199701547623 0.04585999995470047
   vertex 0.0076399999670684338 -0.094210997223854065 0.042566999793052673
  endloop
 endfacet
 facet normal 0.59081617558024335 0.79765974678002494 -0.12114113685929148
  outer loop
   vertex 0.015306999906897545 -0.11074300110340118 0.047795001417398453
   vertex 0.017463000491261482 -0.11226899921894073 0.04826200008392334
   vertex 0.014818999916315079 -0.11071900278329849 0.045572999864816666
  endloop
 endfacet
 facet normal 0.26264320343769676 0.96373427883260776 -0.047273539014737832
  outer loop
   vertex 0.014818999916315079 -0.11071900278329849 0.045572999864816666
   vertex 0.013682999648153782 -0.11033499985933304 0.047090001404285431
   vertex 0.015306999906897545 -0.11074300110340118 0.047795001417398453
  endloop
 endfacet
 facet normal 0.95638509214660128 -0.215041953947194 0.19769803631374233
  outer loop
   vertex 0.018689999356865883 -0.11432100087404251 0.048664998263120651
   vertex 0.018247000873088837 -0.1162479966878891 0.048712000250816345
   vertex 0.019136000424623489 -0.11441700160503387 0.046402998268604279
  endloop
 endfacet
 facet normal 0.83691278626848786 0.52843703593509472 0.14258782287575555
  outer loop
   vertex 0.019136000424623489 -0.11441700160503387 0.046402998268604279
   vertex 0.017463000491261482 -0.11226899921894073 0.04826200008392334
   vertex 0.018689999356865883 -0.11432100087404251 0.048664998263120651
  endloop
 endfacet
 facet normal 0.49130495856627043 0.44125621514437302 0.75094100319842583
  outer loop
   vertex 0.017463000491261482 -0.11226899921894073 0.04826200008392334
   vertex 0.01679999940097332 -0.11265400052070618 0.048921998590230942
   vertex 0.018689999356865883 -0.11432100087404251 0.048664998263120651
  endloop
 endfacet
 facet normal 0.31097252032911776 0.65120767493478759 0.69226054033592321
  outer loop
   vertex 0.01679999940097332 -0.11265400052070618 0.048921998590230942
   vertex 0.017463000491261482 -0.11226899921894073 0.04826200008392334
   vertex 0.015306999906897545 -0.11074300110340118 0.047795001417398453
  endloop
 endfacet
 facet normal 0.65997633835957792 -0.13369004002226534 0.73929575002452785
  outer loop
   vertex 0.018689999356865883 -0.11432100087404251 0.048664998263120651
   vertex 0.017712999135255814 -0.11580400168895721 0.049268998205661774
   vertex 0.018247000873088837 -0.1162479966878891 0.048712000250816345
  endloop
 endfacet
 facet normal 0.3893291993066384 -0.5012196159028246 0.77278824473556584
  outer loop
   vertex 0.017712999135255814 -0.11580400168895721 0.049268998205661774
   vertex 0.017633000388741493 -0.11700399965047836 0.048530999571084976
   vertex 0.018247000873088837 -0.1162479966878891 0.048712000250816345
  endloop
 endfacet
 facet normal 0.15747885870495992 -0.52491934081759084 0.83645686959735666
  outer loop
   vertex 0.017712999135255814 -0.11580400168895721 0.049268998205661774
   vertex 0.016036000102758408 -0.11794999986886978 0.048238001763820648
   vertex 0.017633000388741493 -0.11700399965047836 0.048530999571084976
  endloop
 endfacet
 facet normal -0.022266412915812963 -0.45809425675909232 0.88862470074840783
  outer loop
   vertex 0.015166000463068485 -0.11809200048446655 0.048142999410629272
   vertex 0.016036000102758408 -0.11794999986886978 0.048238001763820648
   vertex 0.015041000209748745 -0.11705199629068375 0.048675999045372009
  endloop
 endfacet
 facet normal 0.0034869724751840675 -0.43525416312610571 0.90030086887903782
  outer loop
   vertex 0.016036000102758408 -0.11794999986886978 0.048238001763820648
   vertex 0.017712999135255814 -0.11580400168895721 0.049268998205661774
   vertex 0.015041000209748745 -0.11705199629068375 0.048675999045372009
  endloop
 endfacet
 facet normal -0.89586917236530161 -0.32399399237984039 0.30404986253455496
  outer loop
   vertex -0.0015790000325068831 -0.091279000043869019 0.040130000561475754
   vertex -0.00097200000891461968 -0.090814001858234406 0.042413998395204544
   vertex -0.0017059999518096447 -0.089034996926784515 0.042146999388933182
  endloop
 endfacet
 facet normal -0.65821467784128662 -0.161206434491831 0.73536788300327782
  outer loop
   vertex -0.0017059999518096447 -0.089034996926784515 0.042146999388933182
   vertex -0.00097200000891461968 -0.090814001858234406 0.042413998395204544
   vertex 0.0010339999571442604 -0.090154998004436493 0.044353999197483063
  endloop
 endfacet
 facet normal -0.57063833189640922 -0.39017301275026217 0.7225904194575703
  outer loop
   vertex 0.0010339999571442604 -0.090154998004436493 0.044353999197483063
   vertex -0.00097200000891461968 -0.090814001858234406 0.042413998395204544
   vertex 0.0023270000237971544 -0.092522002756595612 0.044096998870372772
  endloop
 endfacet
 facet normal -0.58165340619415762 -0.18582374587566977 0.79192730129189803
  outer loop
   vertex 0.012134999968111515 -0.11174900084733963 0.047295000404119492
   vertex 0.012450999580323696 -0.11096099764108658 0.047711998224258423
   vertex 0.0096509996801614761 -0.10725100338459015 0.046525999903678894
  endloop
 endfacet
 facet normal 0.21561618123867285 0.4412056030228575 0.87111840656094996
  outer loop
   vertex 0.012450999580323696 -0.11096099764108658 0.047711998224258423
   vertex 0.013682999648153782 -0.11033499985933304 0.047090001404285431
   vertex 0.0096509996801614761 -0.10725100338459015 0.046525999903678894
  endloop
 endfacet
 facet normal -0.14022353823848677 -0.039238053447724484 0.98934207152304665
  outer loop
   vertex 0.0067770001478493214 -0.095011003315448761 0.044629000127315521
   vertex 0.0047289999201893806 -0.091802000999450684 0.04446600005030632
   vertex 0.0023270000237971544 -0.092522002756595612 0.044096998870372772
  endloop
 endfacet
 facet normal -0.10210956590484892 -0.16233911006713223 0.98143754253306148
  outer loop
   vertex 0.0023270000237971544 -0.092522002756595612 0.044096998870372772
   vertex 0.0047289999201893806 -0.091802000999450684 0.04446600005030632
   vertex 0.0010339999571442604 -0.090154998004436493 0.044353999197483063
  endloop
 endfacet
 facet normal -0.90095980556194044 -0.35142745829662503 -0.25449984345174814
  outer loop
   vertex -0.00055799999972805381 -0.093474000692367554 0.036839000880718231
   vertex -0.0023219999857246876 -0.090139999985694885 0.038479998707771301
   vertex -0.00054600002476945519 -0.091485001146793365 0.034049998968839645
  endloop
 endfacet
 facet normal -0.88205143523376772 -0.46494412300789001 0.076237970083644802
  outer loop
   vertex -0.0015790000325068831 -0.091279000043869019 0.040130000561475754
   vertex -0.002245000097900629 -0.09003700315952301 0.039999000728130341
   vertex -0.0023219999857246876 -0.090139999985694885 0.038479998707771301
  endloop
 endfacet
 facet normal -0.99746901700045032 0.062679657969112595 0.03356814860892094
  outer loop
   vertex -0.00203699991106987 -0.087041996419429779 0.04116399958729744
   vertex -0.0021470000501722097 -0.087768003344535828 0.039250999689102173
   vertex -0.0023219999857246876 -0.090139999985694885 0.038479998707771301
  endloop
 endfacet
 facet normal -0.99736383321572641 0.055456325345482498 0.046797223981862979
  outer loop
   vertex -0.0021289999131113291 -0.088490001857280731 0.040637999773025513
   vertex -0.0023219999857246876 -0.090139999985694885 0.038479998707771301
   vertex -0.002245000097900629 -0.09003700315952301 0.039999000728130341
  endloop
 endfacet
 facet normal -0.99748566213010059 0.042879270312272316 0.056424480700863658
  outer loop
   vertex -0.0021289999131113291 -0.088490001857280731 0.040637999773025513
   vertex -0.00203699991106987 -0.087041996419429779 0.04116399958729744
   vertex -0.0023219999857246876 -0.090139999985694885 0.038479998707771301
  endloop
 endfacet
 facet normal -0.98634714442958593 0.11200928418254366 -0.12071963772525102
  outer loop
   vertex -0.0017049999441951513 -0.087509997189044952 0.035879001021385193
   vertex -0.0023219999857246876 -0.090139999985694885 0.038479998707771301
   vertex -0.0021470000501722097 -0.087768003344535828 0.039250999689102173
  endloop
 endfacet
 facet normal -0.93358344279968697 -0.11622986411869538 -0.33898757206899677
  outer loop
   vertex -0.0017049999441951513 -0.087509997189044952 0.035879001021385193
   vertex -0.00054600002476945519 -0.091485001146793365 0.034049998968839645
   vertex -0.0023219999857246876 -0.090139999985694885 0.038479998707771301
  endloop
 endfacet
 facet normal -0.98667130407506554 -0.136064922009941 0.089252869495821896
  outer loop
   vertex -0.0017059999518096447 -0.089034996926784515 0.042146999388933182
   vertex -0.0017389999702572823 -0.089451000094413757 0.041147999465465546
   vertex -0.0015790000325068831 -0.091279000043869019 0.040130000561475754
  endloop
 endfacet
 facet normal -0.77268354651540549 -0.35912900691634297 0.52343719139516276
  outer loop
   vertex -0.0017389999702572823 -0.089451000094413757 0.041147999465465546
   vertex -0.002245000097900629 -0.09003700315952301 0.039999000728130341
   vertex -0.0015790000325068831 -0.091279000043869019 0.040130000561475754
  endloop
 endfacet
 facet normal -0.18636504537108853 -0.74702736215319987 -0.63813649798320138
  outer loop
   vertex 0.0034169999416917562 -0.091494001448154449 0.032171998172998428
   vertex 0.00051500002155080438 -0.093336999416351318 0.035176999866962433
   vertex 0.0011249999515712261 -0.090478003025054932 0.031651999801397324
  endloop
 endfacet
 facet normal -0.14838806948744884 -0.69488334632506443 -0.70364630023461971
  outer loop
   vertex 0.0011249999515712261 -0.090478003025054932 0.031651999801397324
   vertex 0.0031119999475777149 -0.090636000037193298 0.031389001756906509
   vertex 0.0034169999416917562 -0.091494001448154449 0.032171998172998428
  endloop
 endfacet
 facet normal 0.48443665053641599 -0.48948118377674615 -0.72507192908398654
  outer loop
   vertex 0.0034169999416917562 -0.091494001448154449 0.032171998172998428
   vertex 0.0031119999475777149 -0.090636000037193298 0.031389001756906509
   vertex 0.0049740001559257507 -0.088174000382423401 0.030970999971032143
  endloop
 endfacet
 facet normal 0.39250444116191402 -0.47005751726636247 -0.79056068339473917
  outer loop
   vertex 0.006874999962747097 -0.090025998651981354 0.03301599994301796
   vertex 0.0034169999416917562 -0.091494001448154449 0.032171998172998428
   vertex 0.0049740001559257507 -0.088174000382423401 0.030970999971032143
  endloop
 endfacet
 facet normal 0.35895593914704965 -0.34751730791550506 -0.86624612810114165
  outer loop
   vertex 0.006874999962747097 -0.090025998651981354 0.03301599994301796
   vertex 0.0061050001531839371 -0.093147002160549164 0.033948998898267746
   vertex 0.0034169999416917562 -0.091494001448154449 0.032171998172998428
  endloop
 endfacet
 facet normal -0.62428356202773327 -0.63475355572974745 -0.45536574055412599
  outer loop
   vertex 0.00051500002155080438 -0.093336999416351318 0.035176999866962433
   vertex -0.00055799999972805381 -0.093474000692367554 0.036839000880718231
   vertex -0.00054600002476945519 -0.091485001146793365 0.034049998968839645
  endloop
 endfacet
 facet normal -0.47788066261162876 -0.63995310823457963 -0.60173922222402199
  outer loop
   vertex -0.00054600002476945519 -0.091485001146793365 0.034049998968839645
   vertex 0.0011249999515712261 -0.090478003025054932 0.031651999801397324
   vertex 0.00051500002155080438 -0.093336999416351318 0.035176999866962433
  endloop
 endfacet
 facet normal 0.66411134758015755 -0.11265121260017999 -0.73909797883296657
  outer loop
   vertex 0.0072119999676942825 -0.096587002277374268 0.035468000918626785
   vertex 0.0061050001531839371 -0.093147002160549164 0.033948998898267746
   vertex 0.0076930001378059387 -0.091829001903533936 0.035174999386072159
  endloop
 endfacet
 facet normal 0.73764881532639448 -0.35388483514963953 -0.57501282481235083
  outer loop
   vertex 0.0076930001378059387 -0.091829001903533936 0.035174999386072159
   vertex 0.0061050001531839371 -0.093147002160549164 0.033948998898267746
   vertex 0.006874999962747097 -0.090025998651981354 0.03301599994301796
  endloop
 endfacet
 facet normal 0.999967328077353 -0.0062170701030511847 0.0051663156284992486
  outer loop
   vertex 0.0076399999670684338 -0.094210997223854065 0.042566999793052673
   vertex 0.0076930001378059387 -0.091829001903533936 0.035174999386072159
   vertex 0.0077309999614953995 -0.086612001061439514 0.034097999334335327
  endloop
 endfacet
 facet normal 0.83097962760921495 0.30415641620726397 0.46579151235118493
  outer loop
   vertex 0.0067770001478493214 -0.095011003315448761 0.044629000127315521
   vertex 0.0076399999670684338 -0.094210997223854065 0.042566999793052673
   vertex 0.0056549999862909317 -0.091526001691818237 0.044355001300573349
  endloop
 endfacet
 facet normal 0.69135497692821124 0.03040053467949036 0.72187540709446107
  outer loop
   vertex 0.0061160000041127205 -0.085387997329235077 0.043655000627040863
   vertex 0.0056549999862909317 -0.091526001691818237 0.044355001300573349
   vertex 0.0076399999670684338 -0.094210997223854065 0.042566999793052673
  endloop
 endfacet
 facet normal 0.97772485934645681 0.1508916560603204 0.14589656454942726
  outer loop
   vertex 0.0077309999614953995 -0.086612001061439514 0.034097999334335327
   vertex 0.0061160000041127205 -0.085387997329235077 0.043655000627040863
   vertex 0.0076399999670684338 -0.094210997223854065 0.042566999793052673
  endloop
 endfacet
 facet normal 0.90275565123180546 -0.093264304052926961 -0.41992142569600099
  outer loop
   vertex 0.0077309999614953995 -0.086612001061439514 0.034097999334335327
   vertex 0.0076930001378059387 -0.091829001903533936 0.035174999386072159
   vertex 0.006874999962747097 -0.090025998651981354 0.03301599994301796
  endloop
 endfacet
 facet normal -0.64466012119459382 -0.17882181358030141 0.74326044367316046
  outer loop
   vertex 0.012501000426709652 -0.11189299821853638 0.047704000025987625
   vertex 0.012400999665260315 -0.113086998462677 0.047329999506473541
   vertex 0.012643000110983849 -0.11439999938011169 0.047224000096321106
  endloop
 endfacet
 facet normal -0.65709119118860515 -0.19556952599645441 0.72799981247515588
  outer loop
   vertex 0.012643000110983849 -0.11439999938011169 0.047224000096321106
   vertex 0.015041000209748745 -0.11705199629068375 0.048675999045372009
   vertex 0.013267000205814838 -0.11370100080966949 0.047974999994039536
  endloop
 endfacet
 facet normal -0.67039924846192012 -0.17598486472858513 0.72082881119455422
  outer loop
   vertex 0.012501000426709652 -0.11189299821853638 0.047704000025987625
   vertex 0.012643000110983849 -0.11439999938011169 0.047224000096321106
   vertex 0.013267000205814838 -0.11370100080966949 0.047974999994039536
  endloop
 endfacet
 facet normal -0.24762134420167958 0.071041350872237369 0.96624882735349338
  outer loop
   vertex 0.013267000205814838 -0.11370100080966949 0.047974999994039536
   vertex 0.015041000209748745 -0.11705199629068375 0.048675999045372009
   vertex 0.017712999135255814 -0.11580400168895721 0.049268998205661774
  endloop
 endfacet
 facet normal -0.75239834963583985 -0.046004445534543456 0.65709992729897926
  outer loop
   vertex 0.012134999968111515 -0.11174900084733963 0.047295000404119492
   vertex 0.012501000426709652 -0.11189299821853638 0.047704000025987625
   vertex 0.012450999580323696 -0.11096099764108658 0.047711998224258423
  endloop
 endfacet
 facet normal -0.5260735310125576 -0.03551518013570637 0.84969718838413721
  outer loop
   vertex 0.013593999668955803 -0.11191000044345856 0.048379998654127121
   vertex 0.012450999580323696 -0.11096099764108658 0.047711998224258423
   vertex 0.012501000426709652 -0.11189299821853638 0.047704000025987625
  endloop
 endfacet
 facet normal -0.52467598636693513 -0.095494864776680372 0.84592898054811161
  outer loop
   vertex 0.013593999668955803 -0.11191000044345856 0.048379998654127121
   vertex 0.012501000426709652 -0.11189299821853638 0.047704000025987625
   vertex 0.013267000205814838 -0.11370100080966949 0.047974999994039536
  endloop
 endfacet
 facet normal -0.077392726415682955 0.77522848977240688 0.62692196846429038
  outer loop
   vertex 0.012450999580323696 -0.11096099764108658 0.047711998224258423
   vertex 0.015306999906897545 -0.11074300110340118 0.047795001417398453
   vertex 0.013682999648153782 -0.11033499985933304 0.047090001404285431
  endloop
 endfacet
 facet normal 0.087159700523968625 0.10594010354184533 0.99054524433067437
  outer loop
   vertex 0.0047289999201893806 -0.091802000999450684 0.04446600005030632
   vertex 0.0067770001478493214 -0.095011003315448761 0.044629000127315521
   vertex 0.0056549999862909317 -0.091526001691818237 0.044355001300573349
  endloop
 endfacet
 facet normal -0.064519204129959845 0.52127177406719372 0.85094830034454916
  outer loop
   vertex 0.012450999580323696 -0.11096099764108658 0.047711998224258423
   vertex 0.013593999668955803 -0.11191000044345856 0.048379998654127121
   vertex 0.015306999906897545 -0.11074300110340118 0.047795001417398453
  endloop
 endfacet
 facet normal -0.034310089716042477 0.48766134167287944 0.87235843182804418
  outer loop
   vertex 0.015306999906897545 -0.11074300110340118 0.047795001417398453
   vertex 0.013593999668955803 -0.11191000044345856 0.048379998654127121
   vertex 0.01679999940097332 -0.11265400052070618 0.048921998590230942
  endloop
 endfacet
 facet normal 0.54214297540443201 0.51193896441738285 0.66633286796531888
  outer loop
   vertex 0.018689999356865883 -0.11432100087404251 0.048664998263120651
   vertex 0.01679999940097332 -0.11265400052070618 0.048921998590230942
   vertex 0.017896000295877457 -0.1142520010471344 0.049258001148700714
  endloop
 endfacet
 facet normal 0.59355495379015855 -0.064303570069344673 0.80222039846135784
  outer loop
   vertex 0.017712999135255814 -0.11580400168895721 0.049268998205661774
   vertex 0.018689999356865883 -0.11432100087404251 0.048664998263120651
   vertex 0.017896000295877457 -0.1142520010471344 0.049258001148700714
  endloop
 endfacet
 facet normal -0.26469537425183381 0.021172442022121232 0.96409962480466793
  outer loop
   vertex 0.01679999940097332 -0.11265400052070618 0.048921998590230942
   vertex 0.013267000205814838 -0.11370100080966949 0.047974999994039536
   vertex 0.017896000295877457 -0.1142520010471344 0.049258001148700714
  endloop
 endfacet
 facet normal -0.20448234878907634 -0.1802331319184502 0.96213459931163958
  outer loop
   vertex 0.01679999940097332 -0.11265400052070618 0.048921998590230942
   vertex 0.013593999668955803 -0.11191000044345856 0.048379998654127121
   vertex 0.013267000205814838 -0.11370100080966949 0.047974999994039536
  endloop
 endfacet
 facet normal -0.26272339941711015 0.037810087734937242 0.96413008077966011
  outer loop
   vertex 0.013267000205814838 -0.11370100080966949 0.047974999994039536
   vertex 0.017712999135255814 -0.11580400168895721 0.049268998205661774
   vertex 0.017896000295877457 -0.1142520010471344 0.049258001148700714
  endloop
 endfacet
 facet normal -0.96537535922238915 -0.032678992059407878 0.25880977432126517
  outer loop
   vertex -0.0021289999131113291 -0.088490001857280731 0.040637999773025513
   vertex -0.0017059999518096447 -0.089034996926784515 0.042146999388933182
   vertex -0.00203699991106987 -0.087041996419429779 0.04116399958729744
  endloop
 endfacet
 facet normal -0.93241236911655423 0.023031472869862495 0.36066151052739093
  outer loop
   vertex -0.0017059999518096447 -0.089034996926784515 0.042146999388933182
   vertex -0.001534000039100647 -0.085782997310161591 0.04238399863243103
   vertex -0.00203699991106987 -0.087041996419429779 0.04116399958729744
  endloop
 endfacet
 facet normal -0.94134049017580834 -0.29936293299987193 0.15575594981021834
  outer loop
   vertex -0.0021289999131113291 -0.088490001857280731 0.040637999773025513
   vertex -0.0017389999702572823 -0.089451000094413757 0.041147999465465546
   vertex -0.0017059999518096447 -0.089034996926784515 0.042146999388933182
  endloop
 endfacet
 facet normal -0.67013403952752337 -0.31595755898261269 0.67163322579237583
  outer loop
   vertex 0.0010339999571442604 -0.090154998004436493 0.044353999197483063
   vertex -0.0011109999613836408 -0.087388999760150909 0.043515000492334366
   vertex -0.0017059999518096447 -0.089034996926784515 0.042146999388933182
  endloop
 endfacet
 facet normal -0.92601283672919055 0.021511127439554172 0.37687862450533921
  outer loop
   vertex -0.0017059999518096447 -0.089034996926784515 0.042146999388933182
   vertex -0.0011109999613836408 -0.087388999760150909 0.043515000492334366
   vertex -0.001534000039100647 -0.085782997310161591 0.04238399863243103
  endloop
 endfacet
 facet normal -0.16784713120577657 -0.31299028991597178 0.93480715602968445
  outer loop
   vertex 0.0047289999201893806 -0.091802000999450684 0.04446600005030632
   vertex 0.0020870000589638948 -0.088628999888896942 0.045053999871015549
   vertex 0.0010339999571442604 -0.090154998004436493 0.044353999197483063
  endloop
 endfacet
 facet normal -0.45953532869992586 -0.088297293561353435 0.88375950893124278
  outer loop
   vertex 0.0020870000589638948 -0.088628999888896942 0.045053999871015549
   vertex -0.0011109999613836408 -0.087388999760150909 0.043515000492334366
   vertex 0.0010339999571442604 -0.090154998004436493 0.044353999197483063
  endloop
 endfacet
 facet normal 0.13860791679925838 -0.067683683359016089 0.98803176285356653
  outer loop
   vertex 0.0056549999862909317 -0.091526001691818237 0.044355001300573349
   vertex 0.0020870000589638948 -0.088628999888896942 0.045053999871015549
   vertex 0.0047289999201893806 -0.091802000999450684 0.04446600005030632
  endloop
 endfacet
 facet normal -0.67630848049069248 -0.38018512342804123 -0.63092480624902969
  outer loop
   vertex 0.0011249999515712261 -0.090478003025054932 0.031651999801397324
   vertex -0.00054600002476945519 -0.091485001146793365 0.034049998968839645
   vertex 0.00069499999517574906 -0.089576996862888336 0.03156999871134758
  endloop
 endfacet
 facet normal -0.88094905910102073 -0.039898757713648043 -0.47152608029878251
  outer loop
   vertex 0.00069499999517574906 -0.089576996862888336 0.03156999871134758
   vertex -0.00054600002476945519 -0.091485001146793365 0.034049998968839645
   vertex -0.0017049999441951513 -0.087509997189044952 0.035879001021385193
  endloop
 endfacet
 facet normal -0.88460778137384255 -0.11982440928521049 0.45067858177674508
  outer loop
   vertex -0.002245000097900629 -0.09003700315952301 0.039999000728130341
   vertex -0.0017389999702572823 -0.089451000094413757 0.041147999465465546
   vertex -0.0021289999131113291 -0.088490001857280731 0.040637999773025513
  endloop
 endfacet
 facet normal -0.87109387305117769 0.47368599428284835 -0.12968054269229465
  outer loop
   vertex -0.0021470000501722097 -0.087768003344535828 0.039250999689102173
   vertex -0.00203699991106987 -0.087041996419429779 0.04116399958729744
   vertex -0.001534000039100647 -0.085782997310161591 0.04238399863243103
  endloop
 endfacet
 facet normal -0.68844288681100174 0.66598210780926648 -0.28725289150374278
  outer loop
   vertex -0.001534000039100647 -0.085782997310161591 0.04238399863243103
   vertex -0.0003060000017285347 -0.084109000861644745 0.043322000652551651
   vertex -0.0021470000501722097 -0.087768003344535828 0.039250999689102173
  endloop
 endfacet
 facet normal -0.46083434282949504 0.88745450776708323 0.0074970069222011753
  outer loop
   vertex 0.0057819997891783714 -0.083612002432346344 0.034674998372793198
   vertex -0.0017049999441951513 -0.087509997189044952 0.035879001021385193
   vertex -0.0021470000501722097 -0.087768003344535828 0.039250999689102173
  endloop
 endfacet
 facet normal -0.59082481440962464 0.71439846402271145 -0.37491448795668503
  outer loop
   vertex -0.0003060000017285347 -0.084109000861644745 0.043322000652551651
   vertex 0.0057819997891783714 -0.083612002432346344 0.034674998372793198
   vertex -0.0021470000501722097 -0.087768003344535828 0.039250999689102173
  endloop
 endfacet
 facet normal -0.88761562424807383 -0.088229056695482797 -0.45205545804173997
  outer loop
   vertex 7.599999662488699e-05 -0.087259002029895782 0.032333001494407654
   vertex 0.00069499999517574906 -0.089576996862888336 0.03156999871134758
   vertex -0.0017049999441951513 -0.087509997189044952 0.035879001021385193
  endloop
 endfacet
 facet normal -0.44341601487265597 0.88839881268407528 0.11886878217588415
  outer loop
   vertex 0.0057819997891783714 -0.083612002432346344 0.034674998372793198
   vertex 0.001108999946154654 -0.085662998259067535 0.032572001218795776
   vertex -0.0017049999441951513 -0.087509997189044952 0.035879001021385193
  endloop
 endfacet
 facet normal -0.76359447206650855 0.54587567101761858 -0.34488147822191728
  outer loop
   vertex 7.599999662488699e-05 -0.087259002029895782 0.032333001494407654
   vertex -0.0017049999441951513 -0.087509997189044952 0.035879001021385193
   vertex 0.001108999946154654 -0.085662998259067535 0.032572001218795776
  endloop
 endfacet
 facet normal -0.46097548475382555 -0.29613229966609927 -0.83654483654520462
  outer loop
   vertex 0.0011249999515712261 -0.090478003025054932 0.031651999801397324
   vertex 0.00069499999517574906 -0.089576996862888336 0.03156999871134758
   vertex 0.0017119999974966049 -0.089580997824668884 0.031011000275611877
  endloop
 endfacet
 facet normal -0.15259856214635964 -0.50654875221175044 -0.84860004740960404
  outer loop
   vertex 0.0017119999974966049 -0.089580997824668884 0.031011000275611877
   vertex 0.0031119999475777149 -0.090636000037193298 0.031389001756906509
   vertex 0.0011249999515712261 -0.090478003025054932 0.031651999801397324
  endloop
 endfacet
 facet normal -0.066212659967313042 -0.41326770481437197 -0.9081991454617836
  outer loop
   vertex 0.0025810000952333212 -0.088827997446060181 0.030604999512434006
   vertex 0.0031119999475777149 -0.090636000037193298 0.031389001756906509
   vertex 0.0017119999974966049 -0.089580997824668884 0.031011000275611877
  endloop
 endfacet
 facet normal 0.23010003488968056 -0.32949099138029075 -0.91569081055943813
  outer loop
   vertex 0.0049740001559257507 -0.088174000382423401 0.030970999971032143
   vertex 0.0031119999475777149 -0.090636000037193298 0.031389001756906509
   vertex 0.0025810000952333212 -0.088827997446060181 0.030604999512434006
  endloop
 endfacet
 facet normal 0.36756567111934263 0.094993163067656816 -0.92513338302376102
  outer loop
   vertex 0.005942000076174736 -0.08559899777173996 0.031619999557733536
   vertex 0.0049740001559257507 -0.088174000382423401 0.030970999971032143
   vertex 0.0043939999304711819 -0.086368001997470856 0.030926000326871872
  endloop
 endfacet
 facet normal 0.51168624076977764 -0.34408212953337564 -0.78726404664678451
  outer loop
   vertex 0.0065000001341104507 -0.087789997458457947 0.031794998794794083
   vertex 0.006874999962747097 -0.090025998651981354 0.03301599994301796
   vertex 0.0049740001559257507 -0.088174000382423401 0.030970999971032143
  endloop
 endfacet
 facet normal 0.14527167027779828 0.022007958995134181 -0.98914700199493455
  outer loop
   vertex 0.0043939999304711819 -0.086368001997470856 0.030926000326871872
   vertex 0.0049740001559257507 -0.088174000382423401 0.030970999971032143
   vertex 0.0025810000952333212 -0.088827997446060181 0.030604999512434006
  endloop
 endfacet
 facet normal 0.46522909012081598 0.047885473154169536 -0.88389415382508274
  outer loop
   vertex 0.0049740001559257507 -0.088174000382423401 0.030970999971032143
   vertex 0.005942000076174736 -0.08559899777173996 0.031619999557733536
   vertex 0.0065000001341104507 -0.087789997458457947 0.031794998794794083
  endloop
 endfacet
 facet normal 0.89639342847574865 -0.087005439387051575 -0.43463648593112725
  outer loop
   vertex 0.0065000001341104507 -0.087789997458457947 0.031794998794794083
   vertex 0.0077309999614953995 -0.086612001061439514 0.034097999334335327
   vertex 0.006874999962747097 -0.090025998651981354 0.03301599994301796
  endloop
 endfacet
 facet normal 0.93658767120593922 0.3307070997004341 0.11591526367464633
  outer loop
   vertex 0.0071290000341832638 -0.084844000637531281 0.033918000757694244
   vertex 0.0061160000041127205 -0.085387997329235077 0.043655000627040863
   vertex 0.0077309999614953995 -0.086612001061439514 0.034097999334335327
  endloop
 endfacet
 facet normal 0.80906397048480061 0.21999923559714432 -0.54499158525617797
  outer loop
   vertex 0.0065000001341104507 -0.087789997458457947 0.031794998794794083
   vertex 0.0071290000341832638 -0.084844000637531281 0.033918000757694244
   vertex 0.0077309999614953995 -0.086612001061439514 0.034097999334335327
  endloop
 endfacet
 facet normal 0.35786352716955622 0.079229357265884773 0.93040658040933877
  outer loop
   vertex 0.0056549999862909317 -0.091526001691818237 0.044355001300573349
   vertex 0.0061160000041127205 -0.085387997329235077 0.043655000627040863
   vertex 0.0035129999741911888 -0.083541996777057648 0.044498998671770096
  endloop
 endfacet
 facet normal 0.22555389439866164 0.042959171932497625 0.97328307817842574
  outer loop
   vertex 0.0020870000589638948 -0.088628999888896942 0.045053999871015549
   vertex 0.0056549999862909317 -0.091526001691818237 0.044355001300573349
   vertex 0.0035129999741911888 -0.083541996777057648 0.044498998671770096
  endloop
 endfacet
 facet normal 0.51117659949182304 0.36504775804080986 0.77809936285885417
  outer loop
   vertex 0.0061160000041127205 -0.085387997329235077 0.043655000627040863
   vertex 0.0051489998586475849 -0.08361399918794632 0.0434579998254776
   vertex 0.0035129999741911888 -0.083541996777057648 0.044498998671770096
  endloop
 endfacet
 facet normal 0.86385212735737826 0.48571526138974352 0.13356716255586604
  outer loop
   vertex 0.0061160000041127205 -0.085387997329235077 0.043655000627040863
   vertex 0.0066300001926720142 -0.084294997155666351 0.036355998367071152
   vertex 0.0051489998586475849 -0.08361399918794632 0.0434579998254776
  endloop
 endfacet
 facet normal 0.9351077021926596 0.33484230063877418 0.11599232303431561
  outer loop
   vertex 0.0066300001926720142 -0.084294997155666351 0.036355998367071152
   vertex 0.0061160000041127205 -0.085387997329235077 0.043655000627040863
   vertex 0.0071290000341832638 -0.084844000637531281 0.033918000757694244
  endloop
 endfacet
 facet normal -0.76545862736181824 0.22337324814491311 0.60347119385315484
  outer loop
   vertex -0.001534000039100647 -0.085782997310161591 0.04238399863243103
   vertex -0.0011109999613836408 -0.087388999760150909 0.043515000492334366
   vertex -0.0003060000017285347 -0.084109000861644745 0.043322000652551651
  endloop
 endfacet
 facet normal -0.76184899552590468 0.2227681709897151 0.60824374226955036
  outer loop
   vertex -0.0003060000017285347 -0.084109000861644745 0.043322000652551651
   vertex -0.0011109999613836408 -0.087388999760150909 0.043515000492334366
   vertex 0.00023000000510364771 -0.085293002426624298 0.044426999986171722
  endloop
 endfacet
 facet normal -0.46000895804852271 -0.090043405822773676 0.88333682340483688
  outer loop
   vertex 0.0020870000589638948 -0.088628999888896942 0.045053999871015549
   vertex 0.00023000000510364771 -0.085293002426624298 0.044426999986171722
   vertex -0.0011109999613836408 -0.087388999760150909 0.043515000492334366
  endloop
 endfacet
 facet normal -0.15559241532372278 0.098131079690173817 0.98293503930451631
  outer loop
   vertex 0.00023000000510364771 -0.085293002426624298 0.044426999986171722
   vertex 0.0020870000589638948 -0.088628999888896942 0.045053999871015549
   vertex 0.0025639999657869339 -0.083815999329090118 0.044649001210927963
  endloop
 endfacet
 facet normal 0.13608984362011836 0.069670163125011939 0.98824370619477553
  outer loop
   vertex 0.0020870000589638948 -0.088628999888896942 0.045053999871015549
   vertex 0.0035129999741911888 -0.083541996777057648 0.044498998671770096
   vertex 0.0025639999657869339 -0.083815999329090118 0.044649001210927963
  endloop
 endfacet
 facet normal -0.65033162446300774 0.075158192322767978 -0.75592329263628277
  outer loop
   vertex 0.00069499999517574906 -0.089576996862888336 0.03156999871134758
   vertex 7.599999662488699e-05 -0.087259002029895782 0.032333001494407654
   vertex 0.0014260000316426158 -0.088693000376224518 0.031029000878334045
  endloop
 endfacet
 facet normal -0.4776070295594223 -0.1362301390666204 -0.86794750677982502
  outer loop
   vertex 0.0017119999974966049 -0.089580997824668884 0.031011000275611877
   vertex 0.00069499999517574906 -0.089576996862888336 0.03156999871134758
   vertex 0.0014260000316426158 -0.088693000376224518 0.031029000878334045
  endloop
 endfacet
 facet normal -0.51087496881243255 0.80038095203935533 -0.31368311694044243
  outer loop
   vertex 0.0057819997891783714 -0.083612002432346344 0.034674998372793198
   vertex -0.0003060000017285347 -0.084109000861644745 0.043322000652551651
   vertex 0.002827000105753541 -0.082566998898983002 0.042153999209403992
  endloop
 endfacet
 facet normal -0.4883880637428758 0.46691719868152581 0.73720107756899067
  outer loop
   vertex 0.00023000000510364771 -0.085293002426624298 0.044426999986171722
   vertex 0.0010760000441223383 -0.083175003528594971 0.043646000325679779
   vertex -0.0003060000017285347 -0.084109000861644745 0.043322000652551651
  endloop
 endfacet
 facet normal -0.50108812893000232 0.82834347736858127 -0.25051501062083298
  outer loop
   vertex -0.0003060000017285347 -0.084109000861644745 0.043322000652551651
   vertex 0.0010760000441223383 -0.083175003528594971 0.043646000325679779
   vertex 0.002827000105753541 -0.082566998898983002 0.042153999209403992
  endloop
 endfacet
 facet normal -0.42951658726019359 0.89978022441390926 0.076883346844501141
  outer loop
   vertex 0.0057819997891783714 -0.083612002432346344 0.034674998372793198
   vertex 0.0039690001867711544 -0.084338001906871796 0.033043000847101212
   vertex 0.001108999946154654 -0.085662998259067535 0.032572001218795776
  endloop
 endfacet
 facet normal 0.68688862375083892 0.72558397488526605 0.041375281888780271
  outer loop
   vertex 0.005016000010073185 -0.083089001476764679 0.038219999521970749
   vertex 0.0071290000341832638 -0.084844000637531281 0.033918000757694244
   vertex 0.0057819997891783714 -0.083612002432346344 0.034674998372793198
  endloop
 endfacet
 facet normal 0.4774535566934931 0.77565772031491531 -0.41278711476571311
  outer loop
   vertex 0.0071290000341832638 -0.084844000637531281 0.033918000757694244
   vertex 0.0050619998946785927 -0.084123000502586365 0.032882001250982285
   vertex 0.0057819997891783714 -0.083612002432346344 0.034674998372793198
  endloop
 endfacet
 facet normal -0.043040185686327538 0.98699017644636555 -0.15491266576512852
  outer loop
   vertex 0.002827000105753541 -0.082566998898983002 0.042153999209403992
   vertex 0.005016000010073185 -0.083089001476764679 0.038219999521970749
   vertex 0.0057819997891783714 -0.083612002432346344 0.034674998372793198
  endloop
 endfacet
 facet normal -0.21599073463643245 0.95843453467503503 -0.18641685893036425
  outer loop
   vertex 0.0039690001867711544 -0.084338001906871796 0.033043000847101212
   vertex 0.0057819997891783714 -0.083612002432346344 0.034674998372793198
   vertex 0.0050619998946785927 -0.084123000502586365 0.032882001250982285
  endloop
 endfacet
 facet normal -0.54317493228205271 0.45703765168586175 -0.70432774890803529
  outer loop
   vertex 0.0010890000266954303 -0.086915001273155212 0.031775001436471939
   vertex 7.599999662488699e-05 -0.087259002029895782 0.032333001494407654
   vertex 0.001108999946154654 -0.085662998259067535 0.032572001218795776
  endloop
 endfacet
 facet normal -0.52974689951636156 0.24081087628152181 -0.81325171030704113
  outer loop
   vertex 0.0014260000316426158 -0.088693000376224518 0.031029000878334045
   vertex 7.599999662488699e-05 -0.087259002029895782 0.032333001494407654
   vertex 0.0010890000266954303 -0.086915001273155212 0.031775001436471939
  endloop
 endfacet
 facet normal -0.34582386040749291 0.50779675766964827 -0.78901730682732907
  outer loop
   vertex 0.0010890000266954303 -0.086915001273155212 0.031775001436471939
   vertex 0.001108999946154654 -0.085662998259067535 0.032572001218795776
   vertex 0.0038360001053661108 -0.084748998284339905 0.031964998692274094
  endloop
 endfacet
 facet normal -0.36182130502331689 0.88507250574450913 -0.29280027801619291
  outer loop
   vertex 0.0039690001867711544 -0.084338001906871796 0.033043000847101212
   vertex 0.0038360001053661108 -0.084748998284339905 0.031964998692274094
   vertex 0.001108999946154654 -0.085662998259067535 0.032572001218795776
  endloop
 endfacet
 facet normal -0.35280458100724532 -0.094758808157807559 -0.93088651075027085
  outer loop
   vertex 0.0017119999974966049 -0.089580997824668884 0.031011000275611877
   vertex 0.0014260000316426158 -0.088693000376224518 0.031029000878334045
   vertex 0.0025810000952333212 -0.088827997446060181 0.030604999512434006
  endloop
 endfacet
 facet normal -0.29281831075868131 0.3222164570569469 -0.90024107420518251
  outer loop
   vertex 0.0010890000266954303 -0.086915001273155212 0.031775001436471939
   vertex 0.0025810000952333212 -0.088827997446060181 0.030604999512434006
   vertex 0.0014260000316426158 -0.088693000376224518 0.031029000878334045
  endloop
 endfacet
 facet normal -0.28560171186610839 0.32798805150219801 -0.90047515248947319
  outer loop
   vertex 0.0025810000952333212 -0.088827997446060181 0.030604999512434006
   vertex 0.0010890000266954303 -0.086915001273155212 0.031775001436471939
   vertex 0.0043939999304711819 -0.086368001997470856 0.030926000326871872
  endloop
 endfacet
 facet normal 0.091068776718423769 0.55989703639942656 -0.82354221903807046
  outer loop
   vertex 0.0038360001053661108 -0.084748998284339905 0.031964998692274094
   vertex 0.005942000076174736 -0.08559899777173996 0.031619999557733536
   vertex 0.0043939999304711819 -0.086368001997470856 0.030926000326871872
  endloop
 endfacet
 facet normal 0.16666000633916792 0.69628900393788984 -0.69814473089912354
  outer loop
   vertex 0.005942000076174736 -0.08559899777173996 0.031619999557733536
   vertex 0.0038360001053661108 -0.084748998284339905 0.031964998692274094
   vertex 0.0050619998946785927 -0.084123000502586365 0.032882001250982285
  endloop
 endfacet
 facet normal 0.84962284722803749 0.17669123090740221 -0.49691168872200037
  outer loop
   vertex 0.0065000001341104507 -0.087789997458457947 0.031794998794794083
   vertex 0.005942000076174736 -0.08559899777173996 0.031619999557733536
   vertex 0.0071290000341832638 -0.084844000637531281 0.033918000757694244
  endloop
 endfacet
 facet normal 0.49600967867370771 0.71588609409534654 -0.49140767082221454
  outer loop
   vertex 0.0050619998946785927 -0.084123000502586365 0.032882001250982285
   vertex 0.0071290000341832638 -0.084844000637531281 0.033918000757694244
   vertex 0.005942000076174736 -0.08559899777173996 0.031619999557733536
  endloop
 endfacet
 facet normal -0.29115683508807733 0.4436057155316675 -0.84760938322385937
  outer loop
   vertex 0.0038360001053661108 -0.084748998284339905 0.031964998692274094
   vertex 0.0043939999304711819 -0.086368001997470856 0.030926000326871872
   vertex 0.0010890000266954303 -0.086915001273155212 0.031775001436471939
  endloop
 endfacet
 facet normal 0.53611704856878561 0.84039040592869185 -0.079513997867690589
  outer loop
   vertex 0.0071290000341832638 -0.084844000637531281 0.033918000757694244
   vertex 0.005016000010073185 -0.083089001476764679 0.038219999521970749
   vertex 0.0066300001926720142 -0.084294997155666351 0.036355998367071152
  endloop
 endfacet
 facet normal -0.11426789232820878 0.75148492942239131 0.64977938535620872
  outer loop
   vertex 0.0035129999741911888 -0.083541996777057648 0.044498998671770096
   vertex 0.0010760000441223383 -0.083175003528594971 0.043646000325679779
   vertex 0.0025639999657869339 -0.083815999329090118 0.044649001210927963
  endloop
 endfacet
 facet normal -0.15287200965402567 0.67106195795740453 0.72546950125192311
  outer loop
   vertex 0.0010760000441223383 -0.083175003528594971 0.043646000325679779
   vertex 0.0035129999741911888 -0.083541996777057648 0.044498998671770096
   vertex 0.0027459999546408653 -0.082626998424530029 0.043490998446941376
  endloop
 endfacet
 facet normal 0.39767276374056615 0.80939742415457927 0.43212519337672467
  outer loop
   vertex 0.0035129999741911888 -0.083541996777057648 0.044498998671770096
   vertex 0.003949000034481287 -0.082713000476360321 0.042544998228549957
   vertex 0.0027459999546408653 -0.082626998424530029 0.043490998446941376
  endloop
 endfacet
 facet normal 0.31038923562833443 0.84823807697865983 0.42912782148166939
  outer loop
   vertex 0.003949000034481287 -0.082713000476360321 0.042544998228549957
   vertex 0.0035129999741911888 -0.083541996777057648 0.044498998671770096
   vertex 0.0051489998586475849 -0.08361399918794632 0.0434579998254776
  endloop
 endfacet
 facet normal 0.5789275128912551 0.814262950010326 0.042647192850491414
  outer loop
   vertex 0.0066300001926720142 -0.084294997155666351 0.036355998367071152
   vertex 0.003949000034481287 -0.082713000476360321 0.042544998228549957
   vertex 0.0051489998586475849 -0.08361399918794632 0.0434579998254776
  endloop
 endfacet
 facet normal 0.66741846383216374 0.73786908220766534 0.10050776914215295
  outer loop
   vertex 0.003949000034481287 -0.082713000476360321 0.042544998228549957
   vertex 0.0066300001926720142 -0.084294997155666351 0.036355998367071152
   vertex 0.005016000010073185 -0.083089001476764679 0.038219999521970749
  endloop
 endfacet
 facet normal -0.36017356345577961 0.44600122978784446 0.81936433118320195
  outer loop
   vertex 0.00023000000510364771 -0.085293002426624298 0.044426999986171722
   vertex 0.0025639999657869339 -0.083815999329090118 0.044649001210927963
   vertex 0.0010760000441223383 -0.083175003528594971 0.043646000325679779
  endloop
 endfacet
 facet normal -0.30969726448280199 0.95053494733722665 0.023893895925217352
  outer loop
   vertex 0.0027459999546408653 -0.082626998424530029 0.043490998446941376
   vertex 0.002827000105753541 -0.082566998898983002 0.042153999209403992
   vertex 0.0010760000441223383 -0.083175003528594971 0.043646000325679779
  endloop
 endfacet
 facet normal 0.1112756518098566 0.99246568189957762 0.051279621350961833
  outer loop
   vertex 0.0027459999546408653 -0.082626998424530029 0.043490998446941376
   vertex 0.003949000034481287 -0.082713000476360321 0.042544998228549957
   vertex 0.002827000105753541 -0.082566998898983002 0.042153999209403992
  endloop
 endfacet
 facet normal 0.14595429332808882 0.98803262809787518 -0.049888576579252414
  outer loop
   vertex 0.002827000105753541 -0.082566998898983002 0.042153999209403992
   vertex 0.003949000034481287 -0.082713000476360321 0.042544998228549957
   vertex 0.005016000010073185 -0.083089001476764679 0.038219999521970749
  endloop
 endfacet
 facet normal -0.22818267004583614 0.91878105856667092 -0.32213977635470692
  outer loop
   vertex 0.0039690001867711544 -0.084338001906871796 0.033043000847101212
   vertex 0.0050619998946785927 -0.084123000502586365 0.032882001250982285
   vertex 0.0038360001053661108 -0.084748998284339905 0.031964998692274094
  endloop
 endfacet
endsolid
