solid Visualization Toolkit generated SLA File
 facet normal -0.56968207719289421 -0.81892933948144631 0.069405099680580576
  outer loop
   vertex 0.033383999019861221 -0.13343000411987305 0.046929001808166504
   vertex 0.03090599924325943 -0.13172399997711182 0.046718999743461609
   vertex 0.031546998769044876 -0.13224999606609344 0.045774001628160477
  endloop
 endfacet
 facet normal -0.50913849392557708 -0.85808157654315542 -0.066887980986182177
  outer loop
   vertex 0.031546998769044876 -0.13224999606609344 0.045774001628160477
   vertex 0.033132001757621765 -0.13320299983024597 0.045935001224279404
   vertex 0.033383999019861221 -0.13343000411987305 0.046929001808166504
  endloop
 endfacet
 facet normal -0.56995311443343533 -0.8149561362176494 0.10488061493349199
  outer loop
   vertex 0.032556001096963882 -0.13231800496578217 0.051070000976324081
   vertex 0.03090599924325943 -0.13172399997711182 0.046718999743461609
   vertex 0.033383999019861221 -0.13343000411987305 0.046929001808166504
  endloop
 endfacet
 facet normal -0.17640647859452749 -0.96837655529117506 -0.17643016032491793
  outer loop
   vertex 0.033132001757621765 -0.13320299983024597 0.045935001224279404
   vertex 0.033700998872518539 -0.13329699635505676 0.045882001519203186
   vertex 0.033383999019861221 -0.13343000411987305 0.046929001808166504
  endloop
 endfacet
 facet normal -0.28361301607978495 -0.93882047275163738 0.19539646120777016
  outer loop
   vertex 0.032556001096963882 -0.13231800496578217 0.051070000976324081
   vertex 0.033383999019861221 -0.13343000411987305 0.046929001808166504
   vertex 0.033289998769760132 -0.13300199806690216 0.048849001526832581
  endloop
 endfacet
 facet normal 0.57761429772890283 -0.79029206703132637 0.20445090326653012
  outer loop
   vertex 0.033383999019861221 -0.13343000411987305 0.046929001808166504
   vertex 0.034729998558759689 -0.13203799724578857 0.048507001250982285
   vertex 0.033289998769760132 -0.13300199806690216 0.048849001526832581
  endloop
 endfacet
 facet normal 0.49221802996276887 -0.81687085197743503 0.30073812889161572
  outer loop
   vertex 0.033383999019861221 -0.13343000411987305 0.046929001808166504
   vertex 0.035027999430894852 -0.13268899917602539 0.046250998973846436
   vertex 0.034729998558759689 -0.13203799724578857 0.048507001250982285
  endloop
 endfacet
 facet normal 0.41425957084646509 -0.91010593309021515 0.009808084221268866
  outer loop
   vertex 0.033383999019861221 -0.13343000411987305 0.046929001808166504
   vertex 0.033700998872518539 -0.13329699635505676 0.045882001519203186
   vertex 0.035027999430894852 -0.13268899917602539 0.046250998973846436
  endloop
 endfacet
 facet normal -0.71505626316661108 -0.69188984475007986 -0.099914879962459235
  outer loop
   vertex 0.03090599924325943 -0.13172399997711182 0.046718999743461609
   vertex 0.029984999448060989 -0.13061100244522095 0.045602999627590179
   vertex 0.031546998769044876 -0.13224999606609344 0.045774001628160477
  endloop
 endfacet
 facet normal -0.7312288010764102 -0.6557792432193742 0.18777120290124505
  outer loop
   vertex 0.029922999441623688 -0.13054400682449341 0.047012001276016235
   vertex 0.03090599924325943 -0.13172399997711182 0.046718999743461609
   vertex 0.032556001096963882 -0.13231800496578217 0.051070000976324081
  endloop
 endfacet
 facet normal -0.76873884977334772 -0.63955367652512574 -0.0034169712239506644
  outer loop
   vertex 0.03090599924325943 -0.13172399997711182 0.046718999743461609
   vertex 0.029922999441623688 -0.13054400682449341 0.047012001276016235
   vertex 0.029984999448060989 -0.13061100244522095 0.045602999627590179
  endloop
 endfacet
 facet normal -0.57252312049661436 -0.5857858023733673 -0.57364821121887011
  outer loop
   vertex 0.030553000047802925 -0.13021500408649445 0.044688001275062561
   vertex 0.031546998769044876 -0.13224999606609344 0.045774001628160477
   vertex 0.030091000720858574 -0.1302109956741333 0.045145001262426376
  endloop
 endfacet
 facet normal -0.18466887742901203 -0.4543597457312521 -0.87146693980215939
  outer loop
   vertex 0.033132001757621765 -0.13320299983024597 0.045935001224279404
   vertex 0.031546998769044876 -0.13224999606609344 0.045774001628160477
   vertex 0.034343000501394272 -0.13079899549484253 0.044424999505281448
  endloop
 endfacet
 facet normal -0.13839916159641463 -0.51805422561498671 -0.84407670942389246
  outer loop
   vertex 0.034343000501394272 -0.13079899549484253 0.044424999505281448
   vertex 0.031546998769044876 -0.13224999606609344 0.045774001628160477
   vertex 0.030553000047802925 -0.13021500408649445 0.044688001275062561
  endloop
 endfacet
 facet normal -0.53255684354993726 -0.57257357509073215 -0.62333194166186068
  outer loop
   vertex 0.030091000720858574 -0.1302109956741333 0.045145001262426376
   vertex 0.031546998769044876 -0.13224999606609344 0.045774001628160477
   vertex 0.029984999448060989 -0.13061100244522095 0.045602999627590179
  endloop
 endfacet
 facet normal -0.15816519826465836 -0.46684105001771603 -0.87008229730081144
  outer loop
   vertex 0.034343000501394272 -0.13079899549484253 0.044424999505281448
   vertex 0.033700998872518539 -0.13329699635505676 0.045882001519203186
   vertex 0.033132001757621765 -0.13320299983024597 0.045935001224279404
  endloop
 endfacet
 facet normal -0.36376727847339663 -0.91724802889302814 0.16226342965657092
  outer loop
   vertex 0.033289998769760132 -0.13300199806690216 0.048849001526832581
   vertex 0.033590998500585556 -0.13267999887466431 0.051343999803066254
   vertex 0.032556001096963882 -0.13231800496578217 0.051070000976324081
  endloop
 endfacet
 facet normal -0.72258663224281328 -0.66832050238603979 0.17668125252686198
  outer loop
   vertex 0.032556001096963882 -0.13231800496578217 0.051070000976324081
   vertex 0.029788000509142876 -0.12970699369907379 0.049626000225543976
   vertex 0.029922999441623688 -0.13054400682449341 0.047012001276016235
  endloop
 endfacet
 facet normal -0.73234419049979882 -0.61665354649991166 0.2888085702161135
  outer loop
   vertex 0.029788000509142876 -0.12970699369907379 0.049626000225543976
   vertex 0.032556001096963882 -0.13231800496578217 0.051070000976324081
   vertex 0.030513999983668327 -0.13006900250911713 0.050693999975919724
  endloop
 endfacet
 facet normal -0.5480548064089924 -0.37239370313438658 0.74897186798828441
  outer loop
   vertex 0.030513999983668327 -0.13006900250911713 0.050693999975919724
   vertex 0.032556001096963882 -0.13231800496578217 0.051070000976324081
   vertex 0.033123001456260681 -0.13199600577354431 0.051644999533891678
  endloop
 endfacet
 facet normal -0.39213230839646618 -0.5818535470752576 0.71251575594340333
  outer loop
   vertex 0.032556001096963882 -0.13231800496578217 0.051070000976324081
   vertex 0.033590998500585556 -0.13267999887466431 0.051343999803066254
   vertex 0.033123001456260681 -0.13199600577354431 0.051644999533891678
  endloop
 endfacet
 facet normal -0.044619191635615313 -0.49474540659444705 -0.86789176191013562
  outer loop
   vertex 0.034343000501394272 -0.13079899549484253 0.044424999505281448
   vertex 0.034660998731851578 -0.13273100554943085 0.045510001480579376
   vertex 0.033700998872518539 -0.13329699635505676 0.045882001519203186
  endloop
 endfacet
 facet normal 0.44961006745770488 -0.8763103957188777 -0.17300542649206771
  outer loop
   vertex 0.033700998872518539 -0.13329699635505676 0.045882001519203186
   vertex 0.034660998731851578 -0.13273100554943085 0.045510001480579376
   vertex 0.035027999430894852 -0.13268899917602539 0.046250998973846436
  endloop
 endfacet
 facet normal 0.56222341651847152 -0.82607542959431846 0.038784204759921725
  outer loop
   vertex 0.033590998500585556 -0.13267999887466431 0.051343999803066254
   vertex 0.033289998769760132 -0.13300199806690216 0.048849001526832581
   vertex 0.034729998558759689 -0.13203799724578857 0.048507001250982285
  endloop
 endfacet
 facet normal 0.98956095633267149 0.10273445048393526 0.10106802850423317
  outer loop
   vertex 0.034600000828504562 -0.13047200441360474 0.048188000917434692
   vertex 0.034729998558759689 -0.13203799724578857 0.048507001250982285
   vertex 0.035027999430894852 -0.13268899917602539 0.046250998973846436
  endloop
 endfacet
 facet normal 0.95467990868608898 0.018741558522873233 -0.29704381147442616
  outer loop
   vertex 0.034600000828504562 -0.13047200441360474 0.048188000917434692
   vertex 0.035137001425027847 -0.13091400265693665 0.049885999411344528
   vertex 0.034729998558759689 -0.13203799724578857 0.048507001250982285
  endloop
 endfacet
 facet normal 0.90647342562944155 -0.41614006221575173 0.071647590655202431
  outer loop
   vertex 0.034478001296520233 -0.13206300139427185 0.051550000905990601
   vertex 0.034729998558759689 -0.13203799724578857 0.048507001250982285
   vertex 0.035137001425027847 -0.13091400265693665 0.049885999411344528
  endloop
 endfacet
 facet normal 0.56430835042271255 -0.82459663523356097 0.039955910760320117
  outer loop
   vertex 0.034478001296520233 -0.13206300139427185 0.051550000905990601
   vertex 0.033590998500585556 -0.13267999887466431 0.051343999803066254
   vertex 0.034729998558759689 -0.13203799724578857 0.048507001250982285
  endloop
 endfacet
 facet normal 0.84915446185422072 -0.34360362790797505 -0.40109007317751788
  outer loop
   vertex 0.035027999430894852 -0.13268899917602539 0.046250998973846436
   vertex 0.034660998731851578 -0.13273100554943085 0.045510001480579376
   vertex 0.035218998789787292 -0.13133099675178528 0.045492000877857208
  endloop
 endfacet
 facet normal 0.97957293242796628 -0.026353277790050991 0.19935489661454306
  outer loop
   vertex 0.034999001771211624 -0.13056699931621552 0.046673998236656189
   vertex 0.035027999430894852 -0.13268899917602539 0.046250998973846436
   vertex 0.035218998789787292 -0.13133099675178528 0.045492000877857208
  endloop
 endfacet
 facet normal 0.96569432989965442 -0.038010873850208918 0.25688447728269026
  outer loop
   vertex 0.034600000828504562 -0.13047200441360474 0.048188000917434692
   vertex 0.035027999430894852 -0.13268899917602539 0.046250998973846436
   vertex 0.034999001771211624 -0.13056699931621552 0.046673998236656189
  endloop
 endfacet
 facet normal -0.5736856654808079 -0.54651219112576277 -0.61008948702035537
  outer loop
   vertex 0.028351999819278717 -0.12858200073242188 0.045320998877286911
   vertex 0.030091000720858574 -0.1302109956741333 0.045145001262426376
   vertex 0.029984999448060989 -0.13061100244522095 0.045602999627590179
  endloop
 endfacet
 facet normal -0.64573746120520326 -0.76351875083171417 0.0078897607465360665
  outer loop
   vertex 0.029984999448060989 -0.13061100244522095 0.045602999627590179
   vertex 0.029922999441623688 -0.13054400682449341 0.047012001276016235
   vertex 0.026150999590754509 -0.12734299898147583 0.048064999282360077
  endloop
 endfacet
 facet normal -0.72285611026905483 -0.62324829597512532 -0.29839672486606589
  outer loop
   vertex 0.026150999590754509 -0.12734299898147583 0.048064999282360077
   vertex 0.028351999819278717 -0.12858200073242188 0.045320998877286911
   vertex 0.029984999448060989 -0.13061100244522095 0.045602999627590179
  endloop
 endfacet
 facet normal -0.5957403008583152 -0.77334625478501684 0.21686185497507826
  outer loop
   vertex 0.029922999441623688 -0.13054400682449341 0.047012001276016235
   vertex 0.029788000509142876 -0.12970699369907379 0.049626000225543976
   vertex 0.026150999590754509 -0.12734299898147583 0.048064999282360077
  endloop
 endfacet
 facet normal -0.6244146621010449 -0.46559056164223506 -0.6271616686811351
  outer loop
   vertex 0.030091000720858574 -0.1302109956741333 0.045145001262426376
   vertex 0.029851000756025314 -0.1292870044708252 0.044697999954223633
   vertex 0.030553000047802925 -0.13021500408649445 0.044688001275062561
  endloop
 endfacet
 facet normal -0.38558899935125929 -0.28221980668830965 -0.87844926108006249
  outer loop
   vertex 0.030905000865459442 -0.12926100194454193 0.044227000325918198
   vertex 0.030553000047802925 -0.13021500408649445 0.044688001275062561
   vertex 0.029851000756025314 -0.1292870044708252 0.044697999954223633
  endloop
 endfacet
 facet normal -0.12394427895314047 -0.39429054189516155 -0.91058925113730937
  outer loop
   vertex 0.034343000501394272 -0.13079899549484253 0.044424999505281448
   vertex 0.030553000047802925 -0.13021500408649445 0.044688001275062561
   vertex 0.030905000865459442 -0.12926100194454193 0.044227000325918198
  endloop
 endfacet
 facet normal -0.5192045170675309 -0.47769999800246704 -0.70868143856398202
  outer loop
   vertex 0.029851000756025314 -0.1292870044708252 0.044697999954223633
   vertex 0.030091000720858574 -0.1302109956741333 0.045145001262426376
   vertex 0.028351999819278717 -0.12858200073242188 0.045320998877286911
  endloop
 endfacet
 facet normal -0.14027151519107317 -0.50227067025006777 -0.8532573327153703
  outer loop
   vertex 0.034343000501394272 -0.13079899549484253 0.044424999505281448
   vertex 0.034821998327970505 -0.13187900185585022 0.044982001185417175
   vertex 0.034660998731851578 -0.13273100554943085 0.045510001480579376
  endloop
 endfacet
 facet normal -0.11866614635551069 -0.45076322765114735 -0.88472077985466835
  outer loop
   vertex 0.034343000501394272 -0.13079899549484253 0.044424999505281448
   vertex 0.032012000679969788 -0.12936100363731384 0.044004999101161957
   vertex 0.033341001719236374 -0.12991499900817871 0.044109001755714417
  endloop
 endfacet
 facet normal -0.21061090085076928 -0.57278081198168262 -0.79219012229920649
  outer loop
   vertex 0.034343000501394272 -0.13079899549484253 0.044424999505281448
   vertex 0.030905000865459442 -0.12926100194454193 0.044227000325918198
   vertex 0.032012000679969788 -0.12936100363731384 0.044004999101161957
  endloop
 endfacet
 facet normal 0.53877329912025551 0.33426578307230337 -0.77329794931975315
  outer loop
   vertex 0.033341001719236374 -0.12991499900817871 0.044109001755714417
   vertex 0.034683000296354294 -0.13022500276565552 0.044909998774528503
   vertex 0.034343000501394272 -0.13079899549484253 0.044424999505281448
  endloop
 endfacet
 facet normal 0.79502395539871762 0.040464940634820243 -0.605226816095915
  outer loop
   vertex 0.034821998327970505 -0.13187900185585022 0.044982001185417175
   vertex 0.034343000501394272 -0.13079899549484253 0.044424999505281448
   vertex 0.034683000296354294 -0.13022500276565552 0.044909998774528503
  endloop
 endfacet
 facet normal -0.049586744332678095 -0.25143942433528121 0.96660197117346502
  outer loop
   vertex 0.034478001296520233 -0.13206300139427185 0.051550000905990601
   vertex 0.034338001161813736 -0.13066299259662628 0.051906999200582504
   vertex 0.033590998500585556 -0.13267999887466431 0.051343999803066254
  endloop
 endfacet
 facet normal 0.14318626932268119 -0.31492095157227767 0.93825502212259104
  outer loop
   vertex 0.033590998500585556 -0.13267999887466431 0.051343999803066254
   vertex 0.034338001161813736 -0.13066299259662628 0.051906999200582504
   vertex 0.033123001456260681 -0.13199600577354431 0.051644999533891678
  endloop
 endfacet
 facet normal -0.61082842549042482 -0.5943145424995242 0.52314324920280675
  outer loop
   vertex 0.026589000597596169 -0.12648600339889526 0.049550000578165054
   vertex 0.026150999590754509 -0.12734299898147583 0.048064999282360077
   vertex 0.029788000509142876 -0.12970699369907379 0.049626000225543976
  endloop
 endfacet
 facet normal -0.57900649120142345 -0.56109596961362118 0.59154272544759301
  outer loop
   vertex 0.029788000509142876 -0.12970699369907379 0.049626000225543976
   vertex 0.029500000178813934 -0.12879200279712677 0.05021199956536293
   vertex 0.026589000597596169 -0.12648600339889526 0.049550000578165054
  endloop
 endfacet
 facet normal -0.84077216368706764 -0.16375475976949638 0.51602959936596771
  outer loop
   vertex 0.029788000509142876 -0.12970699369907379 0.049626000225543976
   vertex 0.030513999983668327 -0.13006900250911713 0.050693999975919724
   vertex 0.030363999307155609 -0.12892700731754303 0.050811998546123505
  endloop
 endfacet
 facet normal -0.52696404484175086 -0.56974885571389289 0.63063074525171281
  outer loop
   vertex 0.030363999307155609 -0.12892700731754303 0.050811998546123505
   vertex 0.029500000178813934 -0.12879200279712677 0.05021199956536293
   vertex 0.029788000509142876 -0.12970699369907379 0.049626000225543976
  endloop
 endfacet
 facet normal -0.53244362304242532 -0.20911740618794386 0.82022783341622962
  outer loop
   vertex 0.030513999983668327 -0.13006900250911713 0.050693999975919724
   vertex 0.031311001628637314 -0.13039599359035492 0.051128000020980835
   vertex 0.031156999990344048 -0.12939199805259705 0.051284000277519226
  endloop
 endfacet
 facet normal -0.57190233738996743 -0.15828738491192695 0.80490547287593683
  outer loop
   vertex 0.030363999307155609 -0.12892700731754303 0.050811998546123505
   vertex 0.030513999983668327 -0.13006900250911713 0.050693999975919724
   vertex 0.031156999990344048 -0.12939199805259705 0.051284000277519226
  endloop
 endfacet
 facet normal -0.55931996786895066 -0.39856430724162178 0.72684776021948516
  outer loop
   vertex 0.030513999983668327 -0.13006900250911713 0.050693999975919724
   vertex 0.033123001456260681 -0.13199600577354431 0.051644999533891678
   vertex 0.031311001628637314 -0.13039599359035492 0.051128000020980835
  endloop
 endfacet
 facet normal -0.24626377056361398 0.034085687993644156 0.96860328369347992
  outer loop
   vertex 0.033123001456260681 -0.13199600577354431 0.051644999533891678
   vertex 0.034338001161813736 -0.13066299259662628 0.051906999200582504
   vertex 0.031311001628637314 -0.13039599359035492 0.051128000020980835
  endloop
 endfacet
 facet normal 0.88329315146966136 -0.35597581440394066 -0.30508101895438383
  outer loop
   vertex 0.034660998731851578 -0.13273100554943085 0.045510001480579376
   vertex 0.034821998327970505 -0.13187900185585022 0.044982001185417175
   vertex 0.035218998789787292 -0.13133099675178528 0.045492000877857208
  endloop
 endfacet
 facet normal 0.9027658475379261 0.38862804077216212 -0.18434226440163085
  outer loop
   vertex 0.034600000828504562 -0.13047200441360474 0.048188000917434692
   vertex 0.034497998654842377 -0.12955200672149658 0.04962800070643425
   vertex 0.035137001425027847 -0.13091400265693665 0.049885999411344528
  endloop
 endfacet
 facet normal 0.73504326419827959 0.59379042818647798 -0.32729852909974599
  outer loop
   vertex 0.033194001764059067 -0.12894099950790405 0.047807998955249786
   vertex 0.034497998654842377 -0.12955200672149658 0.04962800070643425
   vertex 0.034600000828504562 -0.13047200441360474 0.048188000917434692
  endloop
 endfacet
 facet normal 0.59099248770215129 0.77193948986454264 0.23417366091704689
  outer loop
   vertex 0.033488001674413681 -0.12898300588130951 0.04608599841594696
   vertex 0.034600000828504562 -0.13047200441360474 0.048188000917434692
   vertex 0.034781999886035919 -0.13006499409675598 0.046386998146772385
  endloop
 endfacet
 facet normal 0.71913469560831866 0.68673400378257798 0.10602687216494282
  outer loop
   vertex 0.033488001674413681 -0.12898300588130951 0.04608599841594696
   vertex 0.033194001764059067 -0.12894099950790405 0.047807998955249786
   vertex 0.034600000828504562 -0.13047200441360474 0.048188000917434692
  endloop
 endfacet
 facet normal 0.85473871983236405 0.48100553985187061 0.19507791123328663
  outer loop
   vertex 0.034600000828504562 -0.13047200441360474 0.048188000917434692
   vertex 0.034999001771211624 -0.13056699931621552 0.046673998236656189
   vertex 0.034781999886035919 -0.13006499409675598 0.046386998146772385
  endloop
 endfacet
 facet normal 0.94022986326876501 0.2943213673629162 0.17129721810707513
  outer loop
   vertex 0.035137001425027847 -0.13091400265693665 0.049885999411344528
   vertex 0.034630000591278076 -0.13021799921989441 0.051472999155521393
   vertex 0.034830998629331589 -0.1309020072221756 0.051545001566410065
  endloop
 endfacet
 facet normal 0.89435684047039232 0.43738893854039557 0.093897594997546505
  outer loop
   vertex 0.034497998654842377 -0.12955200672149658 0.04962800070643425
   vertex 0.034630000591278076 -0.13021799921989441 0.051472999155521393
   vertex 0.035137001425027847 -0.13091400265693665 0.049885999411344528
  endloop
 endfacet
 facet normal 0.94205895480669011 -0.28567350398582741 0.17582825367097915
  outer loop
   vertex 0.034478001296520233 -0.13206300139427185 0.051550000905990601
   vertex 0.035137001425027847 -0.13091400265693665 0.049885999411344528
   vertex 0.034830998629331589 -0.1309020072221756 0.051545001566410065
  endloop
 endfacet
 facet normal 0.53327425621669622 -0.15856254713564832 0.83094914784382845
  outer loop
   vertex 0.034338001161813736 -0.13066299259662628 0.051906999200582504
   vertex 0.034478001296520233 -0.13206300139427185 0.051550000905990601
   vertex 0.034830998629331589 -0.1309020072221756 0.051545001566410065
  endloop
 endfacet
 facet normal 0.76899189067401008 0.036842044711576441 -0.63819600109925578
  outer loop
   vertex 0.034821998327970505 -0.13187900185585022 0.044982001185417175
   vertex 0.034683000296354294 -0.13022500276565552 0.044909998774528503
   vertex 0.035218998789787292 -0.13133099675178528 0.045492000877857208
  endloop
 endfacet
 facet normal 0.91534656685631899 0.38913541946359292 -0.10350984428180791
  outer loop
   vertex 0.034781999886035919 -0.13006499409675598 0.046386998146772385
   vertex 0.035218998789787292 -0.13133099675178528 0.045492000877857208
   vertex 0.034683000296354294 -0.13022500276565552 0.044909998774528503
  endloop
 endfacet
 facet normal 0.92873766662594182 0.36530110877539845 -0.063256987895927444
  outer loop
   vertex 0.035218998789787292 -0.13133099675178528 0.045492000877857208
   vertex 0.034781999886035919 -0.13006499409675598 0.046386998146772385
   vertex 0.034999001771211624 -0.13056699931621552 0.046673998236656189
  endloop
 endfacet
 facet normal -0.44534347125305096 -0.70266226458348569 -0.55491885401623398
  outer loop
   vertex 0.026190999895334244 -0.12610200047492981 0.043914999812841415
   vertex 0.028351999819278717 -0.12858200073242188 0.045320998877286911
   vertex 0.023801000788807869 -0.12485100328922272 0.044248998165130615
  endloop
 endfacet
 facet normal -0.60887436610355095 -0.78161486086949672 -0.13546296752233203
  outer loop
   vertex 0.028351999819278717 -0.12858200073242188 0.045320998877286911
   vertex 0.026150999590754509 -0.12734299898147583 0.048064999282360077
   vertex 0.023801000788807869 -0.12485100328922272 0.044248998165130615
  endloop
 endfacet
 facet normal -0.53157213006092008 -0.62739272795246059 -0.56904256031940714
  outer loop
   vertex 0.028351999819278717 -0.12858200073242188 0.045320998877286911
   vertex 0.028618000447750092 -0.12826499342918396 0.044723000377416611
   vertex 0.029851000756025314 -0.1292870044708252 0.044697999954223633
  endloop
 endfacet
 facet normal -0.43598868906099347 -0.70033580342103474 -0.56519344074174294
  outer loop
   vertex 0.028351999819278717 -0.12858200073242188 0.045320998877286911
   vertex 0.026190999895334244 -0.12610200047492981 0.043914999812841415
   vertex 0.028618000447750092 -0.12826499342918396 0.044723000377416611
  endloop
 endfacet
 facet normal -0.64578278197688355 -0.75734897578480753 -0.096887188935896471
  outer loop
   vertex 0.022454999387264252 -0.12413299828767776 0.047607999294996262
   vertex 0.023801000788807869 -0.12485100328922272 0.044248998165130615
   vertex 0.026150999590754509 -0.12734299898147583 0.048064999282360077
  endloop
 endfacet
 facet normal -0.65694703576245272 -0.72907073021057089 0.19203245182299686
  outer loop
   vertex 0.022454999387264252 -0.12413299828767776 0.047607999294996262
   vertex 0.026150999590754509 -0.12734299898147583 0.048064999282360077
   vertex 0.021730000153183937 -0.12332300096750259 0.0482029989361763
  endloop
 endfacet
 facet normal -0.56617293304821126 -0.6305593273688489 0.53088901340273587
  outer loop
   vertex 0.020694000646471977 -0.12141100317239761 0.04929099977016449
   vertex 0.026150999590754509 -0.12734299898147583 0.048064999282360077
   vertex 0.026589000597596169 -0.12648600339889526 0.049550000578165054
  endloop
 endfacet
 facet normal -0.54407515688496844 -0.61783507721183817 0.5676812847251872
  outer loop
   vertex 0.020694000646471977 -0.12141100317239761 0.04929099977016449
   vertex 0.021730000153183937 -0.12332300096750259 0.0482029989361763
   vertex 0.026150999590754509 -0.12734299898147583 0.048064999282360077
  endloop
 endfacet
 facet normal 0.32724824429930988 0.045962090429085181 -0.94381993666504416
  outer loop
   vertex 0.029851000756025314 -0.1292870044708252 0.044697999954223633
   vertex 0.029354000464081764 -0.12757599353790283 0.044608999043703079
   vertex 0.030401000753045082 -0.12848000228404999 0.044927999377250671
  endloop
 endfacet
 facet normal -0.08296548059445942 -0.075786245172669367 -0.99366653061897914
  outer loop
   vertex 0.029354000464081764 -0.12757599353790283 0.044608999043703079
   vertex 0.029851000756025314 -0.1292870044708252 0.044697999954223633
   vertex 0.028618000447750092 -0.12826499342918396 0.044723000377416611
  endloop
 endfacet
 facet normal -0.36812955303816058 0.47815595559081275 -0.79740047298265437
  outer loop
   vertex 0.029851000756025314 -0.1292870044708252 0.044697999954223633
   vertex 0.030401000753045082 -0.12848000228404999 0.044927999377250671
   vertex 0.030905000865459442 -0.12926100194454193 0.044227000325918198
  endloop
 endfacet
 facet normal -0.13606489642122352 0.45147197663409877 -0.88184998626522715
  outer loop
   vertex 0.032012000679969788 -0.12936100363731384 0.044004999101161957
   vertex 0.030905000865459442 -0.12926100194454193 0.044227000325918198
   vertex 0.031403999775648117 -0.12838399410247803 0.044599000364542007
  endloop
 endfacet
 facet normal -0.31120530139304392 0.51567099398016791 -0.79826980799249225
  outer loop
   vertex 0.031403999775648117 -0.12838399410247803 0.044599000364542007
   vertex 0.030905000865459442 -0.12926100194454193 0.044227000325918198
   vertex 0.030401000753045082 -0.12848000228404999 0.044927999377250671
  endloop
 endfacet
 facet normal 0.19869803393207702 0.3016046096888948 -0.93249865990570557
  outer loop
   vertex 0.033309999853372574 -0.12909999489784241 0.044365998357534409
   vertex 0.033341001719236374 -0.12991499900817871 0.044109001755714417
   vertex 0.032012000679969788 -0.12936100363731384 0.044004999101161957
  endloop
 endfacet
 facet normal 0.11306751775398809 0.56659608316092758 -0.81620133237801495
  outer loop
   vertex 0.031403999775648117 -0.12838399410247803 0.044599000364542007
   vertex 0.033309999853372574 -0.12909999489784241 0.044365998357534409
   vertex 0.032012000679969788 -0.12936100363731384 0.044004999101161957
  endloop
 endfacet
 facet normal 0.53874491442924188 0.2719309668853957 -0.79737536105989792
  outer loop
   vertex 0.033309999853372574 -0.12909999489784241 0.044365998357534409
   vertex 0.034683000296354294 -0.13022500276565552 0.044909998774528503
   vertex 0.033341001719236374 -0.12991499900817871 0.044109001755714417
  endloop
 endfacet
 facet normal 0.65336626116627972 0.74670327933268366 -0.12468657266687848
  outer loop
   vertex 0.034683000296354294 -0.13022500276565552 0.044909998774528503
   vertex 0.033488001674413681 -0.12898300588130951 0.04608599841594696
   vertex 0.034781999886035919 -0.13006499409675598 0.046386998146772385
  endloop
 endfacet
 facet normal 0.65701720787788465 0.74448297501416849 -0.11863173465140604
  outer loop
   vertex 0.033488001674413681 -0.12898300588130951 0.04608599841594696
   vertex 0.034683000296354294 -0.13022500276565552 0.044909998774528503
   vertex 0.033309999853372574 -0.12909999489784241 0.044365998357534409
  endloop
 endfacet
 facet normal -0.25354432478481043 -0.057111128849552335 0.9656363675478179
  outer loop
   vertex 0.033776000142097473 -0.12963899970054626 0.051819998770952225
   vertex 0.031311001628637314 -0.13039599359035492 0.051128000020980835
   vertex 0.034338001161813736 -0.13066299259662628 0.051906999200582504
  endloop
 endfacet
 facet normal 0.5527910380156269 0.36695628977578226 0.74817454493159397
  outer loop
   vertex 0.034338001161813736 -0.13066299259662628 0.051906999200582504
   vertex 0.034630000591278076 -0.13021799921989441 0.051472999155521393
   vertex 0.033776000142097473 -0.12963899970054626 0.051819998770952225
  endloop
 endfacet
 facet normal 0.65101316461429881 0.26613381525420005 0.71088300857252107
  outer loop
   vertex 0.034630000591278076 -0.13021799921989441 0.051472999155521393
   vertex 0.034338001161813736 -0.13066299259662628 0.051906999200582504
   vertex 0.034830998629331589 -0.1309020072221756 0.051545001566410065
  endloop
 endfacet
 facet normal -0.05338507057865579 0.21269783270110612 0.97565858075638534
  outer loop
   vertex 0.029500000178813934 -0.12879200279712677 0.05021199956536293
   vertex 0.029289999976754189 -0.12796400487422943 0.050020001828670502
   vertex 0.026589000597596169 -0.12648600339889526 0.049550000578165054
  endloop
 endfacet
 facet normal -0.075388162582016888 -0.036714199376351897 0.99647814452032057
  outer loop
   vertex 0.026589000597596169 -0.12648600339889526 0.049550000578165054
   vertex 0.028821999207139015 -0.12700000405311584 0.049699999392032623
   vertex 0.020694000646471977 -0.12141100317239761 0.04929099977016449
  endloop
 endfacet
 facet normal 0.0098534743765673182 0.31933831471691287 0.94758954711228849
  outer loop
   vertex 0.029289999976754189 -0.12796400487422943 0.050020001828670502
   vertex 0.028821999207139015 -0.12700000405311584 0.049699999392032623
   vertex 0.026589000597596169 -0.12648600339889526 0.049550000578165054
  endloop
 endfacet
 facet normal -0.56468952246341064 0.047832390847493786 0.82391613991100943
  outer loop
   vertex 0.029500000178813934 -0.12879200279712677 0.05021199956536293
   vertex 0.030363999307155609 -0.12892700731754303 0.050811998546123505
   vertex 0.029289999976754189 -0.12796400487422943 0.050020001828670502
  endloop
 endfacet
 facet normal -0.32678545237477419 0.33842829884179687 0.88242708178028029
  outer loop
   vertex 0.030363999307155609 -0.12892700731754303 0.050811998546123505
   vertex 0.031156999990344048 -0.12939199805259705 0.051284000277519226
   vertex 0.031091999262571335 -0.12806500494480133 0.050751000642776489
  endloop
 endfacet
 facet normal -0.4420781966892709 0.42909388819195687 0.78768350441549217
  outer loop
   vertex 0.030363999307155609 -0.12892700731754303 0.050811998546123505
   vertex 0.031091999262571335 -0.12806500494480133 0.050751000642776489
   vertex 0.029791999608278275 -0.1277099996805191 0.049828000366687775
  endloop
 endfacet
 facet normal -0.016814181924021086 0.62385601778472211 0.7813584019897748
  outer loop
   vertex 0.029289999976754189 -0.12796400487422943 0.050020001828670502
   vertex 0.030363999307155609 -0.12892700731754303 0.050811998546123505
   vertex 0.029791999608278275 -0.1277099996805191 0.049828000366687775
  endloop
 endfacet
 facet normal -0.028910097549564015 -0.15780137722788595 0.9870475832525285
  outer loop
   vertex 0.031725000590085983 -0.12880800664424896 0.051394000649452209
   vertex 0.031156999990344048 -0.12939199805259705 0.051284000277519226
   vertex 0.031311001628637314 -0.13039599359035492 0.051128000020980835
  endloop
 endfacet
 facet normal -0.20321453891053132 -0.10999526104871349 0.9729362228441315
  outer loop
   vertex 0.031725000590085983 -0.12880800664424896 0.051394000649452209
   vertex 0.031311001628637314 -0.13039599359035492 0.051128000020980835
   vertex 0.03269600123167038 -0.12893900275230408 0.051582001149654388
  endloop
 endfacet
 facet normal -0.25236281516517478 -0.061022682012509377 0.96570660233940009
  outer loop
   vertex 0.03269600123167038 -0.12893900275230408 0.051582001149654388
   vertex 0.031311001628637314 -0.13039599359035492 0.051128000020980835
   vertex 0.033776000142097473 -0.12963899970054626 0.051819998770952225
  endloop
 endfacet
 facet normal -0.47587071759200916 0.30764034909237109 0.82395659821909939
  outer loop
   vertex 0.031725000590085983 -0.12880800664424896 0.051394000649452209
   vertex 0.031091999262571335 -0.12806500494480133 0.050751000642776489
   vertex 0.031156999990344048 -0.12939199805259705 0.051284000277519226
  endloop
 endfacet
 facet normal 0.87322302375443017 0.47497916361017695 0.1089786443361578
  outer loop
   vertex 0.034276999533176422 -0.12954699993133545 0.051376998424530029
   vertex 0.034630000591278076 -0.13021799921989441 0.051472999155521393
   vertex 0.034497998654842377 -0.12955200672149658 0.04962800070643425
  endloop
 endfacet
 facet normal 0.55583834294850265 0.82851578154898109 0.067862627657228419
  outer loop
   vertex 0.034497998654842377 -0.12955200672149658 0.04962800070643425
   vertex 0.032701000571250916 -0.12846200168132782 0.051038999110460281
   vertex 0.034276999533176422 -0.12954699993133545 0.051376998424530029
  endloop
 endfacet
 facet normal 0.48578754044772648 0.87233217283224207 -0.055200052423234947
  outer loop
   vertex 0.034497998654842377 -0.12955200672149658 0.04962800070643425
   vertex 0.033194001764059067 -0.12894099950790405 0.047807998955249786
   vertex 0.032701000571250916 -0.12846200168132782 0.051038999110460281
  endloop
 endfacet
 facet normal 0.4268162402473949 0.90290787342868961 0.050845542199483618
  outer loop
   vertex 0.029923999682068825 -0.12744799256324768 0.048744998872280121
   vertex 0.033194001764059067 -0.12894099950790405 0.047807998955249786
   vertex 0.033488001674413681 -0.12898300588130951 0.04608599841594696
  endloop
 endfacet
 facet normal 0.39624755645090071 0.91505918748512927 -0.075196791193144555
  outer loop
   vertex 0.032701000571250916 -0.12846200168132782 0.051038999110460281
   vertex 0.033194001764059067 -0.12894099950790405 0.047807998955249786
   vertex 0.029923999682068825 -0.12744799256324768 0.048744998872280121
  endloop
 endfacet
 facet normal 0.33103059243480198 0.93850764779921569 -0.098092517016575981
  outer loop
   vertex 0.029923999682068825 -0.12744799256324768 0.048744998872280121
   vertex 0.033488001674413681 -0.12898300588130951 0.04608599841594696
   vertex 0.033309999853372574 -0.12909999489784241 0.044365998357534409
  endloop
 endfacet
 facet normal 0.56466660099075983 0.40032023300861691 0.7217307952203984
  outer loop
   vertex 0.034630000591278076 -0.13021799921989441 0.051472999155521393
   vertex 0.034276999533176422 -0.12954699993133545 0.051376998424530029
   vertex 0.033776000142097473 -0.12963899970054626 0.051819998770952225
  endloop
 endfacet
 facet normal -0.45529636750827673 -0.73611584709887157 -0.50083797518127438
  outer loop
   vertex 0.026190999895334244 -0.12610200047492981 0.043914999812841415
   vertex 0.023801000788807869 -0.12485100328922272 0.044248998165130615
   vertex 0.024439999833703041 -0.12432499974966049 0.042895000427961349
  endloop
 endfacet
 facet normal 0.0085211786325991926 -0.34152067642413686 -0.93983563301755668
  outer loop
   vertex 0.027767999097704887 -0.12654699385166168 0.044091001152992249
   vertex 0.028618000447750092 -0.12826499342918396 0.044723000377416611
   vertex 0.026190999895334244 -0.12610200047492981 0.043914999812841415
  endloop
 endfacet
 facet normal -0.058584495952518217 -0.53976021923087325 -0.83977780547584668
  outer loop
   vertex 0.024439999833703041 -0.12432499974966049 0.042895000427961349
   vertex 0.027767999097704887 -0.12654699385166168 0.044091001152992249
   vertex 0.026190999895334244 -0.12610200047492981 0.043914999812841415
  endloop
 endfacet
 facet normal -0.048198045674514564 -0.74723812849624238 -0.66280625201833332
  outer loop
   vertex 0.020997000858187675 -0.12091100215911865 0.040010999888181686
   vertex 0.023801000788807869 -0.12485100328922272 0.044248998165130615
   vertex 0.020002000033855438 -0.12133999913930893 0.040566999465227127
  endloop
 endfacet
 facet normal -0.37689160835217078 -0.78941292623105319 -0.48454096571191985
  outer loop
   vertex 0.024439999833703041 -0.12432499974966049 0.042895000427961349
   vertex 0.023801000788807869 -0.12485100328922272 0.044248998165130615
   vertex 0.020997000858187675 -0.12091100215911865 0.040010999888181686
  endloop
 endfacet
 facet normal -0.48553149368373877 -0.82590803945728131 -0.28659218237954009
  outer loop
   vertex 0.01799900084733963 -0.12075100094079971 0.042263001203536987
   vertex 0.020002000033855438 -0.12133999913930893 0.040566999465227127
   vertex 0.023801000788807869 -0.12485100328922272 0.044248998165130615
  endloop
 endfacet
 facet normal -0.56483881234570366 -0.82366830577380712 -0.050275621643108337
  outer loop
   vertex 0.01799900084733963 -0.12075100094079971 0.042263001203536987
   vertex 0.023801000788807869 -0.12485100328922272 0.044248998165130615
   vertex 0.022454999387264252 -0.12413299828767776 0.047607999294996262
  endloop
 endfacet
 facet normal 0.12297063539293629 -0.28847227012139309 -0.94955883030071775
  outer loop
   vertex 0.028618000447750092 -0.12826499342918396 0.044723000377416611
   vertex 0.027767999097704887 -0.12654699385166168 0.044091001152992249
   vertex 0.029354000464081764 -0.12757599353790283 0.044608999043703079
  endloop
 endfacet
 facet normal -0.58023184013400786 -0.75094778416127239 0.31529103564481231
  outer loop
   vertex 0.022454999387264252 -0.12413299828767776 0.047607999294996262
   vertex 0.021730000153183937 -0.12332300096750259 0.0482029989361763
   vertex 0.017660999670624733 -0.12101999670267105 0.046199999749660492
  endloop
 endfacet
 facet normal -0.52036283395252203 -0.84775953794763081 -0.10259769422223609
  outer loop
   vertex 0.022454999387264252 -0.12413299828767776 0.047607999294996262
   vertex 0.017660999670624733 -0.12101999670267105 0.046199999749660492
   vertex 0.01799900084733963 -0.12075100094079971 0.042263001203536987
  endloop
 endfacet
 facet normal -0.5935878548223491 -0.69318473501121947 0.4088378428605004
  outer loop
   vertex 0.017660999670624733 -0.12101999670267105 0.046199999749660492
   vertex 0.021730000153183937 -0.12332300096750259 0.0482029989361763
   vertex 0.018002999946475029 -0.11976700276136398 0.048820998519659042
  endloop
 endfacet
 facet normal -0.4847761267661515 -0.61599793105047629 0.62091759184221929
  outer loop
   vertex 0.018002999946475029 -0.11976700276136398 0.048820998519659042
   vertex 0.021730000153183937 -0.12332300096750259 0.0482029989361763
   vertex 0.020694000646471977 -0.12141100317239761 0.04929099977016449
  endloop
 endfacet
 facet normal -0.44558285284310656 -0.5212819577377712 0.72781937442560229
  outer loop
   vertex 0.019077999517321587 -0.11946699768304825 0.0496940016746521
   vertex 0.018002999946475029 -0.11976700276136398 0.048820998519659042
   vertex 0.020694000646471977 -0.12141100317239761 0.04929099977016449
  endloop
 endfacet
 facet normal -0.065169222214057368 -0.25421241615825135 0.9649502681211084
  outer loop
   vertex 0.022051999345421791 -0.1209620013833046 0.049501001834869385
   vertex 0.019077999517321587 -0.11946699768304825 0.0496940016746521
   vertex 0.020694000646471977 -0.12141100317239761 0.04929099977016449
  endloop
 endfacet
 facet normal -0.083370025362016931 -0.20405336913313515 0.97540333268681889
  outer loop
   vertex 0.023217000067234039 -0.12167699635028839 0.049451000988483429
   vertex 0.022051999345421791 -0.1209620013833046 0.049501001834869385
   vertex 0.020694000646471977 -0.12141100317239761 0.04929099977016449
  endloop
 endfacet
 facet normal -0.065630339367218432 -0.02244206378992776 0.99759160598282526
  outer loop
   vertex 0.020694000646471977 -0.12141100317239761 0.04929099977016449
   vertex 0.028821999207139015 -0.12700000405311584 0.049699999392032623
   vertex 0.023217000067234039 -0.12167699635028839 0.049451000988483429
  endloop
 endfacet
 facet normal 0.67234254059672793 0.66135606560312477 -0.33251114657089714
  outer loop
   vertex 0.029354000464081764 -0.12757599353790283 0.044608999043703079
   vertex 0.030527999624609947 -0.12804600596427917 0.046048000454902649
   vertex 0.030401000753045082 -0.12848000228404999 0.044927999377250671
  endloop
 endfacet
 facet normal 0.74474395241299773 0.64972257271224676 0.15237133540284362
  outer loop
   vertex 0.023748999461531639 -0.12117800116539001 0.044723000377416611
   vertex 0.023217000067234039 -0.12167699635028839 0.049451000988483429
   vertex 0.029354000464081764 -0.12757599353790283 0.044608999043703079
  endloop
 endfacet
 facet normal 0.64134500044825726 0.75905204235154322 -0.11187755539864119
  outer loop
   vertex 0.029354000464081764 -0.12757599353790283 0.044608999043703079
   vertex 0.023217000067234039 -0.12167699635028839 0.049451000988483429
   vertex 0.029923999682068825 -0.12744799256324768 0.048744998872280121
  endloop
 endfacet
 facet normal 0.46452908672828885 0.88084100766090623 -0.091278950510516793
  outer loop
   vertex 0.029923999682068825 -0.12744799256324768 0.048744998872280121
   vertex 0.030527999624609947 -0.12804600596427917 0.046048000454902649
   vertex 0.029354000464081764 -0.12757599353790283 0.044608999043703079
  endloop
 endfacet
 facet normal 0.74507913794264624 0.65497548261490257 -0.12595314754311901
  outer loop
   vertex 0.02544499933719635 -0.12335000187158585 0.043460998684167862
   vertex 0.023748999461531639 -0.12117800116539001 0.044723000377416611
   vertex 0.029354000464081764 -0.12757599353790283 0.044608999043703079
  endloop
 endfacet
 facet normal 0.35107047436196481 0.071109970014899992 -0.93364495082217691
  outer loop
   vertex 0.029354000464081764 -0.12757599353790283 0.044608999043703079
   vertex 0.027767999097704887 -0.12654699385166168 0.044091001152992249
   vertex 0.02544499933719635 -0.12335000187158585 0.043460998684167862
  endloop
 endfacet
 facet normal -0.19793782527940601 0.92134724259051159 -0.33457417099130671
  outer loop
   vertex 0.030527999624609947 -0.12804600596427917 0.046048000454902649
   vertex 0.031403999775648117 -0.12838399410247803 0.044599000364542007
   vertex 0.030401000753045082 -0.12848000228404999 0.044927999377250671
  endloop
 endfacet
 facet normal 0.34061599340520127 0.93591360392300216 -0.089702123879235457
  outer loop
   vertex 0.033309999853372574 -0.12909999489784241 0.044365998357534409
   vertex 0.031403999775648117 -0.12838399410247803 0.044599000364542007
   vertex 0.029923999682068825 -0.12744799256324768 0.048744998872280121
  endloop
 endfacet
 facet normal 0.029587091662836518 0.97724063524242544 -0.21006033618443037
  outer loop
   vertex 0.031403999775648117 -0.12838399410247803 0.044599000364542007
   vertex 0.030527999624609947 -0.12804600596427917 0.046048000454902649
   vertex 0.029923999682068825 -0.12744799256324768 0.048744998872280121
  endloop
 endfacet
 facet normal 0.3594600163382099 0.74544922034869188 0.56133230491007835
  outer loop
   vertex 0.034276999533176422 -0.12954699993133545 0.051376998424530029
   vertex 0.03269600123167038 -0.12893900275230408 0.051582001149654388
   vertex 0.033776000142097473 -0.12963899970054626 0.051819998770952225
  endloop
 endfacet
 facet normal 0.15705026791493837 0.37897887167445599 0.91198148455558148
  outer loop
   vertex 0.029289999976754189 -0.12796400487422943 0.050020001828670502
   vertex 0.029791999608278275 -0.1277099996805191 0.049828000366687775
   vertex 0.028821999207139015 -0.12700000405311584 0.049699999392032623
  endloop
 endfacet
 facet normal 0.62132694458710314 0.6730122501709328 0.40125719812847299
  outer loop
   vertex 0.029923999682068825 -0.12744799256324768 0.048744998872280121
   vertex 0.023217000067234039 -0.12167699635028839 0.049451000988483429
   vertex 0.028821999207139015 -0.12700000405311584 0.049699999392032623
  endloop
 endfacet
 facet normal 0.54794893723679594 0.79534092127527634 0.25920027223377023
  outer loop
   vertex 0.029923999682068825 -0.12744799256324768 0.048744998872280121
   vertex 0.028821999207139015 -0.12700000405311584 0.049699999392032623
   vertex 0.029791999608278275 -0.1277099996805191 0.049828000366687775
  endloop
 endfacet
 facet normal 0.032441095862809702 0.66970257146729939 0.74192050859192893
  outer loop
   vertex 0.031725000590085983 -0.12880800664424896 0.051394000649452209
   vertex 0.032701000571250916 -0.12846200168132782 0.051038999110460281
   vertex 0.031091999262571335 -0.12806500494480133 0.050751000642776489
  endloop
 endfacet
 facet normal 0.23112943636139652 0.97172770200528147 0.048212620783336706
  outer loop
   vertex 0.032701000571250916 -0.12846200168132782 0.051038999110460281
   vertex 0.029791999608278275 -0.1277099996805191 0.049828000366687775
   vertex 0.031091999262571335 -0.12806500494480133 0.050751000642776489
  endloop
 endfacet
 facet normal 0.14382472516730832 0.95770636468481729 0.24922473286722571
  outer loop
   vertex 0.029791999608278275 -0.1277099996805191 0.049828000366687775
   vertex 0.032701000571250916 -0.12846200168132782 0.051038999110460281
   vertex 0.029923999682068825 -0.12744799256324768 0.048744998872280121
  endloop
 endfacet
 facet normal -0.026373348676925343 0.7511491735788749 0.65960546200841796
  outer loop
   vertex 0.031725000590085983 -0.12880800664424896 0.051394000649452209
   vertex 0.03269600123167038 -0.12893900275230408 0.051582001149654388
   vertex 0.032701000571250916 -0.12846200168132782 0.051038999110460281
  endloop
 endfacet
 facet normal 0.3503765860053904 0.70206317878667424 0.61995446685313726
  outer loop
   vertex 0.03269600123167038 -0.12893900275230408 0.051582001149654388
   vertex 0.034276999533176422 -0.12954699993133545 0.051376998424530029
   vertex 0.032701000571250916 -0.12846200168132782 0.051038999110460281
  endloop
 endfacet
 facet normal 0.46478554053653082 -0.24903883262086299 -0.84967879881458874
  outer loop
   vertex 0.02270900085568428 -0.12127099931240082 0.041053000837564468
   vertex 0.024439999833703041 -0.12432499974966049 0.042895000427961349
   vertex 0.020997000858187675 -0.12091100215911865 0.040010999888181686
  endloop
 endfacet
 facet normal 0.18701951923967805 -0.42746375700821537 -0.8844763625263149
  outer loop
   vertex 0.024439999833703041 -0.12432499974966049 0.042895000427961349
   vertex 0.02270900085568428 -0.12127099931240082 0.041053000837564468
   vertex 0.025141999125480652 -0.12396200001239777 0.042867999523878098
  endloop
 endfacet
 facet normal 0.12710430721299368 -0.31574640708094937 -0.9402918172053697
  outer loop
   vertex 0.024439999833703041 -0.12432499974966049 0.042895000427961349
   vertex 0.025141999125480652 -0.12396200001239777 0.042867999523878098
   vertex 0.027767999097704887 -0.12654699385166168 0.044091001152992249
  endloop
 endfacet
 facet normal 0.64979214770562665 0.33798636426231793 -0.68083432812458045
  outer loop
   vertex 0.027767999097704887 -0.12654699385166168 0.044091001152992249
   vertex 0.025141999125480652 -0.12396200001239777 0.042867999523878098
   vertex 0.02544499933719635 -0.12335000187158585 0.043460998684167862
  endloop
 endfacet
 facet normal -0.187784396112435 -0.58603543696159055 -0.78822553067121948
  outer loop
   vertex 0.020213000476360321 -0.11999399960041046 0.039515998214483261
   vertex 0.020997000858187675 -0.12091100215911865 0.040010999888181686
   vertex 0.020002000033855438 -0.12133999913930893 0.040566999465227127
  endloop
 endfacet
 facet normal 0.23382332207170572 -0.29942302991861031 -0.92502567705426986
  outer loop
   vertex 0.021345000714063644 -0.11931700259447098 0.039583001285791397
   vertex 0.020997000858187675 -0.12091100215911865 0.040010999888181686
   vertex 0.020213000476360321 -0.11999399960041046 0.039515998214483261
  endloop
 endfacet
 facet normal 0.44210972483932437 -0.32137114789105259 -0.83741242915643677
  outer loop
   vertex 0.021345000714063644 -0.11931700259447098 0.039583001285791397
   vertex 0.02270900085568428 -0.12127099931240082 0.041053000837564468
   vertex 0.020997000858187675 -0.12091100215911865 0.040010999888181686
  endloop
 endfacet
 facet normal -0.59985938789331528 -0.63379867896868425 -0.48833180245997504
  outer loop
   vertex 0.020002000033855438 -0.12133999913930893 0.040566999465227127
   vertex 0.01799900084733963 -0.12075100094079971 0.042263001203536987
   vertex 0.018440000712871552 -0.11994100362062454 0.040670000016689301
  endloop
 endfacet
 facet normal -0.48597440599377789 -0.48928031476568024 -0.7241779134313554
  outer loop
   vertex 0.020213000476360321 -0.11999399960041046 0.039515998214483261
   vertex 0.020002000033855438 -0.12133999913930893 0.040566999465227127
   vertex 0.018440000712871552 -0.11994100362062454 0.040670000016689301
  endloop
 endfacet
 facet normal -0.64057826878495561 -0.76040852897599298 -0.10695022496954165
  outer loop
   vertex 0.016517000272870064 -0.11980099976062775 0.044385001063346863
   vertex 0.01799900084733963 -0.12075100094079971 0.042263001203536987
   vertex 0.017660999670624733 -0.12101999670267105 0.046199999749660492
  endloop
 endfacet
 facet normal -0.76874902610085249 -0.57532918208021933 -0.27932287252549987
  outer loop
   vertex 0.016517000272870064 -0.11980099976062775 0.044385001063346863
   vertex 0.017325000837445259 -0.11999800056219101 0.042566999793052673
   vertex 0.01799900084733963 -0.12075100094079971 0.042263001203536987
  endloop
 endfacet
 facet normal -0.74718614008614914 -0.48560376858565335 -0.45376409289252118
  outer loop
   vertex 0.018440000712871552 -0.11994100362062454 0.040670000016689301
   vertex 0.01799900084733963 -0.12075100094079971 0.042263001203536987
   vertex 0.017325000837445259 -0.11999800056219101 0.042566999793052673
  endloop
 endfacet
 facet normal -0.79268702350866638 -0.60214705522481704 0.095216630086618279
  outer loop
   vertex 0.016457999125123024 -0.1193929985165596 0.046473998576402664
   vertex 0.016517000272870064 -0.11980099976062775 0.044385001063346863
   vertex 0.017660999670624733 -0.12101999670267105 0.046199999749660492
  endloop
 endfacet
 facet normal -0.67142744685454603 -0.63069128392942753 0.38911911799066856
  outer loop
   vertex 0.017660999670624733 -0.12101999670267105 0.046199999749660492
   vertex 0.018002999946475029 -0.11976700276136398 0.048820998519659042
   vertex 0.016657000407576561 -0.11938600242137909 0.047116000205278397
  endloop
 endfacet
 facet normal -0.76018687366836712 -0.60287041126426788 0.24220483959732614
  outer loop
   vertex 0.016457999125123024 -0.1193929985165596 0.046473998576402664
   vertex 0.017660999670624733 -0.12101999670267105 0.046199999749660492
   vertex 0.016657000407576561 -0.11938600242137909 0.047116000205278397
  endloop
 endfacet
 facet normal -0.73532295183822582 -0.20910121823391528 0.64465249323415386
  outer loop
   vertex 0.017253000289201736 -0.11904100328683853 0.048200998455286026
   vertex 0.018002999946475029 -0.11976700276136398 0.048820998519659042
   vertex 0.018130000680685043 -0.11833299696445465 0.049430999904870987
  endloop
 endfacet
 facet normal -0.7730671323729883 -0.34286712855269874 0.53367531421514325
  outer loop
   vertex 0.018002999946475029 -0.11976700276136398 0.048820998519659042
   vertex 0.017253000289201736 -0.11904100328683853 0.048200998455286026
   vertex 0.016657000407576561 -0.11938600242137909 0.047116000205278397
  endloop
 endfacet
 facet normal -0.55570412622517307 -0.28327719225603915 0.78163095924090165
  outer loop
   vertex 0.018002999946475029 -0.11976700276136398 0.048820998519659042
   vertex 0.019077999517321587 -0.11946699768304825 0.0496940016746521
   vertex 0.018130000680685043 -0.11833299696445465 0.049430999904870987
  endloop
 endfacet
 facet normal -0.18778596430189867 0.070230022372875095 0.97969596078003274
  outer loop
   vertex 0.019740000367164612 -0.11877100169658661 0.049770999699831009
   vertex 0.018130000680685043 -0.11833299696445465 0.049430999904870987
   vertex 0.019077999517321587 -0.11946699768304825 0.0496940016746521
  endloop
 endfacet
 facet normal 0.0062378059250001103 -0.11581647479420894 0.99325104275982745
  outer loop
   vertex 0.019740000367164612 -0.11877100169658661 0.049770999699831009
   vertex 0.019077999517321587 -0.11946699768304825 0.0496940016746521
   vertex 0.022051999345421791 -0.1209620013833046 0.049501001834869385
  endloop
 endfacet
 facet normal 0.19928013553560581 0.2586038890771663 0.94520445202880587
  outer loop
   vertex 0.022051999345421791 -0.1209620013833046 0.049501001834869385
   vertex 0.023217000067234039 -0.12167699635028839 0.049451000988483429
   vertex 0.022064000368118286 -0.12021099776029587 0.049293000251054764
  endloop
 endfacet
 facet normal 0.35478398883131462 0.2442832914192487 0.90247104928763222
  outer loop
   vertex 0.022064000368118286 -0.12021099776029587 0.049293000251054764
   vertex 0.020539000630378723 -0.11797399818897247 0.049286998808383942
   vertex 0.022051999345421791 -0.1209620013833046 0.049501001834869385
  endloop
 endfacet
 facet normal 0.32553971138674426 0.23051569669863337 0.91699858772289222
  outer loop
   vertex 0.020539000630378723 -0.11797399818897247 0.049286998808383942
   vertex 0.019740000367164612 -0.11877100169658661 0.049770999699831009
   vertex 0.022051999345421791 -0.1209620013833046 0.049501001834869385
  endloop
 endfacet
 facet normal 0.76885020862360798 0.6210850925854271 0.1520613838802807
  outer loop
   vertex 0.023748999461531639 -0.12117800116539001 0.044723000377416611
   vertex 0.022064000368118286 -0.12021099776029587 0.049293000251054764
   vertex 0.023217000067234039 -0.12167699635028839 0.049451000988483429
  endloop
 endfacet
 facet normal 0.89551187548853939 0.36636118648416677 0.25266175392590046
  outer loop
   vertex 0.021276000887155533 -0.11762899905443192 0.048342000693082809
   vertex 0.022064000368118286 -0.12021099776029587 0.049293000251054764
   vertex 0.023748999461531639 -0.12117800116539001 0.044723000377416611
  endloop
 endfacet
 facet normal 0.85424577883578656 0.51367772135312861 0.079995924438048566
  outer loop
   vertex 0.021276000887155533 -0.11762899905443192 0.048342000693082809
   vertex 0.023748999461531639 -0.12117800116539001 0.044723000377416611
   vertex 0.021669000387191772 -0.11721999943256378 0.041519001126289368
  endloop
 endfacet
 facet normal 0.78974135262700484 0.6134144263847463 0.0055979865970818493
  outer loop
   vertex 0.02544499933719635 -0.12335000187158585 0.043460998684167862
   vertex 0.02349499985575676 -0.12082699686288834 0.042093999683856964
   vertex 0.023748999461531639 -0.12117800116539001 0.044723000377416611
  endloop
 endfacet
 facet normal 0.89357253638015743 0.44813597728193028 -0.026500341369532054
  outer loop
   vertex 0.023748999461531639 -0.12117800116539001 0.044723000377416611
   vertex 0.02349499985575676 -0.12082699686288834 0.042093999683856964
   vertex 0.021669000387191772 -0.11721999943256378 0.041519001126289368
  endloop
 endfacet
 facet normal 0.73847274801880847 0.24360425967156052 -0.62874077735058687
  outer loop
   vertex 0.02544499933719635 -0.12335000187158585 0.043460998684167862
   vertex 0.025141999125480652 -0.12396200001239777 0.042867999523878098
   vertex 0.02270900085568428 -0.12127099931240082 0.041053000837564468
  endloop
 endfacet
 facet normal 0.7325216337443482 0.21646439818964827 -0.64541089269774821
  outer loop
   vertex 0.02270900085568428 -0.12127099931240082 0.041053000837564468
   vertex 0.02349499985575676 -0.12082699686288834 0.042093999683856964
   vertex 0.02544499933719635 -0.12335000187158585 0.043460998684167862
  endloop
 endfacet
 facet normal 0.80223808659095397 -0.021339434394562467 -0.59662272917029013
  outer loop
   vertex 0.02349499985575676 -0.12082699686288834 0.042093999683856964
   vertex 0.02270900085568428 -0.12127099931240082 0.041053000837564468
   vertex 0.022097000852227211 -0.11894799768924713 0.040146999061107635
  endloop
 endfacet
 facet normal 0.6348949100866248 -0.12977781234697378 -0.76162075376694549
  outer loop
   vertex 0.022097000852227211 -0.11894799768924713 0.040146999061107635
   vertex 0.02270900085568428 -0.12127099931240082 0.041053000837564468
   vertex 0.021345000714063644 -0.11931700259447098 0.039583001285791397
  endloop
 endfacet
 facet normal -0.50698036309750294 -0.4061556591334507 -0.76026869722973345
  outer loop
   vertex 0.019631000235676765 -0.11898300051689148 0.039363998919725418
   vertex 0.020213000476360321 -0.11999399960041046 0.039515998214483261
   vertex 0.018440000712871552 -0.11994100362062454 0.040670000016689301
  endloop
 endfacet
 facet normal -0.059887425515202722 -0.18203453251986496 -0.98146672141007174
  outer loop
   vertex 0.020213000476360321 -0.11999399960041046 0.039515998214483261
   vertex 0.019631000235676765 -0.11898300051689148 0.039363998919725418
   vertex 0.020476000383496284 -0.1192609965801239 0.039363998919725418
  endloop
 endfacet
 facet normal 0.21855024040648491 -0.27270529971743068 -0.93694589594292699
  outer loop
   vertex 0.020476000383496284 -0.1192609965801239 0.039363998919725418
   vertex 0.021345000714063644 -0.11931700259447098 0.039583001285791397
   vertex 0.020213000476360321 -0.11999399960041046 0.039515998214483261
  endloop
 endfacet
 facet normal 0.24931942460306578 0.10319893122899511 -0.96290695558230832
  outer loop
   vertex 0.020729999989271164 -0.11855900287628174 0.039505001157522202
   vertex 0.021345000714063644 -0.11931700259447098 0.039583001285791397
   vertex 0.020476000383496284 -0.1192609965801239 0.039363998919725418
  endloop
 endfacet
 facet normal 0.47407186465767093 0.29943265923054069 -0.82800721598674831
  outer loop
   vertex 0.022097000852227211 -0.11894799768924713 0.040146999061107635
   vertex 0.021345000714063644 -0.11931700259447098 0.039583001285791397
   vertex 0.020729999989271164 -0.11855900287628174 0.039505001157522202
  endloop
 endfacet
 facet normal -0.79953098672045453 0.57698668548241772 -0.16684293826779042
  outer loop
   vertex 0.019863000139594078 -0.11818400025367737 0.039926998317241669
   vertex 0.018440000712871552 -0.11994100362062454 0.040670000016689301
   vertex 0.020261000841856003 -0.11725600063800812 0.041228998452425003
  endloop
 endfacet
 facet normal -0.74303376434935664 0.6679768516494039 -0.04132494037956732
  outer loop
   vertex 0.019951000809669495 -0.11803799867630005 0.044261999428272247
   vertex 0.020278999581933022 -0.11772999912500381 0.043343000113964081
   vertex 0.018440000712871552 -0.11994100362062454 0.040670000016689301
  endloop
 endfacet
 facet normal -0.79290142569517397 0.48767001949475897 -0.36535637563417717
  outer loop
   vertex 0.019631000235676765 -0.11898300051689148 0.039363998919725418
   vertex 0.018440000712871552 -0.11994100362062454 0.040670000016689301
   vertex 0.019863000139594078 -0.11818400025367737 0.039926998317241669
  endloop
 endfacet
 facet normal -0.32068077246771465 0.93350052879139167 -0.16043878868809139
  outer loop
   vertex 0.018440000712871552 -0.11994100362062454 0.040670000016689301
   vertex 0.017325000837445259 -0.11999800056219101 0.042566999793052673
   vertex 0.018733000382781029 -0.11917900294065475 0.04451800137758255
  endloop
 endfacet
 facet normal -0.83298533627321369 0.53833397130598581 0.12779657621285076
  outer loop
   vertex 0.020261000841856003 -0.11725600063800812 0.041228998452425003
   vertex 0.018440000712871552 -0.11994100362062454 0.040670000016689301
   vertex 0.020278999581933022 -0.11772999912500381 0.043343000113964081
  endloop
 endfacet
 facet normal -0.52485065036187928 0.84170952686036338 -0.1267156943997679
  outer loop
   vertex 0.019406000152230263 -0.11879999935626984 0.044247999787330627
   vertex 0.018440000712871552 -0.11994100362062454 0.040670000016689301
   vertex 0.018733000382781029 -0.11917900294065475 0.04451800137758255
  endloop
 endfacet
 facet normal -0.81319255345152208 0.58098456257511966 0.034275487748397032
  outer loop
   vertex 0.018440000712871552 -0.11994100362062454 0.040670000016689301
   vertex 0.019406000152230263 -0.11879999935626984 0.044247999787330627
   vertex 0.019951000809669495 -0.11803799867630005 0.044261999428272247
  endloop
 endfacet
 facet normal -0.20064036562285478 0.96041640459216226 -0.19324537115540769
  outer loop
   vertex 0.016457999125123024 -0.1193929985165596 0.046473998576402664
   vertex 0.017325000837445259 -0.11999800056219101 0.042566999793052673
   vertex 0.016517000272870064 -0.11980099976062775 0.044385001063346863
  endloop
 endfacet
 facet normal -0.12514359955787213 0.97587847841980779 -0.17888620641832559
  outer loop
   vertex 0.016457999125123024 -0.1193929985165596 0.046473998576402664
   vertex 0.018582999706268311 -0.11932799965143204 0.045341998338699341
   vertex 0.017325000837445259 -0.11999800056219101 0.042566999793052673
  endloop
 endfacet
 facet normal -0.55281700228119401 0.83181474891327412 0.049775350116107842
  outer loop
   vertex 0.017325000837445259 -0.11999800056219101 0.042566999793052673
   vertex 0.018582999706268311 -0.11932799965143204 0.045341998338699341
   vertex 0.018733000382781029 -0.11917900294065475 0.04451800137758255
  endloop
 endfacet
 facet normal -0.3181410348355066 0.94391972427098936 0.088328002841524755
  outer loop
   vertex 0.016657000407576561 -0.11938600242137909 0.047116000205278397
   vertex 0.018056999891996384 -0.11892499774694443 0.047231998294591904
   vertex 0.016457999125123024 -0.1193929985165596 0.046473998576402664
  endloop
 endfacet
 facet normal -0.16165638887903017 0.95501421622516403 -0.24862634362116096
  outer loop
   vertex 0.016457999125123024 -0.1193929985165596 0.046473998576402664
   vertex 0.018056999891996384 -0.11892499774694443 0.047231998294591904
   vertex 0.018582999706268311 -0.11932799965143204 0.045341998338699341
  endloop
 endfacet
 facet normal -0.29972172101305855 0.94433612262197231 -0.13563250887700048
  outer loop
   vertex 0.016657000407576561 -0.11938600242137909 0.047116000205278397
   vertex 0.017253000289201736 -0.11904100328683853 0.048200998455286026
   vertex 0.018056999891996384 -0.11892499774694443 0.047231998294591904
  endloop
 endfacet
 facet normal -0.40029377028040336 0.88813042228821071 -0.22580799472309193
  outer loop
   vertex 0.017253000289201736 -0.11904100328683853 0.048200998455286026
   vertex 0.018130000680685043 -0.11833299696445465 0.049430999904870987
   vertex 0.018056999891996384 -0.11892499774694443 0.047231998294591904
  endloop
 endfacet
 facet normal -0.08110904257599591 0.40782186387986091 0.90945184070073859
  outer loop
   vertex 0.01851700060069561 -0.11742199957370758 0.049056999385356903
   vertex 0.018130000680685043 -0.11833299696445465 0.049430999904870987
   vertex 0.019740000367164612 -0.11877100169658661 0.049770999699831009
  endloop
 endfacet
 facet normal -0.56281214439201266 0.80266669056332807 -0.19740484792673912
  outer loop
   vertex 0.018130000680685043 -0.11833299696445465 0.049430999904870987
   vertex 0.01942799985408783 -0.11814100295305252 0.046510998159646988
   vertex 0.018056999891996384 -0.11892499774694443 0.047231998294591904
  endloop
 endfacet
 facet normal -0.8961031824496809 0.2231640910255851 -0.38366244914022812
  outer loop
   vertex 0.018130000680685043 -0.11833299696445465 0.049430999904870987
   vertex 0.01851700060069561 -0.11742199957370758 0.049056999385356903
   vertex 0.01942799985408783 -0.11814100295305252 0.046510998159646988
  endloop
 endfacet
 facet normal 0.035527186452760977 0.49247239272180721 0.86960264571217172
  outer loop
   vertex 0.019740000367164612 -0.11877100169658661 0.049770999699831009
   vertex 0.020539000630378723 -0.11797399818897247 0.049286998808383942
   vertex 0.01851700060069561 -0.11742199957370758 0.049056999385356903
  endloop
 endfacet
 facet normal 0.62882270345566804 0.43041613333451451 0.64755228343668925
  outer loop
   vertex 0.020539000630378723 -0.11797399818897247 0.049286998808383942
   vertex 0.022064000368118286 -0.12021099776029587 0.049293000251054764
   vertex 0.021276000887155533 -0.11762899905443192 0.048342000693082809
  endloop
 endfacet
 facet normal 0.41158710763785472 0.70448261712838278 0.57818707611831777
  outer loop
   vertex 0.020539000630378723 -0.11797399818897247 0.049286998808383942
   vertex 0.021276000887155533 -0.11762899905443192 0.048342000693082809
   vertex 0.019499000161886215 -0.11686000227928162 0.048670001327991486
  endloop
 endfacet
 facet normal 0.043045752823890525 0.51451283817991988 0.85640154280096215
  outer loop
   vertex 0.01851700060069561 -0.11742199957370758 0.049056999385356903
   vertex 0.020539000630378723 -0.11797399818897247 0.049286998808383942
   vertex 0.019499000161886215 -0.11686000227928162 0.048670001327991486
  endloop
 endfacet
 facet normal 0.4219102468528716 0.77258104152939211 0.47445787786684351
  outer loop
   vertex 0.019664999097585678 -0.11629600077867508 0.047603998333215714
   vertex 0.019499000161886215 -0.11686000227928162 0.048670001327991486
   vertex 0.021276000887155533 -0.11762899905443192 0.048342000693082809
  endloop
 endfacet
 facet normal 0.60550916146018585 0.78908205585469926 0.10348026147968538
  outer loop
   vertex 0.021276000887155533 -0.11762899905443192 0.048342000693082809
   vertex 0.020245999097824097 -0.11615800112485886 0.04315200075507164
   vertex 0.019664999097585678 -0.11629600077867508 0.047603998333215714
  endloop
 endfacet
 facet normal 0.65530578760185432 0.75081714470246019 0.082752280671644668
  outer loop
   vertex 0.021669000387191772 -0.11721999943256378 0.041519001126289368
   vertex 0.020245999097824097 -0.11615800112485886 0.04315200075507164
   vertex 0.021276000887155533 -0.11762899905443192 0.048342000693082809
  endloop
 endfacet
 facet normal 0.73223865106167407 0.52541419953483204 -0.43332029356880047
  outer loop
   vertex 0.022097000852227211 -0.11894799768924713 0.040146999061107635
   vertex 0.021376999095082283 -0.11795199662446976 0.040137998759746552
   vertex 0.021669000387191772 -0.11721999943256378 0.041519001126289368
  endloop
 endfacet
 facet normal 0.52893850224839756 0.84408336270235551 -0.08801896186791576
  outer loop
   vertex 0.020245999097824097 -0.11615800112485886 0.04315200075507164
   vertex 0.021669000387191772 -0.11721999943256378 0.041519001126289368
   vertex 0.020539000630378723 -0.11647800356149673 0.041843999177217484
  endloop
 endfacet
 facet normal 0.88116155864487788 0.40798394674921257 -0.23896319122715384
  outer loop
   vertex 0.021669000387191772 -0.11721999943256378 0.041519001126289368
   vertex 0.02349499985575676 -0.12082699686288834 0.042093999683856964
   vertex 0.022097000852227211 -0.11894799768924713 0.040146999061107635
  endloop
 endfacet
 facet normal 0.42937608645639463 0.75724049579791564 -0.49216156686917117
  outer loop
   vertex 0.020525999367237091 -0.11699499934911728 0.040867999196052551
   vertex 0.021669000387191772 -0.11721999943256378 0.041519001126289368
   vertex 0.021376999095082283 -0.11795199662446976 0.040137998759746552
  endloop
 endfacet
 facet normal 0.40480122418525266 0.80579907455616429 -0.43223121167096451
  outer loop
   vertex 0.021669000387191772 -0.11721999943256378 0.041519001126289368
   vertex 0.020525999367237091 -0.11699499934911728 0.040867999196052551
   vertex 0.020539000630378723 -0.11647800356149673 0.041843999177217484
  endloop
 endfacet
 facet normal 0.4771322054150503 0.33758308499866996 -0.8114077392276654
  outer loop
   vertex 0.021376999095082283 -0.11795199662446976 0.040137998759746552
   vertex 0.022097000852227211 -0.11894799768924713 0.040146999061107635
   vertex 0.020729999989271164 -0.11855900287628174 0.039505001157522202
  endloop
 endfacet
 facet normal 0.17521520976211943 0.53258624035058455 -0.82804077608366955
  outer loop
   vertex 0.019863000139594078 -0.11818400025367737 0.039926998317241669
   vertex 0.020476000383496284 -0.1192609965801239 0.039363998919725418
   vertex 0.019631000235676765 -0.11898300051689148 0.039363998919725418
  endloop
 endfacet
 facet normal -0.066457203803111958 0.43227694973375697 -0.89928865154162296
  outer loop
   vertex 0.019863000139594078 -0.11818400025367737 0.039926998317241669
   vertex 0.020225999876856804 -0.11721699684858322 0.040364999324083328
   vertex 0.020476000383496284 -0.1192609965801239 0.039363998919725418
  endloop
 endfacet
 facet normal -0.48242403447436044 0.3369555648143106 -0.80853447564228831
  outer loop
   vertex 0.020225999876856804 -0.11721699684858322 0.040364999324083328
   vertex 0.020729999989271164 -0.11855900287628174 0.039505001157522202
   vertex 0.020476000383496284 -0.1192609965801239 0.039363998919725418
  endloop
 endfacet
 facet normal 0.21819156470274442 0.58332072750899455 -0.7823869694409189
  outer loop
   vertex 0.020225999876856804 -0.11721699684858322 0.040364999324083328
   vertex 0.021376999095082283 -0.11795199662446976 0.040137998759746552
   vertex 0.020729999989271164 -0.11855900287628174 0.039505001157522202
  endloop
 endfacet
 facet normal -0.94256261066451907 0.32978654596876184 0.053071264119862308
  outer loop
   vertex 0.020225999876856804 -0.11721699684858322 0.040364999324083328
   vertex 0.019863000139594078 -0.11818400025367737 0.039926998317241669
   vertex 0.020261000841856003 -0.11725600063800812 0.041228998452425003
  endloop
 endfacet
 facet normal -0.95591614258888713 0.28468340539551479 0.07197004258992537
  outer loop
   vertex 0.020261000841856003 -0.11725600063800812 0.041228998452425003
   vertex 0.020278999581933022 -0.11772999912500381 0.043343000113964081
   vertex 0.020539000630378723 -0.11647800356149673 0.041843999177217484
  endloop
 endfacet
 facet normal -0.83114504648345366 0.49587857092293047 -0.25159959182289998
  outer loop
   vertex 0.020525999367237091 -0.11699499934911728 0.040867999196052551
   vertex 0.020261000841856003 -0.11725600063800812 0.041228998452425003
   vertex 0.020539000630378723 -0.11647800356149673 0.041843999177217484
  endloop
 endfacet
 facet normal -0.65734955410228646 0.75115018679345025 0.060538918074986452
  outer loop
   vertex 0.020261000841856003 -0.11725600063800812 0.041228998452425003
   vertex 0.020525999367237091 -0.11699499934911728 0.040867999196052551
   vertex 0.020225999876856804 -0.11721699684858322 0.040364999324083328
  endloop
 endfacet
 facet normal -0.94542168980810382 0.16024733870994709 -0.28372278526189826
  outer loop
   vertex 0.019951000809669495 -0.11803799867630005 0.044261999428272247
   vertex 0.020109999924898148 -0.11760099977254868 0.043979000300168991
   vertex 0.020278999581933022 -0.11772999912500381 0.043343000113964081
  endloop
 endfacet
 facet normal -0.7212176912403081 0.5241523065906859 -0.45289005435940349
  outer loop
   vertex 0.019496999680995941 -0.11836200207471848 0.044610001146793365
   vertex 0.019951000809669495 -0.11803799867630005 0.044261999428272247
   vertex 0.019406000152230263 -0.11879999935626984 0.044247999787330627
  endloop
 endfacet
 facet normal -0.89624002801666169 0.040007553386411231 -0.44176148298909768
  outer loop
   vertex 0.019951000809669495 -0.11803799867630005 0.044261999428272247
   vertex 0.019880000501871109 -0.11712200194597244 0.044488999992609024
   vertex 0.020109999924898148 -0.11760099977254868 0.043979000300168991
  endloop
 endfacet
 facet normal -0.98974835700667274 -0.042962271604598791 -0.13620731632759164
  outer loop
   vertex 0.019880000501871109 -0.11712200194597244 0.044488999992609024
   vertex 0.019951000809669495 -0.11803799867630005 0.044261999428272247
   vertex 0.019860999658703804 -0.11801899969577789 0.044909998774528503
  endloop
 endfacet
 facet normal -0.63197495807347337 0.76710425204133359 -0.11026658092158992
  outer loop
   vertex 0.019496999680995941 -0.11836200207471848 0.044610001146793365
   vertex 0.019860999658703804 -0.11801899969577789 0.044909998774528503
   vertex 0.019951000809669495 -0.11803799867630005 0.044261999428272247
  endloop
 endfacet
 facet normal -0.97712424514723761 -0.045747104523982479 -0.20769066414529308
  outer loop
   vertex 0.020278999581933022 -0.11772999912500381 0.043343000113964081
   vertex 0.020245999097824097 -0.11615800112485886 0.04315200075507164
   vertex 0.020539000630378723 -0.11647800356149673 0.041843999177217484
  endloop
 endfacet
 facet normal -0.96772345775489577 -0.050318587333817014 -0.2469399705994102
  outer loop
   vertex 0.020245999097824097 -0.11615800112485886 0.04315200075507164
   vertex 0.020278999581933022 -0.11772999912500381 0.043343000113964081
   vertex 0.020109999924898148 -0.11760099977254868 0.043979000300168991
  endloop
 endfacet
 facet normal -0.46648818035817202 0.88138826958205974 0.074454656195994784
  outer loop
   vertex 0.019406000152230263 -0.11879999935626984 0.044247999787330627
   vertex 0.018733000382781029 -0.11917900294065475 0.04451800137758255
   vertex 0.018582999706268311 -0.11932799965143204 0.045341998338699341
  endloop
 endfacet
 facet normal -0.57338457077177563 0.81848075683521837 -0.036323335355042945
  outer loop
   vertex 0.018582999706268311 -0.11932799965143204 0.045341998338699341
   vertex 0.019308999180793762 -0.11883799731731415 0.044923000037670135
   vertex 0.019406000152230263 -0.11879999935626984 0.044247999787330627
  endloop
 endfacet
 facet normal -0.9477646591749016 0.29571871271537953 -0.11955163641306446
  outer loop
   vertex 0.019496999680995941 -0.11836200207471848 0.044610001146793365
   vertex 0.019406000152230263 -0.11879999935626984 0.044247999787330627
   vertex 0.019308999180793762 -0.11883799731731415 0.044923000037670135
  endloop
 endfacet
 facet normal -0.59192952766890394 0.73875990223470889 -0.32226268962421289
  outer loop
   vertex 0.018582999706268311 -0.11932799965143204 0.045341998338699341
   vertex 0.018056999891996384 -0.11892499774694443 0.047231998294591904
   vertex 0.01942799985408783 -0.11814100295305252 0.046510998159646988
  endloop
 endfacet
 facet normal -0.64042674097656105 0.71977055115295863 -0.26792525662039995
  outer loop
   vertex 0.019308999180793762 -0.11883799731731415 0.044923000037670135
   vertex 0.018582999706268311 -0.11932799965143204 0.045341998338699341
   vertex 0.01942799985408783 -0.11814100295305252 0.046510998159646988
  endloop
 endfacet
 facet normal -0.5691654525952301 0.71520122048846724 -0.40563271784198301
  outer loop
   vertex 0.01942799985408783 -0.11814100295305252 0.046510998159646988
   vertex 0.01851700060069561 -0.11742199957370758 0.049056999385356903
   vertex 0.019499000161886215 -0.11686000227928162 0.048670001327991486
  endloop
 endfacet
 facet normal -0.9840399746376769 0.1653552332629607 -0.06574933572008386
  outer loop
   vertex 0.01942799985408783 -0.11814100295305252 0.046510998159646988
   vertex 0.019499000161886215 -0.11686000227928162 0.048670001327991486
   vertex 0.019664999097585678 -0.11629600077867508 0.047603998333215714
  endloop
 endfacet
 facet normal -0.9372049075293355 0.25886228352230656 -0.23374618600641733
  outer loop
   vertex 0.019860999658703804 -0.11801899969577789 0.044909998774528503
   vertex 0.01942799985408783 -0.11814100295305252 0.046510998159646988
   vertex 0.019664999097585678 -0.11629600077867508 0.047603998333215714
  endloop
 endfacet
 facet normal -0.94294320776314788 0.3250718435776821 -0.07201668866555902
  outer loop
   vertex 0.019496999680995941 -0.11836200207471848 0.044610001146793365
   vertex 0.019308999180793762 -0.11883799731731415 0.044923000037670135
   vertex 0.01942799985408783 -0.11814100295305252 0.046510998159646988
  endloop
 endfacet
 facet normal -0.63095768970826427 0.76766891327805964 -0.11214648181950455
  outer loop
   vertex 0.019496999680995941 -0.11836200207471848 0.044610001146793365
   vertex 0.01942799985408783 -0.11814100295305252 0.046510998159646988
   vertex 0.019860999658703804 -0.11801899969577789 0.044909998774528503
  endloop
 endfacet
 facet normal -0.97197953362086953 0.20177552650894184 -0.12059196956761438
  outer loop
   vertex 0.019880000501871109 -0.11712200194597244 0.044488999992609024
   vertex 0.019664999097585678 -0.11629600077867508 0.047603998333215714
   vertex 0.020245999097824097 -0.11615800112485886 0.04315200075507164
  endloop
 endfacet
 facet normal -0.99775489629799297 -0.0099485916419487109 -0.066228335610393457
  outer loop
   vertex 0.019860999658703804 -0.11801899969577789 0.044909998774528503
   vertex 0.019664999097585678 -0.11629600077867508 0.047603998333215714
   vertex 0.019880000501871109 -0.11712200194597244 0.044488999992609024
  endloop
 endfacet
 facet normal -0.93889547109423044 -0.1002291589381136 -0.32928621297786109
  outer loop
   vertex 0.019880000501871109 -0.11712200194597244 0.044488999992609024
   vertex 0.020245999097824097 -0.11615800112485886 0.04315200075507164
   vertex 0.020109999924898148 -0.11760099977254868 0.043979000300168991
  endloop
 endfacet
 facet normal 0.36939157087461544 0.74853533995707822 -0.55067659492857091
  outer loop
   vertex 0.021376999095082283 -0.11795199662446976 0.040137998759746552
   vertex 0.020225999876856804 -0.11721699684858322 0.040364999324083328
   vertex 0.020525999367237091 -0.11699499934911728 0.040867999196052551
  endloop
 endfacet
endsolid
