solid Visualization Toolkit generated SLA File
 facet normal 0.68030894118668395 -0.70971518510897791 0.18298661308189332
  outer loop
   vertex 0.0049899998120963573 -0.007899000309407711 -0.0043319999240338802
   vertex 0.0045509999617934227 -0.0092150000855326653 -0.0078039998188614845
   vertex 0.0069419997744262218 -0.0057520000264048576 -0.0032619999255985022
  endloop
 endfacet
 facet normal 0.55733119184099023 -0.71611920876739044 0.42018474679058465
  outer loop
   vertex 0.0049899998120963573 -0.007899000309407711 -0.0043319999240338802
   vertex 0.0069419997744262218 -0.0057520000264048576 -0.0032619999255985022
   vertex 0.0060330000706017017 -0.0047960001975297928 -0.00042699999175965786
  endloop
 endfacet
 facet normal -0.46347032704861213 -0.66631110403615623 0.58414447577938367
  outer loop
   vertex 0.0021579999011009932 -0.0052120001055300236 -0.0035139999818056822
   vertex 0.0049899998120963573 -0.007899000309407711 -0.0043319999240338802
   vertex 0.0040420000441372395 -0.0043930001556873322 -0.0010849999962374568
  endloop
 endfacet
 facet normal -0.34975408531154611 -0.68573101543127557 0.63831422848270858
  outer loop
   vertex 0.0040420000441372395 -0.0043930001556873322 -0.0010849999962374568
   vertex 0.0049899998120963573 -0.007899000309407711 -0.0043319999240338802
   vertex 0.0060330000706017017 -0.0047960001975297928 -0.00042699999175965786
  endloop
 endfacet
 facet normal -0.5097076460033253 -0.78116199398095354 0.36053301480648031
  outer loop
   vertex 0.0045509999617934227 -0.0092150000855326653 -0.0078039998188614845
   vertex 0.0049899998120963573 -0.007899000309407711 -0.0043319999240338802
   vertex 0.0031129999551922083 -0.00977300014346838 -0.011045999825000763
  endloop
 endfacet
 facet normal -0.42632609187697929 -0.83335981794741276 0.35179180947764604
  outer loop
   vertex 0.0049899998120963573 -0.007899000309407711 -0.0043319999240338802
   vertex -0.00057799997739493847 -0.0071109998971223831 -0.0092129996046423912
   vertex 0.0031129999551922083 -0.00977300014346838 -0.011045999825000763
  endloop
 endfacet
 facet normal -0.52416508835250264 -0.70007425625826358 0.48491957671025415
  outer loop
   vertex -0.00057799997739493847 -0.0071109998971223831 -0.0092129996046423912
   vertex 0.0049899998120963573 -0.007899000309407711 -0.0043319999240338802
   vertex 0.0021579999011009932 -0.0052120001055300236 -0.0035139999818056822
  endloop
 endfacet
 facet normal 0.59362934998902006 -0.79473062902523262 -0.12652044151350228
  outer loop
   vertex 0.0064039998687803745 -0.0077929999679327011 -0.0080420002341270447
   vertex 0.0045509999617934227 -0.0092150000855326653 -0.0078039998188614845
   vertex 0.0031129999551922083 -0.00977300014346838 -0.011045999825000763
  endloop
 endfacet
 facet normal 0.60928413400743353 -0.75171115891093909 0.25239488428964796
  outer loop
   vertex 0.0069419997744262218 -0.0057520000264048576 -0.0032619999255985022
   vertex 0.0045509999617934227 -0.0092150000855326653 -0.0078039998188614845
   vertex 0.0064039998687803745 -0.0077929999679327011 -0.0080420002341270447
  endloop
 endfacet
 facet normal 0.98316378835302165 -0.17953583563441272 -0.033997779256708223
  outer loop
   vertex 0.0069419997744262218 -0.0057520000264048576 -0.0032619999255985022
   vertex 0.0064039998687803745 -0.0077929999679327011 -0.0080420002341270447
   vertex 0.0076139997690916061 -0.00203699991106987 -0.0034469999372959137
  endloop
 endfacet
 facet normal 0.81905986147044951 -0.4103107195483337 0.4009813670879695
  outer loop
   vertex 0.0069419997744262218 -0.0057520000264048576 -0.0032619999255985022
   vertex 0.0063419998623430729 -0.003671000013127923 9.3000002379994839e-05
   vertex 0.0060330000706017017 -0.0047960001975297928 -0.00042699999175965786
  endloop
 endfacet
 facet normal 0.72115925828330973 -0.52353156824796865 0.45370036504293115
  outer loop
   vertex 0.0069419997744262218 -0.0057520000264048576 -0.0032619999255985022
   vertex 0.0065440000034868717 -0.0025009999517351389 0.0011220000451430678
   vertex 0.0063419998623430729 -0.003671000013127923 9.3000002379994839e-05
  endloop
 endfacet
 facet normal 0.96404586024707106 -0.16397106957199689 0.20911496284077874
  outer loop
   vertex 0.0065440000034868717 -0.0025009999517351389 0.0011220000451430678
   vertex 0.0069419997744262218 -0.0057520000264048576 -0.0032619999255985022
   vertex 0.0076139997690916061 -0.00203699991106987 -0.0034469999372959137
  endloop
 endfacet
 facet normal -0.35631505462860652 -0.62217547568299436 0.6970920020367849
  outer loop
   vertex 0.0040420000441372395 -0.0043930001556873322 -0.0010849999962374568
   vertex 0.0060330000706017017 -0.0047960001975297928 -0.00042699999175965786
   vertex 0.0058579999022185802 -0.0031159999780356884 0.00098300003446638584
  endloop
 endfacet
 facet normal 0.62553590325578579 -0.46230729638867379 0.62847179526512031
  outer loop
   vertex 0.0063419998623430729 -0.003671000013127923 9.3000002379994839e-05
   vertex 0.0058579999022185802 -0.0031159999780356884 0.00098300003446638584
   vertex 0.0060330000706017017 -0.0047960001975297928 -0.00042699999175965786
  endloop
 endfacet
 facet normal -0.29686908815229412 -0.81121636269623887 0.50378245046201198
  outer loop
   vertex 0.0021579999011009932 -0.0052120001055300236 -0.0035139999818056822
   vertex 0.0040420000441372395 -0.0043930001556873322 -0.0010849999962374568
   vertex -0.00029900000663474202 -0.0031769999768584967 -0.0016850000247359276
  endloop
 endfacet
 facet normal -0.055828322704999947 -0.70386146801714633 0.70813998067097872
  outer loop
   vertex -0.0018269999418407679 -0.0055709998123347759 -0.0041849999688565731
   vertex 0.0021579999011009932 -0.0052120001055300236 -0.0035139999818056822
   vertex -0.00029900000663474202 -0.0031769999768584967 -0.0016850000247359276
  endloop
 endfacet
 facet normal 0.042202069481867249 -0.96338054713812926 0.26479597188644405
  outer loop
   vertex 0.0021579999011009932 -0.0052120001055300236 -0.0035139999818056822
   vertex -0.0018269999418407679 -0.0055709998123347759 -0.0041849999688565731
   vertex -0.0010319999419152737 -0.0060290000401437283 -0.00597799988463521
  endloop
 endfacet
 facet normal -0.0019115030727521844 -0.94843927084053492 0.31695314430287258
  outer loop
   vertex 0.0021579999011009932 -0.0052120001055300236 -0.0035139999818056822
   vertex -0.0010319999419152737 -0.0060290000401437283 -0.00597799988463521
   vertex -0.00057799997739493847 -0.0071109998971223831 -0.0092129996046423912
  endloop
 endfacet
 facet normal -0.28998780335572194 -0.72966878736217566 0.61926612587346908
  outer loop
   vertex -0.00029900000663474202 -0.0031769999768584967 -0.0016850000247359276
   vertex 0.0040420000441372395 -0.0043930001556873322 -0.0010849999962374568
   vertex 0.0047869998961687088 -0.0019130000146105886 0.0021860001143068075
  endloop
 endfacet
 facet normal -0.16594998774063974 -0.76724882212747136 0.6195077453211455
  outer loop
   vertex 0.0040420000441372395 -0.0043930001556873322 -0.0010849999962374568
   vertex 0.0058579999022185802 -0.0031159999780356884 0.00098300003446638584
   vertex 0.0047869998961687088 -0.0019130000146105886 0.0021860001143068075
  endloop
 endfacet
 facet normal 0.61450996741501285 -0.77152760057001613 -0.16468959137199113
  outer loop
   vertex 0.0064039998687803745 -0.0077929999679327011 -0.0080420002341270447
   vertex 0.0031129999551922083 -0.00977300014346838 -0.011045999825000763
   vertex 0.0050240000709891319 -0.0083219995722174644 -0.010712999850511551
  endloop
 endfacet
 facet normal 0.55602088117610138 -0.6003789792395674 -0.57479201541375524
  outer loop
   vertex 0.0011459999950602651 -0.0098799997940659523 -0.0128370001912117
   vertex 0.0050240000709891319 -0.0083219995722174644 -0.010712999850511551
   vertex 0.0031129999551922083 -0.00977300014346838 -0.011045999825000763
  endloop
 endfacet
 facet normal -0.36487379667087072 -0.81539412202316019 0.44944358742011631
  outer loop
   vertex 0.0011459999950602651 -0.0098799997940659523 -0.0128370001912117
   vertex 0.0031129999551922083 -0.00977300014346838 -0.011045999825000763
   vertex -0.00057799997739493847 -0.0071109998971223831 -0.0092129996046423912
  endloop
 endfacet
 facet normal 0.46193089139270277 -0.81959157829240081 0.3389535312831457
  outer loop
   vertex -0.006068000104278326 -0.0088689997792243958 -0.0059819999150931835
   vertex -0.00057799997739493847 -0.0071109998971223831 -0.0092129996046423912
   vertex -0.0010319999419152737 -0.0060290000401437283 -0.00597799988463521
  endloop
 endfacet
 facet normal 0.44663512647325809 -0.84280271007498453 0.30033423995688263
  outer loop
   vertex -0.0039590001106262207 -0.010356999933719635 -0.013294000178575516
   vertex -0.00057799997739493847 -0.0071109998971223831 -0.0092129996046423912
   vertex -0.006068000104278326 -0.0088689997792243958 -0.0059819999150931835
  endloop
 endfacet
 facet normal -0.13452429835937008 -0.81721364473158187 0.56041508903262349
  outer loop
   vertex -0.0012390000047162175 -0.0099400002509355545 -0.013496999628841877
   vertex 0.0011459999950602651 -0.0098799997940659523 -0.0128370001912117
   vertex -0.00057799997739493847 -0.0071109998971223831 -0.0092129996046423912
  endloop
 endfacet
 facet normal 0.16711835805298783 -0.83439557833666267 0.52521945247096435
  outer loop
   vertex -0.0039590001106262207 -0.010356999933719635 -0.013294000178575516
   vertex -0.0012390000047162175 -0.0099400002509355545 -0.013496999628841877
   vertex -0.00057799997739493847 -0.0071109998971223831 -0.0092129996046423912
  endloop
 endfacet
 facet normal 0.89198064227623186 -0.086097152176995359 -0.44379929494253567
  outer loop
   vertex 0.0064039998687803745 -0.0077929999679327011 -0.0080420002341270447
   vertex 0.0050240000709891319 -0.0083219995722174644 -0.010712999850511551
   vertex 0.006155999843031168 -0.0022179998923093081 -0.0096220001578330994
  endloop
 endfacet
 facet normal 0.97315273947834657 -0.021650021825586882 -0.22913974382620944
  outer loop
   vertex 0.0076139997690916061 -0.00203699991106987 -0.0034469999372959137
   vertex 0.0064039998687803745 -0.0077929999679327011 -0.0080420002341270447
   vertex 0.006155999843031168 -0.0022179998923093081 -0.0096220001578330994
  endloop
 endfacet
 facet normal 0.97116001416981623 0.051924271743811007 0.23270603103821219
  outer loop
   vertex 0.0065440000034868717 -0.0025009999517351389 0.0011220000451430678
   vertex 0.0076139997690916061 -0.00203699991106987 -0.0034469999372959137
   vertex 0.0074990000575780869 0.00020799999765586108 -0.0034680000972002745
  endloop
 endfacet
 facet normal 0.97182182987651222 0.047621925141592497 -0.23085597939251185
  outer loop
   vertex 0.006155999843031168 -0.0022179998923093081 -0.0096220001578330994
   vertex 0.0074990000575780869 0.00020799999765586108 -0.0034680000972002745
   vertex 0.0076139997690916061 -0.00203699991106987 -0.0034469999372959137
  endloop
 endfacet
 facet normal 0.44024439465613613 -0.6346268612414101 0.63516424644711267
  outer loop
   vertex 0.0065440000034868717 -0.0025009999517351389 0.0011220000451430678
   vertex 0.0058579999022185802 -0.0031159999780356884 0.00098300003446638584
   vertex 0.0063419998623430729 -0.003671000013127923 9.3000002379994839e-05
  endloop
 endfacet
 facet normal 0.37025358490000887 -0.57745629151640276 0.72763762564673296
  outer loop
   vertex 0.0065440000034868717 -0.0025009999517351389 0.0011220000451430678
   vertex 0.0053550000302493572 -0.0018420000560581684 0.0022499999031424522
   vertex 0.0058579999022185802 -0.0031159999780356884 0.00098300003446638584
  endloop
 endfacet
 facet normal 0.69855600539810925 0.037222295870018587 0.7145865993792504
  outer loop
   vertex 0.0059199999086558819 -0.00046599999768659472 0.0016260000411421061
   vertex 0.0053550000302493572 -0.0018420000560581684 0.0022499999031424522
   vertex 0.0065440000034868717 -0.0025009999517351389 0.0011220000451430678
  endloop
 endfacet
 facet normal 0.92658363865479987 0.20623051559061867 0.3145023609076073
  outer loop
   vertex 0.0074990000575780869 0.00020799999765586108 -0.0034680000972002745
   vertex 0.0059199999086558819 -0.00046599999768659472 0.0016260000411421061
   vertex 0.0065440000034868717 -0.0025009999517351389 0.0011220000451430678
  endloop
 endfacet
 facet normal 0.0078804464507885585 -0.70356827814046863 0.71058396868926921
  outer loop
   vertex 0.0047869998961687088 -0.0019130000146105886 0.0021860001143068075
   vertex 0.0058579999022185802 -0.0031159999780356884 0.00098300003446638584
   vertex 0.0053550000302493572 -0.0018420000560581684 0.0022499999031424522
  endloop
 endfacet
 facet normal -0.42923189553038815 -0.56714421215715116 0.70292775053773082
  outer loop
   vertex -0.0007789999945089221 -0.0012880000285804272 -0.00045399999362416565
   vertex -0.00029900000663474202 -0.0031769999768584967 -0.0016850000247359276
   vertex 0.0037120000924915075 -0.00011100000119768083 0.0032379999756813049
  endloop
 endfacet
 facet normal -0.36979085961116204 -0.62300577780941946 0.6892884163861438
  outer loop
   vertex -0.00029900000663474202 -0.0031769999768584967 -0.0016850000247359276
   vertex 0.0047869998961687088 -0.0019130000146105886 0.0021860001143068075
   vertex 0.0037120000924915075 -0.00011100000119768083 0.0032379999756813049
  endloop
 endfacet
 facet normal -0.1204510039760664 -0.5632977311033841 0.81742719662055363
  outer loop
   vertex -0.0024510000366717577 -0.0040040002204477787 -0.0025720000267028809
   vertex -0.00029900000663474202 -0.0031769999768584967 -0.0016850000247359276
   vertex -0.0007789999945089221 -0.0012880000285804272 -0.00045399999362416565
  endloop
 endfacet
 facet normal -0.010002423034126557 -0.719155708776124 0.69477695562544173
  outer loop
   vertex -0.0024510000366717577 -0.0040040002204477787 -0.0025720000267028809
   vertex -0.0018269999418407679 -0.0055709998123347759 -0.0041849999688565731
   vertex -0.00029900000663474202 -0.0031769999768584967 -0.0016850000247359276
  endloop
 endfacet
 facet normal 0.36703502018787776 -0.5922245210531375 0.7173251777395423
  outer loop
   vertex -0.0037130001001060009 -0.0067980000749230385 -0.0042329998686909676
   vertex -0.0018269999418407679 -0.0055709998123347759 -0.0041849999688565731
   vertex -0.0024510000366717577 -0.0040040002204477787 -0.0025720000267028809
  endloop
 endfacet
 facet normal 0.52204441616950648 -0.81256652212730229 0.25923980146609338
  outer loop
   vertex -0.0018269999418407679 -0.0055709998123347759 -0.0041849999688565731
   vertex -0.0037130001001060009 -0.0067980000749230385 -0.0042329998686909676
   vertex -0.006068000104278326 -0.0088689997792243958 -0.0059819999150931835
  endloop
 endfacet
 facet normal 0.44933633931417727 -0.79734849191982793 0.40290474879915544
  outer loop
   vertex -0.006068000104278326 -0.0088689997792243958 -0.0059819999150931835
   vertex -0.0010319999419152737 -0.0060290000401437283 -0.00597799988463521
   vertex -0.0018269999418407679 -0.0055709998123347759 -0.0041849999688565731
  endloop
 endfacet
 facet normal -0.031583673187096574 -0.51790288920978178 0.8548561685664855
  outer loop
   vertex 0.0047869998961687088 -0.0019130000146105886 0.0021860001143068075
   vertex 0.0053550000302493572 -0.0018420000560581684 0.0022499999031424522
   vertex 0.0037120000924915075 -0.00011100000119768083 0.0032379999756813049
  endloop
 endfacet
 facet normal 0.7395557416258457 -0.016884211218837274 -0.67288351773524879
  outer loop
   vertex 0.0050240000709891319 -0.0083219995722174644 -0.010712999850511551
   vertex 0.0010710000060498714 -0.0081099998205900192 -0.015062999911606312
   vertex 0.006155999843031168 -0.0022179998923093081 -0.0096220001578330994
  endloop
 endfacet
 facet normal 0.5498769454568766 -0.64463785825128039 -0.53110957114725121
  outer loop
   vertex 0.0011459999950602651 -0.0098799997940659523 -0.0128370001912117
   vertex 0.0010710000060498714 -0.0081099998205900192 -0.015062999911606312
   vertex 0.0050240000709891319 -0.0083219995722174644 -0.010712999850511551
  endloop
 endfacet
 facet normal 0.26391243332205067 -0.75061651788155648 -0.60574340328343745
  outer loop
   vertex 0.0010710000060498714 -0.0081099998205900192 -0.015062999911606312
   vertex 0.0011459999950602651 -0.0098799997940659523 -0.0128370001912117
   vertex -0.0011840000515803695 -0.0083670001477003098 -0.015727000311017036
  endloop
 endfacet
 facet normal 0.17648670752472684 -0.80637888509283451 -0.56445153533631121
  outer loop
   vertex 0.0011459999950602651 -0.0098799997940659523 -0.0128370001912117
   vertex -0.0012390000047162175 -0.0099400002509355545 -0.013496999628841877
   vertex -0.0011840000515803695 -0.0083670001477003098 -0.015727000311017036
  endloop
 endfacet
 facet normal 0.58050398011880178 -0.81422649095206778 -0.0070958084889534544
  outer loop
   vertex -0.0079190004616975784 -0.010191000066697598 -0.0057149999774992466
   vertex -0.006068000104278326 -0.0088689997792243958 -0.0059819999150931835
   vertex -0.00824000034481287 -0.010452999733388424 -0.0019120000069960952
  endloop
 endfacet
 facet normal 0.64112911537215678 -0.76617297734419054 0.043959369987003234
  outer loop
   vertex -0.0037130001001060009 -0.0067980000749230385 -0.0042329998686909676
   vertex -0.00824000034481287 -0.010452999733388424 -0.0019120000069960952
   vertex -0.006068000104278326 -0.0088689997792243958 -0.0059819999150931835
  endloop
 endfacet
 facet normal 0.58078490159393503 -0.74858686837517452 0.31985402698226612
  outer loop
   vertex -0.0039590001106262207 -0.010356999933719635 -0.013294000178575516
   vertex -0.006068000104278326 -0.0088689997792243958 -0.0059819999150931835
   vertex -0.0079190004616975784 -0.010191000066697598 -0.0057149999774992466
  endloop
 endfacet
 facet normal -0.18776301341947596 -0.64443221588464827 -0.74125040972780554
  outer loop
   vertex -0.0039590001106262207 -0.010356999933719635 -0.013294000178575516
   vertex -0.0034149999264627695 -0.0073649999685585499 -0.016032999381422997
   vertex -0.0011840000515803695 -0.0083670001477003098 -0.015727000311017036
  endloop
 endfacet
 facet normal -0.5027957751995914 -0.53215992978125326 -0.68117708239242258
  outer loop
   vertex -0.0034149999264627695 -0.0073649999685585499 -0.016032999381422997
   vertex -0.0039590001106262207 -0.010356999933719635 -0.013294000178575516
   vertex -0.0065509998239576817 -0.0065640001557767391 -0.01434400025755167
  endloop
 endfacet
 facet normal 0.082228006610908275 -0.81534767680980424 -0.57310271404840796
  outer loop
   vertex -0.0039590001106262207 -0.010356999933719635 -0.013294000178575516
   vertex -0.0011840000515803695 -0.0083670001477003098 -0.015727000311017036
   vertex -0.0012390000047162175 -0.0099400002509355545 -0.013496999628841877
  endloop
 endfacet
 facet normal -0.36578004417180648 -0.47201087096126559 -0.80212885310282822
  outer loop
   vertex -0.0065509998239576817 -0.0065640001557767391 -0.01434400025755167
   vertex -0.0039590001106262207 -0.010356999933719635 -0.013294000178575516
   vertex -0.0076139997690916061 -0.011665999889373779 -0.010857000015676022
  endloop
 endfacet
 facet normal 0.47833177567338619 -0.8362087403184304 0.268241784582882
  outer loop
   vertex -0.0039590001106262207 -0.010356999933719635 -0.013294000178575516
   vertex -0.0079190004616975784 -0.010191000066697598 -0.0057149999774992466
   vertex -0.0076139997690916061 -0.011665999889373779 -0.010857000015676022
  endloop
 endfacet
 facet normal 0.85574761248646536 0.38967450418714172 -0.34036716132761646
  outer loop
   vertex 0.006155999843031168 -0.0022179998923093081 -0.0096220001578330994
   vertex 0.0051130000501871109 0.002271000063046813 -0.0071049998514354229
   vertex 0.0074990000575780869 0.00020799999765586108 -0.0034680000972002745
  endloop
 endfacet
 facet normal 0.46117679743330459 0.51306505547511438 -0.72393384391080817
  outer loop
   vertex 0.006155999843031168 -0.0022179998923093081 -0.0096220001578330994
   vertex 0.0019030000548809767 0.003544999985024333 -0.00824700016528368
   vertex 0.0051130000501871109 0.002271000063046813 -0.0071049998514354229
  endloop
 endfacet
 facet normal 0.60391841404750657 0.28847912914600154 -0.74300897788755482
  outer loop
   vertex -0.00079700001515448093 -0.0030360000673681498 -0.015591000206768513
   vertex 0.0014560000272467732 0.0019239999819546938 -0.011834000237286091
   vertex 0.006155999843031168 -0.0022179998923093081 -0.0096220001578330994
  endloop
 endfacet
 facet normal 0.64652873929746824 0.056223401321222784 -0.76081503560740638
  outer loop
   vertex -0.00079700001515448093 -0.0030360000673681498 -0.015591000206768513
   vertex 0.006155999843031168 -0.0022179998923093081 -0.0096220001578330994
   vertex -0.0017900000093504786 -0.0059070000424981117 -0.01664699986577034
  endloop
 endfacet
 facet normal 0.59168842360630924 0.20848566407207975 -0.77874163703163113
  outer loop
   vertex 0.006155999843031168 -0.0022179998923093081 -0.0096220001578330994
   vertex 0.0010710000060498714 -0.0081099998205900192 -0.015062999911606312
   vertex -0.0017900000093504786 -0.0059070000424981117 -0.01664699986577034
  endloop
 endfacet
 facet normal 0.70637982815685241 0.60783712020575009 -0.36271417627806618
  outer loop
   vertex 0.0014560000272467732 0.0019239999819546938 -0.011834000237286091
   vertex 0.0019030000548809767 0.003544999985024333 -0.00824700016528368
   vertex 0.006155999843031168 -0.0022179998923093081 -0.0096220001578330994
  endloop
 endfacet
 facet normal 0.80521220192017107 0.50178307174998138 0.31598585218965497
  outer loop
   vertex 0.0052040000446140766 0.001386999967508018 0.0005080000264570117
   vertex 0.0059199999086558819 -0.00046599999768659472 0.0016260000411421061
   vertex 0.0074990000575780869 0.00020799999765586108 -0.0034680000972002745
  endloop
 endfacet
 facet normal 0.70056721185785709 0.71137904085076553 -0.056084239389984983
  outer loop
   vertex 0.0051130000501871109 0.002271000063046813 -0.0071049998514354229
   vertex 0.0043100002221763134 0.0031999999191612005 -0.0053519997745752335
   vertex 0.0074990000575780869 0.00020799999765586108 -0.0034680000972002745
  endloop
 endfacet
 facet normal 0.63257622235742106 0.7618843551995288 0.13921046013217903
  outer loop
   vertex 0.0043100002221763134 0.0031999999191612005 -0.0053519997745752335
   vertex 0.0052040000446140766 0.001386999967508018 0.0005080000264570117
   vertex 0.0074990000575780869 0.00020799999765586108 -0.0034680000972002745
  endloop
 endfacet
 facet normal 0.59771174414053696 0.11441826104245506 0.79350433675972931
  outer loop
   vertex 0.0053550000302493572 -0.0018420000560581684 0.0022499999031424522
   vertex 0.0059199999086558819 -0.00046599999768659472 0.0016260000411421061
   vertex 0.0037120000924915075 -0.00011100000119768083 0.0032379999756813049
  endloop
 endfacet
 facet normal 0.53979236636754957 0.57788648537153431 0.61210408529616644
  outer loop
   vertex 0.0052040000446140766 0.001386999967508018 0.0005080000264570117
   vertex 0.0037120000924915075 -0.00011100000119768083 0.0032379999756813049
   vertex 0.0059199999086558819 -0.00046599999768659472 0.0016260000411421061
  endloop
 endfacet
 facet normal -0.60014959687267877 0.58762174828923952 0.54269802128905775
  outer loop
   vertex -0.0052419998683035374 0.00060299999313428998 -0.0074370000511407852
   vertex -0.0007789999945089221 -0.0012880000285804272 -0.00045399999362416565
   vertex 0.0037120000924915075 -0.00011100000119768083 0.0032379999756813049
  endloop
 endfacet
 facet normal -0.48620427232132296 0.71382152896631035 0.50404784530904545
  outer loop
   vertex -0.0029349999967962503 -0.0021210000850260258 -0.0013539999490603805
   vertex -0.0007789999945089221 -0.0012880000285804272 -0.00045399999362416565
   vertex -0.0052419998683035374 0.00060299999313428998 -0.0074370000511407852
  endloop
 endfacet
 facet normal -0.124682772539568 -0.56127992034284446 0.81818033296564685
  outer loop
   vertex -0.0007789999945089221 -0.0012880000285804272 -0.00045399999362416565
   vertex -0.0029349999967962503 -0.0021210000850260258 -0.0013539999490603805
   vertex -0.0024510000366717577 -0.0040040002204477787 -0.0025720000267028809
  endloop
 endfacet
 facet normal -0.056402895755411533 0.88797395176925942 0.45642192577667545
  outer loop
   vertex 0.0052040000446140766 0.001386999967508018 0.0005080000264570117
   vertex 0.00032200000714510679 0.00381499994546175 -0.0048190001398324966
   vertex 0.0037120000924915075 -0.00011100000119768083 0.0032379999756813049
  endloop
 endfacet
 facet normal -0.59672592624234855 0.59337200525791189 0.54021091466798032
  outer loop
   vertex 0.00032200000714510679 0.00381499994546175 -0.0048190001398324966
   vertex -0.0052419998683035374 0.00060299999313428998 -0.0074370000511407852
   vertex 0.0037120000924915075 -0.00011100000119768083 0.0032379999756813049
  endloop
 endfacet
 facet normal 0.45928790655339402 -0.39620495898596858 0.79503223165399262
  outer loop
   vertex -0.0067659998312592506 -0.0050570000894367695 -0.00060400000074878335
   vertex -0.0024510000366717577 -0.0040040002204477787 -0.0025720000267028809
   vertex -0.0029349999967962503 -0.0021210000850260258 -0.0013539999490603805
  endloop
 endfacet
 facet normal 0.44884039635622264 -0.59766927512145585 0.66432953883940948
  outer loop
   vertex -0.0067659998312592506 -0.0050570000894367695 -0.00060400000074878335
   vertex -0.0037130001001060009 -0.0067980000749230385 -0.0042329998686909676
   vertex -0.0024510000366717577 -0.0040040002204477787 -0.0025720000267028809
  endloop
 endfacet
 facet normal 0.63219178022093914 -0.34130502254959783 0.69558927148389693
  outer loop
   vertex -0.00824000034481287 -0.010452999733388424 -0.0019120000069960952
   vertex -0.0037130001001060009 -0.0067980000749230385 -0.0042329998686909676
   vertex -0.0067659998312592506 -0.0050570000894367695 -0.00060400000074878335
  endloop
 endfacet
 facet normal 0.3001238488794496 -0.26839755487353967 -0.91536245710193431
  outer loop
   vertex -0.0011840000515803695 -0.0083670001477003098 -0.015727000311017036
   vertex -0.0017900000093504786 -0.0059070000424981117 -0.01664699986577034
   vertex 0.0010710000060498714 -0.0081099998205900192 -0.015062999911606312
  endloop
 endfacet
 facet normal -0.032337338052457622 -0.35708424794369442 -0.93351225832238927
  outer loop
   vertex -0.0034149999264627695 -0.0073649999685585499 -0.016032999381422997
   vertex -0.0017900000093504786 -0.0059070000424981117 -0.01664699986577034
   vertex -0.0011840000515803695 -0.0083670001477003098 -0.015727000311017036
  endloop
 endfacet
 facet normal -0.74543481933276035 -0.55454043922964724 -0.36988083403350946
  outer loop
   vertex -0.0095499996095895767 -0.010867999866604805 -0.0014130000490695238
   vertex -0.010716999880969524 -0.0094179995357990265 -0.001234999974258244
   vertex -0.0079190004616975784 -0.010191000066697598 -0.0057149999774992466
  endloop
 endfacet
 facet normal -0.88915359891123469 -0.45284634397600021 -0.065848813890373933
  outer loop
   vertex -0.0079190004616975784 -0.010191000066697598 -0.0057149999774992466
   vertex -0.010223999619483948 -0.0056790001690387726 -0.0056199999526143074
   vertex -0.0082949995994567871 -0.0089309997856616974 -0.0093029998242855072
  endloop
 endfacet
 facet normal -0.80599056781138545 -0.40261206344208483 -0.43391558046466522
  outer loop
   vertex -0.010716999880969524 -0.0094179995357990265 -0.001234999974258244
   vertex -0.010223999619483948 -0.0056790001690387726 -0.0056199999526143074
   vertex -0.0079190004616975784 -0.010191000066697598 -0.0057149999774992466
  endloop
 endfacet
 facet normal -0.96838111870314203 -0.24908177961332142 0.014009853814792158
  outer loop
   vertex -0.0076139997690916061 -0.011665999889373779 -0.010857000015676022
   vertex -0.0079190004616975784 -0.010191000066697598 -0.0057149999774992466
   vertex -0.0082949995994567871 -0.0089309997856616974 -0.0093029998242855072
  endloop
 endfacet
 facet normal 0.28727721806208284 -0.95694029594279539 -0.041678171546093393
  outer loop
   vertex -0.0095499996095895767 -0.010867999866604805 -0.0014130000490695238
   vertex -0.0079190004616975784 -0.010191000066697598 -0.0057149999774992466
   vertex -0.00824000034481287 -0.010452999733388424 -0.0019120000069960952
  endloop
 endfacet
 facet normal 0.71111892158282375 -0.34301905480905598 0.61371639004085876
  outer loop
   vertex -0.0067659998312592506 -0.0050570000894367695 -0.00060400000074878335
   vertex -0.00941499974578619 -0.0096720000728964806 -0.0001140000022132881
   vertex -0.00824000034481287 -0.010452999733388424 -0.0019120000069960952
  endloop
 endfacet
 facet normal 0.43876304020920104 -0.6833374553894952 0.58355541005819533
  outer loop
   vertex -0.0095499996095895767 -0.010867999866604805 -0.0014130000490695238
   vertex -0.00824000034481287 -0.010452999733388424 -0.0019120000069960952
   vertex -0.00941499974578619 -0.0096720000728964806 -0.0001140000022132881
  endloop
 endfacet
 facet normal -0.50400564700797235 -0.20308871350705965 -0.83948393804177246
  outer loop
   vertex -0.0034149999264627695 -0.0073649999685585499 -0.016032999381422997
   vertex -0.0065509998239576817 -0.0065640001557767391 -0.01434400025755167
   vertex -0.0037529999390244484 -0.0057160002179443836 -0.016228999942541122
  endloop
 endfacet
 facet normal -0.22042882901783237 -0.15955690955818266 -0.9622643732104339
  outer loop
   vertex -0.0017900000093504786 -0.0059070000424981117 -0.01664699986577034
   vertex -0.0034149999264627695 -0.0073649999685585499 -0.016032999381422997
   vertex -0.0037529999390244484 -0.0057160002179443836 -0.016228999942541122
  endloop
 endfacet
 facet normal -0.86630048720497987 -0.01941003704966545 -0.49914598699192725
  outer loop
   vertex -0.0089079998433589935 -0.0088339997455477715 -0.010165000334382057
   vertex -0.0082719996571540833 -0.0051520001143217087 -0.0114120002835989
   vertex -0.0065509998239576817 -0.0065640001557767391 -0.01434400025755167
  endloop
 endfacet
 facet normal -0.69418603339656126 0.39853609178468341 -0.59939530744087299
  outer loop
   vertex -0.0065509998239576817 -0.0065640001557767391 -0.01434400025755167
   vertex -0.0082719996571540833 -0.0051520001143217087 -0.0114120002835989
   vertex -0.0055379997938871384 -0.00083799997810274363 -0.011710000224411488
  endloop
 endfacet
 facet normal -0.59109923158555577 0.42104925826026196 -0.68798199143396821
  outer loop
   vertex -0.0065509998239576817 -0.0065640001557767391 -0.01434400025755167
   vertex -0.0055379997938871384 -0.00083799997810274363 -0.011710000224411488
   vertex -0.0037529999390244484 -0.0057160002179443836 -0.016228999942541122
  endloop
 endfacet
 facet normal -0.7921797874587071 -0.2231675810634326 -0.56802061151350292
  outer loop
   vertex -0.0076139997690916061 -0.011665999889373779 -0.010857000015676022
   vertex -0.0089079998433589935 -0.0088339997455477715 -0.010165000334382057
   vertex -0.0065509998239576817 -0.0065640001557767391 -0.01434400025755167
  endloop
 endfacet
 facet normal -0.74764181487179682 -0.4589097848722628 0.48003492165018524
  outer loop
   vertex -0.0089079998433589935 -0.0088339997455477715 -0.010165000334382057
   vertex -0.0076139997690916061 -0.011665999889373779 -0.010857000015676022
   vertex -0.0082949995994567871 -0.0089309997856616974 -0.0093029998242855072
  endloop
 endfacet
 facet normal 0.43437129141237757 0.86289813261879089 -0.25831839640208915
  outer loop
   vertex 0.0051130000501871109 0.002271000063046813 -0.0071049998514354229
   vertex 0.0019030000548809767 0.003544999985024333 -0.00824700016528368
   vertex 0.0043100002221763134 0.0031999999191612005 -0.0053519997745752335
  endloop
 endfacet
 facet normal 0.15135537471802027 0.98844665217345029 -0.0080477544113866668
  outer loop
   vertex 0.0019030000548809767 0.003544999985024333 -0.00824700016528368
   vertex 0.00032200000714510679 0.00381499994546175 -0.0048190001398324966
   vertex 0.0043100002221763134 0.0031999999191612005 -0.0053519997745752335
  endloop
 endfacet
 facet normal -0.27055519684448326 0.94191889781148264 -0.19896903127382559
  outer loop
   vertex -0.0038320000749081373 0.0015839999541640282 -0.0097319995984435081
   vertex 0.00032200000714510679 0.00381499994546175 -0.0048190001398324966
   vertex 0.0019030000548809767 0.003544999985024333 -0.00824700016528368
  endloop
 endfacet
 facet normal -0.20931865036111552 0.90060770592620987 -0.38090873268715003
  outer loop
   vertex -0.0038320000749081373 0.0015839999541640282 -0.0097319995984435081
   vertex 0.0019030000548809767 0.003544999985024333 -0.00824700016528368
   vertex 0.0014560000272467732 0.0019239999819546938 -0.011834000237286091
  endloop
 endfacet
 facet normal -0.053288941626922728 0.61820931936119894 -0.7842050281369316
  outer loop
   vertex -0.00079700001515448093 -0.0030360000673681498 -0.015591000206768513
   vertex -0.0028959999326616526 -0.0026219999417662621 -0.015122000128030777
   vertex 0.0014560000272467732 0.0019239999819546938 -0.011834000237286091
  endloop
 endfacet
 facet normal -0.13347455921874396 0.36643091255832794 -0.92082187656627335
  outer loop
   vertex -0.0028959999326616526 -0.0026219999417662621 -0.015122000128030777
   vertex -0.00079700001515448093 -0.0030360000673681498 -0.015591000206768513
   vertex -0.0037529999390244484 -0.0057160002179443836 -0.016228999942541122
  endloop
 endfacet
 facet normal -0.1556884457372239 0.38798078164935418 -0.90842282057128199
  outer loop
   vertex -0.00079700001515448093 -0.0030360000673681498 -0.015591000206768513
   vertex -0.0017900000093504786 -0.0059070000424981117 -0.01664699986577034
   vertex -0.0037529999390244484 -0.0057160002179443836 -0.016228999942541122
  endloop
 endfacet
 facet normal 0.075049626578106154 0.53622981054973373 -0.8407289360003517
  outer loop
   vertex -0.002234000014141202 0.00013099999341648072 -0.013306999579071999
   vertex 0.0014560000272467732 0.0019239999819546938 -0.011834000237286091
   vertex -0.0028959999326616526 -0.0026219999417662621 -0.015122000128030777
  endloop
 endfacet
 facet normal -0.23590759925119018 0.85891747663298978 -0.45454193750407379
  outer loop
   vertex 0.0014560000272467732 0.0019239999819546938 -0.011834000237286091
   vertex -0.002234000014141202 0.00013099999341648072 -0.013306999579071999
   vertex -0.0038320000749081373 0.0015839999541640282 -0.0097319995984435081
  endloop
 endfacet
 facet normal 0.18148468740720694 0.94693668868036251 0.26528138997633938
  outer loop
   vertex 0.0052040000446140766 0.001386999967508018 0.0005080000264570117
   vertex 0.0043100002221763134 0.0031999999191612005 -0.0053519997745752335
   vertex 0.00032200000714510679 0.00381499994546175 -0.0048190001398324966
  endloop
 endfacet
 facet normal -0.64019621885545974 0.76017614692541902 -0.11081979520282456
  outer loop
   vertex -0.0077450000680983067 -0.0014149999478831887 -0.0068199997767806053
   vertex -0.0052419998683035374 0.00060299999313428998 -0.0074370000511407852
   vertex -0.0074889999814331532 -0.0015780000248923898 -0.0094170002266764641
  endloop
 endfacet
 facet normal -0.73457595276473087 0.65673303471563138 -0.17058690082472722
  outer loop
   vertex -0.0038320000749081373 0.0015839999541640282 -0.0097319995984435081
   vertex -0.0055379997938871384 -0.00083799997810274363 -0.011710000224411488
   vertex -0.0052419998683035374 0.00060299999313428998 -0.0074370000511407852
  endloop
 endfacet
 facet normal -0.56754318996473685 0.79128008683819784 -0.22753143013215732
  outer loop
   vertex -0.0074889999814331532 -0.0015780000248923898 -0.0094170002266764641
   vertex -0.0052419998683035374 0.00060299999313428998 -0.0074370000511407852
   vertex -0.0055379997938871384 -0.00083799997810274363 -0.011710000224411488
  endloop
 endfacet
 facet normal -0.5163131533794495 0.85503816165712188 0.048274939227084021
  outer loop
   vertex 0.00032200000714510679 0.00381499994546175 -0.0048190001398324966
   vertex -0.0038320000749081373 0.0015839999541640282 -0.0097319995984435081
   vertex -0.0052419998683035374 0.00060299999313428998 -0.0074370000511407852
  endloop
 endfacet
 facet normal -0.46412583612529246 0.72935032856004323 0.50262839799433856
  outer loop
   vertex -0.0077450000680983067 -0.0014149999478831887 -0.0068199997767806053
   vertex -0.0029349999967962503 -0.0021210000850260258 -0.0013539999490603805
   vertex -0.0052419998683035374 0.00060299999313428998 -0.0074370000511407852
  endloop
 endfacet
 facet normal -0.46235627287087927 0.73136419208987202 0.50133132304462857
  outer loop
   vertex -0.0067659998312592506 -0.0050570000894367695 -0.00060400000074878335
   vertex -0.0029349999967962503 -0.0021210000850260258 -0.0013539999490603805
   vertex -0.0077450000680983067 -0.0014149999478831887 -0.0068199997767806053
  endloop
 endfacet
 facet normal -0.41681958741330211 0.86931962858868961 0.26560273887711977
  outer loop
   vertex -0.00814099982380867 -0.0060930000618100166 0.00062900001648813486
   vertex -0.0067659998312592506 -0.0050570000894367695 -0.00060400000074878335
   vertex -0.010560000315308571 -0.0062330001965165138 -0.0027089999057352543
  endloop
 endfacet
 facet normal -0.49602972074644625 0.71284724088057327 0.49578556584995154
  outer loop
   vertex -0.0077450000680983067 -0.0014149999478831887 -0.0068199997767806053
   vertex -0.010560000315308571 -0.0062330001965165138 -0.0027089999057352543
   vertex -0.0067659998312592506 -0.0050570000894367695 -0.00060400000074878335
  endloop
 endfacet
 facet normal 0.7596141092221036 -0.37997405608287704 0.52783152783311127
  outer loop
   vertex -0.0067659998312592506 -0.0050570000894367695 -0.00060400000074878335
   vertex -0.00814099982380867 -0.0060930000618100166 0.00062900001648813486
   vertex -0.00941499974578619 -0.0096720000728964806 -0.0001140000022132881
  endloop
 endfacet
 facet normal -0.70670483692206787 -0.61229273363206771 0.35449383889190966
  outer loop
   vertex -0.010533000342547894 -0.0073620001785457134 0.0026829999405890703
   vertex -0.010716999880969524 -0.0094179995357990265 -0.001234999974258244
   vertex -0.0095499996095895767 -0.010867999866604805 -0.0014130000490695238
  endloop
 endfacet
 facet normal 0.13851651565101877 -0.73571121845207987 0.66297977189025703
  outer loop
   vertex -0.010533000342547894 -0.0073620001785457134 0.0026829999405890703
   vertex -0.0095499996095895767 -0.010867999866604805 -0.0014130000490695238
   vertex -0.00941499974578619 -0.0096720000728964806 -0.0001140000022132881
  endloop
 endfacet
 facet normal -0.99329665614303597 -0.0044923963020557806 -0.11550571964421592
  outer loop
   vertex -0.010560000315308571 -0.0062330001965165138 -0.0027089999057352543
   vertex -0.010223999619483948 -0.0056790001690387726 -0.0056199999526143074
   vertex -0.010716999880969524 -0.0094179995357990265 -0.001234999974258244
  endloop
 endfacet
 facet normal -0.96406136333091952 -0.070965724291786589 -0.25602647071791423
  outer loop
   vertex -0.010560000315308571 -0.0062330001965165138 -0.0027089999057352543
   vertex -0.010716999880969524 -0.0094179995357990265 -0.001234999974258244
   vertex -0.011090000160038471 -0.0076879998669028282 -0.00031000000308267772
  endloop
 endfacet
 facet normal -0.92788395084801079 -0.31046835824996544 0.20649642196478263
  outer loop
   vertex -0.011090000160038471 -0.0076879998669028282 -0.00031000000308267772
   vertex -0.010716999880969524 -0.0094179995357990265 -0.001234999974258244
   vertex -0.010533000342547894 -0.0073620001785457134 0.0026829999405890703
  endloop
 endfacet
 facet normal -0.89740063983057905 0.35117309796995377 -0.2671133596319224
  outer loop
   vertex -0.010223999619483948 -0.0056790001690387726 -0.0056199999526143074
   vertex -0.0074889999814331532 -0.0015780000248923898 -0.0094170002266764641
   vertex -0.0097610000520944595 -0.0068149999715387821 -0.008669000118970871
  endloop
 endfacet
 facet normal -0.80445044911687702 -0.58617201691869003 0.096238461631148173
  outer loop
   vertex -0.0082949995994567871 -0.0089309997856616974 -0.0093029998242855072
   vertex -0.010223999619483948 -0.0056790001690387726 -0.0056199999526143074
   vertex -0.0097610000520944595 -0.0068149999715387821 -0.008669000118970871
  endloop
 endfacet
 facet normal -0.86503896740051101 0.50168565028243539 -0.0043695742753301226
  outer loop
   vertex -0.010223999619483948 -0.0056790001690387726 -0.0056199999526143074
   vertex -0.010560000315308571 -0.0062330001965165138 -0.0027089999057352543
   vertex -0.0077450000680983067 -0.0014149999478831887 -0.0068199997767806053
  endloop
 endfacet
 facet normal -0.87251231405787033 0.47467088225883386 -0.11580075713483354
  outer loop
   vertex -0.0074889999814331532 -0.0015780000248923898 -0.0094170002266764641
   vertex -0.010223999619483948 -0.0056790001690387726 -0.0056199999526143074
   vertex -0.0077450000680983067 -0.0014149999478831887 -0.0068199997767806053
  endloop
 endfacet
 facet normal -0.68308181710937754 -0.59861336969955292 0.41840323224312825
  outer loop
   vertex -0.0082949995994567871 -0.0089309997856616974 -0.0093029998242855072
   vertex -0.0097610000520944595 -0.0068149999715387821 -0.008669000118970871
   vertex -0.0089079998433589935 -0.0088339997455477715 -0.010165000334382057
  endloop
 endfacet
 facet normal 0.71453871648565914 -0.37673080760208039 0.58949836407449918
  outer loop
   vertex -0.00814099982380867 -0.0060930000618100166 0.00062900001648813486
   vertex -0.0097179999575018883 -0.0064130001701414585 0.0023360000923275948
   vertex -0.00941499974578619 -0.0096720000728964806 -0.0001140000022132881
  endloop
 endfacet
 facet normal 0.70271122772596273 -0.38463117993765861 0.5985447233479172
  outer loop
   vertex -0.010533000342547894 -0.0073620001785457134 0.0026829999405890703
   vertex -0.00941499974578619 -0.0096720000728964806 -0.0001140000022132881
   vertex -0.0097179999575018883 -0.0064130001701414585 0.0023360000923275948
  endloop
 endfacet
 facet normal -0.60380279771049317 0.4115093821809383 -0.68270213845720729
  outer loop
   vertex -0.0028959999326616526 -0.0026219999417662621 -0.015122000128030777
   vertex -0.0037529999390244484 -0.0057160002179443836 -0.016228999942541122
   vertex -0.0055379997938871384 -0.00083799997810274363 -0.011710000224411488
  endloop
 endfacet
 facet normal -0.87566372109104218 -0.012245249710047744 -0.48276609390524522
  outer loop
   vertex -0.0082719996571540833 -0.0051520001143217087 -0.0114120002835989
   vertex -0.0089079998433589935 -0.0088339997455477715 -0.010165000334382057
   vertex -0.0097610000520944595 -0.0068149999715387821 -0.008669000118970871
  endloop
 endfacet
 facet normal -0.74893258850943423 0.44043679974296818 -0.49509130804401225
  outer loop
   vertex -0.0074889999814331532 -0.0015780000248923898 -0.0094170002266764641
   vertex -0.0055379997938871384 -0.00083799997810274363 -0.011710000224411488
   vertex -0.0082719996571540833 -0.0051520001143217087 -0.0114120002835989
  endloop
 endfacet
 facet normal -0.89585859051684358 0.34945781880321747 -0.27443873391792217
  outer loop
   vertex -0.0097610000520944595 -0.0068149999715387821 -0.008669000118970871
   vertex -0.0074889999814331532 -0.0015780000248923898 -0.0094170002266764641
   vertex -0.0082719996571540833 -0.0051520001143217087 -0.0114120002835989
  endloop
 endfacet
 facet normal -0.48795570019959394 0.55919962373533461 -0.67022012462845659
  outer loop
   vertex -0.002234000014141202 0.00013099999341648072 -0.013306999579071999
   vertex -0.0028959999326616526 -0.0026219999417662621 -0.015122000128030777
   vertex -0.0055379997938871384 -0.00083799997810274363 -0.011710000224411488
  endloop
 endfacet
 facet normal -0.45800498017118024 0.73315715807510484 -0.50270470427640968
  outer loop
   vertex -0.0055379997938871384 -0.00083799997810274363 -0.011710000224411488
   vertex -0.0038320000749081373 0.0015839999541640282 -0.0097319995984435081
   vertex -0.002234000014141202 0.00013099999341648072 -0.013306999579071999
  endloop
 endfacet
 facet normal -0.41120237884216831 0.88612340360095421 -0.2137707118040317
  outer loop
   vertex -0.00814099982380867 -0.0060930000618100166 0.00062900001648813486
   vertex -0.011090000160038471 -0.0076879998669028282 -0.00031000000308267772
   vertex -0.0097179999575018883 -0.0064130001701414585 0.0023360000923275948
  endloop
 endfacet
 facet normal -0.52949083952475218 0.77214437806376623 0.35132963194682654
  outer loop
   vertex -0.011090000160038471 -0.0076879998669028282 -0.00031000000308267772
   vertex -0.00814099982380867 -0.0060930000618100166 0.00062900001648813486
   vertex -0.010560000315308571 -0.0062330001965165138 -0.0027089999057352543
  endloop
 endfacet
 facet normal -0.74485475480720831 0.66392417172857909 0.066303004725380574
  outer loop
   vertex -0.0097179999575018883 -0.0064130001701414585 0.0023360000923275948
   vertex -0.011090000160038471 -0.0076879998669028282 -0.00031000000308267772
   vertex -0.010533000342547894 -0.0073620001785457134 0.0026829999405890703
  endloop
 endfacet
endsolid
