solid Visualization Toolkit generated SLA File
 facet normal 0.059019467717312049 -0.96140921613083452 0.26871736372824773
  outer loop
   vertex 0.061452001333236694 -0.17077100276947021 -0.012174000032246113
   vertex 0.060256000608205795 -0.17025299370288849 -0.01005799975246191
   vertex 0.058993000537157059 -0.17026400566101074 -0.0098200002685189247
  endloop
 endfacet
 facet normal -0.35692951983285087 -0.93374554799226672 0.02684342520081745
  outer loop
   vertex 0.061592001467943192 -0.17076900601387024 -0.010243000462651253
   vertex 0.060256000608205795 -0.17025299370288849 -0.01005799975246191
   vertex 0.061452001333236694 -0.17077100276947021 -0.012174000032246113
  endloop
 endfacet
 facet normal -0.16919121780452345 -0.98549369522942365 0.01328564943381221
  outer loop
   vertex 0.062247999012470245 -0.17090199887752533 -0.011753999628126621
   vertex 0.061592001467943192 -0.17076900601387024 -0.010243000462651253
   vertex 0.061452001333236694 -0.17077100276947021 -0.012174000032246113
  endloop
 endfacet
 facet normal -0.015223919110520297 -0.98062518444194768 0.19530099826962583
  outer loop
   vertex 0.057861000299453735 -0.17077699303627014 -0.012484000064432621
   vertex 0.061452001333236694 -0.17077100276947021 -0.012174000032246113
   vertex 0.058993000537157059 -0.17026400566101074 -0.0098200002685189247
  endloop
 endfacet
 facet normal 0.02805456139990593 -0.95142632335904531 -0.30659565033468456
  outer loop
   vertex 0.057861000299453735 -0.17077699303627014 -0.012484000064432621
   vertex 0.058003999292850494 -0.17059199512004852 -0.013044999912381172
   vertex 0.061452001333236694 -0.17077100276947021 -0.012174000032246113
  endloop
 endfacet
 facet normal -0.012344250381380487 -0.98796572187894227 -0.15417960914058107
  outer loop
   vertex 0.058003999292850494 -0.17059199512004852 -0.013044999912381172
   vertex 0.062414001673460007 -0.17059700191020966 -0.013365999795496464
   vertex 0.061452001333236694 -0.17077100276947021 -0.012174000032246113
  endloop
 endfacet
 facet normal -0.060150332078661939 -0.97963876942556605 -0.19154586654164421
  outer loop
   vertex 0.062247999012470245 -0.17090199887752533 -0.011753999628126621
   vertex 0.061452001333236694 -0.17077100276947021 -0.012174000032246113
   vertex 0.062414001673460007 -0.17059700191020966 -0.013365999795496464
  endloop
 endfacet
 facet normal -0.33224343103617554 -0.91320483057404978 0.23594753643454491
  outer loop
   vertex 0.060612998902797699 -0.17005500197410583 -0.0087890001013875008
   vertex 0.058681000024080276 -0.16942599415779114 -0.0090749999508261681
   vertex 0.060256000608205795 -0.17025299370288849 -0.01005799975246191
  endloop
 endfacet
 facet normal -0.32198509211204324 -0.91744171954151577 0.23372268118928
  outer loop
   vertex 0.061592001467943192 -0.17076900601387024 -0.010243000462651253
   vertex 0.060612998902797699 -0.17005500197410583 -0.0087890001013875008
   vertex 0.060256000608205795 -0.17025299370288849 -0.01005799975246191
  endloop
 endfacet
 facet normal 0.1497897906824564 -0.62518470413564953 0.76596808309623854
  outer loop
   vertex 0.060256000608205795 -0.17025299370288849 -0.01005799975246191
   vertex 0.058681000024080276 -0.16942599415779114 -0.0090749999508261681
   vertex 0.058993000537157059 -0.17026400566101074 -0.0098200002685189247
  endloop
 endfacet
 facet normal -0.067867280920903036 -0.97394651593049508 0.21638441784761936
  outer loop
   vertex 0.057861000299453735 -0.17077699303627014 -0.012484000064432621
   vertex 0.058993000537157059 -0.17026400566101074 -0.0098200002685189247
   vertex 0.05709100142121315 -0.17022900283336639 -0.010258999653160572
  endloop
 endfacet
 facet normal -0.17486529487068925 -0.68974210906857236 0.70262219693618022
  outer loop
   vertex 0.058993000537157059 -0.17026400566101074 -0.0098200002685189247
   vertex 0.058681000024080276 -0.16942599415779114 -0.0090749999508261681
   vertex 0.05709100142121315 -0.17022900283336639 -0.010258999653160572
  endloop
 endfacet
 facet normal 0.44406574528118187 -0.85496174926582935 0.26804108110545588
  outer loop
   vertex 0.063367001712322235 -0.17038600146770477 -0.011962000280618668
   vertex 0.061592001467943192 -0.17076900601387024 -0.010243000462651253
   vertex 0.062247999012470245 -0.17090199887752533 -0.011753999628126621
  endloop
 endfacet
 facet normal 0.41592647440013508 -0.87886790801420644 0.23365865735257085
  outer loop
   vertex 0.062950000166893005 -0.17010399699211121 -0.01015899982303381
   vertex 0.061592001467943192 -0.17076900601387024 -0.010243000462651253
   vertex 0.063367001712322235 -0.17038600146770477 -0.011962000280618668
  endloop
 endfacet
 facet normal 0.29667456090842587 -0.76292269072342933 0.57439809617469606
  outer loop
   vertex 0.062077999114990234 -0.1701200008392334 -0.0096319997683167458
   vertex 0.060612998902797699 -0.17005500197410583 -0.0087890001013875008
   vertex 0.061592001467943192 -0.17076900601387024 -0.010243000462651253
  endloop
 endfacet
 facet normal 0.34207548552555894 -0.76709774808437814 0.54272037651660832
  outer loop
   vertex 0.062950000166893005 -0.17010399699211121 -0.01015899982303381
   vertex 0.062077999114990234 -0.1701200008392334 -0.0096319997683167458
   vertex 0.061592001467943192 -0.17076900601387024 -0.010243000462651253
  endloop
 endfacet
 facet normal 0.39487491376097172 -0.90929293030302694 -0.13137796384173239
  outer loop
   vertex 0.062414001673460007 -0.17059700191020966 -0.013365999795496464
   vertex 0.063367001712322235 -0.17038600146770477 -0.011962000280618668
   vertex 0.062247999012470245 -0.17090199887752533 -0.011753999628126621
  endloop
 endfacet
 facet normal -0.14542993977583468 -0.97117557309141811 0.18886010390591418
  outer loop
   vertex 0.051141999661922455 -0.1693509966135025 -0.010324999690055847
   vertex 0.057861000299453735 -0.17077699303627014 -0.012484000064432621
   vertex 0.05709100142121315 -0.17022900283336639 -0.010258999653160572
  endloop
 endfacet
 facet normal -0.25142745139899497 -0.89830657144303461 -0.36031866505257021
  outer loop
   vertex 0.056758999824523926 -0.17026799917221069 -0.012984000146389008
   vertex 0.058003999292850494 -0.17059199512004852 -0.013044999912381172
   vertex 0.057861000299453735 -0.17077699303627014 -0.012484000064432621
  endloop
 endfacet
 facet normal -0.24767669675096893 -0.89667369107915795 -0.36692307860504952
  outer loop
   vertex 0.054494999349117279 -0.16976499557495117 -0.012684999965131283
   vertex 0.056758999824523926 -0.17026799917221069 -0.012984000146389008
   vertex 0.057861000299453735 -0.17077699303627014 -0.012484000064432621
  endloop
 endfacet
 facet normal -0.2690701955811437 -0.93819306661308299 -0.21770392648977285
  outer loop
   vertex 0.054494999349117279 -0.16976499557495117 -0.012684999965131283
   vertex 0.057861000299453735 -0.17077699303627014 -0.012484000064432621
   vertex 0.051141999661922455 -0.1693509966135025 -0.010324999690055847
  endloop
 endfacet
 facet normal -0.090032518492036515 -0.90071349744641305 -0.42498157740286974
  outer loop
   vertex 0.060830999165773392 -0.16996300220489502 -0.014976999722421169
   vertex 0.061868999153375626 -0.17038099467754364 -0.014310999773442745
   vertex 0.058003999292850494 -0.17059199512004852 -0.013044999912381172
  endloop
 endfacet
 facet normal -0.15784119571685046 -0.84745280163657632 -0.5068628078020645
  outer loop
   vertex 0.059027999639511108 -0.16949799656867981 -0.015193000435829163
   vertex 0.060830999165773392 -0.16996300220489502 -0.014976999722421169
   vertex 0.058003999292850494 -0.17059199512004852 -0.013044999912381172
  endloop
 endfacet
 facet normal -0.42483525040343167 -0.70857612778376178 -0.56341359688032377
  outer loop
   vertex 0.059027999639511108 -0.16949799656867981 -0.015193000435829163
   vertex 0.058003999292850494 -0.17059199512004852 -0.013044999912381172
   vertex 0.056958001106977463 -0.1689939945936203 -0.014266000129282475
  endloop
 endfacet
 facet normal -0.21069851503300924 -0.67684381386595427 -0.70532870875519738
  outer loop
   vertex 0.058003999292850494 -0.17059199512004852 -0.013044999912381172
   vertex 0.056758999824523926 -0.17026799917221069 -0.012984000146389008
   vertex 0.056958001106977463 -0.1689939945936203 -0.014266000129282475
  endloop
 endfacet
 facet normal -0.016661021538748513 -0.9767661024119243 -0.21365952246577635
  outer loop
   vertex 0.061868999153375626 -0.17038099467754364 -0.014310999773442745
   vertex 0.062414001673460007 -0.17059700191020966 -0.013365999795496464
   vertex 0.058003999292850494 -0.17059199512004852 -0.013044999912381172
  endloop
 endfacet
 facet normal 0.4268135814789133 -0.85206348527735132 -0.30301482426138138
  outer loop
   vertex 0.063165001571178436 -0.17036199569702148 -0.012969000265002251
   vertex 0.062414001673460007 -0.17059700191020966 -0.013365999795496464
   vertex 0.062660999596118927 -0.17027199268341064 -0.013931999914348125
  endloop
 endfacet
 facet normal 0.29953430562458949 -0.87796748985908424 -0.3734331084739726
  outer loop
   vertex 0.062660999596118927 -0.17027199268341064 -0.013931999914348125
   vertex 0.062414001673460007 -0.17059700191020966 -0.013365999795496464
   vertex 0.061868999153375626 -0.17038099467754364 -0.014310999773442745
  endloop
 endfacet
 facet normal 0.34075188288433828 -0.93577171204236598 -0.090661222427658769
  outer loop
   vertex 0.063367001712322235 -0.17038600146770477 -0.011962000280618668
   vertex 0.062414001673460007 -0.17059700191020966 -0.013365999795496464
   vertex 0.063165001571178436 -0.17036199569702148 -0.012969000265002251
  endloop
 endfacet
 facet normal 0.2328832816544672 -0.51672323076047011 0.82387042665598098
  outer loop
   vertex 0.061944998800754547 -0.16947700083255768 -0.0088029997423291206
   vertex 0.059882998466491699 -0.16855999827384949 -0.007644999772310257
   vertex 0.060612998902797699 -0.17005500197410583 -0.0087890001013875008
  endloop
 endfacet
 facet normal 0.34621113629072098 -0.78541384806991599 0.51309154774591126
  outer loop
   vertex 0.061944998800754547 -0.16947700083255768 -0.0088029997423291206
   vertex 0.060612998902797699 -0.17005500197410583 -0.0087890001013875008
   vertex 0.061802998185157776 -0.16982899606227875 -0.0092460000887513161
  endloop
 endfacet
 facet normal -0.14790200229260025 -0.64555899155191987 0.7492520177779356
  outer loop
   vertex 0.057769998908042908 -0.16783100366592407 -0.0074339997954666615
   vertex 0.060612998902797699 -0.17005500197410583 -0.0087890001013875008
   vertex 0.059882998466491699 -0.16855999827384949 -0.007644999772310257
  endloop
 endfacet
 facet normal -0.33671624914482312 -0.85051993411283844 0.40402723823838199
  outer loop
   vertex 0.057645998895168304 -0.16843099892139435 -0.0078429998829960823
   vertex 0.058681000024080276 -0.16942599415779114 -0.0090749999508261681
   vertex 0.060612998902797699 -0.17005500197410583 -0.0087890001013875008
  endloop
 endfacet
 facet normal -0.040445664740975606 -0.5570731961472577 0.8294779094936402
  outer loop
   vertex 0.057645998895168304 -0.16843099892139435 -0.0078429998829960823
   vertex 0.060612998902797699 -0.17005500197410583 -0.0087890001013875008
   vertex 0.057769998908042908 -0.16783100366592407 -0.0074339997954666615
  endloop
 endfacet
 facet normal 0.38532105323545779 -0.58379538433058831 0.7146402137914003
  outer loop
   vertex 0.061802998185157776 -0.16982899606227875 -0.0092460000887513161
   vertex 0.060612998902797699 -0.17005500197410583 -0.0087890001013875008
   vertex 0.062077999114990234 -0.1701200008392334 -0.0096319997683167458
  endloop
 endfacet
 facet normal -0.18781720601938842 -0.67714811183005263 0.71147391502996449
  outer loop
   vertex 0.05709100142121315 -0.17022900283336639 -0.010258999653160572
   vertex 0.058681000024080276 -0.16942599415779114 -0.0090749999508261681
   vertex 0.057147998362779617 -0.16863200068473816 -0.0087240003049373627
  endloop
 endfacet
 facet normal -0.34490413971817502 -0.85049003477007079 0.39712445802552809
  outer loop
   vertex 0.057645998895168304 -0.16843099892139435 -0.0078429998829960823
   vertex 0.05676800012588501 -0.16830700635910034 -0.0083400001749396324
   vertex 0.058681000024080276 -0.16942599415779114 -0.0090749999508261681
  endloop
 endfacet
 facet normal -0.35913416767068462 -0.85688545104192659 0.36982424664177799
  outer loop
   vertex 0.05676800012588501 -0.16830700635910034 -0.0083400001749396324
   vertex 0.057147998362779617 -0.16863200068473816 -0.0087240003049373627
   vertex 0.058681000024080276 -0.16942599415779114 -0.0090749999508261681
  endloop
 endfacet
 facet normal -0.12845472220985396 -0.82949736199775292 0.54353795707453412
  outer loop
   vertex 0.051141999661922455 -0.1693509966135025 -0.010324999690055847
   vertex 0.05709100142121315 -0.17022900283336639 -0.010258999653160572
   vertex 0.053677998483181 -0.16829100251197815 -0.0081080002710223198
  endloop
 endfacet
 facet normal 0.048283633666593141 -0.70276229437213489 0.70978436748688878
  outer loop
   vertex 0.053677998483181 -0.16829100251197815 -0.0081080002710223198
   vertex 0.05709100142121315 -0.17022900283336639 -0.010258999653160572
   vertex 0.055753998458385468 -0.16851499676704407 -0.0084710000082850456
  endloop
 endfacet
 facet normal 0.13031481907929326 -0.68947709852469952 0.71248816027937822
  outer loop
   vertex 0.057147998362779617 -0.16863200068473816 -0.0087240003049373627
   vertex 0.05676800012588501 -0.16830700635910034 -0.0083400001749396324
   vertex 0.05709100142121315 -0.17022900283336639 -0.010258999653160572
  endloop
 endfacet
 facet normal 0.051969744016431257 -0.70121282127306128 0.71105536000310154
  outer loop
   vertex 0.05676800012588501 -0.16830700635910034 -0.0083400001749396324
   vertex 0.055753998458385468 -0.16851499676704407 -0.0084710000082850456
   vertex 0.05709100142121315 -0.17022900283336639 -0.010258999653160572
  endloop
 endfacet
 facet normal 0.83254381958577373 0.54341715121246492 0.10755737184247119
  outer loop
   vertex 0.062950000166893005 -0.17010399699211121 -0.01015899982303381
   vertex 0.063367001712322235 -0.17038600146770477 -0.011962000280618668
   vertex 0.063064001500606537 -0.1698250025510788 -0.012450999580323696
  endloop
 endfacet
 facet normal 0.92218381243072622 0.34398205434819928 -0.17678620527949446
  outer loop
   vertex 0.063367001712322235 -0.17038600146770477 -0.011962000280618668
   vertex 0.063165001571178436 -0.17036199569702148 -0.012969000265002251
   vertex 0.063064001500606537 -0.1698250025510788 -0.012450999580323696
  endloop
 endfacet
 facet normal 0.31076464587906272 -0.81477000608027483 0.48946416831430017
  outer loop
   vertex 0.062647998332977295 -0.16990800201892853 -0.0096410000696778297
   vertex 0.062077999114990234 -0.1701200008392334 -0.0096319997683167458
   vertex 0.062950000166893005 -0.17010399699211121 -0.01015899982303381
  endloop
 endfacet
 facet normal 0.76809347595924893 0.6299475640605986 0.11488463223145447
  outer loop
   vertex 0.062950000166893005 -0.17010399699211121 -0.01015899982303381
   vertex 0.063064001500606537 -0.1698250025510788 -0.012450999580323696
   vertex 0.061567999422550201 -0.1686519980430603 -0.0088809998705983162
  endloop
 endfacet
 facet normal 0.80472851756186781 0.52923816444252592 0.26892188144549478
  outer loop
   vertex 0.062647998332977295 -0.16990800201892853 -0.0096410000696778297
   vertex 0.062950000166893005 -0.17010399699211121 -0.01015899982303381
   vertex 0.061567999422550201 -0.1686519980430603 -0.0088809998705983162
  endloop
 endfacet
 facet normal 0.26097997146286711 -0.6722833545420196 0.69276586643755067
  outer loop
   vertex 0.061802998185157776 -0.16982899606227875 -0.0092460000887513161
   vertex 0.062077999114990234 -0.1701200008392334 -0.0096319997683167458
   vertex 0.062647998332977295 -0.16990800201892853 -0.0096410000696778297
  endloop
 endfacet
 facet normal 0.10625326975325589 -0.93890388709590566 0.32736788703680225
  outer loop
   vertex 0.051141999661922455 -0.1693509966135025 -0.010324999690055847
   vertex 0.053677998483181 -0.16829100251197815 -0.0081080002710223198
   vertex 0.049910001456737518 -0.16809399425983429 -0.0063200001604855061
  endloop
 endfacet
 facet normal -0.010891507611149463 -0.95500607308102237 0.29638619306627817
  outer loop
   vertex 0.051141999661922455 -0.1693509966135025 -0.010324999690055847
   vertex 0.049910001456737518 -0.16809399425983429 -0.0063200001604855061
   vertex 0.047070000320672989 -0.16872699558734894 -0.0084640001878142357
  endloop
 endfacet
 facet normal -0.15591277285364916 -0.98658209785464146 -0.048445551434792802
  outer loop
   vertex 0.05098700150847435 -0.16924400627613068 -0.012005000375211239
   vertex 0.054494999349117279 -0.16976499557495117 -0.012684999965131283
   vertex 0.051141999661922455 -0.1693509966135025 -0.010324999690055847
  endloop
 endfacet
 facet normal -0.17216266895004106 -0.98395717689409956 -0.046779156240705055
  outer loop
   vertex 0.05098700150847435 -0.16924400627613068 -0.012005000375211239
   vertex 0.051141999661922455 -0.1693509966135025 -0.010324999690055847
   vertex 0.047070000320672989 -0.16872699558734894 -0.0084640001878142357
  endloop
 endfacet
 facet normal -0.48916417158012443 -0.57951311218160884 -0.65183047339927003
  outer loop
   vertex 0.056958001106977463 -0.1689939945936203 -0.014266000129282475
   vertex 0.056758999824523926 -0.17026799917221069 -0.012984000146389008
   vertex 0.056464001536369324 -0.16863100230693817 -0.014217999763786793
  endloop
 endfacet
 facet normal -0.24859116752409605 -0.76820308817079286 -0.58997156436040532
  outer loop
   vertex 0.056758999824523926 -0.17026799917221069 -0.012984000146389008
   vertex 0.054494999349117279 -0.16976499557495117 -0.012684999965131283
   vertex 0.055247001349925995 -0.169172003865242 -0.013774000108242035
  endloop
 endfacet
 facet normal 0.08848223590254245 -0.58937255825279189 -0.80300117154848916
  outer loop
   vertex 0.056033000349998474 -0.16899000108242035 -0.014001999981701374
   vertex 0.056464001536369324 -0.16863100230693817 -0.014217999763786793
   vertex 0.056758999824523926 -0.17026799917221069 -0.012984000146389008
  endloop
 endfacet
 facet normal -0.070961718144269659 -0.64583375094082285 -0.76017313863600866
  outer loop
   vertex 0.055247001349925995 -0.169172003865242 -0.013774000108242035
   vertex 0.056033000349998474 -0.16899000108242035 -0.014001999981701374
   vertex 0.056758999824523926 -0.17026799917221069 -0.012984000146389008
  endloop
 endfacet
 facet normal -0.21948095668706646 -0.84785475692785506 -0.48267009520638227
  outer loop
   vertex 0.054494999349117279 -0.16976499557495117 -0.012684999965131283
   vertex 0.05098700150847435 -0.16924400627613068 -0.012005000375211239
   vertex 0.052914001047611237 -0.1684499979019165 -0.014275999739766121
  endloop
 endfacet
 facet normal -0.13838443221398411 -0.82652383794789808 -0.54562633204849065
  outer loop
   vertex 0.052914001047611237 -0.1684499979019165 -0.014275999739766121
   vertex 0.055247001349925995 -0.169172003865242 -0.013774000108242035
   vertex 0.054494999349117279 -0.16976499557495117 -0.012684999965131283
  endloop
 endfacet
 facet normal -0.086855857947746432 -0.70755599621802889 -0.70129920301970505
  outer loop
   vertex 0.059877999126911163 -0.16906300187110901 -0.015767000615596771
   vertex 0.061287000775337219 -0.16979299485683441 -0.015204999595880508
   vertex 0.060830999165773392 -0.16996300220489502 -0.014976999722421169
  endloop
 endfacet
 facet normal -0.1014564360321044 -0.71479610192792065 -0.69193433521997827
  outer loop
   vertex 0.059027999639511108 -0.16949799656867981 -0.015193000435829163
   vertex 0.059877999126911163 -0.16906300187110901 -0.015767000615596771
   vertex 0.060830999165773392 -0.16996300220489502 -0.014976999722421169
  endloop
 endfacet
 facet normal 0.027425914592063557 -0.82688044264310323 -0.56170860130777267
  outer loop
   vertex 0.060830999165773392 -0.16996300220489502 -0.014976999722421169
   vertex 0.061287000775337219 -0.16979299485683441 -0.015204999595880508
   vertex 0.061868999153375626 -0.17038099467754364 -0.014310999773442745
  endloop
 endfacet
 facet normal 0.43051635189984194 0.0099875299376041976 -0.90252751758192784
  outer loop
   vertex 0.061868999153375626 -0.17038099467754364 -0.014310999773442745
   vertex 0.061735998839139938 -0.16934700310230255 -0.0143630001693964
   vertex 0.062660999596118927 -0.17027199268341064 -0.013931999914348125
  endloop
 endfacet
 facet normal 0.8838671373488618 0.090612744983920121 -0.45887712294383054
  outer loop
   vertex 0.061868999153375626 -0.17038099467754364 -0.014310999773442745
   vertex 0.061370998620986938 -0.16928599774837494 -0.015053999610245228
   vertex 0.061735998839139938 -0.16934700310230255 -0.0143630001693964
  endloop
 endfacet
 facet normal 0.84382866198197148 0.019907298090803299 -0.53624331110088408
  outer loop
   vertex 0.061287000775337219 -0.16979299485683441 -0.015204999595880508
   vertex 0.061370998620986938 -0.16928599774837494 -0.015053999610245228
   vertex 0.061868999153375626 -0.17038099467754364 -0.014310999773442745
  endloop
 endfacet
 facet normal -0.38349997431040916 -0.82993947913314037 -0.40512742523819223
  outer loop
   vertex 0.056958001106977463 -0.1689939945936203 -0.014266000129282475
   vertex 0.056373000144958496 -0.16833999752998352 -0.015052000060677528
   vertex 0.059027999639511108 -0.16949799656867981 -0.015193000435829163
  endloop
 endfacet
 facet normal -0.20114342706125951 -0.61405030453301146 -0.76320609618435808
  outer loop
   vertex 0.059027999639511108 -0.16949799656867981 -0.015193000435829163
   vertex 0.058490000665187836 -0.16858099400997162 -0.015789000317454338
   vertex 0.059877999126911163 -0.16906300187110901 -0.015767000615596771
  endloop
 endfacet
 facet normal -0.31650876783868931 -0.64047481319449018 -0.69972438398609316
  outer loop
   vertex 0.059027999639511108 -0.16949799656867981 -0.015193000435829163
   vertex 0.056373000144958496 -0.16833999752998352 -0.015052000060677528
   vertex 0.058490000665187836 -0.16858099400997162 -0.015789000317454338
  endloop
 endfacet
 facet normal -0.59228576947250711 -0.77866524562569628 -0.20707004258229747
  outer loop
   vertex 0.056373000144958496 -0.16833999752998352 -0.015052000060677528
   vertex 0.056958001106977463 -0.1689939945936203 -0.014266000129282475
   vertex 0.056464001536369324 -0.16863100230693817 -0.014217999763786793
  endloop
 endfacet
 facet normal 0.78584643733992099 0.49951124588585999 -0.36460100404923423
  outer loop
   vertex 0.063165001571178436 -0.17036199569702148 -0.012969000265002251
   vertex 0.062660999596118927 -0.17027199268341064 -0.013931999914348125
   vertex 0.063064001500606537 -0.1698250025510788 -0.012450999580323696
  endloop
 endfacet
 facet normal 0.73735770266678624 0.56449013561715899 -0.37101820050892487
  outer loop
   vertex 0.061735998839139938 -0.16934700310230255 -0.0143630001693964
   vertex 0.063064001500606537 -0.1698250025510788 -0.012450999580323696
   vertex 0.062660999596118927 -0.17027199268341064 -0.013931999914348125
  endloop
 endfacet
 facet normal 0.56973249323320307 0.331449865608137 0.75202784040394821
  outer loop
   vertex 0.059882998466491699 -0.16855999827384949 -0.007644999772310257
   vertex 0.061944998800754547 -0.16947700083255768 -0.0088029997423291206
   vertex 0.061567999422550201 -0.1686519980430603 -0.0088809998705983162
  endloop
 endfacet
 facet normal 0.19274376238111648 -0.7974153306244236 0.57182045481804233
  outer loop
   vertex 0.061944998800754547 -0.16947700083255768 -0.0088029997423291206
   vertex 0.061802998185157776 -0.16982899606227875 -0.0092460000887513161
   vertex 0.062647998332977295 -0.16990800201892853 -0.0096410000696778297
  endloop
 endfacet
 facet normal 0.79226207118480174 0.40517332703141007 0.45624049099599434
  outer loop
   vertex 0.061567999422550201 -0.1686519980430603 -0.0088809998705983162
   vertex 0.061944998800754547 -0.16947700083255768 -0.0088029997423291206
   vertex 0.062647998332977295 -0.16990800201892853 -0.0096410000696778297
  endloop
 endfacet
 facet normal 0.22477564796536229 0.39350218445229329 0.89142130270317466
  outer loop
   vertex 0.059101998805999756 -0.16790999472141266 -0.007734999991953373
   vertex 0.057769998908042908 -0.16783100366592407 -0.0074339997954666615
   vertex 0.059882998466491699 -0.16855999827384949 -0.007644999772310257
  endloop
 endfacet
 facet normal 0.49377894192922628 0.6010638077164957 0.62841439795774989
  outer loop
   vertex 0.059882998466491699 -0.16855999827384949 -0.007644999772310257
   vertex 0.061567999422550201 -0.1686519980430603 -0.0088809998705983162
   vertex 0.059783998876810074 -0.16791200637817383 -0.0081869997084140778
  endloop
 endfacet
 facet normal 0.43665816655716339 0.61550457365664757 0.65611261639042207
  outer loop
   vertex 0.059882998466491699 -0.16855999827384949 -0.007644999772310257
   vertex 0.059783998876810074 -0.16791200637817383 -0.0081869997084140778
   vertex 0.059101998805999756 -0.16790999472141266 -0.007734999991953373
  endloop
 endfacet
 facet normal -0.33111173176137854 -0.48380669096090301 0.81012104458003198
  outer loop
   vertex 0.057769998908042908 -0.16783100366592407 -0.0074339997954666615
   vertex 0.057250998914241791 -0.16773200035095215 -0.0075869997963309288
   vertex 0.057645998895168304 -0.16843099892139435 -0.0078429998829960823
  endloop
 endfacet
 facet normal 0.20042690306652575 0.67539817913542843 0.70969455130197334
  outer loop
   vertex 0.058113999664783478 -0.16735200583934784 -0.007987000048160553
   vertex 0.057769998908042908 -0.16783100366592407 -0.0074339997954666615
   vertex 0.059101998805999756 -0.16790999472141266 -0.007734999991953373
  endloop
 endfacet
 facet normal -0.12585835655855307 0.58189644965470855 0.80346511807521881
  outer loop
   vertex 0.057769998908042908 -0.16783100366592407 -0.0074339997954666615
   vertex 0.057367999106645584 -0.16723999381065369 -0.0079250000417232513
   vertex 0.057250998914241791 -0.16773200035095215 -0.0075869997963309288
  endloop
 endfacet
 facet normal 0.16246878859619587 0.69357384492953489 0.70182562959879569
  outer loop
   vertex 0.057367999106645584 -0.16723999381065369 -0.0079250000417232513
   vertex 0.057769998908042908 -0.16783100366592407 -0.0074339997954666615
   vertex 0.058113999664783478 -0.16735200583934784 -0.007987000048160553
  endloop
 endfacet
 facet normal -0.41378734806573841 -0.51000989878714043 0.7541020711547306
  outer loop
   vertex 0.057250998914241791 -0.16773200035095215 -0.0075869997963309288
   vertex 0.056823998689651489 -0.16776999831199646 -0.0078469999134540558
   vertex 0.057645998895168304 -0.16843099892139435 -0.0078429998829960823
  endloop
 endfacet
 facet normal -0.46364124881536017 -0.57247784639341814 0.67624397060948893
  outer loop
   vertex 0.057645998895168304 -0.16843099892139435 -0.0078429998829960823
   vertex 0.056823998689651489 -0.16776999831199646 -0.0078469999134540558
   vertex 0.05676800012588501 -0.16830700635910034 -0.0083400001749396324
  endloop
 endfacet
 facet normal 0.37374971007818297 0.60581821791124102 -0.70234994202557044
  outer loop
   vertex 0.056823998689651489 -0.16776999831199646 -0.0078469999134540558
   vertex 0.057250998914241791 -0.16773200035095215 -0.0075869997963309288
   vertex 0.05676800012588501 -0.16830700635910034 -0.0083400001749396324
  endloop
 endfacet
 facet normal -0.88119684737093884 0.15560041708569819 0.4464085868196031
  outer loop
   vertex 0.056552998721599579 -0.16791799664497375 -0.0088999997824430466
   vertex 0.05676800012588501 -0.16830700635910034 -0.0083400001749396324
   vertex 0.057250998914241791 -0.16773200035095215 -0.0075869997963309288
  endloop
 endfacet
 facet normal -0.23396100341878442 0.75410266866821807 0.61367044412025196
  outer loop
   vertex 0.05676800012588501 -0.16830700635910034 -0.0083400001749396324
   vertex 0.056552998721599579 -0.16791799664497375 -0.0088999997824430466
   vertex 0.055753998458385468 -0.16851499676704407 -0.0084710000082850456
  endloop
 endfacet
 facet normal 0.31493822066441635 -0.60599806793541633 0.73046578210294977
  outer loop
   vertex 0.050503998994827271 -0.16740800440311432 -0.0060069998726248741
   vertex 0.049910001456737518 -0.16809399425983429 -0.0063200001604855061
   vertex 0.053677998483181 -0.16829100251197815 -0.0081080002710223198
  endloop
 endfacet
 facet normal 0.52842012470687361 -0.10508660840634444 0.84245413913068523
  outer loop
   vertex 0.051761001348495483 -0.16718000173568726 -0.0067670000717043877
   vertex 0.050503998994827271 -0.16740800440311432 -0.0060069998726248741
   vertex 0.053677998483181 -0.16829100251197815 -0.0081080002710223198
  endloop
 endfacet
 facet normal 0.65827293097536832 0.30527901079055542 0.68809990111599184
  outer loop
   vertex 0.051761001348495483 -0.16718000173568726 -0.0067670000717043877
   vertex 0.053677998483181 -0.16829100251197815 -0.0081080002710223198
   vertex 0.053906001150608063 -0.167153000831604 -0.008830999955534935
  endloop
 endfacet
 facet normal 0.20121624416144882 0.49624426876563182 0.84454345584038704
  outer loop
   vertex 0.053906001150608063 -0.167153000831604 -0.008830999955534935
   vertex 0.053677998483181 -0.16829100251197815 -0.0081080002710223198
   vertex 0.055753998458385468 -0.16851499676704407 -0.0084710000082850456
  endloop
 endfacet
 facet normal 0.37089527553276308 0.67251974834162487 0.64043257465403258
  outer loop
   vertex 0.053906001150608063 -0.167153000831604 -0.008830999955534935
   vertex 0.055753998458385468 -0.16851499676704407 -0.0084710000082850456
   vertex 0.055897999554872513 -0.16790400445461273 -0.0091960001736879349
  endloop
 endfacet
 facet normal -0.25204763490451859 0.7640715714392512 0.59385741003829495
  outer loop
   vertex 0.056552998721599579 -0.16791799664497375 -0.0088999997824430466
   vertex 0.055897999554872513 -0.16790400445461273 -0.0091960001736879349
   vertex 0.055753998458385468 -0.16851499676704407 -0.0084710000082850456
  endloop
 endfacet
 facet normal 0.458821299528896 0.88311863311921346 -0.097900433789983754
  outer loop
   vertex 0.061567999422550201 -0.1686519980430603 -0.0088809998705983162
   vertex 0.063064001500606537 -0.1698250025510788 -0.012450999580323696
   vertex 0.061735998839139938 -0.16934700310230255 -0.0143630001693964
  endloop
 endfacet
 facet normal 0.4718376821033417 0.87637246737490115 -0.096646263117481798
  outer loop
   vertex 0.061567999422550201 -0.1686519980430603 -0.0088809998705983162
   vertex 0.061735998839139938 -0.16934700310230255 -0.0143630001693964
   vertex 0.060006000101566315 -0.1685509979724884 -0.015591000206768513
  endloop
 endfacet
 facet normal 0.3581821788588021 0.93088456024892985 -0.071829396754513705
  outer loop
   vertex 0.058476999402046204 -0.1676969975233078 -0.011917999945580959
   vertex 0.059783998876810074 -0.16791200637817383 -0.0081869997084140778
   vertex 0.061567999422550201 -0.1686519980430603 -0.0088809998705983162
  endloop
 endfacet
 facet normal 0.35552442660963141 0.9321365093964159 -0.068730705904699402
  outer loop
   vertex 0.058476999402046204 -0.1676969975233078 -0.011917999945580959
   vertex 0.061567999422550201 -0.1686519980430603 -0.0088809998705983162
   vertex 0.060006000101566315 -0.1685509979724884 -0.015591000206768513
  endloop
 endfacet
 facet normal 0.69403886868942444 -0.52063891874929813 0.49723753381242819
  outer loop
   vertex 0.050014998763799667 -0.16721099615097046 -0.0055419998243451118
   vertex 0.04960000142455101 -0.1677899956703186 -0.0055689997971057892
   vertex 0.049910001456737518 -0.16809399425983429 -0.0063200001604855061
  endloop
 endfacet
 facet normal 0.40508691429581406 -0.77705456751186985 0.48175802118411742
  outer loop
   vertex 0.049910001456737518 -0.16809399425983429 -0.0063200001604855061
   vertex 0.04960000142455101 -0.1677899956703186 -0.0055689997971057892
   vertex 0.048073001205921173 -0.16855999827384949 -0.0055269999429583549
  endloop
 endfacet
 facet normal 0.38138919210611283 -0.63623652665605335 0.67063057363446199
  outer loop
   vertex 0.049910001456737518 -0.16809399425983429 -0.0063200001604855061
   vertex 0.050503998994827271 -0.16740800440311432 -0.0060069998726248741
   vertex 0.050014998763799667 -0.16721099615097046 -0.0055419998243451118
  endloop
 endfacet
 facet normal 0.29682009085939098 -0.94579468138166922 0.13179626069190872
  outer loop
   vertex 0.049910001456737518 -0.16809399425983429 -0.0063200001604855061
   vertex 0.048073001205921173 -0.16855999827384949 -0.0055269999429583549
   vertex 0.047589998692274094 -0.16881999373435974 -0.0063049998134374619
  endloop
 endfacet
 facet normal 0.2961036018866281 -0.94854592430201123 -0.11217524878425074
  outer loop
   vertex 0.049910001456737518 -0.16809399425983429 -0.0063200001604855061
   vertex 0.047589998692274094 -0.16881999373435974 -0.0063049998134374619
   vertex 0.047070000320672989 -0.16872699558734894 -0.0084640001878142357
  endloop
 endfacet
 facet normal -0.039233175967953671 -0.99866609045480226 -0.033567807184685938
  outer loop
   vertex 0.04613799974322319 -0.16872799396514893 -0.0073449998162686825
   vertex 0.047070000320672989 -0.16872699558734894 -0.0084640001878142357
   vertex 0.047589998692274094 -0.16881999373435974 -0.0063049998134374619
  endloop
 endfacet
 facet normal -0.13225321067520757 -0.99121471753541535 -0.0015722618376484857
  outer loop
   vertex 0.044665001332759857 -0.1684039980173111 -0.0097939996048808098
   vertex 0.05098700150847435 -0.16924400627613068 -0.012005000375211239
   vertex 0.047070000320672989 -0.16872699558734894 -0.0084640001878142357
  endloop
 endfacet
 facet normal -0.090962151575908118 -0.99290035656723596 -0.076647041099688895
  outer loop
   vertex 0.044665001332759857 -0.1684039980173111 -0.0097939996048808098
   vertex 0.047070000320672989 -0.16872699558734894 -0.0084640001878142357
   vertex 0.04613799974322319 -0.16872799396514893 -0.0073449998162686825
  endloop
 endfacet
 facet normal -0.07387880088468321 -0.92019876694662872 -0.38441663867442771
  outer loop
   vertex 0.051017001271247864 -0.1686059981584549 -0.013538000173866749
   vertex 0.052914001047611237 -0.1684499979019165 -0.014275999739766121
   vertex 0.05098700150847435 -0.16924400627613068 -0.012005000375211239
  endloop
 endfacet
 facet normal -0.12716400182466014 -0.91485512385557177 -0.38323546155744037
  outer loop
   vertex 0.048819001764059067 -0.1682409942150116 -0.013679999858140945
   vertex 0.051017001271247864 -0.1686059981584549 -0.013538000173866749
   vertex 0.05098700150847435 -0.16924400627613068 -0.012005000375211239
  endloop
 endfacet
 facet normal -0.13840220720931387 -0.9901832023766447 -0.019546221392449391
  outer loop
   vertex 0.044665001332759857 -0.1684039980173111 -0.0097939996048808098
   vertex 0.04483800008893013 -0.16838400065898895 -0.012032000347971916
   vertex 0.05098700150847435 -0.16924400627613068 -0.012005000375211239
  endloop
 endfacet
 facet normal -0.13020542095657311 -0.94078922252506547 -0.31298911663858925
  outer loop
   vertex 0.04483800008893013 -0.16838400065898895 -0.012032000347971916
   vertex 0.045752998441457748 -0.16797800362110138 -0.013632999733090401
   vertex 0.05098700150847435 -0.16924400627613068 -0.012005000375211239
  endloop
 endfacet
 facet normal -0.083700272165194531 -0.89895476325158186 -0.42997046185379395
  outer loop
   vertex 0.045752998441457748 -0.16797800362110138 -0.013632999733090401
   vertex 0.048819001764059067 -0.1682409942150116 -0.013679999858140945
   vertex 0.05098700150847435 -0.16924400627613068 -0.012005000375211239
  endloop
 endfacet
 facet normal -0.28517115935346532 -0.65217058283719465 -0.70238945091366112
  outer loop
   vertex 0.056464001536369324 -0.16863100230693817 -0.014217999763786793
   vertex 0.055810999125242233 -0.16835300624370575 -0.014210999943315983
   vertex 0.055943001061677933 -0.1680230051279068 -0.014570999890565872
  endloop
 endfacet
 facet normal -0.69893131905396755 -0.69555363133776016 -0.16643364196681032
  outer loop
   vertex 0.055943001061677933 -0.1680230051279068 -0.014570999890565872
   vertex 0.056373000144958496 -0.16833999752998352 -0.015052000060677528
   vertex 0.056464001536369324 -0.16863100230693817 -0.014217999763786793
  endloop
 endfacet
 facet normal -0.16236760567448885 -0.35824536283227931 -0.91940035927592623
  outer loop
   vertex 0.055810999125242233 -0.16835300624370575 -0.014210999943315983
   vertex 0.056464001536369324 -0.16863100230693817 -0.014217999763786793
   vertex 0.056033000349998474 -0.16899000108242035 -0.014001999981701374
  endloop
 endfacet
 facet normal -0.11558687664790765 -0.54287253443323857 -0.83182274873004847
  outer loop
   vertex 0.056033000349998474 -0.16899000108242035 -0.014001999981701374
   vertex 0.055247001349925995 -0.169172003865242 -0.013774000108242035
   vertex 0.055084001272916794 -0.16860100626945496 -0.014124000445008278
  endloop
 endfacet
 facet normal 0.02390336319763561 -0.51748087229240869 -0.85536084551452884
  outer loop
   vertex 0.055247001349925995 -0.169172003865242 -0.013774000108242035
   vertex 0.052914001047611237 -0.1684499979019165 -0.014275999739766121
   vertex 0.055084001272916794 -0.16860100626945496 -0.014124000445008278
  endloop
 endfacet
 facet normal -0.006571446098144417 -0.31381178676549987 -0.94946246823306479
  outer loop
   vertex 0.055810999125242233 -0.16835300624370575 -0.014210999943315983
   vertex 0.056033000349998474 -0.16899000108242035 -0.014001999981701374
   vertex 0.055084001272916794 -0.16860100626945496 -0.014124000445008278
  endloop
 endfacet
 facet normal -0.24301299988416566 -0.61060625931336276 -0.75372719068283645
  outer loop
   vertex 0.052914001047611237 -0.1684499979019165 -0.014275999739766121
   vertex 0.051017001271247864 -0.1686059981584549 -0.013538000173866749
   vertex 0.050411999225616455 -0.16737399995326996 -0.014340999536216259
  endloop
 endfacet
 facet normal 0.091658570575207488 0.39863295721616482 -0.91251875151210182
  outer loop
   vertex 0.055084001272916794 -0.16860100626945496 -0.014124000445008278
   vertex 0.052914001047611237 -0.1684499979019165 -0.014275999739766121
   vertex 0.054712001234292984 -0.16819499433040619 -0.013984000310301781
  endloop
 endfacet
 facet normal 0.064991320437958078 0.091093900897673538 -0.99371929109128965
  outer loop
   vertex 0.052914001047611237 -0.1684499979019165 -0.014275999739766121
   vertex 0.050411999225616455 -0.16737399995326996 -0.014340999536216259
   vertex 0.053153000771999359 -0.16772599518299103 -0.014193999581038952
  endloop
 endfacet
 facet normal 0.15145956834002294 0.061736123291139221 -0.98653365388071534
  outer loop
   vertex 0.052914001047611237 -0.1684499979019165 -0.014275999739766121
   vertex 0.053153000771999359 -0.16772599518299103 -0.014193999581038952
   vertex 0.054712001234292984 -0.16819499433040619 -0.013984000310301781
  endloop
 endfacet
 facet normal 0.44669700653481659 0.18893639670635781 -0.87450833177989329
  outer loop
   vertex 0.059877999126911163 -0.16906300187110901 -0.015767000615596771
   vertex 0.060006000101566315 -0.1685509979724884 -0.015591000206768513
   vertex 0.061287000775337219 -0.16979299485683441 -0.015204999595880508
  endloop
 endfacet
 facet normal 0.1179238746518631 0.29631724811478577 -0.94778164587460345
  outer loop
   vertex 0.059877999126911163 -0.16906300187110901 -0.015767000615596771
   vertex 0.058490000665187836 -0.16858099400997162 -0.015789000317454338
   vertex 0.060006000101566315 -0.1685509979724884 -0.015591000206768513
  endloop
 endfacet
 facet normal 0.44521110898822058 0.18704201938771156 -0.87567251379545175
  outer loop
   vertex 0.061370998620986938 -0.16928599774837494 -0.015053999610245228
   vertex 0.061287000775337219 -0.16979299485683441 -0.015204999595880508
   vertex 0.060006000101566315 -0.1685509979724884 -0.015591000206768513
  endloop
 endfacet
 facet normal 0.5252355266174451 0.82601529694680043 -0.20451496470621455
  outer loop
   vertex 0.061370998620986938 -0.16928599774837494 -0.015053999610245228
   vertex 0.060006000101566315 -0.1685509979724884 -0.015591000206768513
   vertex 0.061735998839139938 -0.16934700310230255 -0.0143630001693964
  endloop
 endfacet
 facet normal -0.22956745664805048 -0.74536464567474414 -0.62588363760870802
  outer loop
   vertex 0.057043001055717468 -0.16808199882507324 -0.015604999847710133
   vertex 0.056373000144958496 -0.16833999752998352 -0.015052000060677528
   vertex 0.05575300008058548 -0.16803400218486786 -0.015189000405371189
  endloop
 endfacet
 facet normal -0.31360105039675695 -0.6563670636625869 -0.68617538496291486
  outer loop
   vertex 0.056373000144958496 -0.16833999752998352 -0.015052000060677528
   vertex 0.057043001055717468 -0.16808199882507324 -0.015604999847710133
   vertex 0.058490000665187836 -0.16858099400997162 -0.015789000317454338
  endloop
 endfacet
 facet normal -0.4649148706211616 -0.87106386271164571 0.15843582345282814
  outer loop
   vertex 0.05575300008058548 -0.16803400218486786 -0.015189000405371189
   vertex 0.056373000144958496 -0.16833999752998352 -0.015052000060677528
   vertex 0.055943001061677933 -0.1680230051279068 -0.014570999890565872
  endloop
 endfacet
 facet normal 0.094799129252488679 0.57464825380430595 -0.81289145000586138
  outer loop
   vertex 0.060006000101566315 -0.1685509979724884 -0.015591000206768513
   vertex 0.058490000665187836 -0.16858099400997162 -0.015789000317454338
   vertex 0.057043001055717468 -0.16808199882507324 -0.015604999847710133
  endloop
 endfacet
 facet normal 0.32911037632564061 0.8053839367275375 0.49299399048674936
  outer loop
   vertex 0.059101998805999756 -0.16790999472141266 -0.007734999991953373
   vertex 0.059783998876810074 -0.16791200637817383 -0.0081869997084140778
   vertex 0.058113999664783478 -0.16735200583934784 -0.007987000048160553
  endloop
 endfacet
 facet normal 0.3115872124578859 0.94865432924219828 -0.054482773816676745
  outer loop
   vertex 0.058113999664783478 -0.16735200583934784 -0.007987000048160553
   vertex 0.059783998876810074 -0.16791200637817383 -0.0081869997084140778
   vertex 0.058476999402046204 -0.1676969975233078 -0.011917999945580959
  endloop
 endfacet
 facet normal -0.81435966614015753 0.44751437972851343 0.36952566094967615
  outer loop
   vertex 0.056552998721599579 -0.16791799664497375 -0.0088999997824430466
   vertex 0.057250998914241791 -0.16773200035095215 -0.0075869997963309288
   vertex 0.057367999106645584 -0.16723999381065369 -0.0079250000417232513
  endloop
 endfacet
 facet normal 0.14210654318020452 0.98711812534958421 -0.073508754524172631
  outer loop
   vertex 0.057367999106645584 -0.16723999381065369 -0.0079250000417232513
   vertex 0.058113999664783478 -0.16735200583934784 -0.007987000048160553
   vertex 0.058476999402046204 -0.1676969975233078 -0.011917999945580959
  endloop
 endfacet
 facet normal -0.25385253033193028 0.95048134624424763 -0.17928776669309882
  outer loop
   vertex 0.058476999402046204 -0.1676969975233078 -0.011917999945580959
   vertex 0.056940998882055283 -0.16767300665378571 -0.0096159996464848518
   vertex 0.057367999106645584 -0.16723999381065369 -0.0079250000417232513
  endloop
 endfacet
 facet normal -0.60072673166722035 0.79772342196857648 -0.052580756015523124
  outer loop
   vertex 0.056940998882055283 -0.16767300665378571 -0.0096159996464848518
   vertex 0.056552998721599579 -0.16791799664497375 -0.0088999997824430466
   vertex 0.057367999106645584 -0.16723999381065369 -0.0079250000417232513
  endloop
 endfacet
 facet normal -0.10243180729166732 0.95685960953547078 0.27189595895229662
  outer loop
   vertex 0.056552998721599579 -0.16791799664497375 -0.0088999997824430466
   vertex 0.056940998882055283 -0.16767300665378571 -0.0096159996464848518
   vertex 0.055897999554872513 -0.16790400445461273 -0.0091960001736879349
  endloop
 endfacet
 facet normal 0.52237417474476677 -0.43478670369618777 0.73354328014693659
  outer loop
   vertex 0.050503998994827271 -0.16740800440311432 -0.0060069998726248741
   vertex 0.051761001348495483 -0.16718000173568726 -0.0067670000717043877
   vertex 0.050014998763799667 -0.16721099615097046 -0.0055419998243451118
  endloop
 endfacet
 facet normal 0.6741182968221231 0.22500743323420083 0.70351700539432349
  outer loop
   vertex 0.049107000231742859 -0.16489100456237793 -0.0049560000188648701
   vertex 0.051761001348495483 -0.16718000173568726 -0.0067670000717043877
   vertex 0.053906001150608063 -0.167153000831604 -0.008830999955534935
  endloop
 endfacet
 facet normal 0.57403781141054588 0.017890808289212166 0.81863331843368625
  outer loop
   vertex 0.050014998763799667 -0.16721099615097046 -0.0055419998243451118
   vertex 0.051761001348495483 -0.16718000173568726 -0.0067670000717043877
   vertex 0.049107000231742859 -0.16489100456237793 -0.0049560000188648701
  endloop
 endfacet
 facet normal 0.63866535126671864 0.76924358654047853 0.019258080322304871
  outer loop
   vertex 0.054308000952005386 -0.16738599538803101 -0.012856000103056431
   vertex 0.049566000699996948 -0.16356100142002106 -0.0083799995481967926
   vertex 0.053906001150608063 -0.167153000831604 -0.008830999955534935
  endloop
 endfacet
 facet normal 0.62732085540427496 0.67966898073856463 0.38015604821789872
  outer loop
   vertex 0.049107000231742859 -0.16489100456237793 -0.0049560000188648701
   vertex 0.053906001150608063 -0.167153000831604 -0.008830999955534935
   vertex 0.048661001026630402 -0.16368399560451508 -0.0063780001364648342
  endloop
 endfacet
 facet normal 0.62276161270407648 0.71161034802123169 0.32523635456590533
  outer loop
   vertex 0.053906001150608063 -0.167153000831604 -0.008830999955534935
   vertex 0.049566000699996948 -0.16356100142002106 -0.0083799995481967926
   vertex 0.048661001026630402 -0.16368399560451508 -0.0063780001364648342
  endloop
 endfacet
 facet normal 0.37503949668281877 0.91074283166365122 0.17289554795069856
  outer loop
   vertex 0.055897999554872513 -0.16790400445461273 -0.0091960001736879349
   vertex 0.056173998862504959 -0.16757400333881378 -0.011532999575138092
   vertex 0.053906001150608063 -0.167153000831604 -0.008830999955534935
  endloop
 endfacet
 facet normal 0.13114529930536312 0.99037593083914433 -0.044231505565664395
  outer loop
   vertex 0.056173998862504959 -0.16757400333881378 -0.011532999575138092
   vertex 0.054308000952005386 -0.16738599538803101 -0.012856000103056431
   vertex 0.053906001150608063 -0.167153000831604 -0.008830999955534935
  endloop
 endfacet
 facet normal -0.16911327421420164 0.97848364703558222 0.11819667071664154
  outer loop
   vertex 0.056173998862504959 -0.16757400333881378 -0.011532999575138092
   vertex 0.055897999554872513 -0.16790400445461273 -0.0091960001736879349
   vertex 0.056940998882055283 -0.16767300665378571 -0.0096159996464848518
  endloop
 endfacet
 facet normal 0.15501933899075557 0.97452939987957976 -0.16205385928516283
  outer loop
   vertex 0.057043001055717468 -0.16808199882507324 -0.015604999847710133
   vertex 0.058476999402046204 -0.1676969975233078 -0.011917999945580959
   vertex 0.060006000101566315 -0.1685509979724884 -0.015591000206768513
  endloop
 endfacet
 facet normal 0.59409504791355305 0.74283108188463798 -0.30863094114280132
  outer loop
   vertex 0.057043001055717468 -0.16808199882507324 -0.015604999847710133
   vertex 0.05644499883055687 -0.16739599406719208 -0.015104999765753746
   vertex 0.058476999402046204 -0.1676969975233078 -0.011917999945580959
  endloop
 endfacet
 facet normal 0.058028882310473907 0.9979131487655637 0.028319539872588357
  outer loop
   vertex 0.056940998882055283 -0.16767300665378571 -0.0096159996464848518
   vertex 0.058476999402046204 -0.1676969975233078 -0.011917999945580959
   vertex 0.056173998862504959 -0.16757400333881378 -0.011532999575138092
  endloop
 endfacet
 facet normal -0.30385181928027544 0.91072223568101007 0.27974824638637052
  outer loop
   vertex 0.058476999402046204 -0.1676969975233078 -0.011917999945580959
   vertex 0.05644499883055687 -0.16739599406719208 -0.015104999765753746
   vertex 0.056483000516891479 -0.16779400408267975 -0.013767999596893787
  endloop
 endfacet
 facet normal 0.037634777373967095 0.99497914221719141 -0.092736886322292628
  outer loop
   vertex 0.056483000516891479 -0.16779400408267975 -0.013767999596893787
   vertex 0.056173998862504959 -0.16757400333881378 -0.011532999575138092
   vertex 0.058476999402046204 -0.1676969975233078 -0.011917999945580959
  endloop
 endfacet
 facet normal 0.51291194402809426 -0.2019434069413408 0.83435016513826199
  outer loop
   vertex 0.048271000385284424 -0.16575300693511963 -0.0041169999167323112
   vertex 0.047917000949382782 -0.16727599501609802 -0.0042679999023675919
   vertex 0.050014998763799667 -0.16721099615097046 -0.0055419998243451118
  endloop
 endfacet
 facet normal 0.66737286553229491 0.074020351897312028 0.74103606245324627
  outer loop
   vertex 0.049107000231742859 -0.16489100456237793 -0.0049560000188648701
   vertex 0.048271000385284424 -0.16575300693511963 -0.0041169999167323112
   vertex 0.050014998763799667 -0.16721099615097046 -0.0055419998243451118
  endloop
 endfacet
 facet normal 0.48753161762487168 -0.38595849722063036 0.78316598511379987
  outer loop
   vertex 0.047917000949382782 -0.16727599501609802 -0.0042679999023675919
   vertex 0.04960000142455101 -0.1677899956703186 -0.0055689997971057892
   vertex 0.050014998763799667 -0.16721099615097046 -0.0055419998243451118
  endloop
 endfacet
 facet normal 0.34021809884891563 -0.6369577877078576 0.69176327012493299
  outer loop
   vertex 0.048073001205921173 -0.16855999827384949 -0.0055269999429583549
   vertex 0.04960000142455101 -0.1677899956703186 -0.0055689997971057892
   vertex 0.047917000949382782 -0.16727599501609802 -0.0042679999023675919
  endloop
 endfacet
 facet normal -0.17478006480466862 -0.80825432921679319 0.56229606814309796
  outer loop
   vertex 0.047664999961853027 -0.16785399615764618 -0.004639000166207552
   vertex 0.046996001154184341 -0.16813300549983978 -0.0052479999139904976
   vertex 0.048073001205921173 -0.16855999827384949 -0.0055269999429583549
  endloop
 endfacet
 facet normal -0.23225383124408103 -0.86999720837242123 0.43492874737896986
  outer loop
   vertex 0.047589998692274094 -0.16881999373435974 -0.0063049998134374619
   vertex 0.048073001205921173 -0.16855999827384949 -0.0055269999429583549
   vertex 0.046996001154184341 -0.16813300549983978 -0.0052479999139904976
  endloop
 endfacet
 facet normal 0.41038697618121989 -0.61254102164436075 0.67555608692670177
  outer loop
   vertex 0.047917000949382782 -0.16727599501609802 -0.0042679999023675919
   vertex 0.047664999961853027 -0.16785399615764618 -0.004639000166207552
   vertex 0.048073001205921173 -0.16855999827384949 -0.0055269999429583549
  endloop
 endfacet
 facet normal -0.34320923768680878 -0.84785240421761088 0.40417040939293963
  outer loop
   vertex 0.04613799974322319 -0.16872799396514893 -0.0073449998162686825
   vertex 0.047589998692274094 -0.16881999373435974 -0.0063049998134374619
   vertex 0.046415001153945923 -0.16837200522422791 -0.00636299978941679
  endloop
 endfacet
 facet normal -0.34725159470172823 -0.86339497728854531 0.36601290027814443
  outer loop
   vertex 0.047589998692274094 -0.16881999373435974 -0.0063049998134374619
   vertex 0.046996001154184341 -0.16813300549983978 -0.0052479999139904976
   vertex 0.046415001153945923 -0.16837200522422791 -0.00636299978941679
  endloop
 endfacet
 facet normal -0.38782669293583577 -0.91487417795627857 0.11223054288060977
  outer loop
   vertex 0.04613799974322319 -0.16872799396514893 -0.0073449998162686825
   vertex 0.045067999511957169 -0.16844099760055542 -0.0087029999122023582
   vertex 0.044665001332759857 -0.1684039980173111 -0.0097939996048808098
  endloop
 endfacet
 facet normal -0.59232168650108719 -0.68939695119503397 0.41699743810184242
  outer loop
   vertex 0.046415001153945923 -0.16837200522422791 -0.00636299978941679
   vertex 0.045596998184919357 -0.16841499507427216 -0.0075960000976920128
   vertex 0.04613799974322319 -0.16872799396514893 -0.0073449998162686825
  endloop
 endfacet
 facet normal -0.57712723922131026 -0.76201757497390687 0.29368923231823596
  outer loop
   vertex 0.04613799974322319 -0.16872799396514893 -0.0073449998162686825
   vertex 0.045596998184919357 -0.16841499507427216 -0.0075960000976920128
   vertex 0.045067999511957169 -0.16844099760055542 -0.0087029999122023582
  endloop
 endfacet
 facet normal -0.56055642354045931 0.7943678317346623 0.23400052122313852
  outer loop
   vertex 0.045067999511957169 -0.16844099760055542 -0.0087029999122023582
   vertex 0.046812001615762711 -0.16677699983119965 -0.010173999704420567
   vertex 0.044665001332759857 -0.1684039980173111 -0.0097939996048808098
  endloop
 endfacet
 facet normal -0.71164576829254123 0.7008451337824344 -0.048748322276776182
  outer loop
   vertex 0.045086998492479324 -0.16810299456119537 -0.011626999825239182
   vertex 0.04483800008893013 -0.16838400065898895 -0.012032000347971916
   vertex 0.044665001332759857 -0.1684039980173111 -0.0097939996048808098
  endloop
 endfacet
 facet normal -0.71970386893357319 0.69233097068965821 -0.05200161599375229
  outer loop
   vertex 0.045086998492479324 -0.16810299456119537 -0.011626999825239182
   vertex 0.044665001332759857 -0.1684039980173111 -0.0097939996048808098
   vertex 0.045977000147104263 -0.16729700565338135 -0.013213999569416046
  endloop
 endfacet
 facet normal -0.60054760581406785 0.79908925380631013 0.028265484292077744
  outer loop
   vertex 0.046812001615762711 -0.16677699983119965 -0.010173999704420567
   vertex 0.045977000147104263 -0.16729700565338135 -0.013213999569416046
   vertex 0.044665001332759857 -0.1684039980173111 -0.0097939996048808098
  endloop
 endfacet
 facet normal -0.039343439021529598 -0.55910541631167765 -0.82816256088820206
  outer loop
   vertex 0.051017001271247864 -0.1686059981584549 -0.013538000173866749
   vertex 0.048819001764059067 -0.1682409942150116 -0.013679999858140945
   vertex 0.050411999225616455 -0.16737399995326996 -0.014340999536216259
  endloop
 endfacet
 facet normal 0.04968322760226318 -0.66504383403599654 -0.74514983439958149
  outer loop
   vertex 0.048819001764059067 -0.1682409942150116 -0.013679999858140945
   vertex 0.046000000089406967 -0.16708800196647644 -0.014897000044584274
   vertex 0.047428999096155167 -0.16627199947834015 -0.015530000440776348
  endloop
 endfacet
 facet normal -0.081336922156060837 -0.85743534869955418 -0.50812294564864191
  outer loop
   vertex 0.045752998441457748 -0.16797800362110138 -0.013632999733090401
   vertex 0.045935001224279404 -0.16756799817085266 -0.014353999868035316
   vertex 0.048819001764059067 -0.1682409942150116 -0.013679999858140945
  endloop
 endfacet
 facet normal -0.019476144403218026 -0.74793612289465206 -0.66348491758931583
  outer loop
   vertex 0.045935001224279404 -0.16756799817085266 -0.014353999868035316
   vertex 0.046000000089406967 -0.16708800196647644 -0.014897000044584274
   vertex 0.048819001764059067 -0.1682409942150116 -0.013679999858140945
  endloop
 endfacet
 facet normal 0.051953758928925592 -0.66409241822737441 -0.7458431919553018
  outer loop
   vertex 0.050411999225616455 -0.16737399995326996 -0.014340999536216259
   vertex 0.048819001764059067 -0.1682409942150116 -0.013679999858140945
   vertex 0.047428999096155167 -0.16627199947834015 -0.015530000440776348
  endloop
 endfacet
 facet normal -0.61634631966682119 0.77175885881244366 -0.15654225652416998
  outer loop
   vertex 0.045086998492479324 -0.16810299456119537 -0.011626999825239182
   vertex 0.045752998441457748 -0.16797800362110138 -0.013632999733090401
   vertex 0.04483800008893013 -0.16838400065898895 -0.012032000347971916
  endloop
 endfacet
 facet normal -0.85948424523617262 0.44136081078126999 -0.25785163737565597
  outer loop
   vertex 0.045752998441457748 -0.16797800362110138 -0.013632999733090401
   vertex 0.045086998492479324 -0.16810299456119537 -0.011626999825239182
   vertex 0.045977000147104263 -0.16729700565338135 -0.013213999569416046
  endloop
 endfacet
 facet normal -0.95616754429155926 0.16616769539605614 0.24110562882316272
  outer loop
   vertex 0.045752998441457748 -0.16797800362110138 -0.013632999733090401
   vertex 0.045977000147104263 -0.16729700565338135 -0.013213999569416046
   vertex 0.045823998749256134 -0.16741999983787537 -0.013736000284552574
  endloop
 endfacet
 facet normal -0.97655264931295072 0.087989384576394131 -0.19647593064221502
  outer loop
   vertex 0.045752998441457748 -0.16797800362110138 -0.013632999733090401
   vertex 0.045823998749256134 -0.16741999983787537 -0.013736000284552574
   vertex 0.045935001224279404 -0.16756799817085266 -0.014353999868035316
  endloop
 endfacet
 facet normal -0.30039053019760825 0.62906091958233201 -0.71697133054385842
  outer loop
   vertex 0.055084001272916794 -0.16860100626945496 -0.014124000445008278
   vertex 0.055348999798297882 -0.16801400482654572 -0.01372000016272068
   vertex 0.055810999125242233 -0.16835300624370575 -0.014210999943315983
  endloop
 endfacet
 facet normal -0.33782609810776537 0.75224382173638604 0.56568786454786057
  outer loop
   vertex 0.055943001061677933 -0.1680230051279068 -0.014570999890565872
   vertex 0.055810999125242233 -0.16835300624370575 -0.014210999943315983
   vertex 0.05644499883055687 -0.16739599406719208 -0.015104999765753746
  endloop
 endfacet
 facet normal -0.16952880353266819 0.7291947708021046 -0.66297433661315142
  outer loop
   vertex 0.056483000516891479 -0.16779400408267975 -0.013767999596893787
   vertex 0.055810999125242233 -0.16835300624370575 -0.014210999943315983
   vertex 0.055348999798297882 -0.16801400482654572 -0.01372000016272068
  endloop
 endfacet
 facet normal -0.70557964526733308 0.67344156038310299 0.22053078908215012
  outer loop
   vertex 0.055810999125242233 -0.16835300624370575 -0.014210999943315983
   vertex 0.056483000516891479 -0.16779400408267975 -0.013767999596893787
   vertex 0.05644499883055687 -0.16739599406719208 -0.015104999765753746
  endloop
 endfacet
 facet normal -0.67747450445173685 0.70904302203953307 0.19566882407506775
  outer loop
   vertex 0.05644499883055687 -0.16739599406719208 -0.015104999765753746
   vertex 0.05575300008058548 -0.16803400218486786 -0.015189000405371189
   vertex 0.055943001061677933 -0.1680230051279068 -0.014570999890565872
  endloop
 endfacet
 facet normal 0.21271126699590162 0.48699062075768634 -0.84710923273627559
  outer loop
   vertex 0.055348999798297882 -0.16801400482654572 -0.01372000016272068
   vertex 0.055084001272916794 -0.16860100626945496 -0.014124000445008278
   vertex 0.054712001234292984 -0.16819499433040619 -0.013984000310301781
  endloop
 endfacet
 facet normal 0.057782505939622253 0.033264886960149571 -0.997774838980652
  outer loop
   vertex 0.052319999784231186 -0.16660900413990021 -0.01420500036329031
   vertex 0.053153000771999359 -0.16772599518299103 -0.014193999581038952
   vertex 0.050411999225616455 -0.16737399995326996 -0.014340999536216259
  endloop
 endfacet
 facet normal 0.285063072787056 -0.23183780119239258 -0.93004853554611777
  outer loop
   vertex 0.050411999225616455 -0.16737399995326996 -0.014340999536216259
   vertex 0.047428999096155167 -0.16627199947834015 -0.015530000440776348
   vertex 0.051336999982595444 -0.16602000594139099 -0.014395000413060188
  endloop
 endfacet
 facet normal 0.11846547131830791 -0.12024179287137976 -0.98565097440849081
  outer loop
   vertex 0.050411999225616455 -0.16737399995326996 -0.014340999536216259
   vertex 0.051336999982595444 -0.16602000594139099 -0.014395000413060188
   vertex 0.052319999784231186 -0.16660900413990021 -0.01420500036329031
  endloop
 endfacet
 facet normal 0.3076394606379711 0.77621399979591654 -0.55031789792737351
  outer loop
   vertex 0.054712001234292984 -0.16819499433040619 -0.013984000310301781
   vertex 0.053153000771999359 -0.16772599518299103 -0.014193999581038952
   vertex 0.054191000759601593 -0.16771200299263 -0.013593999668955803
  endloop
 endfacet
 facet normal 0.10161904657593579 0.6890323785148178 -0.71757086808984283
  outer loop
   vertex 0.054712001234292984 -0.16819499433040619 -0.013984000310301781
   vertex 0.054191000759601593 -0.16771200299263 -0.013593999668955803
   vertex 0.055348999798297882 -0.16801400482654572 -0.01372000016272068
  endloop
 endfacet
 facet normal 0.46712865882799004 0.34032612612822999 -0.81606920293325347
  outer loop
   vertex 0.052319999784231186 -0.16660900413990021 -0.01420500036329031
   vertex 0.054191000759601593 -0.16771200299263 -0.013593999668955803
   vertex 0.053153000771999359 -0.16772599518299103 -0.014193999581038952
  endloop
 endfacet
 facet normal -0.26698139257144382 0.4047244081376809 -0.87459652953702982
  outer loop
   vertex 0.05575300008058548 -0.16803400218486786 -0.015189000405371189
   vertex 0.05644499883055687 -0.16739599406719208 -0.015104999765753746
   vertex 0.057043001055717468 -0.16808199882507324 -0.015604999847710133
  endloop
 endfacet
 facet normal 0.41049418379991631 0.75467177015704467 0.51182520883058646
  outer loop
   vertex 0.049107000231742859 -0.16489100456237793 -0.0049560000188648701
   vertex 0.048661001026630402 -0.16368399560451508 -0.0063780001364648342
   vertex 0.048633001744747162 -0.16470099985599518 -0.0048560001887381077
  endloop
 endfacet
 facet normal 0.35416144550694001 0.45289254032351611 0.8182041416637702
  outer loop
   vertex 0.049107000231742859 -0.16489100456237793 -0.0049560000188648701
   vertex 0.048633001744747162 -0.16470099985599518 -0.0048560001887381077
   vertex 0.048271000385284424 -0.16575300693511963 -0.0041169999167323112
  endloop
 endfacet
 facet normal 0.55885084942125984 0.72217414136997171 -0.40761530594137446
  outer loop
   vertex 0.054191000759601593 -0.16771200299263 -0.013593999668955803
   vertex 0.052319999784231186 -0.16660900413990021 -0.01420500036329031
   vertex 0.054308000952005386 -0.16738599538803101 -0.012856000103056431
  endloop
 endfacet
 facet normal 0.53111915279815824 0.77857698388606389 -0.33426086473568273
  outer loop
   vertex 0.052319999784231186 -0.16660900413990021 -0.01420500036329031
   vertex 0.051336999982595444 -0.16602000594139099 -0.014395000413060188
   vertex 0.054308000952005386 -0.16738599538803101 -0.012856000103056431
  endloop
 endfacet
 facet normal 0.56936922807152368 0.55109468683905682 -0.61001092470790985
  outer loop
   vertex 0.049106001853942871 -0.16334199905395508 -0.014058000408113003
   vertex 0.054308000952005386 -0.16738599538803101 -0.012856000103056431
   vertex 0.051336999982595444 -0.16602000594139099 -0.014395000413060188
  endloop
 endfacet
 facet normal 0.38291453594550645 0.82104261219223384 -0.42339755210226532
  outer loop
   vertex 0.054191000759601593 -0.16771200299263 -0.013593999668955803
   vertex 0.054308000952005386 -0.16738599538803101 -0.012856000103056431
   vertex 0.056173998862504959 -0.16757400333881378 -0.011532999575138092
  endloop
 endfacet
 facet normal 0.6164496925756846 0.7871507983933631 -0.019580528900796122
  outer loop
   vertex 0.049106001853942871 -0.16334199905395508 -0.014058000408113003
   vertex 0.049566000699996948 -0.16356100142002106 -0.0083799995481967926
   vertex 0.054308000952005386 -0.16738599538803101 -0.012856000103056431
  endloop
 endfacet
 facet normal 0.38407599229414019 0.92329053830073149 0.0044960012919387296
  outer loop
   vertex 0.049566000699996948 -0.16356100142002106 -0.0083799995481967926
   vertex 0.049106001853942871 -0.16334199905395508 -0.014058000408113003
   vertex 0.048921998590230942 -0.16328899562358856 -0.0092240003868937492
  endloop
 endfacet
 facet normal 0.48049805764515413 0.87283385051286733 -0.085338654770952038
  outer loop
   vertex 0.049566000699996948 -0.16356100142002106 -0.0083799995481967926
   vertex 0.048921998590230942 -0.16328899562358856 -0.0092240003868937492
   vertex 0.049020998179912567 -0.16325999796390533 -0.0083699999377131462
  endloop
 endfacet
 facet normal 0.46999342616221201 0.84220194645108704 0.26420079628628251
  outer loop
   vertex 0.049566000699996948 -0.16356100142002106 -0.0083799995481967926
   vertex 0.049020998179912567 -0.16325999796390533 -0.0083699999377131462
   vertex 0.048661001026630402 -0.16368399560451508 -0.0063780001364648342
  endloop
 endfacet
 facet normal -0.09506971111363062 0.97701877105313717 0.19077754332884186
  outer loop
   vertex 0.048661001026630402 -0.16368399560451508 -0.0063780001364648342
   vertex 0.049020998179912567 -0.16325999796390533 -0.0083699999377131462
   vertex 0.047630999237298965 -0.16381800174713135 -0.0062049999833106995
  endloop
 endfacet
 facet normal -0.014905566226861735 0.83149470409973913 0.55533267610464265
  outer loop
   vertex 0.047630999237298965 -0.16381800174713135 -0.0062049999833106995
   vertex 0.048633001744747162 -0.16470099985599518 -0.0048560001887381077
   vertex 0.048661001026630402 -0.16368399560451508 -0.0063780001364648342
  endloop
 endfacet
 facet normal -0.19401547622065904 0.9733035584685219 -0.12263024936524977
  outer loop
   vertex 0.056173998862504959 -0.16757400333881378 -0.011532999575138092
   vertex 0.056483000516891479 -0.16779400408267975 -0.013767999596893787
   vertex 0.055348999798297882 -0.16801400482654572 -0.01372000016272068
  endloop
 endfacet
 facet normal 0.21536149145535705 0.93845290715740681 -0.27004734593388602
  outer loop
   vertex 0.056173998862504959 -0.16757400333881378 -0.011532999575138092
   vertex 0.055348999798297882 -0.16801400482654572 -0.01372000016272068
   vertex 0.054191000759601593 -0.16771200299263 -0.013593999668955803
  endloop
 endfacet
 facet normal -0.361898612320736 0.29339272114377851 0.88484467878841577
  outer loop
   vertex 0.04755600169301033 -0.16626399755477905 -0.0042400001548230648
   vertex 0.048271000385284424 -0.16575300693511963 -0.0041169999167323112
   vertex 0.047465000301599503 -0.16538099944591522 -0.0045699998736381531
  endloop
 endfacet
 facet normal -0.12014404761224724 -0.070256251586640395 0.99026737143881538
  outer loop
   vertex 0.047917000949382782 -0.16727599501609802 -0.0042679999023675919
   vertex 0.048271000385284424 -0.16575300693511963 -0.0041169999167323112
   vertex 0.04755600169301033 -0.16626399755477905 -0.0042400001548230648
  endloop
 endfacet
 facet normal -0.16026048247114399 0.603718869800277 0.78092259796038199
  outer loop
   vertex 0.048633001744747162 -0.16470099985599518 -0.0048560001887381077
   vertex 0.047465000301599503 -0.16538099944591522 -0.0045699998736381531
   vertex 0.048271000385284424 -0.16575300693511963 -0.0041169999167323112
  endloop
 endfacet
 facet normal -0.061215977637701265 -0.049418979095486003 0.99690038047290397
  outer loop
   vertex 0.04755600169301033 -0.16626399755477905 -0.0042400001548230648
   vertex 0.047306999564170837 -0.1669439971446991 -0.004288999829441309
   vertex 0.047917000949382782 -0.16727599501609802 -0.0042679999023675919
  endloop
 endfacet
 facet normal -0.2666650600150085 -0.435579567745072 0.85974425611934635
  outer loop
   vertex 0.047664999961853027 -0.16785399615764618 -0.004639000166207552
   vertex 0.047917000949382782 -0.16727599501609802 -0.0042679999023675919
   vertex 0.047306999564170837 -0.1669439971446991 -0.004288999829441309
  endloop
 endfacet
 facet normal -0.52506833061429714 -0.39099200421947877 0.75592889931682739
  outer loop
   vertex 0.046996001154184341 -0.16813300549983978 -0.0052479999139904976
   vertex 0.047664999961853027 -0.16785399615764618 -0.004639000166207552
   vertex 0.046877998858690262 -0.16729399561882019 -0.0048960000276565552
  endloop
 endfacet
 facet normal -0.56167034638199909 -0.48012081631564585 0.67380295616413177
  outer loop
   vertex 0.047664999961853027 -0.16785399615764618 -0.004639000166207552
   vertex 0.047306999564170837 -0.1669439971446991 -0.004288999829441309
   vertex 0.046877998858690262 -0.16729399561882019 -0.0048960000276565552
  endloop
 endfacet
 facet normal -0.81038835388602959 -0.31990741456215871 0.49084616937900877
  outer loop
   vertex 0.046877998858690262 -0.16729399561882019 -0.0048960000276565552
   vertex 0.046415001153945923 -0.16837200522422791 -0.00636299978941679
   vertex 0.046996001154184341 -0.16813300549983978 -0.0052479999139904976
  endloop
 endfacet
 facet normal -0.91575889506427233 0.40168124703300434 -0.0061499506236677376
  outer loop
   vertex 0.046415001153945923 -0.16837200522422791 -0.00636299978941679
   vertex 0.046877998858690262 -0.16729399561882019 -0.0048960000276565552
   vertex 0.047348000109195709 -0.16628000140190125 -0.0086529999971389771
  endloop
 endfacet
 facet normal -0.61264158449052852 0.69173624132438394 0.38232350358217343
  outer loop
   vertex 0.045596998184919357 -0.16841499507427216 -0.0075960000976920128
   vertex 0.046415001153945923 -0.16837200522422791 -0.00636299978941679
   vertex 0.047348000109195709 -0.16628000140190125 -0.0086529999971389771
  endloop
 endfacet
 facet normal -0.65986023338932975 0.6892770145194751 0.2991348686570971
  outer loop
   vertex 0.045067999511957169 -0.16844099760055542 -0.0087029999122023582
   vertex 0.045596998184919357 -0.16841499507427216 -0.0075960000976920128
   vertex 0.047348000109195709 -0.16628000140190125 -0.0086529999971389771
  endloop
 endfacet
 facet normal -0.6879632278355533 0.72572618729227467 0.0053007758210496039
  outer loop
   vertex 0.047348000109195709 -0.16628000140190125 -0.0086529999971389771
   vertex 0.046812001615762711 -0.16677699983119965 -0.010173999704420567
   vertex 0.045067999511957169 -0.16844099760055542 -0.0087029999122023582
  endloop
 endfacet
 facet normal -0.7141915013030552 0.69568352040406012 0.0771682506261583
  outer loop
   vertex 0.046812001615762711 -0.16677699983119965 -0.010173999704420567
   vertex 0.047141999006271362 -0.16637399792671204 -0.010753000155091286
   vertex 0.045977000147104263 -0.16729700565338135 -0.013213999569416046
  endloop
 endfacet
 facet normal -0.90392599987548428 0.38116094225375496 0.19399516192249652
  outer loop
   vertex 0.046812001615762711 -0.16677699983119965 -0.010173999704420567
   vertex 0.047348000109195709 -0.16628000140190125 -0.0086529999971389771
   vertex 0.047320999205112457 -0.16557499766349792 -0.01016400009393692
  endloop
 endfacet
 facet normal -0.89224662630878993 0.37986008409453997 -0.24413577032518544
  outer loop
   vertex 0.047141999006271362 -0.16637399792671204 -0.010753000155091286
   vertex 0.046812001615762711 -0.16677699983119965 -0.010173999704420567
   vertex 0.047320999205112457 -0.16557499766349792 -0.01016400009393692
  endloop
 endfacet
 facet normal -0.84067398054582787 0.52759882820985604 0.12209314028568433
  outer loop
   vertex 0.045823998749256134 -0.16741999983787537 -0.013736000284552574
   vertex 0.045977000147104263 -0.16729700565338135 -0.013213999569416046
   vertex 0.046131998300552368 -0.16695399582386017 -0.013628999702632427
  endloop
 endfacet
 facet normal -0.80570756576744396 0.56786123857838822 0.16843079345926873
  outer loop
   vertex 0.047141999006271362 -0.16637399792671204 -0.010753000155091286
   vertex 0.046131998300552368 -0.16695399582386017 -0.013628999702632427
   vertex 0.045977000147104263 -0.16729700565338135 -0.013213999569416046
  endloop
 endfacet
 facet normal -0.20999112945507464 -0.34260632890730069 -0.91570990435991506
  outer loop
   vertex 0.046000000089406967 -0.16708800196647644 -0.014897000044584274
   vertex 0.045566000044345856 -0.16551500558853149 -0.015386000275611877
   vertex 0.047428999096155167 -0.16627199947834015 -0.015530000440776348
  endloop
 endfacet
 facet normal -0.98834090712244427 0.15145826492720174 0.01557707590099981
  outer loop
   vertex 0.046020999550819397 -0.16701699793338776 -0.014255000278353691
   vertex 0.046000000089406967 -0.16708800196647644 -0.014897000044584274
   vertex 0.045935001224279404 -0.16756799817085266 -0.014353999868035316
  endloop
 endfacet
 facet normal -0.98980375908808882 -0.13437675242334643 0.047237769880080077
  outer loop
   vertex 0.046000000089406967 -0.16708800196647644 -0.014897000044584274
   vertex 0.046020999550819397 -0.16701699793338776 -0.014255000278353691
   vertex 0.045715998858213425 -0.16498799622058868 -0.01487400010228157
  endloop
 endfacet
 facet normal -0.90884282491369106 -0.12726120359554555 0.39725219403083845
  outer loop
   vertex 0.045566000044345856 -0.16551500558853149 -0.015386000275611877
   vertex 0.046000000089406967 -0.16708800196647644 -0.014897000044584274
   vertex 0.045715998858213425 -0.16498799622058868 -0.01487400010228157
  endloop
 endfacet
 facet normal -0.19798804750303925 -0.31039313292819576 -0.92976170929811552
  outer loop
   vertex 0.047428999096155167 -0.16627199947834015 -0.015530000440776348
   vertex 0.045566000044345856 -0.16551500558853149 -0.015386000275611877
   vertex 0.046925999224185944 -0.16539700329303741 -0.015714999288320541
  endloop
 endfacet
 facet normal 0.28511705104265223 -0.19279279935754454 -0.93890319187902616
  outer loop
   vertex 0.048790000379085541 -0.16486799716949463 -0.015405000187456608
   vertex 0.051336999982595444 -0.16602000594139099 -0.014395000413060188
   vertex 0.047428999096155167 -0.16627199947834015 -0.015530000440776348
  endloop
 endfacet
 facet normal 0.19008150740830013 -0.097281779494218984 -0.97693667958564567
  outer loop
   vertex 0.048790000379085541 -0.16486799716949463 -0.015405000187456608
   vertex 0.047428999096155167 -0.16627199947834015 -0.015530000440776348
   vertex 0.046925999224185944 -0.16539700329303741 -0.015714999288320541
  endloop
 endfacet
 facet normal -0.95775931152997917 0.18850370471272096 -0.21717148635859118
  outer loop
   vertex 0.046020999550819397 -0.16701699793338776 -0.014255000278353691
   vertex 0.045935001224279404 -0.16756799817085266 -0.014353999868035316
   vertex 0.045823998749256134 -0.16741999983787537 -0.013736000284552574
  endloop
 endfacet
 facet normal -0.84037893356755078 0.53355286634818655 0.095313098929266912
  outer loop
   vertex 0.046131998300552368 -0.16695399582386017 -0.013628999702632427
   vertex 0.046020999550819397 -0.16701699793338776 -0.014255000278353691
   vertex 0.045823998749256134 -0.16741999983787537 -0.013736000284552574
  endloop
 endfacet
 facet normal 0.449590655848353 0.2395784255424824 -0.86050590944422511
  outer loop
   vertex 0.048966001719236374 -0.16418899595737457 -0.015123999677598476
   vertex 0.051336999982595444 -0.16602000594139099 -0.014395000413060188
   vertex 0.048790000379085541 -0.16486799716949463 -0.015405000187456608
  endloop
 endfacet
 facet normal 0.61222208212014351 0.57793494345318774 -0.53960663756132299
  outer loop
   vertex 0.048966001719236374 -0.16418899595737457 -0.015123999677598476
   vertex 0.049106001853942871 -0.16334199905395508 -0.014058000408113003
   vertex 0.051336999982595444 -0.16602000594139099 -0.014395000413060188
  endloop
 endfacet
 facet normal -0.15078158129435573 0.77208624586589103 0.61737164146653889
  outer loop
   vertex 0.047630999237298965 -0.16381800174713135 -0.0062049999833106995
   vertex 0.0474729984998703 -0.16479000449180603 -0.0050280001014471054
   vertex 0.048633001744747162 -0.16470099985599518 -0.0048560001887381077
  endloop
 endfacet
 facet normal -0.16198012309515852 0.60583352852612982 0.77892758035369125
  outer loop
   vertex 0.0474729984998703 -0.16479000449180603 -0.0050280001014471054
   vertex 0.047465000301599503 -0.16538099944591522 -0.0045699998736381531
   vertex 0.048633001744747162 -0.16470099985599518 -0.0048560001887381077
  endloop
 endfacet
 facet normal 0.3447761346791347 0.7123584769779947 -0.61128947090008579
  outer loop
   vertex 0.048307999968528748 -0.16391000151634216 -0.015169999562203884
   vertex 0.049106001853942871 -0.16334199905395508 -0.014058000408113003
   vertex 0.048966001719236374 -0.16418899595737457 -0.015123999677598476
  endloop
 endfacet
 facet normal 0.057299140115376554 0.87183024056596503 -0.48644510499822063
  outer loop
   vertex 0.049106001853942871 -0.16334199905395508 -0.014058000408113003
   vertex 0.048307999968528748 -0.16391000151634216 -0.015169999562203884
   vertex 0.047371000051498413 -0.16305500268936157 -0.013748000375926495
  endloop
 endfacet
 facet normal 0.16555017449312601 0.98610738485913096 0.013614890803137431
  outer loop
   vertex 0.047371000051498413 -0.16305500268936157 -0.013748000375926495
   vertex 0.047244001179933548 -0.16307300329208374 -0.010900000110268593
   vertex 0.049106001853942871 -0.16334199905395508 -0.014058000408113003
  endloop
 endfacet
 facet normal 0.13335222000910432 0.99105179180196956 -0.0057906290460503626
  outer loop
   vertex 0.048921998590230942 -0.16328899562358856 -0.0092240003868937492
   vertex 0.049106001853942871 -0.16334199905395508 -0.014058000408113003
   vertex 0.047244001179933548 -0.16307300329208374 -0.010900000110268593
  endloop
 endfacet
 facet normal 0.070522761785787397 0.99662491057804448 -0.042015802805730126
  outer loop
   vertex 0.048921998590230942 -0.16328899562358856 -0.0092240003868937492
   vertex 0.047371000051498413 -0.16321200132369995 -0.010001000016927719
   vertex 0.049020998179912567 -0.16325999796390533 -0.0083699999377131462
  endloop
 endfacet
 facet normal -0.029549663142259625 0.98718704890500009 0.15680735914623373
  outer loop
   vertex 0.047371000051498413 -0.16321200132369995 -0.010001000016927719
   vertex 0.048921998590230942 -0.16328899562358856 -0.0092240003868937492
   vertex 0.047244001179933548 -0.16307300329208374 -0.010900000110268593
  endloop
 endfacet
 facet normal -0.15071497171548928 0.97636875724534178 0.15488397972671739
  outer loop
   vertex 0.047630999237298965 -0.16381800174713135 -0.0062049999833106995
   vertex 0.049020998179912567 -0.16325999796390533 -0.0083699999377131462
   vertex 0.047095000743865967 -0.16349400579929352 -0.0087689999490976334
  endloop
 endfacet
 facet normal -0.15655591183802534 0.96982034090817948 0.18691910771589693
  outer loop
   vertex 0.047095000743865967 -0.16349400579929352 -0.0087689999490976334
   vertex 0.049020998179912567 -0.16325999796390533 -0.0083699999377131462
   vertex 0.047371000051498413 -0.16321200132369995 -0.010001000016927719
  endloop
 endfacet
 facet normal -0.92055873823354584 -0.23140649981434477 -0.31467863179049188
  outer loop
   vertex 0.0474729984998703 -0.16479000449180603 -0.0050280001014471054
   vertex 0.047630999237298965 -0.16381800174713135 -0.0062049999833106995
   vertex 0.047465000301599503 -0.16538099944591522 -0.0045699998736381531
  endloop
 endfacet
 facet normal -0.99730055061433576 0.046319193944664716 -0.056974942006633743
  outer loop
   vertex 0.047465000301599503 -0.16538099944591522 -0.0045699998736381531
   vertex 0.047630999237298965 -0.16381800174713135 -0.0062049999833106995
   vertex 0.047690000385046005 -0.1646990031003952 -0.0079539995640516281
  endloop
 endfacet
 facet normal -0.92285125269271606 -0.3555919863882131 0.14798616360987757
  outer loop
   vertex 0.047690000385046005 -0.1646990031003952 -0.0079539995640516281
   vertex 0.047630999237298965 -0.16381800174713135 -0.0062049999833106995
   vertex 0.047095000743865967 -0.16349400579929352 -0.0087689999490976334
  endloop
 endfacet
 facet normal -0.67538465739585851 0.19608452584468383 0.71091942108690798
  outer loop
   vertex 0.04755600169301033 -0.16626399755477905 -0.0042400001548230648
   vertex 0.047465000301599503 -0.16538099944591522 -0.0045699998736381531
   vertex 0.047306999564170837 -0.1669439971446991 -0.004288999829441309
  endloop
 endfacet
 facet normal -0.95579093423514572 0.29401571415324274 -0.004295330588689362
  outer loop
   vertex 0.047690000385046005 -0.1646990031003952 -0.0079539995640516281
   vertex 0.046877998858690262 -0.16729399561882019 -0.0048960000276565552
   vertex 0.047465000301599503 -0.16538099944591522 -0.0045699998736381531
  endloop
 endfacet
 facet normal -0.84881216825500372 0.1754675496488865 0.49872742258918817
  outer loop
   vertex 0.047465000301599503 -0.16538099944591522 -0.0045699998736381531
   vertex 0.046877998858690262 -0.16729399561882019 -0.0048960000276565552
   vertex 0.047306999564170837 -0.1669439971446991 -0.004288999829441309
  endloop
 endfacet
 facet normal -0.9701688509168841 0.23543263313893084 -0.057826256699550237
  outer loop
   vertex 0.046877998858690262 -0.16729399561882019 -0.0048960000276565552
   vertex 0.047690000385046005 -0.1646990031003952 -0.0079539995640516281
   vertex 0.047348000109195709 -0.16628000140190125 -0.0086529999971389771
  endloop
 endfacet
 facet normal -0.98421002729794038 0.17674613413132712 -0.0095617067419264713
  outer loop
   vertex 0.047580000013113022 -0.16504399478435516 -0.0096859997138381004
   vertex 0.047348000109195709 -0.16628000140190125 -0.0086529999971389771
   vertex 0.047651000320911407 -0.1646140068769455 -0.0090460004284977913
  endloop
 endfacet
 facet normal -0.98050440834362584 0.19007836526584873 0.049812852524010187
  outer loop
   vertex 0.047690000385046005 -0.1646990031003952 -0.0079539995640516281
   vertex 0.047651000320911407 -0.1646140068769455 -0.0090460004284977913
   vertex 0.047348000109195709 -0.16628000140190125 -0.0086529999971389771
  endloop
 endfacet
 facet normal -0.93650032652152637 0.31106915997685447 0.16187376605357856
  outer loop
   vertex 0.047348000109195709 -0.16628000140190125 -0.0086529999971389771
   vertex 0.047580000013113022 -0.16504399478435516 -0.0096859997138381004
   vertex 0.047320999205112457 -0.16557499766349792 -0.01016400009393692
  endloop
 endfacet
 facet normal -0.89194436092020946 0.38604459763870863 0.2353822968207393
  outer loop
   vertex 0.047141999006271362 -0.16637399792671204 -0.010753000155091286
   vertex 0.047152001410722733 -0.16536800563335419 -0.012365000322461128
   vertex 0.046131998300552368 -0.16695399582386017 -0.013628999702632427
  endloop
 endfacet
 facet normal -0.98395037234506966 0.1540607993729825 0.090038518749234311
  outer loop
   vertex 0.047141999006271362 -0.16637399792671204 -0.010753000155091286
   vertex 0.047320999205112457 -0.16557499766349792 -0.01016400009393692
   vertex 0.047152001410722733 -0.16536800563335419 -0.012365000322461128
  endloop
 endfacet
 facet normal -0.8164862477643261 -0.11167273216238904 0.56646218594282083
  outer loop
   vertex 0.047580000013113022 -0.16504399478435516 -0.0096859997138381004
   vertex 0.047247998416423798 -0.16418400406837463 -0.0099950004369020462
   vertex 0.047320999205112457 -0.16557499766349792 -0.01016400009393692
  endloop
 endfacet
 facet normal -0.94424817772734748 -0.0095714719666018626 -0.32909537490365365
  outer loop
   vertex 0.047320999205112457 -0.16557499766349792 -0.01016400009393692
   vertex 0.047247998416423798 -0.16418400406837463 -0.0099950004369020462
   vertex 0.047547001391649246 -0.16500599682331085 -0.010828999802470207
  endloop
 endfacet
 facet normal -0.87180528211462449 0.47692580290883863 0.11179145135832033
  outer loop
   vertex 0.047547001391649246 -0.16500599682331085 -0.010828999802470207
   vertex 0.047152001410722733 -0.16536800563335419 -0.012365000322461128
   vertex 0.047320999205112457 -0.16557499766349792 -0.01016400009393692
  endloop
 endfacet
 facet normal -0.97889883631886554 -0.091389797383503057 0.18277027435492119
  outer loop
   vertex 0.046020999550819397 -0.16701699793338776 -0.014255000278353691
   vertex 0.046131998300552368 -0.16695399582386017 -0.013628999702632427
   vertex 0.045715998858213425 -0.16498799622058868 -0.01487400010228157
  endloop
 endfacet
 facet normal -0.84972518761567584 0.14177668615317637 0.50780555018129536
  outer loop
   vertex 0.047152001410722733 -0.16536800563335419 -0.012365000322461128
   vertex 0.045715998858213425 -0.16498799622058868 -0.01487400010228157
   vertex 0.046131998300552368 -0.16695399582386017 -0.013628999702632427
  endloop
 endfacet
 facet normal -0.97150832192910841 0.23266910142863306 0.045129476651966961
  outer loop
   vertex 0.045715998858213425 -0.16498799622058868 -0.01487400010228157
   vertex 0.045820001512765884 -0.16449399292469025 -0.015181999653577805
   vertex 0.045566000044345856 -0.16551500558853149 -0.015386000275611877
  endloop
 endfacet
 facet normal -0.24807548902907753 0.24877992307590888 -0.93625162302520415
  outer loop
   vertex 0.045820001512765884 -0.16449399292469025 -0.015181999653577805
   vertex 0.046925999224185944 -0.16539700329303741 -0.015714999288320541
   vertex 0.045566000044345856 -0.16551500558853149 -0.015386000275611877
  endloop
 endfacet
 facet normal -0.93780866977458188 0.30303386522269005 0.16936757488913257
  outer loop
   vertex 0.045715998858213425 -0.16498799622058868 -0.01487400010228157
   vertex 0.046342000365257263 -0.1637129932641983 -0.013689000159502029
   vertex 0.045820001512765884 -0.16449399292469025 -0.015181999653577805
  endloop
 endfacet
 facet normal -0.87083415732197589 -0.028542945087264977 0.49074756313920675
  outer loop
   vertex 0.047444999217987061 -0.16462899744510651 -0.011784999631345272
   vertex 0.046342000365257263 -0.1637129932641983 -0.013689000159502029
   vertex 0.045715998858213425 -0.16498799622058868 -0.01487400010228157
  endloop
 endfacet
 facet normal -0.86983628110330702 -0.040985413401207815 0.49163506787524919
  outer loop
   vertex 0.047444999217987061 -0.16462899744510651 -0.011784999631345272
   vertex 0.045715998858213425 -0.16498799622058868 -0.01487400010228157
   vertex 0.047152001410722733 -0.16536800563335419 -0.012365000322461128
  endloop
 endfacet
 facet normal 0.081039879746779855 0.27572974508438042 -0.95781294915360704
  outer loop
   vertex 0.048307999968528748 -0.16391000151634216 -0.015169999562203884
   vertex 0.048790000379085541 -0.16486799716949463 -0.015405000187456608
   vertex 0.046925999224185944 -0.16539700329303741 -0.015714999288320541
  endloop
 endfacet
 facet normal -0.093833338405893071 0.41832555791713982 -0.90343734270668652
  outer loop
   vertex 0.045820001512765884 -0.16449399292469025 -0.015181999653577805
   vertex 0.048307999968528748 -0.16391000151634216 -0.015169999562203884
   vertex 0.046925999224185944 -0.16539700329303741 -0.015714999288320541
  endloop
 endfacet
 facet normal 0.20386820825568075 0.32877820959186871 -0.92214025102485553
  outer loop
   vertex 0.048966001719236374 -0.16418899595737457 -0.015123999677598476
   vertex 0.048790000379085541 -0.16486799716949463 -0.015405000187456608
   vertex 0.048307999968528748 -0.16391000151634216 -0.015169999562203884
  endloop
 endfacet
 facet normal -0.11319974520040324 0.49991253261718888 -0.85864618872899678
  outer loop
   vertex 0.048307999968528748 -0.16391000151634216 -0.015169999562203884
   vertex 0.045820001512765884 -0.16449399292469025 -0.015181999653577805
   vertex 0.046324998140335083 -0.16404299437999725 -0.014986000023782253
  endloop
 endfacet
 facet normal -0.1101337939150351 0.76611785843700653 -0.63319347313579866
  outer loop
   vertex 0.046324998140335083 -0.16404299437999725 -0.014986000023782253
   vertex 0.046925000846385956 -0.16334100067615509 -0.014240999706089497
   vertex 0.048307999968528748 -0.16391000151634216 -0.015169999562203884
  endloop
 endfacet
 facet normal 0.011635485859737782 0.8603234624645858 -0.50961569383384808
  outer loop
   vertex 0.048307999968528748 -0.16391000151634216 -0.015169999562203884
   vertex 0.046925000846385956 -0.16334100067615509 -0.014240999706089497
   vertex 0.047371000051498413 -0.16305500268936157 -0.013748000375926495
  endloop
 endfacet
 facet normal -0.78732986994141707 0.32902804838253047 0.52139449486508238
  outer loop
   vertex 0.045820001512765884 -0.16449399292469025 -0.015181999653577805
   vertex 0.047371000051498413 -0.16305500268936157 -0.013748000375926495
   vertex 0.046925000846385956 -0.16334100067615509 -0.014240999706089497
  endloop
 endfacet
 facet normal -0.53285335433359915 0.8119249595764787 -0.23842223636264503
  outer loop
   vertex 0.046342000365257263 -0.1637129932641983 -0.013689000159502029
   vertex 0.047371000051498413 -0.16305500268936157 -0.013748000375926495
   vertex 0.045820001512765884 -0.16449399292469025 -0.015181999653577805
  endloop
 endfacet
 facet normal -0.53939061469460747 0.84184730417014564 -0.018731824279333596
  outer loop
   vertex 0.047244001179933548 -0.16307300329208374 -0.010900000110268593
   vertex 0.047371000051498413 -0.16305500268936157 -0.013748000375926495
   vertex 0.046342000365257263 -0.1637129932641983 -0.013689000159502029
  endloop
 endfacet
 facet normal -0.74741957634790712 0.65813115237467557 0.090704813355723335
  outer loop
   vertex 0.046342000365257263 -0.1637129932641983 -0.013689000159502029
   vertex 0.04696200042963028 -0.16350600123405457 -0.010081999935209751
   vertex 0.047244001179933548 -0.16307300329208374 -0.010900000110268593
  endloop
 endfacet
 facet normal -0.59772097797680013 0.77523605135070106 0.20430050702979383
  outer loop
   vertex 0.047244001179933548 -0.16307300329208374 -0.010900000110268593
   vertex 0.04696200042963028 -0.16350600123405457 -0.010081999935209751
   vertex 0.047371000051498413 -0.16321200132369995 -0.010001000016927719
  endloop
 endfacet
 facet normal -0.58969371942575433 0.80592722062767141 0.05237014723271554
  outer loop
   vertex 0.04696200042963028 -0.16350600123405457 -0.010081999935209751
   vertex 0.047095000743865967 -0.16349400579929352 -0.0087689999490976334
   vertex 0.047371000051498413 -0.16321200132369995 -0.010001000016927719
  endloop
 endfacet
 facet normal -0.89595359524759943 -0.44414022893061533 -0.0025714214670836621
  outer loop
   vertex 0.047095000743865967 -0.16349400579929352 -0.0087689999490976334
   vertex 0.047651000320911407 -0.1646140068769455 -0.0090460004284977913
   vertex 0.047690000385046005 -0.1646990031003952 -0.0079539995640516281
  endloop
 endfacet
 facet normal -0.86882026884848529 -0.46989772457870038 0.15603675488103869
  outer loop
   vertex 0.047247998416423798 -0.16418400406837463 -0.0099950004369020462
   vertex 0.047651000320911407 -0.1646140068769455 -0.0090460004284977913
   vertex 0.047095000743865967 -0.16349400579929352 -0.0087689999490976334
  endloop
 endfacet
 facet normal -0.92144254205322096 -0.37626882539211121 0.096775062555077326
  outer loop
   vertex 0.04696200042963028 -0.16350600123405457 -0.010081999935209751
   vertex 0.047247998416423798 -0.16418400406837463 -0.0099950004369020462
   vertex 0.047095000743865967 -0.16349400579929352 -0.0087689999490976334
  endloop
 endfacet
 facet normal -0.92578626170758116 -0.2581752572505655 0.27616178985715278
  outer loop
   vertex 0.047651000320911407 -0.1646140068769455 -0.0090460004284977913
   vertex 0.047247998416423798 -0.16418400406837463 -0.0099950004369020462
   vertex 0.047580000013113022 -0.16504399478435516 -0.0096859997138381004
  endloop
 endfacet
 facet normal -0.95459753140387005 0.22797679356045403 0.19175540314560027
  outer loop
   vertex 0.047547001391649246 -0.16500599682331085 -0.010828999802470207
   vertex 0.047444999217987061 -0.16462899744510651 -0.011784999631345272
   vertex 0.047152001410722733 -0.16536800563335419 -0.012365000322461128
  endloop
 endfacet
 facet normal -0.92115796848105136 -0.38916130871239485 -0.0046338866104410539
  outer loop
   vertex 0.047247998416423798 -0.16418400406837463 -0.0099950004369020462
   vertex 0.04696200042963028 -0.16350600123405457 -0.010081999935209751
   vertex 0.047444999217987061 -0.16462899744510651 -0.011784999631345272
  endloop
 endfacet
 facet normal -0.94730759655339503 -0.31935883310133306 -0.024864698517877391
  outer loop
   vertex 0.047247998416423798 -0.16418400406837463 -0.0099950004369020462
   vertex 0.047444999217987061 -0.16462899744510651 -0.011784999631345272
   vertex 0.047547001391649246 -0.16500599682331085 -0.010828999802470207
  endloop
 endfacet
 facet normal -0.58946067715395767 0.76837182190134368 -0.2492806719286669
  outer loop
   vertex 0.046925000846385956 -0.16334100067615509 -0.014240999706089497
   vertex 0.046324998140335083 -0.16404299437999725 -0.014986000023782253
   vertex 0.045820001512765884 -0.16449399292469025 -0.015181999653577805
  endloop
 endfacet
 facet normal -0.78596285543851596 -0.59466454785764566 0.16922312310141441
  outer loop
   vertex 0.047444999217987061 -0.16462899744510651 -0.011784999631345272
   vertex 0.04696200042963028 -0.16350600123405457 -0.010081999935209751
   vertex 0.046342000365257263 -0.1637129932641983 -0.013689000159502029
  endloop
 endfacet
endsolid
