solid Visualization Toolkit generated SLA File
 facet normal -0.69410802892129175 -0.62452251057320296 0.3580302752203266
  outer loop
   vertex 0.015985000878572464 -0.14179800450801849 0.0037539999466389418
   vertex 0.017121000215411186 -0.14495299756526947 0.00045299998600967228
   vertex 0.017779000103473663 -0.14572100341320038 0.00038899999344721437
  endloop
 endfacet
 facet normal -0.93328428168377375 -0.34682738039061828 -0.093226700968037743
  outer loop
   vertex 0.01684500090777874 -0.14416299760341644 0.0039429999887943268
   vertex 0.015985000878572464 -0.14179800450801849 0.0037539999466389418
   vertex 0.017779000103473663 -0.14572100341320038 0.00038899999344721437
  endloop
 endfacet
 facet normal -0.89704833846576615 -0.42994756958601565 0.10222213978824084
  outer loop
   vertex 0.017121000215411186 -0.14495299756526947 0.00045299998600967228
   vertex 0.015985000878572464 -0.14179800450801849 0.0037539999466389418
   vertex 0.015065999701619148 -0.14036299288272858 0.0017249999800696969
  endloop
 endfacet
 facet normal -0.90759996172502488 -0.35866789988585285 0.21821926374223979
  outer loop
   vertex 0.017396999523043633 -0.14315700531005859 0.0073930001817643642
   vertex 0.016304999589920044 -0.1412229984998703 0.006029999814927578
   vertex 0.015985000878572464 -0.14179800450801849 0.0037539999466389418
  endloop
 endfacet
 facet normal -0.83725672934234741 -0.26629112753743794 0.47758790244916699
  outer loop
   vertex 0.017818000167608261 -0.14525300264358521 0.0050409999676048756
   vertex 0.015985000878572464 -0.14179800450801849 0.0037539999466389418
   vertex 0.01684500090777874 -0.14416299760341644 0.0039429999887943268
  endloop
 endfacet
 facet normal -0.79419208441051958 -0.6039168275268324 -0.06740473640331536
  outer loop
   vertex 0.01358800008893013 -0.1383959949016571 0.0015160000184550881
   vertex 0.015065999701619148 -0.14036299288272858 0.0017249999800696969
   vertex 0.015985000878572464 -0.14179800450801849 0.0037539999466389418
  endloop
 endfacet
 facet normal -0.83543272180401928 -0.54570510019735996 0.065254202605791345
  outer loop
   vertex 0.0070360000245273113 -0.12818099558353424 0.0030580000020563602
   vertex 0.01358800008893013 -0.1383959949016571 0.0015160000184550881
   vertex 0.015985000878572464 -0.14179800450801849 0.0037539999466389418
  endloop
 endfacet
 facet normal -0.76266353110479568 -0.47900208399646516 0.43462781992160582
  outer loop
   vertex 0.0085070002824068069 -0.1286730021238327 0.005096999928355217
   vertex 0.0070360000245273113 -0.12818099558353424 0.0030580000020563602
   vertex 0.015985000878572464 -0.14179800450801849 0.0037539999466389418
  endloop
 endfacet
 facet normal -0.83192362797005737 -0.49885469426168522 0.24299603132195063
  outer loop
   vertex 0.015985000878572464 -0.14179800450801849 0.0037539999466389418
   vertex 0.016304999589920044 -0.1412229984998703 0.006029999814927578
   vertex 0.0085070002824068069 -0.1286730021238327 0.005096999928355217
  endloop
 endfacet
 facet normal -0.89453843963882385 -0.40108568473107264 0.19731004412432962
  outer loop
   vertex 0.017396999523043633 -0.14315700531005859 0.0073930001817643642
   vertex 0.015985000878572464 -0.14179800450801849 0.0037539999466389418
   vertex 0.017818000167608261 -0.14525300264358521 0.0050409999676048756
  endloop
 endfacet
 facet normal -0.75254461948539753 -0.62831928904282253 -0.19720919527319297
  outer loop
   vertex 0.017121000215411186 -0.14495299756526947 0.00045299998600967228
   vertex 0.017952000722289085 -0.14567899703979492 -0.00040499999886378646
   vertex 0.017779000103473663 -0.14572100341320038 0.00038899999344721437
  endloop
 endfacet
 facet normal -0.78561226454336697 -0.53789471563450197 -0.30574931674743133
  outer loop
   vertex 0.016429999843239784 -0.14336000382900238 -0.0005740000051446259
   vertex 0.017952000722289085 -0.14567899703979492 -0.00040499999886378646
   vertex 0.017121000215411186 -0.14495299756526947 0.00045299998600967228
  endloop
 endfacet
 facet normal -0.9140368882844313 -0.40539558889928634 -0.013819672800568464
  outer loop
   vertex 0.017121000215411186 -0.14495299756526947 0.00045299998600967228
   vertex 0.015065999701619148 -0.14036299288272858 0.0017249999800696969
   vertex 0.016429999843239784 -0.14336000382900238 -0.0005740000051446259
  endloop
 endfacet
 facet normal -0.48858718594920691 -0.8520152215796083 -0.18802293456620187
  outer loop
   vertex 0.017779000103473663 -0.14572100341320038 0.00038899999344721437
   vertex 0.019801000133156776 -0.14666800200939178 -0.0005740000051446259
   vertex 0.019483000040054321 -0.14688000082969666 0.0012130000395700336
  endloop
 endfacet
 facet normal -0.47694348129290726 -0.86608498840072656 -0.14973880098062664
  outer loop
   vertex 0.017779000103473663 -0.14572100341320038 0.00038899999344721437
   vertex 0.017952000722289085 -0.14567899703979492 -0.00040499999886378646
   vertex 0.019801000133156776 -0.14666800200939178 -0.0005740000051446259
  endloop
 endfacet
 facet normal -0.77790604476164471 -0.62454184566760906 0.069351773830165372
  outer loop
   vertex 0.017779000103473663 -0.14572100341320038 0.00038899999344721437
   vertex 0.017818000167608261 -0.14525300264358521 0.0050409999676048756
   vertex 0.01684500090777874 -0.14416299760341644 0.0039429999887943268
  endloop
 endfacet
 facet normal -0.58836813676484578 -0.80402611202285346 0.085819268379996635
  outer loop
   vertex 0.017818000167608261 -0.14525300264358521 0.0050409999676048756
   vertex 0.017779000103473663 -0.14572100341320038 0.00038899999344721437
   vertex 0.019483000040054321 -0.14688000082969666 0.0012130000395700336
  endloop
 endfacet
 facet normal -0.93545177749095076 -0.33133633786287126 -0.12306991184136754
  outer loop
   vertex 0.015065999701619148 -0.14036299288272858 0.0017249999800696969
   vertex 0.015812000259757042 -0.14166499674320221 -0.0004400000034365803
   vertex 0.016429999843239784 -0.14336000382900238 -0.0005740000051446259
  endloop
 endfacet
 facet normal -0.80095334757322989 -0.59325137153122409 0.080787036011716537
  outer loop
   vertex 0.015812000259757042 -0.14166499674320221 -0.0004400000034365803
   vertex 0.015065999701619148 -0.14036299288272858 0.0017249999800696969
   vertex 0.01358800008893013 -0.1383959949016571 0.0015160000184550881
  endloop
 endfacet
 facet normal -0.8498221242444377 -0.45980662581094517 0.25764359880467597
  outer loop
   vertex 0.017818000167608261 -0.14525300264358521 0.0050409999676048756
   vertex 0.018668999895453453 -0.14533199369907379 0.0077069997787475586
   vertex 0.017396999523043633 -0.14315700531005859 0.0073930001817643642
  endloop
 endfacet
 facet normal -0.88344329380672681 -0.20031420980831177 0.42355892621545965
  outer loop
   vertex 0.017396999523043633 -0.14315700531005859 0.0073930001817643642
   vertex 0.016824999824166298 -0.14049899578094482 0.0074570002034306526
   vertex 0.016304999589920044 -0.1412229984998703 0.006029999814927578
  endloop
 endfacet
 facet normal -0.5692251921592465 -0.14199557470992091 0.80982710338322728
  outer loop
   vertex 0.018296999856829643 -0.13907699286937714 0.008740999735891819
   vertex 0.016824999824166298 -0.14049899578094482 0.0074570002034306526
   vertex 0.017396999523043633 -0.14315700531005859 0.0073930001817643642
  endloop
 endfacet
 facet normal -0.55269951917878901 -0.14898707812767664 0.81995493293870303
  outer loop
   vertex 0.017396999523043633 -0.14315700531005859 0.0073930001817643642
   vertex 0.020041000097990036 -0.14516699314117432 0.0088099995627999306
   vertex 0.018296999856829643 -0.13907699286937714 0.008740999735891819
  endloop
 endfacet
 facet normal -0.59175240560427678 -0.23474035742358609 0.77118483845197494
  outer loop
   vertex 0.017396999523043633 -0.14315700531005859 0.0073930001817643642
   vertex 0.018668999895453453 -0.14533199369907379 0.0077069997787475586
   vertex 0.020041000097990036 -0.14516699314117432 0.0088099995627999306
  endloop
 endfacet
 facet normal -0.56799410644100967 -0.29582852372373991 0.76802876222164473
  outer loop
   vertex 0.0085070002824068069 -0.1286730021238327 0.005096999928355217
   vertex 0.016304999589920044 -0.1412229984998703 0.006029999814927578
   vertex 0.016467999666929245 -0.13782599568367004 0.0074590002186596394
  endloop
 endfacet
 facet normal -0.91103900972174201 -0.12197111755802714 0.39386668968938449
  outer loop
   vertex 0.016304999589920044 -0.1412229984998703 0.006029999814927578
   vertex 0.016824999824166298 -0.14049899578094482 0.0074570002034306526
   vertex 0.016467999666929245 -0.13782599568367004 0.0074590002186596394
  endloop
 endfacet
 facet normal -0.39810619677139375 -0.89374678782479811 0.20670785022604179
  outer loop
   vertex 0.019483000040054321 -0.14688000082969666 0.0012130000395700336
   vertex 0.019664999097585678 -0.14630399644374847 0.0040540001355111599
   vertex 0.017818000167608261 -0.14525300264358521 0.0050409999676048756
  endloop
 endfacet
 facet normal -0.5143256673970954 -0.8560842313369641 -0.050881201958401859
  outer loop
   vertex 0.019664999097585678 -0.14630399644374847 0.0040540001355111599
   vertex 0.02011599950492382 -0.1467290073633194 0.0066459998488426208
   vertex 0.017818000167608261 -0.14525300264358521 0.0050409999676048756
  endloop
 endfacet
 facet normal -0.62740581254698358 -0.75031815326428408 0.20828973873989493
  outer loop
   vertex 0.017818000167608261 -0.14525300264358521 0.0050409999676048756
   vertex 0.02011599950492382 -0.1467290073633194 0.0066459998488426208
   vertex 0.020199000835418701 -0.14640699326992035 0.0080559998750686646
  endloop
 endfacet
 facet normal -0.59196959026323137 -0.78876628857314413 0.16558908845129147
  outer loop
   vertex 0.020199000835418701 -0.14640699326992035 0.0080559998750686646
   vertex 0.018668999895453453 -0.14533199369907379 0.0077069997787475586
   vertex 0.017818000167608261 -0.14525300264358521 0.0050409999676048756
  endloop
 endfacet
 facet normal -0.82604351643065121 -0.48700979459176602 -0.28367863672573301
  outer loop
   vertex 0.012632000260055065 -0.13617800176143646 0.00049200002104043961
   vertex 0.01358800008893013 -0.1383959949016571 0.0015160000184550881
   vertex 0.0070360000245273113 -0.12818099558353424 0.0030580000020563602
  endloop
 endfacet
 facet normal -0.86178493569049197 -0.4650220488626875 -0.20268502334529495
  outer loop
   vertex 0.01358800008893013 -0.1383959949016571 0.0015160000184550881
   vertex 0.012632000260055065 -0.13617800176143646 0.00049200002104043961
   vertex 0.015812000259757042 -0.14166499674320221 -0.0004400000034365803
  endloop
 endfacet
 facet normal -0.83205781974287485 -0.53334681592798794 -0.15238424637806453
  outer loop
   vertex 0.0055010002106428146 -0.12559400498867035 0.0023849999997764826
   vertex 0.012632000260055065 -0.13617800176143646 0.00049200002104043961
   vertex 0.0070360000245273113 -0.12818099558353424 0.0030580000020563602
  endloop
 endfacet
 facet normal -0.79858837604796706 -0.34566538362659754 0.49271903576312931
  outer loop
   vertex 0.0085070002824068069 -0.1286730021238327 0.005096999928355217
   vertex 0.0055010002106428146 -0.12559400498867035 0.0023849999997764826
   vertex 0.0070360000245273113 -0.12818099558353424 0.0030580000020563602
  endloop
 endfacet
 facet normal -0.80292564406602285 -0.37774291075758826 0.46110812557744746
  outer loop
   vertex 0.0085070002824068069 -0.1286730021238327 0.005096999928355217
   vertex 0.0027360001113265753 -0.11951900273561478 0.0025470000691711903
   vertex 0.0055010002106428146 -0.12559400498867035 0.0023849999997764826
  endloop
 endfacet
 facet normal -0.55973903122976187 -0.28615432425960513 0.77769397556204378
  outer loop
   vertex 0.0085070002824068069 -0.1286730021238327 0.005096999928355217
   vertex 0.016467999666929245 -0.13782599568367004 0.0074590002186596394
   vertex 0.0030300000216811895 -0.11312200129032135 0.0068769999779760838
  endloop
 endfacet
 facet normal -0.84525785663430719 -0.45467997236713326 0.28072277878041835
  outer loop
   vertex 0.0027360001113265753 -0.11951900273561478 0.0025470000691711903
   vertex 0.0085070002824068069 -0.1286730021238327 0.005096999928355217
   vertex -0.001184999942779541 -0.11064799875020981 0.0051090000197291374
  endloop
 endfacet
 facet normal -0.50330917913555129 -0.27117432913343636 0.82045374849343466
  outer loop
   vertex -0.001184999942779541 -0.11064799875020981 0.0051090000197291374
   vertex 0.0085070002824068069 -0.1286730021238327 0.005096999928355217
   vertex 0.0030300000216811895 -0.11312200129032135 0.0068769999779760838
  endloop
 endfacet
 facet normal -0.1759210505547027 -0.18590938575118973 -0.96668996284297126
  outer loop
   vertex 0.022022999823093414 -0.1462710052728653 -0.0010319999419152737
   vertex 0.017952000722289085 -0.14567899703979492 -0.00040499999886378646
   vertex 0.016429999843239784 -0.14336000382900238 -0.0005740000051446259
  endloop
 endfacet
 facet normal -0.17252062365927628 -0.1563542127001416 -0.97251734924531463
  outer loop
   vertex 0.022022999823093414 -0.1462710052728653 -0.0010319999419152737
   vertex 0.019801000133156776 -0.14666800200939178 -0.0005740000051446259
   vertex 0.017952000722289085 -0.14567899703979492 -0.00040499999886378646
  endloop
 endfacet
 facet normal -0.24435894495733768 -0.32579905309478213 -0.9133146681302563
  outer loop
   vertex 0.022022999823093414 -0.1462710052728653 -0.0010319999419152737
   vertex 0.016429999843239784 -0.14336000382900238 -0.0005740000051446259
   vertex 0.0168869998306036 -0.14050699770450592 -0.0017140000127255917
  endloop
 endfacet
 facet normal -0.66235810212632185 -0.1840839559111353 -0.72621955476544697
  outer loop
   vertex 0.0168869998306036 -0.14050699770450592 -0.0017140000127255917
   vertex 0.016429999843239784 -0.14336000382900238 -0.0005740000051446259
   vertex 0.015812000259757042 -0.14166499674320221 -0.0004400000034365803
  endloop
 endfacet
 facet normal 0.090152507850423447 -0.99074301084292959 -0.10149291499491947
  outer loop
   vertex 0.019483000040054321 -0.14688000082969666 0.0012130000395700336
   vertex 0.019801000133156776 -0.14666800200939178 -0.0005740000051446259
   vertex 0.02261199988424778 -0.14648699760437012 0.000155999994603917
  endloop
 endfacet
 facet normal 0.1234595024828485 -0.96377183819028522 -0.23643518172642217
  outer loop
   vertex 0.019801000133156776 -0.14666800200939178 -0.0005740000051446259
   vertex 0.022022999823093414 -0.1462710052728653 -0.0010319999419152737
   vertex 0.02261199988424778 -0.14648699760437012 0.000155999994603917
  endloop
 endfacet
 facet normal 0.18345259097224301 -0.96564901762392663 0.18403021933235972
  outer loop
   vertex 0.02261199988424778 -0.14648699760437012 0.000155999994603917
   vertex 0.019664999097585678 -0.14630399644374847 0.0040540001355111599
   vertex 0.019483000040054321 -0.14688000082969666 0.0012130000395700336
  endloop
 endfacet
 facet normal -0.7307119012284059 -0.068899955795850537 -0.67920020133573145
  outer loop
   vertex 0.016542999073863029 -0.13878099620342255 -0.0015190000412985682
   vertex 0.0168869998306036 -0.14050699770450592 -0.0017140000127255917
   vertex 0.015812000259757042 -0.14166499674320221 -0.0004400000034365803
  endloop
 endfacet
 facet normal -0.53861813791779989 -0.17206092382976579 -0.82479424100608845
  outer loop
   vertex 0.016542999073863029 -0.13878099620342255 -0.0015190000412985682
   vertex 0.015812000259757042 -0.14166499674320221 -0.0004400000034365803
   vertex 0.012632000260055065 -0.13617800176143646 0.00049200002104043961
  endloop
 endfacet
 facet normal -0.50797427254246863 -0.49385953448881192 0.7057371313948585
  outer loop
   vertex 0.018668999895453453 -0.14533199369907379 0.0077069997787475586
   vertex 0.020199000835418701 -0.14640699326992035 0.0080559998750686646
   vertex 0.020041000097990036 -0.14516699314117432 0.0088099995627999306
  endloop
 endfacet
 facet normal -0.60901286065477822 -0.081928741603141272 0.78891762361884743
  outer loop
   vertex 0.016824999824166298 -0.14049899578094482 0.0074570002034306526
   vertex 0.018296999856829643 -0.13907699286937714 0.008740999735891819
   vertex 0.016467999666929245 -0.13782599568367004 0.0074590002186596394
  endloop
 endfacet
 facet normal -0.52477143531711301 0.099165656733621946 0.84544728587878648
  outer loop
   vertex 0.018296999856829643 -0.13907699286937714 0.008740999735891819
   vertex 0.017859999090433121 -0.13854199647903442 0.0084070004522800446
   vertex 0.016467999666929245 -0.13782599568367004 0.0074590002186596394
  endloop
 endfacet
 facet normal -0.19089131128079473 -0.043555038797375496 0.98064441357347154
  outer loop
   vertex 0.018296999856829643 -0.13907699286937714 0.008740999735891819
   vertex 0.020041000097990036 -0.14516699314117432 0.0088099995627999306
   vertex 0.023295000195503235 -0.14375799894332886 0.0095060002058744431
  endloop
 endfacet
 facet normal -0.20866310578269859 -0.07047521158153762 0.9754450024669028
  outer loop
   vertex 0.020065000280737877 -0.13853999972343445 0.0091580003499984741
   vertex 0.018296999856829643 -0.13907699286937714 0.008740999735891819
   vertex 0.023447999730706215 -0.14180199801921844 0.0096460003405809402
  endloop
 endfacet
 facet normal -0.20059551891337857 -0.054321286931507486 0.97816697734997038
  outer loop
   vertex 0.018296999856829643 -0.13907699286937714 0.008740999735891819
   vertex 0.023295000195503235 -0.14375799894332886 0.0095060002058744431
   vertex 0.023447999730706215 -0.14180199801921844 0.0096460003405809402
  endloop
 endfacet
 facet normal -0.32112067210105455 0.38553971040868279 0.86500904367951903
  outer loop
   vertex 0.020065000280737877 -0.13853999972343445 0.0091580003499984741
   vertex 0.018585000187158585 -0.13755600154399872 0.0081700002774596214
   vertex 0.018296999856829643 -0.13907699286937714 0.008740999735891819
  endloop
 endfacet
 facet normal -0.22218272318569618 0.37927127828404505 0.89821385815771893
  outer loop
   vertex 0.017859999090433121 -0.13854199647903442 0.0084070004522800446
   vertex 0.018296999856829643 -0.13907699286937714 0.008740999735891819
   vertex 0.018585000187158585 -0.13755600154399872 0.0081700002774596214
  endloop
 endfacet
 facet normal 0.0024698303188708773 -0.51932185776558948 0.85457516227953467
  outer loop
   vertex 0.020199000835418701 -0.14640699326992035 0.0080559998750686646
   vertex 0.021262999624013901 -0.14626699686050415 0.0081380000337958336
   vertex 0.020041000097990036 -0.14516699314117432 0.0088099995627999306
  endloop
 endfacet
 facet normal 0.029651724205510498 -0.49689978244869643 0.86730120572617586
  outer loop
   vertex 0.021262999624013901 -0.14626699686050415 0.0081380000337958336
   vertex 0.023295000195503235 -0.14375799894332886 0.0095060002058744431
   vertex 0.020041000097990036 -0.14516699314117432 0.0088099995627999306
  endloop
 endfacet
 facet normal 0.12364130681514432 0.09053667909557879 0.98818820929385076
  outer loop
   vertex 0.016467999666929245 -0.13782599568367004 0.0074590002186596394
   vertex 0.018234999850392342 -0.13692100346088409 0.0071550002321600914
   vertex 0.0030300000216811895 -0.11312200129032135 0.0068769999779760838
  endloop
 endfacet
 facet normal -0.24765811733525275 0.70631806440327904 0.66315929369614013
  outer loop
   vertex 0.016467999666929245 -0.13782599568367004 0.0074590002186596394
   vertex 0.017791999503970146 -0.13752700388431549 0.0076350001618266106
   vertex 0.018234999850392342 -0.13692100346088409 0.0071550002321600914
  endloop
 endfacet
 facet normal -0.23449199826876377 0.57850409600859365 0.78124676872880694
  outer loop
   vertex 0.016467999666929245 -0.13782599568367004 0.0074590002186596394
   vertex 0.017859999090433121 -0.13854199647903442 0.0084070004522800446
   vertex 0.017791999503970146 -0.13752700388431549 0.0076350001618266106
  endloop
 endfacet
 facet normal 0.2558156104052437 -0.93712316844181154 0.2373995379999147
  outer loop
   vertex 0.019664999097585678 -0.14630399644374847 0.0040540001355111599
   vertex 0.02261199988424778 -0.14648699760437012 0.000155999994603917
   vertex 0.02223300002515316 -0.14566099643707275 0.0038250000216066837
  endloop
 endfacet
 facet normal 0.22179805333576444 -0.95534638725308785 -0.19524063075840162
  outer loop
   vertex 0.02011599950492382 -0.1467290073633194 0.0066459998488426208
   vertex 0.019664999097585678 -0.14630399644374847 0.0040540001355111599
   vertex 0.02223300002515316 -0.14566099643707275 0.0038250000216066837
  endloop
 endfacet
 facet normal 0.018890437273970707 -0.9749661220348752 0.22154957066957973
  outer loop
   vertex 0.02011599950492382 -0.1467290073633194 0.0066459998488426208
   vertex 0.021314000710844994 -0.14653900265693665 0.0073799998499453068
   vertex 0.020199000835418701 -0.14640699326992035 0.0080559998750686646
  endloop
 endfacet
 facet normal 0.25513564976547054 -0.95202744141361639 -0.1689661238656861
  outer loop
   vertex 0.022515999153256416 -0.14615699648857117 0.0070469998754560947
   vertex 0.02011599950492382 -0.1467290073633194 0.0066459998488426208
   vertex 0.02223300002515316 -0.14566099643707275 0.0038250000216066837
  endloop
 endfacet
 facet normal 0.25529255833717862 -0.95174662895776951 -0.17030579533644843
  outer loop
   vertex 0.022515999153256416 -0.14615699648857117 0.0070469998754560947
   vertex 0.021314000710844994 -0.14653900265693665 0.0073799998499453068
   vertex 0.02011599950492382 -0.1467290073633194 0.0066459998488426208
  endloop
 endfacet
 facet normal 0.096637520463576473 -0.9347427963573034 0.34193141753395651
  outer loop
   vertex 0.020199000835418701 -0.14640699326992035 0.0080559998750686646
   vertex 0.021314000710844994 -0.14653900265693665 0.0073799998499453068
   vertex 0.021262999624013901 -0.14626699686050415 0.0081380000337958336
  endloop
 endfacet
 facet normal -0.5988522609299255 -0.3393426022038436 -0.72541199873495377
  outer loop
   vertex 0.012632000260055065 -0.13617800176143646 0.00049200002104043961
   vertex 0.010180000215768814 -0.12415300309658051 -0.0031089999247342348
   vertex 0.016542999073863029 -0.13878099620342255 -0.0015190000412985682
  endloop
 endfacet
 facet normal -0.67222172673086522 -0.33481028483066161 -0.66031812278824009
  outer loop
   vertex 0.010180000215768814 -0.12415300309658051 -0.0031089999247342348
   vertex 0.012632000260055065 -0.13617800176143646 0.00049200002104043961
   vertex 0.0055010002106428146 -0.12559400498867035 0.0023849999997764826
  endloop
 endfacet
 facet normal -0.5487251911821156 -0.56556023235537289 -0.61566410333905885
  outer loop
   vertex 0.010180000215768814 -0.12415300309658051 -0.0031089999247342348
   vertex 0.0055010002106428146 -0.12559400498867035 0.0023849999997764826
   vertex 0.0042539997957646847 -0.11889000236988068 -0.0026620000135153532
  endloop
 endfacet
 facet normal -0.71437261106656302 -0.50081276997650725 -0.48873135973293064
  outer loop
   vertex 0.0042539997957646847 -0.11889000236988068 -0.0026620000135153532
   vertex 0.0055010002106428146 -0.12559400498867035 0.0023849999997764826
   vertex 0.0028160000219941139 -0.1193389967083931 -9.9999997473787516e-05
  endloop
 endfacet
 facet normal -0.90931447344418692 -0.41238822341613596 -0.05552604409287798
  outer loop
   vertex 0.0028160000219941139 -0.1193389967083931 -9.9999997473787516e-05
   vertex 0.0055010002106428146 -0.12559400498867035 0.0023849999997764826
   vertex 0.0027360001113265753 -0.11951900273561478 0.0025470000691711903
  endloop
 endfacet
 facet normal -0.82432081087568698 -0.56258739265229762 -0.063171404812139925
  outer loop
   vertex -0.00016799999866634607 -0.1148110032081604 -0.0014870000304654241
   vertex 0.0028160000219941139 -0.1193389967083931 -9.9999997473787516e-05
   vertex 0.0027360001113265753 -0.11951900273561478 0.0025470000691711903
  endloop
 endfacet
 facet normal -0.8564811672372854 -0.51597801269369603 0.014377085397295262
  outer loop
   vertex 0.0027360001113265753 -0.11951900273561478 0.0025470000691711903
   vertex -0.0023630000650882721 -0.11106500029563904 0.0021909999195486307
   vertex -0.00016799999866634607 -0.1148110032081604 -0.0014870000304654241
  endloop
 endfacet
 facet normal -0.79641370416063695 -0.46402255811714704 0.3878250602830513
  outer loop
   vertex -0.001184999942779541 -0.11064799875020981 0.0051090000197291374
   vertex -0.0023630000650882721 -0.11106500029563904 0.0021909999195486307
   vertex 0.0027360001113265753 -0.11951900273561478 0.0025470000691711903
  endloop
 endfacet
 facet normal -0.15936319609552604 -0.20580289254504427 0.96553018655571399
  outer loop
   vertex 0.0079659996554255486 -0.11483299732208252 0.0073270001448690891
   vertex 0.0045239999890327454 -0.11122000217437744 0.0075289998203516006
   vertex 0.0030300000216811895 -0.11312200129032135 0.0068769999779760838
  endloop
 endfacet
 facet normal -0.52174269220898983 -0.32531381937927845 0.78864154217704097
  outer loop
   vertex 0.002351999981328845 -0.1078139990568161 0.0086179999634623528
   vertex -0.001184999942779541 -0.11064799875020981 0.0051090000197291374
   vertex 0.0030300000216811895 -0.11312200129032135 0.0068769999779760838
  endloop
 endfacet
 facet normal -0.015389778537047422 -0.31339655854828768 0.94949763128017872
  outer loop
   vertex 0.0045239999890327454 -0.11122000217437744 0.0075289998203516006
   vertex 0.002351999981328845 -0.1078139990568161 0.0086179999634623528
   vertex 0.0030300000216811895 -0.11312200129032135 0.0068769999779760838
  endloop
 endfacet
 facet normal -0.11100948354967893 -0.059334840479416028 0.99204650660506632
  outer loop
   vertex 0.0030300000216811895 -0.11312200129032135 0.0068769999779760838
   vertex 0.018234999850392342 -0.13692100346088409 0.0071550002321600914
   vertex 0.0079659996554255486 -0.11483299732208252 0.0073270001448690891
  endloop
 endfacet
 facet normal -0.46960498050543553 -0.3928694959956292 0.79064829184703223
  outer loop
   vertex 0.002351999981328845 -0.1078139990568161 0.0086179999634623528
   vertex -0.0014909999445080757 -0.10638000071048737 0.0070480001159012318
   vertex -0.001184999942779541 -0.11064799875020981 0.0051090000197291374
  endloop
 endfacet
 facet normal -0.89729547120957764 -0.20410958197882423 0.39140786385969795
  outer loop
   vertex -0.0023630000650882721 -0.11106500029563904 0.0021909999195486307
   vertex -0.001184999942779541 -0.11064799875020981 0.0051090000197291374
   vertex -0.0027580000460147858 -0.10566200315952301 0.0041029998101294041
  endloop
 endfacet
 facet normal -0.91442681028617723 -0.21992973475502536 0.33978599206034338
  outer loop
   vertex -0.0027580000460147858 -0.10566200315952301 0.0041029998101294041
   vertex -0.001184999942779541 -0.11064799875020981 0.0051090000197291374
   vertex -0.0014909999445080757 -0.10638000071048737 0.0070480001159012318
  endloop
 endfacet
 facet normal -0.18496640067487824 -0.29739511576187483 -0.93666620294657865
  outer loop
   vertex 0.022022999823093414 -0.1462710052728653 -0.0010319999419152737
   vertex 0.022777000442147255 -0.14139199256896973 -0.0027300000656396151
   vertex 0.023020999506115913 -0.14481300115585327 -0.0016919999616220593
  endloop
 endfacet
 facet normal -0.28768278034098882 -0.27483209686744947 -0.91744533157388675
  outer loop
   vertex 0.022777000442147255 -0.14139199256896973 -0.0027300000656396151
   vertex 0.022022999823093414 -0.1462710052728653 -0.0010319999419152737
   vertex 0.019481999799609184 -0.13868400454521179 -0.0025080000050365925
  endloop
 endfacet
 facet normal -0.13209312325837083 -0.23173472585821986 -0.96376886420928987
  outer loop
   vertex 0.022022999823093414 -0.1462710052728653 -0.0010319999419152737
   vertex 0.0168869998306036 -0.14050699770450592 -0.0017140000127255917
   vertex 0.019481999799609184 -0.13868400454521179 -0.0025080000050365925
  endloop
 endfacet
 facet normal 0.64047674115897024 -0.63435615736682949 -0.43287620591247072
  outer loop
   vertex 0.02261199988424778 -0.14648699760437012 0.000155999994603917
   vertex 0.022022999823093414 -0.1462710052728653 -0.0010319999419152737
   vertex 0.023020999506115913 -0.14481300115585327 -0.0016919999616220593
  endloop
 endfacet
 facet normal -0.31991735820541128 0.043168070968464811 -0.94646151615780572
  outer loop
   vertex 0.016542999073863029 -0.13878099620342255 -0.0015190000412985682
   vertex 0.019481999799609184 -0.13868400454521179 -0.0025080000050365925
   vertex 0.0168869998306036 -0.14050699770450592 -0.0017140000127255917
  endloop
 endfacet
 facet normal 0.82767949238041194 -0.56098124635305946 0.015706658876784345
  outer loop
   vertex 0.02414499968290329 -0.14425399899482727 -0.00087300001177936792
   vertex 0.024266000837087631 -0.14400799572467804 0.0015369999455288053
   vertex 0.02261199988424778 -0.14648699760437012 0.000155999994603917
  endloop
 endfacet
 facet normal 0.76114932522215495 -0.61780765876889376 0.19739655893747524
  outer loop
   vertex 0.023057999089360237 -0.14478600025177002 0.003759999992325902
   vertex 0.02261199988424778 -0.14648699760437012 0.000155999994603917
   vertex 0.024266000837087631 -0.14400799572467804 0.0015369999455288053
  endloop
 endfacet
 facet normal 0.71751992875364001 -0.65997754745619275 0.22269887448094619
  outer loop
   vertex 0.023057999089360237 -0.14478600025177002 0.003759999992325902
   vertex 0.02223300002515316 -0.14566099643707275 0.0038250000216066837
   vertex 0.02261199988424778 -0.14648699760437012 0.000155999994603917
  endloop
 endfacet
 facet normal 0.6350663738358594 -0.63720188747936513 -0.43665141178714506
  outer loop
   vertex 0.02261199988424778 -0.14648699760437012 0.000155999994603917
   vertex 0.023020999506115913 -0.14481300115585327 -0.0016919999616220593
   vertex 0.02414499968290329 -0.14425399899482727 -0.00087300001177936792
  endloop
 endfacet
 facet normal -0.32030299946154339 0.086538885912117072 -0.94335412744156044
  outer loop
   vertex 0.016542999073863029 -0.13878099620342255 -0.0015190000412985682
   vertex 0.018386000767350197 -0.13818399608135223 -0.002090000081807375
   vertex 0.019481999799609184 -0.13868400454521179 -0.0025080000050365925
  endloop
 endfacet
 facet normal 0.26687428870509383 0.011340869560025045 -0.96366461941163573
  outer loop
   vertex 0.018564000725746155 -0.13764999806880951 -0.0009459999855607748
   vertex 0.016542999073863029 -0.13878099620342255 -0.0015190000412985682
   vertex 0.010180000215768814 -0.12415300309658051 -0.0031089999247342348
  endloop
 endfacet
 facet normal -0.38363670386105492 0.85825049531999509 -0.34092369635096981
  outer loop
   vertex 0.016542999073863029 -0.13878099620342255 -0.0015190000412985682
   vertex 0.018564000725746155 -0.13764999806880951 -0.0009459999855607748
   vertex 0.018386000767350197 -0.13818399608135223 -0.002090000081807375
  endloop
 endfacet
 facet normal -0.46617319341162577 0.51558281723302091 0.71892761271109096
  outer loop
   vertex 0.017859999090433121 -0.13854199647903442 0.0084070004522800446
   vertex 0.018585000187158585 -0.13755600154399872 0.0081700002774596214
   vertex 0.017791999503970146 -0.13752700388431549 0.0076350001618266106
  endloop
 endfacet
 facet normal 0.18347229789800823 -0.58095727568819255 0.7929858509008707
  outer loop
   vertex 0.023295000195503235 -0.14375799894332886 0.0095060002058744431
   vertex 0.021262999624013901 -0.14626699686050415 0.0081380000337958336
   vertex 0.023192999884486198 -0.14516200125217438 0.0085009997710585594
  endloop
 endfacet
 facet normal 0.62802891786785819 -0.10432074001818939 0.77116591050420813
  outer loop
   vertex 0.023295000195503235 -0.14375799894332886 0.0095060002058744431
   vertex 0.024375999346375465 -0.14182600378990173 0.0088870003819465637
   vertex 0.023447999730706215 -0.14180199801921844 0.0096460003405809402
  endloop
 endfacet
 facet normal 0.69542692544878948 -0.16502799348755554 0.69939055807632611
  outer loop
   vertex 0.024375999346375465 -0.14182600378990173 0.0088870003819465637
   vertex 0.023295000195503235 -0.14375799894332886 0.0095060002058744431
   vertex 0.023924000561237335 -0.14425200223922729 0.0087639996781945229
  endloop
 endfacet
 facet normal 0.42198791109375611 -0.54776701835668984 0.72241089173084183
  outer loop
   vertex 0.023295000195503235 -0.14375799894332886 0.0095060002058744431
   vertex 0.023192999884486198 -0.14516200125217438 0.0085009997710585594
   vertex 0.023924000561237335 -0.14425200223922729 0.0087639996781945229
  endloop
 endfacet
 facet normal 0.39380238388459488 0.52163551328777891 0.7568461360962383
  outer loop
   vertex 0.023447999730706215 -0.14180199801921844 0.0096460003405809402
   vertex 0.020105000585317612 -0.1372310072183609 0.0082350000739097595
   vertex 0.020065000280737877 -0.13853999972343445 0.0091580003499984741
  endloop
 endfacet
 facet normal -0.15679199129803523 0.57233691913460094 0.80488926099203861
  outer loop
   vertex 0.020065000280737877 -0.13853999972343445 0.0091580003499984741
   vertex 0.020105000585317612 -0.1372310072183609 0.0082350000739097595
   vertex 0.018585000187158585 -0.13755600154399872 0.0081700002774596214
  endloop
 endfacet
 facet normal 0.59875306982897181 0.3486995165761867 0.72104327783421995
  outer loop
   vertex 0.024375999346375465 -0.14182600378990173 0.0088870003819465637
   vertex 0.023716999217867851 -0.14052900671958923 0.0088069997727870941
   vertex 0.023447999730706215 -0.14180199801921844 0.0096460003405809402
  endloop
 endfacet
 facet normal 0.30603753593564437 0.47797317139153245 0.82333630675949177
  outer loop
   vertex 0.023716999217867851 -0.14052900671958923 0.0088069997727870941
   vertex 0.020105000585317612 -0.1372310072183609 0.0082350000739097595
   vertex 0.023447999730706215 -0.14180199801921844 0.0096460003405809402
  endloop
 endfacet
 facet normal -0.19527337831863287 0.79975804431174302 0.56767541630643481
  outer loop
   vertex 0.018585000187158585 -0.13755600154399872 0.0081700002774596214
   vertex 0.020105000585317612 -0.1372310072183609 0.0082350000739097595
   vertex 0.018234999850392342 -0.13692100346088409 0.0071550002321600914
  endloop
 endfacet
 facet normal -0.36537380323008045 0.72728884064117405 0.58099305175879978
  outer loop
   vertex 0.017791999503970146 -0.13752700388431549 0.0076350001618266106
   vertex 0.018585000187158585 -0.13755600154399872 0.0081700002774596214
   vertex 0.018234999850392342 -0.13692100346088409 0.0071550002321600914
  endloop
 endfacet
 facet normal 0.42109769415016113 -0.84433621627459765 0.33132021651042265
  outer loop
   vertex 0.021314000710844994 -0.14653900265693665 0.0073799998499453068
   vertex 0.023192999884486198 -0.14516200125217438 0.0085009997710585594
   vertex 0.021262999624013901 -0.14626699686050415 0.0081380000337958336
  endloop
 endfacet
 facet normal 0.35426158076422765 0.89347835887794136 0.27603469820153281
  outer loop
   vertex 0.018234999850392342 -0.13692100346088409 0.0071550002321600914
   vertex 0.020974999293684959 -0.13764099776744843 0.0059690000489354134
   vertex 0.019345000386238098 -0.13687700033187866 0.0055880001746118069
  endloop
 endfacet
 facet normal 0.75279838715722225 0.37109827148348662 0.54367330373621736
  outer loop
   vertex 0.018234999850392342 -0.13692100346088409 0.0071550002321600914
   vertex 0.019345000386238098 -0.13687700033187866 0.0055880001746118069
   vertex 0.0094969999045133591 -0.11520899832248688 0.0044339997693896294
  endloop
 endfacet
 facet normal 0.83537678801576754 0.38532491299889021 0.39200807831836459
  outer loop
   vertex 0.018234999850392342 -0.13692100346088409 0.0071550002321600914
   vertex 0.0094969999045133591 -0.11520899832248688 0.0044339997693896294
   vertex 0.0079659996554255486 -0.11483299732208252 0.0073270001448690891
  endloop
 endfacet
 facet normal 0.2150548387979728 0.97213291397465074 -0.093322097472850529
  outer loop
   vertex 0.020105000585317612 -0.1372310072183609 0.0082350000739097595
   vertex 0.020974999293684959 -0.13764099776744843 0.0059690000489354134
   vertex 0.018234999850392342 -0.13692100346088409 0.0071550002321600914
  endloop
 endfacet
 facet normal 0.70558111163841919 -0.6800606592349725 -0.1991803069080556
  outer loop
   vertex 0.023057999089360237 -0.14478600025177002 0.003759999992325902
   vertex 0.024397000670433044 -0.14410699903964996 0.0061849998310208321
   vertex 0.02223300002515316 -0.14566099643707275 0.0038250000216066837
  endloop
 endfacet
 facet normal 0.68981394128036444 -0.70399453382756216 -0.16896278512194185
  outer loop
   vertex 0.022515999153256416 -0.14615699648857117 0.0070469998754560947
   vertex 0.02223300002515316 -0.14566099643707275 0.0038250000216066837
   vertex 0.024397000670433044 -0.14410699903964996 0.0061849998310208321
  endloop
 endfacet
 facet normal 0.37613115193792168 -0.83692696736181038 0.39759100573883122
  outer loop
   vertex 0.023192999884486198 -0.14516200125217438 0.0085009997710585594
   vertex 0.021314000710844994 -0.14653900265693665 0.0073799998499453068
   vertex 0.022515999153256416 -0.14615699648857117 0.0070469998754560947
  endloop
 endfacet
 facet normal 0.7539511639123202 -0.64899672971524791 0.1017884436179822
  outer loop
   vertex 0.022515999153256416 -0.14615699648857117 0.0070469998754560947
   vertex 0.024397000670433044 -0.14410699903964996 0.0061849998310208321
   vertex 0.023924000561237335 -0.14425200223922729 0.0087639996781945229
  endloop
 endfacet
 facet normal 0.76564415732175495 -0.638237394998728 0.080262394583623276
  outer loop
   vertex 0.023192999884486198 -0.14516200125217438 0.0085009997710585594
   vertex 0.022515999153256416 -0.14615699648857117 0.0070469998754560947
   vertex 0.023924000561237335 -0.14425200223922729 0.0087639996781945229
  endloop
 endfacet
 facet normal -0.35460595603836731 -0.3248093466687148 -0.87678589419467634
  outer loop
   vertex 0.010180000215768814 -0.12415300309658051 -0.0031089999247342348
   vertex 0.0042539997957646847 -0.11889000236988068 -0.0026620000135153532
   vertex 0.0075719999149441719 -0.11758600175380707 -0.0044869999401271343
  endloop
 endfacet
 facet normal 0.087309204615152708 -0.10453025790053157 -0.99068185002689835
  outer loop
   vertex 0.010180000215768814 -0.12415300309658051 -0.0031089999247342348
   vertex 0.011378999799489975 -0.1237960010766983 -0.0030410001054406166
   vertex 0.018564000725746155 -0.13764999806880951 -0.0009459999855607748
  endloop
 endfacet
 facet normal 0.10304858867146306 -0.1590688683890164 -0.98187477994001726
  outer loop
   vertex 0.010180000215768814 -0.12415300309658051 -0.0031089999247342348
   vertex 0.0085490001365542412 -0.11717899888753891 -0.0044100000523030758
   vertex 0.011378999799489975 -0.1237960010766983 -0.0030410001054406166
  endloop
 endfacet
 facet normal 0.1396050424680057 -0.14994375480320582 -0.97878869145133796
  outer loop
   vertex 0.010180000215768814 -0.12415300309658051 -0.0031089999247342348
   vertex 0.0075719999149441719 -0.11758600175380707 -0.0044869999401271343
   vertex 0.0085490001365542412 -0.11717899888753891 -0.0044100000523030758
  endloop
 endfacet
 facet normal -0.23596717730365982 -0.5349663667682274 -0.81125241303933615
  outer loop
   vertex 0.0042539997957646847 -0.11889000236988068 -0.0026620000135153532
   vertex 0.0045520002022385597 -0.11303599923849106 -0.0066089997999370098
   vertex 0.0075719999149441719 -0.11758600175380707 -0.0044869999401271343
  endloop
 endfacet
 facet normal -0.44729677112580274 -0.48423183962707406 -0.75196085272559954
  outer loop
   vertex 0.0042539997957646847 -0.11889000236988068 -0.0026620000135153532
   vertex 0.00026500000967644155 -0.11471299827098846 -0.002979000099003315
   vertex 0.0045520002022385597 -0.11303599923849106 -0.0066089997999370098
  endloop
 endfacet
 facet normal -0.66190595273430342 -0.58120535270480767 -0.47337178593804491
  outer loop
   vertex 0.0042539997957646847 -0.11889000236988068 -0.0026620000135153532
   vertex 0.0028160000219941139 -0.1193389967083931 -9.9999997473787516e-05
   vertex -0.00016799999866634607 -0.1148110032081604 -0.0014870000304654241
  endloop
 endfacet
 facet normal -0.69171950644184466 -0.67920659823939356 -0.24536202093217724
  outer loop
   vertex 0.00026500000967644155 -0.11471299827098846 -0.002979000099003315
   vertex 0.0042539997957646847 -0.11889000236988068 -0.0026620000135153532
   vertex -0.00016799999866634607 -0.1148110032081604 -0.0014870000304654241
  endloop
 endfacet
 facet normal -0.82698295941310151 -0.49187915893500794 -0.27231246362540512
  outer loop
   vertex 0.00026500000967644155 -0.11471299827098846 -0.002979000099003315
   vertex -0.00016799999866634607 -0.1148110032081604 -0.0014870000304654241
   vertex -0.00101500004529953 -0.11315499991178513 -0.001905999961309135
  endloop
 endfacet
 facet normal -0.88350831722592071 -0.46537405142058924 -0.053292078745427261
  outer loop
   vertex -0.00101500004529953 -0.11315499991178513 -0.001905999961309135
   vertex -0.00016799999866634607 -0.1148110032081604 -0.0014870000304654241
   vertex -0.0023630000650882721 -0.11106500029563904 0.0021909999195486307
  endloop
 endfacet
 facet normal -0.94642391395024994 -0.27333610073019282 -0.17195682929358683
  outer loop
   vertex -0.00101500004529953 -0.11315499991178513 -0.001905999961309135
   vertex -0.0023630000650882721 -0.11106500029563904 0.0021909999195486307
   vertex -0.003140999935567379 -0.1063309982419014 -0.0010519999777898192
  endloop
 endfacet
 facet normal -0.99084417869008923 -0.10323028490433961 0.087013342853446071
  outer loop
   vertex -0.0027580000460147858 -0.10566200315952301 0.0041029998101294041
   vertex -0.003140999935567379 -0.1063309982419014 -0.0010519999777898192
   vertex -0.0023630000650882721 -0.11106500029563904 0.0021909999195486307
  endloop
 endfacet
 facet normal 0.1003534631920881 0.040022002370240992 0.99414657961068831
  outer loop
   vertex 0.0045239999890327454 -0.11122000217437744 0.0075289998203516006
   vertex 0.0079659996554255486 -0.11483299732208252 0.0073270001448690891
   vertex 0.006756999995559454 -0.11063399910926819 0.0072800000198185444
  endloop
 endfacet
 facet normal 0.86800814554465833 0.25469303306361246 0.42625499196722705
  outer loop
   vertex 0.0079659996554255486 -0.11483299732208252 0.0073270001448690891
   vertex 0.0094969999045133591 -0.11520899832248688 0.0044339997693896294
   vertex 0.006756999995559454 -0.11063399910926819 0.0072800000198185444
  endloop
 endfacet
 facet normal 0.15249466421683289 -0.16720102288925848 0.97405810675245708
  outer loop
   vertex 0.0045239999890327454 -0.11122000217437744 0.0075289998203516006
   vertex 0.006756999995559454 -0.11063399910926819 0.0072800000198185444
   vertex 0.005816000048071146 -0.10621999949216843 0.0081850001588463783
  endloop
 endfacet
 facet normal 0.2025696793042456 -0.17866740068264003 0.96283097424204434
  outer loop
   vertex 0.002351999981328845 -0.1078139990568161 0.0086179999634623528
   vertex 0.0045239999890327454 -0.11122000217437744 0.0075289998203516006
   vertex 0.005816000048071146 -0.10621999949216843 0.0081850001588463783
  endloop
 endfacet
 facet normal 0.11996599112693698 0.0089667185976575331 0.99273750756709211
  outer loop
   vertex 0.002351999981328845 -0.1078139990568161 0.0086179999634623528
   vertex 0.005816000048071146 -0.10621999949216843 0.0081850001588463783
   vertex 0.0014740000478923321 -0.1019349992275238 0.0086709996685385704
  endloop
 endfacet
 facet normal -0.43362891851256785 -0.20019448319942487 0.8785716418859284
  outer loop
   vertex -0.00015100000018719584 -0.10339300334453583 0.0083900000900030136
   vertex -0.0014909999445080757 -0.10638000071048737 0.0070480001159012318
   vertex 0.002351999981328845 -0.1078139990568161 0.0086179999634623528
  endloop
 endfacet
 facet normal -0.14377863003049016 -0.030389849937276271 0.98914314564037975
  outer loop
   vertex -0.00015100000018719584 -0.10339300334453583 0.0083900000900030136
   vertex 0.002351999981328845 -0.1078139990568161 0.0086179999634623528
   vertex 0.0014740000478923321 -0.1019349992275238 0.0086709996685385704
  endloop
 endfacet
 facet normal -0.92222686184804359 -0.061992909706329431 0.38164708099506328
  outer loop
   vertex -0.0014909999445080757 -0.10638000071048737 0.0070480001159012318
   vertex -0.0021500000730156898 -0.10419800132513046 0.0058100000023841858
   vertex -0.0027580000460147858 -0.10566200315952301 0.0041029998101294041
  endloop
 endfacet
 facet normal -0.81535970123581769 0.11044289271857223 0.56832290561668553
  outer loop
   vertex -0.00082800001837313175 -0.10193300247192383 0.007135000079870224
   vertex -0.0014909999445080757 -0.10638000071048737 0.0070480001159012318
   vertex -0.00015100000018719584 -0.10339300334453583 0.0083900000900030136
  endloop
 endfacet
 facet normal -0.78843188748415405 0.1056916476416464 0.60597395522989972
  outer loop
   vertex -0.00082800001837313175 -0.10193300247192383 0.007135000079870224
   vertex -0.0021500000730156898 -0.10419800132513046 0.0058100000023841858
   vertex -0.0014909999445080757 -0.10638000071048737 0.0070480001159012318
  endloop
 endfacet
 facet normal -0.53835040033798487 0.83989156512441954 -0.069000038324512708
  outer loop
   vertex 0.0031989999115467072 -0.10225299745798111 -0.00087899999925866723
   vertex -0.003140999935567379 -0.1063309982419014 -0.0010519999777898192
   vertex -0.0027580000460147858 -0.10566200315952301 0.0041029998101294041
  endloop
 endfacet
 facet normal -0.66371710538791873 0.66801062431302793 -0.33651361015626269
  outer loop
   vertex 0.0031989999115467072 -0.10225299745798111 -0.00087899999925866723
   vertex -0.0027580000460147858 -0.10566200315952301 0.0041029998101294041
   vertex -0.0021500000730156898 -0.10419800132513046 0.0058100000023841858
  endloop
 endfacet
 facet normal 0.53793632724641571 -0.20939402405488255 -0.81656515387245165
  outer loop
   vertex 0.023020999506115913 -0.14481300115585327 -0.0016919999616220593
   vertex 0.022777000442147255 -0.14139199256896973 -0.0027300000656396151
   vertex 0.02438800036907196 -0.14192900061607361 -0.0015310000162571669
  endloop
 endfacet
 facet normal 0.18410763149353812 0.30073092267149248 -0.93576989274874223
  outer loop
   vertex 0.023290000855922699 -0.13950300216674805 -0.0020220000296831131
   vertex 0.022777000442147255 -0.14139199256896973 -0.0027300000656396151
   vertex 0.019481999799609184 -0.13868400454521179 -0.0025080000050365925
  endloop
 endfacet
 facet normal 0.61855920619683724 0.12288873867514509 -0.77606885412054183
  outer loop
   vertex 0.023290000855922699 -0.13950300216674805 -0.0020220000296831131
   vertex 0.02438800036907196 -0.14192900061607361 -0.0015310000162571669
   vertex 0.022777000442147255 -0.14139199256896973 -0.0027300000656396151
  endloop
 endfacet
 facet normal 0.65098410065975965 -0.26893520458304132 -0.70985460231239017
  outer loop
   vertex 0.023020999506115913 -0.14481300115585327 -0.0016919999616220593
   vertex 0.02438800036907196 -0.14192900061607361 -0.0015310000162571669
   vertex 0.02414499968290329 -0.14425399899482727 -0.00087300001177936792
  endloop
 endfacet
 facet normal 0.050463028305138234 0.70336030789248327 -0.7090400271181212
  outer loop
   vertex 0.019481999799609184 -0.13868400454521179 -0.0025080000050365925
   vertex 0.018386000767350197 -0.13818399608135223 -0.002090000081807375
   vertex 0.020721999928355217 -0.13777799904346466 -0.001521000056527555
  endloop
 endfacet
 facet normal 0.22262046133077637 0.56264562717065802 -0.79615954960209401
  outer loop
   vertex 0.019481999799609184 -0.13868400454521179 -0.0025080000050365925
   vertex 0.020721999928355217 -0.13777799904346466 -0.001521000056527555
   vertex 0.023290000855922699 -0.13950300216674805 -0.0020220000296831131
  endloop
 endfacet
 facet normal 0.97543696614506592 -0.2186601256874931 -0.026654727761493455
  outer loop
   vertex 0.02414499968290329 -0.14425399899482727 -0.00087300001177936792
   vertex 0.024695999920368195 -0.14201700687408447 0.0009399999980814755
   vertex 0.024266000837087631 -0.14400799572467804 0.0015369999455288053
  endloop
 endfacet
 facet normal 0.98211282470501682 -0.13869004599561666 -0.12735568574534337
  outer loop
   vertex 0.024695999920368195 -0.14201700687408447 0.0009399999980814755
   vertex 0.02414499968290329 -0.14425399899482727 -0.00087300001177936792
   vertex 0.02438800036907196 -0.14192900061607361 -0.0015310000162571669
  endloop
 endfacet
 facet normal 0.96372422317942119 -0.14000183140293002 0.22723359976255045
  outer loop
   vertex 0.024078000336885452 -0.14193099737167358 0.0036140000447630882
   vertex 0.024266000837087631 -0.14400799572467804 0.0015369999455288053
   vertex 0.024695999920368195 -0.14201700687408447 0.0009399999980814755
  endloop
 endfacet
 facet normal 0.87908103210583555 -0.29491692147097331 0.37448704706814984
  outer loop
   vertex 0.024266000837087631 -0.14400799572467804 0.0015369999455288053
   vertex 0.024078000336885452 -0.14193099737167358 0.0036140000447630882
   vertex 0.023057999089360237 -0.14478600025177002 0.003759999992325902
  endloop
 endfacet
 facet normal 0.86285841402904107 -0.32794039155175236 -0.38461728630961384
  outer loop
   vertex 0.024397000670433044 -0.14410699903964996 0.0061849998310208321
   vertex 0.023057999089360237 -0.14478600025177002 0.003759999992325902
   vertex 0.024078000336885452 -0.14193099737167358 0.0036140000447630882
  endloop
 endfacet
 facet normal -0.056724806422851298 0.90803801303304676 -0.41502923176962658
  outer loop
   vertex 0.020721999928355217 -0.13777799904346466 -0.001521000056527555
   vertex 0.018386000767350197 -0.13818399608135223 -0.002090000081807375
   vertex 0.018564000725746155 -0.13764999806880951 -0.0009459999855607748
  endloop
 endfacet
 facet normal -0.0099573667093108345 0.96748246238758639 -0.25274203413889967
  outer loop
   vertex 0.019345000386238098 -0.13714900612831116 0.00094100000569596887
   vertex 0.020721999928355217 -0.13777799904346466 -0.001521000056527555
   vertex 0.018564000725746155 -0.13764999806880951 -0.0009459999855607748
  endloop
 endfacet
 facet normal 0.8238262083468656 0.36119263570659405 -0.43686411886552357
  outer loop
   vertex 0.011378999799489975 -0.1237960010766983 -0.0030410001054406166
   vertex 0.019345000386238098 -0.13714900612831116 0.00094100000569596887
   vertex 0.018564000725746155 -0.13764999806880951 -0.0009459999855607748
  endloop
 endfacet
 facet normal 0.97496658333086661 -0.18769450524580542 0.11920962246676436
  outer loop
   vertex 0.024375999346375465 -0.14182600378990173 0.0088870003819465637
   vertex 0.023924000561237335 -0.14425200223922729 0.0087639996781945229
   vertex 0.024748999625444412 -0.14162999391555786 0.0061449999921023846
  endloop
 endfacet
 facet normal 0.87736288549685304 0.45515385803068847 0.15188591992813447
  outer loop
   vertex 0.024748999625444412 -0.14162999391555786 0.0061449999921023846
   vertex 0.023716999217867851 -0.14052900671958923 0.0088069997727870941
   vertex 0.024375999346375465 -0.14182600378990173 0.0088870003819465637
  endloop
 endfacet
 facet normal 0.97579657123363295 -0.13590057508927547 0.1713245027983149
  outer loop
   vertex 0.024748999625444412 -0.14162999391555786 0.0061449999921023846
   vertex 0.023924000561237335 -0.14425200223922729 0.0087639996781945229
   vertex 0.024397000670433044 -0.14410699903964996 0.0061849998310208321
  endloop
 endfacet
 facet normal 0.54204364394281357 0.83845507994308877 0.056407153613925586
  outer loop
   vertex 0.020105000585317612 -0.1372310072183609 0.0082350000739097595
   vertex 0.023128999397158623 -0.13905100524425507 0.0062290001660585403
   vertex 0.020974999293684959 -0.13764099776744843 0.0059690000489354134
  endloop
 endfacet
 facet normal 0.623640638118789 0.73103685404366325 0.27687085891572888
  outer loop
   vertex 0.023128999397158623 -0.13905100524425507 0.0062290001660585403
   vertex 0.020105000585317612 -0.1372310072183609 0.0082350000739097595
   vertex 0.023716999217867851 -0.14052900671958923 0.0088069997727870941
  endloop
 endfacet
 facet normal 0.84332119638732528 0.52617449189832166 0.10931497518360915
  outer loop
   vertex 0.024748999625444412 -0.14162999391555786 0.0061449999921023846
   vertex 0.023128999397158623 -0.13905100524425507 0.0062290001660585403
   vertex 0.023716999217867851 -0.14052900671958923 0.0088069997727870941
  endloop
 endfacet
 facet normal 0.46190786505352655 0.83127163443358376 -0.30923873300059179
  outer loop
   vertex 0.023211000487208366 -0.13981199264526367 0.0034729999024420977
   vertex 0.019345000386238098 -0.13687700033187866 0.0055880001746118069
   vertex 0.020974999293684959 -0.13764099776744843 0.0059690000489354134
  endloop
 endfacet
 facet normal 0.55321703716991055 0.80706587441348343 -0.20638697667766034
  outer loop
   vertex 0.023128999397158623 -0.13905100524425507 0.0062290001660585403
   vertex 0.023211000487208366 -0.13981199264526367 0.0034729999024420977
   vertex 0.020974999293684959 -0.13764099776744843 0.0059690000489354134
  endloop
 endfacet
 facet normal 0.61079445192640136 0.7915849425671948 0.017983775933275225
  outer loop
   vertex 0.023211000487208366 -0.13981199264526367 0.0034729999024420977
   vertex 0.020721999928355217 -0.13777799904346466 -0.001521000056527555
   vertex 0.019345000386238098 -0.13687700033187866 0.0055880001746118069
  endloop
 endfacet
 facet normal 0.33163475349039812 0.94179585565184576 -0.055126731758473296
  outer loop
   vertex 0.019345000386238098 -0.13687700033187866 0.0055880001746118069
   vertex 0.020721999928355217 -0.13777799904346466 -0.001521000056527555
   vertex 0.019345000386238098 -0.13714900612831116 0.00094100000569596887
  endloop
 endfacet
 facet normal 0.91060209678633286 0.41257800939620404 -0.024149689252653955
  outer loop
   vertex 0.019345000386238098 -0.13687700033187866 0.0055880001746118069
   vertex 0.019345000386238098 -0.13714900612831116 0.00094100000569596887
   vertex 0.0094969999045133591 -0.11520899832248688 0.0044339997693896294
  endloop
 endfacet
 facet normal 0.88002656344815389 0.29603085648989719 0.37137444665928515
  outer loop
   vertex 0.0085680000483989716 -0.10694000124931335 4.400000034365803e-05
   vertex 0.006756999995559454 -0.11063399910926819 0.0072800000198185444
   vertex 0.0094969999045133591 -0.11520899832248688 0.0044339997693896294
  endloop
 endfacet
 facet normal 0.99448642211312721 0.103795518741222 -0.014941436405899728
  outer loop
   vertex 0.0089480001479387283 -0.11122000217437744 -0.0043959999457001686
   vertex 0.0085680000483989716 -0.10694000124931335 4.400000034365803e-05
   vertex 0.0094969999045133591 -0.11520899832248688 0.0044339997693896294
  endloop
 endfacet
 facet normal 0.98096976845558259 0.19242050631583427 0.025935730669456158
  outer loop
   vertex 0.011378999799489975 -0.1237960010766983 -0.0030410001054406166
   vertex 0.0089480001479387283 -0.11122000217437744 -0.0043959999457001686
   vertex 0.0094969999045133591 -0.11520899832248688 0.0044339997693896294
  endloop
 endfacet
 facet normal 0.85921636776689336 0.42984156199109125 -0.27745894281231126
  outer loop
   vertex 0.0094969999045133591 -0.11520899832248688 0.0044339997693896294
   vertex 0.019345000386238098 -0.13714900612831116 0.00094100000569596887
   vertex 0.011378999799489975 -0.1237960010766983 -0.0030410001054406166
  endloop
 endfacet
 facet normal 0.96104074932599237 -0.1404150052325906 -0.23808465813753427
  outer loop
   vertex 0.024748999625444412 -0.14162999391555786 0.0061449999921023846
   vertex 0.024397000670433044 -0.14410699903964996 0.0061849998310208321
   vertex 0.024078000336885452 -0.14193099737167358 0.0036140000447630882
  endloop
 endfacet
 facet normal 0.26412639801799193 -0.25809680899106141 -0.92931333954628725
  outer loop
   vertex 0.0075719999149441719 -0.11758600175380707 -0.0044869999401271343
   vertex 0.0045520002022385597 -0.11303599923849106 -0.0066089997999370098
   vertex 0.0079260002821683884 -0.1153549998998642 -0.0050059999339282513
  endloop
 endfacet
 facet normal 0.1790540429820858 -0.2497833237722237 -0.95160282726412171
  outer loop
   vertex 0.0075719999149441719 -0.11758600175380707 -0.0044869999401271343
   vertex 0.0079260002821683884 -0.1153549998998642 -0.0050059999339282513
   vertex 0.0085490001365542412 -0.11717899888753891 -0.0044100000523030758
  endloop
 endfacet
 facet normal 0.38947858885133418 -0.023915387172879565 -0.92072497689741462
  outer loop
   vertex 0.0089480001479387283 -0.11122000217437744 -0.0043959999457001686
   vertex 0.011378999799489975 -0.1237960010766983 -0.0030410001054406166
   vertex 0.0085490001365542412 -0.11717899888753891 -0.0044100000523030758
  endloop
 endfacet
 facet normal 0.62684996707647278 -0.04014427278300952 -0.77810510610003603
  outer loop
   vertex 0.0085490001365542412 -0.11717899888753891 -0.0044100000523030758
   vertex 0.0079260002821683884 -0.1153549998998642 -0.0050059999339282513
   vertex 0.0089480001479387283 -0.11122000217437744 -0.0043959999457001686
  endloop
 endfacet
 facet normal -0.51900694220354726 -0.59554954727590992 -0.61314968048917928
  outer loop
   vertex 0.0029370000120252371 -0.10878700017929077 -0.0093689998611807823
   vertex 0.0045520002022385597 -0.11303599923849106 -0.0066089997999370098
   vertex -1.9999999494757503e-05 -0.10756699740886688 -0.008050999604165554
  endloop
 endfacet
 facet normal -0.5096646261581671 -0.37414960446038437 -0.77476063550311702
  outer loop
   vertex 0.00026500000967644155 -0.11471299827098846 -0.002979000099003315
   vertex 0.00012899999273940921 -0.11271999776363373 -0.0038519999943673611
   vertex 0.0045520002022385597 -0.11303599923849106 -0.0066089997999370098
  endloop
 endfacet
 facet normal -0.45589145304743195 -0.59338883324879288 -0.66336466262074678
  outer loop
   vertex 0.00012899999273940921 -0.11271999776363373 -0.0038519999943673611
   vertex -0.0012880000285804272 -0.11026299744844437 -0.0050760000012814999
   vertex 0.0045520002022385597 -0.11303599923849106 -0.0066089997999370098
  endloop
 endfacet
 facet normal 0.032721371305378028 -0.53566382357340492 -0.84379712015070052
  outer loop
   vertex 0.0029370000120252371 -0.10878700017929077 -0.0093689998611807823
   vertex 0.0079260002821683884 -0.1153549998998642 -0.0050059999339282513
   vertex 0.0045520002022385597 -0.11303599923849106 -0.0066089997999370098
  endloop
 endfacet
 facet normal -0.44845877095057524 -0.55882948951843125 -0.6975631386491612
  outer loop
   vertex -0.0012880000285804272 -0.11026299744844437 -0.0050760000012814999
   vertex -1.9999999494757503e-05 -0.10756699740886688 -0.008050999604165554
   vertex 0.0045520002022385597 -0.11303599923849106 -0.0066089997999370098
  endloop
 endfacet
 facet normal -0.7962095164756412 -0.28751477614331061 -0.53233979690878619
  outer loop
   vertex -0.00101500004529953 -0.11315499991178513 -0.001905999961309135
   vertex 0.00012899999273940921 -0.11271999776363373 -0.0038519999943673611
   vertex 0.00026500000967644155 -0.11471299827098846 -0.002979000099003315
  endloop
 endfacet
 facet normal -0.61919981819536107 -0.60591748046912719 -0.49945529530557248
  outer loop
   vertex -0.00101500004529953 -0.11315499991178513 -0.001905999961309135
   vertex -0.0012880000285804272 -0.11026299744844437 -0.0050760000012814999
   vertex 0.00012899999273940921 -0.11271999776363373 -0.0038519999943673611
  endloop
 endfacet
 facet normal -0.9468971867697823 -0.27393322651759511 -0.16836360977697054
  outer loop
   vertex -0.00101500004529953 -0.11315499991178513 -0.001905999961309135
   vertex -0.003140999935567379 -0.1063309982419014 -0.0010519999777898192
   vertex -0.0012880000285804272 -0.11026299744844437 -0.0050760000012814999
  endloop
 endfacet
 facet normal -0.9223043716960565 -0.041417655281820627 -0.38423849856735953
  outer loop
   vertex -0.00082199997268617153 -0.1047390028834343 -0.0067900000140070915
   vertex -0.0012880000285804272 -0.11026299744844437 -0.0050760000012814999
   vertex -0.003140999935567379 -0.1063309982419014 -0.0010519999777898192
  endloop
 endfacet
 facet normal -0.53033022572038291 0.81451861358574595 0.2351792503808994
  outer loop
   vertex 0.0031989999115467072 -0.10225299745798111 -0.00087899999925866723
   vertex -0.00055400002747774124 -0.1032629981637001 -0.0058439997956156731
   vertex -0.003140999935567379 -0.1063309982419014 -0.0010519999777898192
  endloop
 endfacet
 facet normal -0.90161429913832813 0.33727423408495383 -0.27080942858716917
  outer loop
   vertex -0.00082199997268617153 -0.1047390028834343 -0.0067900000140070915
   vertex -0.003140999935567379 -0.1063309982419014 -0.0010519999777898192
   vertex -0.00055400002747774124 -0.1032629981637001 -0.0058439997956156731
  endloop
 endfacet
 facet normal 0.66411960793583946 -0.011686173383968098 0.7475350023288454
  outer loop
   vertex 0.0073130000382661819 -0.10417599976062775 0.0068870000541210175
   vertex 0.005816000048071146 -0.10621999949216843 0.0081850001588463783
   vertex 0.006756999995559454 -0.11063399910926819 0.0072800000198185444
  endloop
 endfacet
 facet normal 0.97557845973770951 -0.071350262022126493 0.20773976269643821
  outer loop
   vertex 0.0073130000382661819 -0.10417599976062775 0.0068870000541210175
   vertex 0.006756999995559454 -0.11063399910926819 0.0072800000198185444
   vertex 0.0085680000483989716 -0.10694000124931335 4.400000034365803e-05
  endloop
 endfacet
 facet normal 0.59357826856633078 0.20759457023382658 0.77754056710581332
  outer loop
   vertex 0.005816000048071146 -0.10621999949216843 0.0081850001588463783
   vertex 0.0060399998910725117 -0.10187900066375732 0.0068549998104572296
   vertex 0.0039440002292394638 -0.10157900303602219 0.0083750002086162567
  endloop
 endfacet
 facet normal 0.42141363142886529 0.24570934777208789 0.87294757440716431
  outer loop
   vertex 0.0060399998910725117 -0.10187900066375732 0.0068549998104572296
   vertex 0.005816000048071146 -0.10621999949216843 0.0081850001588463783
   vertex 0.0073130000382661819 -0.10417599976062775 0.0068870000541210175
  endloop
 endfacet
 facet normal 0.11799704843913436 0.006942984385702458 0.99298967342438782
  outer loop
   vertex 0.0014740000478923321 -0.1019349992275238 0.0086709996685385704
   vertex 0.005816000048071146 -0.10621999949216843 0.0081850001588463783
   vertex 0.0039440002292394638 -0.10157900303602219 0.0083750002086162567
  endloop
 endfacet
 facet normal -0.50561148503665421 0.41807005795070967 0.7547015654178274
  outer loop
   vertex -0.00015100000018719584 -0.10339300334453583 0.0083900000900030136
   vertex 0.0014740000478923321 -0.1019349992275238 0.0086709996685385704
   vertex 0.00078900001244619489 -0.10073799639940262 0.007548999972641468
  endloop
 endfacet
 facet normal -0.13160112346128283 0.63680086121614488 0.75971429330907314
  outer loop
   vertex 0.0019030000548809767 -0.10043500363826752 0.0074880002066493034
   vertex 0.00078900001244619489 -0.10073799639940262 0.007548999972641468
   vertex 0.0014740000478923321 -0.1019349992275238 0.0086709996685385704
  endloop
 endfacet
 facet normal 0.0050562133422041031 0.6183549406406238 0.78588268977753206
  outer loop
   vertex 0.0039440002292394638 -0.10157900303602219 0.0083750002086162567
   vertex 0.0019030000548809767 -0.10043500363826752 0.0074880002066493034
   vertex 0.0014740000478923321 -0.1019349992275238 0.0086709996685385704
  endloop
 endfacet
 facet normal -0.50249652605900252 0.41769150848337327 0.75698814062012765
  outer loop
   vertex 0.00078900001244619489 -0.10073799639940262 0.007548999972641468
   vertex -0.00082800001837313175 -0.10193300247192383 0.007135000079870224
   vertex -0.00015100000018719584 -0.10339300334453583 0.0083900000900030136
  endloop
 endfacet
 facet normal -0.69050167278574259 0.62049125746778311 -0.37174996877759203
  outer loop
   vertex 0.0031989999115467072 -0.10225299745798111 -0.00087899999925866723
   vertex -0.0021500000730156898 -0.10419800132513046 0.0058100000023841858
   vertex -0.00082800001837313175 -0.10193300247192383 0.007135000079870224
  endloop
 endfacet
 facet normal -0.51870217105892114 0.80328259049800177 -0.29272023767000011
  outer loop
   vertex 0.0031989999115467072 -0.10225299745798111 -0.00087899999925866723
   vertex -0.00082800001837313175 -0.10193300247192383 0.007135000079870224
   vertex 0.00078900001244619489 -0.10073799639940262 0.007548999972641468
  endloop
 endfacet
 facet normal -0.43451379064384971 0.88839637143890648 0.14815415267381843
  outer loop
   vertex 0.0012359999818727374 -0.10220900177955627 -0.0068999999202787876
   vertex 0.0031989999115467072 -0.10225299745798111 -0.00087899999925866723
   vertex 0.0039079999551177025 -0.10096199810504913 -0.0065410002134740353
  endloop
 endfacet
 facet normal -0.39644574434895363 0.90694365920589815 0.14242180596320156
  outer loop
   vertex 0.0031989999115467072 -0.10225299745798111 -0.00087899999925866723
   vertex 0.0057489997707307339 -0.10068999975919724 -0.003734000027179718
   vertex 0.0045269997790455818 -0.10114800184965134 -0.0042190002277493477
  endloop
 endfacet
 facet normal -0.43530409001676929 0.88796689983207799 0.14840867231156263
  outer loop
   vertex 0.0031989999115467072 -0.10225299745798111 -0.00087899999925866723
   vertex 0.0012359999818727374 -0.10220900177955627 -0.0068999999202787876
   vertex -0.00055400002747774124 -0.1032629981637001 -0.0058439997956156731
  endloop
 endfacet
 facet normal -0.33413445750136639 0.89640213826023329 -0.29123421988624426
  outer loop
   vertex 0.0031989999115467072 -0.10225299745798111 -0.00087899999925866723
   vertex 0.001614999957382679 -0.10046099871397018 0.0064539997838437557
   vertex 0.0036059999838471413 -0.10026499629020691 0.0047729997895658016
  endloop
 endfacet
 facet normal -0.64515835734498295 0.69832795097007516 -0.31001413974504383
  outer loop
   vertex 0.0031989999115467072 -0.10225299745798111 -0.00087899999925866723
   vertex 0.00078900001244619489 -0.10073799639940262 0.007548999972641468
   vertex 0.001614999957382679 -0.10046099871397018 0.0064539997838437557
  endloop
 endfacet
 facet normal -0.34823244140639131 0.92246229233611954 0.16672578076031225
  outer loop
   vertex 0.0045269997790455818 -0.10114800184965134 -0.0042190002277493477
   vertex 0.0039079999551177025 -0.10096199810504913 -0.0065410002134740353
   vertex 0.0031989999115467072 -0.10225299745798111 -0.00087899999925866723
  endloop
 endfacet
 facet normal -0.6673337737363968 0.71630494572713088 -0.20389423522402866
  outer loop
   vertex 0.0036059999838471413 -0.10026499629020691 0.0047729997895658016
   vertex 0.0057489997707307339 -0.10068999975919724 -0.003734000027179718
   vertex 0.0031989999115467072 -0.10225299745798111 -0.00087899999925866723
  endloop
 endfacet
 facet normal 0.91444855085327059 0.39214889640995698 -0.10001545324001727
  outer loop
   vertex 0.02438800036907196 -0.14192900061607361 -0.0015310000162571669
   vertex 0.023683000355958939 -0.13970300555229187 0.00075100001413375139
   vertex 0.024695999920368195 -0.14201700687408447 0.0009399999980814755
  endloop
 endfacet
 facet normal 0.91389213019320337 0.3931501216167862 -0.10116400666064561
  outer loop
   vertex 0.023683000355958939 -0.13970300555229187 0.00075100001413375139
   vertex 0.02438800036907196 -0.14192900061607361 -0.0015310000162571669
   vertex 0.023290000855922699 -0.13950300216674805 -0.0020220000296831131
  endloop
 endfacet
 facet normal 0.55499646691999061 0.83164308345565507 -0.018673602938327313
  outer loop
   vertex 0.023683000355958939 -0.13970300555229187 0.00075100001413375139
   vertex 0.023290000855922699 -0.13950300216674805 -0.0020220000296831131
   vertex 0.020721999928355217 -0.13777799904346466 -0.001521000056527555
  endloop
 endfacet
 facet normal 0.47634694798272292 0.87137248397923817 0.11748863481799995
  outer loop
   vertex 0.020721999928355217 -0.13777799904346466 -0.001521000056527555
   vertex 0.023211000487208366 -0.13981199264526367 0.0034729999024420977
   vertex 0.023683000355958939 -0.13970300555229187 0.00075100001413375139
  endloop
 endfacet
 facet normal 0.90285946249666427 0.38247484239396795 0.19636136563984205
  outer loop
   vertex 0.024078000336885452 -0.14193099737167358 0.0036140000447630882
   vertex 0.024695999920368195 -0.14201700687408447 0.0009399999980814755
   vertex 0.023211000487208366 -0.13981199264526367 0.0034729999024420977
  endloop
 endfacet
 facet normal 0.89720229492790837 0.40680528757671092 0.17186477235234721
  outer loop
   vertex 0.024695999920368195 -0.14201700687408447 0.0009399999980814755
   vertex 0.023683000355958939 -0.13970300555229187 0.00075100001413375139
   vertex 0.023211000487208366 -0.13981199264526367 0.0034729999024420977
  endloop
 endfacet
 facet normal 0.89521600931933609 0.34773735096359598 -0.27868805392980767
  outer loop
   vertex 0.023211000487208366 -0.13981199264526367 0.0034729999024420977
   vertex 0.024748999625444412 -0.14162999391555786 0.0061449999921023846
   vertex 0.024078000336885452 -0.14193099737167358 0.0036140000447630882
  endloop
 endfacet
 facet normal 0.83872199510308687 0.53080698861560383 -0.12161149520967141
  outer loop
   vertex 0.024748999625444412 -0.14162999391555786 0.0061449999921023846
   vertex 0.023211000487208366 -0.13981199264526367 0.0034729999024420977
   vertex 0.023128999397158623 -0.13905100524425507 0.0062290001660585403
  endloop
 endfacet
 facet normal 0.96771863316432538 0.23863107357741853 0.081091662640858167
  outer loop
   vertex 0.0085680000483989716 -0.10694000124931335 4.400000034365803e-05
   vertex 0.0078059998340904713 -0.10212799906730652 -0.0050229998305439949
   vertex 0.0073130000382661819 -0.10417599976062775 0.0068870000541210175
  endloop
 endfacet
 facet normal 0.99194199639569625 0.12231619815294402 -0.033012474247324258
  outer loop
   vertex 0.0089480001479387283 -0.11122000217437744 -0.0043959999457001686
   vertex 0.0078059998340904713 -0.10212799906730652 -0.0050229998305439949
   vertex 0.0085680000483989716 -0.10694000124931335 4.400000034365803e-05
  endloop
 endfacet
 facet normal 0.9239014136489857 0.090406834439949874 -0.37179669463828408
  outer loop
   vertex 0.0069720000028610229 -0.10544899851083755 -0.0079030003398656845
   vertex 0.0078059998340904713 -0.10212799906730652 -0.0050229998305439949
   vertex 0.0089480001479387283 -0.11122000217437744 -0.0043959999457001686
  endloop
 endfacet
 facet normal 0.67298727502600075 -0.20196939897769359 -0.71154514229925514
  outer loop
   vertex 0.0053530000150203705 -0.10691200196743011 -0.009019000455737114
   vertex 0.0069720000028610229 -0.10544899851083755 -0.0079030003398656845
   vertex 0.0089480001479387283 -0.11122000217437744 -0.0043959999457001686
  endloop
 endfacet
 facet normal 0.74560626110754769 -0.086814525740389115 -0.6607076066746127
  outer loop
   vertex 0.0089480001479387283 -0.11122000217437744 -0.0043959999457001686
   vertex 0.0079260002821683884 -0.1153549998998642 -0.0050059999339282513
   vertex 0.0053530000150203705 -0.10691200196743011 -0.009019000455737114
  endloop
 endfacet
 facet normal 0.36521173910831967 -0.30650441552737479 -0.87901958389998291
  outer loop
   vertex 0.0029370000120252371 -0.10878700017929077 -0.0093689998611807823
   vertex 0.0053530000150203705 -0.10691200196743011 -0.009019000455737114
   vertex 0.0079260002821683884 -0.1153549998998642 -0.0050059999339282513
  endloop
 endfacet
 facet normal -0.47432432927249729 -0.23229126066099007 -0.84915087050577975
  outer loop
   vertex 0.0021289999131113291 -0.10640600323677063 -0.0095690004527568817
   vertex 0.0029370000120252371 -0.10878700017929077 -0.0093689998611807823
   vertex -1.9999999494757503e-05 -0.10756699740886688 -0.008050999604165554
  endloop
 endfacet
 facet normal 0.32034042532445728 -0.24179743519007049 -0.9159235842789778
  outer loop
   vertex 0.0053530000150203705 -0.10691200196743011 -0.009019000455737114
   vertex 0.0029370000120252371 -0.10878700017929077 -0.0093689998611807823
   vertex 0.0039180000312626362 -0.10727900266647339 -0.009424000047147274
  endloop
 endfacet
 facet normal 0.047847439529940507 -0.067473615698780839 -0.99657309501860514
  outer loop
   vertex 0.0039180000312626362 -0.10727900266647339 -0.009424000047147274
   vertex 0.0029370000120252371 -0.10878700017929077 -0.0093689998611807823
   vertex 0.0021289999131113291 -0.10640600323677063 -0.0095690004527568817
  endloop
 endfacet
 facet normal -0.89758833804794702 -0.059799172830716063 -0.4367599275678648
  outer loop
   vertex -1.9999999494757503e-05 -0.10756699740886688 -0.008050999604165554
   vertex -0.0012880000285804272 -0.11026299744844437 -0.0050760000012814999
   vertex -0.00082199997268617153 -0.1047390028834343 -0.0067900000140070915
  endloop
 endfacet
 facet normal -0.62631314476706079 0.16236865004062218 -0.76247509216759402
  outer loop
   vertex 0.0021289999131113291 -0.10640600323677063 -0.0095690004527568817
   vertex -1.9999999494757503e-05 -0.10756699740886688 -0.008050999604165554
   vertex -0.00082199997268617153 -0.1047390028834343 -0.0067900000140070915
  endloop
 endfacet
 facet normal -0.62107378709684424 0.49973430359993926 -0.60376566380232943
  outer loop
   vertex 0.0023910000454634428 -0.1022149994969368 -0.0080059999600052834
   vertex -0.00082199997268617153 -0.1047390028834343 -0.0067900000140070915
   vertex -0.00055400002747774124 -0.1032629981637001 -0.0058439997956156731
  endloop
 endfacet
 facet normal -0.54598586830662477 0.32250354638307149 -0.77323404877165292
  outer loop
   vertex 0.0023910000454634428 -0.1022149994969368 -0.0080059999600052834
   vertex 0.0021289999131113291 -0.10640600323677063 -0.0095690004527568817
   vertex -0.00082199997268617153 -0.1047390028834343 -0.0067900000140070915
  endloop
 endfacet
 facet normal -0.63013319549620983 0.4086322855456227 -0.660266469801016
  outer loop
   vertex -0.00055400002747774124 -0.1032629981637001 -0.0058439997956156731
   vertex 0.0012359999818727374 -0.10220900177955627 -0.0068999999202787876
   vertex 0.0023910000454634428 -0.1022149994969368 -0.0080059999600052834
  endloop
 endfacet
 facet normal 0.86775179797524871 0.48256570495343809 0.11889977928286738
  outer loop
   vertex 0.0078059998340904713 -0.10212799906730652 -0.0050229998305439949
   vertex 0.0060399998910725117 -0.10187900066375732 0.0068549998104572296
   vertex 0.0073130000382661819 -0.10417599976062775 0.0068870000541210175
  endloop
 endfacet
 facet normal 0.41909647607189687 0.80551606528614306 0.41892960304811133
  outer loop
   vertex 0.0044539999216794968 -0.100552998483181 0.0058920001611113548
   vertex 0.0039440002292394638 -0.10157900303602219 0.0083750002086162567
   vertex 0.0060399998910725117 -0.10187900066375732 0.0068549998104572296
  endloop
 endfacet
 facet normal 0.60581353286495687 0.79042658987643999 0.090640881582108715
  outer loop
   vertex 0.0044539999216794968 -0.100552998483181 0.0058920001611113548
   vertex 0.0060399998910725117 -0.10187900066375732 0.0068549998104572296
   vertex 0.0048349997960031033 -0.10048700124025345 0.0027699999045580626
  endloop
 endfacet
 facet normal 0.64798103258314099 0.75867014453757231 0.067380955765152628
  outer loop
   vertex 0.0048349997960031033 -0.10048700124025345 0.0027699999045580626
   vertex 0.0060399998910725117 -0.10187900066375732 0.0068549998104572296
   vertex 0.0057489997707307339 -0.10068999975919724 -0.003734000027179718
  endloop
 endfacet
 facet normal 0.60166847919569177 0.79542317796877449 0.072780554356219274
  outer loop
   vertex 0.0078059998340904713 -0.10212799906730652 -0.0050229998305439949
   vertex 0.0057489997707307339 -0.10068999975919724 -0.003734000027179718
   vertex 0.0060399998910725117 -0.10187900066375732 0.0068549998104572296
  endloop
 endfacet
 facet normal 0.086924030729555332 0.70264293456499138 0.70621322515768903
  outer loop
   vertex 0.0019030000548809767 -0.10043500363826752 0.0074880002066493034
   vertex 0.0039440002292394638 -0.10157900303602219 0.0083750002086162567
   vertex 0.00291600008495152 -0.10029900074005127 0.0072280000895261765
  endloop
 endfacet
 facet normal 0.48880238367454582 0.76626386010619363 0.41702748879329038
  outer loop
   vertex 0.0039440002292394638 -0.10157900303602219 0.0083750002086162567
   vertex 0.0044539999216794968 -0.100552998483181 0.0058920001611113548
   vertex 0.00291600008495152 -0.10029900074005127 0.0072280000895261765
  endloop
 endfacet
 facet normal -0.26480330132683899 0.96281624485712491 -0.053517195793803589
  outer loop
   vertex 0.002701000077649951 -0.10025999695062637 0.0066880001686513424
   vertex 0.00078900001244619489 -0.10073799639940262 0.007548999972641468
   vertex 0.0019030000548809767 -0.10043500363826752 0.0074880002066493034
  endloop
 endfacet
 facet normal -0.20093692571910274 0.97498074931686407 0.095062560159518208
  outer loop
   vertex 0.002701000077649951 -0.10025999695062637 0.0066880001686513424
   vertex 0.001614999957382679 -0.10046099871397018 0.0064539997838437557
   vertex 0.00078900001244619489 -0.10073799639940262 0.007548999972641468
  endloop
 endfacet
 facet normal -0.10375103597746234 0.98819925740890124 0.11268518176805384
  outer loop
   vertex 0.002701000077649951 -0.10025999695062637 0.0066880001686513424
   vertex 0.0019030000548809767 -0.10043500363826752 0.0074880002066493034
   vertex 0.00291600008495152 -0.10029900074005127 0.0072280000895261765
  endloop
 endfacet
 facet normal -0.42645633909190622 0.90384975601168616 0.034505208388653556
  outer loop
   vertex 0.0034060000907629728 -0.10116399824619293 -0.0074539999477565289
   vertex 0.0012359999818727374 -0.10220900177955627 -0.0068999999202787876
   vertex 0.0039079999551177025 -0.10096199810504913 -0.0065410002134740353
  endloop
 endfacet
 facet normal -0.4759831775638339 0.72280584295292905 -0.50099074649073261
  outer loop
   vertex 0.0023910000454634428 -0.1022149994969368 -0.0080059999600052834
   vertex 0.0012359999818727374 -0.10220900177955627 -0.0068999999202787876
   vertex 0.0034060000907629728 -0.10116399824619293 -0.0074539999477565289
  endloop
 endfacet
 facet normal -0.19115467629614649 0.97305878749300079 0.12890494875204206
  outer loop
   vertex 0.0057459999807178974 -0.10080599784851074 -0.0049930000677704811
   vertex 0.0039079999551177025 -0.10096199810504913 -0.0065410002134740353
   vertex 0.0045269997790455818 -0.10114800184965134 -0.0042190002277493477
  endloop
 endfacet
 facet normal -0.20902899450611942 0.97275331255980368 -0.10028894435424857
  outer loop
   vertex 0.0039079999551177025 -0.10096199810504913 -0.0065410002134740353
   vertex 0.0042840000241994858 -0.10092099756002426 -0.006926999893039465
   vertex 0.0034060000907629728 -0.10116399824619293 -0.0074539999477565289
  endloop
 endfacet
 facet normal -0.095323192950511393 0.99536313946815025 0.012872819187226712
  outer loop
   vertex 0.0039079999551177025 -0.10096199810504913 -0.0065410002134740353
   vertex 0.0057459999807178974 -0.10080599784851074 -0.0049930000677704811
   vertex 0.0042840000241994858 -0.10092099756002426 -0.006926999893039465
  endloop
 endfacet
 facet normal -0.31947799974265678 0.94366635980200819 -0.08618357766104788
  outer loop
   vertex 0.0057459999807178974 -0.10080599784851074 -0.0049930000677704811
   vertex 0.0045269997790455818 -0.10114800184965134 -0.0042190002277493477
   vertex 0.0057489997707307339 -0.10068999975919724 -0.003734000027179718
  endloop
 endfacet
 facet normal 0.16598253418228601 0.98610053417611498 -0.0074521704225541802
  outer loop
   vertex 0.0048349997960031033 -0.10048700124025345 0.0027699999045580626
   vertex 0.0057489997707307339 -0.10068999975919724 -0.003734000027179718
   vertex 0.0036059999838471413 -0.10026499629020691 0.0047729997895658016
  endloop
 endfacet
 facet normal 0.53761353184433736 0.83951713573743181 -0.078629950916150063
  outer loop
   vertex 0.0078059998340904713 -0.10212799906730652 -0.0050229998305439949
   vertex 0.0057459999807178974 -0.10080599784851074 -0.0049930000677704811
   vertex 0.0057489997707307339 -0.10068999975919724 -0.003734000027179718
  endloop
 endfacet
 facet normal -0.16463452665982034 0.98307482126548207 -0.080370196126035368
  outer loop
   vertex 0.002701000077649951 -0.10025999695062637 0.0066880001686513424
   vertex 0.0036059999838471413 -0.10026499629020691 0.0047729997895658016
   vertex 0.001614999957382679 -0.10046099871397018 0.0064539997838437557
  endloop
 endfacet
 facet normal 0.25895819481656218 0.96448824062626659 0.051991220710774375
  outer loop
   vertex 0.0036059999838471413 -0.10026499629020691 0.0047729997895658016
   vertex 0.0044539999216794968 -0.100552998483181 0.0058920001611113548
   vertex 0.0048349997960031033 -0.10048700124025345 0.0027699999045580626
  endloop
 endfacet
 facet normal 0.20580642408222177 0.97399803521005335 0.094718230628766775
  outer loop
   vertex 0.0036059999838471413 -0.10026499629020691 0.0047729997895658016
   vertex 0.002701000077649951 -0.10025999695062637 0.0066880001686513424
   vertex 0.0044539999216794968 -0.100552998483181 0.0058920001611113548
  endloop
 endfacet
 facet normal 0.8297004827708474 0.23195115635678926 -0.50773592541258217
  outer loop
   vertex 0.0078059998340904713 -0.10212799906730652 -0.0050229998305439949
   vertex 0.0069720000028610229 -0.10544899851083755 -0.0079030003398656845
   vertex 0.0060000000521540642 -0.10227199643850327 -0.0080399997532367706
  endloop
 endfacet
 facet normal 0.57528537065313223 0.72486591641687559 -0.37896720904269671
  outer loop
   vertex 0.005481999833136797 -0.10142800211906433 -0.0072119999676942825
   vertex 0.0078059998340904713 -0.10212799906730652 -0.0050229998305439949
   vertex 0.0060000000521540642 -0.10227199643850327 -0.0080399997532367706
  endloop
 endfacet
 facet normal 0.51429839541673339 0.80792985914053161 -0.28765691923006848
  outer loop
   vertex 0.0078059998340904713 -0.10212799906730652 -0.0050229998305439949
   vertex 0.005481999833136797 -0.10142800211906433 -0.0072119999676942825
   vertex 0.0057459999807178974 -0.10080599784851074 -0.0049930000677704811
  endloop
 endfacet
 facet normal 0.49236145709734958 0.11342425523415769 -0.86296879079695077
  outer loop
   vertex 0.0053530000150203705 -0.10691200196743011 -0.009019000455737114
   vertex 0.0060000000521540642 -0.10227199643850327 -0.0080399997532367706
   vertex 0.0069720000028610229 -0.10544899851083755 -0.0079030003398656845
  endloop
 endfacet
 facet normal 0.54510196603839878 0.099626560653955712 -0.83242921322676811
  outer loop
   vertex 0.0060000000521540642 -0.10227199643850327 -0.0080399997532367706
   vertex 0.0053530000150203705 -0.10691200196743011 -0.009019000455737114
   vertex 0.0049740001559257507 -0.10245700180530548 -0.0087339999154210091
  endloop
 endfacet
 facet normal 0.2506273491811255 0.084289418235300617 -0.96440718880356591
  outer loop
   vertex 0.0039180000312626362 -0.10727900266647339 -0.009424000047147274
   vertex 0.00394799979403615 -0.10280299931764603 -0.0090250000357627869
   vertex 0.0053530000150203705 -0.10691200196743011 -0.009019000455737114
  endloop
 endfacet
 facet normal 0.24601390880197602 0.082710001733492244 -0.96573092126596982
  outer loop
   vertex 0.0049740001559257507 -0.10245700180530548 -0.0087339999154210091
   vertex 0.0053530000150203705 -0.10691200196743011 -0.009019000455737114
   vertex 0.00394799979403615 -0.10280299931764603 -0.0090250000357627869
  endloop
 endfacet
 facet normal -0.42178797101607135 0.33985900472854447 -0.84058953384578206
  outer loop
   vertex 0.0021289999131113291 -0.10640600323677063 -0.0095690004527568817
   vertex 0.0023910000454634428 -0.1022149994969368 -0.0080059999600052834
   vertex 0.00394799979403615 -0.10280299931764603 -0.0090250000357627869
  endloop
 endfacet
 facet normal 0.12272860992859801 0.087302605260605695 -0.988592910868627
  outer loop
   vertex 0.00394799979403615 -0.10280299931764603 -0.0090250000357627869
   vertex 0.0039180000312626362 -0.10727900266647339 -0.009424000047147274
   vertex 0.0021289999131113291 -0.10640600323677063 -0.0095690004527568817
  endloop
 endfacet
 facet normal -0.2470110440700691 0.62671543323162238 -0.73906245328572473
  outer loop
   vertex 0.0034060000907629728 -0.10116399824619293 -0.0074539999477565289
   vertex 0.00394799979403615 -0.10280299931764603 -0.0090250000357627869
   vertex 0.0023910000454634428 -0.1022149994969368 -0.0080059999600052834
  endloop
 endfacet
 facet normal 0.16694944314591242 0.98595404404546383 0.004744097771458549
  outer loop
   vertex 0.002701000077649951 -0.10025999695062637 0.0066880001686513424
   vertex 0.00291600008495152 -0.10029900074005127 0.0072280000895261765
   vertex 0.0044539999216794968 -0.100552998483181 0.0058920001611113548
  endloop
 endfacet
 facet normal -0.10190861859267308 0.67060003433273885 -0.73478583778503959
  outer loop
   vertex 0.0034060000907629728 -0.10116399824619293 -0.0074539999477565289
   vertex 0.0046179997734725475 -0.10152000188827515 -0.0079469997435808182
   vertex 0.00394799979403615 -0.10280299931764603 -0.0090250000357627869
  endloop
 endfacet
 facet normal 0.05497902887179261 0.86875476652492511 -0.49218133043070361
  outer loop
   vertex 0.0046179997734725475 -0.10152000188827515 -0.0079469997435808182
   vertex 0.0034060000907629728 -0.10116399824619293 -0.0074539999477565289
   vertex 0.0042840000241994858 -0.10092099756002426 -0.006926999893039465
  endloop
 endfacet
 facet normal 0.31343490984268174 0.90402156225615282 -0.29069498149753931
  outer loop
   vertex 0.005481999833136797 -0.10142800211906433 -0.0072119999676942825
   vertex 0.0042840000241994858 -0.10092099756002426 -0.006926999893039465
   vertex 0.0057459999807178974 -0.10080599784851074 -0.0049930000677704811
  endloop
 endfacet
 facet normal 0.26646596901251129 0.86668951692247498 -0.42171692948577505
  outer loop
   vertex 0.005481999833136797 -0.10142800211906433 -0.0072119999676942825
   vertex 0.0046179997734725475 -0.10152000188827515 -0.0079469997435808182
   vertex 0.0042840000241994858 -0.10092099756002426 -0.006926999893039465
  endloop
 endfacet
 facet normal 0.37540626876298766 0.75619514861782999 -0.53594685424984956
  outer loop
   vertex 0.0060000000521540642 -0.10227199643850327 -0.0080399997532367706
   vertex 0.0046179997734725475 -0.10152000188827515 -0.0079469997435808182
   vertex 0.005481999833136797 -0.10142800211906433 -0.0072119999676942825
  endloop
 endfacet
 facet normal 0.32429153188476373 0.67760714551145629 -0.66006329900976102
  outer loop
   vertex 0.0046179997734725475 -0.10152000188827515 -0.0079469997435808182
   vertex 0.0060000000521540642 -0.10227199643850327 -0.0080399997532367706
   vertex 0.0049740001559257507 -0.10245700180530548 -0.0087339999154210091
  endloop
 endfacet
 facet normal 0.00025909447074002262 0.64321156695789106 -0.76568845688153719
  outer loop
   vertex 0.00394799979403615 -0.10280299931764603 -0.0090250000357627869
   vertex 0.0046179997734725475 -0.10152000188827515 -0.0079469997435808182
   vertex 0.0049740001559257507 -0.10245700180530548 -0.0087339999154210091
  endloop
 endfacet
endsolid
