solid Visualization Toolkit generated SLA File
 facet normal -0.40899259734911847 0.33910822373778265 0.84718986532360496
  outer loop
   vertex 0.0065629999153316021 -0.0084319999441504478 0.02607399970293045
   vertex 0.0040250001475214958 -0.01082099974155426 0.025805000215768814
   vertex 0.0060250000096857548 -0.011087000370025635 0.02687700092792511
  endloop
 endfacet
 facet normal -0.20550873061256156 0.3212365405351772 0.92443130986948141
  outer loop
   vertex 0.0060250000096857548 -0.011087000370025635 0.02687700092792511
   vertex 0.0083729997277259827 -0.0098409997299313545 0.026965999975800514
   vertex 0.0065629999153316021 -0.0084319999441504478 0.02607399970293045
  endloop
 endfacet
 facet normal -0.19703317711262627 0.099500066730291492 0.97533464197554876
  outer loop
   vertex 0.0021609999239444733 -0.0097580002620816231 0.02531999908387661
   vertex 0.0040250001475214958 -0.01082099974155426 0.025805000215768814
   vertex 0.0065629999153316021 -0.0084319999441504478 0.02607399970293045
  endloop
 endfacet
 facet normal -0.25976601829091983 0.59500367691843603 0.76058677361286198
  outer loop
   vertex 0.0014400000218302011 -0.0073770000599324703 0.023499000817537308
   vertex 0.0065629999153316021 -0.0084319999441504478 0.02607399970293045
   vertex 0.0076720002107322216 -0.0068370001390576363 0.025204999372363091
  endloop
 endfacet
 facet normal -0.29448645830192277 0.52269892398349893 0.80003972447827998
  outer loop
   vertex 0.0065629999153316021 -0.0084319999441504478 0.02607399970293045
   vertex 0.0014400000218302011 -0.0073770000599324703 0.023499000817537308
   vertex 0.0021609999239444733 -0.0097580002620816231 0.02531999908387661
  endloop
 endfacet
 facet normal -0.038596239967829876 0.4986318451623305 0.86595416348115994
  outer loop
   vertex 0.0076720002107322216 -0.0068370001390576363 0.025204999372363091
   vertex 0.0065629999153316021 -0.0084319999441504478 0.02607399970293045
   vertex 0.0083729997277259827 -0.0098409997299313545 0.026965999975800514
  endloop
 endfacet
 facet normal -0.46597918706070646 0.055237202677433067 0.88306978697417526
  outer loop
   vertex 0.0040250001475214958 -0.01082099974155426 0.025805000215768814
   vertex 0.0029760000761598349 -0.012780000455677509 0.025374000892043114
   vertex 0.0060250000096857548 -0.011087000370025635 0.02687700092792511
  endloop
 endfacet
 facet normal -0.28283803894280718 -0.059171045146467899 0.95734081242954538
  outer loop
   vertex 0.0029760000761598349 -0.012780000455677509 0.025374000892043114
   vertex 0.0040250001475214958 -0.01082099974155426 0.025805000215768814
   vertex 0.0021609999239444733 -0.0097580002620816231 0.02531999908387661
  endloop
 endfacet
 facet normal -0.38804634026446422 -0.11316567589769599 0.91466582291346898
  outer loop
   vertex 0.0029760000761598349 -0.012780000455677509 0.025374000892043114
   vertex 0.0068560000509023666 -0.013298000209033489 0.026955999433994293
   vertex 0.0060250000096857548 -0.011087000370025635 0.02687700092792511
  endloop
 endfacet
 facet normal -0.047348260752156326 0.017888216378908528 0.99871825552481386
  outer loop
   vertex 0.0068560000509023666 -0.013298000209033489 0.026955999433994293
   vertex 0.0083729997277259827 -0.0098409997299313545 0.026965999975800514
   vertex 0.0060250000096857548 -0.011087000370025635 0.02687700092792511
  endloop
 endfacet
 facet normal 0.12558366435798182 0.52337071029796234 0.84280000168997871
  outer loop
   vertex 0.0083729997277259827 -0.0098409997299313545 0.026965999975800514
   vertex 0.0089170001447200775 -0.0078619997948408127 0.025655999779701233
   vertex 0.0076720002107322216 -0.0068370001390576363 0.025204999372363091
  endloop
 endfacet
 facet normal 0.042103159174570221 -0.021365304555199468 0.99888480204114849
  outer loop
   vertex 0.0083729997277259827 -0.0098409997299313545 0.026965999975800514
   vertex 0.0068560000509023666 -0.013298000209033489 0.026955999433994293
   vertex 0.0096789998933672905 -0.013578999787569046 0.026830999180674553
  endloop
 endfacet
 facet normal 0.42953356158653172 0.11773645854440697 0.89534297662974394
  outer loop
   vertex 0.0083729997277259827 -0.0098409997299313545 0.026965999975800514
   vertex 0.0096789998933672905 -0.013578999787569046 0.026830999180674553
   vertex 0.010479000397026539 -0.010565999895334244 0.026050999760627747
  endloop
 endfacet
 facet normal 0.4766166878021878 0.39038740198191796 0.78767646231322686
  outer loop
   vertex 0.0089170001447200775 -0.0078619997948408127 0.025655999779701233
   vertex 0.0083729997277259827 -0.0098409997299313545 0.026965999975800514
   vertex 0.010479000397026539 -0.010565999895334244 0.026050999760627747
  endloop
 endfacet
 facet normal -0.96529474193619735 -0.26062791611138558 -0.016707798591273394
  outer loop
   vertex 0.0029760000761598349 -0.012780000455677509 0.025374000892043114
   vertex 0.0021609999239444733 -0.0097580002620816231 0.02531999908387661
   vertex 0.0037150001153349876 -0.015197999775409698 0.020397000014781952
  endloop
 endfacet
 facet normal -0.95910054814403878 -0.28289410860278708 0.0098519981546283924
  outer loop
   vertex 0.0037150001153349876 -0.015197999775409698 0.020397000014781952
   vertex 0.0021609999239444733 -0.0097580002620816231 0.02531999908387661
   vertex 0.0014400000218302011 -0.0073770000599324703 0.023499000817537308
  endloop
 endfacet
 facet normal -0.19719234237779631 0.87425491049445947 0.44361416972847345
  outer loop
   vertex 0.0064989998936653137 -0.0056259999983012676 0.022297000512480736
   vertex 0.0014400000218302011 -0.0073770000599324703 0.023499000817537308
   vertex 0.0076720002107322216 -0.0068370001390576363 0.025204999372363091
  endloop
 endfacet
 facet normal -0.25278915946559655 0.92502911406674593 0.28358204982961904
  outer loop
   vertex 0.0014400000218302011 -0.0073770000599324703 0.023499000817537308
   vertex 0.0064989998936653137 -0.0056259999983012676 0.022297000512480736
   vertex 0.001766999950632453 -0.0063939997926354408 0.020584000274538994
  endloop
 endfacet
 facet normal -0.96152659145784924 -0.20896255985213252 -0.17832908483894133
  outer loop
   vertex 0.0014400000218302011 -0.0073770000599324703 0.023499000817537308
   vertex 0.001766999950632453 -0.0063939997926354408 0.020584000274538994
   vertex 0.0037150001153349876 -0.015197999775409698 0.020397000014781952
  endloop
 endfacet
 facet normal 0.17972888681678109 0.57081774241830652 0.80116454750823107
  outer loop
   vertex 0.0084300003945827484 -0.0070489998906850815 0.025186000391840935
   vertex 0.0076720002107322216 -0.0068370001390576363 0.025204999372363091
   vertex 0.0089170001447200775 -0.0078619997948408127 0.025655999779701233
  endloop
 endfacet
 facet normal 0.26521009154639702 0.92337889339095713 0.27755184485433199
  outer loop
   vertex 0.0076720002107322216 -0.0068370001390576363 0.025204999372363091
   vertex 0.0084300003945827484 -0.0070489998906850815 0.025186000391840935
   vertex 0.0064989998936653137 -0.0056259999983012676 0.022297000512480736
  endloop
 endfacet
 facet normal -0.95188238118281399 -0.30637161844522515 0.007507583165653176
  outer loop
   vertex 0.0029760000761598349 -0.012780000455677509 0.025374000892043114
   vertex 0.0037150001153349876 -0.015197999775409698 0.020397000014781952
   vertex 0.0046470002271234989 -0.017994999885559082 0.024423999711871147
  endloop
 endfacet
 facet normal -0.47557674054310872 -0.30283758937223709 0.8259032378660377
  outer loop
   vertex 0.0029760000761598349 -0.012780000455677509 0.025374000892043114
   vertex 0.0046470002271234989 -0.017994999885559082 0.024423999711871147
   vertex 0.0054009999148547649 -0.018710000440478325 0.024596000090241432
  endloop
 endfacet
 facet normal -0.39425635444991503 -0.27622163757655038 0.87650643689044971
  outer loop
   vertex 0.0068560000509023666 -0.013298000209033489 0.026955999433994293
   vertex 0.0029760000761598349 -0.012780000455677509 0.025374000892043114
   vertex 0.0054009999148547649 -0.018710000440478325 0.024596000090241432
  endloop
 endfacet
 facet normal 0.00077958504035527236 -0.39989266205881313 0.91656164608752899
  outer loop
   vertex 0.0054009999148547649 -0.018710000440478325 0.024596000090241432
   vertex 0.0096789998933672905 -0.013578999787569046 0.026830999180674553
   vertex 0.0068560000509023666 -0.013298000209033489 0.026955999433994293
  endloop
 endfacet
 facet normal 0.86600084794527132 0.50004034074381665 -0.0014795225171980969
  outer loop
   vertex 0.010479000397026539 -0.010565999895334244 0.026050999760627747
   vertex 0.011129000224173069 -0.011699000373482704 0.023586999624967575
   vertex 0.0089170001447200775 -0.0078619997948408127 0.025655999779701233
  endloop
 endfacet
 facet normal 0.86213289410530547 0.50638407344600633 -0.017379386118035252
  outer loop
   vertex 0.0089170001447200775 -0.0078619997948408127 0.025655999779701233
   vertex 0.011129000224173069 -0.011699000373482704 0.023586999624967575
   vertex 0.0084300003945827484 -0.0070489998906850815 0.025186000391840935
  endloop
 endfacet
 facet normal 0.29265443420744347 -0.57635515500514489 0.76299942164966061
  outer loop
   vertex 0.0071939998306334019 -0.019644999876618385 0.023202000185847282
   vertex 0.0096789998933672905 -0.013578999787569046 0.026830999180674553
   vertex 0.0054009999148547649 -0.018710000440478325 0.024596000090241432
  endloop
 endfacet
 facet normal 0.41057849858063655 -0.58608751970365736 0.69851751284480001
  outer loop
   vertex 0.0071939998306334019 -0.019644999876618385 0.023202000185847282
   vertex 0.012078000232577324 -0.014728999696671963 0.024455999955534935
   vertex 0.0096789998933672905 -0.013578999787569046 0.026830999180674553
  endloop
 endfacet
 facet normal 0.70293223651335202 -0.0025123443789943412 0.71125238769093668
  outer loop
   vertex 0.0096789998933672905 -0.013578999787569046 0.026830999180674553
   vertex 0.012078000232577324 -0.014728999696671963 0.024455999955534935
   vertex 0.010479000397026539 -0.010565999895334244 0.026050999760627747
  endloop
 endfacet
 facet normal 0.94104270920310595 0.32329724169902452 0.099586710787539723
  outer loop
   vertex 0.011129000224173069 -0.011699000373482704 0.023586999624967575
   vertex 0.010479000397026539 -0.010565999895334244 0.026050999760627747
   vertex 0.012078000232577324 -0.014728999696671963 0.024455999955534935
  endloop
 endfacet
 facet normal -0.8574253756770972 -0.49387844149290733 -0.14458841645694076
  outer loop
   vertex 0.0037150001153349876 -0.015197999775409698 0.020397000014781952
   vertex 0.005384999793022871 -0.018719999119639397 0.022523999214172363
   vertex 0.0046470002271234989 -0.017994999885559082 0.024423999711871147
  endloop
 endfacet
 facet normal -0.72685184670903558 -0.24081159332018537 -0.64319217148396501
  outer loop
   vertex 0.003536999924108386 -0.0091960001736879349 0.018350999802350998
   vertex 0.0059589999727904797 -0.014569999650120735 0.017626000568270683
   vertex 0.0037150001153349876 -0.015197999775409698 0.020397000014781952
  endloop
 endfacet
 facet normal -0.7425735826411044 -0.56720397349331952 -0.3561799079355048
  outer loop
   vertex 0.0037150001153349876 -0.015197999775409698 0.020397000014781952
   vertex 0.0060319998301565647 -0.018177999183535576 0.020312000066041946
   vertex 0.005384999793022871 -0.018719999119639397 0.022523999214172363
  endloop
 endfacet
 facet normal -0.62973349257795541 -0.47203094410917262 -0.6169461209287026
  outer loop
   vertex 0.0059589999727904797 -0.014569999650120735 0.017626000568270683
   vertex 0.0060319998301565647 -0.018177999183535576 0.020312000066041946
   vertex 0.0037150001153349876 -0.015197999775409698 0.020397000014781952
  endloop
 endfacet
 facet normal -0.86904898801844144 -0.18252158551180681 -0.45982575748470078
  outer loop
   vertex 0.0037150001153349876 -0.015197999775409698 0.020397000014781952
   vertex 0.001766999950632453 -0.0063939997926354408 0.020584000274538994
   vertex 0.003536999924108386 -0.0091960001736879349 0.018350999802350998
  endloop
 endfacet
 facet normal 0.71886746796401046 0.67970795825972163 -0.14569370261412451
  outer loop
   vertex 0.0091180000454187393 -0.0085410000756382942 0.021619999781250954
   vertex 0.0064989998936653137 -0.0056259999983012676 0.022297000512480736
   vertex 0.0084300003945827484 -0.0070489998906850815 0.025186000391840935
  endloop
 endfacet
 facet normal 0.15269905257665325 0.67311734146045366 -0.72359936703082017
  outer loop
   vertex 0.0064989998936653137 -0.0056259999983012676 0.022297000512480736
   vertex 0.003536999924108386 -0.0091960001736879349 0.018350999802350998
   vertex 0.001766999950632453 -0.0063939997926354408 0.020584000274538994
  endloop
 endfacet
 facet normal 0.19940075119874942 0.64752053680608124 -0.73549744719865529
  outer loop
   vertex 0.003536999924108386 -0.0091960001736879349 0.018350999802350998
   vertex 0.0064989998936653137 -0.0056259999983012676 0.022297000512480736
   vertex 0.007385999895632267 -0.0087320003658533096 0.01980300061404705
  endloop
 endfacet
 facet normal 0.53676548663959522 0.61613289718538633 -0.57642264473084381
  outer loop
   vertex 0.007385999895632267 -0.0087320003658533096 0.01980300061404705
   vertex 0.0064989998936653137 -0.0056259999983012676 0.022297000512480736
   vertex 0.0091180000454187393 -0.0085410000756382942 0.021619999781250954
  endloop
 endfacet
 facet normal 0.85624252370680665 0.51415601754625639 -0.04992324325574287
  outer loop
   vertex 0.0084300003945827484 -0.0070489998906850815 0.025186000391840935
   vertex 0.011129000224173069 -0.011699000373482704 0.023586999624967575
   vertex 0.0091180000454187393 -0.0085410000756382942 0.021619999781250954
  endloop
 endfacet
 facet normal -0.68912366840502293 -0.72459009905227356 0.0088180496381343627
  outer loop
   vertex 0.005384999793022871 -0.018719999119639397 0.022523999214172363
   vertex 0.0054009999148547649 -0.018710000440478325 0.024596000090241432
   vertex 0.0046470002271234989 -0.017994999885559082 0.024423999711871147
  endloop
 endfacet
 facet normal -0.4575765592759824 -0.88913580315236052 0.0078240624844390632
  outer loop
   vertex 0.005384999793022871 -0.018719999119639397 0.022523999214172363
   vertex 0.0071939998306334019 -0.019644999876618385 0.023202000185847282
   vertex 0.0054009999148547649 -0.018710000440478325 0.024596000090241432
  endloop
 endfacet
 facet normal 0.94856887443672888 0.31217344748363002 0.052581642576307666
  outer loop
   vertex 0.012292000465095043 -0.014973999932408333 0.022050000727176666
   vertex 0.011129000224173069 -0.011699000373482704 0.023586999624967575
   vertex 0.012078000232577324 -0.014728999696671963 0.024455999955534935
  endloop
 endfacet
 facet normal 0.91936218511251599 0.3778672009534666 -0.10949680830386063
  outer loop
   vertex 0.011129000224173069 -0.011699000373482704 0.023586999624967575
   vertex 0.012292000465095043 -0.014973999932408333 0.022050000727176666
   vertex 0.011253000237047672 -0.012745999731123447 0.021014999598264694
  endloop
 endfacet
 facet normal 0.87326947279238942 0.46453389643234544 -0.1469989352148009
  outer loop
   vertex 0.0091180000454187393 -0.0085410000756382942 0.021619999781250954
   vertex 0.011129000224173069 -0.011699000373482704 0.023586999624967575
   vertex 0.011253000237047672 -0.012745999731123447 0.021014999598264694
  endloop
 endfacet
 facet normal -0.33555036044482056 -0.88757301131818289 -0.31562652801202218
  outer loop
   vertex 0.0060319998301565647 -0.018177999183535576 0.020312000066041946
   vertex 0.0071939998306334019 -0.019644999876618385 0.023202000185847282
   vertex 0.005384999793022871 -0.018719999119639397 0.022523999214172363
  endloop
 endfacet
 facet normal -0.34114261668754886 -0.88644009420984438 -0.31280293230213529
  outer loop
   vertex 0.0060319998301565647 -0.018177999183535576 0.020312000066041946
   vertex 0.0077829998917877674 -0.019070999696850777 0.0209330003708601
   vertex 0.0071939998306334019 -0.019644999876618385 0.023202000185847282
  endloop
 endfacet
 facet normal 0.51300123195871994 -0.85436897948080692 -0.082966155206567985
  outer loop
   vertex 0.0077829998917877674 -0.019070999696850777 0.0209330003708601
   vertex 0.010719000361859798 -0.0173179991543293 0.021035000681877136
   vertex 0.0071939998306334019 -0.019644999876618385 0.023202000185847282
  endloop
 endfacet
 facet normal 0.64343010175495152 -0.71136908498282436 0.28275736787272554
  outer loop
   vertex 0.010719000361859798 -0.0173179991543293 0.021035000681877136
   vertex 0.012078000232577324 -0.014728999696671963 0.024455999955534935
   vertex 0.0071939998306334019 -0.019644999876618385 0.023202000185847282
  endloop
 endfacet
 facet normal 0.79603262638748185 -0.59091259950663177 0.1309746443818908
  outer loop
   vertex 0.012078000232577324 -0.014728999696671963 0.024455999955534935
   vertex 0.010719000361859798 -0.0173179991543293 0.021035000681877136
   vertex 0.012292000465095043 -0.014973999932408333 0.022050000727176666
  endloop
 endfacet
 facet normal 0.3124325032319894 0.26391956201305977 -0.91254172272342027
  outer loop
   vertex 0.007385999895632267 -0.0087320003658533096 0.01980300061404705
   vertex 0.0059589999727904797 -0.014569999650120735 0.017626000568270683
   vertex 0.003536999924108386 -0.0091960001736879349 0.018350999802350998
  endloop
 endfacet
 facet normal 0.38837882634045223 0.23712456129260837 -0.8904683204259437
  outer loop
   vertex 0.010037999600172043 -0.012272000312805176 0.020016999915242195
   vertex 0.0059589999727904797 -0.014569999650120735 0.017626000568270683
   vertex 0.007385999895632267 -0.0087320003658533096 0.01980300061404705
  endloop
 endfacet
 facet normal 0.49653011438865019 0.021518737306799499 -0.86775272367761236
  outer loop
   vertex 0.010037999600172043 -0.012272000312805176 0.020016999915242195
   vertex 0.0069309999234974384 -0.016271000728011131 0.018139999359846115
   vertex 0.0059589999727904797 -0.014569999650120735 0.017626000568270683
  endloop
 endfacet
 facet normal -0.53823574880040814 -0.51025476584077356 -0.67077742407600538
  outer loop
   vertex 0.0059589999727904797 -0.014569999650120735 0.017626000568270683
   vertex 0.0069309999234974384 -0.016271000728011131 0.018139999359846115
   vertex 0.0060319998301565647 -0.018177999183535576 0.020312000066041946
  endloop
 endfacet
 facet normal -0.12460286946405971 -0.71946609322050392 -0.68325885696955846
  outer loop
   vertex 0.0069309999234974384 -0.016271000728011131 0.018139999359846115
   vertex 0.0077829998917877674 -0.019070999696850777 0.0209330003708601
   vertex 0.0060319998301565647 -0.018177999183535576 0.020312000066041946
  endloop
 endfacet
 facet normal 0.62947302774831349 0.43254992925076197 -0.64549536484976533
  outer loop
   vertex 0.0091180000454187393 -0.0085410000756382942 0.021619999781250954
   vertex 0.010037999600172043 -0.012272000312805176 0.020016999915242195
   vertex 0.007385999895632267 -0.0087320003658533096 0.01980300061404705
  endloop
 endfacet
 facet normal 0.66760210342017479 0.42673761558559858 -0.61008396057696535
  outer loop
   vertex 0.010037999600172043 -0.012272000312805176 0.020016999915242195
   vertex 0.0091180000454187393 -0.0085410000756382942 0.021619999781250954
   vertex 0.011253000237047672 -0.012745999731123447 0.021014999598264694
  endloop
 endfacet
 facet normal 0.81935654236728073 -0.35489101467483075 -0.45023019021718624
  outer loop
   vertex 0.010719000361859798 -0.0173179991543293 0.021035000681877136
   vertex 0.010497000068426132 -0.016840999945998192 0.020254999399185181
   vertex 0.012292000465095043 -0.014973999932408333 0.022050000727176666
  endloop
 endfacet
 facet normal 0.70666175685923605 0.00085531133129792452 -0.70755100864541498
  outer loop
   vertex 0.010497000068426132 -0.016840999945998192 0.020254999399185181
   vertex 0.011253000237047672 -0.012745999731123447 0.021014999598264694
   vertex 0.012292000465095043 -0.014973999932408333 0.022050000727176666
  endloop
 endfacet
 facet normal 0.64018530815031593 0.024316237948025832 -0.76783558904269356
  outer loop
   vertex 0.010497000068426132 -0.016840999945998192 0.020254999399185181
   vertex 0.010037999600172043 -0.012272000312805176 0.020016999915242195
   vertex 0.011253000237047672 -0.012745999731123447 0.021014999598264694
  endloop
 endfacet
 facet normal 0.32681864369307884 -0.61573853369984077 -0.71697673062086631
  outer loop
   vertex 0.0069309999234974384 -0.016271000728011131 0.018139999359846115
   vertex 0.010497000068426132 -0.016840999945998192 0.020254999399185181
   vertex 0.0077829998917877674 -0.019070999696850777 0.0209330003708601
  endloop
 endfacet
 facet normal 0.44015975584956024 -0.70482920186146814 -0.55630493933973058
  outer loop
   vertex 0.010719000361859798 -0.0173179991543293 0.021035000681877136
   vertex 0.0077829998917877674 -0.019070999696850777 0.0209330003708601
   vertex 0.010497000068426132 -0.016840999945998192 0.020254999399185181
  endloop
 endfacet
 facet normal 0.51088921987591196 0.0065460468773833975 -0.8596216343746016
  outer loop
   vertex 0.0069309999234974384 -0.016271000728011131 0.018139999359846115
   vertex 0.010037999600172043 -0.012272000312805176 0.020016999915242195
   vertex 0.010497000068426132 -0.016840999945998192 0.020254999399185181
  endloop
 endfacet
endsolid
