solid Visualization Toolkit generated SLA File
 facet normal -0.35771932508984988 -0.047657328615373008 -0.93261227929215507
  outer loop
   vertex 0.022458000108599663 -0.13851700723171234 0.021595999598503113
   vertex 0.025033999234437943 -0.13912500441074371 0.020639000460505486
   vertex 0.021265000104904175 -0.14151899516582489 0.022206999361515045
  endloop
 endfacet
 facet normal -0.11991048980061603 -0.15202716266964791 -0.9810755405402749
  outer loop
   vertex 0.021265000104904175 -0.14151899516582489 0.022206999361515045
   vertex 0.019282000139355659 -0.13952900469303131 0.022141000255942345
   vertex 0.022458000108599663 -0.13851700723171234 0.021595999598503113
  endloop
 endfacet
 facet normal -0.39960444469789563 -0.37998725085270502 -0.83422177924523766
  outer loop
   vertex 0.025033999234437943 -0.13912500441074371 0.020639000460505486
   vertex 0.022458000108599663 -0.13851700723171234 0.021595999598503113
   vertex 0.021486999467015266 -0.13438500463962555 0.020178999751806259
  endloop
 endfacet
 facet normal -0.056776859103328907 -0.32938166995621199 -0.94248825126216706
  outer loop
   vertex 0.022458000108599663 -0.13851700723171234 0.021595999598503113
   vertex 0.019282000139355659 -0.13952900469303131 0.022141000255942345
   vertex 0.019237000495195389 -0.13607899844646454 0.020937999710440636
  endloop
 endfacet
 facet normal -0.29627623748813303 -0.37138390281521982 -0.87993999103894038
  outer loop
   vertex 0.022458000108599663 -0.13851700723171234 0.021595999598503113
   vertex 0.019741000607609749 -0.13419100642204285 0.020685000345110893
   vertex 0.021486999467015266 -0.13438500463962555 0.020178999751806259
  endloop
 endfacet
 facet normal 0.084231888046034001 -0.15440121875156962 -0.98441111974836526
  outer loop
   vertex 0.022458000108599663 -0.13851700723171234 0.021595999598503113
   vertex 0.019237000495195389 -0.13607899844646454 0.020937999710440636
   vertex 0.019741000607609749 -0.13419100642204285 0.020685000345110893
  endloop
 endfacet
 facet normal -0.16957055277865382 -0.3391070844561439 -0.92533897189192005
  outer loop
   vertex 0.021265000104904175 -0.14151899516582489 0.022206999361515045
   vertex 0.025033999234437943 -0.13912500441074371 0.020639000460505486
   vertex 0.024638000875711441 -0.14097900688648224 0.021391000598669052
  endloop
 endfacet
 facet normal 0.64130857282635712 -0.19386721027489401 -0.74238724342465034
  outer loop
   vertex 0.026101000607013702 -0.13757899403572083 0.021157000213861465
   vertex 0.026131000369787216 -0.13868600130081177 0.02147199958562851
   vertex 0.025033999234437943 -0.13912500441074371 0.020639000460505486
  endloop
 endfacet
 facet normal -0.32671284487044722 -0.33041649383186134 -0.88548498440149659
  outer loop
   vertex 0.024622000753879547 -0.13704000413417816 0.020013000816106796
   vertex 0.025033999234437943 -0.13912500441074371 0.020639000460505486
   vertex 0.021486999467015266 -0.13438500463962555 0.020178999751806259
  endloop
 endfacet
 facet normal 0.57715717647895126 -0.12810317799636073 -0.80652288834606389
  outer loop
   vertex 0.025033999234437943 -0.13912500441074371 0.020639000460505486
   vertex 0.024622000753879547 -0.13704000413417816 0.020013000816106796
   vertex 0.026101000607013702 -0.13757899403572083 0.021157000213861465
  endloop
 endfacet
 facet normal 0.65037944222449207 -0.40067238160205282 -0.64534349284167836
  outer loop
   vertex 0.025033999234437943 -0.13912500441074371 0.020639000460505486
   vertex 0.026131000369787216 -0.13868600130081177 0.02147199958562851
   vertex 0.024638000875711441 -0.14097900688648224 0.021391000598669052
  endloop
 endfacet
 facet normal -0.19354892232841958 -0.23165520629562319 -0.95334919104263138
  outer loop
   vertex 0.021265000104904175 -0.14151899516582489 0.022206999361515045
   vertex 0.024638000875711441 -0.14097900688648224 0.021391000598669052
   vertex 0.022149000316858292 -0.14191600680351257 0.022123999893665314
  endloop
 endfacet
 facet normal -0.68048606499767894 -0.68658614882496583 -0.25600424915551018
  outer loop
   vertex 0.019282000139355659 -0.13952900469303131 0.022141000255942345
   vertex 0.021265000104904175 -0.14151899516582489 0.022206999361515045
   vertex 0.020106999203562737 -0.14101000130176544 0.023919999599456787
  endloop
 endfacet
 facet normal -0.41701790859974708 -0.88935552158134168 -0.18746418361882569
  outer loop
   vertex 0.021880000829696655 -0.14214399456977844 0.023803999647498131
   vertex 0.021265000104904175 -0.14151899516582489 0.022206999361515045
   vertex 0.022149000316858292 -0.14191600680351257 0.022123999893665314
  endloop
 endfacet
 facet normal -0.54051387192086453 -0.83303804615440924 -0.11786588955401696
  outer loop
   vertex 0.021880000829696655 -0.14214399456977844 0.023803999647498131
   vertex 0.020106999203562737 -0.14101000130176544 0.023919999599456787
   vertex 0.021265000104904175 -0.14151899516582489 0.022206999361515045
  endloop
 endfacet
 facet normal -0.70793229492570886 -0.24075969770991745 -0.66397788649912759
  outer loop
   vertex 0.019237000495195389 -0.13607899844646454 0.020937999710440636
   vertex 0.019282000139355659 -0.13952900469303131 0.022141000255942345
   vertex 0.01802000030875206 -0.1362760066986084 0.022306999191641808
  endloop
 endfacet
 facet normal -0.90955661688360923 -0.40725495341778134 0.082765715123619188
  outer loop
   vertex 0.019282000139355659 -0.13952900469303131 0.022141000255942345
   vertex 0.020106999203562737 -0.14101000130176544 0.023919999599456787
   vertex 0.017849000170826912 -0.13505899906158447 0.028387999162077904
  endloop
 endfacet
 facet normal -0.93048593953372005 -0.36335744235554068 0.046554112760206906
  outer loop
   vertex 0.017849000170826912 -0.13505899906158447 0.028387999162077904
   vertex 0.01802000030875206 -0.1362760066986084 0.022306999191641808
   vertex 0.019282000139355659 -0.13952900469303131 0.022141000255942345
  endloop
 endfacet
 facet normal -0.24829742247475686 0.22364034077430564 -0.94251439669150128
  outer loop
   vertex 0.019741000607609749 -0.13419100642204285 0.020685000345110893
   vertex 0.02047399990260601 -0.13390399515628815 0.020560000091791153
   vertex 0.021486999467015266 -0.13438500463962555 0.020178999751806259
  endloop
 endfacet
 facet normal 0.06206280302670434 0.69674797190227444 -0.71462610652741743
  outer loop
   vertex 0.021486999467015266 -0.13438500463962555 0.020178999751806259
   vertex 0.02047399990260601 -0.13390399515628815 0.020560000091791153
   vertex 0.022548999637365341 -0.13353599607944489 0.021098999306559563
  endloop
 endfacet
 facet normal 0.24245612035052133 0.55726796958370617 -0.79414572956141183
  outer loop
   vertex 0.021486999467015266 -0.13438500463962555 0.020178999751806259
   vertex 0.022548999637365341 -0.13353599607944489 0.021098999306559563
   vertex 0.024960000067949295 -0.1352120041847229 0.020658999681472778
  endloop
 endfacet
 facet normal 0.19912997654750542 0.29358777264980301 -0.93496174905218321
  outer loop
   vertex 0.024960000067949295 -0.1352120041847229 0.020658999681472778
   vertex 0.024622000753879547 -0.13704000413417816 0.020013000816106796
   vertex 0.021486999467015266 -0.13438500463962555 0.020178999751806259
  endloop
 endfacet
 facet normal -0.73547093924149398 -0.10648646845834608 -0.66913610690688641
  outer loop
   vertex 0.01802000030875206 -0.1362760066986084 0.022306999191641808
   vertex 0.018857000395655632 -0.13444100320339203 0.021095000207424164
   vertex 0.019237000495195389 -0.13607899844646454 0.020937999710440636
  endloop
 endfacet
 facet normal -0.41839636515226086 -0.01001305799255762 -0.90820934827660382
  outer loop
   vertex 0.019741000607609749 -0.13419100642204285 0.020685000345110893
   vertex 0.019237000495195389 -0.13607899844646454 0.020937999710440636
   vertex 0.018857000395655632 -0.13444100320339203 0.021095000207424164
  endloop
 endfacet
 facet normal -0.39224725439512431 0.86246531553250416 -0.31983694427458603
  outer loop
   vertex 0.019741000607609749 -0.13419100642204285 0.020685000345110893
   vertex 0.018857000395655632 -0.13444100320339203 0.021095000207424164
   vertex 0.02047399990260601 -0.13390399515628815 0.020560000091791153
  endloop
 endfacet
 facet normal 0.1842293560461824 -0.86068245877428096 -0.47464223319155585
  outer loop
   vertex 0.022149000316858292 -0.14191600680351257 0.022123999893665314
   vertex 0.024638000875711441 -0.14097900688648224 0.021391000598669052
   vertex 0.024661000818014145 -0.14176599681377411 0.022826999425888062
  endloop
 endfacet
 facet normal 0.57477239989384143 -0.71369633598147841 -0.40034263865704672
  outer loop
   vertex 0.025438999757170677 -0.14084999263286591 0.022311000153422356
   vertex 0.024661000818014145 -0.14176599681377411 0.022826999425888062
   vertex 0.024638000875711441 -0.14097900688648224 0.021391000598669052
  endloop
 endfacet
 facet normal 0.70673203147507446 -0.44060740176473107 -0.55352954139526023
  outer loop
   vertex 0.025438999757170677 -0.14084999263286591 0.022311000153422356
   vertex 0.024638000875711441 -0.14097900688648224 0.021391000598669052
   vertex 0.026131000369787216 -0.13868600130081177 0.02147199958562851
  endloop
 endfacet
 facet normal 0.99450728974196556 -0.0028212840001459747 -0.10462930281083088
  outer loop
   vertex 0.026345999911427498 -0.13762600719928741 0.023486999794840813
   vertex 0.026131000369787216 -0.13868600130081177 0.02147199958562851
   vertex 0.026101000607013702 -0.13757899403572083 0.021157000213861465
  endloop
 endfacet
 facet normal 0.90442343715117723 0.4177395717806961 -0.086671197638725939
  outer loop
   vertex 0.026101000607013702 -0.13757899403572083 0.021157000213861465
   vertex 0.024960000067949295 -0.1352120041847229 0.020658999681472778
   vertex 0.026345999911427498 -0.13762600719928741 0.023486999794840813
  endloop
 endfacet
 facet normal 0.63838038571695233 0.14884125956417907 -0.75519319553556896
  outer loop
   vertex 0.024960000067949295 -0.1352120041847229 0.020658999681472778
   vertex 0.026101000607013702 -0.13757899403572083 0.021157000213861465
   vertex 0.024622000753879547 -0.13704000413417816 0.020013000816106796
  endloop
 endfacet
 facet normal 0.9882266494695745 -0.15074698430065891 -0.026142608943936326
  outer loop
   vertex 0.026131000369787216 -0.13868600130081177 0.02147199958562851
   vertex 0.026345999911427498 -0.13762600719928741 0.023486999794840813
   vertex 0.026071000844240189 -0.13953299820423126 0.024088000878691673
  endloop
 endfacet
 facet normal 0.93869326194417446 -0.33372008852403601 -0.086520878960601871
  outer loop
   vertex 0.026071000844240189 -0.13953299820423126 0.024088000878691673
   vertex 0.025438999757170677 -0.14084999263286591 0.022311000153422356
   vertex 0.026131000369787216 -0.13868600130081177 0.02147199958562851
  endloop
 endfacet
 facet normal 0.092434221462498717 -0.98853991746066638 -0.11935135646267495
  outer loop
   vertex 0.021880000829696655 -0.14214399456977844 0.023803999647498131
   vertex 0.022149000316858292 -0.14191600680351257 0.022123999893665314
   vertex 0.024661000818014145 -0.14176599681377411 0.022826999425888062
  endloop
 endfacet
 facet normal -0.87553424808626512 -0.45475130139882336 0.16322081455529822
  outer loop
   vertex 0.017849000170826912 -0.13505899906158447 0.028387999162077904
   vertex 0.020106999203562737 -0.14101000130176544 0.023919999599456787
   vertex 0.020950999110937119 -0.14051300287246704 0.029831999912858009
  endloop
 endfacet
 facet normal -0.45046160836030674 -0.88199481439233507 0.13845391572099336
  outer loop
   vertex 0.020950999110937119 -0.14051300287246704 0.029831999912858009
   vertex 0.020106999203562737 -0.14101000130176544 0.023919999599456787
   vertex 0.021984999999403954 -0.14157199859619141 0.026450000703334808
  endloop
 endfacet
 facet normal -0.51855959983949584 -0.83125600099420394 0.20027331880564109
  outer loop
   vertex 0.021984999999403954 -0.14157199859619141 0.026450000703334808
   vertex 0.020106999203562737 -0.14101000130176544 0.023919999599456787
   vertex 0.021880000829696655 -0.14214399456977844 0.023803999647498131
  endloop
 endfacet
 facet normal 0.16037216465151449 -0.9660667205156056 0.20247434483709306
  outer loop
   vertex 0.021984999999403954 -0.14157199859619141 0.026450000703334808
   vertex 0.021880000829696655 -0.14214399456977844 0.023803999647498131
   vertex 0.024671999737620354 -0.14169999957084656 0.023710999637842178
  endloop
 endfacet
 facet normal 0.15897192294483617 -0.98468800854741922 0.071536379123762414
  outer loop
   vertex 0.024661000818014145 -0.14176599681377411 0.022826999425888062
   vertex 0.024671999737620354 -0.14169999957084656 0.023710999637842178
   vertex 0.021880000829696655 -0.14214399456977844 0.023803999647498131
  endloop
 endfacet
 facet normal -0.46652565892538295 -0.32939035027584501 -0.82088720705672691
  outer loop
   vertex 0.018857000395655632 -0.13444100320339203 0.021095000207424164
   vertex 0.01802000030875206 -0.1362760066986084 0.022306999191641808
   vertex 0.016814999282360077 -0.13086600601673126 0.020820999518036842
  endloop
 endfacet
 facet normal -0.82717791219690762 -0.55503541262773093 0.08782022718445584
  outer loop
   vertex 0.01802000030875206 -0.1362760066986084 0.022306999191641808
   vertex 0.017849000170826912 -0.13505899906158447 0.028387999162077904
   vertex 0.013779000379145145 -0.12947900593280792 0.025319000706076622
  endloop
 endfacet
 facet normal -0.57258807017233393 -0.3332806177727668 -0.74904401186667613
  outer loop
   vertex 0.016814999282360077 -0.13086600601673126 0.020820999518036842
   vertex 0.01802000030875206 -0.1362760066986084 0.022306999191641808
   vertex 0.012740000151097775 -0.12723399698734283 0.02232000045478344
  endloop
 endfacet
 facet normal -0.86096902402682618 -0.50264297030028882 -0.077989640812081013
  outer loop
   vertex 0.013779000379145145 -0.12947900593280792 0.025319000706076622
   vertex 0.012740000151097775 -0.12723399698734283 0.02232000045478344
   vertex 0.01802000030875206 -0.1362760066986084 0.022306999191641808
  endloop
 endfacet
 facet normal -0.62607195978710062 -0.19404824415615218 0.7552345199395043
  outer loop
   vertex 0.017849000170826912 -0.13505899906158447 0.028387999162077904
   vertex 0.018592000007629395 -0.13317500054836273 0.029487999156117439
   vertex 0.014817999675869942 -0.12588700652122498 0.028232000768184662
  endloop
 endfacet
 facet normal -0.83912008045730513 -0.42606140958646832 0.3381555349754275
  outer loop
   vertex 0.013226999901235104 -0.12716799974441528 0.026861000806093216
   vertex 0.013779000379145145 -0.12947900593280792 0.025319000706076622
   vertex 0.017849000170826912 -0.13505899906158447 0.028387999162077904
  endloop
 endfacet
 facet normal -0.56031462388869313 -0.17138039693296001 0.8103556514294038
  outer loop
   vertex 0.014817999675869942 -0.12588700652122498 0.028232000768184662
   vertex 0.013226999901235104 -0.12716799974441528 0.026861000806093216
   vertex 0.017849000170826912 -0.13505899906158447 0.028387999162077904
  endloop
 endfacet
 facet normal -0.63689425635651942 -0.18570299547705377 0.74825136397531911
  outer loop
   vertex 0.020019000396132469 -0.1343419998884201 0.030412999913096428
   vertex 0.018592000007629395 -0.13317500054836273 0.029487999156117439
   vertex 0.017849000170826912 -0.13505899906158447 0.028387999162077904
  endloop
 endfacet
 facet normal -0.73200059366459391 -0.24836030818152613 0.63442279923932376
  outer loop
   vertex 0.017849000170826912 -0.13505899906158447 0.028387999162077904
   vertex 0.020950999110937119 -0.14051300287246704 0.029831999912858009
   vertex 0.020080000162124634 -0.13666099309921265 0.030334999784827232
  endloop
 endfacet
 facet normal -0.66276129941128914 -0.013025735396693305 0.74871743015642067
  outer loop
   vertex 0.02049499936401844 -0.13495700061321259 0.03073200024664402
   vertex 0.017849000170826912 -0.13505899906158447 0.028387999162077904
   vertex 0.020080000162124634 -0.13666099309921265 0.030334999784827232
  endloop
 endfacet
 facet normal -0.65562695132344218 -0.12082798167025591 0.74535488161265917
  outer loop
   vertex 0.02049499936401844 -0.13495700061321259 0.03073200024664402
   vertex 0.020019000396132469 -0.1343419998884201 0.030412999913096428
   vertex 0.017849000170826912 -0.13505899906158447 0.028387999162077904
  endloop
 endfacet
 facet normal -0.050308139031122294 0.90436713044346784 -0.42377964146555341
  outer loop
   vertex 0.022548999637365341 -0.13353599607944489 0.021098999306559563
   vertex 0.02047399990260601 -0.13390399515628815 0.020560000091791153
   vertex 0.020600000396370888 -0.13339699804782867 0.021626999601721764
  endloop
 endfacet
 facet normal -0.39831064703297642 0.84582387969448081 -0.354867007481321
  outer loop
   vertex 0.018857000395655632 -0.13444100320339203 0.021095000207424164
   vertex 0.020600000396370888 -0.13339699804782867 0.021626999601721764
   vertex 0.02047399990260601 -0.13390399515628815 0.020560000091791153
  endloop
 endfacet
 facet normal 0.57626613042846575 0.81569346236728391 0.050611484588724685
  outer loop
   vertex 0.022548999637365341 -0.13353599607944489 0.021098999306559563
   vertex 0.024846000596880913 -0.13545200228691101 0.025824999436736107
   vertex 0.024960000067949295 -0.1352120041847229 0.020658999681472778
  endloop
 endfacet
 facet normal 0.53867303873707673 0.83887048411372589 0.078279423992305072
  outer loop
   vertex 0.024846000596880913 -0.13545200228691101 0.025824999436736107
   vertex 0.022548999637365341 -0.13353599607944489 0.021098999306559563
   vertex 0.021263999864459038 -0.13292500376701355 0.02339399978518486
  endloop
 endfacet
 facet normal -0.00091760167341504962 0.96621225225750607 -0.25774607968822011
  outer loop
   vertex 0.021263999864459038 -0.13292500376701355 0.02339399978518486
   vertex 0.022548999637365341 -0.13353599607944489 0.021098999306559563
   vertex 0.020600000396370888 -0.13339699804782867 0.021626999601721764
  endloop
 endfacet
 facet normal 0.84356110181504895 0.53526998916697399 0.043482251571971157
  outer loop
   vertex 0.026345999911427498 -0.13762600719928741 0.023486999794840813
   vertex 0.024960000067949295 -0.1352120041847229 0.020658999681472778
   vertex 0.024846000596880913 -0.13545200228691101 0.025824999436736107
  endloop
 endfacet
 facet normal 0.25247691443457465 0.070247295959718403 -0.96504959721661143
  outer loop
   vertex 0.018857000395655632 -0.13444100320339203 0.021095000207424164
   vertex 0.016814999282360077 -0.13086600601673126 0.020820999518036842
   vertex 0.020600000396370888 -0.13339699804782867 0.021626999601721764
  endloop
 endfacet
 facet normal 0.77203904867882611 -0.63445238821148831 0.037760752214863622
  outer loop
   vertex 0.024671999737620354 -0.14169999957084656 0.023710999637842178
   vertex 0.024661000818014145 -0.14176599681377411 0.022826999425888062
   vertex 0.025438999757170677 -0.14084999263286591 0.022311000153422356
  endloop
 endfacet
 facet normal 0.82508273107775709 -0.55290635448616909 0.1163316381990908
  outer loop
   vertex 0.024671999737620354 -0.14169999957084656 0.023710999637842178
   vertex 0.025438999757170677 -0.14084999263286591 0.022311000153422356
   vertex 0.026071000844240189 -0.13953299820423126 0.024088000878691673
  endloop
 endfacet
 facet normal 0.96797651576217369 -0.063002659603996064 0.24300643986476031
  outer loop
   vertex 0.025728000327944756 -0.13745899498462677 0.025992000475525856
   vertex 0.026071000844240189 -0.13953299820423126 0.024088000878691673
   vertex 0.026345999911427498 -0.13762600719928741 0.023486999794840813
  endloop
 endfacet
 facet normal 0.89228485577286265 0.40817915268621691 0.19291841661895276
  outer loop
   vertex 0.025728000327944756 -0.13745899498462677 0.025992000475525856
   vertex 0.026345999911427498 -0.13762600719928741 0.023486999794840813
   vertex 0.024846000596880913 -0.13545200228691101 0.025824999436736107
  endloop
 endfacet
 facet normal 0.79798356703699802 -0.55574052730059109 0.23318381816620504
  outer loop
   vertex 0.026071000844240189 -0.13953299820423126 0.024088000878691673
   vertex 0.02498600073158741 -0.14021399617195129 0.026178000494837761
   vertex 0.024671999737620354 -0.14169999957084656 0.023710999637842178
  endloop
 endfacet
 facet normal 0.8937339921887153 -0.21409307619572784 0.39421276733696942
  outer loop
   vertex 0.026071000844240189 -0.13953299820423126 0.024088000878691673
   vertex 0.025728000327944756 -0.13745899498462677 0.025992000475525856
   vertex 0.02498600073158741 -0.14021399617195129 0.026178000494837761
  endloop
 endfacet
 facet normal -0.62248997464782518 -0.7565330903709806 0.20040936763705317
  outer loop
   vertex 0.022374000400304794 -0.14193500578403473 0.028883999213576317
   vertex 0.022421000525355339 -0.14162400364875793 0.030203999951481819
   vertex 0.020950999110937119 -0.14051300287246704 0.029831999912858009
  endloop
 endfacet
 facet normal -0.70457983379019495 -0.70959237092714511 0.0067767940926381377
  outer loop
   vertex 0.022374000400304794 -0.14193500578403473 0.028883999213576317
   vertex 0.020950999110937119 -0.14051300287246704 0.029831999912858009
   vertex 0.021984999999403954 -0.14157199859619141 0.026450000703334808
  endloop
 endfacet
 facet normal -0.61278146955260604 -0.23700137493523543 0.75387612964714334
  outer loop
   vertex 0.020950999110937119 -0.14051300287246704 0.029831999912858009
   vertex 0.022151000797748566 -0.14033299684524536 0.03086400032043457
   vertex 0.020080000162124634 -0.13666099309921265 0.030334999784827232
  endloop
 endfacet
 facet normal -0.5336056832145839 -0.47078123541190076 0.70258807506613818
  outer loop
   vertex 0.020950999110937119 -0.14051300287246704 0.029831999912858009
   vertex 0.022421000525355339 -0.14162400364875793 0.030203999951481819
   vertex 0.022151000797748566 -0.14033299684524536 0.03086400032043457
  endloop
 endfacet
 facet normal 0.21730256567381062 -0.97236012525679349 -0.085413006984721068
  outer loop
   vertex 0.024420000612735748 -0.14137400686740875 0.030391000211238861
   vertex 0.021984999999403954 -0.14157199859619141 0.026450000703334808
   vertex 0.02429099939763546 -0.14103899896144867 0.026249000802636147
  endloop
 endfacet
 facet normal 0.39132190038378889 -0.89900406401320432 -0.19661857279454109
  outer loop
   vertex 0.022374000400304794 -0.14193500578403473 0.028883999213576317
   vertex 0.021984999999403954 -0.14157199859619141 0.026450000703334808
   vertex 0.024420000612735748 -0.14137400686740875 0.030391000211238861
  endloop
 endfacet
 facet normal 0.23926235428679091 -0.93024848670627236 0.27819288057359082
  outer loop
   vertex 0.024671999737620354 -0.14169999957084656 0.023710999637842178
   vertex 0.02429099939763546 -0.14103899896144867 0.026249000802636147
   vertex 0.021984999999403954 -0.14157199859619141 0.026450000703334808
  endloop
 endfacet
 facet normal 0.74767269813012271 -0.6066010761850571 0.27022337212379166
  outer loop
   vertex 0.02498600073158741 -0.14021399617195129 0.026178000494837761
   vertex 0.02429099939763546 -0.14103899896144867 0.026249000802636147
   vertex 0.024671999737620354 -0.14169999957084656 0.023710999637842178
  endloop
 endfacet
 facet normal -0.52111972888943237 -0.3755055635992548 -0.76643969095305242
  outer loop
   vertex 0.0021039999555796385 -0.10993599891662598 0.020569000393152237
   vertex 0.0099609997123479843 -0.11732300370931625 0.018845999613404274
   vertex 0.016814999282360077 -0.13086600601673126 0.020820999518036842
  endloop
 endfacet
 facet normal -0.63443807065566582 -0.45346216544163664 -0.62598753902589643
  outer loop
   vertex 0.016814999282360077 -0.13086600601673126 0.020820999518036842
   vertex 0.012740000151097775 -0.12723399698734283 0.02232000045478344
   vertex 0.0021039999555796385 -0.10993599891662598 0.020569000393152237
  endloop
 endfacet
 facet normal 0.14087962349948044 -0.07268967225275888 -0.98735461878214315
  outer loop
   vertex 0.016814999282360077 -0.13086600601673126 0.020820999518036842
   vertex 0.0099609997123479843 -0.11732300370931625 0.018845999613404274
   vertex 0.013470999896526337 -0.12027300149202347 0.019564000889658928
  endloop
 endfacet
 facet normal 0.42761680089876619 0.027774005375193648 -0.90353332877903492
  outer loop
   vertex 0.016814999282360077 -0.13086600601673126 0.020820999518036842
   vertex 0.013470999896526337 -0.12027300149202347 0.019564000889658928
   vertex 0.016795000061392784 -0.12535299360752106 0.020981000736355782
  endloop
 endfacet
 facet normal 0.22674991082090576 0.029076486443137515 -0.97351889343701659
  outer loop
   vertex 0.016814999282360077 -0.13086600601673126 0.020820999518036842
   vertex 0.016795000061392784 -0.12535299360752106 0.020981000736355782
   vertex 0.020600000396370888 -0.13339699804782867 0.021626999601721764
  endloop
 endfacet
 facet normal -0.84253415842091672 -0.52855237019044421 -0.10377178739918207
  outer loop
   vertex 0.013779000379145145 -0.12947900593280792 0.025319000706076622
   vertex 0.0021039999555796385 -0.10993599891662598 0.020569000393152237
   vertex 0.012740000151097775 -0.12723399698734283 0.02232000045478344
  endloop
 endfacet
 facet normal -0.83422875194800561 -0.53285309164513339 -0.14188013302607191
  outer loop
   vertex 0.0070319999940693378 -0.11881399899721146 0.024935999885201454
   vertex 0.0021039999555796385 -0.10993599891662598 0.020569000393152237
   vertex 0.013779000379145145 -0.12947900593280792 0.025319000706076622
  endloop
 endfacet
 facet normal -0.76950643475363889 -0.47133709963058307 0.43093060390806942
  outer loop
   vertex 0.013226999901235104 -0.12716799974441528 0.026861000806093216
   vertex 0.0070319999940693378 -0.11881399899721146 0.024935999885201454
   vertex 0.013779000379145145 -0.12947900593280792 0.025319000706076622
  endloop
 endfacet
 facet normal -0.024872158628208352 0.15725991542748008 0.98724398946000935
  outer loop
   vertex 0.018592000007629395 -0.13317500054836273 0.029487999156117439
   vertex 0.018774000927805901 -0.12959299981594086 0.028922000899910927
   vertex 0.014817999675869942 -0.12588700652122498 0.028232000768184662
  endloop
 endfacet
 facet normal 0.1268938480839554 0.14852009703455699 0.98073428210463398
  outer loop
   vertex 0.018592000007629395 -0.13317500054836273 0.029487999156117439
   vertex 0.020114999264478683 -0.13244900107383728 0.029180999845266342
   vertex 0.018774000927805901 -0.12959299981594086 0.028922000899910927
  endloop
 endfacet
 facet normal -0.14009608138645488 0.6202548241788377 0.77178820997929154
  outer loop
   vertex 0.018592000007629395 -0.13317500054836273 0.029487999156117439
   vertex 0.019790999591350555 -0.13310700654983521 0.02965099923312664
   vertex 0.020114999264478683 -0.13244900107383728 0.029180999845266342
  endloop
 endfacet
 facet normal -0.14443555538647299 0.50014348480489379 0.85381196111756252
  outer loop
   vertex 0.018592000007629395 -0.13317500054836273 0.029487999156117439
   vertex 0.020019000396132469 -0.1343419998884201 0.030412999913096428
   vertex 0.019790999591350555 -0.13310700654983521 0.02965099923312664
  endloop
 endfacet
 facet normal -0.40573442953066691 -0.13991472825463364 0.90321837974592623
  outer loop
   vertex 0.0073299999348819256 -0.11864600330591202 0.025989999994635582
   vertex 0.014817999675869942 -0.12588700652122498 0.028232000768184662
   vertex 0.0084140002727508545 -0.1143139973282814 0.02714800089597702
  endloop
 endfacet
 facet normal -0.50032806511189931 -0.26186456134935754 0.82528708869743705
  outer loop
   vertex 0.0073299999348819256 -0.11864600330591202 0.025989999994635582
   vertex 0.013226999901235104 -0.12716799974441528 0.026861000806093216
   vertex 0.014817999675869942 -0.12588700652122498 0.028232000768184662
  endloop
 endfacet
 facet normal -0.18440343882620985 -0.013869613487517737 0.98275276930201272
  outer loop
   vertex 0.014817999675869942 -0.12588700652122498 0.028232000768184662
   vertex 0.018774000927805901 -0.12959299981594086 0.028922000899910927
   vertex 0.0094900000840425491 -0.11116699874401093 0.02744000032544136
  endloop
 endfacet
 facet normal -0.20384418604439442 -0.021120308834569147 0.97877550049571171
  outer loop
   vertex 0.0094900000840425491 -0.11116699874401093 0.02744000032544136
   vertex 0.0084140002727508545 -0.1143139973282814 0.02714800089597702
   vertex 0.014817999675869942 -0.12588700652122498 0.028232000768184662
  endloop
 endfacet
 facet normal -0.7967570610928052 -0.51984277904298659 0.30812606296063388
  outer loop
   vertex 0.0070319999940693378 -0.11881399899721146 0.024935999885201454
   vertex 0.013226999901235104 -0.12716799974441528 0.026861000806093216
   vertex 0.0073299999348819256 -0.11864600330591202 0.025989999994635582
  endloop
 endfacet
 facet normal -0.39973325434493023 0.42674181760865482 0.81123655395628769
  outer loop
   vertex 0.020019000396132469 -0.1343419998884201 0.030412999913096428
   vertex 0.020576000213623047 -0.13332599401473999 0.030153000727295876
   vertex 0.019790999591350555 -0.13310700654983521 0.02965099923312664
  endloop
 endfacet
 facet normal -0.18354337156894934 0.33694012843530408 0.92346260379243472
  outer loop
   vertex 0.020019000396132469 -0.1343419998884201 0.030412999913096428
   vertex 0.02049499936401844 -0.13495700061321259 0.03073200024664402
   vertex 0.020576000213623047 -0.13332599401473999 0.030153000727295876
  endloop
 endfacet
 facet normal -0.22928071376657722 0.010902857810654011 0.9732992766802252
  outer loop
   vertex 0.020080000162124634 -0.13666099309921265 0.030334999784827232
   vertex 0.022151000797748566 -0.14033299684524536 0.03086400032043457
   vertex 0.025041000917553902 -0.13910099864006042 0.031530998647212982
  endloop
 endfacet
 facet normal -0.24872318320894987 -0.10282137488156179 0.9631015226869245
  outer loop
   vertex 0.022051999345421791 -0.13445299863815308 0.031080000102519989
   vertex 0.020080000162124634 -0.13666099309921265 0.030334999784827232
   vertex 0.024458000436425209 -0.13623599708080292 0.031511001288890839
  endloop
 endfacet
 facet normal -0.25423302152562222 -0.053195027931255176 0.96567896309764645
  outer loop
   vertex 0.024458000436425209 -0.13623599708080292 0.031511001288890839
   vertex 0.020080000162124634 -0.13666099309921265 0.030334999784827232
   vertex 0.025043999776244164 -0.13718500733375549 0.031612999737262726
  endloop
 endfacet
 facet normal -0.25316795738507292 -0.040970592447504298 0.96655439366233842
  outer loop
   vertex 0.020080000162124634 -0.13666099309921265 0.030334999784827232
   vertex 0.025041000917553902 -0.13910099864006042 0.031530998647212982
   vertex 0.025043999776244164 -0.13718500733375549 0.031612999737262726
  endloop
 endfacet
 facet normal -0.1558968901169954 -0.18796105988797859 0.96972511549285823
  outer loop
   vertex 0.020080000162124634 -0.13666099309921265 0.030334999784827232
   vertex 0.022051999345421791 -0.13445299863815308 0.031080000102519989
   vertex 0.02049499936401844 -0.13495700061321259 0.03073200024664402
  endloop
 endfacet
 facet normal -0.30681035560417547 0.33190175664427712 0.89202501625822272
  outer loop
   vertex 0.022051999345421791 -0.13445299863815308 0.031080000102519989
   vertex 0.020576000213623047 -0.13332599401473999 0.030153000727295876
   vertex 0.02049499936401844 -0.13495700061321259 0.03073200024664402
  endloop
 endfacet
 facet normal 0.8363541150835907 0.36259707165509525 -0.41113885465848843
  outer loop
   vertex 0.021263999864459038 -0.13292500376701355 0.02339399978518486
   vertex 0.020600000396370888 -0.13339699804782867 0.021626999601721764
   vertex 0.016795000061392784 -0.12535299360752106 0.020981000736355782
  endloop
 endfacet
 facet normal 0.89208895409457201 0.3705193870781609 -0.25863619580730857
  outer loop
   vertex 0.024846000596880913 -0.13545200228691101 0.025824999436736107
   vertex 0.026295000687241554 -0.13716700673103333 0.028365999460220337
   vertex 0.025728000327944756 -0.13745899498462677 0.025992000475525856
  endloop
 endfacet
 facet normal 0.67241896301929338 0.73717500053842255 -0.066526361340711812
  outer loop
   vertex 0.025559000670909882 -0.13586899638175964 0.028410999104380608
   vertex 0.024846000596880913 -0.13545200228691101 0.025824999436736107
   vertex 0.022634999826550484 -0.13323099911212921 0.028087999671697617
  endloop
 endfacet
 facet normal 0.85675541532616695 0.49124206653722646 -0.15700761246997594
  outer loop
   vertex 0.026295000687241554 -0.13716700673103333 0.028365999460220337
   vertex 0.024846000596880913 -0.13545200228691101 0.025824999436736107
   vertex 0.025559000670909882 -0.13586899638175964 0.028410999104380608
  endloop
 endfacet
 facet normal 0.63048253898413531 0.76449466948375211 -0.13431183256529255
  outer loop
   vertex 0.024846000596880913 -0.13545200228691101 0.025824999436736107
   vertex 0.021263999864459038 -0.13292500376701355 0.02339399978518486
   vertex 0.022634999826550484 -0.13323099911212921 0.028087999671697617
  endloop
 endfacet
 facet normal 0.83814386534010377 0.54313874858086608 0.050151378672582472
  outer loop
   vertex 0.021263999864459038 -0.13292500376701355 0.02339399978518486
   vertex 0.018774000927805901 -0.12959299981594086 0.028922000899910927
   vertex 0.020632000640034676 -0.13242000341415405 0.028487000614404678
  endloop
 endfacet
 facet normal 0.84966763339574591 0.52298161631957074 0.067491790252160733
  outer loop
   vertex 0.021263999864459038 -0.13292500376701355 0.02339399978518486
   vertex 0.016795000061392784 -0.12535299360752106 0.020981000736355782
   vertex 0.018774000927805901 -0.12959299981594086 0.028922000899910927
  endloop
 endfacet
 facet normal 0.36689914463990841 0.92909302614055977 -0.046595777056303724
  outer loop
   vertex 0.021263999864459038 -0.13292500376701355 0.02339399978518486
   vertex 0.020632000640034676 -0.13242000341415405 0.028487000614404678
   vertex 0.022634999826550484 -0.13323099911212921 0.028087999671697617
  endloop
 endfacet
 facet normal 0.89578138456300738 -0.26533543797331988 -0.35661297848772694
  outer loop
   vertex 0.02498600073158741 -0.14021399617195129 0.026178000494837761
   vertex 0.025728000327944756 -0.13745899498462677 0.025992000475525856
   vertex 0.026096999645233154 -0.13949799537658691 0.028435999527573586
  endloop
 endfacet
 facet normal 0.97119343998884944 -0.089132550108934852 -0.22099477512761093
  outer loop
   vertex 0.025728000327944756 -0.13745899498462677 0.025992000475525856
   vertex 0.026295000687241554 -0.13716700673103333 0.028365999460220337
   vertex 0.026096999645233154 -0.13949799537658691 0.028435999527573586
  endloop
 endfacet
 facet normal 0.75935544637931418 -0.6462320215146069 -0.075917589682609768
  outer loop
   vertex 0.02498600073158741 -0.14021399617195129 0.026178000494837761
   vertex 0.024420000612735748 -0.14137400686740875 0.030391000211238861
   vertex 0.02429099939763546 -0.14103899896144867 0.026249000802636147
  endloop
 endfacet
 facet normal 0.68319827032598246 -0.72233577272259053 -0.1071034773891302
  outer loop
   vertex 0.02498600073158741 -0.14021399617195129 0.026178000494837761
   vertex 0.026096999645233154 -0.13949799537658691 0.028435999527573586
   vertex 0.024420000612735748 -0.14137400686740875 0.030391000211238861
  endloop
 endfacet
 facet normal 0.10018559023889519 -0.96924232857473036 0.22479358533445404
  outer loop
   vertex 0.022374000400304794 -0.14193500578403473 0.028883999213576317
   vertex 0.024420000612735748 -0.14137400686740875 0.030391000211238861
   vertex 0.022421000525355339 -0.14162400364875793 0.030203999951481819
  endloop
 endfacet
 facet normal -0.028615350889663615 -0.4418714324040946 0.89662188179779279
  outer loop
   vertex 0.024420000612735748 -0.14137400686740875 0.030391000211238861
   vertex 0.025041000917553902 -0.13910099864006042 0.031530998647212982
   vertex 0.022421000525355339 -0.14162400364875793 0.030203999951481819
  endloop
 endfacet
 facet normal -0.01050188114567098 -0.45690971195152069 0.88945108107010618
  outer loop
   vertex 0.022421000525355339 -0.14162400364875793 0.030203999951481819
   vertex 0.025041000917553902 -0.13910099864006042 0.031530998647212982
   vertex 0.022151000797748566 -0.14033299684524536 0.03086400032043457
  endloop
 endfacet
 facet normal 0.41509453346323572 -0.49593881497848308 0.76271962088743772
  outer loop
   vertex 0.025041000917553902 -0.13910099864006042 0.031530998647212982
   vertex 0.024420000612735748 -0.14137400686740875 0.030391000211238861
   vertex 0.025660000741481781 -0.13962100446224213 0.030856000259518623
  endloop
 endfacet
 facet normal 0.79664179578673555 -0.59366551110453514 0.11367985806938743
  outer loop
   vertex 0.024420000612735748 -0.14137400686740875 0.030391000211238861
   vertex 0.026096999645233154 -0.13949799537658691 0.028435999527573586
   vertex 0.025660000741481781 -0.13962100446224213 0.030856000259518623
  endloop
 endfacet
 facet normal -0.54343537051012636 -0.40672912684241452 -0.73433603714956597
  outer loop
   vertex 0.0021039999555796385 -0.10993599891662598 0.020569000393152237
   vertex 0.0072940001264214516 -0.11124999821186066 0.017456000670790672
   vertex 0.0099609997123479843 -0.11732300370931625 0.018845999613404274
  endloop
 endfacet
 facet normal -0.8776499695015102 -0.47901564611766978 0.016569303198062334
  outer loop
   vertex 0.0021039999555796385 -0.10993599891662598 0.020569000393152237
   vertex 0.0070319999940693378 -0.11881399899721146 0.024935999885201454
   vertex 0.0055329999886453152 -0.11608199775218964 0.024517999961972237
  endloop
 endfacet
 facet normal -0.87403459705789799 -0.48585570865273242 0.0027845134922902079
  outer loop
   vertex 0.0021039999555796385 -0.10993599891662598 0.020569000393152237
   vertex 0.0055329999886453152 -0.11608199775218964 0.024517999961972237
   vertex 0.0026859999634325504 -0.11095699667930603 0.025104999542236328
  endloop
 endfacet
 facet normal -0.8763777259955382 -0.46502876031578028 0.12534086906535333
  outer loop
   vertex 0.0021039999555796385 -0.10993599891662598 0.020569000393152237
   vertex 0.00055699999211356044 -0.10548099875450134 0.026280999183654785
   vertex -3.4000000596279278e-05 -0.10585100203752518 0.020775999873876572
  endloop
 endfacet
 facet normal -0.9287817046043072 -0.36886070898318668 0.03614308454930807
  outer loop
   vertex 0.0021039999555796385 -0.10993599891662598 0.020569000393152237
   vertex 0.0026859999634325504 -0.11095699667930603 0.025104999542236328
   vertex 0.00055699999211356044 -0.10548099875450134 0.026280999183654785
  endloop
 endfacet
 facet normal -0.50474170293131759 -0.65132092491421223 -0.56658350319338524
  outer loop
   vertex 0.0021039999555796385 -0.10993599891662598 0.020569000393152237
   vertex 0.0013559999642893672 -0.10734599828720093 0.018257999792695045
   vertex 0.0072940001264214516 -0.11124999821186066 0.017456000670790672
  endloop
 endfacet
 facet normal -0.869475118803265 -0.44410422390483861 -0.21629714767404901
  outer loop
   vertex 0.0021039999555796385 -0.10993599891662598 0.020569000393152237
   vertex -3.4000000596279278e-05 -0.10585100203752518 0.020775999873876572
   vertex 0.0013559999642893672 -0.10734599828720093 0.018257999792695045
  endloop
 endfacet
 facet normal 0.086373091188938822 -0.18608203175978738 -0.97873038502675325
  outer loop
   vertex 0.0093299997970461845 -0.11087299883365631 0.017564000561833382
   vertex 0.0099609997123479843 -0.11732300370931625 0.018845999613404274
   vertex 0.0072940001264214516 -0.11124999821186066 0.017456000670790672
  endloop
 endfacet
 facet normal 0.040084830734941332 -0.19101542329499541 -0.98076822665112107
  outer loop
   vertex 0.0099609997123479843 -0.11732300370931625 0.018845999613404274
   vertex 0.0093299997970461845 -0.11087299883365631 0.017564000561833382
   vertex 0.013470999896526337 -0.12027300149202347 0.019564000889658928
  endloop
 endfacet
 facet normal 0.65581644778154013 0.22841626346523419 -0.71953512589989865
  outer loop
   vertex 0.016795000061392784 -0.12535299360752106 0.020981000736355782
   vertex 0.013470999896526337 -0.12027300149202347 0.019564000889658928
   vertex 0.014386000111699104 -0.11962399631738663 0.020603999495506287
  endloop
 endfacet
 facet normal 0.69529632056831714 0.14708062890263821 -0.70351283940363474
  outer loop
   vertex 0.013470999896526337 -0.12027300149202347 0.019564000889658928
   vertex 0.010823000222444534 -0.11073499917984009 0.0189410001039505
   vertex 0.014386000111699104 -0.11962399631738663 0.020603999495506287
  endloop
 endfacet
 facet normal 0.6647682410834973 0.13658398972228611 -0.73445762260207748
  outer loop
   vertex 0.010823000222444534 -0.11073499917984009 0.0189410001039505
   vertex 0.013470999896526337 -0.12027300149202347 0.019564000889658928
   vertex 0.0093299997970461845 -0.11087299883365631 0.017564000561833382
  endloop
 endfacet
 facet normal 0.92211719301146489 0.38619015573819521 -0.023601821191709303
  outer loop
   vertex 0.016795000061392784 -0.12535299360752106 0.020981000736355782
   vertex 0.014386000111699104 -0.11962399631738663 0.020603999495506287
   vertex 0.018774000927805901 -0.12959299981594086 0.028922000899910927
  endloop
 endfacet
 facet normal -0.78132604786558779 -0.3495942388220008 0.51702366977654624
  outer loop
   vertex 0.0059839999303221703 -0.11571899801492691 0.02544499933719635
   vertex 0.0055329999886453152 -0.11608199775218964 0.024517999961972237
   vertex 0.0070319999940693378 -0.11881399899721146 0.024935999885201454
  endloop
 endfacet
 facet normal -0.88528343918729324 -0.35010733929380139 0.30610142644772687
  outer loop
   vertex 0.0073299999348819256 -0.11864600330591202 0.025989999994635582
   vertex 0.0059839999303221703 -0.11571899801492691 0.02544499933719635
   vertex 0.0070319999940693378 -0.11881399899721146 0.024935999885201454
  endloop
 endfacet
 facet normal 0.8210445814302898 0.44267680617958022 0.36044838822584091
  outer loop
   vertex 0.0094900000840425491 -0.11116699874401093 0.02744000032544136
   vertex 0.018774000927805901 -0.12959299981594086 0.028922000899910927
   vertex 0.011003999970853329 -0.1123490035533905 0.025443000718951225
  endloop
 endfacet
 facet normal 0.72938226776090709 0.39323712093804625 0.55979109870764532
  outer loop
   vertex 0.020632000640034676 -0.13242000341415405 0.028487000614404678
   vertex 0.018774000927805901 -0.12959299981594086 0.028922000899910927
   vertex 0.020114999264478683 -0.13244900107383728 0.029180999845266342
  endloop
 endfacet
 facet normal 0.91047940247092218 0.41328205400667573 0.01500671557055693
  outer loop
   vertex 0.011003999970853329 -0.1123490035533905 0.025443000718951225
   vertex 0.018774000927805901 -0.12959299981594086 0.028922000899910927
   vertex 0.014386000111699104 -0.11962399631738663 0.020603999495506287
  endloop
 endfacet
 facet normal 0.41037097690936392 0.84574347750388501 0.3410478435206562
  outer loop
   vertex 0.020114999264478683 -0.13244900107383728 0.029180999845266342
   vertex 0.022634999826550484 -0.13323099911212921 0.028087999671697617
   vertex 0.020632000640034676 -0.13242000341415405 0.028487000614404678
  endloop
 endfacet
 facet normal 0.26951478322466083 0.96073339377791267 -0.065978236588576433
  outer loop
   vertex 0.022634999826550484 -0.13323099911212921 0.028087999671697617
   vertex 0.020114999264478683 -0.13244900107383728 0.029180999845266342
   vertex 0.020955000072717667 -0.1326490044593811 0.029699999839067459
  endloop
 endfacet
 facet normal -0.28399635619721753 0.64596036137310298 0.70857694091850976
  outer loop
   vertex 0.019790999591350555 -0.13310700654983521 0.02965099923312664
   vertex 0.020955000072717667 -0.1326490044593811 0.029699999839067459
   vertex 0.020114999264478683 -0.13244900107383728 0.029180999845266342
  endloop
 endfacet
 facet normal -0.28100229889727407 0.63739990158640947 0.71746712361757914
  outer loop
   vertex 0.019790999591350555 -0.13310700654983521 0.02965099923312664
   vertex 0.020576000213623047 -0.13332599401473999 0.030153000727295876
   vertex 0.020955000072717667 -0.1326490044593811 0.029699999839067459
  endloop
 endfacet
 facet normal -0.53606231302917196 -0.090227909245569254 0.83934267194214984
  outer loop
   vertex 0.0084140002727508545 -0.1143139973282814 0.02714800089597702
   vertex 0.0059839999303221703 -0.11571899801492691 0.02544499933719635
   vertex 0.0073299999348819256 -0.11864600330591202 0.025989999994635582
  endloop
 endfacet
 facet normal 0.061727319526090951 -0.11311838207816237 0.99166222558900707
  outer loop
   vertex 0.0094900000840425491 -0.11116699874401093 0.02744000032544136
   vertex 0.0026599999982863665 -0.10257700085639954 0.028844999149441719
   vertex 0.0084140002727508545 -0.1143139973282814 0.02714800089597702
  endloop
 endfacet
 facet normal -0.40998124687535231 -0.32425186375269943 0.85251164570546034
  outer loop
   vertex 0.0059839999303221703 -0.11571899801492691 0.02544499933719635
   vertex 0.0084140002727508545 -0.1143139973282814 0.02714800089597702
   vertex 0.0026599999982863665 -0.10257700085639954 0.028844999149441719
  endloop
 endfacet
 facet normal 0.72948478181142251 0.3061235086960673 0.61167013212118682
  outer loop
   vertex 0.0094900000840425491 -0.11116699874401093 0.02744000032544136
   vertex 0.0085100000724196434 -0.10743899643421173 0.026743000373244286
   vertex 0.0082759996876120567 -0.1083419993519783 0.027473999187350273
  endloop
 endfacet
 facet normal 0.82303351392935753 0.30583980805887756 0.47862077551606841
  outer loop
   vertex 0.0094900000840425491 -0.11116699874401093 0.02744000032544136
   vertex 0.010002999566495419 -0.11077599972486496 0.026308000087738037
   vertex 0.0085100000724196434 -0.10743899643421173 0.026743000373244286
  endloop
 endfacet
 facet normal 0.3786441040340916 0.15172832327489186 0.91302089702065969
  outer loop
   vertex 0.0026599999982863665 -0.10257700085639954 0.028844999149441719
   vertex 0.0094900000840425491 -0.11116699874401093 0.02744000032544136
   vertex 0.0082759996876120567 -0.1083419993519783 0.027473999187350273
  endloop
 endfacet
 facet normal 0.83749711875701072 0.27248724453915679 0.47365523077145805
  outer loop
   vertex 0.011003999970853329 -0.1123490035533905 0.025443000718951225
   vertex 0.010002999566495419 -0.11077599972486496 0.026308000087738037
   vertex 0.0094900000840425491 -0.11116699874401093 0.02744000032544136
  endloop
 endfacet
 facet normal -0.066594378883227195 0.58037187462471795 0.81162409762509391
  outer loop
   vertex 0.022051999345421791 -0.13445299863815308 0.031080000102519989
   vertex 0.020955000072717667 -0.1326490044593811 0.029699999839067459
   vertex 0.020576000213623047 -0.13332599401473999 0.030153000727295876
  endloop
 endfacet
 facet normal 0.60712935958991066 -0.034925022551593195 0.79383511104241022
  outer loop
   vertex 0.025041000917553902 -0.13910099864006042 0.031530998647212982
   vertex 0.025929000228643417 -0.13730199635028839 0.030930999666452408
   vertex 0.025043999776244164 -0.13718500733375549 0.031612999737262726
  endloop
 endfacet
 facet normal 0.69211558447705457 -0.10338648976737212 0.71434393079074043
  outer loop
   vertex 0.025929000228643417 -0.13730199635028839 0.030930999666452408
   vertex 0.025041000917553902 -0.13910099864006042 0.031530998647212982
   vertex 0.025660000741481781 -0.13962100446224213 0.030856000259518623
  endloop
 endfacet
 facet normal 0.20614866084018219 0.48378450753900842 0.85056174373118776
  outer loop
   vertex 0.024458000436425209 -0.13623599708080292 0.031511001288890839
   vertex 0.023118000477552414 -0.13377499580383301 0.030435999855399132
   vertex 0.022051999345421791 -0.13445299863815308 0.031080000102519989
  endloop
 endfacet
 facet normal 0.065538107623319783 0.63111202502106201 0.77291808642505488
  outer loop
   vertex 0.022051999345421791 -0.13445299863815308 0.031080000102519989
   vertex 0.023118000477552414 -0.13377499580383301 0.030435999855399132
   vertex 0.020955000072717667 -0.1326490044593811 0.029699999839067459
  endloop
 endfacet
 facet normal 0.25829848561425933 0.5013573929846119 0.82578608418224986
  outer loop
   vertex 0.02434300072491169 -0.13475200533866882 0.030646000057458878
   vertex 0.023118000477552414 -0.13377499580383301 0.030435999855399132
   vertex 0.024458000436425209 -0.13623599708080292 0.031511001288890839
  endloop
 endfacet
 facet normal 0.58724078574030858 0.44109280553589914 0.67866442110042469
  outer loop
   vertex 0.024458000436425209 -0.13623599708080292 0.031511001288890839
   vertex 0.025929000228643417 -0.13730199635028839 0.030930999666452408
   vertex 0.02434300072491169 -0.13475200533866882 0.030646000057458878
  endloop
 endfacet
 facet normal 0.58503604092563966 0.43482915632045321 0.6845848637179297
  outer loop
   vertex 0.025043999776244164 -0.13718500733375549 0.031612999737262726
   vertex 0.025929000228643417 -0.13730199635028839 0.030930999666452408
   vertex 0.024458000436425209 -0.13623599708080292 0.031511001288890839
  endloop
 endfacet
 facet normal 0.98385449116318791 -0.1184634375413149 0.13415198166229006
  outer loop
   vertex 0.025929000228643417 -0.13730199635028839 0.030930999666452408
   vertex 0.025660000741481781 -0.13962100446224213 0.030856000259518623
   vertex 0.026295000687241554 -0.13716700673103333 0.028365999460220337
  endloop
 endfacet
 facet normal 0.98175874995216517 -0.078188955044484337 0.17330967717185869
  outer loop
   vertex 0.026295000687241554 -0.13716700673103333 0.028365999460220337
   vertex 0.025660000741481781 -0.13962100446224213 0.030856000259518623
   vertex 0.026096999645233154 -0.13949799537658691 0.028435999527573586
  endloop
 endfacet
 facet normal 0.86244169333157183 0.48387398026146794 0.14852709123017085
  outer loop
   vertex 0.026295000687241554 -0.13716700673103333 0.028365999460220337
   vertex 0.025559000670909882 -0.13586899638175964 0.028410999104380608
   vertex 0.025929000228643417 -0.13730199635028839 0.030930999666452408
  endloop
 endfacet
 facet normal 0.66730919300245162 0.74395359247275483 0.035092637137992135
  outer loop
   vertex 0.025559000670909882 -0.13586899638175964 0.028410999104380608
   vertex 0.022634999826550484 -0.13323099911212921 0.028087999671697617
   vertex 0.023118000477552414 -0.13377499580383301 0.030435999855399132
  endloop
 endfacet
 facet normal 0.62773844569368709 0.77701642265326376 -0.046796610189182172
  outer loop
   vertex 0.025559000670909882 -0.13586899638175964 0.028410999104380608
   vertex 0.023118000477552414 -0.13377499580383301 0.030435999855399132
   vertex 0.02434300072491169 -0.13475200533866882 0.030646000057458878
  endloop
 endfacet
 facet normal 0.82564273102752372 0.53390262074105121 0.18237892495365046
  outer loop
   vertex 0.025559000670909882 -0.13586899638175964 0.028410999104380608
   vertex 0.02434300072491169 -0.13475200533866882 0.030646000057458878
   vertex 0.025929000228643417 -0.13730199635028839 0.030930999666452408
  endloop
 endfacet
 facet normal 0.42593481702910102 0.89674133028076797 0.12014373978141751
  outer loop
   vertex 0.022634999826550484 -0.13323099911212921 0.028087999671697617
   vertex 0.020955000072717667 -0.1326490044593811 0.029699999839067459
   vertex 0.023118000477552414 -0.13377499580383301 0.030435999855399132
  endloop
 endfacet
 facet normal 0.1220575154464516 -0.39880881880597452 -0.90887484780118266
  outer loop
   vertex 0.0081700002774596214 -0.10727400332689285 0.015829000622034073
   vertex 0.0093299997970461845 -0.11087299883365631 0.017564000561833382
   vertex 0.0072940001264214516 -0.11124999821186066 0.017456000670790672
  endloop
 endfacet
 facet normal -0.43892463732713316 -0.51657767287536549 -0.73518206631685223
  outer loop
   vertex 0.0044010002166032791 -0.10401000082492828 0.014096000231802464
   vertex 0.0072940001264214516 -0.11124999821186066 0.017456000670790672
   vertex 0.0013559999642893672 -0.10734599828720093 0.018257999792695045
  endloop
 endfacet
 facet normal 0.081103270197537006 -0.39273020800583502 -0.91607054492705908
  outer loop
   vertex 0.0072940001264214516 -0.11124999821186066 0.017456000670790672
   vertex 0.0044010002166032791 -0.10401000082492828 0.014096000231802464
   vertex 0.0081700002774596214 -0.10727400332689285 0.015829000622034073
  endloop
 endfacet
 facet normal -0.71559286624168883 -0.45793481859289159 0.5274680575203583
  outer loop
   vertex 0.0059839999303221703 -0.11571899801492691 0.02544499933719635
   vertex 0.0026859999634325504 -0.11095699667930603 0.025104999542236328
   vertex 0.0055329999886453152 -0.11608199775218964 0.024517999961972237
  endloop
 endfacet
 facet normal -0.32309558615955203 -0.38653078246943862 0.86383053685765188
  outer loop
   vertex 0.0010160000529140234 -0.10364100337028503 0.027753999456763268
   vertex 0.0026859999634325504 -0.11095699667930603 0.025104999542236328
   vertex 0.0026599999982863665 -0.10257700085639954 0.028844999149441719
  endloop
 endfacet
 facet normal -0.56517681490696436 -0.33768106241089879 0.75269294402210629
  outer loop
   vertex 0.0026859999634325504 -0.11095699667930603 0.025104999542236328
   vertex 0.0059839999303221703 -0.11571899801492691 0.02544499933719635
   vertex 0.0026599999982863665 -0.10257700085639954 0.028844999149441719
  endloop
 endfacet
 facet normal -0.62318251371914923 -0.38810130347179006 0.67898522284227947
  outer loop
   vertex 0.0026859999634325504 -0.11095699667930603 0.025104999542236328
   vertex 0.0010160000529140234 -0.10364100337028503 0.027753999456763268
   vertex 0.00055699999211356044 -0.10548099875450134 0.026280999183654785
  endloop
 endfacet
 facet normal -0.96495324296201002 -0.23373432411313097 0.11930425234868187
  outer loop
   vertex -0.00040099999750964344 -0.10355900228023529 0.022298000752925873
   vertex -3.4000000596279278e-05 -0.10585100203752518 0.020775999873876572
   vertex 0.00055699999211356044 -0.10548099875450134 0.026280999183654785
  endloop
 endfacet
 facet normal -0.962868398498408 -0.24501963445345684 0.11335707258660842
  outer loop
   vertex -0.00020700000459328294 -0.10287699848413467 0.025420000776648521
   vertex -0.00040099999750964344 -0.10355900228023529 0.022298000752925873
   vertex 0.00055699999211356044 -0.10548099875450134 0.026280999183654785
  endloop
 endfacet
 facet normal -0.89498287015055378 -0.12057232747834835 0.42949735270840805
  outer loop
   vertex 0.0010160000529140234 -0.10364100337028503 0.027753999456763268
   vertex -0.00020700000459328294 -0.10287699848413467 0.025420000776648521
   vertex 0.00055699999211356044 -0.10548099875450134 0.026280999183654785
  endloop
 endfacet
 facet normal -0.97302152789972218 -0.002606404787061881 -0.23069961616304438
  outer loop
   vertex -0.00040099999750964344 -0.10355900228023529 0.022298000752925873
   vertex 0.00088700000196695328 -0.10306300222873688 0.016860000789165497
   vertex -3.4000000596279278e-05 -0.10585100203752518 0.020775999873876572
  endloop
 endfacet
 facet normal -0.90339395828871016 -0.21921849432979221 -0.36854118883950437
  outer loop
   vertex 0.0013559999642893672 -0.10734599828720093 0.018257999792695045
   vertex -3.4000000596279278e-05 -0.10585100203752518 0.020775999873876572
   vertex 0.00088700000196695328 -0.10306300222873688 0.016860000789165497
  endloop
 endfacet
 facet normal -0.64271300604174575 -0.30041380789494354 -0.70474927164974277
  outer loop
   vertex 0.00088700000196695328 -0.10306300222873688 0.016860000789165497
   vertex 0.0016120000509545207 -0.10224000364542007 0.015847999602556229
   vertex 0.0013559999642893672 -0.10734599828720093 0.018257999792695045
  endloop
 endfacet
 facet normal -0.63726027584378742 -0.30258128779043392 -0.70876223454031639
  outer loop
   vertex 0.0013559999642893672 -0.10734599828720093 0.018257999792695045
   vertex 0.0016120000509545207 -0.10224000364542007 0.015847999602556229
   vertex 0.0044010002166032791 -0.10401000082492828 0.014096000231802464
  endloop
 endfacet
 facet normal 0.67869668250218762 -0.12972840878510142 -0.72287021872159751
  outer loop
   vertex 0.0093299997970461845 -0.11087299883365631 0.017564000561833382
   vertex 0.0081700002774596214 -0.10727400332689285 0.015829000622034073
   vertex 0.010823000222444534 -0.11073499917984009 0.0189410001039505
  endloop
 endfacet
 facet normal 0.92144041491094819 0.38229865522555589 0.069248104533417135
  outer loop
   vertex 0.011003999970853329 -0.1123490035533905 0.025443000718951225
   vertex 0.014386000111699104 -0.11962399631738663 0.020603999495506287
   vertex 0.010823000222444534 -0.11073499917984009 0.0189410001039505
  endloop
 endfacet
 facet normal 0.91207893846800603 0.049131138124613671 -0.4070603656334712
  outer loop
   vertex 0.010823000222444534 -0.11073499917984009 0.0189410001039505
   vertex 0.0088039999827742577 -0.10329599678516388 0.015314999967813492
   vertex 0.0097470004111528397 -0.10543300211429596 0.017170000821352005
  endloop
 endfacet
 facet normal 0.9622303525290038 0.238887241246314 0.13055893168080981
  outer loop
   vertex 0.010823000222444534 -0.11073499917984009 0.0189410001039505
   vertex 0.0097470004111528397 -0.10543300211429596 0.017170000821352005
   vertex 0.0097249997779726982 -0.10990899801254272 0.025521999225020409
  endloop
 endfacet
 facet normal 0.88332265300119572 0.46011760067653373 0.089626359083692375
  outer loop
   vertex 0.011003999970853329 -0.1123490035533905 0.025443000718951225
   vertex 0.010823000222444534 -0.11073499917984009 0.0189410001039505
   vertex 0.0097249997779726982 -0.10990899801254272 0.025521999225020409
  endloop
 endfacet
 facet normal 0.62680968441865115 -0.19729494468215908 -0.75378002382781051
  outer loop
   vertex 0.0088039999827742577 -0.10329599678516388 0.015314999967813492
   vertex 0.010823000222444534 -0.11073499917984009 0.0189410001039505
   vertex 0.0081700002774596214 -0.10727400332689285 0.015829000622034073
  endloop
 endfacet
 facet normal 0.87222589592221389 0.45108126984478475 0.18907055423282526
  outer loop
   vertex 0.010002999566495419 -0.11077599972486496 0.026308000087738037
   vertex 0.011003999970853329 -0.1123490035533905 0.025443000718951225
   vertex 0.0097249997779726982 -0.10990899801254272 0.025521999225020409
  endloop
 endfacet
 facet normal -0.52778246475751633 -0.05370681812802057 0.84767992047767948
  outer loop
   vertex 0.0026599999982863665 -0.10257700085639954 0.028844999149441719
   vertex 0.0024429999757558107 -0.10150200128555298 0.028777999803423882
   vertex 0.0010160000529140234 -0.10364100337028503 0.027753999456763268
  endloop
 endfacet
 facet normal -0.02717780250477235 0.056715492775477709 0.99802040055814811
  outer loop
   vertex 0.0024429999757558107 -0.10150200128555298 0.028777999803423882
   vertex 0.0026599999982863665 -0.10257700085639954 0.028844999149441719
   vertex 0.0038360001053661108 -0.10011299699544907 0.02873699925839901
  endloop
 endfacet
 facet normal 0.10153094248888363 -0.13547473169607571 0.98556484555263801
  outer loop
   vertex 0.0026599999982863665 -0.10257700085639954 0.028844999149441719
   vertex 0.0082759996876120567 -0.1083419993519783 0.027473999187350273
   vertex 0.0078880004584789276 -0.10570099949836731 0.027876999229192734
  endloop
 endfacet
 facet normal 0.11668355072448187 -0.11056039135991322 0.98699612403122949
  outer loop
   vertex 0.0026599999982863665 -0.10257700085639954 0.028844999149441719
   vertex 0.0078880004584789276 -0.10570099949836731 0.027876999229192734
   vertex 0.0079469997435808182 -0.10192500054836273 0.028293000534176826
  endloop
 endfacet
 facet normal 0.10455420198167344 -0.0058501839709321846 0.99450198300228732
  outer loop
   vertex 0.0026599999982863665 -0.10257700085639954 0.028844999149441719
   vertex 0.0079469997435808182 -0.10192500054836273 0.028293000534176826
   vertex 0.0048179998993873596 -0.099707998335361481 0.028635000810027122
  endloop
 endfacet
 facet normal 0.1062098473925161 -0.0071089666094303399 0.99431832473841308
  outer loop
   vertex 0.0026599999982863665 -0.10257700085639954 0.028844999149441719
   vertex 0.0048179998993873596 -0.099707998335361481 0.028635000810027122
   vertex 0.0038360001053661108 -0.10011299699544907 0.02873699925839901
  endloop
 endfacet
 facet normal 0.91865932723245469 0.075801557426713434 0.38771015511654872
  outer loop
   vertex 0.0082759996876120567 -0.1083419993519783 0.027473999187350273
   vertex 0.0085100000724196434 -0.10743899643421173 0.026743000373244286
   vertex 0.0078880004584789276 -0.10570099949836731 0.027876999229192734
  endloop
 endfacet
 facet normal 0.89901239623230245 -0.29067661001362899 0.327542088610973
  outer loop
   vertex 0.0085100000724196434 -0.10743899643421173 0.026743000373244286
   vertex 0.0095739997923374176 -0.1060120016336441 0.025088999420404434
   vertex 0.0091380001977086067 -0.10583700239658356 0.026441000401973724
  endloop
 endfacet
 facet normal 0.7361635639334686 -0.16483896862845354 0.65642312692217186
  outer loop
   vertex 0.0091380001977086067 -0.10583700239658356 0.026441000401973724
   vertex 0.0078880004584789276 -0.10570099949836731 0.027876999229192734
   vertex 0.0085100000724196434 -0.10743899643421173 0.026743000373244286
  endloop
 endfacet
 facet normal 0.91244821540566146 0.39369538244093649 0.1115446101239697
  outer loop
   vertex 0.0085100000724196434 -0.10743899643421173 0.026743000373244286
   vertex 0.010002999566495419 -0.11077599972486496 0.026308000087738037
   vertex 0.0097249997779726982 -0.10990899801254272 0.025521999225020409
  endloop
 endfacet
 facet normal 0.8707380562111392 -0.088594442395664094 0.48370059152563405
  outer loop
   vertex 0.0095739997923374176 -0.1060120016336441 0.025088999420404434
   vertex 0.0085100000724196434 -0.10743899643421173 0.026743000373244286
   vertex 0.0093000000342726707 -0.10768400132656097 0.025275999680161476
  endloop
 endfacet
 facet normal 0.87438706995671533 0.21510611773816382 0.43494437575870015
  outer loop
   vertex 0.0093000000342726707 -0.10768400132656097 0.025275999680161476
   vertex 0.0085100000724196434 -0.10743899643421173 0.026743000373244286
   vertex 0.0097249997779726982 -0.10990899801254272 0.025521999225020409
  endloop
 endfacet
 facet normal 0.28821170208094149 -0.16774855546844947 -0.94275894953156247
  outer loop
   vertex 0.0044010002166032791 -0.10401000082492828 0.014096000231802464
   vertex 0.0088039999827742577 -0.10329599678516388 0.015314999967813492
   vertex 0.0081700002774596214 -0.10727400332689285 0.015829000622034073
  endloop
 endfacet
 facet normal -0.15589111769103958 0.21718966574867829 -0.96360085539450191
  outer loop
   vertex 0.0044010002166032791 -0.10401000082492828 0.014096000231802464
   vertex 0.0037650000303983688 -0.101453997194767 0.01477499958127737
   vertex 0.0061739999800920486 -0.10118900239467621 0.014445000328123569
  endloop
 endfacet
 facet normal -0.47598901554826162 0.11324185826237833 -0.8721300009830415
  outer loop
   vertex 0.0037650000303983688 -0.101453997194767 0.01477499958127737
   vertex 0.0044010002166032791 -0.10401000082492828 0.014096000231802464
   vertex 0.0016120000509545207 -0.10224000364542007 0.015847999602556229
  endloop
 endfacet
 facet normal 0.27452172446410861 -0.0537611210868967 -0.96007685351576522
  outer loop
   vertex 0.0061739999800920486 -0.10118900239467621 0.014445000328123569
   vertex 0.0088039999827742577 -0.10329599678516388 0.015314999967813492
   vertex 0.0044010002166032791 -0.10401000082492828 0.014096000231802464
  endloop
 endfacet
 facet normal -0.84826206738538901 0.092113181072000574 0.52150419644319512
  outer loop
   vertex 0.0004729999927803874 -0.10137200355529785 0.026469999924302101
   vertex 0.0010160000529140234 -0.10364100337028503 0.027753999456763268
   vertex 0.0015279999934136868 -0.099712997674942017 0.027892999351024628
  endloop
 endfacet
 facet normal -0.87567328352152518 0.06148583336836333 0.4789736869825193
  outer loop
   vertex 0.0010160000529140234 -0.10364100337028503 0.027753999456763268
   vertex 0.0004729999927803874 -0.10137200355529785 0.026469999924302101
   vertex -0.00020700000459328294 -0.10287699848413467 0.025420000776648521
  endloop
 endfacet
 facet normal -0.63581668629818422 0.05563420615177652 0.76983243405994395
  outer loop
   vertex 0.0015279999934136868 -0.099712997674942017 0.027892999351024628
   vertex 0.0010160000529140234 -0.10364100337028503 0.027753999456763268
   vertex 0.0024429999757558107 -0.10150200128555298 0.028777999803423882
  endloop
 endfacet
 facet normal -0.94955960389638261 0.23891751622103843 -0.20311321742051799
  outer loop
   vertex -0.00040099999750964344 -0.10355900228023529 0.022298000752925873
   vertex 0.0010799999581649899 -0.10145600140094757 0.017847999930381775
   vertex 0.00088700000196695328 -0.10306300222873688 0.016860000789165497
  endloop
 endfacet
 facet normal -0.64423853600798409 0.75457309912277348 -0.1248044342262816
  outer loop
   vertex 0.00082600000314414501 -0.10213100165128708 0.024598000571131706
   vertex -0.00040099999750964344 -0.10355900228023529 0.022298000752925873
   vertex -0.00020700000459328294 -0.10287699848413467 0.025420000776648521
  endloop
 endfacet
 facet normal -0.68035340995166138 0.72749370124737867 -0.088725149831016578
  outer loop
   vertex 0.00082600000314414501 -0.10213100165128708 0.024598000571131706
   vertex 0.00066899997182190418 -0.10267200320959091 0.021366000175476074
   vertex -0.00040099999750964344 -0.10355900228023529 0.022298000752925873
  endloop
 endfacet
 facet normal -0.49282230122366083 0.83855566026861017 0.23227265023693744
  outer loop
   vertex -0.00040099999750964344 -0.10355900228023529 0.022298000752925873
   vertex 0.00066899997182190418 -0.10267200320959091 0.021366000175476074
   vertex 0.0010799999581649899 -0.10145600140094757 0.017847999930381775
  endloop
 endfacet
 facet normal -0.71971631392390467 0.58549352893449957 -0.37310287461719421
  outer loop
   vertex 0.00082600000314414501 -0.10213100165128708 0.024598000571131706
   vertex -0.00020700000459328294 -0.10287699848413467 0.025420000776648521
   vertex 0.0004729999927803874 -0.10137200355529785 0.026469999924302101
  endloop
 endfacet
 facet normal -0.87376938348368483 0.32653069989126204 -0.36042303826900951
  outer loop
   vertex 0.0016120000509545207 -0.10224000364542007 0.015847999602556229
   vertex 0.00088700000196695328 -0.10306300222873688 0.016860000789165497
   vertex 0.0010799999581649899 -0.10145600140094757 0.017847999930381775
  endloop
 endfacet
 facet normal -0.49009721538917123 0.17742998097851706 -0.85341860849043083
  outer loop
   vertex 0.0016120000509545207 -0.10224000364542007 0.015847999602556229
   vertex 0.0032470000442117453 -0.099666997790336609 0.015444000251591206
   vertex 0.0037650000303983688 -0.101453997194767 0.01477499958127737
  endloop
 endfacet
 facet normal -0.80368254592110311 0.44946394791292948 -0.38996990256723302
  outer loop
   vertex 0.0016120000509545207 -0.10224000364542007 0.015847999602556229
   vertex 0.0010799999581649899 -0.10145600140094757 0.017847999930381775
   vertex 0.0032470000442117453 -0.099666997790336609 0.015444000251591206
  endloop
 endfacet
 facet normal 0.92576015001813583 0.08965771932941731 -0.36732769838802792
  outer loop
   vertex 0.0088039999827742577 -0.10329599678516388 0.015314999967813492
   vertex 0.0092989997938275337 -0.099954999983310699 0.017378000542521477
   vertex 0.0097470004111528397 -0.10543300211429596 0.017170000821352005
  endloop
 endfacet
 facet normal 0.65244971940760099 0.3258224665628397 -0.68421420909525843
  outer loop
   vertex 0.0088039999827742577 -0.10329599678516388 0.015314999967813492
   vertex 0.0071530002169311047 -0.10102099925279617 0.014824000187218189
   vertex 0.0092989997938275337 -0.099954999983310699 0.017378000542521477
  endloop
 endfacet
 facet normal 0.35240383227189082 0.054103796354699737 -0.93428278279121368
  outer loop
   vertex 0.0071530002169311047 -0.10102099925279617 0.014824000187218189
   vertex 0.0088039999827742577 -0.10329599678516388 0.015314999967813492
   vertex 0.0061739999800920486 -0.10118900239467621 0.014445000328123569
  endloop
 endfacet
 facet normal 0.99368953143745919 0.10004769004792767 0.05071069736925847
  outer loop
   vertex 0.00916299968957901 -0.10309399664402008 0.02399899996817112
   vertex 0.0094569995999336243 -0.10604699701070786 0.024064000695943832
   vertex 0.0097470004111528397 -0.10543300211429596 0.017170000821352005
  endloop
 endfacet
 facet normal 0.99696618748188426 -0.069123709349651313 0.035781752662235843
  outer loop
   vertex 0.0097470004111528397 -0.10543300211429596 0.017170000821352005
   vertex 0.0094569995999336243 -0.10604699701070786 0.024064000695943832
   vertex 0.0093000000342726707 -0.10768400132656097 0.025275999680161476
  endloop
 endfacet
 facet normal 0.97413448238014144 0.19809187460434033 0.10872727097519042
  outer loop
   vertex 0.0097249997779726982 -0.10990899801254272 0.025521999225020409
   vertex 0.0097470004111528397 -0.10543300211429596 0.017170000821352005
   vertex 0.0093000000342726707 -0.10768400132656097 0.025275999680161476
  endloop
 endfacet
 facet normal 0.99517217084072784 0.079185307378987838 0.057983079251179521
  outer loop
   vertex 0.0092989997938275337 -0.099954999983310699 0.017378000542521477
   vertex 0.00916299968957901 -0.10309399664402008 0.02399899996817112
   vertex 0.0097470004111528397 -0.10543300211429596 0.017170000821352005
  endloop
 endfacet
 facet normal -0.22525448440335727 0.33701482413613804 0.91415612756720388
  outer loop
   vertex 0.0031030001118779182 -0.098898999392986298 0.027981000021100044
   vertex 0.0015279999934136868 -0.099712997674942017 0.027892999351024628
   vertex 0.0024429999757558107 -0.10150200128555298 0.028777999803423882
  endloop
 endfacet
 facet normal -0.47304282517981344 0.49589941297392182 0.72822679005789126
  outer loop
   vertex 0.0024429999757558107 -0.10150200128555298 0.028777999803423882
   vertex 0.0038360001053661108 -0.10011299699544907 0.02873699925839901
   vertex 0.0035989999305456877 -0.099689997732639313 0.028294999152421951
  endloop
 endfacet
 facet normal -0.097363241541878379 0.31386669598493439 0.94446180248221701
  outer loop
   vertex 0.0024429999757558107 -0.10150200128555298 0.028777999803423882
   vertex 0.0035989999305456877 -0.099689997732639313 0.028294999152421951
   vertex 0.0031030001118779182 -0.098898999392986298 0.027981000021100044
  endloop
 endfacet
 facet normal -0.19410719418276032 0.65464895505748588 0.73058684823136388
  outer loop
   vertex 0.0048179998993873596 -0.099707998335361481 0.028635000810027122
   vertex 0.0035989999305456877 -0.099689997732639313 0.028294999152421951
   vertex 0.0038360001053661108 -0.10011299699544907 0.02873699925839901
  endloop
 endfacet
 facet normal 0.59731160292671714 -0.097040961833182046 0.79611676325499303
  outer loop
   vertex 0.0078880004584789276 -0.10570099949836731 0.027876999229192734
   vertex 0.0085990000516176224 -0.1017019972205162 0.027830999344587326
   vertex 0.0079469997435808182 -0.10192500054836273 0.028293000534176826
  endloop
 endfacet
 facet normal 0.74253541769628228 -0.12444799624633189 0.65814424687668616
  outer loop
   vertex 0.0085990000516176224 -0.1017019972205162 0.027830999344587326
   vertex 0.0078880004584789276 -0.10570099949836731 0.027876999229192734
   vertex 0.0091380001977086067 -0.10583700239658356 0.026441000401973724
  endloop
 endfacet
 facet normal 0.41449590839553568 0.32517351301474173 0.84997372215675659
  outer loop
   vertex 0.0079469997435808182 -0.10192500054836273 0.028293000534176826
   vertex 0.0076790000312030315 -0.099670000374317169 0.027560999616980553
   vertex 0.0059199999086558819 -0.099565997719764709 0.028379000723361969
  endloop
 endfacet
 facet normal 0.47136020856058219 0.32248351361151456 0.82086779522313846
  outer loop
   vertex 0.0076790000312030315 -0.099670000374317169 0.027560999616980553
   vertex 0.0079469997435808182 -0.10192500054836273 0.028293000534176826
   vertex 0.0085990000516176224 -0.1017019972205162 0.027830999344587326
  endloop
 endfacet
 facet normal 0.20655887781752647 0.14219679959502537 0.96804622832780884
  outer loop
   vertex 0.0048179998993873596 -0.099707998335361481 0.028635000810027122
   vertex 0.0079469997435808182 -0.10192500054836273 0.028293000534176826
   vertex 0.0059199999086558819 -0.099565997719764709 0.028379000723361969
  endloop
 endfacet
 facet normal 0.083515382267065938 0.67442550939919554 0.73360439829408153
  outer loop
   vertex 0.0059199999086558819 -0.099565997719764709 0.028379000723361969
   vertex 0.004505000077188015 -0.099157996475696564 0.028164999559521675
   vertex 0.0048179998993873596 -0.099707998335361481 0.028635000810027122
  endloop
 endfacet
 facet normal -0.21470629408457992 0.56100685759227209 0.799482653354599
  outer loop
   vertex 0.0048179998993873596 -0.099707998335361481 0.028635000810027122
   vertex 0.004505000077188015 -0.099157996475696564 0.028164999559521675
   vertex 0.0035989999305456877 -0.099689997732639313 0.028294999152421951
  endloop
 endfacet
 facet normal 0.95233078257193038 0.021850581293513294 0.30428380282734413
  outer loop
   vertex 0.0091380001977086067 -0.10583700239658356 0.026441000401973724
   vertex 0.0095739997923374176 -0.1060120016336441 0.025088999420404434
   vertex 0.0085990000516176224 -0.1017019972205162 0.027830999344587326
  endloop
 endfacet
 facet normal 0.97932933997039728 -0.17233255005168871 -0.10590342801736061
  outer loop
   vertex 0.0093000000342726707 -0.10768400132656097 0.025275999680161476
   vertex 0.0094569995999336243 -0.10604699701070786 0.024064000695943832
   vertex 0.0095739997923374176 -0.1060120016336441 0.025088999420404434
  endloop
 endfacet
 facet normal 0.98205475537376286 0.16933651071949035 0.08302772780900794
  outer loop
   vertex 0.0095739997923374176 -0.1060120016336441 0.025088999420404434
   vertex 0.00916299968957901 -0.10309399664402008 0.02399899996817112
   vertex 0.0085990000516176224 -0.1017019972205162 0.027830999344587326
  endloop
 endfacet
 facet normal 0.98859787616185135 0.095868567052212195 -0.11611828925553615
  outer loop
   vertex 0.0095739997923374176 -0.1060120016336441 0.025088999420404434
   vertex 0.0094569995999336243 -0.10604699701070786 0.024064000695943832
   vertex 0.00916299968957901 -0.10309399664402008 0.02399899996817112
  endloop
 endfacet
 facet normal -0.17295993233609697 0.59330219381007787 -0.78617896730098402
  outer loop
   vertex 0.0046850000508129597 -0.10051000118255615 0.015285000205039978
   vertex 0.0061739999800920486 -0.10118900239467621 0.014445000328123569
   vertex 0.0037650000303983688 -0.101453997194767 0.01477499958127737
  endloop
 endfacet
 facet normal 0.12040112966288744 0.37847829258193905 -0.91774601607425177
  outer loop
   vertex 0.0037650000303983688 -0.101453997194767 0.01477499958127737
   vertex 0.0032470000442117453 -0.099666997790336609 0.015444000251591206
   vertex 0.0046850000508129597 -0.10051000118255615 0.015285000205039978
  endloop
 endfacet
 facet normal -0.31060261485816998 0.39080834708630147 -0.8664841899832566
  outer loop
   vertex 0.0046850000508129597 -0.10051000118255615 0.015285000205039978
   vertex 0.0054689999669790268 -0.099357001483440399 0.015523999929428101
   vertex 0.0061739999800920486 -0.10118900239467621 0.014445000328123569
  endloop
 endfacet
 facet normal 0.2154504093846919 0.5558031134664172 -0.80290972105025959
  outer loop
   vertex 0.0054689999669790268 -0.099357001483440399 0.015523999929428101
   vertex 0.0071530002169311047 -0.10102099925279617 0.014824000187218189
   vertex 0.0061739999800920486 -0.10118900239467621 0.014445000328123569
  endloop
 endfacet
 facet normal -0.44389980402356788 0.72910372192589978 -0.52092295655081111
  outer loop
   vertex 0.0021299999207258224 -0.10078399628400803 0.025880999863147736
   vertex 0.0004729999927803874 -0.10137200355529785 0.026469999924302101
   vertex 0.0015279999934136868 -0.099712997674942017 0.027892999351024628
  endloop
 endfacet
 facet normal -0.430647175130631 0.80519929838897719 -0.40767278597658024
  outer loop
   vertex 0.0004729999927803874 -0.10137200355529785 0.026469999924302101
   vertex 0.0021299999207258224 -0.10078399628400803 0.025880999863147736
   vertex 0.00082600000314414501 -0.10213100165128708 0.024598000571131706
  endloop
 endfacet
 facet normal -0.36895392578277408 0.77014044328491349 -0.52034286606659297
  outer loop
   vertex 0.0021299999207258224 -0.10078399628400803 0.025880999863147736
   vertex 0.0015279999934136868 -0.099712997674942017 0.027892999351024628
   vertex 0.0031030001118779182 -0.098898999392986298 0.027981000021100044
  endloop
 endfacet
 facet normal -0.41082611736209101 0.86885235937219341 0.27625618347208519
  outer loop
   vertex 0.0010799999581649899 -0.10145600140094757 0.017847999930381775
   vertex 0.0077069997787475586 -0.098457001149654388 0.018270999193191528
   vertex 0.0032470000442117453 -0.099666997790336609 0.015444000251591206
  endloop
 endfacet
 facet normal -0.41216451933495901 0.87491203397822404 0.25426234837558842
  outer loop
   vertex 0.0077069997787475586 -0.098457001149654388 0.018270999193191528
   vertex 0.0010799999581649899 -0.10145600140094757 0.017847999930381775
   vertex 0.00066899997182190418 -0.10267200320959091 0.021366000175476074
  endloop
 endfacet
 facet normal -0.50219157678508664 0.86360121455485783 -0.04468290976965076
  outer loop
   vertex 0.00082600000314414501 -0.10213100165128708 0.024598000571131706
   vertex 0.0047369999811053276 -0.099910996854305267 0.023548999801278114
   vertex 0.0077069997787475586 -0.098457001149654388 0.018270999193191528
  endloop
 endfacet
 facet normal -0.54644916640298802 0.82991882234082714 -0.11237462730480621
  outer loop
   vertex 0.00066899997182190418 -0.10267200320959091 0.021366000175476074
   vertex 0.00082600000314414501 -0.10213100165128708 0.024598000571131706
   vertex 0.0077069997787475586 -0.098457001149654388 0.018270999193191528
  endloop
 endfacet
 facet normal -0.5303110666168559 0.79469448697769041 -0.29534868374678458
  outer loop
   vertex 0.00082600000314414501 -0.10213100165128708 0.024598000571131706
   vertex 0.0021299999207258224 -0.10078399628400803 0.025880999863147736
   vertex 0.0047369999811053276 -0.099910996854305267 0.023548999801278114
  endloop
 endfacet
 facet normal 0.0076720053507148191 0.19796007966783874 -0.98018005855648871
  outer loop
   vertex 0.0046850000508129597 -0.10051000118255615 0.015285000205039978
   vertex 0.0032470000442117453 -0.099666997790336609 0.015444000251591206
   vertex 0.0054689999669790268 -0.099357001483440399 0.015523999929428101
  endloop
 endfacet
 facet normal -0.12744339950620556 0.96859235146042222 -0.21351120957615155
  outer loop
   vertex 0.0077069997787475586 -0.098457001149654388 0.018270999193191528
   vertex 0.0054689999669790268 -0.099357001483440399 0.015523999929428101
   vertex 0.0032470000442117453 -0.099666997790336609 0.015444000251591206
  endloop
 endfacet
 facet normal 0.98466887166214123 0.14892067102905712 0.090828667940585389
  outer loop
   vertex 0.00916299968957901 -0.10309399664402008 0.02399899996817112
   vertex 0.0092989997938275337 -0.099954999983310699 0.017378000542521477
   vertex 0.0085990000516176224 -0.1017019972205162 0.027830999344587326
  endloop
 endfacet
 facet normal 0.59056446820177311 0.80382075047347901 0.071454950883825155
  outer loop
   vertex 0.0092989997938275337 -0.099954999983310699 0.017378000542521477
   vertex 0.0062810000963509083 -0.09855400025844574 0.02656099945306778
   vertex 0.0076790000312030315 -0.099670000374317169 0.027560999616980553
  endloop
 endfacet
 facet normal 0.89651126068758402 0.42327843482093058 0.1307781559584853
  outer loop
   vertex 0.0092989997938275337 -0.099954999983310699 0.017378000542521477
   vertex 0.0076790000312030315 -0.099670000374317169 0.027560999616980553
   vertex 0.0085990000516176224 -0.1017019972205162 0.027830999344587326
  endloop
 endfacet
 facet normal 0.70665523415821396 0.69624508155456166 0.12602050010963098
  outer loop
   vertex 0.0065600001253187656 -0.098251998424530029 0.02332800067961216
   vertex 0.0062810000963509083 -0.09855400025844574 0.02656099945306778
   vertex 0.0092989997938275337 -0.099954999983310699 0.017378000542521477
  endloop
 endfacet
 facet normal 0.71815783151342116 0.68261695878979189 0.13521618471365063
  outer loop
   vertex 0.0065600001253187656 -0.098251998424530029 0.02332800067961216
   vertex 0.0092989997938275337 -0.099954999983310699 0.017378000542521477
   vertex 0.0077069997787475586 -0.098457001149654388 0.018270999193191528
  endloop
 endfacet
 facet normal 0.34807409467642425 0.72454151900220076 -0.59488151077098628
  outer loop
   vertex 0.0077069997787475586 -0.098457001149654388 0.018270999193191528
   vertex 0.0092989997938275337 -0.099954999983310699 0.017378000542521477
   vertex 0.0071530002169311047 -0.10102099925279617 0.014824000187218189
  endloop
 endfacet
 facet normal 0.43699211210277816 0.68665151865428764 -0.58098845590055692
  outer loop
   vertex 0.0071530002169311047 -0.10102099925279617 0.014824000187218189
   vertex 0.0054689999669790268 -0.099357001483440399 0.015523999929428101
   vertex 0.0077069997787475586 -0.098457001149654388 0.018270999193191528
  endloop
 endfacet
 facet normal 0.047495189959849159 0.73648677295442266 0.67478251325435101
  outer loop
   vertex 0.0031030001118779182 -0.098898999392986298 0.027981000021100044
   vertex 0.004505000077188015 -0.099157996475696564 0.028164999559521675
   vertex 0.0050220000557601452 -0.098517000675201416 0.027428999543190002
  endloop
 endfacet
 facet normal -0.061586092905132568 0.3346586997269051 0.94032478849479317
  outer loop
   vertex 0.004505000077188015 -0.099157996475696564 0.028164999559521675
   vertex 0.0031030001118779182 -0.098898999392986298 0.027981000021100044
   vertex 0.0035989999305456877 -0.099689997732639313 0.028294999152421951
  endloop
 endfacet
 facet normal -0.53176449485576838 0.73776544610212413 -0.41584692922819988
  outer loop
   vertex 0.0045659998431801796 -0.098544001579284668 0.026739999651908875
   vertex 0.0021299999207258224 -0.10078399628400803 0.025880999863147736
   vertex 0.0031030001118779182 -0.098898999392986298 0.027981000021100044
  endloop
 endfacet
 facet normal -0.17349230335533855 0.98187167845675083 0.076344140056601908
  outer loop
   vertex 0.0031030001118779182 -0.098898999392986298 0.027981000021100044
   vertex 0.0050220000557601452 -0.098517000675201416 0.027428999543190002
   vertex 0.0045659998431801796 -0.098544001579284668 0.026739999651908875
  endloop
 endfacet
 facet normal 0.30611229646047378 0.76957022545568088 0.56040782475603201
  outer loop
   vertex 0.0050220000557601452 -0.098517000675201416 0.027428999543190002
   vertex 0.0059199999086558819 -0.099565997719764709 0.028379000723361969
   vertex 0.0076790000312030315 -0.099670000374317169 0.027560999616980553
  endloop
 endfacet
 facet normal 0.33605249073967974 0.8261786606849969 0.45221404677033444
  outer loop
   vertex 0.0062810000963509083 -0.09855400025844574 0.02656099945306778
   vertex 0.0050220000557601452 -0.098517000675201416 0.027428999543190002
   vertex 0.0076790000312030315 -0.099670000374317169 0.027560999616980553
  endloop
 endfacet
 facet normal 0.10108789483957287 0.71398176954357906 0.69282845660114378
  outer loop
   vertex 0.0050220000557601452 -0.098517000675201416 0.027428999543190002
   vertex 0.004505000077188015 -0.099157996475696564 0.028164999559521675
   vertex 0.0059199999086558819 -0.099565997719764709 0.028379000723361969
  endloop
 endfacet
 facet normal -0.56394826536386411 0.74772036444619994 -0.35053760224194291
  outer loop
   vertex 0.0047369999811053276 -0.099910996854305267 0.023548999801278114
   vertex 0.0021299999207258224 -0.10078399628400803 0.025880999863147736
   vertex 0.0045659998431801796 -0.098544001579284668 0.026739999651908875
  endloop
 endfacet
 facet normal -0.67380075817733387 0.71618384007025959 -0.18186051111185991
  outer loop
   vertex 0.0047369999811053276 -0.099910996854305267 0.023548999801278114
   vertex 0.0065600001253187656 -0.098251998424530029 0.02332800067961216
   vertex 0.0077069997787475586 -0.098457001149654388 0.018270999193191528
  endloop
 endfacet
 facet normal -0.65757160076208843 0.67912655853759296 -0.32616975236840978
  outer loop
   vertex 0.0045659998431801796 -0.098544001579284668 0.026739999651908875
   vertex 0.0065600001253187656 -0.098251998424530029 0.02332800067961216
   vertex 0.0047369999811053276 -0.099910996854305267 0.023548999801278114
  endloop
 endfacet
 facet normal 0.0016261543488349417 0.99918900177820991 -0.040233000726990917
  outer loop
   vertex 0.0045659998431801796 -0.098544001579284668 0.026739999651908875
   vertex 0.0050220000557601452 -0.098517000675201416 0.027428999543190002
   vertex 0.0062810000963509083 -0.09855400025844574 0.02656099945306778
  endloop
 endfacet
 facet normal 0.01564944288009636 0.9954175259217396 0.094334744529178186
  outer loop
   vertex 0.0062810000963509083 -0.09855400025844574 0.02656099945306778
   vertex 0.0065600001253187656 -0.098251998424530029 0.02332800067961216
   vertex 0.0045659998431801796 -0.098544001579284668 0.026739999651908875
  endloop
 endfacet
endsolid
