solid Visualization Toolkit generated SLA File
 facet normal -0.9053076943942423 -0.39637089582820012 -0.15266987722183895
  outer loop
   vertex -0.0076790000312030315 -0.01488799974322319 0.012198000214993954
   vertex -0.01003200002014637 -0.01143999956548214 0.017199000343680382
   vertex -0.0094910003244876862 -0.0092900004237890244 0.008409000001847744
  endloop
 endfacet
 facet normal -0.63665384380224155 -0.6960232441345191 -0.33199928734304612
  outer loop
   vertex -0.0076790000312030315 -0.01488799974322319 0.012198000214993954
   vertex -0.0062560001388192177 -0.014409000054001808 0.0084650004282593727
   vertex -0.0043580001220107079 -0.016986999660730362 0.010230000130832195
  endloop
 endfacet
 facet normal -0.78564810297933796 -0.50047655754434406 -0.36370355185718289
  outer loop
   vertex -0.0094910003244876862 -0.0092900004237890244 0.008409000001847744
   vertex -0.0062560001388192177 -0.014409000054001808 0.0084650004282593727
   vertex -0.0076790000312030315 -0.01488799974322319 0.012198000214993954
  endloop
 endfacet
 facet normal -0.83888691159664797 -0.54395028735560014 -0.019668107117816587
  outer loop
   vertex -0.01003200002014637 -0.01143999956548214 0.017199000343680382
   vertex -0.0076790000312030315 -0.01488799974322319 0.012198000214993954
   vertex -0.0092089995741844177 -0.012773999944329262 0.018990000709891319
  endloop
 endfacet
 facet normal -0.68880320617288859 -0.72483842857763281 -0.012625197941295635
  outer loop
   vertex -0.0076790000312030315 -0.01488799974322319 0.012198000214993954
   vertex -0.0055700000375509262 -0.016900999471545219 0.012706000357866287
   vertex -0.0076310001313686371 -0.015033000148832798 0.017904000356793404
  endloop
 endfacet
 facet normal -0.82147761973424305 -0.57019038557080715 -0.0075792135724319816
  outer loop
   vertex -0.0092089995741844177 -0.012773999944329262 0.018990000709891319
   vertex -0.0076790000312030315 -0.01488799974322319 0.012198000214993954
   vertex -0.0076310001313686371 -0.015033000148832798 0.017904000356793404
  endloop
 endfacet
 facet normal -0.61542621244736428 -0.75182609877321349 -0.23666029290132734
  outer loop
   vertex -0.0043580001220107079 -0.016986999660730362 0.010230000130832195
   vertex -0.0045850002206861973 -0.017121000215411186 0.011246000416576862
   vertex -0.0076790000312030315 -0.01488799974322319 0.012198000214993954
  endloop
 endfacet
 facet normal -0.61726534953113155 -0.72425499638326407 -0.30730797009203698
  outer loop
   vertex -0.0045850002206861973 -0.017121000215411186 0.011246000416576862
   vertex -0.0055700000375509262 -0.016900999471545219 0.012706000357866287
   vertex -0.0076790000312030315 -0.01488799974322319 0.012198000214993954
  endloop
 endfacet
 facet normal -0.96922553422576618 0.20059868586472468 0.14269558869889373
  outer loop
   vertex -0.0090220002457499504 -0.0049040000885725021 0.014871000312268734
   vertex -0.0096079995855689049 -0.0032190000638365746 0.0085220001637935638
   vertex -0.01003200002014637 -0.01143999956548214 0.017199000343680382
  endloop
 endfacet
 facet normal -0.95676220817998237 0.23305024255852066 0.1740507438708003
  outer loop
   vertex -0.01003200002014637 -0.01143999956548214 0.017199000343680382
   vertex -0.0096079995855689049 -0.0032190000638365746 0.0085220001637935638
   vertex -0.010304000228643417 -0.0060419999063014984 0.0084760002791881561
  endloop
 endfacet
 facet normal -0.96389370075739722 -0.23884126987351678 -0.11774456015211553
  outer loop
   vertex -0.0094910003244876862 -0.0092900004237890244 0.008409000001847744
   vertex -0.01003200002014637 -0.01143999956548214 0.017199000343680382
   vertex -0.010304000228643417 -0.0060419999063014984 0.0084760002791881561
  endloop
 endfacet
 facet normal -0.85143398472129861 0.28774795589181379 0.43847609232624557
  outer loop
   vertex -0.0085589997470378876 -0.010603000409901142 0.019509999081492424
   vertex -0.0090220002457499504 -0.0049040000885725021 0.014871000312268734
   vertex -0.01003200002014637 -0.01143999956548214 0.017199000343680382
  endloop
 endfacet
 facet normal -0.8570891123621921 0.13771054659135076 0.4964212513860593
  outer loop
   vertex -0.01003200002014637 -0.01143999956548214 0.017199000343680382
   vertex -0.0092089995741844177 -0.012773999944329262 0.018990000709891319
   vertex -0.0085589997470378876 -0.010603000409901142 0.019509999081492424
  endloop
 endfacet
 facet normal -0.37046446921624165 -0.24392320677692059 -0.89624636470336216
  outer loop
   vertex -0.0062560001388192177 -0.014409000054001808 0.0084650004282593727
   vertex -0.0094910003244876862 -0.0092900004237890244 0.008409000001847744
   vertex -0.0056469999253749847 -0.01119299978017807 0.0073379999957978725
  endloop
 endfacet
 facet normal -0.44349465451502895 -0.46442661478558533 -0.76656402922091038
  outer loop
   vertex -0.0062489998526871204 -0.0091970004141330719 0.0064770001918077469
   vertex -0.0056469999253749847 -0.01119299978017807 0.0073379999957978725
   vertex -0.0094910003244876862 -0.0092900004237890244 0.008409000001847744
  endloop
 endfacet
 facet normal -0.45985536035144542 -0.40339210492804389 -0.79108018382321033
  outer loop
   vertex -0.0094910003244876862 -0.0092900004237890244 0.008409000001847744
   vertex -0.0077920001931488514 -0.0067340000532567501 0.0061180000193417072
   vertex -0.0062489998526871204 -0.0091970004141330719 0.0064770001918077469
  endloop
 endfacet
 facet normal -0.69867524059953667 -0.16050185477878517 -0.69720302838251469
  outer loop
   vertex -0.010304000228643417 -0.0060419999063014984 0.0084760002791881561
   vertex -0.0077920001931488514 -0.0067340000532567501 0.0061180000193417072
   vertex -0.0094910003244876862 -0.0092900004237890244 0.008409000001847744
  endloop
 endfacet
 facet normal -0.23961849202660837 -0.28035663104258141 -0.92950693257734673
  outer loop
   vertex -0.0056469999253749847 -0.01119299978017807 0.0073379999957978725
   vertex -0.0040059997700154781 -0.01535400003194809 0.0081700002774596214
   vertex -0.0062560001388192177 -0.014409000054001808 0.0084650004282593727
  endloop
 endfacet
 facet normal -0.32676329092367862 -0.53474030032824493 -0.77928079849922238
  outer loop
   vertex -0.0040059997700154781 -0.01535400003194809 0.0081700002774596214
   vertex -0.0034129999112337828 -0.016292000189423561 0.0085650002583861351
   vertex -0.0062560001388192177 -0.014409000054001808 0.0084650004282593727
  endloop
 endfacet
 facet normal -0.44807747327039305 -0.70566721180105862 -0.5488719013909712
  outer loop
   vertex -0.0043580001220107079 -0.016986999660730362 0.010230000130832195
   vertex -0.0062560001388192177 -0.014409000054001808 0.0084650004282593727
   vertex -0.0034129999112337828 -0.016292000189423561 0.0085650002583861351
  endloop
 endfacet
 facet normal -0.16816232138466566 -0.97402867070925181 -0.1516231588606709
  outer loop
   vertex -0.0021500000730156898 -0.017488999292254448 0.011006000451743603
   vertex -0.0032949999440461397 -0.017593000084161758 0.012943999841809273
   vertex -0.0043580001220107079 -0.016986999660730362 0.010230000130832195
  endloop
 endfacet
 facet normal -0.14505370931745595 -0.9762102531816973 -0.16116129496927464
  outer loop
   vertex -0.0032949999440461397 -0.017593000084161758 0.012943999841809273
   vertex -0.0045850002206861973 -0.017121000215411186 0.011246000416576862
   vertex -0.0043580001220107079 -0.016986999660730362 0.010230000130832195
  endloop
 endfacet
 facet normal 0.066442653486563266 -0.93363678898100044 -0.35200528413492782
  outer loop
   vertex -0.0043580001220107079 -0.016986999660730362 0.010230000130832195
   vertex -0.0034129999112337828 -0.016292000189423561 0.0085650002583861351
   vertex -0.00145800004247576 -0.016456000506877899 0.0093689998611807823
  endloop
 endfacet
 facet normal -0.0041042252831965985 -0.84490685238393892 -0.53489771557699639
  outer loop
   vertex -0.00145800004247576 -0.016456000506877899 0.0093689998611807823
   vertex -0.0021500000730156898 -0.017488999292254448 0.011006000451743603
   vertex -0.0043580001220107079 -0.016986999660730362 0.010230000130832195
  endloop
 endfacet
 facet normal -0.5411745908203639 -0.58231552226287597 0.60666192791547879
  outer loop
   vertex -0.0092089995741844177 -0.012773999944329262 0.018990000709891319
   vertex -0.0052060000598430634 -0.015742000192403793 0.019711999222636223
   vertex -0.0047180000692605972 -0.014213999733328819 0.021614000201225281
  endloop
 endfacet
 facet normal -0.51583692499735911 -0.050396302394509117 0.85520318025264053
  outer loop
   vertex -0.0047180000692605972 -0.014213999733328819 0.021614000201225281
   vertex -0.0085589997470378876 -0.010603000409901142 0.019509999081492424
   vertex -0.0092089995741844177 -0.012773999944329262 0.018990000709891319
  endloop
 endfacet
 facet normal -0.56943707140652333 -0.64361360942446566 0.51137358503502439
  outer loop
   vertex -0.0076310001313686371 -0.015033000148832798 0.017904000356793404
   vertex -0.0052060000598430634 -0.015742000192403793 0.019711999222636223
   vertex -0.0092089995741844177 -0.012773999944329262 0.018990000709891319
  endloop
 endfacet
 facet normal -0.50763251541714283 -0.85502881013725107 0.10599510897461738
  outer loop
   vertex -0.0055700000375509262 -0.016900999471545219 0.012706000357866287
   vertex -0.0046569998376071453 -0.017254000529646873 0.01423100009560585
   vertex -0.0076310001313686371 -0.015033000148832798 0.017904000356793404
  endloop
 endfacet
 facet normal -0.28710365614790612 -0.95661719298097481 -0.049548327113085516
  outer loop
   vertex -0.0045850002206861973 -0.017121000215411186 0.011246000416576862
   vertex -0.0046569998376071453 -0.017254000529646873 0.01423100009560585
   vertex -0.0055700000375509262 -0.016900999471545219 0.012706000357866287
  endloop
 endfacet
 facet normal -0.41165165193873687 -0.88826042058631471 0.20380466794441229
  outer loop
   vertex -0.0052060000598430634 -0.015742000192403793 0.019711999222636223
   vertex -0.0076310001313686371 -0.015033000148832798 0.017904000356793404
   vertex -0.0046569998376071453 -0.017254000529646873 0.01423100009560585
  endloop
 endfacet
 facet normal -0.28505240081093941 -0.95723157172297813 -0.049526224252175337
  outer loop
   vertex -0.0045850002206861973 -0.017121000215411186 0.011246000416576862
   vertex -0.0032949999440461397 -0.017593000084161758 0.012943999841809273
   vertex -0.0046569998376071453 -0.017254000529646873 0.01423100009560585
  endloop
 endfacet
 facet normal -0.72497007622610921 0.6462025218040558 0.23841285491933545
  outer loop
   vertex -0.0096079995855689049 -0.0032190000638365746 0.0085220001637935638
   vertex -0.0090220002457499504 -0.0049040000885725021 0.014871000312268734
   vertex -0.0054040001705288887 3.8999998650979251e-05 0.012474999763071537
  endloop
 endfacet
 facet normal -0.36078189647323144 0.57097219147286915 0.73744639109690391
  outer loop
   vertex -0.0052700000815093517 -0.010847000405192375 0.021307999268174171
   vertex -0.0090220002457499504 -0.0049040000885725021 0.014871000312268734
   vertex -0.0085589997470378876 -0.010603000409901142 0.019509999081492424
  endloop
 endfacet
 facet normal -0.21983486660851131 0.55109408175507602 0.80496456100734493
  outer loop
   vertex -0.0054040001705288887 3.8999998650979251e-05 0.012474999763071537
   vertex -0.0090220002457499504 -0.0049040000885725021 0.014871000312268734
   vertex -0.0008829999715089798 0.0008009999874047935 0.013187999837100506
  endloop
 endfacet
 facet normal -0.075509958330156793 0.71031803831402607 0.69981892703662407
  outer loop
   vertex -0.0044309999793767929 -0.010212000459432602 0.020754000172019005
   vertex -0.0090220002457499504 -0.0049040000885725021 0.014871000312268734
   vertex -0.0052700000815093517 -0.010847000405192375 0.021307999268174171
  endloop
 endfacet
 facet normal -0.19102432978188227 0.64999535450067769 0.73553772476938317
  outer loop
   vertex -0.0090220002457499504 -0.0049040000885725021 0.014871000312268734
   vertex -0.0044309999793767929 -0.010212000459432602 0.020754000172019005
   vertex -0.0033060000278055668 -0.0047619999386370182 0.016230000182986259
  endloop
 endfacet
 facet normal -0.20767893048061128 0.5374062004868726 0.81735184438079833
  outer loop
   vertex -0.0033060000278055668 -0.0047619999386370182 0.016230000182986259
   vertex -0.0008829999715089798 0.0008009999874047935 0.013187999837100506
   vertex -0.0090220002457499504 -0.0049040000885725021 0.014871000312268734
  endloop
 endfacet
 facet normal -0.93218061952405273 0.2343218894556543 -0.27592126541041628
  outer loop
   vertex -0.0096079995855689049 -0.0032190000638365746 0.0085220001637935638
   vertex -0.0076750000007450581 -0.0019819999579340219 0.00304200011305511
   vertex -0.010304000228643417 -0.0060419999063014984 0.0084760002791881561
  endloop
 endfacet
 facet normal -0.72740855769620882 0.64080240161730739 0.24545686438112163
  outer loop
   vertex -0.0096079995855689049 -0.0032190000638365746 0.0085220001637935638
   vertex -0.0054040001705288887 3.8999998650979251e-05 0.012474999763071537
   vertex -0.0075019998475909233 5.8000001445179805e-05 0.0062079997733235359
  endloop
 endfacet
 facet normal -0.877425662984329 0.45355190102650944 -0.15625261281575467
  outer loop
   vertex -0.0075019998475909233 5.8000001445179805e-05 0.0062079997733235359
   vertex -0.0068549998104572296 0.00061099999584257603 0.0041800001636147499
   vertex -0.0096079995855689049 -0.0032190000638365746 0.0085220001637935638
  endloop
 endfacet
 facet normal -0.8947074249230208 0.38345786363755197 -0.22903862251188475
  outer loop
   vertex -0.0076750000007450581 -0.0019819999579340219 0.00304200011305511
   vertex -0.0096079995855689049 -0.0032190000638365746 0.0085220001637935638
   vertex -0.0068549998104572296 0.00061099999584257603 0.0041800001636147499
  endloop
 endfacet
 facet normal -0.55197315003102232 -0.74801872548142656 -0.36850186970213999
  outer loop
   vertex -0.010304000228643417 -0.0060419999063014984 0.0084760002791881561
   vertex -0.0074269999749958515 -0.0055539999157190323 0.0031759999692440033
   vertex -0.0077920001931488514 -0.0067340000532567501 0.0061180000193417072
  endloop
 endfacet
 facet normal -0.77336743645563621 -0.43626214961715498 -0.45997624399685738
  outer loop
   vertex -0.0074269999749958515 -0.0055539999157190323 0.0031759999692440033
   vertex -0.010304000228643417 -0.0060419999063014984 0.0084760002791881561
   vertex -0.0079260002821683884 -0.0043509998358786106 0.0028739999979734421
  endloop
 endfacet
 facet normal -0.92631653297876981 0.12338890089058036 -0.35596749832984231
  outer loop
   vertex -0.0076750000007450581 -0.0019819999579340219 0.00304200011305511
   vertex -0.0079260002821683884 -0.0043509998358786106 0.0028739999979734421
   vertex -0.010304000228643417 -0.0060419999063014984 0.0084760002791881561
  endloop
 endfacet
 facet normal -0.52885484683134421 -0.06969562183196551 0.84584577275083139
  outer loop
   vertex -0.0047180000692605972 -0.014213999733328819 0.021614000201225281
   vertex -0.0046640001237392426 -0.012864000163972378 0.021758999675512314
   vertex -0.0085589997470378876 -0.010603000409901142 0.019509999081492424
  endloop
 endfacet
 facet normal -0.47594596582117338 0.053292644368580548 0.87785837791454413
  outer loop
   vertex -0.0046640001237392426 -0.012864000163972378 0.021758999675512314
   vertex -0.0052700000815093517 -0.010847000405192375 0.021307999268174171
   vertex -0.0085589997470378876 -0.010603000409901142 0.019509999081492424
  endloop
 endfacet
 facet normal 0.49736290291501023 0.022740913464917693 -0.86724448321032022
  outer loop
   vertex -0.0040059997700154781 -0.01535400003194809 0.0081700002774596214
   vertex -0.0056469999253749847 -0.01119299978017807 0.0073379999957978725
   vertex -0.0016659999964758754 -0.01382800005376339 0.0095520000904798508
  endloop
 endfacet
 facet normal 0.73834046295956712 -0.066806490920932951 -0.67111120801807744
  outer loop
   vertex -0.0056469999253749847 -0.01119299978017807 0.0073379999957978725
   vertex -0.0062489998526871204 -0.0091970004141330719 0.0064770001918077469
   vertex -6.5000000176951289e-05 -0.0058670002035796642 0.012949000112712383
  endloop
 endfacet
 facet normal 0.58057076194415325 0.21798843810330082 -0.78448622118483946
  outer loop
   vertex -0.0016659999964758754 -0.01382800005376339 0.0095520000904798508
   vertex -0.0056469999253749847 -0.01119299978017807 0.0073379999957978725
   vertex -6.5000000176951289e-05 -0.0058670002035796642 0.012949000112712383
  endloop
 endfacet
 facet normal -0.56148994594905655 -0.45271763377691593 -0.69265849064712681
  outer loop
   vertex -0.0060530002228915691 -0.0078290002420544624 0.0054239998571574688
   vertex -0.0062489998526871204 -0.0091970004141330719 0.0064770001918077469
   vertex -0.0077920001931488514 -0.0067340000532567501 0.0061180000193417072
  endloop
 endfacet
 facet normal 0.7463569731122377 -0.46980302867682239 -0.47141954025350224
  outer loop
   vertex -0.0062489998526871204 -0.0091970004141330719 0.0064770001918077469
   vertex -0.0060530002228915691 -0.0078290002420544624 0.0054239998571574688
   vertex -6.5000000176951289e-05 -0.0058670002035796642 0.012949000112712383
  endloop
 endfacet
 facet normal -0.59716416317072496 -0.65430763840306394 -0.46397896132477051
  outer loop
   vertex -0.0060530002228915691 -0.0078290002420544624 0.0054239998571574688
   vertex -0.0077920001931488514 -0.0067340000532567501 0.0061180000193417072
   vertex -0.0056770001538097858 -0.0065489998087286949 0.0031349998898804188
  endloop
 endfacet
 facet normal -0.46413427025860865 -0.80071023756711512 -0.37873802902101439
  outer loop
   vertex -0.0056770001538097858 -0.0065489998087286949 0.0031349998898804188
   vertex -0.0077920001931488514 -0.0067340000532567501 0.0061180000193417072
   vertex -0.0074269999749958515 -0.0055539999157190323 0.0031759999692440033
  endloop
 endfacet
 facet normal 0.5221823129558355 -0.028809237349582587 -0.85234714751645024
  outer loop
   vertex -0.0034129999112337828 -0.016292000189423561 0.0085650002583861351
   vertex -0.0040059997700154781 -0.01535400003194809 0.0081700002774596214
   vertex -0.0016659999964758754 -0.01382800005376339 0.0095520000904798508
  endloop
 endfacet
 facet normal 0.38541060831555041 0.094422194012284091 -0.9179014719869143
  outer loop
   vertex -0.00145800004247576 -0.016456000506877899 0.0093689998611807823
   vertex -0.0034129999112337828 -0.016292000189423561 0.0085650002583861351
   vertex -0.0016659999964758754 -0.01382800005376339 0.0095520000904798508
  endloop
 endfacet
 facet normal 0.42096855805259875 -0.88446801111226847 0.20125061602445812
  outer loop
   vertex -0.0021500000730156898 -0.017488999292254448 0.011006000451743603
   vertex -0.0008580000139772892 -0.016548000276088715 0.01243900042027235
   vertex -0.0032949999440461397 -0.017593000084161758 0.012943999841809273
  endloop
 endfacet
 facet normal 0.68860759332252242 -0.70819818397555145 -0.155804090550584
  outer loop
   vertex -0.0008580000139772892 -0.016548000276088715 0.01243900042027235
   vertex -0.0021500000730156898 -0.017488999292254448 0.011006000451743603
   vertex -0.00145800004247576 -0.016456000506877899 0.0093689998611807823
  endloop
 endfacet
 facet normal 0.068215357462545784 -0.94461744271150949 0.32100553255578818
  outer loop
   vertex -0.0032949999440461397 -0.017593000084161758 0.012943999841809273
   vertex -0.0034870000090450048 -0.017108000814914703 0.014411999844014645
   vertex -0.0046569998376071453 -0.017254000529646873 0.01423100009560585
  endloop
 endfacet
 facet normal 0.42906852811971957 -0.83946621903794094 0.3334616398797931
  outer loop
   vertex -0.0008580000139772892 -0.016548000276088715 0.01243900042027235
   vertex -0.0034870000090450048 -0.017108000814914703 0.014411999844014645
   vertex -0.0032949999440461397 -0.017593000084161758 0.012943999841809273
  endloop
 endfacet
 facet normal 0.63929932310749571 -0.75466712329518071 -0.14755984715251819
  outer loop
   vertex 3.8999998650979251e-05 -0.015469999983906746 0.010812000371515751
   vertex -0.0008580000139772892 -0.016548000276088715 0.01243900042027235
   vertex -0.00145800004247576 -0.016456000506877899 0.0093689998611807823
  endloop
 endfacet
 facet normal 0.65390811071124022 0.10393958476139434 -0.74940025718282577
  outer loop
   vertex -0.00145800004247576 -0.016456000506877899 0.0093689998611807823
   vertex -0.0016659999964758754 -0.01382800005376339 0.0095520000904798508
   vertex 3.8999998650979251e-05 -0.015469999983906746 0.010812000371515751
  endloop
 endfacet
 facet normal 0.2737782815017108 -0.78288202211787605 0.55869597458957543
  outer loop
   vertex -0.0052060000598430634 -0.015742000192403793 0.019711999222636223
   vertex -0.0033839999232441187 -0.014449000358581543 0.020631000399589539
   vertex -0.0047180000692605972 -0.014213999733328819 0.021614000201225281
  endloop
 endfacet
 facet normal 0.41746352511083895 -0.83800558391451463 0.35138418651118219
  outer loop
   vertex -0.0052060000598430634 -0.015742000192403793 0.019711999222636223
   vertex -0.0034870000090450048 -0.017108000814914703 0.014411999844014645
   vertex -0.0033839999232441187 -0.014449000358581543 0.020631000399589539
  endloop
 endfacet
 facet normal 0.077547743884272657 -0.95907132629835423 0.27233901389770604
  outer loop
   vertex -0.0034870000090450048 -0.017108000814914703 0.014411999844014645
   vertex -0.0052060000598430634 -0.015742000192403793 0.019711999222636223
   vertex -0.0046569998376071453 -0.017254000529646873 0.01423100009560585
  endloop
 endfacet
 facet normal 0.10958268860379403 -0.13866557949122033 0.98425783787721399
  outer loop
   vertex -0.0047180000692605972 -0.014213999733328819 0.021614000201225281
   vertex -0.003759999992325902 -0.013172999955713749 0.021654000505805016
   vertex -0.0041809999383985996 -0.01244099996984005 0.021803999319672585
  endloop
 endfacet
 facet normal 0.00092490201306184361 -0.106829351348153 0.99427694041790959
  outer loop
   vertex -0.0047180000692605972 -0.014213999733328819 0.021614000201225281
   vertex -0.0041809999383985996 -0.01244099996984005 0.021803999319672585
   vertex -0.0046640001237392426 -0.012864000163972378 0.021758999675512314
  endloop
 endfacet
 facet normal 0.47157742059654945 -0.46282022252600186 0.7506078723304781
  outer loop
   vertex -0.0033839999232441187 -0.014449000358581543 0.020631000399589539
   vertex -0.003759999992325902 -0.013172999955713749 0.021654000505805016
   vertex -0.0047180000692605972 -0.014213999733328819 0.021614000201225281
  endloop
 endfacet
 facet normal -0.69492286215451926 0.67970458143114709 0.23469959019239967
  outer loop
   vertex -0.0054040001705288887 3.8999998650979251e-05 0.012474999763071537
   vertex -0.004120000172406435 0.0032639999408274889 0.0069369999691843987
   vertex -0.0075019998475909233 5.8000001445179805e-05 0.0062079997733235359
  endloop
 endfacet
 facet normal -0.21777467069852907 0.85965335041145408 0.46213667883918169
  outer loop
   vertex -0.0054040001705288887 3.8999998650979251e-05 0.012474999763071537
   vertex -0.0008829999715089798 0.0008009999874047935 0.013187999837100506
   vertex 0.0010440000332891941 0.0036539998836815357 0.0087890001013875008
  endloop
 endfacet
 facet normal -0.16253429411300299 0.8315224251274822 0.53118081643381887
  outer loop
   vertex -0.00088399997912347317 0.0043580001220107079 0.0070969997905194759
   vertex -0.0054040001705288887 3.8999998650979251e-05 0.012474999763071537
   vertex 0.0010440000332891941 0.0036539998836815357 0.0087890001013875008
  endloop
 endfacet
 facet normal -0.30877838253834128 0.85131668392489601 0.42416484313073904
  outer loop
   vertex -0.004120000172406435 0.0032639999408274889 0.0069369999691843987
   vertex -0.0054040001705288887 3.8999998650979251e-05 0.012474999763071537
   vertex -0.00088399997912347317 0.0043580001220107079 0.0070969997905194759
  endloop
 endfacet
 facet normal -0.47386018575440075 0.054159599763382478 0.87893302481490299
  outer loop
   vertex -0.0046640001237392426 -0.012864000163972378 0.021758999675512314
   vertex -0.0045920000411570072 -0.011520000174641609 0.02171500027179718
   vertex -0.0052700000815093517 -0.010847000405192375 0.021307999268174171
  endloop
 endfacet
 facet normal 0.092858178919340756 0.5820783847332387 0.80781316691059668
  outer loop
   vertex -0.0052700000815093517 -0.010847000405192375 0.021307999268174171
   vertex -0.0045920000411570072 -0.011520000174641609 0.02171500027179718
   vertex -0.0044309999793767929 -0.010212000459432602 0.020754000172019005
  endloop
 endfacet
 facet normal 0.37648583340031083 0.31285200605566954 0.87199887589137215
  outer loop
   vertex -0.0008829999715089798 0.0008009999874047935 0.013187999837100506
   vertex -0.0033060000278055668 -0.0047619999386370182 0.016230000182986259
   vertex -0.00045900000259280205 -0.0014680000022053719 0.013818999752402306
  endloop
 endfacet
 facet normal 0.78875132605526899 0.29705483456222476 0.53817262185033565
  outer loop
   vertex 0.0010440000332891941 0.0036539998836815357 0.0087890001013875008
   vertex -0.0008829999715089798 0.0008009999874047935 0.013187999837100506
   vertex -0.00045900000259280205 -0.0014680000022053719 0.013818999752402306
  endloop
 endfacet
 facet normal 0.3526421617592575 0.55351063812558465 0.75449948921888987
  outer loop
   vertex -0.0044309999793767929 -0.010212000459432602 0.020754000172019005
   vertex -0.0022090000566095114 -0.0068689999170601368 0.017263000831007957
   vertex -0.0033060000278055668 -0.0047619999386370182 0.016230000182986259
  endloop
 endfacet
 facet normal 0.42984709634043317 0.49964304276698995 0.75205605082483196
  outer loop
   vertex -0.0031699999235570431 -0.011630999855697155 0.020975999534130096
   vertex -0.0022090000566095114 -0.0068689999170601368 0.017263000831007957
   vertex -0.0044309999793767929 -0.010212000459432602 0.020754000172019005
  endloop
 endfacet
 facet normal 0.42984123316326334 0.49963879790988147 0.75206222209060181
  outer loop
   vertex -0.0044309999793767929 -0.010212000459432602 0.020754000172019005
   vertex -0.0045920000411570072 -0.011520000174641609 0.02171500027179718
   vertex -0.0031699999235570431 -0.011630999855697155 0.020975999534130096
  endloop
 endfacet
 facet normal 0.14918208611275482 0.49682069076153501 0.85493503052236541
  outer loop
   vertex -0.0022090000566095114 -0.0068689999170601368 0.017263000831007957
   vertex -0.00045900000259280205 -0.0014680000022053719 0.013818999752402306
   vertex -0.0033060000278055668 -0.0047619999386370182 0.016230000182986259
  endloop
 endfacet
 facet normal -0.79370552371113812 0.12629311218813158 -0.59504755393519948
  outer loop
   vertex -0.0076750000007450581 -0.0019819999579340219 0.00304200011305511
   vertex -0.0046040001325309277 -0.00081699999282136559 -0.00080699997488409281
   vertex -0.0079260002821683884 -0.0043509998358786106 0.0028739999979734421
  endloop
 endfacet
 facet normal -0.73368723008919712 0.45392382539981846 -0.5056245733134781
  outer loop
   vertex -0.0068549998104572296 0.00061099999584257603 0.0041800001636147499
   vertex -0.0038179999683052301 0.0017470000311732292 0.00079299998469650745
   vertex -0.0076750000007450581 -0.0019819999579340219 0.00304200011305511
  endloop
 endfacet
 facet normal -0.74338232202379706 0.50300272566806692 -0.44087524456812377
  outer loop
   vertex -0.0076750000007450581 -0.0019819999579340219 0.00304200011305511
   vertex -0.0038179999683052301 0.0017470000311732292 0.00079299998469650745
   vertex -0.0046040001325309277 -0.00081699999282136559 -0.00080699997488409281
  endloop
 endfacet
 facet normal -0.68552641014531879 0.72776589447332374 -0.020256945345114744
  outer loop
   vertex -0.0075019998475909233 5.8000001445179805e-05 0.0062079997733235359
   vertex -0.004120000172406435 0.0032639999408274889 0.0069369999691843987
   vertex -0.0068549998104572296 0.00061099999584257603 0.0041800001636147499
  endloop
 endfacet
 facet normal -0.54929356979103561 0.80376997222945734 -0.22853972505557596
  outer loop
   vertex -0.0068549998104572296 0.00061099999584257603 0.0041800001636147499
   vertex -0.004120000172406435 0.0032639999408274889 0.0069369999691843987
   vertex -0.0022529999259859324 0.0040190001018345356 0.0051049999892711639
  endloop
 endfacet
 facet normal -0.55054786868287775 0.80421088227216275 -0.22392387350117529
  outer loop
   vertex -0.0022529999259859324 0.0040190001018345356 0.0051049999892711639
   vertex -0.0038179999683052301 0.0017470000311732292 0.00079299998469650745
   vertex -0.0068549998104572296 0.00061099999584257603 0.0041800001636147499
  endloop
 endfacet
 facet normal -0.60454225807993667 -0.39651663257449282 -0.69087134713157405
  outer loop
   vertex -0.0047789998352527618 -0.0063399998471140862 0.0013099999632686377
   vertex -0.0074269999749958515 -0.0055539999157190323 0.0031759999692440033
   vertex -0.0041880002245306969 -0.003894000081345439 -0.00061099999584257603
  endloop
 endfacet
 facet normal -0.47295631138231625 -0.81838130756796179 -0.32644197485462328
  outer loop
   vertex -0.0056770001538097858 -0.0065489998087286949 0.0031349998898804188
   vertex -0.0074269999749958515 -0.0055539999157190323 0.0031759999692440033
   vertex -0.0047789998352527618 -0.0063399998471140862 0.0013099999632686377
  endloop
 endfacet
 facet normal -0.59147923258760393 -0.41838033804044139 -0.68928238781993056
  outer loop
   vertex -0.0079260002821683884 -0.0043509998358786106 0.0028739999979734421
   vertex -0.0041880002245306969 -0.003894000081345439 -0.00061099999584257603
   vertex -0.0074269999749958515 -0.0055539999157190323 0.0031759999692440033
  endloop
 endfacet
 facet normal -0.66651224540171905 -0.13679070908089119 -0.73283676807233511
  outer loop
   vertex -0.0041880002245306969 -0.003894000081345439 -0.00061099999584257603
   vertex -0.0079260002821683884 -0.0043509998358786106 0.0028739999979734421
   vertex -0.0046040001325309277 -0.00081699999282136559 -0.00080699997488409281
  endloop
 endfacet
 facet normal -0.12670585426500103 0.03923620458928137 0.99116403624445759
  outer loop
   vertex -0.0046640001237392426 -0.012864000163972378 0.021758999675512314
   vertex -0.0041809999383985996 -0.01244099996984005 0.021803999319672585
   vertex -0.0045920000411570072 -0.011520000174641609 0.02171500027179718
  endloop
 endfacet
 facet normal 0.75399739197264737 0.36264363421316848 -0.54770204259534361
  outer loop
   vertex -0.0016659999964758754 -0.01382800005376339 0.0095520000904798508
   vertex -0.00015199999324977398 -0.012892000377178192 0.012256000190973282
   vertex 3.8999998650979251e-05 -0.015469999983906746 0.010812000371515751
  endloop
 endfacet
 facet normal 0.86616562242027151 0.038427027246616598 -0.49827751114644087
  outer loop
   vertex -6.5000000176951289e-05 -0.0058670002035796642 0.012949000112712383
   vertex -0.00015199999324977398 -0.012892000377178192 0.012256000190973282
   vertex -0.0016659999964758754 -0.01382800005376339 0.0095520000904798508
  endloop
 endfacet
 facet normal 0.97589703935586203 -0.16495248089450654 0.142883335708579
  outer loop
   vertex -6.5000000176951289e-05 -0.0058670002035796642 0.012949000112712383
   vertex 0.0010509999701753259 -0.0013200000394135714 0.010576000437140465
   vertex -0.00083799997810274363 -0.0078779999166727066 0.015907000750303268
  endloop
 endfacet
 facet normal 0.9591986935047172 0.042456621143684217 0.27952692482103608
  outer loop
   vertex -6.5000000176951289e-05 -0.0058670002035796642 0.012949000112712383
   vertex -0.00083799997810274363 -0.0078779999166727066 0.015907000750303268
   vertex 9.9999997473787516e-05 -0.015190999954938889 0.013798999600112438
  endloop
 endfacet
 facet normal 0.98766908166361644 0.0032090116299429011 -0.15652312088029502
  outer loop
   vertex -0.00015199999324977398 -0.012892000377178192 0.012256000190973282
   vertex -6.5000000176951289e-05 -0.0058670002035796642 0.012949000112712383
   vertex 9.9999997473787516e-05 -0.015190999954938889 0.013798999600112438
  endloop
 endfacet
 facet normal 0.66180429451762968 -0.66062660682374974 -0.35438335473687405
  outer loop
   vertex -0.0038459999486804008 -0.0053300000727176666 0.0048870001919567585
   vertex -6.5000000176951289e-05 -0.0058670002035796642 0.012949000112712383
   vertex -0.0060530002228915691 -0.0078290002420544624 0.0054239998571574688
  endloop
 endfacet
 facet normal 0.8135904260164426 -0.41318040423886998 -0.40908748727795058
  outer loop
   vertex -0.0038459999486804008 -0.0053300000727176666 0.0048870001919567585
   vertex 0.0010509999701753259 -0.0013200000394135714 0.010576000437140465
   vertex -6.5000000176951289e-05 -0.0058670002035796642 0.012949000112712383
  endloop
 endfacet
 facet normal 0.69522393611803546 -0.66995313928949973 -0.26043515470206807
  outer loop
   vertex -0.0060530002228915691 -0.0078290002420544624 0.0054239998571574688
   vertex -0.0056770001538097858 -0.0065489998087286949 0.0031349998898804188
   vertex -0.0038459999486804008 -0.0053300000727176666 0.0048870001919567585
  endloop
 endfacet
 facet normal 0.46253723158728294 -0.87744098172345175 0.12710874473362324
  outer loop
   vertex -0.0056770001538097858 -0.0065489998087286949 0.0031349998898804188
   vertex -0.0047789998352527618 -0.0063399998471140862 0.0013099999632686377
   vertex -0.0038459999486804008 -0.0053300000727176666 0.0048870001919567585
  endloop
 endfacet
 facet normal 0.48208842780884009 -0.76618739871614649 0.42490895239025683
  outer loop
   vertex -0.0008580000139772892 -0.016548000276088715 0.01243900042027235
   vertex 9.9999997473787516e-05 -0.015190999954938889 0.013798999600112438
   vertex -0.0034870000090450048 -0.017108000814914703 0.014411999844014645
  endloop
 endfacet
 facet normal 0.79694257160916515 -0.60272773850371575 0.04002262853895254
  outer loop
   vertex 9.9999997473787516e-05 -0.015190999954938889 0.013798999600112438
   vertex -0.0008580000139772892 -0.016548000276088715 0.01243900042027235
   vertex 3.8999998650979251e-05 -0.015469999983906746 0.010812000371515751
  endloop
 endfacet
 facet normal 0.48794787256977529 -0.80548227842806042 0.33631112499138477
  outer loop
   vertex -0.0033839999232441187 -0.014449000358581543 0.020631000399589539
   vertex -0.0034870000090450048 -0.017108000814914703 0.014411999844014645
   vertex 9.9999997473787516e-05 -0.015190999954938889 0.013798999600112438
  endloop
 endfacet
 facet normal 0.99554136280434213 0.089846489071547589 -0.028722871499719482
  outer loop
   vertex 3.8999998650979251e-05 -0.015469999983906746 0.010812000371515751
   vertex -0.00015199999324977398 -0.012892000377178192 0.012256000190973282
   vertex 9.9999997473787516e-05 -0.015190999954938889 0.013798999600112438
  endloop
 endfacet
 facet normal 0.78769218691002663 -0.22704259533975135 0.57270645062046366
  outer loop
   vertex -0.003759999992325902 -0.013172999955713749 0.021654000505805016
   vertex -0.0033839999232441187 -0.014449000358581543 0.020631000399589539
   vertex -0.0015920000150799751 -0.012171999551355839 0.019068999215960503
  endloop
 endfacet
 facet normal 0.82405453955739794 -0.33527849827368156 0.45664257842451544
  outer loop
   vertex 9.9999997473787516e-05 -0.015190999954938889 0.013798999600112438
   vertex -0.0015920000150799751 -0.012171999551355839 0.019068999215960503
   vertex -0.0033839999232441187 -0.014449000358581543 0.020631000399589539
  endloop
 endfacet
 facet normal 0.76858008741409567 -0.012837933017935932 0.63962476242432031
  outer loop
   vertex -0.0015920000150799751 -0.012171999551355839 0.019068999215960503
   vertex -0.0031699999235570431 -0.011630999855697155 0.020975999534130096
   vertex -0.003759999992325902 -0.013172999955713749 0.021654000505805016
  endloop
 endfacet
 facet normal 0.55208434994979583 0.14943339470116224 0.82028807810951276
  outer loop
   vertex -0.0031699999235570431 -0.011630999855697155 0.020975999534130096
   vertex -0.0041809999383985996 -0.01244099996984005 0.021803999319672585
   vertex -0.003759999992325902 -0.013172999955713749 0.021654000505805016
  endloop
 endfacet
 facet normal 0.45933977331376524 0.28623888456223251 0.84087708591483667
  outer loop
   vertex -0.0031699999235570431 -0.011630999855697155 0.020975999534130096
   vertex -0.0045920000411570072 -0.011520000174641609 0.02171500027179718
   vertex -0.0041809999383985996 -0.01244099996984005 0.021803999319672585
  endloop
 endfacet
 facet normal -0.32236847789711831 0.94466069354112381 0.060784360954921325
  outer loop
   vertex -0.004120000172406435 0.0032639999408274889 0.0069369999691843987
   vertex -0.00088399997912347317 0.0043580001220107079 0.0070969997905194759
   vertex -0.0022529999259859324 0.0040190001018345356 0.0051049999892711639
  endloop
 endfacet
 facet normal 0.89315521105325535 0.15317710629075332 0.4228599568140804
  outer loop
   vertex 0.0010440000332891941 0.0036539998836815357 0.0087890001013875008
   vertex -0.00045900000259280205 -0.0014680000022053719 0.013818999752402306
   vertex 0.0010509999701753259 -0.0013200000394135714 0.010576000437140465
  endloop
 endfacet
 facet normal 0.91281340504350794 0.13921336468292442 0.38391578069484961
  outer loop
   vertex 0.0010509999701753259 -0.0013200000394135714 0.010576000437140465
   vertex 0.0026519999373704195 0.00042399999802000821 0.0061369999311864376
   vertex 0.0010440000332891941 0.0036539998836815357 0.0087890001013875008
  endloop
 endfacet
 facet normal 0.91890705264699413 0.1622385550289826 0.35956707282191736
  outer loop
   vertex 0.0020039998926222324 0.0038459999486804008 0.0062489998526871204
   vertex 0.0010440000332891941 0.0036539998836815357 0.0087890001013875008
   vertex 0.0026519999373704195 0.00042399999802000821 0.0061369999311864376
  endloop
 endfacet
 facet normal 0.21630554570263291 0.96400398332480142 0.1546228671063955
  outer loop
   vertex 0.0010440000332891941 0.0036539998836815357 0.0087890001013875008
   vertex 0.0020039998926222324 0.0038459999486804008 0.0062489998526871204
   vertex -0.00088399997912347317 0.0043580001220107079 0.0070969997905194759
  endloop
 endfacet
 facet normal 0.16866653585995486 0.9854584458598592 -0.020573068912382031
  outer loop
   vertex 0.0020039998926222324 0.0038459999486804008 0.0062489998526871204
   vertex -0.00024199999461416155 0.0041809999383985996 0.0038819999899715185
   vertex -0.00088399997912347317 0.0043580001220107079 0.0070969997905194759
  endloop
 endfacet
 facet normal -0.12830904352629585 0.98849879890766412 -0.08004320025756495
  outer loop
   vertex -0.0022529999259859324 0.0040190001018345356 0.0051049999892711639
   vertex -0.00088399997912347317 0.0043580001220107079 0.0070969997905194759
   vertex -0.00024199999461416155 0.0041809999383985996 0.0038819999899715185
  endloop
 endfacet
 facet normal 0.75196868921659643 0.16355295792018615 0.63858712827102271
  outer loop
   vertex -0.00045900000259280205 -0.0014680000022053719 0.013818999752402306
   vertex -0.0022090000566095114 -0.0068689999170601368 0.017263000831007957
   vertex -0.00083799997810274363 -0.0078779999166727066 0.015907000750303268
  endloop
 endfacet
 facet normal 0.90180302789555544 0.084716476742608571 0.42376221805008435
  outer loop
   vertex -0.00083799997810274363 -0.0078779999166727066 0.015907000750303268
   vertex 0.0010509999701753259 -0.0013200000394135714 0.010576000437140465
   vertex -0.00045900000259280205 -0.0014680000022053719 0.013818999752402306
  endloop
 endfacet
 facet normal 0.77692545439559757 0.28208439920739348 0.56286342041031412
  outer loop
   vertex -0.0015920000150799751 -0.012171999551355839 0.019068999215960503
   vertex -0.0022090000566095114 -0.0068689999170601368 0.017263000831007957
   vertex -0.0031699999235570431 -0.011630999855697155 0.020975999534130096
  endloop
 endfacet
 facet normal 0.77172273512642831 0.28363844303453462 0.5692040527982295
  outer loop
   vertex -0.0015920000150799751 -0.012171999551355839 0.019068999215960503
   vertex -0.00083799997810274363 -0.0078779999166727066 0.015907000750303268
   vertex -0.0022090000566095114 -0.0068689999170601368 0.017263000831007957
  endloop
 endfacet
 facet normal -0.31020916836552892 -0.10214471281541981 -0.94516492185534606
  outer loop
   vertex -0.0026400000788271427 -0.0021919999271631241 -0.0013030000263825059
   vertex -0.0041880002245306969 -0.003894000081345439 -0.00061099999584257603
   vertex -0.0046040001325309277 -0.00081699999282136559 -0.00080699997488409281
  endloop
 endfacet
 facet normal -0.24114594182604443 0.0056318391724345298 -0.97047252260348194
  outer loop
   vertex -0.0046040001325309277 -0.00081699999282136559 -0.00080699997488409281
   vertex -0.001943000010214746 0.00042600001324899495 -0.0014609999489039183
   vertex -0.0026400000788271427 -0.0021919999271631241 -0.0013030000263825059
  endloop
 endfacet
 facet normal -0.43694817563323163 0.56878257782786223 -0.69682327097355345
  outer loop
   vertex -0.0038179999683052301 0.0017470000311732292 0.00079299998469650745
   vertex -0.001943000010214746 0.00042600001324899495 -0.0014609999489039183
   vertex -0.0046040001325309277 -0.00081699999282136559 -0.00080699997488409281
  endloop
 endfacet
 facet normal -0.29841358903192139 0.88667730590831162 -0.35320346129145719
  outer loop
   vertex -0.0038179999683052301 0.0017470000311732292 0.00079299998469650745
   vertex -0.00024199999461416155 0.0041809999383985996 0.0038819999899715185
   vertex -0.0007570000016130507 0.002340999897569418 -0.00030200000037439167
  endloop
 endfacet
 facet normal -0.29101684372415554 0.88592489211122405 -0.36117347937874184
  outer loop
   vertex -0.0038179999683052301 0.0017470000311732292 0.00079299998469650745
   vertex -0.0022529999259859324 0.0040190001018345356 0.0051049999892711639
   vertex -0.00024199999461416155 0.0041809999383985996 0.0038819999899715185
  endloop
 endfacet
 facet normal -0.36623107118226123 0.63721890277035975 -0.67810535498020674
  outer loop
   vertex -0.0007570000016130507 0.002340999897569418 -0.00030200000037439167
   vertex -0.001943000010214746 0.00042600001324899495 -0.0014609999489039183
   vertex -0.0038179999683052301 0.0017470000311732292 0.00079299998469650745
  endloop
 endfacet
 facet normal -0.059475611195592346 -0.60763004846969704 -0.79199013621990533
  outer loop
   vertex -0.0032399999909102917 -0.0057489997707307339 0.00074099999619647861
   vertex -0.0047789998352527618 -0.0063399998471140862 0.0013099999632686377
   vertex -0.0041880002245306969 -0.003894000081345439 -0.00061099999584257603
  endloop
 endfacet
 facet normal 0.40229895657708453 -0.90312440652377968 0.15007283524362428
  outer loop
   vertex -0.0047789998352527618 -0.0063399998471140862 0.0013099999632686377
   vertex -0.0032399999909102917 -0.0057489997707307339 0.00074099999619647861
   vertex -0.0038459999486804008 -0.0053300000727176666 0.0048870001919567585
  endloop
 endfacet
 facet normal 0.18989554250066742 -0.51305627197238035 -0.83708598407103918
  outer loop
   vertex -0.0041880002245306969 -0.003894000081345439 -0.00061099999584257603
   vertex -0.0026400000788271427 -0.0021919999271631241 -0.0013030000263825059
   vertex -0.0032399999909102917 -0.0057489997707307339 0.00074099999619647861
  endloop
 endfacet
 facet normal 0.66756939097149237 -0.74279471129829977 -0.051060014739777365
  outer loop
   vertex -0.0038459999486804008 -0.0053300000727176666 0.0048870001919567585
   vertex 0.0026519999373704195 0.00042399999802000821 0.0061369999311864376
   vertex 0.0010509999701753259 -0.0013200000394135714 0.010576000437140465
  endloop
 endfacet
 facet normal 0.95792523322304535 0.040981701013054851 0.28407701022196574
  outer loop
   vertex 9.9999997473787516e-05 -0.015190999954938889 0.013798999600112438
   vertex -0.00083799997810274363 -0.0078779999166727066 0.015907000750303268
   vertex -0.0015920000150799751 -0.012171999551355839 0.019068999215960503
  endloop
 endfacet
 facet normal 0.63499104051266153 -0.75380854976008149 0.16899422705302838
  outer loop
   vertex -0.0032399999909102917 -0.0057489997707307339 0.00074099999619647861
   vertex 0.0026519999373704195 0.00042399999802000821 0.0061369999311864376
   vertex -0.0038459999486804008 -0.0053300000727176666 0.0048870001919567585
  endloop
 endfacet
 facet normal 0.94277227951417908 0.18754935349713001 -0.27569125663039684
  outer loop
   vertex 0.0020039998926222324 0.0038459999486804008 0.0062489998526871204
   vertex 0.0026519999373704195 0.00042399999802000821 0.0061369999311864376
   vertex 0.0019460000330582261 0.0021089999936521053 0.0048690000548958778
  endloop
 endfacet
 facet normal 0.94826246132913017 0.25588487399715004 -0.18793944687979272
  outer loop
   vertex 0.0019460000330582261 0.0021089999936521053 0.0048690000548958778
   vertex 0.0026519999373704195 0.00042399999802000821 0.0061369999311864376
   vertex 0.0019490000559017062 0.00044900001375935972 0.0026239999569952488
  endloop
 endfacet
 facet normal 0.78027525625616412 -0.60450613823535904 -0.16044579555149061
  outer loop
   vertex 0.0026519999373704195 0.00042399999802000821 0.0061369999311864376
   vertex -0.0032399999909102917 -0.0057489997707307339 0.00074099999619647861
   vertex 0.0019490000559017062 0.00044900001375935972 0.0026239999569952488
  endloop
 endfacet
 facet normal 0.86085457507170349 0.29860056321611733 -0.41202803815412198
  outer loop
   vertex -3.9999998989515007e-05 0.003240999998524785 0.0015399999683722854
   vertex 0.0020039998926222324 0.0038459999486804008 0.0062489998526871204
   vertex 0.0019460000330582261 0.0021089999936521053 0.0048690000548958778
  endloop
 endfacet
 facet normal 0.44295814437504233 0.84458201071359473 -0.30078116548547479
  outer loop
   vertex 0.0020039998926222324 0.0038459999486804008 0.0062489998526871204
   vertex -3.9999998989515007e-05 0.003240999998524785 0.0015399999683722854
   vertex -0.00024199999461416155 0.0041809999383985996 0.0038819999899715185
  endloop
 endfacet
 facet normal -0.16693560520615722 0.90995512848362525 -0.37962371878058809
  outer loop
   vertex -0.00024199999461416155 0.0041809999383985996 0.0038819999899715185
   vertex -3.9999998989515007e-05 0.003240999998524785 0.0015399999683722854
   vertex -0.0007570000016130507 0.002340999897569418 -0.00030200000037439167
  endloop
 endfacet
 facet normal 0.70552045984089418 -0.22832325149256169 -0.67090191054561599
  outer loop
   vertex -0.0026400000788271427 -0.0021919999271631241 -0.0013030000263825059
   vertex -0.001943000010214746 0.00042600001324899495 -0.0014609999489039183
   vertex 0.0019490000559017062 0.00044900001375935972 0.0026239999569952488
  endloop
 endfacet
 facet normal 0.71677710366530212 -0.43436660692985979 -0.54548715332757503
  outer loop
   vertex -0.0032399999909102917 -0.0057489997707307339 0.00074099999619647861
   vertex -0.0026400000788271427 -0.0021919999271631241 -0.0013030000263825059
   vertex 0.0019490000559017062 0.00044900001375935972 0.0026239999569952488
  endloop
 endfacet
 facet normal 0.72374212982950692 -0.031004776788405859 -0.68937365290976271
  outer loop
   vertex -0.001943000010214746 0.00042600001324899495 -0.0014609999489039183
   vertex -0.0007570000016130507 0.002340999897569418 -0.00030200000037439167
   vertex 0.0019490000559017062 0.00044900001375935972 0.0026239999569952488
  endloop
 endfacet
 facet normal 0.78892751476474421 0.37219262899369843 -0.48894378344538064
  outer loop
   vertex 0.0019490000559017062 0.00044900001375935972 0.0026239999569952488
   vertex -0.0007570000016130507 0.002340999897569418 -0.00030200000037439167
   vertex -3.9999998989515007e-05 0.003240999998524785 0.0015399999683722854
  endloop
 endfacet
 facet normal 0.82381942596782332 0.4563115439265405 -0.33630540923009694
  outer loop
   vertex -3.9999998989515007e-05 0.003240999998524785 0.0015399999683722854
   vertex 0.0019460000330582261 0.0021089999936521053 0.0048690000548958778
   vertex 0.0019490000559017062 0.00044900001375935972 0.0026239999569952488
  endloop
 endfacet
endsolid
