solid Visualization Toolkit generated SLA File
 facet normal -0.38432816253116747 -0.28289061100742791 0.87878596124953012
  outer loop
   vertex 0.023482000455260277 -0.088596001267433167 0.057583000510931015
   vertex 0.024971000850200653 -0.08819899708032608 0.058361999690532684
   vertex 0.024320000782608986 -0.086801998317241669 0.058527000248432159
  endloop
 endfacet
 facet normal -0.36307882898788546 0.28393723421316053 0.8874420606260256
  outer loop
   vertex 0.020919999107718468 -0.087186999619007111 0.056083999574184418
   vertex 0.023482000455260277 -0.088596001267433167 0.057583000510931015
   vertex 0.020929999649524689 -0.086621001362800598 0.055906999856233597
  endloop
 endfacet
 facet normal -0.33183614471503131 -0.41636865057530625 0.84647617797476338
  outer loop
   vertex 0.023941000923514366 -0.089220002293586731 0.05745600163936615
   vertex 0.024971000850200653 -0.08819899708032608 0.058361999690532684
   vertex 0.023482000455260277 -0.088596001267433167 0.057583000510931015
  endloop
 endfacet
 facet normal -0.60531257048423737 -0.33003512321985057 0.72434350239028389
  outer loop
   vertex 0.020919999107718468 -0.087186999619007111 0.056083999574184418
   vertex 0.022634999826550484 -0.088682003319263458 0.056836001574993134
   vertex 0.023482000455260277 -0.088596001267433167 0.057583000510931015
  endloop
 endfacet
 facet normal -0.53178178667442255 -0.52621526103550798 0.66355529567225291
  outer loop
   vertex 0.023941000923514366 -0.089220002293586731 0.05745600163936615
   vertex 0.023482000455260277 -0.088596001267433167 0.057583000510931015
   vertex 0.022634999826550484 -0.088682003319263458 0.056836001574993134
  endloop
 endfacet
 facet normal -0.61084416324744939 -0.12597712926193233 0.78166435963874259
  outer loop
   vertex 0.020929999649524689 -0.086621001362800598 0.055906999856233597
   vertex 0.023482000455260277 -0.088596001267433167 0.057583000510931015
   vertex 0.024320000782608986 -0.086801998317241669 0.058527000248432159
  endloop
 endfacet
 facet normal 0.5081058553232356 0.1363311497461257 0.85043650991425723
  outer loop
   vertex 0.028528999537229538 -0.089046001434326172 0.056372001767158508
   vertex 0.024320000782608986 -0.086801998317241669 0.058527000248432159
   vertex 0.024971000850200653 -0.08819899708032608 0.058361999690532684
  endloop
 endfacet
 facet normal 0.51711810221879484 0.24656663620908342 0.81963025948666002
  outer loop
   vertex 0.026050999760627747 -0.089273996651172638 0.058003999292850494
   vertex 0.028528999537229538 -0.089046001434326172 0.056372001767158508
   vertex 0.024971000850200653 -0.08819899708032608 0.058361999690532684
  endloop
 endfacet
 facet normal -0.2288390198521402 -0.50670953289176179 0.83119080376874033
  outer loop
   vertex 0.026050999760627747 -0.089273996651172638 0.058003999292850494
   vertex 0.024971000850200653 -0.08819899708032608 0.058361999690532684
   vertex 0.023941000923514366 -0.089220002293586731 0.05745600163936615
  endloop
 endfacet
 facet normal 0.054601786397458899 0.23969740382713378 0.9693109921592441
  outer loop
   vertex 0.024274999275803566 -0.083406999707221985 0.057689998298883438
   vertex 0.024320000782608986 -0.086801998317241669 0.058527000248432159
   vertex 0.02527100034058094 -0.083366997539997101 0.057624001055955887
  endloop
 endfacet
 facet normal 0.49200161157711109 0.091385580534649236 0.86578466715221436
  outer loop
   vertex 0.02527100034058094 -0.083366997539997101 0.057624001055955887
   vertex 0.024320000782608986 -0.086801998317241669 0.058527000248432159
   vertex 0.028528999537229538 -0.089046001434326172 0.056372001767158508
  endloop
 endfacet
 facet normal 0.0051843340461788564 0.23943383204844512 0.97089884269737114
  outer loop
   vertex 0.02170800045132637 -0.081254996359348297 0.057172998785972595
   vertex 0.024320000782608986 -0.086801998317241669 0.058527000248432159
   vertex 0.024274999275803566 -0.083406999707221985 0.057689998298883438
  endloop
 endfacet
 facet normal -0.61202954121856756 -0.090296306598312573 0.78566304335286963
  outer loop
   vertex 0.019350999966263771 -0.080269001424312592 0.055406998842954636
   vertex 0.020929999649524689 -0.086621001362800598 0.055906999856233597
   vertex 0.024320000782608986 -0.086801998317241669 0.058527000248432159
  endloop
 endfacet
 facet normal -0.62403131037823623 -0.10483489637852469 0.77433491989508352
  outer loop
   vertex 0.019350999966263771 -0.080269001424312592 0.055406998842954636
   vertex 0.024320000782608986 -0.086801998317241669 0.058527000248432159
   vertex 0.02170800045132637 -0.081254996359348297 0.057172998785972595
  endloop
 endfacet
 facet normal -0.65350105657401025 -0.43978386532184804 0.61605723829789305
  outer loop
   vertex 0.022634999826550484 -0.088682003319263458 0.056836001574993134
   vertex 0.020919999107718468 -0.087186999619007111 0.056083999574184418
   vertex 0.020702000707387924 -0.088128000497817993 0.055181000381708145
  endloop
 endfacet
 facet normal -0.98378980158060192 0.069127236671180967 0.16546616408258966
  outer loop
   vertex 0.020919999107718468 -0.087186999619007111 0.056083999574184418
   vertex 0.020929999649524689 -0.086621001362800598 0.055906999856233597
   vertex 0.020702000707387924 -0.088128000497817993 0.055181000381708145
  endloop
 endfacet
 facet normal -0.88800582796348893 -0.18770010388701333 0.41977889478114894
  outer loop
   vertex 0.019350999966263771 -0.080269001424312592 0.055406998842954636
   vertex 0.019285000860691071 -0.081936001777648926 0.054522000253200531
   vertex 0.020929999649524689 -0.086621001362800598 0.055906999856233597
  endloop
 endfacet
 facet normal -0.90222040722855479 -0.20454411703639874 0.3796841331503607
  outer loop
   vertex 0.019285000860691071 -0.081936001777648926 0.054522000253200531
   vertex 0.019345000386238098 -0.085321001708507538 0.052841000258922577
   vertex 0.020929999649524689 -0.086621001362800598 0.055906999856233597
  endloop
 endfacet
 facet normal -0.88200880617827271 0.033243790684402336 0.47005884334294773
  outer loop
   vertex 0.020929999649524689 -0.086621001362800598 0.055906999856233597
   vertex 0.019345000386238098 -0.085321001708507538 0.052841000258922577
   vertex 0.02005700021982193 -0.087117001414299011 0.054303999990224838
  endloop
 endfacet
 facet normal -0.85772878527668694 -0.11195696016464371 0.5017638587806732
  outer loop
   vertex 0.02005700021982193 -0.087117001414299011 0.054303999990224838
   vertex 0.020702000707387924 -0.088128000497817993 0.055181000381708145
   vertex 0.020929999649524689 -0.086621001362800598 0.055906999856233597
  endloop
 endfacet
 facet normal -0.52828675428887328 -0.64175574127290469 0.55593405524953421
  outer loop
   vertex 0.023941000923514366 -0.089220002293586731 0.05745600163936615
   vertex 0.022634999826550484 -0.088682003319263458 0.056836001574993134
   vertex 0.022055000066757202 -0.089276999235153198 0.055597998201847076
  endloop
 endfacet
 facet normal -0.17085955507811373 -0.79697083117494427 0.57934834658849887
  outer loop
   vertex 0.023941000923514366 -0.089220002293586731 0.05745600163936615
   vertex 0.024785999208688736 -0.089745000004768372 0.056983001530170441
   vertex 0.026050999760627747 -0.089273996651172638 0.058003999292850494
  endloop
 endfacet
 facet normal -0.33451439360117174 -0.86833359108959784 0.3661924290029539
  outer loop
   vertex 0.022055000066757202 -0.089276999235153198 0.055597998201847076
   vertex 0.024785999208688736 -0.089745000004768372 0.056983001530170441
   vertex 0.023941000923514366 -0.089220002293586731 0.05745600163936615
  endloop
 endfacet
 facet normal -0.63097112488407181 -0.54129944555709297 0.55576105459281044
  outer loop
   vertex 0.020702000707387924 -0.088128000497817993 0.055181000381708145
   vertex 0.022055000066757202 -0.089276999235153198 0.055597998201847076
   vertex 0.022634999826550484 -0.088682003319263458 0.056836001574993134
  endloop
 endfacet
 facet normal 0.50477801765790808 0.037743333090019995 0.86242367412809851
  outer loop
   vertex 0.029046999290585518 -0.088478997349739075 0.056044001132249832
   vertex 0.02975199930369854 -0.085842996835708618 0.055516000837087631
   vertex 0.028528999537229538 -0.089046001434326172 0.056372001767158508
  endloop
 endfacet
 facet normal 0.4919495228594653 0.044528559756576901 0.86948425766332849
  outer loop
   vertex 0.029642999172210693 -0.085165999829769135 0.055543001741170883
   vertex 0.028528999537229538 -0.089046001434326172 0.056372001767158508
   vertex 0.02975199930369854 -0.085842996835708618 0.055516000837087631
  endloop
 endfacet
 facet normal 0.44738445840661717 0.062172532625599762 0.89217807783151493
  outer loop
   vertex 0.029642999172210693 -0.085165999829769135 0.055543001741170883
   vertex 0.028573000803589821 -0.083967000246047974 0.05599600076675415
   vertex 0.028528999537229538 -0.089046001434326172 0.056372001767158508
  endloop
 endfacet
 facet normal 0.35709445381217181 0.065883674889348542 0.93174185933640519
  outer loop
   vertex 0.028573000803589821 -0.083967000246047974 0.05599600076675415
   vertex 0.026104999706149101 -0.082795001566410065 0.056859001517295837
   vertex 0.028528999537229538 -0.089046001434326172 0.056372001767158508
  endloop
 endfacet
 facet normal 0.59946326240763337 0.17155039587461185 0.7818019306057391
  outer loop
   vertex 0.026104999706149101 -0.082795001566410065 0.056859001517295837
   vertex 0.02527100034058094 -0.083366997539997101 0.057624001055955887
   vertex 0.028528999537229538 -0.089046001434326172 0.056372001767158508
  endloop
 endfacet
 facet normal 0.40091099673877462 -0.76656519426619441 0.50164546806838994
  outer loop
   vertex 0.027484999969601631 -0.089983999729156494 0.055773001164197922
   vertex 0.028528999537229538 -0.089046001434326172 0.056372001767158508
   vertex 0.026050999760627747 -0.089273996651172638 0.058003999292850494
  endloop
 endfacet
 facet normal 0.76415077595863412 -0.63605622183723864 0.10726637061052643
  outer loop
   vertex 0.029046999290585518 -0.088478997349739075 0.056044001132249832
   vertex 0.028528999537229538 -0.089046001434326172 0.056372001767158508
   vertex 0.028441000729799271 -0.08934599906206131 0.055220000445842743
  endloop
 endfacet
 facet normal 0.60914151006121331 -0.77757500067609087 0.15596069711283742
  outer loop
   vertex 0.028528999537229538 -0.089046001434326172 0.056372001767158508
   vertex 0.027484999969601631 -0.089983999729156494 0.055773001164197922
   vertex 0.028441000729799271 -0.08934599906206131 0.055220000445842743
  endloop
 endfacet
 facet normal 0.0711927994237367 -0.93635829614712929 0.3437509658846889
  outer loop
   vertex 0.027484999969601631 -0.089983999729156494 0.055773001164197922
   vertex 0.026050999760627747 -0.089273996651172638 0.058003999292850494
   vertex 0.024785999208688736 -0.089745000004768372 0.056983001530170441
  endloop
 endfacet
 facet normal 0.15871301080581704 0.40557858891884158 0.90017564308947717
  outer loop
   vertex 0.02170800045132637 -0.081254996359348297 0.057172998785972595
   vertex 0.024274999275803566 -0.083406999707221985 0.057689998298883438
   vertex 0.025141000747680664 -0.082846999168395996 0.057284999638795853
  endloop
 endfacet
 facet normal 0.033071535801744517 0.55161329188750896 0.8334440891462005
  outer loop
   vertex 0.02527100034058094 -0.083366997539997101 0.057624001055955887
   vertex 0.025141000747680664 -0.082846999168395996 0.057284999638795853
   vertex 0.024274999275803566 -0.083406999707221985 0.057689998298883438
  endloop
 endfacet
 facet normal 0.30539432739564176 0.57243588470839513 0.76095431051586837
  outer loop
   vertex 0.025141000747680664 -0.082846999168395996 0.057284999638795853
   vertex 0.02527100034058094 -0.083366997539997101 0.057624001055955887
   vertex 0.026104999706149101 -0.082795001566410065 0.056859001517295837
  endloop
 endfacet
 facet normal -0.028329538627363995 0.0092310211051976152 0.99955601418355533
  outer loop
   vertex 0.025141000747680664 -0.082846999168395996 0.057284999638795853
   vertex 0.023439999669790268 -0.077564001083374023 0.057188000530004501
   vertex 0.02170800045132637 -0.081254996359348297 0.057172998785972595
  endloop
 endfacet
 facet normal -0.21403893707259405 0.096486943924785254 0.97204814853426347
  outer loop
   vertex 0.018301000818610191 -0.075162000954151154 0.055817998945713043
   vertex 0.02170800045132637 -0.081254996359348297 0.057172998785972595
   vertex 0.023439999669790268 -0.077564001083374023 0.057188000530004501
  endloop
 endfacet
 facet normal -0.63678445030697695 -0.17891131603351451 0.7499975365575523
  outer loop
   vertex 0.015977000817656517 -0.073822997510433197 0.054079998284578323
   vertex 0.019350999966263771 -0.080269001424312592 0.055406998842954636
   vertex 0.02170800045132637 -0.081254996359348297 0.057172998785972595
  endloop
 endfacet
 facet normal -0.65993414853690546 -0.2084910092079329 0.72181605598263543
  outer loop
   vertex 0.02170800045132637 -0.081254996359348297 0.057172998785972595
   vertex 0.018301000818610191 -0.075162000954151154 0.055817998945713043
   vertex 0.015977000817656517 -0.073822997510433197 0.054079998284578323
  endloop
 endfacet
 facet normal -0.76293458167552097 -0.27931591565407532 0.58302096304157303
  outer loop
   vertex 0.019350999966263771 -0.080269001424312592 0.055406998842954636
   vertex 0.015977000817656517 -0.073822997510433197 0.054079998284578323
   vertex 0.019285000860691071 -0.081936001777648926 0.054522000253200531
  endloop
 endfacet
 facet normal -0.55070779423148186 -0.3784856569707275 0.74395532986875812
  outer loop
   vertex 0.02060999907553196 -0.089487999677658081 0.054421000182628632
   vertex 0.022055000066757202 -0.089276999235153198 0.055597998201847076
   vertex 0.020702000707387924 -0.088128000497817993 0.055181000381708145
  endloop
 endfacet
 facet normal -0.89142414306564377 -0.23000236433969617 0.39046371093589766
  outer loop
   vertex 0.020522000268101692 -0.088926002383232117 0.05429999902844429
   vertex 0.020702000707387924 -0.088128000497817993 0.055181000381708145
   vertex 0.02005700021982193 -0.087117001414299011 0.054303999990224838
  endloop
 endfacet
 facet normal -0.95660844944013224 -0.090129647478161781 0.27708648668819674
  outer loop
   vertex 0.020702000707387924 -0.088128000497817993 0.055181000381708145
   vertex 0.020522000268101692 -0.088926002383232117 0.05429999902844429
   vertex 0.02060999907553196 -0.089487999677658081 0.054421000182628632
  endloop
 endfacet
 facet normal -0.94340686294332821 -0.16076844640189736 0.29006378193933252
  outer loop
   vertex 0.019345000386238098 -0.085321001708507538 0.052841000258922577
   vertex 0.019285000860691071 -0.081936001777648926 0.054522000253200531
   vertex 0.018474999815225601 -0.082028999924659729 0.051835998892784119
  endloop
 endfacet
 facet normal -0.89377389540941821 -0.34908512109567419 0.28161640952595973
  outer loop
   vertex 0.018474999815225601 -0.082028999924659729 0.051835998892784119
   vertex 0.019285000860691071 -0.081936001777648926 0.054522000253200531
   vertex 0.015977000817656517 -0.073822997510433197 0.054079998284578323
  endloop
 endfacet
 facet normal -0.96216377090218896 -0.26847426094278809 -0.046502141612014665
  outer loop
   vertex 0.019345000386238098 -0.085321001708507538 0.052841000258922577
   vertex 0.018474999815225601 -0.082028999924659729 0.051835998892784119
   vertex 0.019316999241709709 -0.084770999848842621 0.050244998186826706
  endloop
 endfacet
 facet normal -0.91383139936461022 -0.1826758071274657 0.36268681120995699
  outer loop
   vertex 0.019345000386238098 -0.085321001708507538 0.052841000258922577
   vertex 0.020307000726461411 -0.090594001114368439 0.052609000355005264
   vertex 0.020529000088572502 -0.090145997703075409 0.053394000977277756
  endloop
 endfacet
 facet normal -0.9555258736321175 -0.21084320376328969 0.20619274537774271
  outer loop
   vertex 0.019345000386238098 -0.085321001708507538 0.052841000258922577
   vertex 0.020529000088572502 -0.090145997703075409 0.053394000977277756
   vertex 0.02005700021982193 -0.087117001414299011 0.054303999990224838
  endloop
 endfacet
 facet normal -0.98349298814223352 -0.17887656969543073 -0.027289468464154577
  outer loop
   vertex 0.019316999241709709 -0.084770999848842621 0.050244998186826706
   vertex 0.020357999950647354 -0.090747997164726257 0.051906000822782516
   vertex 0.019345000386238098 -0.085321001708507538 0.052841000258922577
  endloop
 endfacet
 facet normal -0.98349757492099277 -0.1780046910687941 -0.032355062695493507
  outer loop
   vertex 0.020357999950647354 -0.090747997164726257 0.051906000822782516
   vertex 0.020307000726461411 -0.090594001114368439 0.052609000355005264
   vertex 0.019345000386238098 -0.085321001708507538 0.052841000258922577
  endloop
 endfacet
 facet normal -0.91992555220008698 -0.23715558827507222 0.31224062093082883
  outer loop
   vertex 0.020522000268101692 -0.088926002383232117 0.05429999902844429
   vertex 0.02005700021982193 -0.087117001414299011 0.054303999990224838
   vertex 0.020529000088572502 -0.090145997703075409 0.053394000977277756
  endloop
 endfacet
 facet normal -0.1182428146139974 -0.79007008218932273 0.60150469825390129
  outer loop
   vertex 0.022055000066757202 -0.089276999235153198 0.055597998201847076
   vertex 0.021020999178290367 -0.090332001447677612 0.054009001702070236
   vertex 0.021539000794291496 -0.090979002416133881 0.053261000663042068
  endloop
 endfacet
 facet normal -0.19254060030501313 -0.9800907119535156 0.048480032762324245
  outer loop
   vertex 0.026148999109864235 -0.090134002268314362 0.054531998932361603
   vertex 0.024785999208688736 -0.089745000004768372 0.056983001530170441
   vertex 0.022055000066757202 -0.089276999235153198 0.055597998201847076
  endloop
 endfacet
 facet normal -0.47172147387687985 -0.56155735224245262 0.67980305326312718
  outer loop
   vertex 0.022055000066757202 -0.089276999235153198 0.055597998201847076
   vertex 0.02060999907553196 -0.089487999677658081 0.054421000182628632
   vertex 0.021020999178290367 -0.090332001447677612 0.054009001702070236
  endloop
 endfacet
 facet normal 0.22796104618253948 -0.84157567892030971 0.489677585839072
  outer loop
   vertex 0.024627000093460083 -0.089918002486228943 0.05329899862408638
   vertex 0.022055000066757202 -0.089276999235153198 0.055597998201847076
   vertex 0.023413000628352165 -0.090908996760845184 0.052161000669002533
  endloop
 endfacet
 facet normal 0.32783287254533383 -0.79665357809429127 0.50780772363980231
  outer loop
   vertex 0.022055000066757202 -0.089276999235153198 0.055597998201847076
   vertex 0.021539000794291496 -0.090979002416133881 0.053261000663042068
   vertex 0.023413000628352165 -0.090908996760845184 0.052161000669002533
  endloop
 endfacet
 facet normal -0.18907969832833305 -0.98002045736897336 0.061715239757896799
  outer loop
   vertex 0.022055000066757202 -0.089276999235153198 0.055597998201847076
   vertex 0.024627000093460083 -0.089918002486228943 0.05329899862408638
   vertex 0.026148999109864235 -0.090134002268314362 0.054531998932361603
  endloop
 endfacet
 facet normal -0.022928100993973535 -0.98927431524123977 0.14425890401908115
  outer loop
   vertex 0.026148999109864235 -0.090134002268314362 0.054531998932361603
   vertex 0.027484999969601631 -0.089983999729156494 0.055773001164197922
   vertex 0.024785999208688736 -0.089745000004768372 0.056983001530170441
  endloop
 endfacet
 facet normal 0.94687871321218264 -0.20333827330160381 0.24914704308171837
  outer loop
   vertex 0.029916999861598015 -0.086816996335983276 0.054094001650810242
   vertex 0.02975199930369854 -0.085842996835708618 0.055516000837087631
   vertex 0.029046999290585518 -0.088478997349739075 0.056044001132249832
  endloop
 endfacet
 facet normal 0.93218651201262981 -0.33897147456592241 0.12699073293879046
  outer loop
   vertex 0.029216999188065529 -0.088512003421783447 0.054708000272512436
   vertex 0.029916999861598015 -0.086816996335983276 0.054094001650810242
   vertex 0.029046999290585518 -0.088478997349739075 0.056044001132249832
  endloop
 endfacet
 facet normal 0.76098115145925715 -0.63892512443280658 0.11261604011980707
  outer loop
   vertex 0.029216999188065529 -0.088512003421783447 0.054708000272512436
   vertex 0.029046999290585518 -0.088478997349739075 0.056044001132249832
   vertex 0.028441000729799271 -0.08934599906206131 0.055220000445842743
  endloop
 endfacet
 facet normal 0.98481184830580393 0.15547775542201694 0.077280599152943052
  outer loop
   vertex 0.02975199930369854 -0.085842996835708618 0.055516000837087631
   vertex 0.029713999480009079 -0.084894001483917236 0.054090999066829681
   vertex 0.029642999172210693 -0.085165999829769135 0.055543001741170883
  endloop
 endfacet
 facet normal 0.99353016943498662 0.10494948034819528 0.043398260300739247
  outer loop
   vertex 0.02975199930369854 -0.085842996835708618 0.055516000837087631
   vertex 0.029916999861598015 -0.086816996335983276 0.054094001650810242
   vertex 0.029713999480009079 -0.084894001483917236 0.054090999066829681
  endloop
 endfacet
 facet normal 0.90496480003791235 0.40801274716168368 0.12068267831763363
  outer loop
   vertex 0.029234999790787697 -0.084062002599239349 0.054869998246431351
   vertex 0.029642999172210693 -0.085165999829769135 0.055543001741170883
   vertex 0.029713999480009079 -0.084894001483917236 0.054090999066829681
  endloop
 endfacet
 facet normal 0.75383606565848127 0.52192210181917054 0.39915974965570011
  outer loop
   vertex 0.028573000803589821 -0.083967000246047974 0.05599600076675415
   vertex 0.029642999172210693 -0.085165999829769135 0.055543001741170883
   vertex 0.029234999790787697 -0.084062002599239349 0.054869998246431351
  endloop
 endfacet
 facet normal 0.44974363327044803 0.87659584291843695 0.17120278184308729
  outer loop
   vertex 0.028573000803589821 -0.083967000246047974 0.05599600076675415
   vertex 0.028909999877214432 -0.083778001368045807 0.054143000394105911
   vertex 0.026985000818967819 -0.082947000861167908 0.054944999516010284
  endloop
 endfacet
 facet normal 0.49887384546605468 0.56943732251174495 0.65334984659106321
  outer loop
   vertex 0.028573000803589821 -0.083967000246047974 0.05599600076675415
   vertex 0.026745999231934547 -0.082776002585887909 0.056352999061346054
   vertex 0.026104999706149101 -0.082795001566410065 0.056859001517295837
  endloop
 endfacet
 facet normal 0.54479069225745291 0.83851981632463579 -0.0093605160404970824
  outer loop
   vertex 0.026985000818967819 -0.082947000861167908 0.054944999516010284
   vertex 0.026745999231934547 -0.082776002585887909 0.056352999061346054
   vertex 0.028573000803589821 -0.083967000246047974 0.05599600076675415
  endloop
 endfacet
 facet normal 0.41133270038816772 0.8962016379681037 0.1662168273511008
  outer loop
   vertex 0.029234999790787697 -0.084062002599239349 0.054869998246431351
   vertex 0.028909999877214432 -0.083778001368045807 0.054143000394105911
   vertex 0.028573000803589821 -0.083967000246047974 0.05599600076675415
  endloop
 endfacet
 facet normal 0.14965513638906144 0.88225753020317299 0.446346267545914
  outer loop
   vertex 0.026104999706149101 -0.082795001566410065 0.056859001517295837
   vertex 0.025584999471902847 -0.082468003034591675 0.056386999785900116
   vertex 0.025141000747680664 -0.082846999168395996 0.057284999638795853
  endloop
 endfacet
 facet normal 0.24974415385007617 0.90273995030049226 0.35026909619487423
  outer loop
   vertex 0.026745999231934547 -0.082776002585887909 0.056352999061346054
   vertex 0.025584999471902847 -0.082468003034591675 0.056386999785900116
   vertex 0.026104999706149101 -0.082795001566410065 0.056859001517295837
  endloop
 endfacet
 facet normal 0.39219685568200685 -0.86321089570588283 -0.31788138657020265
  outer loop
   vertex 0.028441000729799271 -0.08934599906206131 0.055220000445842743
   vertex 0.027484999969601631 -0.089983999729156494 0.055773001164197922
   vertex 0.026148999109864235 -0.090134002268314362 0.054531998932361603
  endloop
 endfacet
 facet normal 0.57215585392575574 -0.74410125493446921 -0.34489273872239945
  outer loop
   vertex 0.029216999188065529 -0.088512003421783447 0.054708000272512436
   vertex 0.028441000729799271 -0.08934599906206131 0.055220000445842743
   vertex 0.027690000832080841 -0.088926002383232117 0.053068000823259354
  endloop
 endfacet
 facet normal 0.39033862147330778 -0.86843438870799838 -0.30570815019505609
  outer loop
   vertex 0.027690000832080841 -0.088926002383232117 0.053068000823259354
   vertex 0.028441000729799271 -0.08934599906206131 0.055220000445842743
   vertex 0.026148999109864235 -0.090134002268314362 0.054531998932361603
  endloop
 endfacet
 facet normal 0.84975731225016726 0.28178235960301851 0.44554597079754527
  outer loop
   vertex 0.023439999669790268 -0.077564001083374023 0.057188000530004501
   vertex 0.025141000747680664 -0.082846999168395996 0.057284999638795853
   vertex 0.025089999660849571 -0.079182997345924377 0.05506499856710434
  endloop
 endfacet
 facet normal 0.78343913910770635 0.32998437194217317 0.52662456227193344
  outer loop
   vertex 0.025584999471902847 -0.082468003034591675 0.056386999785900116
   vertex 0.025089999660849571 -0.079182997345924377 0.05506499856710434
   vertex 0.025141000747680664 -0.082846999168395996 0.057284999638795853
  endloop
 endfacet
 facet normal -0.23159325627719757 0.058366579006259543 0.97106019695075063
  outer loop
   vertex 0.023439999669790268 -0.077564001083374023 0.057188000530004501
   vertex 0.023063000291585922 -0.073735997080802917 0.056868001818656921
   vertex 0.018301000818610191 -0.075162000954151154 0.055817998945713043
  endloop
 endfacet
 facet normal 0.64296275715510631 0.12646758861323287 0.75538390368200059
  outer loop
   vertex 0.023063000291585922 -0.073735997080802917 0.056868001818656921
   vertex 0.023439999669790268 -0.077564001083374023 0.057188000530004501
   vertex 0.023829000070691109 -0.073950998485088348 0.056251998990774155
  endloop
 endfacet
 facet normal 0.80241974992100429 0.036734112504967199 0.59562836560659638
  outer loop
   vertex 0.025089999660849571 -0.079182997345924377 0.05506499856710434
   vertex 0.024354999884963036 -0.075920999050140381 0.055854000151157379
   vertex 0.023439999669790268 -0.077564001083374023 0.057188000530004501
  endloop
 endfacet
 facet normal 0.77362712681389356 0.079560970484068988 0.62862637602419513
  outer loop
   vertex 0.024354999884963036 -0.075920999050140381 0.055854000151157379
   vertex 0.023829000070691109 -0.073950998485088348 0.056251998990774155
   vertex 0.023439999669790268 -0.077564001083374023 0.057188000530004501
  endloop
 endfacet
 facet normal -0.078923834152671249 -0.16479380148259279 0.98316531234353333
  outer loop
   vertex 0.017754999920725822 -0.067961998283863068 0.056981001049280167
   vertex 0.018301000818610191 -0.075162000954151154 0.055817998945713043
   vertex 0.023463999852538109 -0.069848999381065369 0.057123001664876938
  endloop
 endfacet
 facet normal -0.20275095274118343 -0.043261342856342221 0.97827424957258713
  outer loop
   vertex 0.023063000291585922 -0.073735997080802917 0.056868001818656921
   vertex 0.023463999852538109 -0.069848999381065369 0.057123001664876938
   vertex 0.018301000818610191 -0.075162000954151154 0.055817998945713043
  endloop
 endfacet
 facet normal -0.67846759578608418 -0.16700690191664588 0.71539528666357222
  outer loop
   vertex 0.018301000818610191 -0.075162000954151154 0.055817998945713043
   vertex 0.017754999920725822 -0.067961998283863068 0.056981001049280167
   vertex 0.015135999768972397 -0.070790000259876251 0.053837001323699951
  endloop
 endfacet
 facet normal -0.63669946187106041 -0.11546318549213352 0.76241855174773343
  outer loop
   vertex 0.015135999768972397 -0.070790000259876251 0.053837001323699951
   vertex 0.015977000817656517 -0.073822997510433197 0.054079998284578323
   vertex 0.018301000818610191 -0.075162000954151154 0.055817998945713043
  endloop
 endfacet
 facet normal -0.88476901200159008 -0.21208531914161086 0.41497423149676549
  outer loop
   vertex 0.013855000026524067 -0.070092998445034027 0.051461998373270035
   vertex 0.015977000817656517 -0.073822997510433197 0.054079998284578323
   vertex 0.015135999768972397 -0.070790000259876251 0.053837001323699951
  endloop
 endfacet
 facet normal -0.90578735588362647 -0.36856907686110246 0.20906004281809448
  outer loop
   vertex 0.015977000817656517 -0.073822997510433197 0.054079998284578323
   vertex 0.013855000026524067 -0.070092998445034027 0.051461998373270035
   vertex 0.017657000571489334 -0.079359002411365509 0.05159899964928627
  endloop
 endfacet
 facet normal -0.95625000241612856 -0.29250516692275003 0.0051633518811401964
  outer loop
   vertex 0.017657000571489334 -0.079359002411365509 0.05159899964928627
   vertex 0.018474999815225601 -0.082028999924659729 0.051835998892784119
   vertex 0.015977000817656517 -0.073822997510433197 0.054079998284578323
  endloop
 endfacet
 facet normal -0.66503029480619191 -0.56323801271571672 0.49040559542284945
  outer loop
   vertex 0.020529000088572502 -0.091132000088691711 0.052423000335693359
   vertex 0.021020999178290367 -0.090332001447677612 0.054009001702070236
   vertex 0.02060999907553196 -0.089487999677658081 0.054421000182628632
  endloop
 endfacet
 facet normal -0.95784154815680955 -0.20158645837416564 0.20470092433774439
  outer loop
   vertex 0.020529000088572502 -0.091132000088691711 0.052423000335693359
   vertex 0.02060999907553196 -0.089487999677658081 0.054421000182628632
   vertex 0.020529000088572502 -0.090145997703075409 0.053394000977277756
  endloop
 endfacet
 facet normal -0.98065301447260622 -0.12030475539680111 0.15442289673071918
  outer loop
   vertex 0.02060999907553196 -0.089487999677658081 0.054421000182628632
   vertex 0.020522000268101692 -0.088926002383232117 0.05429999902844429
   vertex 0.020529000088572502 -0.090145997703075409 0.053394000977277756
  endloop
 endfacet
 facet normal -0.66436329364709423 0.21187338985874951 -0.71675036150960347
  outer loop
   vertex 0.019809000194072723 -0.083553001284599304 0.050149001181125641
   vertex 0.019316999241709709 -0.084770999848842621 0.050244998186826706
   vertex 0.018474999815225601 -0.082028999924659729 0.051835998892784119
  endloop
 endfacet
 facet normal -0.67954807977510168 0.18966064078451503 -0.70869122233253268
  outer loop
   vertex 0.019881000742316246 -0.081904999911785126 0.050521001219749451
   vertex 0.019809000194072723 -0.083553001284599304 0.050149001181125641
   vertex 0.018474999815225601 -0.082028999924659729 0.051835998892784119
  endloop
 endfacet
 facet normal -0.64684600465123898 -0.26175320844686462 -0.71629288990921969
  outer loop
   vertex 0.018474999815225601 -0.082028999924659729 0.051835998892784119
   vertex 0.017657000571489334 -0.079359002411365509 0.05159899964928627
   vertex 0.019881000742316246 -0.081904999911785126 0.050521001219749451
  endloop
 endfacet
 facet normal -0.8313776977940166 -0.27844518754015812 -0.48091517042660131
  outer loop
   vertex 0.021726999431848526 -0.088546998798847198 0.048264998942613602
   vertex 0.020357999950647354 -0.090747997164726257 0.051906000822782516
   vertex 0.019316999241709709 -0.084770999848842621 0.050244998186826706
  endloop
 endfacet
 facet normal -0.86285948419859981 -0.37034560257367305 -0.34397332045213791
  outer loop
   vertex 0.021726999431848526 -0.088546998798847198 0.048264998942613602
   vertex 0.019316999241709709 -0.084770999848842621 0.050244998186826706
   vertex 0.020848000422120094 -0.086016997694969177 0.047745998948812485
  endloop
 endfacet
 facet normal -0.7239289448735815 0.32786546432310909 -0.60698527171457384
  outer loop
   vertex 0.019316999241709709 -0.084770999848842621 0.050244998186826706
   vertex 0.021053999662399292 -0.084518000483512878 0.048310000449419022
   vertex 0.020848000422120094 -0.086016997694969177 0.047745998948812485
  endloop
 endfacet
 facet normal -0.73679510333966625 0.24805003591386909 -0.62897071106516478
  outer loop
   vertex 0.021053999662399292 -0.084518000483512878 0.048310000449419022
   vertex 0.019316999241709709 -0.084770999848842621 0.050244998186826706
   vertex 0.019809000194072723 -0.083553001284599304 0.050149001181125641
  endloop
 endfacet
 facet normal -0.74099300455041195 -0.47117747179188907 0.47845705897515683
  outer loop
   vertex 0.020529000088572502 -0.091132000088691711 0.052423000335693359
   vertex 0.020529000088572502 -0.090145997703075409 0.053394000977277756
   vertex 0.020307000726461411 -0.090594001114368439 0.052609000355005264
  endloop
 endfacet
 facet normal 0.13124461754157213 -0.96635522045771582 0.22120677715767673
  outer loop
   vertex 0.020307000726461411 -0.090594001114368439 0.052609000355005264
   vertex 0.020357999950647354 -0.090747997164726257 0.051906000822782516
   vertex 0.020857999101281166 -0.090814001858234406 0.05132099986076355
  endloop
 endfacet
 facet normal -0.90411337590823959 -0.25437640877483564 -0.34332440368057743
  outer loop
   vertex 0.020529000088572502 -0.091132000088691711 0.052423000335693359
   vertex 0.020307000726461411 -0.090594001114368439 0.052609000355005264
   vertex 0.020857999101281166 -0.090814001858234406 0.05132099986076355
  endloop
 endfacet
 facet normal -0.69795219624155758 -0.46576995321225234 -0.54398628884030031
  outer loop
   vertex 0.020357999950647354 -0.090747997164726257 0.051906000822782516
   vertex 0.021726999431848526 -0.088546998798847198 0.048264998942613602
   vertex 0.020857999101281166 -0.090814001858234406 0.05132099986076355
  endloop
 endfacet
 facet normal -0.2927478322598483 -0.81413812316103973 0.50147564559306312
  outer loop
   vertex 0.021020999178290367 -0.090332001447677612 0.054009001702070236
   vertex 0.020529000088572502 -0.091132000088691711 0.052423000335693359
   vertex 0.021539000794291496 -0.090979002416133881 0.053261000663042068
  endloop
 endfacet
 facet normal 0.051685185475203149 -0.99157884081494263 0.11874360635625236
  outer loop
   vertex 0.020529000088572502 -0.091132000088691711 0.052423000335693359
   vertex 0.02188199944794178 -0.091234996914863586 0.050974000245332718
   vertex 0.021539000794291496 -0.090979002416133881 0.053261000663042068
  endloop
 endfacet
 facet normal 0.11138368476233079 -0.98562513062064538 0.12703061307339095
  outer loop
   vertex 0.023413000628352165 -0.090908996760845184 0.052161000669002533
   vertex 0.021539000794291496 -0.090979002416133881 0.053261000663042068
   vertex 0.02188199944794178 -0.091234996914863586 0.050974000245332718
  endloop
 endfacet
 facet normal 0.33334232915266299 -0.86884719124803678 -0.3660429617619701
  outer loop
   vertex 0.027690000832080841 -0.088926002383232117 0.053068000823259354
   vertex 0.026148999109864235 -0.090134002268314362 0.054531998932361603
   vertex 0.025877000764012337 -0.089166998863220215 0.051989000290632248
  endloop
 endfacet
 facet normal 0.16654724381315431 -0.91559841086262905 -0.36598028034864105
  outer loop
   vertex 0.026148999109864235 -0.090134002268314362 0.054531998932361603
   vertex 0.024627000093460083 -0.089918002486228943 0.05329899862408638
   vertex 0.025877000764012337 -0.089166998863220215 0.051989000290632248
  endloop
 endfacet
 facet normal 0.52746200386997044 -0.84942141540039096 0.016342996441035311
  outer loop
   vertex 0.024627000093460083 -0.089918002486228943 0.05329899862408638
   vertex 0.024624999612569809 -0.089977003633975983 0.050296999514102936
   vertex 0.025877000764012337 -0.089166998863220215 0.051989000290632248
  endloop
 endfacet
 facet normal 0.6238533979204457 -0.78139854055760838 0.014941844516448144
  outer loop
   vertex 0.024627000093460083 -0.089918002486228943 0.05329899862408638
   vertex 0.023413000628352165 -0.090908996760845184 0.052161000669002533
   vertex 0.024624999612569809 -0.089977003633975983 0.050296999514102936
  endloop
 endfacet
 facet normal 0.36191716490096171 -0.90639330561291476 -0.21786955108537584
  outer loop
   vertex 0.024624999612569809 -0.089977003633975983 0.050296999514102936
   vertex 0.023413000628352165 -0.090908996760845184 0.052161000669002533
   vertex 0.02188199944794178 -0.091234996914863586 0.050974000245332718
  endloop
 endfacet
 facet normal 0.69399300341555903 0.18740959816292654 -0.69516282533422502
  outer loop
   vertex 0.028460999950766563 -0.08754199743270874 0.052444998174905777
   vertex 0.027646999806165695 -0.084613002836704254 0.052421998232603073
   vertex 0.029916999861598015 -0.086816996335983276 0.054094001650810242
  endloop
 endfacet
 facet normal 0.75256802214933582 -0.47573099469601188 -0.45532558979677373
  outer loop
   vertex 0.029916999861598015 -0.086816996335983276 0.054094001650810242
   vertex 0.029216999188065529 -0.088512003421783447 0.054708000272512436
   vertex 0.028460999950766563 -0.08754199743270874 0.052444998174905777
  endloop
 endfacet
 facet normal 0.63225097131076824 0.06553799838451449 -0.77198670975888017
  outer loop
   vertex 0.029713999480009079 -0.084894001483917236 0.054090999066829681
   vertex 0.029916999861598015 -0.086816996335983276 0.054094001650810242
   vertex 0.027646999806165695 -0.084613002836704254 0.052421998232603073
  endloop
 endfacet
 facet normal 0.66339448916977461 -0.58152879202458052 -0.47088429129203901
  outer loop
   vertex 0.027690000832080841 -0.088926002383232117 0.053068000823259354
   vertex 0.028460999950766563 -0.08754199743270874 0.052444998174905777
   vertex 0.029216999188065529 -0.088512003421783447 0.054708000272512436
  endloop
 endfacet
 facet normal 0.59498249295946148 0.45937430606182 -0.65952337335530842
  outer loop
   vertex 0.027646999806165695 -0.084613002836704254 0.052421998232603073
   vertex 0.028909999877214432 -0.083778001368045807 0.054143000394105911
   vertex 0.029713999480009079 -0.084894001483917236 0.054090999066829681
  endloop
 endfacet
 facet normal 0.8015531560611644 0.58353746429948072 -0.13037087775772144
  outer loop
   vertex 0.029234999790787697 -0.084062002599239349 0.054869998246431351
   vertex 0.029713999480009079 -0.084894001483917236 0.054090999066829681
   vertex 0.028909999877214432 -0.083778001368045807 0.054143000394105911
  endloop
 endfacet
 facet normal 0.33978935696969714 0.92894867679446036 -0.14696104508318233
  outer loop
   vertex 0.027498999610543251 -0.083347000181674957 0.053605001419782639
   vertex 0.026985000818967819 -0.082947000861167908 0.054944999516010284
   vertex 0.028909999877214432 -0.083778001368045807 0.054143000394105911
  endloop
 endfacet
 facet normal 0.43651736889745585 0.64098246987614227 -0.63134306043728938
  outer loop
   vertex 0.027498999610543251 -0.083347000181674957 0.053605001419782639
   vertex 0.028909999877214432 -0.083778001368045807 0.054143000394105911
   vertex 0.027646999806165695 -0.084613002836704254 0.052421998232603073
  endloop
 endfacet
 facet normal 0.090213585749011796 0.96326726539827923 -0.25293810380887027
  outer loop
   vertex 0.027498999610543251 -0.083347000181674957 0.053605001419782639
   vertex 0.02541700005531311 -0.083157002925872803 0.053585998713970184
   vertex 0.026985000818967819 -0.082947000861167908 0.054944999516010284
  endloop
 endfacet
 facet normal 0.11863617942417543 0.95148310613926212 -0.28391082343443025
  outer loop
   vertex 0.026110999286174774 -0.082713000476360321 0.055364001542329788
   vertex 0.026985000818967819 -0.082947000861167908 0.054944999516010284
   vertex 0.02541700005531311 -0.083157002925872803 0.053585998713970184
  endloop
 endfacet
 facet normal 0.2216417022146237 0.97180790989908983 -0.080401132435847233
  outer loop
   vertex 0.026110999286174774 -0.082713000476360321 0.055364001542329788
   vertex 0.026745999231934547 -0.082776002585887909 0.056352999061346054
   vertex 0.026985000818967819 -0.082947000861167908 0.054944999516010284
  endloop
 endfacet
 facet normal 0.25235763922446341 0.96237747355499992 -0.10072348444603622
  outer loop
   vertex 0.026745999231934547 -0.082776002585887909 0.056352999061346054
   vertex 0.026110999286174774 -0.082713000476360321 0.055364001542329788
   vertex 0.025584999471902847 -0.082468003034591675 0.056386999785900116
  endloop
 endfacet
 facet normal 0.87822895599547413 0.28645239067693251 0.38296074045072748
  outer loop
   vertex 0.026110999286174774 -0.082713000476360321 0.055364001542329788
   vertex 0.025089999660849571 -0.079182997345924377 0.05506499856710434
   vertex 0.025584999471902847 -0.082468003034591675 0.056386999785900116
  endloop
 endfacet
 facet normal 0.46455338594009088 -0.60669963553907003 -0.6450625580890248
  outer loop
   vertex 0.025877000764012337 -0.089166998863220215 0.051989000290632248
   vertex 0.026290999725461006 -0.08794199675321579 0.051134999841451645
   vertex 0.027690000832080841 -0.088926002383232117 0.053068000823259354
  endloop
 endfacet
 facet normal 0.4987910391596494 -0.57127371230744428 -0.65180813502173196
  outer loop
   vertex 0.028460999950766563 -0.08754199743270874 0.052444998174905777
   vertex 0.027690000832080841 -0.088926002383232117 0.053068000823259354
   vertex 0.026290999725461006 -0.08794199675321579 0.051134999841451645
  endloop
 endfacet
 facet normal 0.53195230645065639 0.45197837459232587 -0.71606025763388503
  outer loop
   vertex 0.022081000730395317 -0.08263300359249115 0.050652001053094864
   vertex 0.021719999611377716 -0.081716999411582947 0.050962001085281372
   vertex 0.025089999660849571 -0.079182997345924377 0.05506499856710434
  endloop
 endfacet
 facet normal 0.65482578441799744 0.31035079949826055 -0.68911941876001781
  outer loop
   vertex 0.022081000730395317 -0.08263300359249115 0.050652001053094864
   vertex 0.025089999660849571 -0.079182997345924377 0.05506499856710434
   vertex 0.02541700005531311 -0.083157002925872803 0.053585998713970184
  endloop
 endfacet
 facet normal 0.52774486159168976 0.45722328778180665 -0.71584371630514687
  outer loop
   vertex 0.025089999660849571 -0.079182997345924377 0.05506499856710434
   vertex 0.021719999611377716 -0.081716999411582947 0.050962001085281372
   vertex 0.019192000851035118 -0.078821003437042236 0.050948001444339752
  endloop
 endfacet
 facet normal 0.5718774102255908 -0.011277162136133851 -0.82026157613765305
  outer loop
   vertex 0.025089999660849571 -0.079182997345924377 0.05506499856710434
   vertex 0.019192000851035118 -0.078821003437042236 0.050948001444339752
   vertex 0.024419000372290611 -0.075969003140926361 0.054552998393774033
  endloop
 endfacet
 facet normal 0.88801499732711286 0.22277328207370786 -0.40224548389787546
  outer loop
   vertex 0.026110999286174774 -0.082713000476360321 0.055364001542329788
   vertex 0.02541700005531311 -0.083157002925872803 0.053585998713970184
   vertex 0.025089999660849571 -0.079182997345924377 0.05506499856710434
  endloop
 endfacet
 facet normal 0.97679593589585001 0.21034824902992744 0.040290367923292505
  outer loop
   vertex 0.025089999660849571 -0.079182997345924377 0.05506499856710434
   vertex 0.024419000372290611 -0.075969003140926361 0.054552998393774033
   vertex 0.024354999884963036 -0.075920999050140381 0.055854000151157379
  endloop
 endfacet
 facet normal 0.64200814884024338 0.11589083846798429 0.75788841552164621
  outer loop
   vertex 0.023829000070691109 -0.073950998485088348 0.056251998990774155
   vertex 0.024418000131845474 -0.071786001324653625 0.055422000586986542
   vertex 0.023063000291585922 -0.073735997080802917 0.056868001818656921
  endloop
 endfacet
 facet normal 0.80056400225137148 -0.12109125710348186 0.58688515550520148
  outer loop
   vertex 0.023463999852538109 -0.069848999381065369 0.057123001664876938
   vertex 0.023063000291585922 -0.073735997080802917 0.056868001818656921
   vertex 0.024418000131845474 -0.071786001324653625 0.055422000586986542
  endloop
 endfacet
 facet normal 0.9250013606415145 -0.0042056972470964618 0.37994051497834819
  outer loop
   vertex 0.024421999230980873 -0.073977001011371613 0.054807998239994049
   vertex 0.024567000567913055 -0.071806997060775757 0.054478999227285385
   vertex 0.023829000070691109 -0.073950998485088348 0.056251998990774155
  endloop
 endfacet
 facet normal 0.91285490512241263 0.16861389380604982 0.37184039184778345
  outer loop
   vertex 0.024421999230980873 -0.073977001011371613 0.054807998239994049
   vertex 0.023829000070691109 -0.073950998485088348 0.056251998990774155
   vertex 0.024354999884963036 -0.075920999050140381 0.055854000151157379
  endloop
 endfacet
 facet normal 0.96654073647126015 -0.20267461966618686 0.15723232264633347
  outer loop
   vertex 0.024418000131845474 -0.071786001324653625 0.055422000586986542
   vertex 0.023829000070691109 -0.073950998485088348 0.056251998990774155
   vertex 0.024567000567913055 -0.071806997060775757 0.054478999227285385
  endloop
 endfacet
 facet normal 0.99874736708010636 -0.0078299757355387561 0.049420524385483638
  outer loop
   vertex 0.024421999230980873 -0.073977001011371613 0.054807998239994049
   vertex 0.024354999884963036 -0.075920999050140381 0.055854000151157379
   vertex 0.024419000372290611 -0.075969003140926361 0.054552998393774033
  endloop
 endfacet
 facet normal -0.10942965816325531 -0.25885316632339456 0.95969796717437406
  outer loop
   vertex 0.023463999852538109 -0.069848999381065369 0.057123001664876938
   vertex 0.022345000877976418 -0.06381099671125412 0.058623999357223511
   vertex 0.017754999920725822 -0.067961998283863068 0.056981001049280167
  endloop
 endfacet
 facet normal -0.63952869782761812 -0.22498440800138317 0.7351088768415045
  outer loop
   vertex 0.015135999768972397 -0.070790000259876251 0.053837001323699951
   vertex 0.017754999920725822 -0.067961998283863068 0.056981001049280167
   vertex 0.01434400025755167 -0.068689003586769104 0.053791001439094543
  endloop
 endfacet
 facet normal -0.58897166813561241 -0.37585604690934865 0.71543315979568034
  outer loop
   vertex 0.01434400025755167 -0.068689003586769104 0.053791001439094543
   vertex 0.017754999920725822 -0.067961998283863068 0.056981001049280167
   vertex 0.014740999788045883 -0.065093003213405609 0.056007001549005508
  endloop
 endfacet
 facet normal 0.1595032236002499 -0.51075132509581878 0.84480282052914202
  outer loop
   vertex 0.022345000877976418 -0.06381099671125412 0.058623999357223511
   vertex 0.019276000559329987 -0.064824000000953674 0.058591000735759735
   vertex 0.017754999920725822 -0.067961998283863068 0.056981001049280167
  endloop
 endfacet
 facet normal -0.47481360554562091 -0.20853876854257813 0.85502258566865508
  outer loop
   vertex 0.019276000559329987 -0.064824000000953674 0.058591000735759735
   vertex 0.014740999788045883 -0.065093003213405609 0.056007001549005508
   vertex 0.017754999920725822 -0.067961998283863068 0.056981001049280167
  endloop
 endfacet
 facet normal 0.16747998460265248 -0.20849865985351737 0.96357602896542749
  outer loop
   vertex 0.023463999852538109 -0.069848999381065369 0.057123001664876938
   vertex 0.024745000526309013 -0.063740998506546021 0.058221999555826187
   vertex 0.022345000877976418 -0.06381099671125412 0.058623999357223511
  endloop
 endfacet
 facet normal 0.67976296506918743 -0.26557291502352742 0.68366171322244818
  outer loop
   vertex 0.024745000526309013 -0.063740998506546021 0.058221999555826187
   vertex 0.023463999852538109 -0.069848999381065369 0.057123001664876938
   vertex 0.024418000131845474 -0.071786001324653625 0.055422000586986542
  endloop
 endfacet
 facet normal -0.86996987898050104 -0.31972791327582001 0.37540174631845047
  outer loop
   vertex 0.013855000026524067 -0.070092998445034027 0.051461998373270035
   vertex 0.015135999768972397 -0.070790000259876251 0.053837001323699951
   vertex 0.01434400025755167 -0.068689003586769104 0.053791001439094543
  endloop
 endfacet
 facet normal -0.92856440938042029 -0.3078830588305444 0.20730692153697786
  outer loop
   vertex 0.013855000026524067 -0.070092998445034027 0.051461998373270035
   vertex 0.012063000351190567 -0.064816996455192566 0.051270999014377594
   vertex 0.011827999725937843 -0.066474996507167816 0.047756001353263855
  endloop
 endfacet
 facet normal -0.86974603659168148 -0.36183350510973805 -0.33558657066852732
  outer loop
   vertex 0.017657000571489334 -0.079359002411365509 0.05159899964928627
   vertex 0.013855000026524067 -0.070092998445034027 0.051461998373270035
   vertex 0.015567000024020672 -0.071244001388549805 0.048266001045703888
  endloop
 endfacet
 facet normal -0.77926067162111379 -0.45078919081451568 0.4353641132539573
  outer loop
   vertex 0.013855000026524067 -0.070092998445034027 0.051461998373270035
   vertex 0.01434400025755167 -0.068689003586769104 0.053791001439094543
   vertex 0.012732000090181828 -0.06591399759054184 0.053778998553752899
  endloop
 endfacet
 facet normal -0.94203527111477392 -0.31586803449455891 0.11312352876505635
  outer loop
   vertex 0.012732000090181828 -0.06591399759054184 0.053778998553752899
   vertex 0.012063000351190567 -0.064816996455192566 0.051270999014377594
   vertex 0.013855000026524067 -0.070092998445034027 0.051461998373270035
  endloop
 endfacet
 facet normal -0.76343256884508426 -0.61846124692177973 -0.18621600060830673
  outer loop
   vertex 0.013855000026524067 -0.070092998445034027 0.051461998373270035
   vertex 0.011827999725937843 -0.066474996507167816 0.047756001353263855
   vertex 0.015567000024020672 -0.071244001388549805 0.048266001045703888
  endloop
 endfacet
 facet normal -0.75218771406158114 -0.4554064662499353 -0.4762547567348378
  outer loop
   vertex 0.018355000764131546 -0.079144001007080078 0.050291001796722412
   vertex 0.019881000742316246 -0.081904999911785126 0.050521001219749451
   vertex 0.017657000571489334 -0.079359002411365509 0.05159899964928627
  endloop
 endfacet
 facet normal -0.78018211694893236 -0.398860014358699 -0.48189890364978089
  outer loop
   vertex 0.015567000024020672 -0.071244001388549805 0.048266001045703888
   vertex 0.018355000764131546 -0.079144001007080078 0.050291001796722412
   vertex 0.017657000571489334 -0.079359002411365509 0.05159899964928627
  endloop
 endfacet
 facet normal -0.45774420214913286 -0.80845939335821937 -0.36995088145551625
  outer loop
   vertex 0.020857999101281166 -0.090814001858234406 0.05132099986076355
   vertex 0.02188199944794178 -0.091234996914863586 0.050974000245332718
   vertex 0.020529000088572502 -0.091132000088691711 0.052423000335693359
  endloop
 endfacet
 facet normal -0.70083883894424426 0.18606158310920676 -0.68862617516195224
  outer loop
   vertex 0.019881000742316246 -0.081904999911785126 0.050521001219749451
   vertex 0.020755000412464142 -0.083824001252651215 0.049113001674413681
   vertex 0.019809000194072723 -0.083553001284599304 0.050149001181125641
  endloop
 endfacet
 facet normal -0.56589494123573847 0.50777454819683665 -0.64955979223417026
  outer loop
   vertex 0.020755000412464142 -0.083824001252651215 0.049113001674413681
   vertex 0.021053999662399292 -0.084518000483512878 0.048310000449419022
   vertex 0.019809000194072723 -0.083553001284599304 0.050149001181125641
  endloop
 endfacet
 facet normal 0.54321203647577421 0.23303980872271962 -0.8066059328930828
  outer loop
   vertex 0.019192000851035118 -0.078821003437042236 0.050948001444339752
   vertex 0.019881000742316246 -0.081904999911785126 0.050521001219749451
   vertex 0.018355000764131546 -0.079144001007080078 0.050291001796722412
  endloop
 endfacet
 facet normal 0.17917102487486053 0.37800499287273931 -0.90830059408137154
  outer loop
   vertex 0.021719999611377716 -0.081716999411582947 0.050962001085281372
   vertex 0.022081000730395317 -0.08263300359249115 0.050652001053094864
   vertex 0.019881000742316246 -0.081904999911785126 0.050521001219749451
  endloop
 endfacet
 facet normal 0.26835222709431489 0.68998472260946053 -0.67224115076292912
  outer loop
   vertex 0.022081000730395317 -0.08263300359249115 0.050652001053094864
   vertex 0.021104000508785248 -0.082594998180866241 0.050301000475883484
   vertex 0.019881000742316246 -0.081904999911785126 0.050521001219749451
  endloop
 endfacet
 facet normal 0.52622589796308339 0.64566905596767099 -0.55335140234643232
  outer loop
   vertex 0.020755000412464142 -0.083824001252651215 0.049113001674413681
   vertex 0.019881000742316246 -0.081904999911785126 0.050521001219749451
   vertex 0.021418999880552292 -0.083539001643657684 0.050076998770236969
  endloop
 endfacet
 facet normal -0.055292444224581405 0.21302094635484961 -0.97548184095130952
  outer loop
   vertex 0.019881000742316246 -0.081904999911785126 0.050521001219749451
   vertex 0.021104000508785248 -0.082594998180866241 0.050301000475883484
   vertex 0.021418999880552292 -0.083539001643657684 0.050076998770236969
  endloop
 endfacet
 facet normal 0.21189939440044742 0.18032988080619133 -0.96051016691191182
  outer loop
   vertex 0.021719999611377716 -0.081716999411582947 0.050962001085281372
   vertex 0.019881000742316246 -0.081904999911785126 0.050521001219749451
   vertex 0.019192000851035118 -0.078821003437042236 0.050948001444339752
  endloop
 endfacet
 facet normal -0.46929696784571928 -0.64010841927021145 -0.60829398118854094
  outer loop
   vertex 0.020857999101281166 -0.090814001858234406 0.05132099986076355
   vertex 0.021726999431848526 -0.088546998798847198 0.048264998942613602
   vertex 0.02188199944794178 -0.091234996914863586 0.050974000245332718
  endloop
 endfacet
 facet normal -0.14906423589584678 -0.61689752543735177 -0.77279835447939416
  outer loop
   vertex 0.022505000233650208 -0.090236999094486237 0.049463998526334763
   vertex 0.021726999431848526 -0.088546998798847198 0.048264998942613602
   vertex 0.022833000868558884 -0.088698998093605042 0.048172999173402786
  endloop
 endfacet
 facet normal -0.1128536593773683 -0.23714601656257603 -0.96489679157598995
  outer loop
   vertex 0.022833000868558884 -0.088698998093605042 0.048172999173402786
   vertex 0.021726999431848526 -0.088546998798847198 0.048264998942613602
   vertex 0.020848000422120094 -0.086016997694969177 0.047745998948812485
  endloop
 endfacet
 facet normal -0.45490247954362956 -0.64503111387749412 -0.61400211419425665
  outer loop
   vertex 0.022505000233650208 -0.090236999094486237 0.049463998526334763
   vertex 0.02188199944794178 -0.091234996914863586 0.050974000245332718
   vertex 0.021726999431848526 -0.088546998798847198 0.048264998942613602
  endloop
 endfacet
 facet normal -0.074191025616807724 -0.21011684847224152 -0.97485722118986184
  outer loop
   vertex 0.021716000512242317 -0.085093997418880463 0.047481000423431396
   vertex 0.022833000868558884 -0.088698998093605042 0.048172999173402786
   vertex 0.020848000422120094 -0.086016997694969177 0.047745998948812485
  endloop
 endfacet
 facet normal -0.5958316355017288 0.3532529397039274 -0.72124685283602352
  outer loop
   vertex 0.021053999662399292 -0.084518000483512878 0.048310000449419022
   vertex 0.021716000512242317 -0.085093997418880463 0.047481000423431396
   vertex 0.020848000422120094 -0.086016997694969177 0.047745998948812485
  endloop
 endfacet
 facet normal 0.40751376201521777 0.76050546685011844 -0.50553335068943539
  outer loop
   vertex 0.021418999880552292 -0.083539001643657684 0.050076998770236969
   vertex 0.021053999662399292 -0.084518000483512878 0.048310000449419022
   vertex 0.020755000412464142 -0.083824001252651215 0.049113001674413681
  endloop
 endfacet
 facet normal 0.23776571827456094 0.876304643700484 -0.41899598404083765
  outer loop
   vertex 0.021716000512242317 -0.085093997418880463 0.047481000423431396
   vertex 0.021053999662399292 -0.084518000483512878 0.048310000449419022
   vertex 0.023602999746799469 -0.084894999861717224 0.048967998474836349
  endloop
 endfacet
 facet normal 0.24386824153552752 0.85719956299049604 -0.45358261648708725
  outer loop
   vertex 0.021053999662399292 -0.084518000483512878 0.048310000449419022
   vertex 0.02231300063431263 -0.083719998598098755 0.050494998693466187
   vertex 0.023602999746799469 -0.084894999861717224 0.048967998474836349
  endloop
 endfacet
 facet normal 0.39226341215187233 0.76786992839249746 -0.50646341285177854
  outer loop
   vertex 0.02231300063431263 -0.083719998598098755 0.050494998693466187
   vertex 0.021053999662399292 -0.084518000483512878 0.048310000449419022
   vertex 0.021418999880552292 -0.083539001643657684 0.050076998770236969
  endloop
 endfacet
 facet normal 0.27965075283478341 -0.85000705017567013 -0.44641177301970275
  outer loop
   vertex 0.022505000233650208 -0.090236999094486237 0.049463998526334763
   vertex 0.024624999612569809 -0.089977003633975983 0.050296999514102936
   vertex 0.02188199944794178 -0.091234996914863586 0.050974000245332718
  endloop
 endfacet
 facet normal 0.80139603897321809 -0.4724457606140085 -0.36682337983815527
  outer loop
   vertex 0.024624999612569809 -0.089977003633975983 0.050296999514102936
   vertex 0.025016000494360924 -0.088403001427650452 0.049123998731374741
   vertex 0.025877000764012337 -0.089166998863220215 0.051989000290632248
  endloop
 endfacet
 facet normal 0.77094566338439596 -0.51844734385214974 -0.36993936768265751
  outer loop
   vertex 0.026290999725461006 -0.08794199675321579 0.051134999841451645
   vertex 0.025877000764012337 -0.089166998863220215 0.051989000290632248
   vertex 0.025016000494360924 -0.088403001427650452 0.049123998731374741
  endloop
 endfacet
 facet normal 0.3527630700948855 -0.61389849738065305 -0.70617763437467163
  outer loop
   vertex 0.025016000494360924 -0.088403001427650452 0.049123998731374741
   vertex 0.024624999612569809 -0.089977003633975983 0.050296999514102936
   vertex 0.022505000233650208 -0.090236999094486237 0.049463998526334763
  endloop
 endfacet
 facet normal 0.52033233119138533 -0.027528706204537165 -0.85352002639167335
  outer loop
   vertex 0.025969000533223152 -0.086153000593185425 0.050880998373031616
   vertex 0.028460999950766563 -0.08754199743270874 0.052444998174905777
   vertex 0.026290999725461006 -0.08794199675321579 0.051134999841451645
  endloop
 endfacet
 facet normal 0.58619580152722339 0.15666855195543564 -0.79487700123984162
  outer loop
   vertex 0.025969000533223152 -0.086153000593185425 0.050880998373031616
   vertex 0.027646999806165695 -0.084613002836704254 0.052421998232603073
   vertex 0.028460999950766563 -0.08754199743270874 0.052444998174905777
  endloop
 endfacet
 facet normal 0.24139458141904813 0.54227479427264469 -0.80477742485614201
  outer loop
   vertex 0.026967000216245651 -0.083778999745845795 0.052779998630285263
   vertex 0.027646999806165695 -0.084613002836704254 0.052421998232603073
   vertex 0.025969000533223152 -0.086153000593185425 0.050880998373031616
  endloop
 endfacet
 facet normal 0.4519301641715785 0.63668365359970003 -0.62481441400690108
  outer loop
   vertex 0.026967000216245651 -0.083778999745845795 0.052779998630285263
   vertex 0.027498999610543251 -0.083347000181674957 0.053605001419782639
   vertex 0.027646999806165695 -0.084613002836704254 0.052421998232603073
  endloop
 endfacet
 facet normal 0.083062964292849609 0.859820842021779 -0.50379426712482933
  outer loop
   vertex 0.026967000216245651 -0.083778999745845795 0.052779998630285263
   vertex 0.02541700005531311 -0.083157002925872803 0.053585998713970184
   vertex 0.027498999610543251 -0.083347000181674957 0.053605001419782639
  endloop
 endfacet
 facet normal 0.66180953038326895 0.24365338335486583 -0.70897191359997036
  outer loop
   vertex 0.02231300063431263 -0.083719998598098755 0.050494998693466187
   vertex 0.022081000730395317 -0.08263300359249115 0.050652001053094864
   vertex 0.02541700005531311 -0.083157002925872803 0.053585998713970184
  endloop
 endfacet
 facet normal 0.41259581023187503 0.72839211720099739 -0.54700056762178129
  outer loop
   vertex 0.02474600076675415 -0.084389999508857727 0.051438000053167343
   vertex 0.02231300063431263 -0.083719998598098755 0.050494998693466187
   vertex 0.02541700005531311 -0.083157002925872803 0.053585998713970184
  endloop
 endfacet
 facet normal 0.075558424710810257 0.85442062134589802 -0.51405867979649023
  outer loop
   vertex 0.02474600076675415 -0.084389999508857727 0.051438000053167343
   vertex 0.02541700005531311 -0.083157002925872803 0.053585998713970184
   vertex 0.026967000216245651 -0.083778999745845795 0.052779998630285263
  endloop
 endfacet
 facet normal 0.8346989422818144 0.072732087364117737 -0.54588251411936473
  outer loop
   vertex 0.026290999725461006 -0.08794199675321579 0.051134999841451645
   vertex 0.025016000494360924 -0.088403001427650452 0.049123998731374741
   vertex 0.025969000533223152 -0.086153000593185425 0.050880998373031616
  endloop
 endfacet
 facet normal 0.33798502265852742 0.20481607616254646 -0.91859485052110568
  outer loop
   vertex 0.022081000730395317 -0.08263300359249115 0.050652001053094864
   vertex 0.02231300063431263 -0.083719998598098755 0.050494998693466187
   vertex 0.021104000508785248 -0.082594998180866241 0.050301000475883484
  endloop
 endfacet
 facet normal 0.24821593914837495 -0.21554097224833718 -0.94442095319562447
  outer loop
   vertex 0.019192000851035118 -0.078821003437042236 0.050948001444339752
   vertex 0.015567000024020672 -0.071244001388549805 0.048266001045703888
   vertex 0.019193999469280243 -0.072829000651836395 0.049580998718738556
  endloop
 endfacet
 facet normal 0.62176281129588939 -0.174400113271694 -0.76354149001888072
  outer loop
   vertex 0.019193999469280243 -0.072829000651836395 0.049580998718738556
   vertex 0.024419000372290611 -0.075969003140926361 0.054552998393774033
   vertex 0.019192000851035118 -0.078821003437042236 0.050948001444339752
  endloop
 endfacet
 facet normal 0.6139468998947305 0.014369667005438366 -0.78921652084824134
  outer loop
   vertex 0.018355000764131546 -0.079144001007080078 0.050291001796722412
   vertex 0.015567000024020672 -0.071244001388549805 0.048266001045703888
   vertex 0.019192000851035118 -0.078821003437042236 0.050948001444339752
  endloop
 endfacet
 facet normal 0.71388706073929065 0.087858604966934165 -0.69472737821557073
  outer loop
   vertex 0.019193999469280243 -0.072829000651836395 0.049580998718738556
   vertex 0.024421999230980873 -0.073977001011371613 0.054807998239994049
   vertex 0.024419000372290611 -0.075969003140926361 0.054552998393774033
  endloop
 endfacet
 facet normal 0.8182234275944541 -0.21835343639014965 0.5318197056824765
  outer loop
   vertex 0.026277000084519386 -0.063226997852325439 0.05607600137591362
   vertex 0.024745000526309013 -0.063740998506546021 0.058221999555826187
   vertex 0.024418000131845474 -0.071786001324653625 0.055422000586986542
  endloop
 endfacet
 facet normal 0.98564836403458955 -0.061746131948997959 0.15711370934859278
  outer loop
   vertex 0.024418000131845474 -0.071786001324653625 0.055422000586986542
   vertex 0.024567000567913055 -0.071806997060775757 0.054478999227285385
   vertex 0.025258999317884445 -0.065780997276306152 0.052505999803543091
  endloop
 endfacet
 facet normal 0.97056617705802362 -0.20062476632273121 -0.13323287540589485
  outer loop
   vertex 0.026277000084519386 -0.063226997852325439 0.05607600137591362
   vertex 0.024418000131845474 -0.071786001324653625 0.055422000586986542
   vertex 0.025258999317884445 -0.065780997276306152 0.052505999803543091
  endloop
 endfacet
 facet normal 0.62104220924379483 -0.35450792038101397 -0.69902125055302511
  outer loop
   vertex 0.024351999163627625 -0.071836002171039581 0.05366000160574913
   vertex 0.024421999230980873 -0.073977001011371613 0.054807998239994049
   vertex 0.019193999469280243 -0.072829000651836395 0.049580998718738556
  endloop
 endfacet
 facet normal 0.96305119598471034 -0.10213371600826693 -0.24920091887222628
  outer loop
   vertex 0.024351999163627625 -0.071836002171039581 0.05366000160574913
   vertex 0.024567000567913055 -0.071806997060775757 0.054478999227285385
   vertex 0.024421999230980873 -0.073977001011371613 0.054807998239994049
  endloop
 endfacet
 facet normal 0.95144464821354346 -0.18884850355865546 -0.24308295721720805
  outer loop
   vertex 0.024351999163627625 -0.071836002171039581 0.05366000160574913
   vertex 0.025258999317884445 -0.065780997276306152 0.052505999803543091
   vertex 0.024567000567913055 -0.071806997060775757 0.054478999227285385
  endloop
 endfacet
 facet normal -0.078966303867047172 0.20747451983519133 0.97504802264951751
  outer loop
   vertex 0.021914999932050705 -0.062311001121997833 0.058269999921321869
   vertex 0.019276000559329987 -0.064824000000953674 0.058591000735759735
   vertex 0.022345000877976418 -0.06381099671125412 0.058623999357223511
  endloop
 endfacet
 facet normal 0.057671179065874344 0.24493874339519886 0.9678218054420622
  outer loop
   vertex 0.024701999500393867 -0.062010999768972397 0.058028001338243484
   vertex 0.021914999932050705 -0.062311001121997833 0.058269999921321869
   vertex 0.022345000877976418 -0.06381099671125412 0.058623999357223511
  endloop
 endfacet
 facet normal 0.16088953409316392 0.11393604795663995 0.98037397700842044
  outer loop
   vertex 0.024745000526309013 -0.063740998506546021 0.058221999555826187
   vertex 0.024701999500393867 -0.062010999768972397 0.058028001338243484
   vertex 0.022345000877976418 -0.06381099671125412 0.058623999357223511
  endloop
 endfacet
 facet normal -0.62343974938415625 -0.35915200057178504 0.69450177780413558
  outer loop
   vertex 0.012732000090181828 -0.06591399759054184 0.053778998553752899
   vertex 0.01434400025755167 -0.068689003586769104 0.053791001439094543
   vertex 0.014740999788045883 -0.065093003213405609 0.056007001549005508
  endloop
 endfacet
 facet normal -0.7399361944522761 0.44736288607704927 0.50235532872688471
  outer loop
   vertex 0.012732000090181828 -0.06591399759054184 0.053778998553752899
   vertex 0.014740999788045883 -0.065093003213405609 0.056007001549005508
   vertex 0.012803000397980213 -0.064138002693653107 0.052301999181509018
  endloop
 endfacet
 facet normal -0.71250129486673452 0.49261765801132795 0.49966963869006598
  outer loop
   vertex 0.014740999788045883 -0.065093003213405609 0.056007001549005508
   vertex 0.015915999189019203 -0.063285000622272491 0.055900000035762787
   vertex 0.012803000397980213 -0.064138002693653107 0.052301999181509018
  endloop
 endfacet
 facet normal -0.47816327781907325 0.35821085934647684 0.80190077939329762
  outer loop
   vertex 0.015915999189019203 -0.063285000622272491 0.055900000035762787
   vertex 0.014740999788045883 -0.065093003213405609 0.056007001549005508
   vertex 0.019276000559329987 -0.064824000000953674 0.058591000735759735
  endloop
 endfacet
 facet normal -0.35758625078144696 0.47799553867534778 0.80227946393917637
  outer loop
   vertex 0.01990400068461895 -0.061661999672651291 0.05698699876666069
   vertex 0.019276000559329987 -0.064824000000953674 0.058591000735759735
   vertex 0.021914999932050705 -0.062311001121997833 0.058269999921321869
  endloop
 endfacet
 facet normal -0.40636528123982102 0.4762644120367221 0.77976885551437403
  outer loop
   vertex 0.015915999189019203 -0.063285000622272491 0.055900000035762787
   vertex 0.019276000559329987 -0.064824000000953674 0.058591000735759735
   vertex 0.01990400068461895 -0.061661999672651291 0.05698699876666069
  endloop
 endfacet
 facet normal 0.80095156272396251 0.086346815973732685 0.59247010181210047
  outer loop
   vertex 0.024701999500393867 -0.062010999768972397 0.058028001338243484
   vertex 0.024745000526309013 -0.063740998506546021 0.058221999555826187
   vertex 0.026277000084519386 -0.063226997852325439 0.05607600137591362
  endloop
 endfacet
 facet normal -0.92722709409211079 0.35197310993620284 0.12792515727306242
  outer loop
   vertex 0.011969000101089478 -0.064159996807575226 0.048781998455524445
   vertex 0.012063000351190567 -0.064816996455192566 0.051270999014377594
   vertex 0.012215999886393547 -0.063585996627807617 0.048992998898029327
  endloop
 endfacet
 facet normal -0.85469615986992675 0.35171381690557907 0.38182700965399136
  outer loop
   vertex 0.012063000351190567 -0.064816996455192566 0.051270999014377594
   vertex 0.012732000090181828 -0.06591399759054184 0.053778998553752899
   vertex 0.012803000397980213 -0.064138002693653107 0.052301999181509018
  endloop
 endfacet
 facet normal -0.813593923420034 0.53262734632766517 0.23318026871488359
  outer loop
   vertex 0.012803000397980213 -0.064138002693653107 0.052301999181509018
   vertex 0.012215999886393547 -0.063585996627807617 0.048992998898029327
   vertex 0.012063000351190567 -0.064816996455192566 0.051270999014377594
  endloop
 endfacet
 facet normal -0.99806198515442412 0.039466787152962673 0.048110773236694902
  outer loop
   vertex 0.012063000351190567 -0.064816996455192566 0.051270999014377594
   vertex 0.011969000101089478 -0.064159996807575226 0.048781998455524445
   vertex 0.011827999725937843 -0.066474996507167816 0.047756001353263855
  endloop
 endfacet
 facet normal -0.96752032550770883 0.14932918324069186 -0.20397356388053126
  outer loop
   vertex 0.011969000101089478 -0.064159996807575226 0.048781998455524445
   vertex 0.012292000465095043 -0.063383996486663818 0.047818001359701157
   vertex 0.011827999725937843 -0.066474996507167816 0.047756001353263855
  endloop
 endfacet
 facet normal -0.84528055130965107 0.13724597968509245 -0.51639551763927205
  outer loop
   vertex 0.013249999843537807 -0.064135998487472534 0.046050000935792923
   vertex 0.011827999725937843 -0.066474996507167816 0.047756001353263855
   vertex 0.012292000465095043 -0.063383996486663818 0.047818001359701157
  endloop
 endfacet
 facet normal -0.53322482168704122 -0.49167949828807939 -0.68842033707612504
  outer loop
   vertex 0.015096999704837799 -0.065915003418922424 0.04482400044798851
   vertex 0.015567000024020672 -0.071244001388549805 0.048266001045703888
   vertex 0.011827999725937843 -0.066474996507167816 0.047756001353263855
  endloop
 endfacet
 facet normal -0.64501432832089822 -0.15381849666991987 -0.74852948261437646
  outer loop
   vertex 0.013249999843537807 -0.064135998487472534 0.046050000935792923
   vertex 0.015096999704837799 -0.065915003418922424 0.04482400044798851
   vertex 0.011827999725937843 -0.066474996507167816 0.047756001353263855
  endloop
 endfacet
 facet normal 0.20889845841264415 -0.29541519094485202 -0.93225066319731698
  outer loop
   vertex 0.019133999943733215 -0.06943800300359726 0.048493001610040665
   vertex 0.019193999469280243 -0.072829000651836395 0.049580998718738556
   vertex 0.015567000024020672 -0.071244001388549805 0.048266001045703888
  endloop
 endfacet
 facet normal -0.091609482616537868 -0.54597220390102852 -0.83277971592863864
  outer loop
   vertex 0.015096999704837799 -0.065915003418922424 0.04482400044798851
   vertex 0.017212999984622002 -0.065544001758098602 0.044348001480102539
   vertex 0.015567000024020672 -0.071244001388549805 0.048266001045703888
  endloop
 endfacet
 facet normal 0.34835066383322355 -0.59721050697066291 -0.72248974066819538
  outer loop
   vertex 0.015567000024020672 -0.071244001388549805 0.048266001045703888
   vertex 0.017212999984622002 -0.065544001758098602 0.044348001480102539
   vertex 0.019133999943733215 -0.06943800300359726 0.048493001610040665
  endloop
 endfacet
 facet normal 0.45396467017406228 0.34628936469134253 -0.82097488033156119
  outer loop
   vertex 0.021418999880552292 -0.083539001643657684 0.050076998770236969
   vertex 0.021104000508785248 -0.082594998180866241 0.050301000475883484
   vertex 0.02231300063431263 -0.083719998598098755 0.050494998693466187
  endloop
 endfacet
 facet normal 0.37789330386714776 -0.64120407439220539 -0.66787273179491802
  outer loop
   vertex 0.025016000494360924 -0.088403001427650452 0.049123998731374741
   vertex 0.022505000233650208 -0.090236999094486237 0.049463998526334763
   vertex 0.022833000868558884 -0.088698998093605042 0.048172999173402786
  endloop
 endfacet
 facet normal 0.6158603986266632 0.039782767011947238 -0.78685024042207719
  outer loop
   vertex 0.021716000512242317 -0.085093997418880463 0.047481000423431396
   vertex 0.023602999746799469 -0.084894999861717224 0.048967998474836349
   vertex 0.022833000868558884 -0.088698998093605042 0.048172999173402786
  endloop
 endfacet
 facet normal 0.38377733231205707 0.11383168137441158 -0.91638272982357938
  outer loop
   vertex 0.023602999746799469 -0.084894999861717224 0.048967998474836349
   vertex 0.025016000494360924 -0.088403001427650452 0.049123998731374741
   vertex 0.022833000868558884 -0.088698998093605042 0.048172999173402786
  endloop
 endfacet
 facet normal 0.37187775019634545 0.86056918010637373 -0.34803394254001763
  outer loop
   vertex 0.023602999746799469 -0.084894999861717224 0.048967998474836349
   vertex 0.02231300063431263 -0.083719998598098755 0.050494998693466187
   vertex 0.02474600076675415 -0.084389999508857727 0.051438000053167343
  endloop
 endfacet
 facet normal 0.67055514222611345 0.60209514304128076 -0.43340193811312899
  outer loop
   vertex 0.023602999746799469 -0.084894999861717224 0.048967998474836349
   vertex 0.02474600076675415 -0.084389999508857727 0.051438000053167343
   vertex 0.025969000533223152 -0.086153000593185425 0.050880998373031616
  endloop
 endfacet
 facet normal 0.68506650132640712 0.24543906879026059 -0.68588887749530203
  outer loop
   vertex 0.025969000533223152 -0.086153000593185425 0.050880998373031616
   vertex 0.025016000494360924 -0.088403001427650452 0.049123998731374741
   vertex 0.023602999746799469 -0.084894999861717224 0.048967998474836349
  endloop
 endfacet
 facet normal 0.3467255468362529 0.49269059007865046 -0.79814621318343204
  outer loop
   vertex 0.02474600076675415 -0.084389999508857727 0.051438000053167343
   vertex 0.026967000216245651 -0.083778999745845795 0.052779998630285263
   vertex 0.025969000533223152 -0.086153000593185425 0.050880998373031616
  endloop
 endfacet
 facet normal 0.63033716357243452 -0.23541018625878676 -0.73976827752010366
  outer loop
   vertex 0.025258999317884445 -0.065780997276306152 0.052505999803543091
   vertex 0.024351999163627625 -0.071836002171039581 0.05366000160574913
   vertex 0.019193999469280243 -0.072829000651836395 0.049580998718738556
  endloop
 endfacet
 facet normal 0.62527569101809222 -0.22836758369069496 -0.74624296106638144
  outer loop
   vertex 0.025258999317884445 -0.065780997276306152 0.052505999803543091
   vertex 0.019193999469280243 -0.072829000651836395 0.049580998718738556
   vertex 0.019133999943733215 -0.06943800300359726 0.048493001610040665
  endloop
 endfacet
 facet normal 0.82250741277104222 0.36456941767784434 0.43654403630186478
  outer loop
   vertex 0.026277000084519386 -0.063226997852325439 0.05607600137591362
   vertex 0.025971999391913414 -0.061926998198032379 0.055564999580383301
   vertex 0.024701999500393867 -0.062010999768972397 0.058028001338243484
  endloop
 endfacet
 facet normal 0.86907168243398147 -0.48469247914061131 0.098932357982092378
  outer loop
   vertex 0.026649000123143196 -0.063006997108459473 0.053886000066995621
   vertex 0.026277000084519386 -0.063226997852325439 0.05607600137591362
   vertex 0.025258999317884445 -0.065780997276306152 0.052505999803543091
  endloop
 endfacet
 facet normal 0.93699250485675489 0.29400540949927395 0.18869516429264596
  outer loop
   vertex 0.025971999391913414 -0.061926998198032379 0.055564999580383301
   vertex 0.026277000084519386 -0.063226997852325439 0.05607600137591362
   vertex 0.026649000123143196 -0.063006997108459473 0.053886000066995621
  endloop
 endfacet
 facet normal 0.65863050406841028 -0.41261458799800221 -0.6292496014157104
  outer loop
   vertex 0.019133999943733215 -0.06943800300359726 0.048493001610040665
   vertex 0.025722000747919083 -0.061847001314163208 0.050411000847816467
   vertex 0.025258999317884445 -0.065780997276306152 0.052505999803543091
  endloop
 endfacet
 facet normal 0.89862586374800946 -0.28388681598352278 -0.33448442820837193
  outer loop
   vertex 0.025258999317884445 -0.065780997276306152 0.052505999803543091
   vertex 0.025722000747919083 -0.061847001314163208 0.050411000847816467
   vertex 0.026649000123143196 -0.063006997108459473 0.053886000066995621
  endloop
 endfacet
 facet normal 0.24666817669866392 0.6610551719366301 0.70863309989019641
  outer loop
   vertex 0.022477999329566956 -0.060672998428344727 0.056545998901128769
   vertex 0.021914999932050705 -0.062311001121997833 0.058269999921321869
   vertex 0.023869000375270844 -0.061250999569892883 0.056600999087095261
  endloop
 endfacet
 facet normal -0.050774524579181961 0.86888878647539569 0.49239640980725319
  outer loop
   vertex 0.021914999932050705 -0.062311001121997833 0.058269999921321869
   vertex 0.024701999500393867 -0.062010999768972397 0.058028001338243484
   vertex 0.023869000375270844 -0.061250999569892883 0.056600999087095261
  endloop
 endfacet
 facet normal -0.23064963175744807 0.67354710038928745 0.70223575167271035
  outer loop
   vertex 0.021914999932050705 -0.062311001121997833 0.058269999921321869
   vertex 0.021244000643491745 -0.061101999133825302 0.056889999657869339
   vertex 0.01990400068461895 -0.061661999672651291 0.05698699876666069
  endloop
 endfacet
 facet normal -0.066865448997709437 0.73414727667089008 0.67568986072535553
  outer loop
   vertex 0.021244000643491745 -0.061101999133825302 0.056889999657869339
   vertex 0.021914999932050705 -0.062311001121997833 0.058269999921321869
   vertex 0.022477999329566956 -0.060672998428344727 0.056545998901128769
  endloop
 endfacet
 facet normal 0.25642787425367042 0.90721293902830014 0.33348077690532291
  outer loop
   vertex 0.024560999125242233 -0.060478001832962036 0.05396600067615509
   vertex 0.023869000375270844 -0.061250999569892883 0.056600999087095261
   vertex 0.024701999500393867 -0.062010999768972397 0.058028001338243484
  endloop
 endfacet
 facet normal 0.5066782452822064 0.81226739449795549 0.28896165073110808
  outer loop
   vertex 0.024560999125242233 -0.060478001832962036 0.05396600067615509
   vertex 0.024701999500393867 -0.062010999768972397 0.058028001338243484
   vertex 0.025971999391913414 -0.061926998198032379 0.055564999580383301
  endloop
 endfacet
 facet normal -0.25932935300898496 0.96577803281968211 -0.0045910773121861682
  outer loop
   vertex 0.020468000322580338 -0.062084000557661057 0.051419999450445175
   vertex 0.012803000397980213 -0.064138002693653107 0.052301999181509018
   vertex 0.015915999189019203 -0.063285000622272491 0.055900000035762787
  endloop
 endfacet
 facet normal -0.166699974461823 0.96734260449367859 0.19094345771933116
  outer loop
   vertex 0.012215999886393547 -0.063585996627807617 0.048992998898029327
   vertex 0.012803000397980213 -0.064138002693653107 0.052301999181509018
   vertex 0.020811999216675758 -0.061882998794317245 0.047869998961687088
  endloop
 endfacet
 facet normal -0.25550559651048493 0.966343386472727 0.029955793634003931
  outer loop
   vertex 0.012803000397980213 -0.064138002693653107 0.052301999181509018
   vertex 0.020468000322580338 -0.062084000557661057 0.051419999450445175
   vertex 0.020811999216675758 -0.061882998794317245 0.047869998961687088
  endloop
 endfacet
 facet normal -0.41973005188849172 0.87848033466316244 0.22825202113405707
  outer loop
   vertex 0.021661000326275826 -0.060465000569820404 0.055610999464988708
   vertex 0.015915999189019203 -0.063285000622272491 0.055900000035762787
   vertex 0.01990400068461895 -0.061661999672651291 0.05698699876666069
  endloop
 endfacet
 facet normal -0.43918425734852012 0.872972884846834 -0.21221576383347457
  outer loop
   vertex 0.015915999189019203 -0.063285000622272491 0.055900000035762787
   vertex 0.021661000326275826 -0.060465000569820404 0.055610999464988708
   vertex 0.020468000322580338 -0.062084000557661057 0.051419999450445175
  endloop
 endfacet
 facet normal -0.3443015352654607 0.8803666915348306 0.32620689945165654
  outer loop
   vertex 0.021661000326275826 -0.060465000569820404 0.055610999464988708
   vertex 0.01990400068461895 -0.061661999672651291 0.05698699876666069
   vertex 0.021244000643491745 -0.061101999133825302 0.056889999657869339
  endloop
 endfacet
 facet normal -0.9196048559917942 0.39276234476826172 0.0080404830979630727
  outer loop
   vertex 0.012215999886393547 -0.063585996627807617 0.048992998898029327
   vertex 0.012292000465095043 -0.063383996486663818 0.047818001359701157
   vertex 0.011969000101089478 -0.064159996807575226 0.048781998455524445
  endloop
 endfacet
 facet normal -0.17229939840176164 0.97260367013866733 0.15606094368286191
  outer loop
   vertex 0.012292000465095043 -0.063383996486663818 0.047818001359701157
   vertex 0.012215999886393547 -0.063585996627807617 0.048992998898029327
   vertex 0.020811999216675758 -0.061882998794317245 0.047869998961687088
  endloop
 endfacet
 facet normal -0.62845134223894616 0.53248544445570667 -0.56701689735040139
  outer loop
   vertex 0.013597999699413776 -0.063146002590656281 0.046594001352787018
   vertex 0.013249999843537807 -0.064135998487472534 0.046050000935792923
   vertex 0.012292000465095043 -0.063383996486663818 0.047818001359701157
  endloop
 endfacet
 facet normal -0.17353551131279935 0.9848073061104895 0.0063242505331460421
  outer loop
   vertex 0.013597999699413776 -0.063146002590656281 0.046594001352787018
   vertex 0.012292000465095043 -0.063383996486663818 0.047818001359701157
   vertex 0.020811999216675758 -0.061882998794317245 0.047869998961687088
  endloop
 endfacet
 facet normal -0.40373580038175977 0.54550156259274141 -0.734455886149044
  outer loop
   vertex 0.015523999929428101 -0.063074998557567596 0.045588001608848572
   vertex 0.013249999843537807 -0.064135998487472534 0.046050000935792923
   vertex 0.013597999699413776 -0.063146002590656281 0.046594001352787018
  endloop
 endfacet
 facet normal -0.54915285273487047 0.0057817327497446539 -0.83570193005614379
  outer loop
   vertex 0.015203000046312809 -0.064085997641086578 0.044766999781131744
   vertex 0.015096999704837799 -0.065915003418922424 0.04482400044798851
   vertex 0.013249999843537807 -0.064135998487472534 0.046050000935792923
  endloop
 endfacet
 facet normal -0.42993765599729022 0.64748138933997157 -0.62922290359930166
  outer loop
   vertex 0.015203000046312809 -0.064085997641086578 0.044766999781131744
   vertex 0.013249999843537807 -0.064135998487472534 0.046050000935792923
   vertex 0.015523999929428101 -0.063074998557567596 0.045588001608848572
  endloop
 endfacet
 facet normal -0.18233551172140955 -0.020068731995181905 -0.98303153925059661
  outer loop
   vertex 0.015203000046312809 -0.064085997641086578 0.044766999781131744
   vertex 0.017108999192714691 -0.064161002635955811 0.044415000826120377
   vertex 0.015096999704837799 -0.065915003418922424 0.04482400044798851
  endloop
 endfacet
 facet normal -0.22442236524989642 0.030309948325429995 -0.97402048695504961
  outer loop
   vertex 0.017212999984622002 -0.065544001758098602 0.044348001480102539
   vertex 0.015096999704837799 -0.065915003418922424 0.04482400044798851
   vertex 0.017108999192714691 -0.064161002635955811 0.044415000826120377
  endloop
 endfacet
 facet normal 0.58627422777249416 -0.32085979462400538 -0.74386256932554862
  outer loop
   vertex 0.025722000747919083 -0.061847001314163208 0.050411000847816467
   vertex 0.019133999943733215 -0.06943800300359726 0.048493001610040665
   vertex 0.019415000453591347 -0.063392996788024902 0.046107001602649689
  endloop
 endfacet
 facet normal 0.7489960153730566 -0.27309177150682235 -0.60367694447489839
  outer loop
   vertex 0.017212999984622002 -0.065544001758098602 0.044348001480102539
   vertex 0.019415000453591347 -0.063392996788024902 0.046107001602649689
   vertex 0.019133999943733215 -0.06943800300359726 0.048493001610040665
  endloop
 endfacet
 facet normal 0.57154454247651776 0.08253080430228385 -0.81641013118807271
  outer loop
   vertex 0.017108999192714691 -0.064161002635955811 0.044415000826120377
   vertex 0.019415000453591347 -0.063392996788024902 0.046107001602649689
   vertex 0.017212999984622002 -0.065544001758098602 0.044348001480102539
  endloop
 endfacet
 facet normal 0.59182095145038915 0.78382582437658699 0.18805594503955483
  outer loop
   vertex 0.025971999391913414 -0.061926998198032379 0.055564999580383301
   vertex 0.02628600038588047 -0.06156500056385994 0.053068000823259354
   vertex 0.024560999125242233 -0.060478001832962036 0.05396600067615509
  endloop
 endfacet
 facet normal 0.93041583511335135 0.32752353276339435 0.16448315797220964
  outer loop
   vertex 0.025971999391913414 -0.061926998198032379 0.055564999580383301
   vertex 0.026649000123143196 -0.063006997108459473 0.053886000066995621
   vertex 0.02628600038588047 -0.06156500056385994 0.053068000823259354
  endloop
 endfacet
 facet normal 0.96847850866222829 0.11995863712233283 -0.2183101088798656
  outer loop
   vertex 0.02628600038588047 -0.06156500056385994 0.053068000823259354
   vertex 0.026649000123143196 -0.063006997108459473 0.053886000066995621
   vertex 0.025722000747919083 -0.061847001314163208 0.050411000847816467
  endloop
 endfacet
 facet normal 0.38436525928911364 0.53783402779940925 -0.75033186390601647
  outer loop
   vertex 0.02413799986243248 -0.06105399876832962 0.050168000161647797
   vertex 0.025722000747919083 -0.061847001314163208 0.050411000847816467
   vertex 0.020811999216675758 -0.061882998794317245 0.047869998961687088
  endloop
 endfacet
 facet normal 0.38808531893401349 0.52518980302826446 -0.7573410434031802
  outer loop
   vertex 0.025722000747919083 -0.061847001314163208 0.050411000847816467
   vertex 0.019415000453591347 -0.063392996788024902 0.046107001602649689
   vertex 0.020811999216675758 -0.061882998794317245 0.047869998961687088
  endloop
 endfacet
 facet normal 0.4515012487429616 0.87215244085692456 -0.18840579155337855
  outer loop
   vertex 0.02628600038588047 -0.06156500056385994 0.053068000823259354
   vertex 0.025722000747919083 -0.061847001314163208 0.050411000847816467
   vertex 0.024560999125242233 -0.060478001832962036 0.05396600067615509
  endloop
 endfacet
 facet normal 0.46241335304050307 0.86755872211765173 -0.18307308542608383
  outer loop
   vertex 0.02413799986243248 -0.06105399876832962 0.050168000161647797
   vertex 0.024560999125242233 -0.060478001832962036 0.05396600067615509
   vertex 0.025722000747919083 -0.061847001314163208 0.050411000847816467
  endloop
 endfacet
 facet normal -0.16695755716809557 0.86283243272316035 0.4771219625478324
  outer loop
   vertex 0.02302899956703186 -0.060029998421669006 0.055576000362634659
   vertex 0.021244000643491745 -0.061101999133825302 0.056889999657869339
   vertex 0.022477999329566956 -0.060672998428344727 0.056545998901128769
  endloop
 endfacet
 facet normal 0.2192971631847965 0.60089641469985189 0.76865613444502245
  outer loop
   vertex 0.023869000375270844 -0.061250999569892883 0.056600999087095261
   vertex 0.023421000689268112 -0.060430001467466354 0.05608699843287468
   vertex 0.022477999329566956 -0.060672998428344727 0.056545998901128769
  endloop
 endfacet
 facet normal 0.072893339206773322 0.81171732791796258 0.57948385711511341
  outer loop
   vertex 0.023421000689268112 -0.060430001467466354 0.05608699843287468
   vertex 0.02302899956703186 -0.060029998421669006 0.055576000362634659
   vertex 0.022477999329566956 -0.060672998428344727 0.056545998901128769
  endloop
 endfacet
 facet normal 0.70277054876858347 0.61130686206621587 0.36389212161609208
  outer loop
   vertex 0.024560999125242233 -0.060478001832962036 0.05396600067615509
   vertex 0.023421000689268112 -0.060430001467466354 0.05608699843287468
   vertex 0.023869000375270844 -0.061250999569892883 0.056600999087095261
  endloop
 endfacet
 facet normal -0.27499435558654817 0.89339076851052612 0.35529007745180619
  outer loop
   vertex 0.02302899956703186 -0.060029998421669006 0.055576000362634659
   vertex 0.021661000326275826 -0.060465000569820404 0.055610999464988708
   vertex 0.021244000643491745 -0.061101999133825302 0.056889999657869339
  endloop
 endfacet
 facet normal 0.50803002543637665 0.82290270772361496 0.25443393420740362
  outer loop
   vertex 0.024560999125242233 -0.060478001832962036 0.05396600067615509
   vertex 0.02302899956703186 -0.060029998421669006 0.055576000362634659
   vertex 0.023421000689268112 -0.060430001467466354 0.05608699843287468
  endloop
 endfacet
 facet normal -0.047529053434859088 0.94971211547008083 -0.30949618222028197
  outer loop
   vertex 0.022276999428868294 -0.060284998267889023 0.054908998310565948
   vertex 0.02302899956703186 -0.060029998421669006 0.055576000362634659
   vertex 0.024560999125242233 -0.060478001832962036 0.05396600067615509
  endloop
 endfacet
 facet normal -0.18513180596157336 0.97445135091687896 -0.12716437833637195
  outer loop
   vertex 0.022905999794602394 -0.060894999653100967 0.053180001676082611
   vertex 0.024560999125242233 -0.060478001832962036 0.05396600067615509
   vertex 0.02413799986243248 -0.06105399876832962 0.050168000161647797
  endloop
 endfacet
 facet normal -0.06714829681361123 0.93298650079504974 -0.35359199025040122
  outer loop
   vertex 0.022276999428868294 -0.060284998267889023 0.054908998310565948
   vertex 0.024560999125242233 -0.060478001832962036 0.05396600067615509
   vertex 0.022905999794602394 -0.060894999653100967 0.053180001676082611
  endloop
 endfacet
 facet normal -0.47453712220633121 0.85804820876359222 -0.196386840408731
  outer loop
   vertex 0.021661000326275826 -0.060465000569820404 0.055610999464988708
   vertex 0.022276999428868294 -0.060284998267889023 0.054908998310565948
   vertex 0.020468000322580338 -0.062084000557661057 0.051419999450445175
  endloop
 endfacet
 facet normal -0.16773407258991258 0.90893896174892774 -0.38170046464103624
  outer loop
   vertex 0.022276999428868294 -0.060284998267889023 0.054908998310565948
   vertex 0.022905999794602394 -0.060894999653100967 0.053180001676082611
   vertex 0.020468000322580338 -0.062084000557661057 0.051419999450445175
  endloop
 endfacet
 facet normal -0.44289984575892505 0.8965367747709283 0.0078446230031842621
  outer loop
   vertex 0.020468000322580338 -0.062084000557661057 0.051419999450445175
   vertex 0.022905999794602394 -0.060894999653100967 0.053180001676082611
   vertex 0.020811999216675758 -0.061882998794317245 0.047869998961687088
  endloop
 endfacet
 facet normal 0.28687157485724213 0.60335557380970717 -0.74408786516894942
  outer loop
   vertex 0.020811999216675758 -0.061882998794317245 0.047869998961687088
   vertex 0.019415000453591347 -0.063392996788024902 0.046107001602649689
   vertex 0.017090000212192535 -0.063046000897884369 0.045492000877857208
  endloop
 endfacet
 facet normal -0.13617352302622335 0.97187984281900563 -0.19211023592909229
  outer loop
   vertex 0.013597999699413776 -0.063146002590656281 0.046594001352787018
   vertex 0.020811999216675758 -0.061882998794317245 0.047869998961687088
   vertex 0.015523999929428101 -0.063074998557567596 0.045588001608848572
  endloop
 endfacet
 facet normal -0.040768812071796084 0.92127979157839235 -0.38675761090317096
  outer loop
   vertex 0.017090000212192535 -0.063046000897884369 0.045492000877857208
   vertex 0.015523999929428101 -0.063074998557567596 0.045588001608848572
   vertex 0.020811999216675758 -0.061882998794317245 0.047869998961687088
  endloop
 endfacet
 facet normal -0.16250944595053593 0.9796037093495672 -0.11818313164499621
  outer loop
   vertex 0.020811999216675758 -0.061882998794317245 0.047869998961687088
   vertex 0.022905999794602394 -0.060894999653100967 0.053180001676082611
   vertex 0.02413799986243248 -0.06105399876832962 0.050168000161647797
  endloop
 endfacet
 facet normal -0.30347103962720884 0.95258578762590573 -0.022037361927280567
  outer loop
   vertex 0.021661000326275826 -0.060465000569820404 0.055610999464988708
   vertex 0.02302899956703186 -0.060029998421669006 0.055576000362634659
   vertex 0.022276999428868294 -0.060284998267889023 0.054908998310565948
  endloop
 endfacet
 facet normal -0.11362478218508605 0.64780006887998198 -0.75328910760244117
  outer loop
   vertex 0.017108999192714691 -0.064161002635955811 0.044415000826120377
   vertex 0.015203000046312809 -0.064085997641086578 0.044766999781131744
   vertex 0.015523999929428101 -0.063074998557567596 0.045588001608848572
  endloop
 endfacet
 facet normal -0.056885484766222488 0.69311700513042751 -0.71857696791779968
  outer loop
   vertex 0.017108999192714691 -0.064161002635955811 0.044415000826120377
   vertex 0.015523999929428101 -0.063074998557567596 0.045588001608848572
   vertex 0.017090000212192535 -0.063046000897884369 0.045492000877857208
  endloop
 endfacet
 facet normal 0.28176729541842011 0.66907399612990948 -0.68771155213166413
  outer loop
   vertex 0.017108999192714691 -0.064161002635955811 0.044415000826120377
   vertex 0.017090000212192535 -0.063046000897884369 0.045492000877857208
   vertex 0.019415000453591347 -0.063392996788024902 0.046107001602649689
  endloop
 endfacet
endsolid
