solid Visualization Toolkit generated SLA File
 facet normal -0.31149029821462415 0.9494707554094759 0.038458792756972164
  outer loop
   vertex -0.0083419997245073318 -0.018183000385761261 -0.014596999622881413
   vertex -0.0091519998386502266 -0.018579000607132912 -0.011381000280380249
   vertex -0.0056400001049041748 -0.017322000116109848 -0.013969000428915024
  endloop
 endfacet
 facet normal -0.0082720339957215554 0.60608138371959408 -0.79535962291413542
  outer loop
   vertex -0.0083419997245073318 -0.018183000385761261 -0.014596999622881413
   vertex -0.0056400001049041748 -0.017322000116109848 -0.013969000428915024
   vertex -0.007000999990850687 -0.018644999712705612 -0.014963000081479549
  endloop
 endfacet
 facet normal -0.61102098926966986 0.78958331974181828 -0.056670379012351495
  outer loop
   vertex -0.0091519998386502266 -0.018579000607132912 -0.011381000280380249
   vertex -0.0083419997245073318 -0.018183000385761261 -0.014596999622881413
   vertex -0.012865999713540077 -0.021554000675678253 -0.012787000276148319
  endloop
 endfacet
 facet normal -0.096668066170747469 0.43038377112810339 -0.89745478690146863
  outer loop
   vertex -0.007000999990850687 -0.018644999712705612 -0.014963000081479549
   vertex -0.012423999607563019 -0.0226259995251894 -0.016287999227643013
   vertex -0.0083419997245073318 -0.018183000385761261 -0.014596999622881413
  endloop
 endfacet
 facet normal -0.64410489250539094 0.70486392760205996 -0.29714597593778164
  outer loop
   vertex -0.0083419997245073318 -0.018183000385761261 -0.014596999622881413
   vertex -0.012423999607563019 -0.0226259995251894 -0.016287999227643013
   vertex -0.012865999713540077 -0.021554000675678253 -0.012787000276148319
  endloop
 endfacet
 facet normal -0.07433156484324302 0.93294425529800773 0.35226387123064545
  outer loop
   vertex -0.0091519998386502266 -0.018579000607132912 -0.011381000280380249
   vertex -0.0050050001591444016 -0.01788800023496151 -0.012335999868810177
   vertex -0.0056400001049041748 -0.017322000116109848 -0.013969000428915024
  endloop
 endfacet
 facet normal -0.36283965711776067 0.77723030539994908 0.51406267671419947
  outer loop
   vertex -0.0070199999026954174 -0.018928999081254005 -0.0093470001593232155
   vertex -0.0091519998386502266 -0.018579000607132912 -0.011381000280380249
   vertex -0.0075630000792443752 -0.020459000021219254 -0.0074169998988509178
  endloop
 endfacet
 facet normal -0.36546617410490057 0.77576235162912643 0.51441933223779024
  outer loop
   vertex -0.010092999786138535 -0.022502999752759933 -0.0061320001259446144
   vertex -0.0075630000792443752 -0.020459000021219254 -0.0074169998988509178
   vertex -0.0091519998386502266 -0.018579000607132912 -0.011381000280380249
  endloop
 endfacet
 facet normal -0.67012838282153897 0.64708462804782274 0.36360615324991347
  outer loop
   vertex -0.011256000027060509 -0.023327000439167023 -0.0068089999258518219
   vertex -0.010092999786138535 -0.022502999752759933 -0.0061320001259446144
   vertex -0.0091519998386502266 -0.018579000607132912 -0.011381000280380249
  endloop
 endfacet
 facet normal -0.66204327113054351 0.65098310935631443 0.37137541448452749
  outer loop
   vertex -0.011256000027060509 -0.023327000439167023 -0.0068089999258518219
   vertex -0.0091519998386502266 -0.018579000607132912 -0.011381000280380249
   vertex -0.012865999713540077 -0.021554000675678253 -0.012787000276148319
  endloop
 endfacet
 facet normal -0.098059280869135512 0.95849495551294006 0.26771588987520883
  outer loop
   vertex -0.0050050001591444016 -0.01788800023496151 -0.012335999868810177
   vertex -0.0091519998386502266 -0.018579000607132912 -0.011381000280380249
   vertex -0.0070199999026954174 -0.018928999081254005 -0.0093470001593232155
  endloop
 endfacet
 facet normal 0.38248218281915863 0.91729514316748417 0.11080162520124115
  outer loop
   vertex -0.0013620000099763274 -0.019175000488758087 -0.013395999558269978
   vertex -0.0056400001049041748 -0.017322000116109848 -0.013969000428915024
   vertex -0.0041910000145435333 -0.018031999468803406 -0.013093000277876854
  endloop
 endfacet
 facet normal 0.28075550487953599 0.37497356574280893 -0.88349938962851604
  outer loop
   vertex -0.0056400001049041748 -0.017322000116109848 -0.013969000428915024
   vertex -0.0013620000099763274 -0.019175000488758087 -0.013395999558269978
   vertex -0.007000999990850687 -0.018644999712705612 -0.014963000081479549
  endloop
 endfacet
 facet normal 0.33808999469822265 0.92211653658471981 0.18813890730509905
  outer loop
   vertex -0.0041910000145435333 -0.018031999468803406 -0.013093000277876854
   vertex -0.0056400001049041748 -0.017322000116109848 -0.013969000428915024
   vertex -0.0050050001591444016 -0.01788800023496151 -0.012335999868810177
  endloop
 endfacet
 facet normal 0.28028401633963163 0.39367616606202449 -0.87547698225551907
  outer loop
   vertex -0.003984999842941761 -0.022220000624656677 -0.015604999847710133
   vertex -0.007000999990850687 -0.018644999712705612 -0.014963000081479549
   vertex -0.0013620000099763274 -0.019175000488758087 -0.013395999558269978
  endloop
 endfacet
 facet normal 0.067429787102780664 0.23118166619508368 -0.97057110044887407
  outer loop
   vertex -0.012423999607563019 -0.0226259995251894 -0.016287999227643013
   vertex -0.007000999990850687 -0.018644999712705612 -0.014963000081479549
   vertex -0.003984999842941761 -0.022220000624656677 -0.015604999847710133
  endloop
 endfacet
 facet normal -0.9497819300669299 0.3115548151990219 -0.029118421053359499
  outer loop
   vertex -0.015116999857127666 -0.02812499925494194 -0.0096709998324513435
   vertex -0.012865999713540077 -0.021554000675678253 -0.012787000276148319
   vertex -0.013952000066637993 -0.025191999971866608 -0.01628899946808815
  endloop
 endfacet
 facet normal -0.8304587950471306 0.4946210280252909 -0.25629714856797048
  outer loop
   vertex -0.013952000066637993 -0.025191999971866608 -0.01628899946808815
   vertex -0.012865999713540077 -0.021554000675678253 -0.012787000276148319
   vertex -0.012423999607563019 -0.0226259995251894 -0.016287999227643013
  endloop
 endfacet
 facet normal -0.82039464325065914 0.44895733319112013 0.35410442287486521
  outer loop
   vertex -0.015116999857127666 -0.02812499925494194 -0.0096709998324513435
   vertex -0.011256000027060509 -0.023327000439167023 -0.0068089999258518219
   vertex -0.012865999713540077 -0.021554000675678253 -0.012787000276148319
  endloop
 endfacet
 facet normal -0.0022506672269377451 0.0017300296952955077 -0.99999597073902602
  outer loop
   vertex -0.0084939999505877495 -0.023871999233961105 -0.016299000009894371
   vertex -0.013952000066637993 -0.025191999971866608 -0.01628899946808815
   vertex -0.012423999607563019 -0.0226259995251894 -0.016287999227643013
  endloop
 endfacet
 facet normal 0.036421865127994071 0.12363321195694332 -0.99165935514258507
  outer loop
   vertex -0.0051230001263320446 -0.0236859992146492 -0.016152000054717064
   vertex -0.0084939999505877495 -0.023871999233961105 -0.016299000009894371
   vertex -0.012423999607563019 -0.0226259995251894 -0.016287999227643013
  endloop
 endfacet
 facet normal 0.062150652897085622 0.30619944589664344 -0.94993641664958539
  outer loop
   vertex -0.0051230001263320446 -0.0236859992146492 -0.016152000054717064
   vertex -0.012423999607563019 -0.0226259995251894 -0.016287999227643013
   vertex -0.003984999842941761 -0.022220000624656677 -0.015604999847710133
  endloop
 endfacet
 facet normal 0.12340298712680851 0.99078792455110587 -0.055776261365324251
  outer loop
   vertex -0.0041910000145435333 -0.018031999468803406 -0.013093000277876854
   vertex -0.0050050001591444016 -0.01788800023496151 -0.012335999868810177
   vertex -0.0029060000088065863 -0.018124999478459358 -0.011901999823749065
  endloop
 endfacet
 facet normal 0.033618956544547378 0.93657499099395758 0.34885104558467961
  outer loop
   vertex -0.0050050001591444016 -0.01788800023496151 -0.012335999868810177
   vertex -0.0070199999026954174 -0.018928999081254005 -0.0093470001593232155
   vertex -0.0029060000088065863 -0.018124999478459358 -0.011901999823749065
  endloop
 endfacet
 facet normal 0.097783418621555179 0.76630273537970695 0.63499489824112809
  outer loop
   vertex -0.0075630000792443752 -0.020459000021219254 -0.0074169998988509178
   vertex -0.0025810000952333212 -0.018805999308824539 -0.010178999975323677
   vertex -0.0070199999026954174 -0.018928999081254005 -0.0093470001593232155
  endloop
 endfacet
 facet normal 0.041735280492423192 0.93185088960733764 0.36043319200682966
  outer loop
   vertex -0.0070199999026954174 -0.018928999081254005 -0.0093470001593232155
   vertex -0.0025810000952333212 -0.018805999308824539 -0.010178999975323677
   vertex -0.0029060000088065863 -0.018124999478459358 -0.011901999823749065
  endloop
 endfacet
 facet normal 0.084005770498782953 0.45375064563287609 0.88716029110339123
  outer loop
   vertex -0.0075630000792443752 -0.020459000021219254 -0.0074169998988509178
   vertex -0.010092999786138535 -0.022502999752759933 -0.0061320001259446144
   vertex -0.011296999640762806 -0.026951000094413757 -0.0037430000957101583
  endloop
 endfacet
 facet normal 0.18905913460200605 0.56288028639046928 0.80462564389691427
  outer loop
   vertex -0.00394099997356534 -0.023956999182701111 -0.0058209998533129692
   vertex -0.0042539997957646847 -0.020007999613881111 -0.0085100000724196434
   vertex -0.0075630000792443752 -0.020459000021219254 -0.0074169998988509178
  endloop
 endfacet
 facet normal 0.060133598493002746 0.46521366478389209 0.88315355201155299
  outer loop
   vertex -0.00394099997356534 -0.023956999182701111 -0.0058209998533129692
   vertex -0.0075630000792443752 -0.020459000021219254 -0.0074169998988509178
   vertex -0.011296999640762806 -0.026951000094413757 -0.0037430000957101583
  endloop
 endfacet
 facet normal 0.11370481343138732 0.74864620747395283 0.65314628639945616
  outer loop
   vertex -0.0075630000792443752 -0.020459000021219254 -0.0074169998988509178
   vertex -0.0042539997957646847 -0.020007999613881111 -0.0085100000724196434
   vertex -0.0025810000952333212 -0.018805999308824539 -0.010178999975323677
  endloop
 endfacet
 facet normal -0.67031002352858393 0.48370483572511302 0.56277358169449532
  outer loop
   vertex -0.010092999786138535 -0.022502999752759933 -0.0061320001259446144
   vertex -0.011256000027060509 -0.023327000439167023 -0.0068089999258518219
   vertex -0.011296999640762806 -0.026951000094413757 -0.0037430000957101583
  endloop
 endfacet
 facet normal -0.75374626574655967 0.42940297917740994 0.49747326395162339
  outer loop
   vertex -0.011296999640762806 -0.026951000094413757 -0.0037430000957101583
   vertex -0.011256000027060509 -0.023327000439167023 -0.0068089999258518219
   vertex -0.012474000453948975 -0.028571000322699547 -0.0041279997676610947
  endloop
 endfacet
 facet normal -0.82048704878547862 0.44979451466979464 0.35282559055184731
  outer loop
   vertex -0.015116999857127666 -0.02812499925494194 -0.0096709998324513435
   vertex -0.014417000114917755 -0.028937000781297684 -0.007007999811321497
   vertex -0.011256000027060509 -0.023327000439167023 -0.0068089999258518219
  endloop
 endfacet
 facet normal -0.775987567296054 0.4205617882839488 0.47007560842630336
  outer loop
   vertex -0.012474000453948975 -0.028571000322699547 -0.0041279997676610947
   vertex -0.011256000027060509 -0.023327000439167023 -0.0068089999258518219
   vertex -0.014417000114917755 -0.028937000781297684 -0.007007999811321497
  endloop
 endfacet
 facet normal 0.33203783868212078 0.89818959312119251 -0.28810818886677342
  outer loop
   vertex -0.0041910000145435333 -0.018031999468803406 -0.013093000277876854
   vertex -0.0029060000088065863 -0.018124999478459358 -0.011901999823749065
   vertex -0.0013620000099763274 -0.019175000488758087 -0.013395999558269978
  endloop
 endfacet
 facet normal 0.29301433347461819 0.89797996921423506 -0.32829038254025439
  outer loop
   vertex -0.0029060000088065863 -0.018124999478459358 -0.011901999823749065
   vertex -0.0011149999918416142 -0.018735000863671303 -0.011971999891102314
   vertex -0.0013620000099763274 -0.019175000488758087 -0.013395999558269978
  endloop
 endfacet
 facet normal 0.57167305770039833 0.75070043133621622 -0.33111746781330637
  outer loop
   vertex -0.0013620000099763274 -0.019175000488758087 -0.013395999558269978
   vertex -0.0011149999918416142 -0.018735000863671303 -0.011971999891102314
   vertex -2.2000000171829015e-05 -0.020572999492287636 -0.01425199955701828
  endloop
 endfacet
 facet normal 0.051536544692095711 0.5569605380764503 -0.82893844378626258
  outer loop
   vertex -0.0013620000099763274 -0.019175000488758087 -0.013395999558269978
   vertex -2.2000000171829015e-05 -0.020572999492287636 -0.01425199955701828
   vertex -0.003984999842941761 -0.022220000624656677 -0.015604999847710133
  endloop
 endfacet
 facet normal 0.13504078407571496 0.2526581689432042 -0.95808550573656182
  outer loop
   vertex -0.003984999842941761 -0.022220000624656677 -0.015604999847710133
   vertex -0.0012240000069141388 -0.025076000019907951 -0.01596900075674057
   vertex -0.0051230001263320446 -0.0236859992146492 -0.016152000054717064
  endloop
 endfacet
 facet normal -0.16211635477097744 -0.031020657461924145 -0.98628393798459513
  outer loop
   vertex -0.003984999842941761 -0.022220000624656677 -0.015604999847710133
   vertex -0.00066999997943639755 -0.02259800024330616 -0.016138000413775444
   vertex -0.0012240000069141388 -0.025076000019907951 -0.01596900075674057
  endloop
 endfacet
 facet normal -0.038186826515546834 0.68756463830756231 -0.7251183589109178
  outer loop
   vertex -2.2000000171829015e-05 -0.020572999492287636 -0.01425199955701828
   vertex -0.00066999997943639755 -0.02259800024330616 -0.016138000413775444
   vertex -0.003984999842941761 -0.022220000624656677 -0.015604999847710133
  endloop
 endfacet
 facet normal -0.98634567268512585 0.1044162126578249 -0.12735567717821808
  outer loop
   vertex -0.015018000267446041 -0.029889000579714775 -0.011884000152349472
   vertex -0.015116999857127666 -0.02812499925494194 -0.0096709998324513435
   vertex -0.013952000066637993 -0.025191999971866608 -0.01628899946808815
  endloop
 endfacet
 facet normal -0.99035854926955003 -0.12647681125706403 0.056511592642194665
  outer loop
   vertex -0.015018000267446041 -0.029889000579714775 -0.011884000152349472
   vertex -0.014657000079751015 -0.031399000436067581 -0.0089370002970099449
   vertex -0.015116999857127666 -0.02812499925494194 -0.0096709998324513435
  endloop
 endfacet
 facet normal -0.96971393415156482 -0.084903392317823567 0.2290115715094336
  outer loop
   vertex -0.015116999857127666 -0.02812499925494194 -0.0096709998324513435
   vertex -0.014657000079751015 -0.031399000436067581 -0.0089370002970099449
   vertex -0.014417000114917755 -0.028937000781297684 -0.007007999811321497
  endloop
 endfacet
 facet normal 0.10451897083968519 -0.69284113979181261 -0.71347525517469401
  outer loop
   vertex -0.015018000267446041 -0.029889000579714775 -0.011884000152349472
   vertex -0.013952000066637993 -0.025191999971866608 -0.01628899946808815
   vertex -0.0090159997344017029 -0.025609999895095825 -0.015159999951720238
  endloop
 endfacet
 facet normal 0.13670401594940448 -0.57138086741211358 -0.80921932526274087
  outer loop
   vertex -0.013952000066637993 -0.025191999971866608 -0.01628899946808815
   vertex -0.0084939999505877495 -0.023871999233961105 -0.016299000009894371
   vertex -0.0090159997344017029 -0.025609999895095825 -0.015159999951720238
  endloop
 endfacet
 facet normal -0.18835493352801291 -0.49811979724441696 -0.84640361920825868
  outer loop
   vertex -0.0050929998978972435 -0.026480000466108322 -0.015521000139415264
   vertex -0.0090159997344017029 -0.025609999895095825 -0.015159999951720238
   vertex -0.0084939999505877495 -0.023871999233961105 -0.016299000009894371
  endloop
 endfacet
 facet normal 0.054584135303771084 -0.21940679371440144 -0.97410534904860557
  outer loop
   vertex -0.0084939999505877495 -0.023871999233961105 -0.016299000009894371
   vertex -0.0051230001263320446 -0.0236859992146492 -0.016152000054717064
   vertex -0.0050929998978972435 -0.026480000466108322 -0.015521000139415264
  endloop
 endfacet
 facet normal -0.26277895665212175 -0.21523469914025836 -0.94054305814610362
  outer loop
   vertex -0.0051230001263320446 -0.0236859992146492 -0.016152000054717064
   vertex -0.0020139999687671661 -0.02675200067460537 -0.016318999230861664
   vertex -0.0050929998978972435 -0.026480000466108322 -0.015521000139415264
  endloop
 endfacet
 facet normal 0.102081448337321 0.15701738064443224 -0.98230591980345727
  outer loop
   vertex -0.0051230001263320446 -0.0236859992146492 -0.016152000054717064
   vertex -0.0012240000069141388 -0.025076000019907951 -0.01596900075674057
   vertex -0.0020139999687671661 -0.02675200067460537 -0.016318999230861664
  endloop
 endfacet
 facet normal 0.31830928879158499 0.9006168867828116 0.29591961731293126
  outer loop
   vertex -0.0011149999918416142 -0.018735000863671303 -0.011971999891102314
   vertex -0.0029060000088065863 -0.018124999478459358 -0.011901999823749065
   vertex -0.0025810000952333212 -0.018805999308824539 -0.010178999975323677
  endloop
 endfacet
 facet normal 0.053790294130325961 0.99506481200334806 0.083382397243749309
  outer loop
   vertex -0.0025810000952333212 -0.018805999308824539 -0.010178999975323677
   vertex -0.00097499997355043888 -0.018851000815629959 -0.010677999816834927
   vertex -0.0011149999918416142 -0.018735000863671303 -0.011971999891102314
  endloop
 endfacet
 facet normal 0.18712991583290245 0.69854471522093542 0.69066466207362398
  outer loop
   vertex -0.0025810000952333212 -0.018805999308824539 -0.010178999975323677
   vertex -0.0042539997957646847 -0.020007999613881111 -0.0085100000724196434
   vertex 0.00039299999480135739 -0.020715000107884407 -0.0090539995580911636
  endloop
 endfacet
 facet normal 0.21708433595497117 0.74432747322534032 0.63154651743554835
  outer loop
   vertex -0.00097499997355043888 -0.018851000815629959 -0.010677999816834927
   vertex -0.0025810000952333212 -0.018805999308824539 -0.010178999975323677
   vertex 0.00016199999663513154 -0.019605999812483788 -0.010178999975323677
  endloop
 endfacet
 facet normal 0.20926770172749742 0.71752620459364558 0.66435169506454095
  outer loop
   vertex -0.0025810000952333212 -0.018805999308824539 -0.010178999975323677
   vertex 0.00039299999480135739 -0.020715000107884407 -0.0090539995580911636
   vertex 0.00016199999663513154 -0.019605999812483788 -0.010178999975323677
  endloop
 endfacet
 facet normal -0.084268779801691049 0.033058288499650992 0.99589453372945458
  outer loop
   vertex -0.0085549997165799141 -0.028758000582456589 -0.0034509999677538872
   vertex -0.011296999640762806 -0.026951000094413757 -0.0037430000957101583
   vertex -0.010598000138998032 -0.029688000679016113 -0.0035929998848587275
  endloop
 endfacet
 facet normal -0.28538879942601153 -0.020371618511878437 0.95819529863247943
  outer loop
   vertex -0.010598000138998032 -0.029688000679016113 -0.0035929998848587275
   vertex -0.011296999640762806 -0.026951000094413757 -0.0037430000957101583
   vertex -0.012474000453948975 -0.028571000322699547 -0.0041279997676610947
  endloop
 endfacet
 facet normal 0.12487240955509304 0.34010072382943435 0.93206136009524609
  outer loop
   vertex -0.0085549997165799141 -0.028758000582456589 -0.0034509999677538872
   vertex -0.00394099997356534 -0.023956999182701111 -0.0058209998533129692
   vertex -0.011296999640762806 -0.026951000094413757 -0.0037430000957101583
  endloop
 endfacet
 facet normal 0.33619216911224536 0.54813637952240213 0.76584680901057256
  outer loop
   vertex -0.0042539997957646847 -0.020007999613881111 -0.0085100000724196434
   vertex -0.00394099997356534 -0.023956999182701111 -0.0058209998533129692
   vertex -0.00054300000192597508 -0.023222999647259712 -0.0078379996120929718
  endloop
 endfacet
 facet normal 0.49325138584508776 0.093184357271313051 0.86488134788642101
  outer loop
   vertex -0.00054300000192597508 -0.023222999647259712 -0.0078379996120929718
   vertex -0.00394099997356534 -0.023956999182701111 -0.0058209998533129692
   vertex 0.00043499999446794391 -0.025272000581026077 -0.0081749996170401573
  endloop
 endfacet
 facet normal 0.11315989810845016 0.3502403190419654 0.92979920218156109
  outer loop
   vertex -0.0085549997165799141 -0.028758000582456589 -0.0034509999677538872
   vertex -0.0051449998281896114 -0.026982000097632408 -0.0045349998399615288
   vertex -0.00394099997356534 -0.023956999182701111 -0.0058209998533129692
  endloop
 endfacet
 facet normal 0.51852697569592043 0.15138244933656236 0.84155399678719689
  outer loop
   vertex -0.00394099997356534 -0.023956999182701111 -0.0058209998533129692
   vertex -0.0051449998281896114 -0.026982000097632408 -0.0045349998399615288
   vertex -0.0021200000774115324 -0.025546999648213387 -0.0066570001654326916
  endloop
 endfacet
 facet normal 0.49775078795308159 0.1183024618109243 0.85921399000572685
  outer loop
   vertex 0.00043499999446794391 -0.025272000581026077 -0.0081749996170401573
   vertex -0.00394099997356534 -0.023956999182701111 -0.0058209998533129692
   vertex -0.0021200000774115324 -0.025546999648213387 -0.0066570001654326916
  endloop
 endfacet
 facet normal 0.16437310644607439 0.37999620159702646 0.91026609771489331
  outer loop
   vertex -0.00054300000192597508 -0.023222999647259712 -0.0078379996120929718
   vertex 0.00039299999480135739 -0.020715000107884407 -0.0090539995580911636
   vertex -0.0042539997957646847 -0.020007999613881111 -0.0085100000724196434
  endloop
 endfacet
 facet normal -0.72626030085596194 -0.23724212971304437 0.6451838089179136
  outer loop
   vertex -0.012060999870300293 -0.030866000801324844 -0.0045070000924170017
   vertex -0.012474000453948975 -0.028571000322699547 -0.0041279997676610947
   vertex -0.013585999608039856 -0.031690999865531921 -0.0065270001068711281
  endloop
 endfacet
 facet normal -0.81140049501966538 -0.14598581511871792 0.56596588100871037
  outer loop
   vertex -0.014417000114917755 -0.028937000781297684 -0.007007999811321497
   vertex -0.013585999608039856 -0.031690999865531921 -0.0065270001068711281
   vertex -0.012474000453948975 -0.028571000322699547 -0.0041279997676610947
  endloop
 endfacet
 facet normal -0.38522374727511804 -0.21742973166578211 0.89684278238889892
  outer loop
   vertex -0.010598000138998032 -0.029688000679016113 -0.0035929998848587275
   vertex -0.012474000453948975 -0.028571000322699547 -0.0041279997676610947
   vertex -0.012060999870300293 -0.030866000801324844 -0.0045070000924170017
  endloop
 endfacet
 facet normal -0.90312816357933212 -0.20679121858536448 0.37629365137589438
  outer loop
   vertex -0.014657000079751015 -0.031399000436067581 -0.0089370002970099449
   vertex -0.013585999608039856 -0.031690999865531921 -0.0065270001068711281
   vertex -0.014417000114917755 -0.028937000781297684 -0.007007999811321497
  endloop
 endfacet
 facet normal 0.40049176796057567 0.91548113844159351 0.038737952365818062
  outer loop
   vertex 6.3999999838415533e-05 -0.019270999357104301 -0.011494000442326069
   vertex -0.0011149999918416142 -0.018735000863671303 -0.011971999891102314
   vertex -0.00097499997355043888 -0.018851000815629959 -0.010677999816834927
  endloop
 endfacet
 facet normal 0.50620725148078671 0.7736767445303796 -0.38102298293034964
  outer loop
   vertex -0.0011149999918416142 -0.018735000863671303 -0.011971999891102314
   vertex 6.3999999838415533e-05 -0.019270999357104301 -0.011494000442326069
   vertex -2.2000000171829015e-05 -0.020572999492287636 -0.01425199955701828
  endloop
 endfacet
 facet normal 0.29479894956983377 0.59903898154726676 -0.74447691563898466
  outer loop
   vertex 0.0031240000389516354 -0.020046999678015709 -0.012582999654114246
   vertex -0.00066999997943639755 -0.02259800024330616 -0.016138000413775444
   vertex -2.2000000171829015e-05 -0.020572999492287636 -0.01425199955701828
  endloop
 endfacet
 facet normal 0.076248250749053545 0.90074532028528165 -0.42760270373545917
  outer loop
   vertex -2.2000000171829015e-05 -0.020572999492287636 -0.01425199955701828
   vertex 6.3999999838415533e-05 -0.019270999357104301 -0.011494000442326069
   vertex 0.0031240000389516354 -0.020046999678015709 -0.012582999654114246
  endloop
 endfacet
 facet normal 0.34960197513755042 -0.32050032097894349 -0.88037378608879402
  outer loop
   vertex 0.0011879999656230211 -0.023096000775694847 -0.015731999650597572
   vertex 0.00025099999038502574 -0.026604000478982925 -0.014826999977231026
   vertex -0.0012240000069141388 -0.025076000019907951 -0.01596900075674057
  endloop
 endfacet
 facet normal 0.55196954037033874 -0.086991126056648715 -0.82931427727415452
  outer loop
   vertex 0.00025099999038502574 -0.026604000478982925 -0.014826999977231026
   vertex -0.0020139999687671661 -0.02675200067460537 -0.016318999230861664
   vertex -0.0012240000069141388 -0.025076000019907951 -0.01596900075674057
  endloop
 endfacet
 facet normal 0.18454808074527426 -0.10788249211922113 -0.97688452428492378
  outer loop
   vertex 0.0011879999656230211 -0.023096000775694847 -0.015731999650597572
   vertex -0.0012240000069141388 -0.025076000019907951 -0.01596900075674057
   vertex -0.00066999997943639755 -0.02259800024330616 -0.016138000413775444
  endloop
 endfacet
 facet normal 0.31880799684133293 0.57542718941996229 -0.75315669739189017
  outer loop
   vertex -0.00066999997943639755 -0.02259800024330616 -0.016138000413775444
   vertex 0.0031240000389516354 -0.020046999678015709 -0.012582999654114246
   vertex 0.0011879999656230211 -0.023096000775694847 -0.015731999650597572
  endloop
 endfacet
 facet normal 0.012222747956773255 -0.61860475272520421 -0.78560725832834188
  outer loop
   vertex -0.0053810002282261848 -0.02775299921631813 -0.013415999710559845
   vertex -0.015018000267446041 -0.029889000579714775 -0.011884000152349472
   vertex -0.0090159997344017029 -0.025609999895095825 -0.015159999951720238
  endloop
 endfacet
 facet normal 0.21487362456026179 -0.8582541672091436 -0.46607843753651046
  outer loop
   vertex -0.0046040001325309277 -0.028867999091744423 -0.0089630000293254852
   vertex -0.014657000079751015 -0.031399000436067581 -0.0089370002970099449
   vertex -0.015018000267446041 -0.029889000579714775 -0.011884000152349472
  endloop
 endfacet
 facet normal 0.16790582141784666 -0.94898030346399243 -0.26691575219793062
  outer loop
   vertex -0.015018000267446041 -0.029889000579714775 -0.011884000152349472
   vertex -0.0053810002282261848 -0.02775299921631813 -0.013415999710559845
   vertex -0.0046040001325309277 -0.028867999091744423 -0.0089630000293254852
  endloop
 endfacet
 facet normal 0.23761731526851468 -0.94606532569256385 -0.22022354780269601
  outer loop
   vertex -0.014657000079751015 -0.031399000436067581 -0.0089370002970099449
   vertex -0.0046040001325309277 -0.028867999091744423 -0.0089630000293254852
   vertex -0.013585999608039856 -0.031690999865531921 -0.0065270001068711281
  endloop
 endfacet
 facet normal -0.22996567946926566 -0.81851004368270408 -0.5264571156863368
  outer loop
   vertex -0.0090159997344017029 -0.025609999895095825 -0.015159999951720238
   vertex -0.0050929998978972435 -0.026480000466108322 -0.015521000139415264
   vertex -0.0053810002282261848 -0.02775299921631813 -0.013415999710559845
  endloop
 endfacet
 facet normal -0.20931504837590245 -0.82379563280463008 -0.52682821288861592
  outer loop
   vertex -0.0050929998978972435 -0.026480000466108322 -0.015521000139415264
   vertex -0.0020139999687671661 -0.02675200067460537 -0.016318999230861664
   vertex -0.0053810002282261848 -0.02775299921631813 -0.013415999710559845
  endloop
 endfacet
 facet normal 0.54448402607250046 0.082200354871805117 -0.83473363836066283
  outer loop
   vertex -0.0020139999687671661 -0.02675200067460537 -0.016318999230861664
   vertex 0.00025099999038502574 -0.026604000478982925 -0.014826999977231026
   vertex 0.00031100001069717109 -0.028087999671697617 -0.014933999627828598
  endloop
 endfacet
 facet normal -0.18419005628135407 -0.84353928909544051 -0.50449528334706006
  outer loop
   vertex -0.0020139999687671661 -0.02675200067460537 -0.016318999230861664
   vertex 0.00031100001069717109 -0.028087999671697617 -0.014933999627828598
   vertex -0.0053810002282261848 -0.02775299921631813 -0.013415999710559845
  endloop
 endfacet
 facet normal 0.48757893268071334 0.8540606502408109 0.18123793785016354
  outer loop
   vertex 0.00016199999663513154 -0.019605999812483788 -0.010178999975323677
   vertex 6.3999999838415533e-05 -0.019270999357104301 -0.011494000442326069
   vertex -0.00097499997355043888 -0.018851000815629959 -0.010677999816834927
  endloop
 endfacet
 facet normal 0.16762954207804545 0.37874564600061167 0.91019342573888318
  outer loop
   vertex 0.00039299999480135739 -0.020715000107884407 -0.0090539995580911636
   vertex -0.00054300000192597508 -0.023222999647259712 -0.0078379996120929718
   vertex 0.0031340001150965691 -0.020913999527692795 -0.0094760004431009293
  endloop
 endfacet
 facet normal 0.061416190097991569 0.71708448229253741 0.69427508730264176
  outer loop
   vertex 0.00039299999480135739 -0.020715000107884407 -0.0090539995580911636
   vertex 0.0030370000749826431 -0.020042000338435173 -0.0099830003455281258
   vertex 0.00016199999663513154 -0.019605999812483788 -0.010178999975323677
  endloop
 endfacet
 facet normal 0.16695179144180286 0.50939726711622046 0.84418097798333425
  outer loop
   vertex 0.00039299999480135739 -0.020715000107884407 -0.0090539995580911636
   vertex 0.0031340001150965691 -0.020913999527692795 -0.0094760004431009293
   vertex 0.0030370000749826431 -0.020042000338435173 -0.0099830003455281258
  endloop
 endfacet
 facet normal 0.12999037440110547 0.96310136530948021 0.23566557385854126
  outer loop
   vertex 6.3999999838415533e-05 -0.019270999357104301 -0.011494000442326069
   vertex 0.00016199999663513154 -0.019605999812483788 -0.010178999975323677
   vertex 0.0030370000749826431 -0.020042000338435173 -0.0099830003455281258
  endloop
 endfacet
 facet normal 0.29101644101422969 -0.73314824453968885 0.61465688199822843
  outer loop
   vertex -0.0094950003549456596 -0.029858000576496124 -0.0043179998174309731
   vertex -0.0085549997165799141 -0.028758000582456589 -0.0034509999677538872
   vertex -0.010598000138998032 -0.029688000679016113 -0.0035929998848587275
  endloop
 endfacet
 facet normal 0.52004688967887769 -0.75668546805573866 0.39620491537661784
  outer loop
   vertex -0.0094950003549456596 -0.029858000576496124 -0.0043179998174309731
   vertex -0.0051449998281896114 -0.026982000097632408 -0.0045349998399615288
   vertex -0.0085549997165799141 -0.028758000582456589 -0.0034509999677538872
  endloop
 endfacet
 facet normal 0.26957683452770526 -0.77659637024209571 0.56940882326569542
  outer loop
   vertex -0.010598000138998032 -0.029688000679016113 -0.0035929998848587275
   vertex -0.012060999870300293 -0.030866000801324844 -0.0045070000924170017
   vertex -0.010577999986708164 -0.030829999595880508 -0.0051600001752376556
  endloop
 endfacet
 facet normal 0.25549436887047206 -0.77977884361245253 0.57154840786227845
  outer loop
   vertex -0.0094950003549456596 -0.029858000576496124 -0.0043179998174309731
   vertex -0.010598000138998032 -0.029688000679016113 -0.0035929998848587275
   vertex -0.010577999986708164 -0.030829999595880508 -0.0051600001752376556
  endloop
 endfacet
 facet normal 0.38873274404437336 0.034113395004266363 0.92071881157550728
  outer loop
   vertex -0.00054300000192597508 -0.023222999647259712 -0.0078379996120929718
   vertex 0.00043499999446794391 -0.025272000581026077 -0.0081749996170401573
   vertex 0.0031340001150965691 -0.020913999527692795 -0.0094760004431009293
  endloop
 endfacet
 facet normal 0.51684116569454142 -0.165446706887729 0.83994201979869632
  outer loop
   vertex 0.00043499999446794391 -0.025272000581026077 -0.0081749996170401573
   vertex -0.0021200000774115324 -0.025546999648213387 -0.0066570001654326916
   vertex -0.002701000077649951 -0.027031999081373215 -0.0065919999033212662
  endloop
 endfacet
 facet normal 0.5035481717741308 -0.054449047960904558 0.86224969694345588
  outer loop
   vertex 0.00043499999446794391 -0.025272000581026077 -0.0081749996170401573
   vertex 0.0026680000592023134 -0.026728000491857529 -0.0095710000023245811
   vertex 0.0031340001150965691 -0.020913999527692795 -0.0094760004431009293
  endloop
 endfacet
 facet normal 0.48709427802659999 -0.086234015775610545 0.8690816180526183
  outer loop
   vertex 0.00043499999446794391 -0.025272000581026077 -0.0081749996170401573
   vertex -0.002701000077649951 -0.027031999081373215 -0.0065919999033212662
   vertex 0.0026680000592023134 -0.026728000491857529 -0.0095710000023245811
  endloop
 endfacet
 facet normal 0.48609437246229553 -0.69527940589798887 0.52943253469599594
  outer loop
   vertex -0.0051449998281896114 -0.026982000097632408 -0.0045349998399615288
   vertex -0.0094950003549456596 -0.029858000576496124 -0.0043179998174309731
   vertex -0.0035220000427216291 -0.02811799943447113 -0.0075170001946389675
  endloop
 endfacet
 facet normal 0.62669730631268838 -0.21237463729610001 0.749764962967576
  outer loop
   vertex -0.002701000077649951 -0.027031999081373215 -0.0065919999033212662
   vertex -0.0021200000774115324 -0.025546999648213387 -0.0066570001654326916
   vertex -0.0051449998281896114 -0.026982000097632408 -0.0045349998399615288
  endloop
 endfacet
 facet normal 0.41604629722932196 -0.75111238092909749 0.51257747685281008
  outer loop
   vertex -0.0035220000427216291 -0.02811799943447113 -0.0075170001946389675
   vertex -0.002701000077649951 -0.027031999081373215 -0.0065919999033212662
   vertex -0.0051449998281896114 -0.026982000097632408 -0.0045349998399615288
  endloop
 endfacet
 facet normal 0.14545328690379969 -0.94950940485065471 0.27798422874155326
  outer loop
   vertex -0.013585999608039856 -0.031690999865531921 -0.0065270001068711281
   vertex -0.010577999986708164 -0.030829999595880508 -0.0051600001752376556
   vertex -0.012060999870300293 -0.030866000801324844 -0.0045070000924170017
  endloop
 endfacet
 facet normal 0.29049080788023579 -0.9561632882062433 -0.036971026814418412
  outer loop
   vertex -0.013585999608039856 -0.031690999865531921 -0.0065270001068711281
   vertex -0.0046040001325309277 -0.028867999091744423 -0.0089630000293254852
   vertex -0.010577999986708164 -0.030829999595880508 -0.0051600001752376556
  endloop
 endfacet
 facet normal 0.24795965677595785 0.96874899091704048 0.0064343771077668803
  outer loop
   vertex 6.3999999838415533e-05 -0.019270999357104301 -0.011494000442326069
   vertex 0.0030370000749826431 -0.020042000338435173 -0.0099830003455281258
   vertex 0.0031240000389516354 -0.020046999678015709 -0.012582999654114246
  endloop
 endfacet
 facet normal 0.95960426922196418 -0.27945269523461991 0.032647168592185138
  outer loop
   vertex 0.0031240000389516354 -0.020046999678015709 -0.012582999654114246
   vertex 0.0030370000749826431 -0.020042000338435173 -0.0099830003455281258
   vertex 0.0016870000399649143 -0.02517399936914444 -0.01423100009560585
  endloop
 endfacet
 facet normal 0.88981203053530755 -0.10679056608806864 -0.44365563820290027
  outer loop
   vertex 0.0016870000399649143 -0.02517399936914444 -0.01423100009560585
   vertex 0.0011879999656230211 -0.023096000775694847 -0.015731999650597572
   vertex 0.0031240000389516354 -0.020046999678015709 -0.012582999654114246
  endloop
 endfacet
 facet normal 0.63314277368218153 -0.3475414190165832 -0.69162503584093438
  outer loop
   vertex 0.00025099999038502574 -0.026604000478982925 -0.014826999977231026
   vertex 0.0011879999656230211 -0.023096000775694847 -0.015731999650597572
   vertex 0.0016870000399649143 -0.02517399936914444 -0.01423100009560585
  endloop
 endfacet
 facet normal 0.84087821901293269 0.072667941616544926 -0.53632377445984314
  outer loop
   vertex 0.00031100001069717109 -0.028087999671697617 -0.014933999627828598
   vertex 0.00025099999038502574 -0.026604000478982925 -0.014826999977231026
   vertex 0.0015600000042468309 -0.028111999854445457 -0.012978999875485897
  endloop
 endfacet
 facet normal 0.62262275730960948 -0.32939533680524152 -0.70981660601252539
  outer loop
   vertex 0.0016870000399649143 -0.02517399936914444 -0.01423100009560585
   vertex 0.0015600000042468309 -0.028111999854445457 -0.012978999875485897
   vertex 0.00025099999038502574 -0.026604000478982925 -0.014826999977231026
  endloop
 endfacet
 facet normal -0.047638991757363934 -0.97087837456636683 -0.23478864594292298
  outer loop
   vertex -0.0014459999511018395 -0.028733000159263611 -0.010161999613046646
   vertex -0.0046040001325309277 -0.028867999091744423 -0.0089630000293254852
   vertex -0.0053810002282261848 -0.02775299921631813 -0.013415999710559845
  endloop
 endfacet
 facet normal -0.10312567735075116 -0.979959465449732 -0.17042458961788495
  outer loop
   vertex -0.0053810002282261848 -0.02775299921631813 -0.013415999710559845
   vertex 0.00031100001069717109 -0.028087999671697617 -0.014933999627828598
   vertex -0.0014459999511018395 -0.028733000159263611 -0.010161999613046646
  endloop
 endfacet
 facet normal 0.40172043643986022 -0.90050443028842253 0.16647060394403482
  outer loop
   vertex -0.010577999986708164 -0.030829999595880508 -0.0051600001752376556
   vertex -0.0046040001325309277 -0.028867999091744423 -0.0089630000293254852
   vertex -0.0035220000427216291 -0.02811799943447113 -0.0075170001946389675
  endloop
 endfacet
 facet normal 0.17193284090949143 -0.92116604582660455 0.34913065496024503
  outer loop
   vertex -0.0035220000427216291 -0.02811799943447113 -0.0075170001946389675
   vertex -0.0046040001325309277 -0.028867999091744423 -0.0089630000293254852
   vertex -0.0014459999511018395 -0.028733000159263611 -0.010161999613046646
  endloop
 endfacet
 facet normal 0.1206437791849327 -0.98867892320101503 -0.089213594042940242
  outer loop
   vertex 0.00031100001069717109 -0.028087999671697617 -0.014933999627828598
   vertex 0.0015600000042468309 -0.028111999854445457 -0.012978999875485897
   vertex -0.0014459999511018395 -0.028733000159263611 -0.010161999613046646
  endloop
 endfacet
 facet normal 0.94995997419143452 -0.071170736484086686 -0.3041558378570462
  outer loop
   vertex 0.0031340001150965691 -0.020913999527692795 -0.0094760004431009293
   vertex 0.0026680000592023134 -0.026728000491857529 -0.0095710000023245811
   vertex 0.0030370000749826431 -0.020042000338435173 -0.0099830003455281258
  endloop
 endfacet
 facet normal 0.99667665901858427 -0.058499670019174742 -0.056687088258266981
  outer loop
   vertex 0.0026680000592023134 -0.026728000491857529 -0.0095710000023245811
   vertex 0.0025339999701827765 -0.026383999735116959 -0.012281999923288822
   vertex 0.0030370000749826431 -0.020042000338435173 -0.0099830003455281258
  endloop
 endfacet
 facet normal 0.92845501330865698 0.059285915058391613 -0.36668306279089358
  outer loop
   vertex 0.0016870000399649143 -0.02517399936914444 -0.01423100009560585
   vertex 0.0030370000749826431 -0.020042000338435173 -0.0099830003455281258
   vertex 0.0025339999701827765 -0.026383999735116959 -0.012281999923288822
  endloop
 endfacet
 facet normal 0.4392733654094606 -0.81562745703400585 0.3765511409809929
  outer loop
   vertex -0.0094950003549456596 -0.029858000576496124 -0.0043179998174309731
   vertex -0.010577999986708164 -0.030829999595880508 -0.0051600001752376556
   vertex -0.0035220000427216291 -0.02811799943447113 -0.0075170001946389675
  endloop
 endfacet
 facet normal 0.27882379881451214 -0.7361130286492259 0.61676162191523276
  outer loop
   vertex -0.00080500001786276698 -0.028193999081850052 -0.0088360002264380455
   vertex -0.002701000077649951 -0.027031999081373215 -0.0065919999033212662
   vertex -0.0035220000427216291 -0.02811799943447113 -0.0075170001946389675
  endloop
 endfacet
 facet normal 0.40521084294467014 -0.62582851991458788 0.66644042225962408
  outer loop
   vertex -0.00080500001786276698 -0.028193999081850052 -0.0088360002264380455
   vertex 0.0026680000592023134 -0.026728000491857529 -0.0095710000023245811
   vertex -0.002701000077649951 -0.027031999081373215 -0.0065919999033212662
  endloop
 endfacet
 facet normal 0.9156752094080608 -0.39057392319704926 -0.094820469277310693
  outer loop
   vertex 0.0025339999701827765 -0.026383999735116959 -0.012281999923288822
   vertex 0.0026680000592023134 -0.026728000491857529 -0.0095710000023245811
   vertex 0.0023769999388605356 -0.027334000915288925 -0.0098850000649690628
  endloop
 endfacet
 facet normal 0.39203638928260559 -0.56459756772763414 0.72631746226722171
  outer loop
   vertex -0.00080500001786276698 -0.028193999081850052 -0.0088360002264380455
   vertex 0.0023769999388605356 -0.027334000915288925 -0.0098850000649690628
   vertex 0.0026680000592023134 -0.026728000491857529 -0.0095710000023245811
  endloop
 endfacet
 facet normal 0.12878144719709012 -0.93883832358526131 0.31937116498744744
  outer loop
   vertex -0.00080500001786276698 -0.028193999081850052 -0.0088360002264380455
   vertex -0.0035220000427216291 -0.02811799943447113 -0.0075170001946389675
   vertex -0.0014459999511018395 -0.028733000159263611 -0.010161999613046646
  endloop
 endfacet
 facet normal 0.81920353804980184 -0.254435903956372 -0.51397269774239041
  outer loop
   vertex 0.0015600000042468309 -0.028111999854445457 -0.012978999875485897
   vertex 0.0016870000399649143 -0.02517399936914444 -0.01423100009560585
   vertex 0.0025339999701827765 -0.026383999735116959 -0.012281999923288822
  endloop
 endfacet
 facet normal 0.88479779525820912 -0.45013847042868604 -0.12045006827036371
  outer loop
   vertex 0.0015600000042468309 -0.028111999854445457 -0.012978999875485897
   vertex 0.0025339999701827765 -0.026383999735116959 -0.012281999923288822
   vertex 0.0023769999388605356 -0.027334000915288925 -0.0098850000649690628
  endloop
 endfacet
 facet normal 0.33049398134781982 -0.9322660563985472 0.14715205870108591
  outer loop
   vertex 0.0023769999388605356 -0.027334000915288925 -0.0098850000649690628
   vertex -0.0014459999511018395 -0.028733000159263611 -0.010161999613046646
   vertex 0.0015600000042468309 -0.028111999854445457 -0.012978999875485897
  endloop
 endfacet
 facet normal 0.32125314391411092 -0.92127738069386311 0.21919034045129424
  outer loop
   vertex -0.0014459999511018395 -0.028733000159263611 -0.010161999613046646
   vertex 0.0023769999388605356 -0.027334000915288925 -0.0098850000649690628
   vertex -0.00080500001786276698 -0.028193999081850052 -0.0088360002264380455
  endloop
 endfacet
endsolid
