solid Visualization Toolkit generated SLA File
 facet normal -0.71933378340148557 -0.14448769289831329 0.67947201168129612
  outer loop
   vertex -0.013477999716997147 -0.028481999412178993 0.023544000461697578
   vertex -0.014759000390768051 -0.029577000066637993 0.02195500023663044
   vertex -0.013377999886870384 -0.030131999403238297 0.023298999294638634
  endloop
 endfacet
 facet normal -0.69262647580889247 0.19161962638022922 0.69537794313197421
  outer loop
   vertex -0.013477999716997147 -0.028481999412178993 0.023544000461697578
   vertex -0.012625000439584255 -0.02665800042450428 0.02389100007712841
   vertex -0.014960000291466713 -0.027567999437451363 0.02181600034236908
  endloop
 endfacet
 facet normal -0.76707975348061441 -0.032414736593517061 0.64073234400308898
  outer loop
   vertex -0.013477999716997147 -0.028481999412178993 0.023544000461697578
   vertex -0.014960000291466713 -0.027567999437451363 0.02181600034236908
   vertex -0.014759000390768051 -0.029577000066637993 0.02195500023663044
  endloop
 endfacet
 facet normal -0.44656797038971463 -0.15783856847904054 0.8807179083693587
  outer loop
   vertex -0.010990000329911709 -0.026771999895572662 0.025111999362707138
   vertex -0.013477999716997147 -0.028481999412178993 0.023544000461697578
   vertex -0.013377999886870384 -0.030131999403238297 0.023298999294638634
  endloop
 endfacet
 facet normal -0.58828095267889047 0.12306370037032728 0.79923766575805166
  outer loop
   vertex -0.012625000439584255 -0.02665800042450428 0.02389100007712841
   vertex -0.013477999716997147 -0.028481999412178993 0.023544000461697578
   vertex -0.010990000329911709 -0.026771999895572662 0.025111999362707138
  endloop
 endfacet
 facet normal -0.66065531237576447 -0.620404244653602 0.42265012888377818
  outer loop
   vertex -0.014759000390768051 -0.029577000066637993 0.02195500023663044
   vertex -0.014058000408113003 -0.031390998512506485 0.020387999713420868
   vertex -0.013377999886870384 -0.030131999403238297 0.023298999294638634
  endloop
 endfacet
 facet normal -0.96726533435477691 -0.080114745378396218 0.24078912045293144
  outer loop
   vertex -0.014759000390768051 -0.029577000066637993 0.02195500023663044
   vertex -0.014960000291466713 -0.027567999437451363 0.02181600034236908
   vertex -0.015344999730587006 -0.029030000790953636 0.019782999530434608
  endloop
 endfacet
 facet normal -0.88424509138793694 -0.44991159731049235 0.12526042057194478
  outer loop
   vertex -0.014759000390768051 -0.029577000066637993 0.02195500023663044
   vertex -0.015344999730587006 -0.029030000790953636 0.019782999530434608
   vertex -0.014058000408113003 -0.031390998512506485 0.020387999713420868
  endloop
 endfacet
 facet normal -0.6609201327401506 -0.62015378607019278 0.42260366747290229
  outer loop
   vertex -0.013377999886870384 -0.030131999403238297 0.023298999294638634
   vertex -0.014058000408113003 -0.031390998512506485 0.020387999713420868
   vertex -0.010898999869823456 -0.033452000468969345 0.022304000332951546
  endloop
 endfacet
 facet normal -0.074622109311652515 -0.431946333932552 0.89880693444371462
  outer loop
   vertex -0.010990000329911709 -0.026771999895572662 0.025111999362707138
   vertex -0.013377999886870384 -0.030131999403238297 0.023298999294638634
   vertex -0.0091589996591210365 -0.029500000178813934 0.023953000083565712
  endloop
 endfacet
 facet normal -0.14590025890478175 -0.048529157257775346 0.98810831154654688
  outer loop
   vertex -0.010058999992907047 -0.032760001718997955 0.023660000413656235
   vertex -0.0091589996591210365 -0.029500000178813934 0.023953000083565712
   vertex -0.013377999886870384 -0.030131999403238297 0.023298999294638634
  endloop
 endfacet
 facet normal -0.52655866669931073 -0.5795737096169985 0.62195681975892447
  outer loop
   vertex -0.010058999992907047 -0.032760001718997955 0.023660000413656235
   vertex -0.013377999886870384 -0.030131999403238297 0.023298999294638634
   vertex -0.010898999869823456 -0.033452000468969345 0.022304000332951546
  endloop
 endfacet
 facet normal -0.78501260167803277 0.015395285390256388 0.61928846299155194
  outer loop
   vertex -0.012625000439584255 -0.02665800042450428 0.02389100007712841
   vertex -0.011735999956727028 -0.024529999122023582 0.024964999407529831
   vertex -0.013814999721944332 -0.025066999718546867 0.022343000397086143
  endloop
 endfacet
 facet normal -0.69059255857021218 0.16793126069259226 0.70347779618808493
  outer loop
   vertex -0.013814999721944332 -0.025066999718546867 0.022343000397086143
   vertex -0.014960000291466713 -0.027567999437451363 0.02181600034236908
   vertex -0.012625000439584255 -0.02665800042450428 0.02389100007712841
  endloop
 endfacet
 facet normal -0.59540950352267308 -0.19697122401794781 0.77890298498834598
  outer loop
   vertex -0.010507999919354916 -0.025800999253988266 0.025725999847054482
   vertex -0.012625000439584255 -0.02665800042450428 0.02389100007712841
   vertex -0.010990000329911709 -0.026771999895572662 0.025111999362707138
  endloop
 endfacet
 facet normal -0.61788061079772905 -0.13298550009393559 0.77494413189919131
  outer loop
   vertex -0.010507999919354916 -0.025800999253988266 0.025725999847054482
   vertex -0.011735999956727028 -0.024529999122023582 0.024964999407529831
   vertex -0.012625000439584255 -0.02665800042450428 0.02389100007712841
  endloop
 endfacet
 facet normal -0.91257485087127843 0.39821678782794706 0.092900653653544385
  outer loop
   vertex -0.014960000291466713 -0.027567999437451363 0.02181600034236908
   vertex -0.013814999721944332 -0.025066999718546867 0.022343000397086143
   vertex -0.014902000315487385 -0.026971999555826187 0.01983099989593029
  endloop
 endfacet
 facet normal -0.9771946272797275 0.20954660186964227 0.034363964563478643
  outer loop
   vertex -0.014902000315487385 -0.026971999555826187 0.01983099989593029
   vertex -0.015344999730587006 -0.029030000790953636 0.019782999530434608
   vertex -0.014960000291466713 -0.027567999437451363 0.02181600034236908
  endloop
 endfacet
 facet normal -0.2059451378385346 -0.49648894265009841 0.8432587562704903
  outer loop
   vertex -0.0091589996591210365 -0.029500000178813934 0.023953000083565712
   vertex -0.0089680003002285957 -0.026662999764084816 0.025669999420642853
   vertex -0.010990000329911709 -0.026771999895572662 0.025111999362707138
  endloop
 endfacet
 facet normal -0.21624841591828239 -0.44286462020146455 0.87011927388527954
  outer loop
   vertex -0.010507999919354916 -0.025800999253988266 0.025725999847054482
   vertex -0.010990000329911709 -0.026771999895572662 0.025111999362707138
   vertex -0.0089680003002285957 -0.026662999764084816 0.025669999420642853
  endloop
 endfacet
 facet normal -0.87277353735499508 -0.48636606779548375 -0.041405320793443501
  outer loop
   vertex -0.015344999730587006 -0.029030000790953636 0.019782999530434608
   vertex -0.014891000464558601 -0.029595000669360161 0.016850000247359276
   vertex -0.014058000408113003 -0.031390998512506485 0.020387999713420868
  endloop
 endfacet
 facet normal 0.22069258279782367 -0.84774853859503296 -0.48230405265559573
  outer loop
   vertex -0.014891000464558601 -0.029595000669360161 0.016850000247359276
   vertex -0.010521000251173973 -0.029222000390291214 0.01819399930536747
   vertex -0.014058000408113003 -0.031390998512506485 0.020387999713420868
  endloop
 endfacet
 facet normal -0.018582208160785759 -0.69588556195769025 -0.71791224129325071
  outer loop
   vertex -0.014058000408113003 -0.031390998512506485 0.020387999713420868
   vertex -0.010521000251173973 -0.029222000390291214 0.01819399930536747
   vertex -0.010898999869823456 -0.033452000468969345 0.022304000332951546
  endloop
 endfacet
 facet normal -0.95905832439863503 0.21085397440123066 -0.18907070603583101
  outer loop
   vertex -0.015344999730587006 -0.029030000790953636 0.019782999530434608
   vertex -0.014902000315487385 -0.026971999555826187 0.01983099989593029
   vertex -0.014891000464558601 -0.029595000669360161 0.016850000247359276
  endloop
 endfacet
 facet normal -0.36784643668698574 -0.71603646283959843 0.59327968353959637
  outer loop
   vertex -0.0098729999735951424 -0.033762000501155853 0.022565999999642372
   vertex -0.010058999992907047 -0.032760001718997955 0.023660000413656235
   vertex -0.010898999869823456 -0.033452000468969345 0.022304000332951546
  endloop
 endfacet
 facet normal 0.00093410876519404117 -0.64369433793403463 -0.76528212232645265
  outer loop
   vertex -0.0089020002633333206 -0.033417001366615295 0.022276999428868294
   vertex -0.0098729999735951424 -0.033762000501155853 0.022565999999642372
   vertex -0.010898999869823456 -0.033452000468969345 0.022304000332951546
  endloop
 endfacet
 facet normal 0.0025194498646434896 -0.69697412356618138 -0.71709185147478338
  outer loop
   vertex -0.0089020002633333206 -0.033417001366615295 0.022276999428868294
   vertex -0.010898999869823456 -0.033452000468969345 0.022304000332951546
   vertex -0.010521000251173973 -0.029222000390291214 0.01819399930536747
  endloop
 endfacet
 facet normal 0.15970930797594546 -0.51897489918505613 0.83973685816552401
  outer loop
   vertex -0.0089680003002285957 -0.026662999764084816 0.025669999420642853
   vertex -0.0091589996591210365 -0.029500000178813934 0.023953000083565712
   vertex -0.0066999997943639755 -0.026355000212788582 0.025428999215364456
  endloop
 endfacet
 facet normal 0.37337924378776788 -0.55888302643041066 0.74043075508548362
  outer loop
   vertex -0.0035580000840127468 -0.028473999351263046 0.021903000771999359
   vertex -0.0021669999696314335 -0.026925999671220779 0.022369999438524246
   vertex -0.0091589996591210365 -0.029500000178813934 0.023953000083565712
  endloop
 endfacet
 facet normal 0.37447342160314956 -0.54408717197025169 0.75082541633208155
  outer loop
   vertex -0.0025329999625682831 -0.029458999633789062 0.020678000524640083
   vertex -0.0035580000840127468 -0.028473999351263046 0.021903000771999359
   vertex -0.0091589996591210365 -0.029500000178813934 0.023953000083565712
  endloop
 endfacet
 facet normal 0.39457295650062219 -0.46506700857645938 0.79248019504092448
  outer loop
   vertex -0.0054560001008212566 -0.031667999923229218 0.020836999639868736
   vertex -0.0025329999625682831 -0.029458999633789062 0.020678000524640083
   vertex -0.0091589996591210365 -0.029500000178813934 0.023953000083565712
  endloop
 endfacet
 facet normal 0.68095749301513953 -0.24986388157610123 0.68837848120801992
  outer loop
   vertex -0.0089020002633333206 -0.033417001366615295 0.022276999428868294
   vertex -0.0091589996591210365 -0.029500000178813934 0.023953000083565712
   vertex -0.010058999992907047 -0.032760001718997955 0.023660000413656235
  endloop
 endfacet
 facet normal 0.49719711254166138 -0.3135346479390006 0.80900621494646219
  outer loop
   vertex -0.0054560001008212566 -0.031667999923229218 0.020836999639868736
   vertex -0.0091589996591210365 -0.029500000178813934 0.023953000083565712
   vertex -0.0089020002633333206 -0.033417001366615295 0.022276999428868294
  endloop
 endfacet
 facet normal 0.38334865267497048 -0.62071096202953158 0.68393107262987995
  outer loop
   vertex -0.0091589996591210365 -0.029500000178813934 0.023953000083565712
   vertex -0.0021669999696314335 -0.026925999671220779 0.022369999438524246
   vertex -0.0066999997943639755 -0.026355000212788582 0.025428999215364456
  endloop
 endfacet
 facet normal 0.41871476854026524 -0.63309971833390211 0.65104737865366291
  outer loop
   vertex -0.010058999992907047 -0.032760001718997955 0.023660000413656235
   vertex -0.0098729999735951424 -0.033762000501155853 0.022565999999642372
   vertex -0.0089020002633333206 -0.033417001366615295 0.022276999428868294
  endloop
 endfacet
 facet normal -0.78798066856987981 0.1880356284539792 0.58628411917097178
  outer loop
   vertex -0.013814999721944332 -0.025066999718546867 0.022343000397086143
   vertex -0.011735999956727028 -0.024529999122023582 0.024964999407529831
   vertex -0.012206999585032463 -0.022702999413013458 0.023746000602841377
  endloop
 endfacet
 facet normal -0.94398960554952438 -0.023768048969409195 0.32911807070205201
  outer loop
   vertex -0.012206999585032463 -0.022702999413013458 0.023746000602841377
   vertex -0.011735999956727028 -0.024529999122023582 0.024964999407529831
   vertex -0.010910999961197376 -0.022733999416232109 0.02746099978685379
  endloop
 endfacet
 facet normal -0.74726532965297154 -0.40786323229256705 0.52463521692933957
  outer loop
   vertex -0.01002500019967556 -0.0243500005453825 0.027542000636458397
   vertex -0.011735999956727028 -0.024529999122023582 0.024964999407529831
   vertex -0.010507999919354916 -0.025800999253988266 0.025725999847054482
  endloop
 endfacet
 facet normal -0.75526515173007525 -0.3875945847041688 0.5285309721200353
  outer loop
   vertex -0.010910999961197376 -0.022733999416232109 0.02746099978685379
   vertex -0.011735999956727028 -0.024529999122023582 0.024964999407529831
   vertex -0.01002500019967556 -0.0243500005453825 0.027542000636458397
  endloop
 endfacet
 facet normal -0.89755233493880437 0.43723241089617559 0.056812189781931761
  outer loop
   vertex -0.013814999721944332 -0.025066999718546867 0.022343000397086143
   vertex -0.011342000216245651 -0.020065000280737877 0.022917000576853752
   vertex -0.014902000315487385 -0.026971999555826187 0.01983099989593029
  endloop
 endfacet
 facet normal -0.85970561407398238 0.38675136387368886 0.33366096516002358
  outer loop
   vertex -0.012206999585032463 -0.022702999413013458 0.023746000602841377
   vertex -0.011342000216245651 -0.020065000280737877 0.022917000576853752
   vertex -0.013814999721944332 -0.025066999718546867 0.022343000397086143
  endloop
 endfacet
 facet normal -0.30472023998433179 -0.70292226486938347 0.64268644368368888
  outer loop
   vertex -0.01002500019967556 -0.0243500005453825 0.027542000636458397
   vertex -0.010507999919354916 -0.025800999253988266 0.025725999847054482
   vertex -0.0086989998817443848 -0.024955000728368759 0.027509000152349472
  endloop
 endfacet
 facet normal -0.34615818169087215 -0.66163716406903983 0.66513966681528425
  outer loop
   vertex -0.010507999919354916 -0.025800999253988266 0.025725999847054482
   vertex -0.0089680003002285957 -0.026662999764084816 0.025669999420642853
   vertex -0.0086989998817443848 -0.024955000728368759 0.027509000152349472
  endloop
 endfacet
 facet normal -0.79538980271220661 0.5969722351633876 0.10478173593458949
  outer loop
   vertex -0.010156000033020973 -0.020326999947428703 0.01799900084733963
   vertex -0.012039000168442726 -0.022690000012516975 0.017168000340461731
   vertex -0.014902000315487385 -0.026971999555826187 0.01983099989593029
  endloop
 endfacet
 facet normal -0.86650198745991569 0.37316372561477995 -0.33154658739506493
  outer loop
   vertex -0.012039000168442726 -0.022690000012516975 0.017168000340461731
   vertex -0.014891000464558601 -0.029595000669360161 0.016850000247359276
   vertex -0.014902000315487385 -0.026971999555826187 0.01983099989593029
  endloop
 endfacet
 facet normal -0.82110271853260897 0.52415918632461334 -0.22593687837508619
  outer loop
   vertex -0.011342000216245651 -0.020065000280737877 0.022917000576853752
   vertex -0.010156000033020973 -0.020326999947428703 0.01799900084733963
   vertex -0.014902000315487385 -0.026971999555826187 0.01983099989593029
  endloop
 endfacet
 facet normal 0.16956657534567526 -0.73435722535371639 0.65724169229921081
  outer loop
   vertex -0.0089680003002285957 -0.026662999764084816 0.025669999420642853
   vertex -0.0066999997943639755 -0.026355000212788582 0.025428999215364456
   vertex -0.0086989998817443848 -0.024955000728368759 0.027509000152349472
  endloop
 endfacet
 facet normal 0.29924210290777364 -0.07980786161833138 -0.95083377573119632
  outer loop
   vertex -0.014891000464558601 -0.029595000669360161 0.016850000247359276
   vertex -0.012039000168442726 -0.022690000012516975 0.017168000340461731
   vertex -0.010521000251173973 -0.029222000390291214 0.01819399930536747
  endloop
 endfacet
 facet normal -0.027863557069706748 -0.16142619889570381 -0.98649136057925402
  outer loop
   vertex -0.012039000168442726 -0.022690000012516975 0.017168000340461731
   vertex -0.0095910001546144485 -0.020331999287009239 0.01671300083398819
   vertex -0.010521000251173973 -0.029222000390291214 0.01819399930536747
  endloop
 endfacet
 facet normal 0.079505474046745961 -0.17189372185242485 -0.98190194417992849
  outer loop
   vertex -0.0095910001546144485 -0.020331999287009239 0.01671300083398819
   vertex -0.0058849998749792576 -0.025107000023126602 0.017849000170826912
   vertex -0.010521000251173973 -0.029222000390291214 0.01819399930536747
  endloop
 endfacet
 facet normal 0.038098638774674787 -0.12603182203398691 -0.99129434254327831
  outer loop
   vertex -0.010521000251173973 -0.029222000390291214 0.01819399930536747
   vertex -0.0058849998749792576 -0.025107000023126602 0.017849000170826912
   vertex -0.006876000203192234 -0.028655000030994415 0.018262000754475594
  endloop
 endfacet
 facet normal 0.036349113137237751 -0.69775935321755223 -0.71540941213514908
  outer loop
   vertex -0.0054560001008212566 -0.031667999923229218 0.020836999639868736
   vertex -0.010521000251173973 -0.029222000390291214 0.01819399930536747
   vertex -0.0040560001507401466 -0.03057900071144104 0.019845999777317047
  endloop
 endfacet
 facet normal 0.099762230769319768 -0.5411896413026589 -0.83496183712707994
  outer loop
   vertex -0.010521000251173973 -0.029222000390291214 0.01819399930536747
   vertex -0.006876000203192234 -0.028655000030994415 0.018262000754475594
   vertex -0.0040560001507401466 -0.03057900071144104 0.019845999777317047
  endloop
 endfacet
 facet normal 0.046126880951532979 -0.68753479681822072 -0.72468490671312535
  outer loop
   vertex -0.0054560001008212566 -0.031667999923229218 0.020836999639868736
   vertex -0.0089020002633333206 -0.033417001366615295 0.022276999428868294
   vertex -0.010521000251173973 -0.029222000390291214 0.01819399930536747
  endloop
 endfacet
 facet normal 0.20514651979002044 -0.8613348972255308 0.4647763981093781
  outer loop
   vertex -0.0066999997943639755 -0.026355000212788582 0.025428999215364456
   vertex -0.0021669999696314335 -0.026925999671220779 0.022369999438524246
   vertex -0.0044709998182952404 -0.02303599938750267 0.030595999211072922
  endloop
 endfacet
 facet normal -0.018485033526054524 -0.83758532071578862 0.54599371247018069
  outer loop
   vertex -0.0066999997943639755 -0.026355000212788582 0.025428999215364456
   vertex -0.0044709998182952404 -0.02303599938750267 0.030595999211072922
   vertex -0.0086989998817443848 -0.024955000728368759 0.027509000152349472
  endloop
 endfacet
 facet normal 0.56193102421759733 -0.3483248906767098 0.75026881486359298
  outer loop
   vertex -0.0035580000840127468 -0.028473999351263046 0.021903000771999359
   vertex -0.0025329999625682831 -0.029458999633789062 0.020678000524640083
   vertex -0.001449999981559813 -0.027265999466180801 0.020885000005364418
  endloop
 endfacet
 facet normal 0.59704593523255411 -0.66971627987042504 0.44160644888724537
  outer loop
   vertex -0.001449999981559813 -0.027265999466180801 0.020885000005364418
   vertex -0.0021669999696314335 -0.026925999671220779 0.022369999438524246
   vertex -0.0035580000840127468 -0.028473999351263046 0.021903000771999359
  endloop
 endfacet
 facet normal 0.61557980572564375 -0.78641519467088328 0.051114033039228526
  outer loop
   vertex -0.0021669999696314335 -0.026925999671220779 0.022369999438524246
   vertex -0.00026599998818710446 -0.025426000356674194 0.022554000839591026
   vertex -0.00057799997739493847 -0.025557000190019608 0.024296000599861145
  endloop
 endfacet
 facet normal 0.20260564294160019 -0.86934182465326459 0.45077238752695736
  outer loop
   vertex -0.0032899999059736729 -0.024116000160574913 0.028294000774621964
   vertex -0.0021669999696314335 -0.026925999671220779 0.022369999438524246
   vertex -0.00057799997739493847 -0.025557000190019608 0.024296000599861145
  endloop
 endfacet
 facet normal 0.014460262763598295 -0.9023492863875815 0.4307628885554442
  outer loop
   vertex -0.0032899999059736729 -0.024116000160574913 0.028294000774621964
   vertex -0.0044709998182952404 -0.02303599938750267 0.030595999211072922
   vertex -0.0021669999696314335 -0.026925999671220779 0.022369999438524246
  endloop
 endfacet
 facet normal 0.53486736173424765 -0.73003785303699875 0.42539586091612913
  outer loop
   vertex -0.001449999981559813 -0.027265999466180801 0.020885000005364418
   vertex -0.00026599998818710446 -0.025426000356674194 0.022554000839591026
   vertex -0.0021669999696314335 -0.026925999671220779 0.022369999438524246
  endloop
 endfacet
 facet normal 0.66181126473808505 -0.46049610101800925 -0.59156503515081738
  outer loop
   vertex -0.0021420000120997429 -0.026613000780344009 0.018899999558925629
   vertex -0.0025329999625682831 -0.029458999633789062 0.020678000524640083
   vertex -0.0040560001507401466 -0.03057900071144104 0.019845999777317047
  endloop
 endfacet
 facet normal 0.8317294879644378 -0.37182980068681437 -0.41227255326011975
  outer loop
   vertex -0.0021420000120997429 -0.026613000780344009 0.018899999558925629
   vertex -0.001449999981559813 -0.027265999466180801 0.020885000005364418
   vertex -0.0025329999625682831 -0.029458999633789062 0.020678000524640083
  endloop
 endfacet
 facet normal 0.60176550547435359 -0.79821537889162919 -0.027027491968153201
  outer loop
   vertex -0.0040560001507401466 -0.03057900071144104 0.019845999777317047
   vertex -0.0025329999625682831 -0.029458999633789062 0.020678000524640083
   vertex -0.0054560001008212566 -0.031667999923229218 0.020836999639868736
  endloop
 endfacet
 facet normal -0.94338248819075143 0.0388118604666811 0.32942847548768717
  outer loop
   vertex -0.012206999585032463 -0.022702999413013458 0.023746000602841377
   vertex -0.010910999961197376 -0.022733999416232109 0.02746099978685379
   vertex -0.011490000411868095 -0.02007799968123436 0.02549000084400177
  endloop
 endfacet
 facet normal -0.95630714080261525 0.2892919784928204 -0.042270600062412844
  outer loop
   vertex -0.012206999585032463 -0.022702999413013458 0.023746000602841377
   vertex -0.011490000411868095 -0.02007799968123436 0.02549000084400177
   vertex -0.010737000033259392 -0.017821000888943672 0.023901000618934631
  endloop
 endfacet
 facet normal -0.95426618429620058 0.28968152751861431 -0.073896293027809729
  outer loop
   vertex -0.011342000216245651 -0.020065000280737877 0.022917000576853752
   vertex -0.012206999585032463 -0.022702999413013458 0.023746000602841377
   vertex -0.010737000033259392 -0.017821000888943672 0.023901000618934631
  endloop
 endfacet
 facet normal -0.83911490276498635 -0.30024960424907493 -0.45358169617609301
  outer loop
   vertex -0.010910999961197376 -0.022733999416232109 0.02746099978685379
   vertex -0.01245300006121397 -0.020540999248623848 0.02886199951171875
   vertex -0.01247899979352951 -0.01907699927687645 0.027940999716520309
  endloop
 endfacet
 facet normal -0.9068739320910072 -0.36011077975083555 -0.21886045234587356
  outer loop
   vertex -0.011490000411868095 -0.02007799968123436 0.02549000084400177
   vertex -0.010910999961197376 -0.022733999416232109 0.02746099978685379
   vertex -0.01247899979352951 -0.01907699927687645 0.027940999716520309
  endloop
 endfacet
 facet normal -0.85635627443081674 -0.47916095048680135 -0.19250640189759083
  outer loop
   vertex -0.01245300006121397 -0.020540999248623848 0.02886199951171875
   vertex -0.010910999961197376 -0.022733999416232109 0.02746099978685379
   vertex -0.01002500019967556 -0.0243500005453825 0.027542000636458397
  endloop
 endfacet
 facet normal -0.38737055025168637 -0.81949886543583539 0.42233359604355925
  outer loop
   vertex -0.0096869999542832375 -0.023024000227451324 0.030424999073147774
   vertex -0.01002500019967556 -0.0243500005453825 0.027542000636458397
   vertex -0.0080059999600052834 -0.024000000208616257 0.030073000118136406
  endloop
 endfacet
 facet normal -0.37004557696279755 -0.83342993650994968 0.41043977865125569
  outer loop
   vertex -0.01002500019967556 -0.0243500005453825 0.027542000636458397
   vertex -0.0086989998817443848 -0.024955000728368759 0.027509000152349472
   vertex -0.0080059999600052834 -0.024000000208616257 0.030073000118136406
  endloop
 endfacet
 facet normal -0.72757739488445772 -0.58689027530594673 0.35523364030516036
  outer loop
   vertex -0.0096869999542832375 -0.023024000227451324 0.030424999073147774
   vertex -0.01245300006121397 -0.020540999248623848 0.02886199951171875
   vertex -0.01002500019967556 -0.0243500005453825 0.027542000636458397
  endloop
 endfacet
 facet normal -0.95243523404663566 0.18816693252359448 -0.23970884516677987
  outer loop
   vertex -0.010156000033020973 -0.020326999947428703 0.01799900084733963
   vertex -0.011342000216245651 -0.020065000280737877 0.022917000576853752
   vertex -0.010538999922573566 -0.018490999937057495 0.020961999893188477
  endloop
 endfacet
 facet normal -0.90795144001617578 0.41745338123798476 -0.036835540793184587
  outer loop
   vertex -0.0098850000649690628 -0.016894999891519547 0.022928999736905098
   vertex -0.010538999922573566 -0.018490999937057495 0.020961999893188477
   vertex -0.011342000216245651 -0.020065000280737877 0.022917000576853752
  endloop
 endfacet
 facet normal -0.84400097144866204 0.38931734952650526 -0.36890969294852038
  outer loop
   vertex -0.010737000033259392 -0.017821000888943672 0.023901000618934631
   vertex -0.0098850000649690628 -0.016894999891519547 0.022928999736905098
   vertex -0.011342000216245651 -0.020065000280737877 0.022917000576853752
  endloop
 endfacet
 facet normal 0.21152474334346308 -0.93322646534536269 0.29042322106278373
  outer loop
   vertex -0.0044709998182952404 -0.02303599938750267 0.030595999211072922
   vertex -0.0080059999600052834 -0.024000000208616257 0.030073000118136406
   vertex -0.0086989998817443848 -0.024955000728368759 0.027509000152349472
  endloop
 endfacet
 facet normal -0.68942789767167523 0.65680189943097955 -0.30545120529451425
  outer loop
   vertex -0.010156000033020973 -0.020326999947428703 0.01799900084733963
   vertex -0.0095910001546144485 -0.020331999287009239 0.01671300083398819
   vertex -0.012039000168442726 -0.022690000012516975 0.017168000340461731
  endloop
 endfacet
 facet normal -0.90684861123735405 0.1358864199998468 -0.39894921626255569
  outer loop
   vertex -0.0098320003598928452 -0.019345000386238098 0.017596999183297157
   vertex -0.0095910001546144485 -0.020331999287009239 0.01671300083398819
   vertex -0.010156000033020973 -0.020326999947428703 0.01799900084733963
  endloop
 endfacet
 facet normal -0.94504536522489557 0.20882752461037787 -0.25155580421060864
  outer loop
   vertex -0.010538999922573566 -0.018490999937057495 0.020961999893188477
   vertex -0.0098320003598928452 -0.019345000386238098 0.017596999183297157
   vertex -0.010156000033020973 -0.020326999947428703 0.01799900084733963
  endloop
 endfacet
 facet normal -0.46729069622770514 0.52380233973609491 -0.71222925670462256
  outer loop
   vertex -0.0095910001546144485 -0.020331999287009239 0.01671300083398819
   vertex -0.0098320003598928452 -0.019345000386238098 0.017596999183297157
   vertex -0.00849200040102005 -0.01920199953019619 0.016822999343276024
  endloop
 endfacet
 facet normal -0.1069665954274288 -0.30792993292169135 -0.94537680523350442
  outer loop
   vertex -0.0095910001546144485 -0.020331999287009239 0.01671300083398819
   vertex -0.004335000179708004 -0.02150999940931797 0.016502000391483307
   vertex -0.0058849998749792576 -0.025107000023126602 0.017849000170826912
  endloop
 endfacet
 facet normal -0.014952374574573433 0.11127056996099041 -0.99367765736939961
  outer loop
   vertex -0.004335000179708004 -0.02150999940931797 0.016502000391483307
   vertex -0.0095910001546144485 -0.020331999287009239 0.01671300083398819
   vertex -0.00849200040102005 -0.01920199953019619 0.016822999343276024
  endloop
 endfacet
 facet normal 0.20285841401094415 -0.16893526675153467 -0.96452544783046146
  outer loop
   vertex -0.0058849998749792576 -0.025107000023126602 0.017849000170826912
   vertex -0.0021420000120997429 -0.026613000780344009 0.018899999558925629
   vertex -0.006876000203192234 -0.028655000030994415 0.018262000754475594
  endloop
 endfacet
 facet normal 0.094386951420348697 -0.38454452683022333 -0.91826826705843023
  outer loop
   vertex -0.004335000179708004 -0.02150999940931797 0.016502000391483307
   vertex 2.3000000510364771e-05 -0.021810999140143394 0.017076000571250916
   vertex -0.0058849998749792576 -0.025107000023126602 0.017849000170826912
  endloop
 endfacet
 facet normal 0.26080475084439897 -0.63750798096177641 -0.72495824441620804
  outer loop
   vertex -0.0012610000558197498 -0.024994999170303345 0.01941400021314621
   vertex -0.0058849998749792576 -0.025107000023126602 0.017849000170826912
   vertex 2.3000000510364771e-05 -0.021810999140143394 0.017076000571250916
  endloop
 endfacet
 facet normal 0.31522260624274295 0.12712496380901131 -0.94046475324176304
  outer loop
   vertex -0.0058849998749792576 -0.025107000023126602 0.017849000170826912
   vertex -0.0012610000558197498 -0.024994999170303345 0.01941400021314621
   vertex -0.0021420000120997429 -0.026613000780344009 0.018899999558925629
  endloop
 endfacet
 facet normal 0.2698513365877131 -0.34468944423744985 -0.89909367875272195
  outer loop
   vertex -0.0021420000120997429 -0.026613000780344009 0.018899999558925629
   vertex -0.0040560001507401466 -0.03057900071144104 0.019845999777317047
   vertex -0.006876000203192234 -0.028655000030994415 0.018262000754475594
  endloop
 endfacet
 facet normal 0.12790538465615298 -0.79252637938792725 0.59627355345531197
  outer loop
   vertex -0.0078790001571178436 -0.021914999932050705 0.032816998660564423
   vertex -0.0080059999600052834 -0.024000000208616257 0.030073000118136406
   vertex -0.0044709998182952404 -0.02303599938750267 0.030595999211072922
  endloop
 endfacet
 facet normal 0.32978539644287719 -0.77828810190979114 0.53433063052633345
  outer loop
   vertex -0.0032899999059736729 -0.024116000160574913 0.028294000774621964
   vertex -0.0028359999414533377 -0.021990999579429626 0.031108999624848366
   vertex -0.0044709998182952404 -0.02303599938750267 0.030595999211072922
  endloop
 endfacet
 facet normal 0.35407722302638112 -0.49528716570403636 0.79329688239825369
  outer loop
   vertex -0.0044709998182952404 -0.02303599938750267 0.030595999211072922
   vertex -0.0047300001606345177 -0.020989999175071716 0.031989000737667084
   vertex -0.0078790001571178436 -0.021914999932050705 0.032816998660564423
  endloop
 endfacet
 facet normal 0.093041623526520484 -0.55226986628927488 0.82845715102253525
  outer loop
   vertex -0.0047300001606345177 -0.020989999175071716 0.031989000737667084
   vertex -0.0044709998182952404 -0.02303599938750267 0.030595999211072922
   vertex -0.0028359999414533377 -0.021990999579429626 0.031108999624848366
  endloop
 endfacet
 facet normal 0.85048066985686643 -0.33399392741879519 -0.40636275253421589
  outer loop
   vertex -0.0012610000558197498 -0.024994999170303345 0.01941400021314621
   vertex -0.001449999981559813 -0.027265999466180801 0.020885000005364418
   vertex -0.0021420000120997429 -0.026613000780344009 0.018899999558925629
  endloop
 endfacet
 facet normal 0.92455128920607788 -0.25836797748932133 -0.28009088138576854
  outer loop
   vertex -0.0012610000558197498 -0.024994999170303345 0.01941400021314621
   vertex -0.00038700000732205808 -0.023756999522447586 0.021157000213861465
   vertex -0.001449999981559813 -0.027265999466180801 0.020885000005364418
  endloop
 endfacet
 facet normal 0.89729392959122867 -0.24326914230616783 -0.36835272269979569
  outer loop
   vertex -0.00026599998818710446 -0.025426000356674194 0.022554000839591026
   vertex -0.001449999981559813 -0.027265999466180801 0.020885000005364418
   vertex -0.00038700000732205808 -0.023756999522447586 0.021157000213861465
  endloop
 endfacet
 facet normal 0.60669334427326471 -0.48391035440918861 -0.63067737783283095
  outer loop
   vertex -0.00038700000732205808 -0.023756999522447586 0.021157000213861465
   vertex 0.0017719999887049198 -0.022634999826550484 0.022373000159859657
   vertex -0.00026599998818710446 -0.025426000356674194 0.022554000839591026
  endloop
 endfacet
 facet normal 0.63101283390531293 -0.77383272865236763 0.054824369701960675
  outer loop
   vertex -0.00026599998818710446 -0.025426000356674194 0.022554000839591026
   vertex 0.0011830000439658761 -0.024174999445676804 0.023533999919891357
   vertex -0.00057799997739493847 -0.025557000190019608 0.024296000599861145
  endloop
 endfacet
 facet normal 0.73786125909520639 -0.56293823463591763 -0.37237253699948564
  outer loop
   vertex 0.0011830000439658761 -0.024174999445676804 0.023533999919891357
   vertex -0.00026599998818710446 -0.025426000356674194 0.022554000839591026
   vertex 0.0017719999887049198 -0.022634999826550484 0.022373000159859657
  endloop
 endfacet
 facet normal 0.63698223195971926 -0.47835900484238636 0.60450500300147725
  outer loop
   vertex -0.00057799997739493847 -0.025557000190019608 0.024296000599861145
   vertex 0.0011830000439658761 -0.024174999445676804 0.023533999919891357
   vertex -0.0032899999059736729 -0.024116000160574913 0.028294000774621964
  endloop
 endfacet
 facet normal 0.46717836163360388 -0.76199249569144256 0.44845491961987516
  outer loop
   vertex -0.001471000025048852 -0.022516999393701553 0.029115999117493629
   vertex -0.0032899999059736729 -0.024116000160574913 0.028294000774621964
   vertex 0.0011830000439658761 -0.024174999445676804 0.023533999919891357
  endloop
 endfacet
 facet normal 0.43562516389125638 -0.75080326503758754 0.49651301472732212
  outer loop
   vertex -0.0032899999059736729 -0.024116000160574913 0.028294000774621964
   vertex -0.001471000025048852 -0.022516999393701553 0.029115999117493629
   vertex -0.0028359999414533377 -0.021990999579429626 0.031108999624848366
  endloop
 endfacet
 facet normal -0.88118854285326764 0.18969393576338697 -0.43303921609795459
  outer loop
   vertex -0.01247899979352951 -0.01907699927687645 0.027940999716520309
   vertex -0.01166400033980608 -0.018397999927401543 0.026580000296235085
   vertex -0.011490000411868095 -0.02007799968123436 0.02549000084400177
  endloop
 endfacet
 facet normal -0.94673095639121918 0.10045341127416205 -0.30595687338896577
  outer loop
   vertex -0.01166400033980608 -0.018397999927401543 0.026580000296235085
   vertex -0.010737000033259392 -0.017821000888943672 0.023901000618934631
   vertex -0.011490000411868095 -0.02007799968123436 0.02549000084400177
  endloop
 endfacet
 facet normal -0.92054140442734778 0.29615679870845701 -0.25474432930623703
  outer loop
   vertex -0.01183599978685379 -0.0177800003439188 0.02792000025510788
   vertex -0.010737000033259392 -0.017821000888943672 0.023901000618934631
   vertex -0.01166400033980608 -0.018397999927401543 0.026580000296235085
  endloop
 endfacet
 facet normal -0.82461314214662018 0.51649084610299023 -0.2307604205467112
  outer loop
   vertex -0.010737000033259392 -0.017821000888943672 0.023901000618934631
   vertex -0.01183599978685379 -0.0177800003439188 0.02792000025510788
   vertex -0.0098850000649690628 -0.016894999891519547 0.022928999736905098
  endloop
 endfacet
 facet normal -0.61408548704821941 0.36746687656918431 0.69847484508838187
  outer loop
   vertex -0.012217000126838684 -0.018415000289678574 0.02795100025832653
   vertex -0.01245300006121397 -0.020540999248623848 0.02886199951171875
   vertex -0.0098510002717375755 -0.021245000883936882 0.031520001590251923
  endloop
 endfacet
 facet normal -0.80035411534822143 0.30899530067726771 0.51376569971586328
  outer loop
   vertex -0.01247899979352951 -0.01907699927687645 0.027940999716520309
   vertex -0.01245300006121397 -0.020540999248623848 0.02886199951171875
   vertex -0.012217000126838684 -0.018415000289678574 0.02795100025832653
  endloop
 endfacet
 facet normal -0.70179294403729009 -0.41921634477588549 0.5759724993193851
  outer loop
   vertex -0.01245300006121397 -0.020540999248623848 0.02886199951171875
   vertex -0.0096869999542832375 -0.023024000227451324 0.030424999073147774
   vertex -0.0098510002717375755 -0.021245000883936882 0.031520001590251923
  endloop
 endfacet
 facet normal -0.87034377221316195 0.34969416013969024 -0.34672137594033636
  outer loop
   vertex -0.012217000126838684 -0.018415000289678574 0.02795100025832653
   vertex -0.01166400033980608 -0.018397999927401543 0.026580000296235085
   vertex -0.01247899979352951 -0.01907699927687645 0.027940999716520309
  endloop
 endfacet
 facet normal -0.31277394543332687 -0.74924601038587424 0.58378324314673569
  outer loop
   vertex -0.0096869999542832375 -0.023024000227451324 0.030424999073147774
   vertex -0.0080059999600052834 -0.024000000208616257 0.030073000118136406
   vertex -0.0078790001571178436 -0.021914999932050705 0.032816998660564423
  endloop
 endfacet
 facet normal -0.59159930595453258 -0.46146051377641262 0.66110850502721918
  outer loop
   vertex -0.0098510002717375755 -0.021245000883936882 0.031520001590251923
   vertex -0.0096869999542832375 -0.023024000227451324 0.030424999073147774
   vertex -0.0078790001571178436 -0.021914999932050705 0.032816998660564423
  endloop
 endfacet
 facet normal -0.97987989356071536 -0.052845979007262713 -0.19246479339922148
  outer loop
   vertex -0.010538999922573566 -0.018490999937057495 0.020961999893188477
   vertex -0.010475999675691128 -0.016730999574065208 0.020158000290393829
   vertex -0.0098320003598928452 -0.019345000386238098 0.017596999183297157
  endloop
 endfacet
 facet normal -0.96019872896975544 0.14376814241080138 0.23947676737548837
  outer loop
   vertex -0.010228999890387058 -0.0162540003657341 0.020862000063061714
   vertex -0.010475999675691128 -0.016730999574065208 0.020158000290393829
   vertex -0.010538999922573566 -0.018490999937057495 0.020961999893188477
  endloop
 endfacet
 facet normal -0.96808798020316345 0.1433455577212733 0.20556681071548619
  outer loop
   vertex -0.010228999890387058 -0.0162540003657341 0.020862000063061714
   vertex -0.010538999922573566 -0.018490999937057495 0.020961999893188477
   vertex -0.0098850000649690628 -0.016894999891519547 0.022928999736905098
  endloop
 endfacet
 facet normal -0.71323560228297977 0.62707561542313839 0.31316313349072106
  outer loop
   vertex -0.0085389995947480202 -0.015413999557495117 0.02302899956703186
   vertex -0.010228999890387058 -0.0162540003657341 0.020862000063061714
   vertex -0.0098850000649690628 -0.016894999891519547 0.022928999736905098
  endloop
 endfacet
 facet normal -0.63439975342146082 0.53916930057343604 0.55392546265534837
  outer loop
   vertex -0.0085389995947480202 -0.015413999557495117 0.02302899956703186
   vertex -0.0098850000649690628 -0.016894999891519547 0.022928999736905098
   vertex -0.0078830001875758171 -0.016025999560952187 0.024375999346375465
  endloop
 endfacet
 facet normal -0.40148337295424402 0.91585005707083589 0.0054565744409712947
  outer loop
   vertex -0.01183599978685379 -0.0177800003439188 0.02792000025510788
   vertex -0.0078830001875758171 -0.016025999560952187 0.024375999346375465
   vertex -0.0098850000649690628 -0.016894999891519547 0.022928999736905098
  endloop
 endfacet
 facet normal -0.39400038144813115 0.73976690215362551 -0.54544351668780089
  outer loop
   vertex -0.0078459996730089188 -0.01748800091445446 0.018681000918149948
   vertex -0.00849200040102005 -0.01920199953019619 0.016822999343276024
   vertex -0.0098320003598928452 -0.019345000386238098 0.017596999183297157
  endloop
 endfacet
 facet normal -0.21771549298285026 0.65514643326930966 -0.72345222032262524
  outer loop
   vertex -0.0078459996730089188 -0.01748800091445446 0.018681000918149948
   vertex -0.0098320003598928452 -0.019345000386238098 0.017596999183297157
   vertex -0.010475999675691128 -0.016730999574065208 0.020158000290393829
  endloop
 endfacet
 facet normal 0.062222894641196055 0.76647940050759045 -0.63924771409837322
  outer loop
   vertex -0.00849200040102005 -0.01920199953019619 0.016822999343276024
   vertex -0.0049930000677704811 -0.016320999711751938 0.020617999136447906
   vertex -0.0036279999185353518 -0.020183999091386795 0.016118999570608139
  endloop
 endfacet
 facet normal 0.19514187130071292 0.68613919778604271 -0.70080856967276151
  outer loop
   vertex -0.0078459996730089188 -0.01748800091445446 0.018681000918149948
   vertex -0.0049930000677704811 -0.016320999711751938 0.020617999136447906
   vertex -0.00849200040102005 -0.01920199953019619 0.016822999343276024
  endloop
 endfacet
 facet normal -0.17720966138492075 -0.18473013113820674 -0.96668066834994826
  outer loop
   vertex -0.00849200040102005 -0.01920199953019619 0.016822999343276024
   vertex -0.0036279999185353518 -0.020183999091386795 0.016118999570608139
   vertex -0.004335000179708004 -0.02150999940931797 0.016502000391483307
  endloop
 endfacet
 facet normal 0.10718606415522783 -0.32822488331570471 -0.93849857411895055
  outer loop
   vertex -0.0036279999185353518 -0.020183999091386795 0.016118999570608139
   vertex 0.00063899997621774673 -0.01918799988925457 0.016257999464869499
   vertex -0.004335000179708004 -0.02150999940931797 0.016502000391483307
  endloop
 endfacet
 facet normal 0.10218919612576954 -0.31795032153601577 -0.94258419317868536
  outer loop
   vertex 2.3000000510364771e-05 -0.021810999140143394 0.017076000571250916
   vertex -0.004335000179708004 -0.02150999940931797 0.016502000391483307
   vertex 0.00063899997621774673 -0.01918799988925457 0.016257999464869499
  endloop
 endfacet
 facet normal 0.92985917260917061 -0.36778511012712273 0.009799585877411152
  outer loop
   vertex 2.3000000510364771e-05 -0.021810999140143394 0.017076000571250916
   vertex 0.00013000000035390258 -0.021501999348402023 0.018519999459385872
   vertex -0.0012610000558197498 -0.024994999170303345 0.01941400021314621
  endloop
 endfacet
 facet normal 0.97175578677992902 -0.23498687765696294 -0.021722297041354224
  outer loop
   vertex 0.00013000000035390258 -0.021501999348402023 0.018519999459385872
   vertex 2.3000000510364771e-05 -0.021810999140143394 0.017076000571250916
   vertex 0.00063899997621774673 -0.01918799988925457 0.016257999464869499
  endloop
 endfacet
 facet normal 0.80254181869983565 -0.42638987305070686 -0.41727485593762093
  outer loop
   vertex -0.0012610000558197498 -0.024994999170303345 0.01941400021314621
   vertex 0.00013000000035390258 -0.021501999348402023 0.018519999459385872
   vertex 0.00046700000530108809 -0.022136000916361809 0.019816000014543533
  endloop
 endfacet
 facet normal 0.85804944063109145 -0.5089419501668635 -0.068769533901436211
  outer loop
   vertex 0.00046700000530108809 -0.022136000916361809 0.019816000014543533
   vertex -0.00038700000732205808 -0.023756999522447586 0.021157000213861465
   vertex -0.0012610000558197498 -0.024994999170303345 0.01941400021314621
  endloop
 endfacet
 facet normal -0.27606027965752966 0.61588686905579237 0.73788487348641296
  outer loop
   vertex -0.0098510002717375755 -0.021245000883936882 0.031520001590251923
   vertex -0.0078790001571178436 -0.021914999932050705 0.032816998660564423
   vertex -0.0071330000646412373 -0.019841000437736511 0.031364999711513519
  endloop
 endfacet
 facet normal 0.052970185721831577 0.55985400948492081 0.82689639465186493
  outer loop
   vertex -0.0047300001606345177 -0.020989999175071716 0.031989000737667084
   vertex -0.0071330000646412373 -0.019841000437736511 0.031364999711513519
   vertex -0.0078790001571178436 -0.021914999932050705 0.032816998660564423
  endloop
 endfacet
 facet normal 0.53601815284362953 0.33175059754185249 0.77628994638132942
  outer loop
   vertex -0.0028359999414533377 -0.021990999579429626 0.031108999624848366
   vertex -0.0024520000442862511 -0.020227000117301941 0.030090000480413437
   vertex -0.0047300001606345177 -0.020989999175071716 0.031989000737667084
  endloop
 endfacet
 facet normal 0.83369105490619422 0.12873172229866767 0.53701710274759029
  outer loop
   vertex -0.0028359999414533377 -0.021990999579429626 0.031108999624848366
   vertex -0.001471000025048852 -0.022516999393701553 0.029115999117493629
   vertex -0.0024520000442862511 -0.020227000117301941 0.030090000480413437
  endloop
 endfacet
 facet normal 0.10628642958064037 0.63695188164286953 0.76354141692419508
  outer loop
   vertex -0.0054680001921951771 -0.019390000030398369 0.030757000669836998
   vertex -0.0071330000646412373 -0.019841000437736511 0.031364999711513519
   vertex -0.0047300001606345177 -0.020989999175071716 0.031989000737667084
  endloop
 endfacet
 facet normal 0.33254736010672759 0.66686820693271409 0.66685759189529614
  outer loop
   vertex -0.0024520000442862511 -0.020227000117301941 0.030090000480413437
   vertex -0.0054680001921951771 -0.019390000030398369 0.030757000669836998
   vertex -0.0047300001606345177 -0.020989999175071716 0.031989000737667084
  endloop
 endfacet
 facet normal 0.46147398324187111 0.070453976378765687 -0.88435173997867034
  outer loop
   vertex -0.00038700000732205808 -0.023756999522447586 0.021157000213861465
   vertex 0.0012750000460073352 -0.018865000456571579 0.022414000704884529
   vertex 0.0017719999887049198 -0.022634999826550484 0.022373000159859657
  endloop
 endfacet
 facet normal 0.92163158692791092 -0.35397920879652556 0.15904067943933822
  outer loop
   vertex 0.00046700000530108809 -0.022136000916361809 0.019816000014543533
   vertex 0.0012750000460073352 -0.018865000456571579 0.022414000704884529
   vertex -0.00038700000732205808 -0.023756999522447586 0.021157000213861465
  endloop
 endfacet
 facet normal 0.76685601017323135 0.10797542057291376 -0.6326714536102408
  outer loop
   vertex 0.0012750000460073352 -0.018865000456571579 0.022414000704884529
   vertex 0.0027890000492334366 -0.021308999508619308 0.02383200079202652
   vertex 0.0017719999887049198 -0.022634999826550484 0.022373000159859657
  endloop
 endfacet
 facet normal 0.86603360400910012 -0.46661996725800226 -0.17958731270095318
  outer loop
   vertex 0.0027890000492334366 -0.021308999508619308 0.02383200079202652
   vertex 0.0011830000439658761 -0.024174999445676804 0.023533999919891357
   vertex 0.0017719999887049198 -0.022634999826550484 0.022373000159859657
  endloop
 endfacet
 facet normal 0.73828396499258198 -0.46455285016692682 0.48900658117924845
  outer loop
   vertex -0.001471000025048852 -0.022516999393701553 0.029115999117493629
   vertex 0.0011830000439658761 -0.024174999445676804 0.023533999919891357
   vertex 0.0027890000492334366 -0.021308999508619308 0.02383200079202652
  endloop
 endfacet
 facet normal 0.77035398780248254 0.060015362272034925 0.63478570381520816
  outer loop
   vertex 0.0027890000492334366 -0.021308999508619308 0.02383200079202652
   vertex -0.0024520000442862511 -0.020227000117301941 0.030090000480413437
   vertex -0.001471000025048852 -0.022516999393701553 0.029115999117493629
  endloop
 endfacet
 facet normal -0.81810557914598714 0.47504178918505285 -0.32409652867328387
  outer loop
   vertex -0.012217000126838684 -0.018415000289678574 0.02795100025832653
   vertex -0.01183599978685379 -0.0177800003439188 0.02792000025510788
   vertex -0.01166400033980608 -0.018397999927401543 0.026580000296235085
  endloop
 endfacet
 facet normal -0.60871165875278332 0.39871361978146508 0.68592825127647017
  outer loop
   vertex -0.010174999944865704 -0.017342999577522278 0.02913999930024147
   vertex -0.01183599978685379 -0.0177800003439188 0.02792000025510788
   vertex -0.012217000126838684 -0.018415000289678574 0.02795100025832653
  endloop
 endfacet
 facet normal -0.40567104739162779 0.88302199928904179 0.23601514798792747
  outer loop
   vertex -0.010174999944865704 -0.017342999577522278 0.02913999930024147
   vertex -0.0090300003066658974 -0.01671300083398819 0.028751000761985779
   vertex -0.01183599978685379 -0.0177800003439188 0.02792000025510788
  endloop
 endfacet
 facet normal -0.36774347822898751 0.92861383333494474 0.049407314833187742
  outer loop
   vertex -0.0078830001875758171 -0.016025999560952187 0.024375999346375465
   vertex -0.01183599978685379 -0.0177800003439188 0.02792000025510788
   vertex -0.0090300003066658974 -0.01671300083398819 0.028751000761985779
  endloop
 endfacet
 facet normal -0.60584831709958387 0.37700846315341657 0.70058007064025241
  outer loop
   vertex -0.010174999944865704 -0.017342999577522278 0.02913999930024147
   vertex -0.012217000126838684 -0.018415000289678574 0.02795100025832653
   vertex -0.0098510002717375755 -0.021245000883936882 0.031520001590251923
  endloop
 endfacet
 facet normal -0.36441390719148076 0.46267719015587849 0.80816602375681446
  outer loop
   vertex -0.0083379996940493584 -0.017966000363230705 0.030324999243021011
   vertex -0.010174999944865704 -0.017342999577522278 0.02913999930024147
   vertex -0.0098510002717375755 -0.021245000883936882 0.031520001590251923
  endloop
 endfacet
 facet normal -0.15555529778462837 0.40081455776505931 0.90285671045561577
  outer loop
   vertex -0.0071330000646412373 -0.019841000437736511 0.031364999711513519
   vertex -0.0083379996940493584 -0.017966000363230705 0.030324999243021011
   vertex -0.0098510002717375755 -0.021245000883936882 0.031520001590251923
  endloop
 endfacet
 facet normal -0.064768154100892303 0.83653353288432453 -0.54407419951182545
  outer loop
   vertex -0.010475999675691128 -0.016730999574065208 0.020158000290393829
   vertex -0.010228999890387058 -0.0162540003657341 0.020862000063061714
   vertex -0.0078459996730089188 -0.01748800091445446 0.018681000918149948
  endloop
 endfacet
 facet normal -0.01236016072429808 0.86443230764843637 -0.50259726612912292
  outer loop
   vertex -0.010228999890387058 -0.0162540003657341 0.020862000063061714
   vertex -0.0049930000677704811 -0.016320999711751938 0.020617999136447906
   vertex -0.0078459996730089188 -0.01748800091445446 0.018681000918149948
  endloop
 endfacet
 facet normal -0.18179467031275678 0.95631852166290487 -0.22892265718000063
  outer loop
   vertex -0.0085389995947480202 -0.015413999557495117 0.02302899956703186
   vertex -0.0038560000248253345 -0.014557999558746815 0.022886000573635101
   vertex -0.010228999890387058 -0.0162540003657341 0.020862000063061714
  endloop
 endfacet
 facet normal -0.018172611991160541 0.79378463880215666 -0.60792738330753648
  outer loop
   vertex -0.0038560000248253345 -0.014557999558746815 0.022886000573635101
   vertex -0.0049930000677704811 -0.016320999711751938 0.020617999136447906
   vertex -0.010228999890387058 -0.0162540003657341 0.020862000063061714
  endloop
 endfacet
 facet normal -0.18201717421864647 0.97649984076224039 -0.11540281314065989
  outer loop
   vertex -0.0085389995947480202 -0.015413999557495117 0.02302899956703186
   vertex -0.0048320000059902668 -0.014508999884128571 0.024839999154210091
   vertex -0.0038560000248253345 -0.014557999558746815 0.022886000573635101
  endloop
 endfacet
 facet normal -0.43912441679571534 0.71798151127348808 0.5400669366321742
  outer loop
   vertex -0.0048320000059902668 -0.014508999884128571 0.024839999154210091
   vertex -0.0085389995947480202 -0.015413999557495117 0.02302899956703186
   vertex -0.0078830001875758171 -0.016025999560952187 0.024375999346375465
  endloop
 endfacet
 facet normal -0.32631451611029488 0.94318894915045748 0.062557515744790779
  outer loop
   vertex -0.0090300003066658974 -0.01671300083398819 0.028751000761985779
   vertex -0.0045170001685619354 -0.015017000027000904 0.026721000671386719
   vertex -0.0078830001875758171 -0.016025999560952187 0.024375999346375465
  endloop
 endfacet
 facet normal -0.46084708944746894 0.83433328412100793 0.30250277875690684
  outer loop
   vertex -0.0045170001685619354 -0.015017000027000904 0.026721000671386719
   vertex -0.0048320000059902668 -0.014508999884128571 0.024839999154210091
   vertex -0.0078830001875758171 -0.016025999560952187 0.024375999346375465
  endloop
 endfacet
 facet normal -0.26162645353359137 0.82117573090466633 -0.50717060027630001
  outer loop
   vertex -0.0038560000248253345 -0.014557999558746815 0.022886000573635101
   vertex -0.0012329999590292573 -0.012932999990880489 0.024164000526070595
   vertex -0.0049930000677704811 -0.016320999711751938 0.020617999136447906
  endloop
 endfacet
 facet normal -0.1192228647988673 0.77796938616488998 -0.61688697724897301
  outer loop
   vertex -0.0049930000677704811 -0.016320999711751938 0.020617999136447906
   vertex -0.0012329999590292573 -0.012932999990880489 0.024164000526070595
   vertex 0.00044800000614486635 -0.014449999667704105 0.021926000714302063
  endloop
 endfacet
 facet normal -0.10093522096783469 0.76642189915048076 -0.63435759132428204
  outer loop
   vertex 0.00077699997927993536 -0.015797000378370285 0.020332999527454376
   vertex 0.00063899997621774673 -0.01918799988925457 0.016257999464869499
   vertex -0.0049930000677704811 -0.016320999711751938 0.020617999136447906
  endloop
 endfacet
 facet normal -0.10038350162654223 0.74942933291651925 -0.65443015484121381
  outer loop
   vertex 0.00077699997927993536 -0.015797000378370285 0.020332999527454376
   vertex -0.0049930000677704811 -0.016320999711751938 0.020617999136447906
   vertex 0.00044800000614486635 -0.014449999667704105 0.021926000714302063
  endloop
 endfacet
 facet normal -0.14804014445992375 0.72769207555675108 -0.66973752978326706
  outer loop
   vertex -0.0049930000677704811 -0.016320999711751938 0.020617999136447906
   vertex 0.00063899997621774673 -0.01918799988925457 0.016257999464869499
   vertex -0.0036279999185353518 -0.020183999091386795 0.016118999570608139
  endloop
 endfacet
 facet normal 0.99952838316689729 -0.029180264394863795 -0.0095667870057871991
  outer loop
   vertex 0.00078499998198822141 -0.015900000929832458 0.021483000367879868
   vertex 0.00063899997621774673 -0.01918799988925457 0.016257999464869499
   vertex 0.00077699997927993536 -0.015797000378370285 0.020332999527454376
  endloop
 endfacet
 facet normal 0.98623035010014104 -0.15099311872646526 0.067459429575179891
  outer loop
   vertex 0.00013000000035390258 -0.021501999348402023 0.018519999459385872
   vertex 0.00063899997621774673 -0.01918799988925457 0.016257999464869499
   vertex 0.00078499998198822141 -0.015900000929832458 0.021483000367879868
  endloop
 endfacet
 facet normal 0.94673487381914945 0.056940679176662463 -0.31693980146005585
  outer loop
   vertex 0.0012750000460073352 -0.018865000456571579 0.022414000704884529
   vertex 0.00013000000035390258 -0.021501999348402023 0.018519999459385872
   vertex 0.00078499998198822141 -0.015900000929832458 0.021483000367879868
  endloop
 endfacet
 facet normal 0.96399781905585002 -0.028109545285031779 -0.26442023054114772
  outer loop
   vertex 0.00013000000035390258 -0.021501999348402023 0.018519999459385872
   vertex 0.0012750000460073352 -0.018865000456571579 0.022414000704884529
   vertex 0.00046700000530108809 -0.022136000916361809 0.019816000014543533
  endloop
 endfacet
 facet normal 0.15019107989934155 0.55160974288917897 0.82046897020448206
  outer loop
   vertex -0.0071330000646412373 -0.019841000437736511 0.031364999711513519
   vertex -0.0054680001921951771 -0.019390000030398369 0.030757000669836998
   vertex -0.0083379996940493584 -0.017966000363230705 0.030324999243021011
  endloop
 endfacet
 facet normal 0.77124543215252961 0.11788293048670991 0.62552705623635763
  outer loop
   vertex -0.0020129999611526728 -0.016116000711917877 0.028774000704288483
   vertex -0.0024520000442862511 -0.020227000117301941 0.030090000480413437
   vertex 0.0027890000492334366 -0.021308999508619308 0.02383200079202652
  endloop
 endfacet
 facet normal 0.29096784128066211 0.26336247374159999 0.91977058159368019
  outer loop
   vertex -0.0020129999611526728 -0.016116000711917877 0.028774000704288483
   vertex -0.0044350000098347664 -0.01833299919962883 0.030175000429153442
   vertex -0.0024520000442862511 -0.020227000117301941 0.030090000480413437
  endloop
 endfacet
 facet normal 0.27363373949090691 0.24474695706493044 0.93017391041658426
  outer loop
   vertex -0.0054680001921951771 -0.019390000030398369 0.030757000669836998
   vertex -0.0024520000442862511 -0.020227000117301941 0.030090000480413437
   vertex -0.0044350000098347664 -0.01833299919962883 0.030175000429153442
  endloop
 endfacet
 facet normal 0.18169075280495717 0.60206108056643026 0.77750300681884865
  outer loop
   vertex -0.0068509997799992561 -0.016589999198913574 0.028912000358104706
   vertex -0.0083379996940493584 -0.017966000363230705 0.030324999243021011
   vertex -0.0054680001921951771 -0.019390000030398369 0.030757000669836998
  endloop
 endfacet
 facet normal 0.04148725474103318 0.45049967040826355 0.89181211847344755
  outer loop
   vertex -0.0044350000098347664 -0.01833299919962883 0.030175000429153442
   vertex -0.0057509997859597206 -0.016930999234318733 0.029527999460697174
   vertex -0.0054680001921951771 -0.019390000030398369 0.030757000669836998
  endloop
 endfacet
 facet normal -0.3575361233612675 0.38426878511161883 0.85117884212463657
  outer loop
   vertex -0.0057509997859597206 -0.016930999234318733 0.029527999460697174
   vertex -0.0068509997799992561 -0.016589999198913574 0.028912000358104706
   vertex -0.0054680001921951771 -0.019390000030398369 0.030757000669836998
  endloop
 endfacet
 facet normal 0.97168952599061953 0.092291790552558414 -0.21748951808472905
  outer loop
   vertex 0.0012750000460073352 -0.018865000456571579 0.022414000704884529
   vertex 0.00078499998198822141 -0.015900000929832458 0.021483000367879868
   vertex 0.0010870000114664435 -0.014686999842524529 0.023346999660134315
  endloop
 endfacet
 facet normal 0.74947790413216875 0.083223854778306891 -0.6567774822673893
  outer loop
   vertex 0.0012750000460073352 -0.018865000456571579 0.022414000704884529
   vertex 0.0029690000228583813 -0.015425000339746475 0.024783000349998474
   vertex 0.0027890000492334366 -0.021308999508619308 0.02383200079202652
  endloop
 endfacet
 facet normal 0.64208501925828509 0.19449013547183902 -0.74155270564419973
  outer loop
   vertex 0.0029690000228583813 -0.015425000339746475 0.024783000349998474
   vertex 0.0012750000460073352 -0.018865000456571579 0.022414000704884529
   vertex 0.0010870000114664435 -0.014686999842524529 0.023346999660134315
  endloop
 endfacet
 facet normal 0.49365201215512799 -0.31495853299656401 0.81062248512352875
  outer loop
   vertex 0.0027890000492334366 -0.021308999508619308 0.02383200079202652
   vertex 0.0025969999842345715 -0.015487000346183777 0.026210999116301537
   vertex -0.0020129999611526728 -0.016116000711917877 0.028774000704288483
  endloop
 endfacet
 facet normal 0.9660818310556647 -0.069740301755142078 0.24864067650976973
  outer loop
   vertex 0.0025969999842345715 -0.015487000346183777 0.026210999116301537
   vertex 0.0027890000492334366 -0.021308999508619308 0.02383200079202652
   vertex 0.0029690000228583813 -0.015425000339746475 0.024783000349998474
  endloop
 endfacet
 facet normal -0.17777097849157181 0.73033704423203005 0.65954930143892276
  outer loop
   vertex -0.0090300003066658974 -0.01671300083398819 0.028751000761985779
   vertex -0.010174999944865704 -0.017342999577522278 0.02913999930024147
   vertex -0.0083379996940493584 -0.017966000363230705 0.030324999243021011
  endloop
 endfacet
 facet normal -0.090472684784775687 0.75939900907610125 0.64430415047714074
  outer loop
   vertex -0.0090300003066658974 -0.01671300083398819 0.028751000761985779
   vertex -0.0083379996940493584 -0.017966000363230705 0.030324999243021011
   vertex -0.0068509997799992561 -0.016589999198913574 0.028912000358104706
  endloop
 endfacet
 facet normal -0.086339328124796069 0.85058888745092098 0.51869457772755179
  outer loop
   vertex -0.0090300003066658974 -0.01671300083398819 0.028751000761985779
   vertex -0.0068509997799992561 -0.016589999198913574 0.028912000358104706
   vertex -0.0045170001685619354 -0.015017000027000904 0.026721000671386719
  endloop
 endfacet
 facet normal -0.22746485674602834 0.80178554742505037 -0.55262978103412141
  outer loop
   vertex -0.0038560000248253345 -0.014557999558746815 0.022886000573635101
   vertex -0.0024840000551193953 -0.012954999692738056 0.024646999314427376
   vertex -0.0012329999590292573 -0.012932999990880489 0.024164000526070595
  endloop
 endfacet
 facet normal -0.54446860183812396 0.78643403742989482 -0.29167695552469219
  outer loop
   vertex -0.0048320000059902668 -0.014508999884128571 0.024839999154210091
   vertex -0.0024840000551193953 -0.012954999692738056 0.024646999314427376
   vertex -0.0038560000248253345 -0.014557999558746815 0.022886000573635101
  endloop
 endfacet
 facet normal -0.50855768134803103 0.80601161975106983 0.30284377749620534
  outer loop
   vertex -0.0024840000551193953 -0.012954999692738056 0.024646999314427376
   vertex -0.0048320000059902668 -0.014508999884128571 0.024839999154210091
   vertex -0.0045170001685619354 -0.015017000027000904 0.026721000671386719
  endloop
 endfacet
 facet normal -0.33125623867150106 0.76457295382618362 0.55289917943393085
  outer loop
   vertex -0.00070600002072751522 -0.012608000077307224 0.025673000141978264
   vertex -0.0045170001685619354 -0.015017000027000904 0.026721000671386719
   vertex -0.00045600000885315239 -0.013655999675393105 0.027272000908851624
  endloop
 endfacet
 facet normal -0.49472604856744429 0.68930964565486497 0.52924318538457082
  outer loop
   vertex -0.0045170001685619354 -0.015017000027000904 0.026721000671386719
   vertex -0.0047849998809397221 -0.016457000747323036 0.028346000239253044
   vertex -0.003131000092253089 -0.014809999614953995 0.027746999636292458
  endloop
 endfacet
 facet normal 0.1364197410762602 0.73015287634920956 0.66952702066732306
  outer loop
   vertex -0.0045170001685619354 -0.015017000027000904 0.026721000671386719
   vertex -0.0068509997799992561 -0.016589999198913574 0.028912000358104706
   vertex -0.0047849998809397221 -0.016457000747323036 0.028346000239253044
  endloop
 endfacet
 facet normal -0.33889415349181301 0.89931882613394987 0.27636280808046881
  outer loop
   vertex -0.003131000092253089 -0.014809999614953995 0.027746999636292458
   vertex -0.00045600000885315239 -0.013655999675393105 0.027272000908851624
   vertex -0.0045170001685619354 -0.015017000027000904 0.026721000671386719
  endloop
 endfacet
 facet normal -0.40041988674398615 0.81536509389551926 0.41814313094523531
  outer loop
   vertex -0.00070600002072751522 -0.012608000077307224 0.025673000141978264
   vertex -0.0024840000551193953 -0.012954999692738056 0.024646999314427376
   vertex -0.0045170001685619354 -0.015017000027000904 0.026721000671386719
  endloop
 endfacet
 facet normal -0.086967956412946815 0.9796987030230413 -0.18062952652411704
  outer loop
   vertex -0.0012329999590292573 -0.012932999990880489 0.024164000526070595
   vertex -0.0024840000551193953 -0.012954999692738056 0.024646999314427376
   vertex -0.00070600002072751522 -0.012608000077307224 0.025673000141978264
  endloop
 endfacet
 facet normal 0.063055731138705245 0.97087883349446003 -0.2311239179379756
  outer loop
   vertex -0.0012329999590292573 -0.012932999990880489 0.024164000526070595
   vertex -0.00070600002072751522 -0.012608000077307224 0.025673000141978264
   vertex -7.5000003562308848e-05 -0.013117000460624695 0.023707000538706779
  endloop
 endfacet
 facet normal -0.12003392599247591 0.77757396453646799 -0.61722814767788459
  outer loop
   vertex -0.0012329999590292573 -0.012932999990880489 0.024164000526070595
   vertex -7.5000003562308848e-05 -0.013117000460624695 0.023707000538706779
   vertex 0.00044800000614486635 -0.014449999667704105 0.021926000714302063
  endloop
 endfacet
 facet normal 0.97483334521633813 0.22254662006029291 0.013151081859035026
  outer loop
   vertex 0.00044800000614486635 -0.014449999667704105 0.021926000714302063
   vertex 0.00078499998198822141 -0.015900000929832458 0.021483000367879868
   vertex 0.00077699997927993536 -0.015797000378370285 0.020332999527454376
  endloop
 endfacet
 facet normal 0.8850280543744361 0.31141480518773579 -0.34604358407588598
  outer loop
   vertex 0.00044800000614486635 -0.014449999667704105 0.021926000714302063
   vertex 0.0010870000114664435 -0.014686999842524529 0.023346999660134315
   vertex 0.00078499998198822141 -0.015900000929832458 0.021483000367879868
  endloop
 endfacet
 facet normal 0.7541270497874103 0.61248651167458334 -0.23696553714757185
  outer loop
   vertex 0.00044800000614486635 -0.014449999667704105 0.021926000714302063
   vertex -7.5000003562308848e-05 -0.013117000460624695 0.023707000538706779
   vertex 0.0010870000114664435 -0.014686999842524529 0.023346999660134315
  endloop
 endfacet
 facet normal -0.19317133630139294 0.66621883602353804 0.7203036147063101
  outer loop
   vertex -0.0044350000098347664 -0.01833299919962883 0.030175000429153442
   vertex -0.0020129999611526728 -0.016116000711917877 0.028774000704288483
   vertex -0.0047849998809397221 -0.016457000747323036 0.028346000239253044
  endloop
 endfacet
 facet normal -0.096935280085581721 0.56263253755138465 0.82100437219494748
  outer loop
   vertex -0.0020129999611526728 -0.016116000711917877 0.028774000704288483
   vertex -0.00045600000885315239 -0.013655999675393105 0.027272000908851624
   vertex -0.003131000092253089 -0.014809999614953995 0.027746999636292458
  endloop
 endfacet
 facet normal 0.44561358179691768 0.24388204896196347 0.86136524303702677
  outer loop
   vertex 0.0025969999842345715 -0.015487000346183777 0.026210999116301537
   vertex -0.00045600000885315239 -0.013655999675393105 0.027272000908851624
   vertex -0.0020129999611526728 -0.016116000711917877 0.028774000704288483
  endloop
 endfacet
 facet normal -0.19189552384986427 0.49987466462134189 0.84457174212501762
  outer loop
   vertex -0.003131000092253089 -0.014809999614953995 0.027746999636292458
   vertex -0.0047849998809397221 -0.016457000747323036 0.028346000239253044
   vertex -0.0020129999611526728 -0.016116000711917877 0.028774000704288483
  endloop
 endfacet
 facet normal 0.4169399337530274 0.67319735419337856 0.61070976244780639
  outer loop
   vertex -0.0057509997859597206 -0.016930999234318733 0.029527999460697174
   vertex -0.0044350000098347664 -0.01833299919962883 0.030175000429153442
   vertex -0.0047849998809397221 -0.016457000747323036 0.028346000239253044
  endloop
 endfacet
 facet normal 0.053392354024775129 0.91099093411520315 0.40895571213959409
  outer loop
   vertex -0.0057509997859597206 -0.016930999234318733 0.029527999460697174
   vertex -0.0047849998809397221 -0.016457000747323036 0.028346000239253044
   vertex -0.0068509997799992561 -0.016589999198913574 0.028912000358104706
  endloop
 endfacet
 facet normal 0.61144345899817265 0.63150471974044353 -0.47680046706551554
  outer loop
   vertex 0.0010870000114664435 -0.014686999842524529 0.023346999660134315
   vertex 0.0013729999773204327 -0.013172999955713749 0.025719000026583672
   vertex 0.0029690000228583813 -0.015425000339746475 0.024783000349998474
  endloop
 endfacet
 facet normal 0.66060561566770992 0.59415576878171261 -0.45888903121745911
  outer loop
   vertex -7.5000003562308848e-05 -0.013117000460624695 0.023707000538706779
   vertex 0.0013729999773204327 -0.013172999955713749 0.025719000026583672
   vertex 0.0010870000114664435 -0.014686999842524529 0.023346999660134315
  endloop
 endfacet
 facet normal 0.83632737646455113 0.49325473894757821 0.23928284911726899
  outer loop
   vertex 0.0025969999842345715 -0.015487000346183777 0.026210999116301537
   vertex 0.0029690000228583813 -0.015425000339746475 0.024783000349998474
   vertex 0.0013729999773204327 -0.013172999955713749 0.025719000026583672
  endloop
 endfacet
 facet normal 0.51555873891994908 0.4302567680298402 0.74099817832960146
  outer loop
   vertex 0.0013729999773204327 -0.013172999955713749 0.025719000026583672
   vertex -0.00045600000885315239 -0.013655999675393105 0.027272000908851624
   vertex 0.0025969999842345715 -0.015487000346183777 0.026210999116301537
  endloop
 endfacet
 facet normal 0.21476345322248028 0.83191118964541455 0.51166437408002763
  outer loop
   vertex 0.0013729999773204327 -0.013172999955713749 0.025719000026583672
   vertex -0.00070600002072751522 -0.012608000077307224 0.025673000141978264
   vertex -0.00045600000885315239 -0.013655999675393105 0.027272000908851624
  endloop
 endfacet
 facet normal 0.26212156769677863 0.95131187832541031 -0.16216656222897161
  outer loop
   vertex 0.0013729999773204327 -0.013172999955713749 0.025719000026583672
   vertex -7.5000003562308848e-05 -0.013117000460624695 0.023707000538706779
   vertex -0.00070600002072751522 -0.012608000077307224 0.025673000141978264
  endloop
 endfacet
endsolid
