solid Visualization Toolkit generated SLA File
 facet normal -0.14519703715596327 0.68920590685371463 0.70986832466245364
  outer loop
   vertex -0.0062270001508295536 -0.0059989998117089272 -0.019077999517321587
   vertex -0.0083680003881454468 -0.012117000296711922 -0.01357599999755621
   vertex -0.0027910000644624233 -0.01080199982970953 -0.013712000101804733
  endloop
 endfacet
 facet normal -0.16834089601263377 0.67847096927296457 0.71507935684332791
  outer loop
   vertex -0.001091000041924417 -0.006372000090777874 -0.017514999955892563
   vertex -0.0062270001508295536 -0.0059989998117089272 -0.019077999517321587
   vertex -0.0027910000644624233 -0.01080199982970953 -0.013712000101804733
  endloop
 endfacet
 facet normal -0.3351214883551179 0.69214952886713343 0.63923596404743654
  outer loop
   vertex -0.0062270001508295536 -0.0059989998117089272 -0.019077999517321587
   vertex -0.0091770002618432045 -0.0092070000246167183 -0.0171509999781847
   vertex -0.0083680003881454468 -0.012117000296711922 -0.01357599999755621
  endloop
 endfacet
 facet normal -0.58852643303919794 0.73864158392588253 0.32870237010040215
  outer loop
   vertex -0.006399999838322401 -0.0056500001810491085 -0.020171999931335449
   vertex -0.0091770002618432045 -0.0092070000246167183 -0.0171509999781847
   vertex -0.0062270001508295536 -0.0059989998117089272 -0.019077999517321587
  endloop
 endfacet
 facet normal -0.11936961023414881 0.8030148595516764 0.58388186432852063
  outer loop
   vertex -0.0062270001508295536 -0.0059989998117089272 -0.019077999517321587
   vertex -0.001091000041924417 -0.006372000090777874 -0.017514999955892563
   vertex -0.003519000019878149 -0.0055789998732507229 -0.019101999700069427
  endloop
 endfacet
 facet normal -0.14236255359549285 0.93625348542152509 0.32118890760706026
  outer loop
   vertex -0.003519000019878149 -0.0055789998732507229 -0.019101999700069427
   vertex -0.006399999838322401 -0.0056500001810491085 -0.020171999931335449
   vertex -0.0062270001508295536 -0.0059989998117089272 -0.019077999517321587
  endloop
 endfacet
 facet normal -0.905450908612348 0.20492558980041603 0.37170439160443786
  outer loop
   vertex -0.0083680003881454468 -0.012117000296711922 -0.01357599999755621
   vertex -0.0091770002618432045 -0.0092070000246167183 -0.0171509999781847
   vertex -0.0097080003470182419 -0.014488000422716141 -0.015533000230789185
  endloop
 endfacet
 facet normal 0.16719387238650243 -0.63070694663444271 0.75779611803140312
  outer loop
   vertex -0.0027910000644624233 -0.01080199982970953 -0.013712000101804733
   vertex -0.0083680003881454468 -0.012117000296711922 -0.01357599999755621
   vertex -0.0079089999198913574 -0.012536000460386276 -0.014026000164449215
  endloop
 endfacet
 facet normal 0.110046478729119 -0.66895098941515163 0.73511519252414548
  outer loop
   vertex -0.0079089999198913574 -0.012536000460386276 -0.014026000164449215
   vertex -0.0083680003881454468 -0.012117000296711922 -0.01357599999755621
   vertex -0.0097080003470182419 -0.014488000422716141 -0.015533000230789185
  endloop
 endfacet
 facet normal 0.28215088071304362 -0.89523649135731898 0.34488042138557318
  outer loop
   vertex -0.0027910000644624233 -0.01080199982970953 -0.013712000101804733
   vertex -0.0079089999198913574 -0.012536000460386276 -0.014026000164449215
   vertex -0.0076170000247657299 -0.012698999606072903 -0.014688000082969666
  endloop
 endfacet
 facet normal 0.08882711006420238 0.62895133393061919 0.77235352272423585
  outer loop
   vertex -0.0027910000644624233 -0.01080199982970953 -0.013712000101804733
   vertex -0.00098699994850903749 -0.010583999566733837 -0.014096999540925026
   vertex -0.001091000041924417 -0.006372000090777874 -0.017514999955892563
  endloop
 endfacet
 facet normal 0.23442014893587182 -0.62523720775859992 0.74439614977988244
  outer loop
   vertex -0.00098699994850903749 -0.010583999566733837 -0.014096999540925026
   vertex -0.0027910000644624233 -0.01080199982970953 -0.013712000101804733
   vertex -0.00049399997806176543 -0.012896999716758728 -0.016194999217987061
  endloop
 endfacet
 facet normal 0.13025533239193027 -0.69511885030448628 0.70699599173887617
  outer loop
   vertex -0.0076170000247657299 -0.012698999606072903 -0.014688000082969666
   vertex -0.00049399997806176543 -0.012896999716758728 -0.016194999217987061
   vertex -0.0027910000644624233 -0.01080199982970953 -0.013712000101804733
  endloop
 endfacet
 facet normal 0.64763525632388519 0.69029101473460686 0.32259400140573347
  outer loop
   vertex -0.001091000041924417 -0.006372000090777874 -0.017514999955892563
   vertex 0.0019779999274760485 -0.010222000069916248 -0.015437999740242958
   vertex 0.0030129998922348022 -0.010692999698221684 -0.01650799997150898
  endloop
 endfacet
 facet normal 0.68192427445064807 0.69835317874147707 0.21744452546944379
  outer loop
   vertex -0.001091000041924417 -0.006372000090777874 -0.017514999955892563
   vertex 0.0030129998922348022 -0.010692999698221684 -0.01650799997150898
   vertex -0.00079100002767518163 -0.0057899998500943184 -0.020324999466538429
  endloop
 endfacet
 facet normal 0.41552973537767807 0.88084952368095459 0.2268020186153383
  outer loop
   vertex -0.001091000041924417 -0.006372000090777874 -0.017514999955892563
   vertex -0.00079100002767518163 -0.0057899998500943184 -0.020324999466538429
   vertex -0.0016890000551939011 -0.0054910001344978809 -0.019841000437736511
  endloop
 endfacet
 facet normal 0.0891907811743088 0.93882009538910183 0.33265873361015807
  outer loop
   vertex -0.001091000041924417 -0.006372000090777874 -0.017514999955892563
   vertex -0.0016890000551939011 -0.0054910001344978809 -0.019841000437736511
   vertex -0.003519000019878149 -0.0055789998732507229 -0.019101999700069427
  endloop
 endfacet
 facet normal 0.26270961476843807 0.6118904701381207 0.74603867919992495
  outer loop
   vertex -0.00098699994850903749 -0.010583999566733837 -0.014096999540925026
   vertex 0.0019779999274760485 -0.010222000069916248 -0.015437999740242958
   vertex -0.001091000041924417 -0.006372000090777874 -0.017514999955892563
  endloop
 endfacet
 facet normal -0.99298892692597474 0.070855017770281151 -0.094617955268408507
  outer loop
   vertex -0.0097080003470182419 -0.014488000422716141 -0.015533000230789185
   vertex -0.0091770002618432045 -0.0092070000246167183 -0.0171509999781847
   vertex -0.0090960003435611725 -0.011886999942362309 -0.020007999613881111
  endloop
 endfacet
 facet normal -0.85856537984975956 0.3615644836644597 -0.36350600088016516
  outer loop
   vertex -0.0090960003435611725 -0.011886999942362309 -0.020007999613881111
   vertex -0.0091770002618432045 -0.0092070000246167183 -0.0171509999781847
   vertex -0.006399999838322401 -0.0056500001810491085 -0.020171999931335449
  endloop
 endfacet
 facet normal -0.57229096323250539 0.669835334939342 -0.47307893365601317
  outer loop
   vertex -0.0052180001512169838 -0.0051669999957084656 -0.020918000489473343
   vertex -0.0046439999714493752 -0.005772000178694725 -0.022469000890851021
   vertex -0.006399999838322401 -0.0056500001810491085 -0.020171999931335449
  endloop
 endfacet
 facet normal -0.15399569776888966 0.92270604438683312 0.3534103574043585
  outer loop
   vertex -0.0052180001512169838 -0.0051669999957084656 -0.020918000489473343
   vertex -0.006399999838322401 -0.0056500001810491085 -0.020171999931335449
   vertex -0.003519000019878149 -0.0055789998732507229 -0.019101999700069427
  endloop
 endfacet
 facet normal -0.90672041102983147 0.38756580333623381 -0.16628543022836689
  outer loop
   vertex -0.0069129997864365578 -0.007969999685883522 -0.022781999781727791
   vertex -0.0090960003435611725 -0.011886999942362309 -0.020007999613881111
   vertex -0.006399999838322401 -0.0056500001810491085 -0.020171999931335449
  endloop
 endfacet
 facet normal -0.57699360030645941 0.66346277900290618 -0.47633551839342281
  outer loop
   vertex -0.0069129997864365578 -0.007969999685883522 -0.022781999781727791
   vertex -0.006399999838322401 -0.0056500001810491085 -0.020171999931335449
   vertex -0.0046439999714493752 -0.005772000178694725 -0.022469000890851021
  endloop
 endfacet
 facet normal -0.050483691757492358 0.96274644225456207 0.26565143476502728
  outer loop
   vertex -0.0052180001512169838 -0.0051669999957084656 -0.020918000489473343
   vertex -0.003519000019878149 -0.0055789998732507229 -0.019101999700069427
   vertex -0.0020029998850077391 -0.005135000217705965 -0.020423000678420067
  endloop
 endfacet
 facet normal 0.14321423761946131 0.87679041250571566 0.45905147280139913
  outer loop
   vertex -0.0020029998850077391 -0.005135000217705965 -0.020423000678420067
   vertex -0.003519000019878149 -0.0055789998732507229 -0.019101999700069427
   vertex -0.0016890000551939011 -0.0054910001344978809 -0.019841000437736511
  endloop
 endfacet
 facet normal -0.93928988768231614 0.33649505191586859 0.067123668954240753
  outer loop
   vertex -0.0090960003435611725 -0.011886999942362309 -0.020007999613881111
   vertex -0.010014999657869339 -0.014485999941825867 -0.019838999956846237
   vertex -0.0097080003470182419 -0.014488000422716141 -0.015533000230789185
  endloop
 endfacet
 facet normal -0.99373936831050624 0.086352478864666585 0.07088947216451405
  outer loop
   vertex -0.010014999657869339 -0.014485999941825867 -0.019838999956846237
   vertex -0.010096999816596508 -0.016565000638365746 -0.018456000834703445
   vertex -0.0097080003470182419 -0.014488000422716141 -0.015533000230789185
  endloop
 endfacet
 facet normal 0.49333223563928047 -0.76880204922354778 0.40689889946868013
  outer loop
   vertex -0.0076170000247657299 -0.012698999606072903 -0.014688000082969666
   vertex -0.0079089999198913574 -0.012536000460386276 -0.014026000164449215
   vertex -0.0097080003470182419 -0.014488000422716141 -0.015533000230789185
  endloop
 endfacet
 facet normal 0.4530009004009371 -0.75408645867912227 0.47554578861842589
  outer loop
   vertex -0.010096999816596508 -0.016565000638365746 -0.018456000834703445
   vertex -0.0076170000247657299 -0.012698999606072903 -0.014688000082969666
   vertex -0.0097080003470182419 -0.014488000422716141 -0.015533000230789185
  endloop
 endfacet
 facet normal 0.30691042280291886 -0.75792411350559785 0.57563619634425967
  outer loop
   vertex -0.010096999816596508 -0.016565000638365746 -0.018456000834703445
   vertex -0.0090560000389814377 -0.017487000674009323 -0.020224999636411667
   vertex -0.0076170000247657299 -0.012698999606072903 -0.014688000082969666
  endloop
 endfacet
 facet normal 0.11263694950844709 -0.76589717833756288 0.63302008642695606
  outer loop
   vertex -0.0076170000247657299 -0.012698999606072903 -0.014688000082969666
   vertex -0.0090560000389814377 -0.017487000674009323 -0.020224999636411667
   vertex -0.00049399997806176543 -0.012896999716758728 -0.016194999217987061
  endloop
 endfacet
 facet normal 0.37683003950207805 0.2337849001566045 0.89629445038314781
  outer loop
   vertex -0.00098699994850903749 -0.010583999566733837 -0.014096999540925026
   vertex 0.002216000109910965 -0.01092000026255846 -0.015355999581515789
   vertex 0.0019779999274760485 -0.010222000069916248 -0.015437999740242958
  endloop
 endfacet
 facet normal 0.17593667548964831 -0.6405270642850257 0.74751011105941356
  outer loop
   vertex -0.00049399997806176543 -0.012896999716758728 -0.016194999217987061
   vertex 0.0023849999997764826 -0.011412999592721462 -0.015600999817252159
   vertex -0.00098699994850903749 -0.010583999566733837 -0.014096999540925026
  endloop
 endfacet
 facet normal 0.3142831400720138 -0.33389729204010332 0.88867244034838899
  outer loop
   vertex -0.00098699994850903749 -0.010583999566733837 -0.014096999540925026
   vertex 0.0023849999997764826 -0.011412999592721462 -0.015600999817252159
   vertex 0.002216000109910965 -0.01092000026255846 -0.015355999581515789
  endloop
 endfacet
 facet normal 0.085657409100673348 -0.74279029817153441 0.66402212403533889
  outer loop
   vertex -0.0090560000389814377 -0.017487000674009323 -0.020224999636411667
   vertex 0.0032579998951405287 -0.016032999381422997 -0.020186999812722206
   vertex -0.00049399997806176543 -0.012896999716758728 -0.016194999217987061
  endloop
 endfacet
 facet normal 0.27514003253593433 -0.76621520646171248 0.58069976742113494
  outer loop
   vertex 0.0032389999832957983 -0.012299999594688416 -0.017176000401377678
   vertex 0.0023849999997764826 -0.011412999592721462 -0.015600999817252159
   vertex -0.00049399997806176543 -0.012896999716758728 -0.016194999217987061
  endloop
 endfacet
 facet normal 0.29173169648410113 -0.59960764282973322 0.7452270069761826
  outer loop
   vertex 0.0032389999832957983 -0.012299999594688416 -0.017176000401377678
   vertex -0.00049399997806176543 -0.012896999716758728 -0.016194999217987061
   vertex 0.0032579998951405287 -0.016032999381422997 -0.020186999812722206
  endloop
 endfacet
 facet normal 0.74730992062516954 0.32303007826778551 0.58067155179973395
  outer loop
   vertex 0.002216000109910965 -0.01092000026255846 -0.015355999581515789
   vertex 0.0030129998922348022 -0.010692999698221684 -0.01650799997150898
   vertex 0.0019779999274760485 -0.010222000069916248 -0.015437999740242958
  endloop
 endfacet
 facet normal 0.83581430442088811 0.52598672399338642 -0.15732900148457055
  outer loop
   vertex -0.00079100002767518163 -0.0057899998500943184 -0.020324999466538429
   vertex 0.0030129998922348022 -0.010692999698221684 -0.01650799997150898
   vertex 0.0034759999252855778 -0.011807999573647976 -0.017775999382138252
  endloop
 endfacet
 facet normal 0.94036435783199457 0.0036589493503254647 0.34014921227142703
  outer loop
   vertex 0.0034759999252855778 -0.011807999573647976 -0.017775999382138252
   vertex 0.0030129998922348022 -0.010692999698221684 -0.01650799997150898
   vertex 0.0028140000067651272 -0.011144000105559826 -0.015953000634908676
  endloop
 endfacet
 facet normal 0.71966968429179112 0.38964556898447128 0.57467545282717725
  outer loop
   vertex 0.0028140000067651272 -0.011144000105559826 -0.015953000634908676
   vertex 0.0030129998922348022 -0.010692999698221684 -0.01650799997150898
   vertex 0.002216000109910965 -0.01092000026255846 -0.015355999581515789
  endloop
 endfacet
 facet normal 0.93225493790497338 0.352108834225067 -0.083187136099630993
  outer loop
   vertex -0.00074500002665445209 -0.0067159999161958694 -0.023729000240564346
   vertex -0.00079100002767518163 -0.0057899998500943184 -0.020324999466538429
   vertex 0.0024240000639110804 -0.016092000529170036 -0.027900999411940575
  endloop
 endfacet
 facet normal 0.87131338904188971 0.47637443716325173 -0.11781499774532796
  outer loop
   vertex -0.0013150000013411045 -0.0050690001808106899 -0.021284999325871468
   vertex -0.00079100002767518163 -0.0057899998500943184 -0.020324999466538429
   vertex -0.00074500002665445209 -0.0067159999161958694 -0.023729000240564346
  endloop
 endfacet
 facet normal 0.41258873990507222 0.82213605764985465 0.39225353333717694
  outer loop
   vertex -0.0013150000013411045 -0.0050690001808106899 -0.021284999325871468
   vertex -0.0020029998850077391 -0.005135000217705965 -0.020423000678420067
   vertex -0.00079100002767518163 -0.0057899998500943184 -0.020324999466538429
  endloop
 endfacet
 facet normal 0.4377066907594675 0.85262422556016892 0.2853853234704235
  outer loop
   vertex -0.0020029998850077391 -0.005135000217705965 -0.020423000678420067
   vertex -0.0016890000551939011 -0.0054910001344978809 -0.019841000437736511
   vertex -0.00079100002767518163 -0.0057899998500943184 -0.020324999466538429
  endloop
 endfacet
 facet normal 0.89463996534758383 0.40990881747527963 -0.17774727496896287
  outer loop
   vertex -0.00079100002767518163 -0.0057899998500943184 -0.020324999466538429
   vertex 0.0037320000119507313 -0.015707999467849731 -0.020431999117136002
   vertex 0.0024240000639110804 -0.016092000529170036 -0.027900999411940575
  endloop
 endfacet
 facet normal 0.8024369797088835 0.37098552970370463 -0.46740200079390598
  outer loop
   vertex 0.0037320000119507313 -0.015707999467849731 -0.020431999117136002
   vertex -0.00079100002767518163 -0.0057899998500943184 -0.020324999466538429
   vertex 0.0034759999252855778 -0.011807999573647976 -0.017775999382138252
  endloop
 endfacet
 facet normal -0.85606550595903763 0.12127296792114582 -0.50243876916366015
  outer loop
   vertex -0.0090960003435611725 -0.011886999942362309 -0.020007999613881111
   vertex -0.0069129997864365578 -0.007969999685883522 -0.022781999781727791
   vertex -0.0076529998332262039 -0.011262999847531319 -0.022315999493002892
  endloop
 endfacet
 facet normal -0.75963929085879633 0.22902685246199847 -0.6086828801887687
  outer loop
   vertex -0.0083560002967715263 -0.012954000383615494 -0.021332999691367149
   vertex -0.010014999657869339 -0.014485999941825867 -0.019838999956846237
   vertex -0.0090960003435611725 -0.011886999942362309 -0.020007999613881111
  endloop
 endfacet
 facet normal -0.85309645332031958 0.05292068212691127 -0.51906246515762833
  outer loop
   vertex -0.0076529998332262039 -0.011262999847531319 -0.022315999493002892
   vertex -0.0083560002967715263 -0.012954000383615494 -0.021332999691367149
   vertex -0.0090960003435611725 -0.011886999942362309 -0.020007999613881111
  endloop
 endfacet
 facet normal -0.29933931704776773 0.84619271477552727 -0.44085582986981059
  outer loop
   vertex -0.0035520000383257866 -0.0056039998307824135 -0.022887999191880226
   vertex -0.0046439999714493752 -0.005772000178694725 -0.022469000890851021
   vertex -0.0052180001512169838 -0.0051669999957084656 -0.020918000489473343
  endloop
 endfacet
 facet normal -0.35597559637345738 0.8023770540715065 -0.47903281504098644
  outer loop
   vertex -0.002988999942317605 -0.0050789997912943363 -0.022427000105381012
   vertex -0.0035520000383257866 -0.0056039998307824135 -0.022887999191880226
   vertex -0.0052180001512169838 -0.0051669999957084656 -0.020918000489473343
  endloop
 endfacet
 facet normal -0.14260445015854625 0.97778490879046842 -0.15362500752349634
  outer loop
   vertex -0.0052180001512169838 -0.0051669999957084656 -0.020918000489473343
   vertex -0.0026070000603795052 -0.0048690000548958778 -0.021445000544190407
   vertex -0.002988999942317605 -0.0050789997912943363 -0.022427000105381012
  endloop
 endfacet
 facet normal -0.052743338059414308 0.95837146058810374 0.2806105554332825
  outer loop
   vertex -0.0052180001512169838 -0.0051669999957084656 -0.020918000489473343
   vertex -0.0020029998850077391 -0.005135000217705965 -0.020423000678420067
   vertex -0.0026070000603795052 -0.0048690000548958778 -0.021445000544190407
  endloop
 endfacet
 facet normal -0.43111121378892497 0.54720114721274682 -0.71743572941030298
  outer loop
   vertex -0.0046439999714493752 -0.005772000178694725 -0.022469000890851021
   vertex -0.0048079998232424259 -0.0092550003901124001 -0.025026999413967133
   vertex -0.0069129997864365578 -0.007969999685883522 -0.022781999781727791
  endloop
 endfacet
 facet normal -0.37036227096771435 0.5611065686114054 -0.7402642817972318
  outer loop
   vertex -0.0035520000383257866 -0.0056039998307824135 -0.022887999191880226
   vertex -0.0048079998232424259 -0.0092550003901124001 -0.025026999413967133
   vertex -0.0046439999714493752 -0.005772000178694725 -0.022469000890851021
  endloop
 endfacet
 facet normal -0.84509259583685836 0.11605726097403797 -0.52187088119277592
  outer loop
   vertex -0.0064509999938309193 -0.011171000078320503 -0.02424200065433979
   vertex -0.0076529998332262039 -0.011262999847531319 -0.022315999493002892
   vertex -0.0069129997864365578 -0.007969999685883522 -0.022781999781727791
  endloop
 endfacet
 facet normal -0.63424207331827254 0.24319274834496191 -0.73388982796150204
  outer loop
   vertex -0.0048079998232424259 -0.0092550003901124001 -0.025026999413967133
   vertex -0.0064509999938309193 -0.011171000078320503 -0.02424200065433979
   vertex -0.0069129997864365578 -0.007969999685883522 -0.022781999781727791
  endloop
 endfacet
 facet normal 0.1290180750441213 0.97559555748798232 0.17767285814558856
  outer loop
   vertex -0.0026070000603795052 -0.0048690000548958778 -0.021445000544190407
   vertex -0.0020029998850077391 -0.005135000217705965 -0.020423000678420067
   vertex -0.0013150000013411045 -0.0050690001808106899 -0.021284999325871468
  endloop
 endfacet
 facet normal -0.94934676533791196 -0.14722587312904842 -0.27760630652748663
  outer loop
   vertex -0.009092000313103199 -0.016032999381422997 -0.022174999117851257
   vertex -0.010096999816596508 -0.016565000638365746 -0.018456000834703445
   vertex -0.010014999657869339 -0.014485999941825867 -0.019838999956846237
  endloop
 endfacet
 facet normal -0.78173458066078139 0.33133794535852312 -0.52830503628557679
  outer loop
   vertex -0.0083560002967715263 -0.012954000383615494 -0.021332999691367149
   vertex -0.009092000313103199 -0.016032999381422997 -0.022174999117851257
   vertex -0.010014999657869339 -0.014485999941825867 -0.019838999956846237
  endloop
 endfacet
 facet normal -0.86248886386013712 -0.41320932538318822 -0.29218318420747691
  outer loop
   vertex -0.0090560000389814377 -0.017487000674009323 -0.020224999636411667
   vertex -0.010096999816596508 -0.016565000638365746 -0.018456000834703445
   vertex -0.009092000313103199 -0.016032999381422997 -0.022174999117851257
  endloop
 endfacet
 facet normal -0.75348904202809341 -0.43041275336356249 -0.4969900655803729
  outer loop
   vertex -0.0090560000389814377 -0.017487000674009323 -0.020224999636411667
   vertex -0.0070759998634457588 -0.016815999522805214 -0.023808000609278679
   vertex -0.0081979995593428612 -0.01809299923479557 -0.021000999957323074
  endloop
 endfacet
 facet normal 0.069701227415924313 -0.61091311635348777 0.78862342291107712
  outer loop
   vertex -0.0090560000389814377 -0.017487000674009323 -0.020224999636411667
   vertex -0.0069400002248585224 -0.018561000004410744 -0.021244000643491745
   vertex 0.0032579998951405287 -0.016032999381422997 -0.020186999812722206
  endloop
 endfacet
 facet normal -0.62020153076441609 -0.63431096636899653 -0.46151886113300383
  outer loop
   vertex -0.009092000313103199 -0.016032999381422997 -0.022174999117851257
   vertex -0.0070759998634457588 -0.016815999522805214 -0.023808000609278679
   vertex -0.0090560000389814377 -0.017487000674009323 -0.020224999636411667
  endloop
 endfacet
 facet normal -0.24666595974259234 -0.87706966456106172 0.41219498761024792
  outer loop
   vertex -0.0090560000389814377 -0.017487000674009323 -0.020224999636411667
   vertex -0.0081979995593428612 -0.01809299923479557 -0.021000999957323074
   vertex -0.0069400002248585224 -0.018561000004410744 -0.021244000643491745
  endloop
 endfacet
 facet normal 0.67605247225706055 -0.12879780158064666 0.72550960094481798
  outer loop
   vertex 0.0023849999997764826 -0.011412999592721462 -0.015600999817252159
   vertex 0.0028140000067651272 -0.011144000105559826 -0.015953000634908676
   vertex 0.002216000109910965 -0.01092000026255846 -0.015355999581515789
  endloop
 endfacet
 facet normal 0.71658726198425482 -0.36522389390787036 0.59423413170288508
  outer loop
   vertex 0.0023849999997764826 -0.011412999592721462 -0.015600999817252159
   vertex 0.0032389999832957983 -0.012299999594688416 -0.017176000401377678
   vertex 0.0028140000067651272 -0.011144000105559826 -0.015953000634908676
  endloop
 endfacet
 facet normal 0.59975879067282034 -0.32276239201712775 0.7321979454423907
  outer loop
   vertex 0.0041089998558163643 -0.019387999549508095 -0.022362999618053436
   vertex 0.0037320000119507313 -0.015707999467849731 -0.020431999117136002
   vertex 0.0032579998951405287 -0.016032999381422997 -0.020186999812722206
  endloop
 endfacet
 facet normal 0.041047865268832855 -0.52184546663547016 0.85205186562138358
  outer loop
   vertex -0.0069400002248585224 -0.018561000004410744 -0.021244000643491745
   vertex -0.0030269999988377094 -0.02057499997317791 -0.022665999829769135
   vertex 0.0032579998951405287 -0.016032999381422997 -0.020186999812722206
  endloop
 endfacet
 facet normal 0.63961893519153024 -0.48062352454305746 0.59990719732327125
  outer loop
   vertex 0.0032579998951405287 -0.016032999381422997 -0.020186999812722206
   vertex 0.0037320000119507313 -0.015707999467849731 -0.020431999117136002
   vertex 0.0032389999832957983 -0.012299999594688416 -0.017176000401377678
  endloop
 endfacet
 facet normal 0.052975875176355186 -0.53389571006849779 0.84388916773457501
  outer loop
   vertex 0.0041089998558163643 -0.019387999549508095 -0.022362999618053436
   vertex 0.0032579998951405287 -0.016032999381422997 -0.020186999812722206
   vertex -0.0030269999988377094 -0.02057499997317791 -0.022665999829769135
  endloop
 endfacet
 facet normal 0.93666527772918329 -0.025201620219653439 0.3493179580766157
  outer loop
   vertex 0.0028140000067651272 -0.011144000105559826 -0.015953000634908676
   vertex 0.0032389999832957983 -0.012299999594688416 -0.017176000401377678
   vertex 0.0034759999252855778 -0.011807999573647976 -0.017775999382138252
  endloop
 endfacet
 facet normal 0.95347543036688931 -0.12442106404832852 0.27459789239496563
  outer loop
   vertex 0.0037320000119507313 -0.015707999467849731 -0.020431999117136002
   vertex 0.0034759999252855778 -0.011807999573647976 -0.017775999382138252
   vertex 0.0032389999832957983 -0.012299999594688416 -0.017176000401377678
  endloop
 endfacet
 facet normal 0.50982914614691655 0.76380637013516273 -0.39582075574690712
  outer loop
   vertex -0.00074500002665445209 -0.0067159999161958694 -0.023729000240564346
   vertex -0.0021039999555796385 -0.0054850000888109207 -0.023104000836610794
   vertex -0.0013150000013411045 -0.0050690001808106899 -0.021284999325871468
  endloop
 endfacet
 facet normal 0.79589526954577117 0.4494847681385179 -0.40560345551551602
  outer loop
   vertex -0.00074500002665445209 -0.0067159999161958694 -0.023729000240564346
   vertex 0.0024240000639110804 -0.016092000529170036 -0.027900999411940575
   vertex 0.0016210000030696392 -0.014615999534726143 -0.027840999886393547
  endloop
 endfacet
 facet normal 0.26906451157826766 0.6553681602863507 -0.70575977718486649
  outer loop
   vertex -0.0021039999555796385 -0.0054850000888109207 -0.023104000836610794
   vertex -0.00074500002665445209 -0.0067159999161958694 -0.023729000240564346
   vertex -0.0016919999616220593 -0.0079770004376769066 -0.025260999798774719
  endloop
 endfacet
 facet normal 0.47298840811623927 0.51409629811195034 -0.71553264220107704
  outer loop
   vertex -0.0016919999616220593 -0.0079770004376769066 -0.025260999798774719
   vertex -0.00074500002665445209 -0.0067159999161958694 -0.023729000240564346
   vertex 0.0016210000030696392 -0.014615999534726143 -0.027840999886393547
  endloop
 endfacet
 facet normal 0.14448682248337383 0.13814282124907096 -0.97981637007451827
  outer loop
   vertex 0.0024240000639110804 -0.016092000529170036 -0.027900999411940575
   vertex 0.0031530000269412994 -0.01742899976670742 -0.027982000261545181
   vertex 0.0023229999933391809 -0.018404999747872353 -0.028241999447345734
  endloop
 endfacet
 facet normal 0.34743429201190179 0.22601129508079501 -0.91005950752139841
  outer loop
   vertex 0.0016210000030696392 -0.014615999534726143 -0.027840999886393547
   vertex 0.0024240000639110804 -0.016092000529170036 -0.027900999411940575
   vertex 0.0020729999523609877 -0.016547000035643578 -0.028147999197244644
  endloop
 endfacet
 facet normal 0.47463028392123641 0.1080567279086066 -0.87352723892190787
  outer loop
   vertex 0.0024240000639110804 -0.016092000529170036 -0.027900999411940575
   vertex 0.0023229999933391809 -0.018404999747872353 -0.028241999447345734
   vertex 0.0020729999523609877 -0.016547000035643578 -0.028147999197244644
  endloop
 endfacet
 facet normal 0.85988440969902025 0.47946927243619547 -0.17523703588589079
  outer loop
   vertex 0.0031530000269412994 -0.01742899976670742 -0.027982000261545181
   vertex 0.0024240000639110804 -0.016092000529170036 -0.027900999411940575
   vertex 0.0037320000119507313 -0.015707999467849731 -0.020431999117136002
  endloop
 endfacet
 facet normal 0.18162758906144438 0.93856838151361133 -0.29342939885881819
  outer loop
   vertex -0.0026070000603795052 -0.0048690000548958778 -0.021445000544190407
   vertex -0.0013150000013411045 -0.0050690001808106899 -0.021284999325871468
   vertex -0.0021039999555796385 -0.0054850000888109207 -0.023104000836610794
  endloop
 endfacet
 facet normal 0.98063837160083056 0.16074518331916318 -0.11184529576052783
  outer loop
   vertex 0.0031530000269412994 -0.01742899976670742 -0.027982000261545181
   vertex 0.0037320000119507313 -0.015707999467849731 -0.020431999117136002
   vertex 0.0037789999041706324 -0.020364999771118164 -0.026713000610470772
  endloop
 endfacet
 facet normal 0.95378694917655227 0.24474547314811446 -0.17432759091432032
  outer loop
   vertex 0.0045360000804066658 -0.021513000130653381 -0.024182999506592751
   vertex 0.0037789999041706324 -0.020364999771118164 -0.026713000610470772
   vertex 0.0037320000119507313 -0.015707999467849731 -0.020431999117136002
  endloop
 endfacet
 facet normal 0.95738797985991675 -0.0510752465796269 0.28425266086103407
  outer loop
   vertex 0.0045360000804066658 -0.021513000130653381 -0.024182999506592751
   vertex 0.0037320000119507313 -0.015707999467849731 -0.020431999117136002
   vertex 0.0041089998558163643 -0.019387999549508095 -0.022362999618053436
  endloop
 endfacet
 facet normal -0.60133416781356941 -0.19972872711157777 -0.77363147181739644
  outer loop
   vertex -0.0076529998332262039 -0.011262999847531319 -0.022315999493002892
   vertex -0.0051839998923242092 -0.013939999975264072 -0.023544000461697578
   vertex -0.0083560002967715263 -0.012954000383615494 -0.021332999691367149
  endloop
 endfacet
 facet normal -0.74230310667675037 -0.4619936959581134 -0.48533279583498906
  outer loop
   vertex -0.0051839998923242092 -0.013939999975264072 -0.023544000461697578
   vertex -0.0076529998332262039 -0.011262999847531319 -0.022315999493002892
   vertex -0.0064509999938309193 -0.011171000078320503 -0.02424200065433979
  endloop
 endfacet
 facet normal -0.46634634894752086 0.33532851909860861 -0.81858161908416405
  outer loop
   vertex -0.0051839998923242092 -0.013939999975264072 -0.023544000461697578
   vertex -0.009092000313103199 -0.016032999381422997 -0.022174999117851257
   vertex -0.0083560002967715263 -0.012954000383615494 -0.021332999691367149
  endloop
 endfacet
 facet normal -0.15817501589531785 0.74183887869942322 -0.65165615350159822
  outer loop
   vertex -0.0021039999555796385 -0.0054850000888109207 -0.023104000836610794
   vertex -0.0035520000383257866 -0.0056039998307824135 -0.022887999191880226
   vertex -0.002988999942317605 -0.0050789997912943363 -0.022427000105381012
  endloop
 endfacet
 facet normal -0.16498706677979857 0.62975260958963464 -0.75907240663222875
  outer loop
   vertex -0.0016919999616220593 -0.0079770004376769066 -0.025260999798774719
   vertex -0.0035520000383257866 -0.0056039998307824135 -0.022887999191880226
   vertex -0.0021039999555796385 -0.0054850000888109207 -0.023104000836610794
  endloop
 endfacet
 facet normal -0.28655177764131812 0.55577883654692239 -0.78038321584792547
  outer loop
   vertex -0.0048079998232424259 -0.0092550003901124001 -0.025026999413967133
   vertex -0.0035520000383257866 -0.0056039998307824135 -0.022887999191880226
   vertex -0.0016919999616220593 -0.0079770004376769066 -0.025260999798774719
  endloop
 endfacet
 facet normal 0.21275761533369894 0.93529282401969371 -0.28277469910652214
  outer loop
   vertex -0.0026070000603795052 -0.0048690000548958778 -0.021445000544190407
   vertex -0.0021039999555796385 -0.0054850000888109207 -0.023104000836610794
   vertex -0.002988999942317605 -0.0050789997912943363 -0.022427000105381012
  endloop
 endfacet
 facet normal -0.22592823793098987 0.3871838989791368 -0.89389320373113457
  outer loop
   vertex -0.00097799999639391899 -0.011625999584794044 -0.027022000402212143
   vertex -0.0048079998232424259 -0.0092550003901124001 -0.025026999413967133
   vertex -0.0016919999616220593 -0.0079770004376769066 -0.025260999798774719
  endloop
 endfacet
 facet normal -0.45134456316938548 0.021539587489307014 -0.89208975527590662
  outer loop
   vertex -0.00097799999639391899 -0.011625999584794044 -0.027022000402212143
   vertex -0.0064509999938309193 -0.011171000078320503 -0.02424200065433979
   vertex -0.0048079998232424259 -0.0092550003901124001 -0.025026999413967133
  endloop
 endfacet
 facet normal -0.46742130153798467 -0.41115256659565519 -0.78260519666709449
  outer loop
   vertex -0.0064509999938309193 -0.011171000078320503 -0.02424200065433979
   vertex -0.0035180000122636557 -0.012404000386595726 -0.025345999747514725
   vertex -0.0051839998923242092 -0.013939999975264072 -0.023544000461697578
  endloop
 endfacet
 facet normal -0.44966665409027035 -0.32456676768509435 -0.8321395997750084
  outer loop
   vertex -0.00097799999639391899 -0.011625999584794044 -0.027022000402212143
   vertex -0.0035180000122636557 -0.012404000386595726 -0.025345999747514725
   vertex -0.0064509999938309193 -0.011171000078320503 -0.02424200065433979
  endloop
 endfacet
 facet normal -0.48339876974187596 0.38995154473256555 -0.78374959149764589
  outer loop
   vertex -0.009092000313103199 -0.016032999381422997 -0.022174999117851257
   vertex -0.0051839998923242092 -0.013939999975264072 -0.023544000461697578
   vertex -0.0070759998634457588 -0.016815999522805214 -0.023808000609278679
  endloop
 endfacet
 facet normal -0.61454549294450111 -0.5960316608279933 -0.51679792607190667
  outer loop
   vertex -0.0048690000548958778 -0.020067000761628151 -0.022683000192046165
   vertex -0.0081979995593428612 -0.01809299923479557 -0.021000999957323074
   vertex -0.0070759998634457588 -0.016815999522805214 -0.023808000609278679
  endloop
 endfacet
 facet normal -0.59647204512601959 0.45320234674938326 -0.66244149348001713
  outer loop
   vertex -0.0070759998634457588 -0.016815999522805214 -0.023808000609278679
   vertex -0.0051839998923242092 -0.013939999975264072 -0.023544000461697578
   vertex -0.0049109999090433121 -0.016506999731063843 -0.02554599940776825
  endloop
 endfacet
 facet normal -0.6093330342934189 -0.59501609028158564 -0.52408883371504045
  outer loop
   vertex -0.0027079998981207609 -0.021178999915719032 -0.023933000862598419
   vertex -0.0048690000548958778 -0.020067000761628151 -0.022683000192046165
   vertex -0.0070759998634457588 -0.016815999522805214 -0.023808000609278679
  endloop
 endfacet
 facet normal -0.68698675649686247 -0.68046898702411751 -0.25497284972383244
  outer loop
   vertex -0.002432999899610877 -0.019898999482393265 -0.028090000152587891
   vertex -0.0027079998981207609 -0.021178999915719032 -0.023933000862598419
   vertex -0.0070759998634457588 -0.016815999522805214 -0.023808000609278679
  endloop
 endfacet
 facet normal -0.6317679481491042 0.11356228472851944 -0.76679388832900175
  outer loop
   vertex -0.0049109999090433121 -0.016506999731063843 -0.02554599940776825
   vertex -0.002432999899610877 -0.019898999482393265 -0.028090000152587891
   vertex -0.0070759998634457588 -0.016815999522805214 -0.023808000609278679
  endloop
 endfacet
 facet normal -0.18857082138486864 -0.80152280914756069 0.56745240482214809
  outer loop
   vertex -0.0081979995593428612 -0.01809299923479557 -0.021000999957323074
   vertex -0.0048690000548958778 -0.020067000761628151 -0.022683000192046165
   vertex -0.0069400002248585224 -0.018561000004410744 -0.021244000643491745
  endloop
 endfacet
 facet normal -0.23074912523952176 -0.81911918701440534 0.52516530603806555
  outer loop
   vertex -0.0048690000548958778 -0.020067000761628151 -0.022683000192046165
   vertex -0.0030269999988377094 -0.02057499997317791 -0.022665999829769135
   vertex -0.0069400002248585224 -0.018561000004410744 -0.021244000643491745
  endloop
 endfacet
 facet normal 0.9458002917570888 -0.07960227963788577 0.31484168273698698
  outer loop
   vertex 0.0041089998558163643 -0.019387999549508095 -0.022362999618053436
   vertex 0.0043000001460313797 -0.022027000784873962 -0.023603999987244606
   vertex 0.0045360000804066658 -0.021513000130653381 -0.024182999506592751
  endloop
 endfacet
 facet normal 0.60254075898629866 -0.30349819464767636 0.73812836255343561
  outer loop
   vertex 0.0038040000945329666 -0.022213999181985855 -0.02327599935233593
   vertex 0.0043000001460313797 -0.022027000784873962 -0.023603999987244606
   vertex 0.0041089998558163643 -0.019387999549508095 -0.022362999618053436
  endloop
 endfacet
 facet normal 0.01092419561167645 -0.30847478927016564 0.95116978838426358
  outer loop
   vertex -0.0030269999988377094 -0.02057499997317791 -0.022665999829769135
   vertex 0.0038040000945329666 -0.022213999181985855 -0.02327599935233593
   vertex 0.0041089998558163643 -0.019387999549508095 -0.022362999618053436
  endloop
 endfacet
 facet normal -0.15826561202729672 -0.68960381351383071 0.70668138254577428
  outer loop
   vertex -0.0026350000407546759 -0.021162999793887138 -0.023151999339461327
   vertex 0.0020639998838305473 -0.022265000268816948 -0.02317499928176403
   vertex -0.0030269999988377094 -0.02057499997317791 -0.022665999829769135
  endloop
 endfacet
 facet normal 0.0609250639450147 -0.11508638355795311 0.99148538108377959
  outer loop
   vertex 0.0020639998838305473 -0.022265000268816948 -0.02317499928176403
   vertex 0.0038040000945329666 -0.022213999181985855 -0.02327599935233593
   vertex -0.0030269999988377094 -0.02057499997317791 -0.022665999829769135
  endloop
 endfacet
 facet normal -0.19933508794238761 -0.69983214553837358 0.68593038333795742
  outer loop
   vertex -0.0026350000407546759 -0.021162999793887138 -0.023151999339461327
   vertex -0.0030269999988377094 -0.02057499997317791 -0.022665999829769135
   vertex -0.0048690000548958778 -0.020067000761628151 -0.022683000192046165
  endloop
 endfacet
 facet normal -0.14147706888607856 0.14469072380093073 -0.97931038666265902
  outer loop
   vertex 0.0016850000247359276 -0.01707799918949604 -0.028214000165462494
   vertex -0.0002899999963119626 -0.014894000254571438 -0.027605999261140823
   vertex 0.0016210000030696392 -0.014615999534726143 -0.027840999886393547
  endloop
 endfacet
 facet normal -0.035532145379851283 0.14879602332886735 -0.98822933071540664
  outer loop
   vertex 0.0016850000247359276 -0.01707799918949604 -0.028214000165462494
   vertex 0.0016210000030696392 -0.014615999534726143 -0.027840999886393547
   vertex 0.0020729999523609877 -0.016547000035643578 -0.028147999197244644
  endloop
 endfacet
 facet normal 0.26268732253484278 0.46057551419490711 -0.84785940243861935
  outer loop
   vertex 0.0016210000030696392 -0.014615999534726143 -0.027840999886393547
   vertex -0.00097799999639391899 -0.011625999584794044 -0.027022000402212143
   vertex -0.0016919999616220593 -0.0079770004376769066 -0.025260999798774719
  endloop
 endfacet
 facet normal -0.14153977645399934 0.14519218121302885 -0.97922710450434058
  outer loop
   vertex 0.0016210000030696392 -0.014615999534726143 -0.027840999886393547
   vertex -0.0002899999963119626 -0.014894000254571438 -0.027605999261140823
   vertex -0.00097799999639391899 -0.011625999584794044 -0.027022000402212143
  endloop
 endfacet
 facet normal 0.5012100679156517 -0.20209232884793765 -0.84139595817950341
  outer loop
   vertex 0.0023229999933391809 -0.018404999747872353 -0.028241999447345734
   vertex 0.0031530000269412994 -0.01742899976670742 -0.027982000261545181
   vertex 0.0033509999047964811 -0.020710000768303871 -0.027076000347733498
  endloop
 endfacet
 facet normal 0.70651763199395157 -0.14843620280308983 -0.69195341561340629
  outer loop
   vertex 0.0037789999041706324 -0.020364999771118164 -0.026713000610470772
   vertex 0.0033509999047964811 -0.020710000768303871 -0.027076000347733498
   vertex 0.0031530000269412994 -0.01742899976670742 -0.027982000261545181
  endloop
 endfacet
 facet normal -0.25715637398781704 -0.52507631904151875 -0.81127397252669653
  outer loop
   vertex 0.0033509999047964811 -0.020710000768303871 -0.027076000347733498
   vertex 0.00095600000349804759 -0.021507000550627708 -0.025800999253988266
   vertex 0.0023229999933391809 -0.018404999747872353 -0.028241999447345734
  endloop
 endfacet
 facet normal 0.084712640642585685 0.061711909963625321 -0.99449253827467277
  outer loop
   vertex 0.0023229999933391809 -0.018404999747872353 -0.028241999447345734
   vertex 0.0016850000247359276 -0.01707799918949604 -0.028214000165462494
   vertex 0.0020729999523609877 -0.016547000035643578 -0.028147999197244644
  endloop
 endfacet
 facet normal 0.44381254080912841 -0.66673748340373362 -0.59874164448867395
  outer loop
   vertex -0.00037799999699927866 -0.020254999399185181 -0.02818400040268898
   vertex 0.0023229999933391809 -0.018404999747872353 -0.028241999447345734
   vertex 0.00095600000349804759 -0.021507000550627708 -0.025800999253988266
  endloop
 endfacet
 facet normal 0.14710680028634357 -0.24482084399011178 -0.95834354156402768
  outer loop
   vertex 0.00093600002583116293 -0.017746999859809875 -0.028622999787330627
   vertex 0.0023229999933391809 -0.018404999747872353 -0.028241999447345734
   vertex -0.00037799999699927866 -0.020254999399185181 -0.02818400040268898
  endloop
 endfacet
 facet normal 0.34019661814115726 0.18302265700742124 -0.92237138291865028
  outer loop
   vertex 0.0016850000247359276 -0.01707799918949604 -0.028214000165462494
   vertex 0.0023229999933391809 -0.018404999747872353 -0.028241999447345734
   vertex 0.00093600002583116293 -0.017746999859809875 -0.028622999787330627
  endloop
 endfacet
 facet normal 0.89189261507598383 -0.24690801716495878 -0.37889839565850808
  outer loop
   vertex 0.0045360000804066658 -0.021513000130653381 -0.024182999506592751
   vertex 0.0040649999864399433 -0.021355999633669853 -0.025394000113010406
   vertex 0.0037789999041706324 -0.020364999771118164 -0.026713000610470772
  endloop
 endfacet
 facet normal 0.76019361052547485 -0.44629590772664146 -0.47215001563348064
  outer loop
   vertex 0.0033509999047964811 -0.020710000768303871 -0.027076000347733498
   vertex 0.0037789999041706324 -0.020364999771118164 -0.026713000610470772
   vertex 0.0035649999044835567 -0.021687999367713928 -0.025807000696659088
  endloop
 endfacet
 facet normal 0.72660449132713878 -0.4643233344249727 -0.50640868307297504
  outer loop
   vertex 0.0037789999041706324 -0.020364999771118164 -0.026713000610470772
   vertex 0.0040649999864399433 -0.021355999633669853 -0.025394000113010406
   vertex 0.0035649999044835567 -0.021687999367713928 -0.025807000696659088
  endloop
 endfacet
 facet normal 0.87942461924183823 -0.47215291638303014 -0.060695655712310122
  outer loop
   vertex 0.0043000001460313797 -0.022027000784873962 -0.023603999987244606
   vertex 0.0042349998839199543 -0.022045999765396118 -0.024398000910878181
   vertex 0.0045360000804066658 -0.021513000130653381 -0.024182999506592751
  endloop
 endfacet
 facet normal 0.86287341830250286 -0.33442529630612927 -0.37895802561433051
  outer loop
   vertex 0.0042349998839199543 -0.022045999765396118 -0.024398000910878181
   vertex 0.0040649999864399433 -0.021355999633669853 -0.025394000113010406
   vertex 0.0045360000804066658 -0.021513000130653381 -0.024182999506592751
  endloop
 endfacet
 facet normal 0.21974165517493957 0.61437468380078852 -0.75779769918208317
  outer loop
   vertex -0.0028140000067651272 -0.015116999857127666 -0.023810999467968941
   vertex -0.0049109999090433121 -0.016506999731063843 -0.02554599940776825
   vertex -0.0051839998923242092 -0.013939999975264072 -0.023544000461697578
  endloop
 endfacet
 facet normal -0.34959512827100492 -0.52844281478402955 -0.77364813564844281
  outer loop
   vertex -0.0028140000067651272 -0.015116999857127666 -0.023810999467968941
   vertex -0.0051839998923242092 -0.013939999975264072 -0.023544000461697578
   vertex -0.0035180000122636557 -0.012404000386595726 -0.025345999747514725
  endloop
 endfacet
 facet normal -0.5353416185683435 -0.066182181568337717 -0.84203875817653528
  outer loop
   vertex -0.0016639999812468886 -0.013748999685049057 -0.026419000700116158
   vertex -0.0035180000122636557 -0.012404000386595726 -0.025345999747514725
   vertex -0.00097799999639391899 -0.011625999584794044 -0.027022000402212143
  endloop
 endfacet
 facet normal -0.65511695059459918 -0.0029059162887689108 -0.75552189689919391
  outer loop
   vertex -0.0002899999963119626 -0.014894000254571438 -0.027605999261140823
   vertex -0.0016639999812468886 -0.013748999685049057 -0.026419000700116158
   vertex -0.00097799999639391899 -0.011625999584794044 -0.027022000402212143
  endloop
 endfacet
 facet normal -0.67462057319850743 -0.48828028865652334 -0.55359682254039311
  outer loop
   vertex -0.0016639999812468886 -0.013748999685049057 -0.026419000700116158
   vertex -0.0028140000067651272 -0.015116999857127666 -0.023810999467968941
   vertex -0.0035180000122636557 -0.012404000386595726 -0.025345999747514725
  endloop
 endfacet
 facet normal -0.42974423232635911 -0.90104534880387044 0.058627418339372211
  outer loop
   vertex -0.0027079998981207609 -0.021178999915719032 -0.023933000862598419
   vertex -0.0026350000407546759 -0.021162999793887138 -0.023151999339461327
   vertex -0.0048690000548958778 -0.020067000761628151 -0.022683000192046165
  endloop
 endfacet
 facet normal -0.77910299725580556 -0.10573113580427905 -0.61791540407126699
  outer loop
   vertex -0.0049109999090433121 -0.016506999731063843 -0.02554599940776825
   vertex -0.003014999907463789 -0.016826000064611435 -0.027882000431418419
   vertex -0.002432999899610877 -0.019898999482393265 -0.028090000152587891
  endloop
 endfacet
 facet normal -0.2917816572404594 0.88698201569616308 -0.35794743794247563
  outer loop
   vertex -0.0028140000067651272 -0.015116999857127666 -0.023810999467968941
   vertex -0.003014999907463789 -0.016826000064611435 -0.027882000431418419
   vertex -0.0049109999090433121 -0.016506999731063843 -0.02554599940776825
  endloop
 endfacet
 facet normal -0.17613493298695515 -0.93744031276497164 -0.30030342219960293
  outer loop
   vertex -0.002432999899610877 -0.019898999482393265 -0.028090000152587891
   vertex -0.00037799999699927866 -0.020254999399185181 -0.02818400040268898
   vertex -0.0027079998981207609 -0.021178999915719032 -0.023933000862598419
  endloop
 endfacet
 facet normal -0.22793787039155758 -0.97280215074400422 0.041234727466072318
  outer loop
   vertex -0.0026350000407546759 -0.021162999793887138 -0.023151999339461327
   vertex -0.0027079998981207609 -0.021178999915719032 -0.023933000862598419
   vertex 0.0020639998838305473 -0.022265000268816948 -0.02317499928176403
  endloop
 endfacet
 facet normal -0.25233384298334599 -0.90758690177704626 -0.33557956941386974
  outer loop
   vertex -0.00037799999699927866 -0.020254999399185181 -0.02818400040268898
   vertex 0.00095600000349804759 -0.021507000550627708 -0.025800999253988266
   vertex -0.0027079998981207609 -0.021178999915719032 -0.023933000862598419
  endloop
 endfacet
 facet normal -0.18737947826549184 -0.96199732493514867 -0.1986204368703535
  outer loop
   vertex 0.00095600000349804759 -0.021507000550627708 -0.025800999253988266
   vertex 0.0020639998838305473 -0.022265000268816948 -0.02317499928176403
   vertex -0.0027079998981207609 -0.021178999915719032 -0.023933000862598419
  endloop
 endfacet
 facet normal -0.70598211239047359 -0.086125403003586523 -0.70297345038212833
  outer loop
   vertex -0.003014999907463789 -0.016826000064611435 -0.027882000431418419
   vertex -0.0021619999315589666 -0.018022999167442322 -0.028591999784111977
   vertex -0.002432999899610877 -0.019898999482393265 -0.028090000152587891
  endloop
 endfacet
 facet normal -0.086743811075329053 -0.24580887369987942 -0.96542918375742304
  outer loop
   vertex -0.002432999899610877 -0.019898999482393265 -0.028090000152587891
   vertex -0.0021619999315589666 -0.018022999167442322 -0.028591999784111977
   vertex -0.00037799999699927866 -0.020254999399185181 -0.02818400040268898
  endloop
 endfacet
 facet normal 0.55013250479448217 -0.72141171813153682 0.4206178314230784
  outer loop
   vertex 0.0038040000945329666 -0.022213999181985855 -0.02327599935233593
   vertex 0.0038189999759197235 -0.022497000172734261 -0.023780999705195427
   vertex 0.0043000001460313797 -0.022027000784873962 -0.023603999987244606
  endloop
 endfacet
 facet normal 0.70595022570419352 -0.70708110137234914 -0.040872911692999031
  outer loop
   vertex 0.0038189999759197235 -0.022497000172734261 -0.023780999705195427
   vertex 0.0042349998839199543 -0.022045999765396118 -0.024398000910878181
   vertex 0.0043000001460313797 -0.022027000784873962 -0.023603999987244606
  endloop
 endfacet
 facet normal 0.053918659733485967 -0.87040526155133802 0.48937455879550129
  outer loop
   vertex 0.0038189999759197235 -0.022497000172734261 -0.023780999705195427
   vertex 0.0038040000945329666 -0.022213999181985855 -0.02327599935233593
   vertex 0.0020639998838305473 -0.022265000268816948 -0.02317499928176403
  endloop
 endfacet
 facet normal -0.23831512402813607 -0.95525738181507214 -0.17518343571030831
  outer loop
   vertex 0.00095600000349804759 -0.021507000550627708 -0.025800999253988266
   vertex 0.0036510000936686993 -0.022425999864935875 -0.024455999955534935
   vertex 0.0020639998838305473 -0.022265000268816948 -0.02317499928176403
  endloop
 endfacet
 facet normal -0.15301209617769018 -0.98604229780218677 -0.065634483073250552
  outer loop
   vertex 0.0036510000936686993 -0.022425999864935875 -0.024455999955534935
   vertex 0.0038189999759197235 -0.022497000172734261 -0.023780999705195427
   vertex 0.0020639998838305473 -0.022265000268816948 -0.02317499928176403
  endloop
 endfacet
 facet normal 0.14959256564443021 0.388406398299324 -0.90926483164370964
  outer loop
   vertex -0.0002899999963119626 -0.014894000254571438 -0.027605999261140823
   vertex 0.0016850000247359276 -0.01707799918949604 -0.028214000165462494
   vertex 0.00093600002583116293 -0.017746999859809875 -0.028622999787330627
  endloop
 endfacet
 facet normal -0.30571326428071793 0.48347111884060789 -0.82024086541078822
  outer loop
   vertex -0.00063700001919642091 -0.016110999509692192 -0.028193999081850052
   vertex -0.0016639999812468886 -0.013748999685049057 -0.026419000700116158
   vertex -0.0002899999963119626 -0.014894000254571438 -0.027605999261140823
  endloop
 endfacet
 facet normal 0.16054460373080742 0.3919089599887865 -0.90588785028469498
  outer loop
   vertex -0.0002899999963119626 -0.014894000254571438 -0.027605999261140823
   vertex 0.00093600002583116293 -0.017746999859809875 -0.028622999787330627
   vertex -0.00063700001919642091 -0.016110999509692192 -0.028193999081850052
  endloop
 endfacet
 facet normal -0.056568029120293226 -0.795388545449766 -0.60345432291827306
  outer loop
   vertex 0.0033509999047964811 -0.020710000768303871 -0.027076000347733498
   vertex 0.0035649999044835567 -0.021687999367713928 -0.025807000696659088
   vertex 0.00095600000349804759 -0.021507000550627708 -0.025800999253988266
  endloop
 endfacet
 facet normal -0.061974523464232337 -0.87756500181198616 -0.47543540679687496
  outer loop
   vertex 0.00095600000349804759 -0.021507000550627708 -0.025800999253988266
   vertex 0.0035649999044835567 -0.021687999367713928 -0.025807000696659088
   vertex 0.0036510000936686993 -0.022425999864935875 -0.024455999955534935
  endloop
 endfacet
 facet normal 0.0057704133486251741 -0.1753479808874126 -0.98448960783163864
  outer loop
   vertex 0.00093600002583116293 -0.017746999859809875 -0.028622999787330627
   vertex -0.00037799999699927866 -0.020254999399185181 -0.02818400040268898
   vertex -0.0021619999315589666 -0.018022999167442322 -0.028591999784111977
  endloop
 endfacet
 facet normal -0.029922202307742764 0.22651875254288437 -0.97354707978375143
  outer loop
   vertex -0.0021619999315589666 -0.018022999167442322 -0.028591999784111977
   vertex -0.00063700001919642091 -0.016110999509692192 -0.028193999081850052
   vertex 0.00093600002583116293 -0.017746999859809875 -0.028622999787330627
  endloop
 endfacet
 facet normal 0.70706802366734767 -0.60068382537044285 -0.37314039160278895
  outer loop
   vertex 0.0035649999044835567 -0.021687999367713928 -0.025807000696659088
   vertex 0.0040649999864399433 -0.021355999633669853 -0.025394000113010406
   vertex 0.0036510000936686993 -0.022425999864935875 -0.024455999955534935
  endloop
 endfacet
 facet normal 0.49296193410526168 -0.67354344649810893 -0.55075199246362139
  outer loop
   vertex 0.0042349998839199543 -0.022045999765396118 -0.024398000910878181
   vertex 0.0036510000936686993 -0.022425999864935875 -0.024455999955534935
   vertex 0.0040649999864399433 -0.021355999633669853 -0.025394000113010406
  endloop
 endfacet
 facet normal 0.54722571483200788 -0.80725127514848682 -0.221109465644825
  outer loop
   vertex 0.0038189999759197235 -0.022497000172734261 -0.023780999705195427
   vertex 0.0036510000936686993 -0.022425999864935875 -0.024455999955534935
   vertex 0.0042349998839199543 -0.022045999765396118 -0.024398000910878181
  endloop
 endfacet
 facet normal -0.59523005932303352 0.75098436946580149 -0.28587349176926236
  outer loop
   vertex -0.003014999907463789 -0.016826000064611435 -0.027882000431418419
   vertex -0.0028140000067651272 -0.015116999857127666 -0.023810999467968941
   vertex -0.0020910000894218683 -0.015487999655306339 -0.026290999725461006
  endloop
 endfacet
 facet normal -0.93066574180133588 0.20627681595597286 -0.30217735228907383
  outer loop
   vertex -0.0020910000894218683 -0.015487999655306339 -0.026290999725461006
   vertex -0.0028140000067651272 -0.015116999857127666 -0.023810999467968941
   vertex -0.0016639999812468886 -0.013748999685049057 -0.026419000700116158
  endloop
 endfacet
 facet normal -0.76380625881631947 0.14118951653626635 -0.62981387680272094
  outer loop
   vertex -0.00063700001919642091 -0.016110999509692192 -0.028193999081850052
   vertex -0.0020910000894218683 -0.015487999655306339 -0.026290999725461006
   vertex -0.0016639999812468886 -0.013748999685049057 -0.026419000700116158
  endloop
 endfacet
 facet normal -0.30883335029007469 0.80865321075360852 -0.50070145444814518
  outer loop
   vertex -0.003014999907463789 -0.016826000064611435 -0.027882000431418419
   vertex -0.0020910000894218683 -0.015487999655306339 -0.026290999725461006
   vertex -0.00063700001919642091 -0.016110999509692192 -0.028193999081850052
  endloop
 endfacet
 facet normal -0.22945661762322567 0.37037650023536695 -0.90009494427105297
  outer loop
   vertex -0.0021619999315589666 -0.018022999167442322 -0.028591999784111977
   vertex -0.003014999907463789 -0.016826000064611435 -0.027882000431418419
   vertex -0.00063700001919642091 -0.016110999509692192 -0.028193999081850052
  endloop
 endfacet
endsolid
